<?xml version="1.0" encoding="utf-8"?>
<!-- Generator: Adobe Illustrator 26.0.1, SVG Export Plug-In . SVG Version: 6.00 Build 0)  -->
<svg version="1.1" id="Layer_1" xmlns="http://www.w3.org/2000/svg" xmlns:xlink="http://www.w3.org/1999/xlink" x="0px" y="0px"
	 viewBox="0 0 1080 1080" style="enable-background:new 0 0 1080 1080;" xml:space="preserve">
<style type="text/css">
	.st0{fill:url(#SVGID_1_);}
	.st1{fill:url(#SVGID_00000058591232327874834230000008921479117239467395_);}
	.st2{fill:url(#SVGID_00000148658475221588996410000012983856948940709540_);}
</style>
<linearGradient id="SVGID_1_" gradientUnits="userSpaceOnUse" x1="81.0159" y1="543.8851" x2="1000.6697" y2="543.8851">
	<stop  offset="7.020930e-02" style="stop-color:#1E9CD7"/>
	<stop  offset="0.6194" style="stop-color:#0075BE"/>
	<stop  offset="0.9944" style="stop-color:#005B97"/>
	<stop  offset="1" style="stop-color:#CCE0F4"/>
</linearGradient>
<path class="st0" d="M116.9,1034c-19.7-6.9-34.1-19.1-35.8-41.1c-0.7-9.6,1.6-19.6,3.3-29.3c6.1-35.8,11.5-71.7,19.2-107.1
	c8.8-40.2,32.6-70.7,67.8-91.9c6.5-3.9,8.9-8.1,8.9-15.7c-0.2-122.4-0.2-244.7-0.2-367.1c0-40.5,18.5-59.1,58.8-59.2
	c3.8,0,7.6,0,12.8,0c0-14.5-0.6-28.4,0.3-42.2c0.5-7.7,2.1-16,5.8-22.6c5.9-10.3,16.7-13.1,28.2-12.4c6,0.3,10.6-0.5,14.2-6.7
	c2.4-4.2,7.9-8,12.7-9.3c5.8-1.6,7.3-4.9,8.3-9.8c13.6-71,55.4-119.4,121.5-145.8c73.3-29.3,146.6-26.7,217.2,9.5
	c55.2,28.3,88.8,74,100.9,135.1c1.1,5.8,2.3,9.5,9,11.3c4.7,1.3,9.8,5.4,12.4,9.7c3.3,5.5,7.2,6.1,12.6,6.1
	c24.8,0.1,35.5,10.9,35.5,35.5c0,37.6,0,75.2,0,112.8c0,23.4-11.1,34.6-34.5,34.6c-6.1,0-10.5,0.7-14,7c-4.5,8-11.5,10.2-27.1,11.9
	c-2.2,14-3.8,28.2-6.8,42.1c-8.5,38.5-28.6,70.5-56.6,97.7c-10.3,10-20.9,19.6-30.8,30c-3.1,3.3-5.6,8.4-5.9,12.8
	c-0.8,13.3-0.4,26.8-0.2,40.1c0.2,20.8,11,34.2,31.1,38.5c61,13,122,26,183,38.7c55,11.5,104.2,63.3,112.4,118.6
	c1.2,8-3.4,15.2-10.6,16.9c-7.4,1.8-14.2-2.2-17.1-10.2c-4.6-12.8-7.7-26.4-14.1-38.3c-17.7-33.1-46.1-52.6-82.8-60.3
	c-49.8-10.4-99.6-21-149.4-31.9c-7.9-1.7-14.1-0.9-21.4,3.3c-96.3,55.6-192.8,55.5-289.1,0.1c-6-3.4-11.2-5.7-18.6-4.1
	c-51.6,11.3-103.3,22-154.9,33.2c-49.7,10.8-85.6,49-94.3,99.8c-6.1,36.1-12.3,72.2-18.5,108.2c-2.2,13.1,3.9,22.3,16.5,22.5
	c32.8,0.4,65.6,0.1,99.5,0.1c3.2-19,6.3-37.7,9.4-56.4c2.7-16.6,5.3-33.3,8-50c1.8-11,8.3-17,16.8-15.7c8.6,1.3,13.3,8.4,11.6,19.7
	c-4.5,29.6-9.5,59.1-14.2,88.6c-0.7,4.3-1.2,8.6-1.9,13.4c190.7,0,380.5,0,570.8,0c-5.5-33.8-11.1-67.1-16.2-100.4
	c-0.7-4.7-0.8-11,1.8-14.4c2.7-3.6,8.8-6.3,13.5-6.4c7.1-0.1,11,5.7,12.2,12.6c3.3,19.5,6.4,38.9,9.6,58.4
	c2.7,16.6,5.4,33.2,8.3,50.7c7.3,0,14.3,0,21.2,0c25.2,0,50.4,0.1,75.5,0c14.7-0.1,21.2-7.2,19.3-21.7c-1.7-13.2-4.4-26.4-6.6-39.6
	c-0.3-1.9-0.8-3.8-0.9-5.7c-0.5-8.8,4.5-15.5,12.4-16.5c7.3-0.9,14.2,3.9,15.8,12.2c3,15.9,6.3,31.9,8,48c2.7,25.3-8.7,42-32.8,50.3
	c-1.2,0.4-2.3,1.1-3.4,1.7C681.7,1034,399.3,1034,116.9,1034z M357.3,446.7c1,35.9,10.4,68.1,32,95.3c27,34.1,60.2,62.1,93.8,89.6
	c27.8,22.7,92.6,22.3,119.1-2.7c23.9-22.5,48.8-43.8,72.7-66.3c18-17.1,31.2-37.7,39.6-61.2c6.2-17.4,9.5-35.3,10-54.5
	c-4.4,0-7.8,0-11.3,0c-36.6,0-73.3,0.6-109.9-0.4c-12.1-0.3-25.1-2.7-35.8-8c-18.6-9.1-35.3-9.7-53.4,0.4
	c-18.7,10.4-39.5,8.7-59.8,7.1c-7.6-0.6-11.9-6.6-11.6-14.1c0.3-7.9,5-13,13.3-13.6c6-0.4,12.3,0.7,18.1-0.4
	c11.4-2.1,23.4-3.5,33.8-8.2c22.5-10.1,43.8-10,66.3,0.2c10.1,4.6,21.8,7.6,32.8,7.8c46.8,0.8,93.7,0.4,140.5,0.4
	c3.4,0,6.8,0,10.7,0c0-54.5,0-107.8,0-161.6c-145.1,0-289.6,0-434.5,0c0,53.9,0,107.3,0,161.2c3.6,0.2,6.7,0.4,9.8,0.4
	c16.3,0,32.5,0,48.8,0c2.2,0,4.5-0.1,6.7,0.1c9.2,0.6,14.9,5.9,14.9,14c0.1,8.1-5.4,14-14.7,14.4
	C378.9,447.1,368.4,446.7,357.3,446.7z M208.7,747.8c4-0.7,7.1-1.1,10.2-1.7c58.5-12.4,117-24.9,175.6-37.2
	c22.2-4.7,32.7-16.8,33.1-39.7c0.3-12.7,0.6-25.5-0.2-38.2c-0.3-4.8-2.7-10.3-6-13.8c-9.6-10.2-20.1-19.6-30.1-29.3
	c-29-28.2-49.6-61.3-58-101.2c-2.7-12.9-3.9-26.2-5.9-39.5c-12.8-0.5-23.5-3.7-30.3-15.4c-1.2-2.1-5.9-2.9-9.1-3
	c-26.3-0.7-36.4-10.7-36.4-36.8c0-13.3,0-26.5,0-40.6c-4.7,0-8.2,0-11.6,0c-25.7,0-31.3,5.6-31.3,31.6c0,117.6,0,235.2,0,352.8
	C208.7,739.4,208.7,743.2,208.7,747.8z M348.9,226.7c128.2,0,255.8,0,384,0c-9.2-49-33.4-87.6-76.1-112
	c-74.3-42.3-150.6-42.9-226.1-3.3C384.8,135.5,358.6,175.3,348.9,226.7z M625.8,648.3c-57.3,38.8-112.7,38.7-169.8,0.1
	c2.5,32-2,60.9-31.2,80.9c77.9,37.7,154.2,38,232-0.1C627.3,709,623.4,680.1,625.8,648.3z M294,399.3c0-41.7,0-82.9,0-124.6
	c-4.5,0-8.5,0-13.1,0c0,41.7,0,82.9,0,124.6C285.5,399.3,289.4,399.3,294,399.3z M788.1,274.7c0,41.8,0,83,0,124.6
	c4.5,0,8.4,0,12.8,0c0-41.7,0-82.9,0-124.6C796.6,274.7,792.9,274.7,788.1,274.7z"/>
<linearGradient id="SVGID_00000168090535712829570510000002819838035476145544_" gradientUnits="userSpaceOnUse" x1="658.7975" y1="333.5222" x2="717.7496" y2="333.5222">
	<stop  offset="7.020930e-02" style="stop-color:#1E9CD7"/>
	<stop  offset="0.6194" style="stop-color:#0075BE"/>
	<stop  offset="0.9944" style="stop-color:#005B97"/>
	<stop  offset="1" style="stop-color:#CCE0F4"/>
</linearGradient>
<path style="fill:url(#SVGID_00000168090535712829570510000002819838035476145544_);" d="M701.8,339.3c5,9.4,9.3,17.9,14,26.2
	c2.9,5.2,2.4,9.3-2.8,12c-5.2,2.8-9,0.7-11.5-4.5c-4.1-8.3-8.8-16.2-12.5-24.6c-2.7-6.1-6.5-8.2-13.9-5.9c0,8.3-0.2,17.1,0.1,25.9
	c0.2,6.1-1.6,10-8.4,9.9c-6.3,0-8-3.6-8-9.3c0.1-23.5,0.1-47.1,0-70.6c0-6.6,2.3-10.3,9.5-9.9c9.2,0.5,18.5,0.2,27.6,1.2
	c12.2,1.4,18.8,7.3,21.1,17.5c2.7,11.9-1.3,23.2-10.6,29.5C705,337.4,703.7,338.1,701.8,339.3z M675.5,328.7c9-1.2,19,3.7,24-5.9
	c2.1-4.1,1.7-12.1-1.1-15.7c-5.6-7.2-14.6-4.6-22.9-3.8C675.5,311.8,675.5,319.6,675.5,328.7z"/>
<linearGradient id="SVGID_00000026862990220788954580000003518312442240828093_" gradientUnits="userSpaceOnUse" x1="582.4661" y1="333.8613" x2="649.9028" y2="333.8613">
	<stop  offset="7.020930e-02" style="stop-color:#1E9CD7"/>
	<stop  offset="0.6194" style="stop-color:#0075BE"/>
	<stop  offset="0.9944" style="stop-color:#005B97"/>
	<stop  offset="1" style="stop-color:#CCE0F4"/>
</linearGradient>
<path style="fill:url(#SVGID_00000026862990220788954580000003518312442240828093_);" d="M616.5,357.2c6.1-21.7,11.4-40.5,16.7-59.2
	c1.5-5.2,2.1-10.9,10.4-8.6c8.6,2.4,6.5,7.7,4.7,13.3c-6.8,22.1-13.9,44.2-20.3,66.5c-1.9,6.6-5.4,9.7-12,9.7
	c-6.8,0-9.9-3.6-11.8-10.1c-6.6-22.5-13.6-45-20.7-67.3c-2-6.1-1.8-10.3,5.5-12.2c7.6-2,8.5,3.1,9.9,8.1
	c4.4,15.9,8.9,31.8,13.5,47.6C613.3,348.2,614.5,351.4,616.5,357.2z"/>
</svg>
