<?xml version="1.0" encoding="utf-8"?>
<!-- Generator: Adobe Illustrator 26.0.1, SVG Export Plug-In . SVG Version: 6.00 Build 0)  -->
<svg version="1.1" id="Layer_1" xmlns="http://www.w3.org/2000/svg" xmlns:xlink="http://www.w3.org/1999/xlink" x="0px" y="0px"
	 viewBox="0 0 1080 1080" style="enable-background:new 0 0 1080 1080;" xml:space="preserve">
<style type="text/css">
	.st0{fill:url(#SVGID_1_);}
	.st1{fill:url(#SVGID_00000078753861710485651000000013591968507191483008_);}
	.st2{fill:url(#SVGID_00000126314270174639328430000003695056689378909317_);}
</style>
<linearGradient id="SVGID_1_" gradientUnits="userSpaceOnUse" x1="286.6328" y1="394.024" x2="944.2717" y2="394.024">
	<stop  offset="0" style="stop-color:#1E9CD7"/>
	<stop  offset="0.1067" style="stop-color:#1281BD"/>
	<stop  offset="0.2419" style="stop-color:#0565A1"/>
	<stop  offset="0.3204" style="stop-color:#005B97"/>
	<stop  offset="0.3674" style="stop-color:#0064A4"/>
	<stop  offset="0.4429" style="stop-color:#006EB3"/>
	<stop  offset="0.5338" style="stop-color:#0073BB"/>
	<stop  offset="0.6804" style="stop-color:#0075BE"/>
</linearGradient>
<path class="st0" d="M925.3,505.2c-54,0-108.1,0-162.1-0.1c-7,0-16.6,3.1-20.3-1.4c-3.6-4.3-0.8-13.6-1.4-20.6
	c-0.6-6,2.1-6.9,7.2-6.7c13.7,0.3,27.4,0.2,41.1,0.1c9.4-0.1,14.8-4.5,14.9-11.6c0.1-7.1-5.4-11.9-14.6-12.1c-9.2-0.2-18.5,0-27.7,0
	c-22.1,0-22,0-21-22c0.2-4.3,1.7-5.3,5.6-5.2c8.4,0.2,16.9-0.2,25.3,0.1c17.4,0.7,31.7-5.6,43.7-18.1c23-23.9,46.4-47.4,69.4-71.3
	c3.6-3.7,6.5-4.5,11.5-2.9c19.8,6.4,40-5.7,46.2-26c6.1-19.8-10.9-43.6-26.9-47.1c-14.3-3.2-26.1,0.4-35.8,11.7
	c-9.3,10.8-12.8,22.8-8.8,36.7c0.8,2.9,2.6,5.4-0.5,8.6c-25.5,25.8-50.9,51.8-76.4,77.7c-4.6,4.7-10.6,6.8-17.2,6.8
	c-10.3,0-20.6-0.1-30.8,0.2c-4.1,0.1-5.6-1-5.4-5.2c0.3-6.6,0.2-13.2,0.1-19.8c-0.6-25-10.6-44.7-32.7-57.5
	c-15.4-8.9-32.3-8.4-49.2-8c-5.4,0.1-7.1-1.1-7-6.8c0.3-31.1,0.2-62.3,0.1-93.5c0-4.4,1.1-6.8,5.3-9.1c18.3-9.8,25.2-31.8,16.2-50.3
	c-7-14.3-22.1-22.8-37.5-21c-16.1,1.9-29.1,13.8-32.1,29.4c-3.4,18,3.2,33.6,18.5,41.6c4.7,2.5,6.1,5.1,6,10.2
	c-0.3,26.1,0,52.3-0.2,78.4c0,6.8,3.1,16-1.4,19.6c-4.2,3.4-13.1,0.8-19.9,1.3c-4.5,0.3-5.8-1.1-5.7-5.7c0.3-14.8,0.2-29.6,0.1-44.4
	c-0.1-9.4-4.6-14.8-11.8-14.9c-7.1-0.1-11.8,5.4-11.9,14.7c-0.2,10.3,0.1,20.6-0.1,30.9c-0.1,6.3,2.8,14.5-1.3,18.2
	c-3.5,3.1-11.6,0.6-17.6,1.2c-6.4,0.7-8.3-1.2-8.3-8c0.3-60.2,0.1-120.4,0.3-180.6c0-7.6-1.2-14.1-8.8-17.7H536
	c-7.1,1.2-9.9,6.1-11,12.6c-0.7,4.5-0.8,8.9-0.8,13.4c0,54.9,0,109.8,0,164.7c0,2.6,0.1,5.3-0.2,7.9c-0.3,2.3-1.3,3.8-3.6,4.6
	c-11.9,4.2-18.4-0.4-18.5-12.8c-0.1-12.7,0.4-25.4-0.2-38c-0.4-6.8-4.8-11.4-11.1-12.6c-6.4-1.2-10.6,2.1-13.8,7.1
	c-2.5,3.9-3,8.4-3,12.9c-0.1,10,0,20.1,0,30.1c0,14.3-0.4,14.5-14.7,13.8c-5.3-0.3-7.7-2.3-7.6-7.6c0.1-8.4-0.2-16.9,0.1-25.3
	c0.5-16-5.4-29.2-16.7-40.4c-22.9-22.6-45.5-45.5-68.3-68.2c-4.2-4.2-6.5-8.2-5-14.6c5.5-24.8-6.5-42.8-30.9-47.5h-14.2
	c-0.6,1.5-2.1,1.3-3.3,1.7c-20.7,7-30.8,27.1-24.1,48c6.7,20.8,25.7,30.9,46.7,24.2c4.1-1.3,6.2-0.2,8.8,2.4
	c17.6,17.8,35.5,35.4,53.1,53.3c32.2,33,28.1,20.4,28.7,69.3c0.1,6.6-2.1,7.7-7.9,7.5c-10.8-0.4-21.7-0.8-32.3,1.6
	c-7.3,1.7-11.5,7.4-10.1,13.7c1.5,7,6.1,10.2,13.2,9.7c6-0.5,12.1-1.3,18.1-1.3c88.3-0.1,176.6-0.1,265-0.1
	c30.8,0,45.9,15.2,45.9,46.3c0,35.6,0.3,71.3-0.1,106.9c-0.6,60.4,1.8,120.9-1.3,181.3c-0.4,7.2,3.1,11.6,9.9,13
	c6.2,1.3,11.9-3.2,13.5-10.5c2.4-10.9,2-22.1,1.5-33.1c-0.2-5.6,1.5-7,7-6.9c29.8,0.3,59.6,0.3,89.4,0c5.8-0.1,9.1,1.2,12.2,6.8
	c7.9,14.7,25.2,21.4,41.3,17.3c15.7-4,27.1-19.1,27.8-35.4c0.7-15.6-13.9-34.2-26.4-37.5c-19.7-5.2-32.2,1-43.7,19.9
	c-2.4,4-4.6,5.4-9.1,5.4c-25.3-0.2-50.6,0-75.9-0.2c-7.3-0.1-17.3,3.3-21.1-1.4c-3.7-4.5-0.8-14.1-1.4-21.4
	c-0.5-5.4,2.1-5.9,6.4-5.8c13.7,0.2,27.4,0.2,41.1,0.1c10-0.1,15.6-4.4,15.8-11.7c0.1-7.4-5.5-11.9-15.4-12c-9.8-0.1-19.5,0-29.3,0
	c-18.6,0-18.2,0-18.8-18.9c-0.3-7.5,2.4-8.3,8.8-8.3c58.3,0.2,116.5,0.1,174.8,0.1c13.5,0,19.4-3.7,19.3-12.1
	C944,508.8,938.2,505.2,925.3,505.2z M906.5,283.2c8.4,0,14.6,6.9,15,15c0.4,8.1-7.2,15-15,15c-8.4,0-14.6-6.9-15-15
	C891.1,290.1,898.7,283.2,906.5,283.2z M323.8,158c-8.4,0-14.6-6.9-15-15c-0.4-8.1,7.2-15,15-15c8.4,0,14.6,6.9,15,15
	C339.1,151.1,331.6,158,323.8,158z M640.2,184.2c-8.4,0-14.6-6.9-15-15c-0.4-8.1,7.2-15,15-15c8.4,0,14.6,6.9,15,15
	C655.6,177.4,648.1,184.2,640.2,184.2z M882.5,605c8.4,0,14.6,6.9,15,15c0.4,8.1-7.2,15-15,15c-8.4,0-14.6-6.9-15-15
	C867.1,611.9,874.7,605,882.5,605z"/>
<linearGradient id="SVGID_00000127761073941871080250000014346244670526702750_" gradientUnits="userSpaceOnUse" x1="256.2154" y1="639.4101" x2="913.9244" y2="639.4101">
	<stop  offset="0.1989" style="stop-color:#1E9CD7"/>
	<stop  offset="0.227" style="stop-color:#1995D3"/>
	<stop  offset="0.3211" style="stop-color:#0B83C7"/>
	<stop  offset="0.4207" style="stop-color:#0378C0"/>
	<stop  offset="0.5343" style="stop-color:#0075BE"/>
	<stop  offset="0.7521" style="stop-color:#0074BC"/>
	<stop  offset="0.855" style="stop-color:#006FB4"/>
	<stop  offset="0.9334" style="stop-color:#0066A7"/>
	<stop  offset="0.9944" style="stop-color:#005B97"/>
</linearGradient>
<path style="fill:url(#SVGID_00000127761073941871080250000014346244670526702750_);" d="M782.5,865.6
	c-10.6-12.1-24.3-15.4-39.4-10.6c-4.1,1.3-6.1,0.5-8.8-2.2c-24.4-25.1-48.9-50.1-73.4-75.1c-5.4-5.5-8.3-12.1-8.2-19.9
	c0.1-8.7,0.5-17.5-0.2-26.1c-0.5-7,1.4-9.6,8.8-9.1c10.5,0.7,21.1,0.8,31.5-1.6c6.6-1.6,10.7-5.7,10.1-13
	c-0.5-6.7-5.7-10.6-13.4-10.3c-4.5,0.2-8.9,1.3-13.4,1.3c-91.5,0.1-183,0.1-274.5,0c-5.8,0-12-0.3-16.9-3.3
	c-16.2-10.1-24.5-24.2-24.4-44.3c0.6-80.8,0.2-161.6,0.3-242.4c0-14.5-0.8-29,1.1-43.5c1.2-9.3-2.9-14.9-10.3-15.7
	c-6.8-0.7-11.7,4.1-13.3,12.8c-2,10.7-1.5,21.6-1.2,32.4c0.1,5.4-1.1,7.1-6.8,7c-30.6-0.3-61.2-0.2-91.8-0.1c-4.4,0-6.8-1.1-9.1-5.4
	c-8.3-15.8-25.2-23-42.1-18.8c-16,4-27.9,19.5-27.8,36.1c0.1,16.7,11.7,31.7,28,36c16.5,4.3,33.7-3.2,41.9-19c2.2-4.2,4.6-5.4,9-5.4
	c25.8,0.2,51.7,0,77.5,0.2c6.8,0,16-3.1,19.6,1.4c3.4,4.2,0.8,13.1,1.3,19.9c0.3,4.4-1,5.9-5.6,5.8c-14-0.3-27.9-0.2-41.9-0.1
	c-10,0.1-15.6,4.4-15.7,11.8c-0.1,7.4,5.5,11.9,15.4,12c9.2,0.1,18.5-0.2,27.7,0.1c6.5,0.2,15.4-3,18.9,1.3c3.3,4,0.7,12.6,1.3,19.1
	c0.7,6.4-1.1,8.4-8,8.3c-59.1-0.3-118.1-0.1-177.2-0.3c-7.6,0-14.1,1.2-17.7,8.8v6.3c1.2,7.1,6,9.9,12.6,11
	c4.2,0.7,8.4,0.8,12.6,0.8c43,0,86,0,129,0c12.4,0,24.8-0.1,37.2,0c2.8,0,6.6-0.7,7.8,2.5c2.1,5.5,2.1,11.6,0.2,17.1
	c-1.5,4.2-6.4,2.7-9.9,2.7c-12.7,0.2-25.3-0.3-38,0.2c-7.3,0.3-12.1,4.7-13.3,11.3c-1.1,5.7,2.3,11.6,8.5,14.6
	c3.7,1.7,7.6,2.2,11.6,2.2c9,0.1,17.9,0,26.9,0c16.1,0,16.1,0.1,15.3,16.5c-0.3,5.4-2.5,7.5-7.7,7.5c-9.2-0.1-18.5-0.1-27.7,0
	c-11.8,0.1-22.7,3.9-31.1,12c-25.1,24.5-50.4,48.9-74.1,74.8c-3.8,4.1-7.3,5.8-13,4.7c-24-4.7-41.1,6.4-46.7,29.6v15.8
	c0.5,0.6,1.1,1.1,1.3,1.8c7.4,21.8,26.4,32.4,46.8,26.3c20.1-6,30.3-26.3,23.8-48c-1-3.4-0.3-5.2,2-7.5c8-8.3,16-16.5,23.8-25
	c16.1-17.4,33.4-33.8,50.1-50.6c5.5-5.5,12-8.3,19.8-8.3c10,0.1,20,0.2,30-0.1c4.5-0.2,5.2,1.6,5.1,5.5c-0.2,6.1-0.2,12.1,0,18.2
	c0.9,31.5,18,57.4,47.6,64.7c11.4,2.8,23,2.4,34.6,2.2c4.8-0.1,6.8,0.8,6.7,6.3c-0.3,31.4-0.2,62.8-0.1,94.2c0,4.1-0.8,6.4-4.9,8.5
	c-16.2,8.4-23.6,25.6-19.1,42.6c4.2,16,19.6,27.8,36.2,27.6c16.7-0.2,31.6-11.9,35.8-28.3c4.2-16.5-3.3-33.7-19.2-41.9
	c-4.4-2.3-5.2-4.8-5.2-9.1c0.1-26.4,0.1-52.8,0.1-79.2c0-21.4,0-21.2,21.5-20.8c4.6,0.1,5.7,1.4,5.6,5.8c-0.3,14.5-0.3,29,0,43.5
	c0.1,8.7,5,14,11.8,14.1c6.9,0,11.6-5.3,11.8-13.9c0.2-10-0.1-20.1,0.1-30.1c0.2-6.3-2.8-14.5,1.3-18.2c3.5-3.1,11.6-0.5,17.6-1.2
	c6.5-0.7,8.3,1.4,8.2,8.1c-0.3,60.2-0.1,120.4-0.2,180.5c0,7.6,1.2,14.1,8.8,17.7h6.3c7.1-1.2,9.9-6,11-12.6
	c0.7-4.2,0.8-8.4,0.8-12.6c0-34.3,0-68.6,0-102.9c0-21.9,0-43.8,0-65.7c0-3.1-1-7.2,2.2-8.7c5.4-2.4,11.5-2.1,17-0.4
	c4.5,1.4,2.9,6.3,3,9.7c0.2,12.7-0.2,25.3,0.2,38c0.3,7.5,5.1,13.1,11.5,14c5.8,0.9,12-3.3,14.7-9.8c1.6-3.7,1.8-7.7,1.8-11.6
	c0.1-10.8,0.2-21.6-0.1-32.4c-0.2-6.4,2.2-9.4,8.8-8.7c1,0.1,2.1,0,3.2,0c9.8,0.1,10.4,0.7,10.5,10.2c0.1,8.7-0.1,17.4,0.1,26.1
	c0.2,11.3,4.2,21.4,11.5,29.7c7.1,8.1,14.1,16.4,21.8,24c17.1,16.9,33.8,34,50.9,50.8c4.7,4.6,6.6,9.1,5.3,16
	c-4.7,23.7,8.2,42.4,31.4,46.9h14.2c11.2-4.7,21.3-10.2,26.1-22.9C794.2,891.1,793,877.6,782.5,865.6z M196.2,428.8
	c-8.4,0-14.6-6.9-15-15c-0.4-8.1,7.2-15,15-15c8.4,0,14.6,6.9,15,15C211.6,421.9,204.1,428.8,196.2,428.8z M171.5,749.8
	c-8.4,0-14.6-6.9-15-15c-0.4-8.1,7.2-15,15-15c8.4,0,14.6,6.9,15,15C186.9,742.9,179.3,749.8,171.5,749.8z M453.5,865.2
	c0.4,8.1-7.2,15-15,15c-8.4,0-14.6-6.9-15-15c-0.4-8.1,7.2-15,15-15C446.9,850.2,453.1,857.1,453.5,865.2z M754.2,906.5
	c-8.4,0-14.6-6.9-15-15c-0.4-8.1,7.2-15,15-15c8.4,0,14.6,6.9,15,15C769.6,899.6,762.1,906.5,754.2,906.5z"/>
<linearGradient id="SVGID_00000056427980650711920830000002470468306663289503_" gradientUnits="userSpaceOnUse" x1="437.8306" y1="511.0416" x2="642.3806" y2="511.0416">
	<stop  offset="0.1989" style="stop-color:#1E9CD7"/>
	<stop  offset="0.227" style="stop-color:#1995D3"/>
	<stop  offset="0.3211" style="stop-color:#0B83C7"/>
	<stop  offset="0.4207" style="stop-color:#0378C0"/>
	<stop  offset="0.5343" style="stop-color:#0075BE"/>
	<stop  offset="0.7521" style="stop-color:#0074BC"/>
	<stop  offset="0.855" style="stop-color:#006FB4"/>
	<stop  offset="0.9334" style="stop-color:#0066A7"/>
	<stop  offset="0.9944" style="stop-color:#005B97"/>
</linearGradient>
<path style="fill:url(#SVGID_00000056427980650711920830000002470468306663289503_);" d="M528.3,532.8c-5.2-2.1-8.9-4.1-12.9-5.2
	c-6.4-1.8-11.8,0.3-14.3,6.5c-2.5,6-0.8,11.5,5.1,14.9c2.3,1.3,4.7,2.3,7.1,3.5c8.5,4.5,14.2,11.1,14.6,21
	c0.4,9.7,0.7,19.5,0.1,29.3c-0.9,14.1-11.7,23.3-28,24.9c-14.1,1.4-28.6-7-32.3-19c-2.3-7.5-1.2-14.7,3.7-20.9
	c2.2-2.7,3.9-5.7,5-8.8c1.8-5.5,0.7-10.6-4.5-13.9c-5.3-3.4-10.4-2.6-15.1,1.7c-2.7,2.4-4.3,8.3-7.4,7.3c-4.3-1.3-6.5-6.7-8.4-11
	c-7.9-17.3,0.3-37.7,18.9-47c4-2,8.4-3.1,12.5-4.9c6.6-2.7,9.6-8.3,7.6-14.5c-2.1-6.5-7.1-9-13.6-7.9c-6,1-11.8,2.8-16.9,6.2
	c-4.3,2.8-6.3,1.1-8.3-2.8c-9.7-18.8,3.7-42,26.5-46c0.5-0.1,1-0.1,1.6-0.2c20.2-2.8,22-6.1,13.4-24.6c-6.1-13.1,6.6-27.9,23.3-26.9
	c9.9,0.6,22,7.2,22.8,20c0.4,6.9,4.3,11.3,11.6,11.4c7.3,0,10.5-4.5,11.9-11.3c4-19.5,26.7-26.7,41.5-13.4c3.2,2.9,5.4,6.5,5.8,10.9
	c0.5,5.7,0.2,10.5-7.6,10.8c-3.8,0.1-7.7,1.7-11.4,3.1c-7.4,2.8-10.6,9-8.4,15.6c2,6,8.4,9,15.5,6.8c10-3.1,20-4.4,30.2-0.9
	c12.5,4.3,21.7,12,24,25.7c2.4,14-3.4,24.4-15.1,32.1c-12,8-11.8,16.2,0.1,24.5c16.8,11.7,20.5,30,9,44.1c-2.6,3.2-4.1,3.9-6.7-0.1
	c-6.1-9.7-15.1-15.9-25.8-19.9c-7.4-2.8-14.1-0.6-16.7,5.6c-2.7,6.3-0.2,12.9,7.3,16c9.7,4,16.3,10.9,18.9,20.5
	c4.6,17.2-11.4,33.2-31.3,31.8c-15.2-1-30.1-10.2-29.5-31.1c0.7-22.4,0.1-44.9,0.2-67.3c0-18.9,8.7-28.8,27.3-31.3
	c1.8-0.2,3.6-0.6,5.5-0.9c6.8-1.3,9.9-5.7,9.7-12.3c-0.2-6.2-6.6-12.1-12.6-12.4c-8.8-0.5-16.1,3.8-23.5,7.2
	c-5.7,2.6-6.8,1.3-6.3-4.2c0.2-2.4,0.1-4.8,0-7.1c-0.4-8.8-4.8-14-11.7-14.1c-6.9-0.1-11.7,5.1-12,13.8c-0.2,6.6-0.1,13.2-0.1,19.8
	C528.3,502.4,528.3,517.1,528.3,532.8z"/>
</svg>
