<?xml version="1.0" encoding="utf-8"?>
<!-- Generator: Adobe Illustrator 26.0.1, SVG Export Plug-In . SVG Version: 6.00 Build 0)  -->
<svg version="1.1" id="Layer_1" xmlns="http://www.w3.org/2000/svg" xmlns:xlink="http://www.w3.org/1999/xlink" x="0px" y="0px"
	 viewBox="0 0 1080 1080" style="enable-background:new 0 0 1080 1080;" xml:space="preserve">
<style type="text/css">
	.st0{fill:url(#SVGID_1_);}
	.st1{fill:url(#SVGID_00000142143271135351997850000015218372105862212790_);}
	.st2{fill:url(#SVGID_00000105415287301737882520000009891677516646577547_);}
	.st3{fill:url(#SVGID_00000093174862464838712230000003303183431010263192_);}
	.st4{fill:url(#SVGID_00000118373574404739729850000018361716843717307278_);}
	.st5{fill:url(#SVGID_00000163051705330938186610000018267847011390134426_);}
	.st6{fill:url(#SVGID_00000142171109188211233440000006157035016562841221_);}
	.st7{fill:url(#SVGID_00000147206836618732155760000016221013626871755690_);}
	.st8{fill:url(#SVGID_00000098210257924357228350000011143816342850655371_);}
	.st9{fill:#3CC5EF;}
	.st10{fill:#ACE6F8;}
	.st11{fill:#FEFEFE;}
	.st12{fill:#FCFDFE;}
</style>
<linearGradient id="SVGID_1_" gradientUnits="userSpaceOnUse" x1="31" y1="555.2597" x2="612.2844" y2="555.2597">
	<stop  offset="8.379889e-03" style="stop-color:#0075BE"/>
	<stop  offset="0.7629" style="stop-color:#1E9CD7"/>
	<stop  offset="0.9944" style="stop-color:#005B97"/>
	<stop  offset="1" style="stop-color:#CCE0F4"/>
</linearGradient>
<path class="st0" d="M598.6,735.9c-125,0.3-250,0.2-375,0.2c-49.3,0-98.7-0.1-148,0.1c-7.7,0-11-0.8-11-10.3
	C65,585.1,65,444.2,64.7,303.3c0-8.6,1.1-11.7,10.8-11.7c61.1,0.5,122.2,0.2,183.2,0.2c20.8,0,20.3-0.1,24.9-19.6
	c1.9-8.1-0.1-9.3-7.7-9.3c-73.6,0.2-147.2,0.1-220.9,0.2c-16.5,0-24,7.3-24,23.5c-0.1,180-0.1,360.1,0,540.1
	c0,16.2,4.8,20.6,21.1,20.6c91,0,182,0,273,0c91.8,0,183.6-0.1,275.5,0.2c9,0,11.7-2.2,11.5-11.4c-0.6-29.1-0.9-58.1,0.1-87.2
	C612.6,737.6,608.8,735.9,598.6,735.9z M434,806c-8.4,0-14.6-6.9-15-15c-0.4-8.1,7.2-15,15-15c8.4,0,14.6,6.9,15,15
	C449.4,799.1,441.8,806,434,806z"/>
<linearGradient id="SVGID_00000019639859847006276260000006648363915211593406_" gradientUnits="userSpaceOnUse" x1="634.0258" y1="452.606" x2="1057.5018" y2="452.606">
	<stop  offset="8.379889e-03" style="stop-color:#0075BE"/>
	<stop  offset="0.7629" style="stop-color:#1E9CD7"/>
	<stop  offset="0.9944" style="stop-color:#005B97"/>
	<stop  offset="1" style="stop-color:#CCE0F4"/>
</linearGradient>
<path style="fill:url(#SVGID_00000019639859847006276260000006648363915211593406_);" d="M831.2,359.8
	c71.5,0.3,126.4,7.6,177.4,33.6c12,6.1,23,13.5,32.3,23.3c22.2,23.2,22.2,48.6,0,71.8c-15.4,16.2-34.8,26.3-55.4,33.9
	c-66.4,24.5-134.9,27.5-204.3,18.7c-33.5-4.3-65.8-12.9-96.1-27.9c-14.2-7.1-27.1-16-37.6-28.2c-17.9-20.9-18-43.8,0-64.5
	c17.5-20.2,40.7-31.6,65.4-40.1C756,365.2,800.7,359.3,831.2,359.8z"/>
<linearGradient id="SVGID_00000173875483079479735490000016054074923634607240_" gradientUnits="userSpaceOnUse" x1="633.5884" y1="900.6985" x2="1059" y2="900.6985">
	<stop  offset="8.379889e-03" style="stop-color:#0075BE"/>
	<stop  offset="0.7629" style="stop-color:#1E9CD7"/>
	<stop  offset="0.9944" style="stop-color:#005B97"/>
	<stop  offset="1" style="stop-color:#CCE0F4"/>
</linearGradient>
<path style="fill:url(#SVGID_00000173875483079479735490000016054074923634607240_);" d="M634.1,820.4
	c37.4,40.5,84.6,54.6,133.6,62.7c68.1,11.2,136,9.1,202.7-11c35.9-10.8,59.4-24.2,88.6-52.7c-5.5,35.8,9.9,71-15,101.1
	c-14.6,17.6-34.2,28.3-55.2,36.1c-71.3,26.4-144.6,31.8-219.3,18.3c-37.3-6.7-73.3-16.6-104.7-38.7c-20.8-14.6-33-33.4-30.9-60.3
	C635.2,858.4,634.1,840.6,634.1,820.4z"/>
<linearGradient id="SVGID_00000174561775782257886060000016819788092106334385_" gradientUnits="userSpaceOnUse" x1="103.2052" y1="336.8268" x2="831.0417" y2="336.8268">
	<stop  offset="8.379889e-03" style="stop-color:#0075BE"/>
	<stop  offset="0.7629" style="stop-color:#1E9CD7"/>
	<stop  offset="0.9944" style="stop-color:#005B97"/>
	<stop  offset="1" style="stop-color:#CCE0F4"/>
</linearGradient>
<path style="fill:url(#SVGID_00000174561775782257886060000016819788092106334385_);" d="M804.7,88.6c-18.1-9.3-34.7-5.6-49.6,6.4
	c-15.2,12.2-20.3,28.7-15.5,47.7c1.2,4.6,2.8,8.4-1,13.3c-36.9,47.6-73.4,95.4-109.9,143.2c-2.8,3.7-4.9,4.9-9.8,3.1
	c-17.3-6.2-33.5-3.7-47.6,8.3c-3.5,3-6.4,3.5-10.9,2.3c-54.8-13.9-109.7-27.6-164.6-41.2c-5.5-1.3-8.9-3.7-11.7-8.9
	c-13.1-24.4-41-33.3-64-20.8c-23.8,12.9-31.5,41.1-17.4,65.7c3.3,5.7,2.4,8.9-1.1,13.6c-43.2,56.9-86.3,114-129.3,171.1
	c-3.9,5.1-7.7,6.6-14.4,5.2c-21-4.5-42.4,7.5-51.1,27.7c-8.3,19.3-1.9,43.3,14.7,55.3c18.4,13.4,43,12.5,59.3-2.2
	c16.6-14.9,21.5-38.7,9.8-57.1c-5-7.8-3.5-12.1,1.3-18.5c42.6-55.9,85-111.9,127.2-168.1c4.2-5.6,8.2-6.8,15.1-5.9
	c24.8,3.1,42.1-6.5,51.4-28.9c2.7-6.6,5.7-6.2,10.9-4.9c50.5,12.7,101,25.5,151.6,37.9c6.6,1.6,7.8,4.3,7.6,10.6
	c-0.6,21.3,9.9,37.5,28.2,45.2c17.4,7.4,37.8,3.3,51.6-10.3c13.6-13.4,17.3-33.2,8.6-52.5c-2.5-5.5-1.3-8.6,1.9-12.7
	c35-45.4,70-90.9,104.7-136.5c4.1-5.4,6.6-7.7,14.3-4c31.3,15.3,66.4-7.6,66.1-47.7C830.3,111.3,821.7,97.4,804.7,88.6z M150,564.5
	c-11.5,0-20-9.4-20.5-20.5c-0.5-11.1,9.8-20.5,20.5-20.5c11.5,0,20,9.4,20.5,20.5C171,555.1,160.7,564.5,150,564.5z M342,304
	c-11.5,0-20-9.4-20.5-20.5C321,272.4,331.3,263,342,263c11.5,0,20,9.4,20.5,20.5C363,294.6,352.7,304,342,304z M602,366.5
	c-11.5,0-20-9.4-20.5-20.5c-0.5-11.1,9.8-20.5,20.5-20.5c11.5,0,20,9.4,20.5,20.5C623,357.1,612.7,366.5,602,366.5z M784.2,147.8
	c-9.8,0-17.1-8-17.5-17.5c-0.4-9.5,8.3-17.5,17.5-17.5c9.8,0,17.1,8,17.5,17.5C802.2,139.7,793.4,147.8,784.2,147.8z"/>
<linearGradient id="SVGID_00000023984382574111770120000004847344283737102476_" gradientUnits="userSpaceOnUse" x1="633.7865" y1="574.5682" x2="1058.036" y2="574.5682">
	<stop  offset="8.379889e-03" style="stop-color:#0075BE"/>
	<stop  offset="0.7629" style="stop-color:#1E9CD7"/>
	<stop  offset="0.9944" style="stop-color:#005B97"/>
	<stop  offset="1" style="stop-color:#CCE0F4"/>
</linearGradient>
<path style="fill:url(#SVGID_00000023984382574111770120000004847344283737102476_);" d="M1057.8,492.8
	c-23.1,26.1-50.2,40.1-79.7,49.8c-70.3,23-142,25.1-214.3,12.6c-47.5-8.2-92.8-22.3-127.2-59.2c-0.3-0.3-1.4,0.1-2.5,0.2
	c0,19.3,0.8,38.7-0.2,58c-1.1,22.3,8.6,38.8,25.1,52.3c15.5,12.7,33.2,21.6,52,28c77.1,26,155.3,27.9,234.2,10.3
	c33.8-7.5,66-19.1,92.3-42.9c11.1-10.1,19.4-22.4,20-37.5C1058.5,541.6,1057.8,518.7,1057.8,492.8z M872,628
	c-11.5,0-20-9.4-20.5-20.5C851,596.4,861.3,587,872,587c11.5,0,20,9.4,20.5,20.5C893,618.6,882.7,628,872,628z M927,623
	c-11.5,0-20-9.4-20.5-20.5C906,591.4,916.3,582,927,582c11.5,0,20,9.4,20.5,20.5C948,613.6,937.7,623,927,623z M978,611.5
	c-11.5,0-20-9.4-20.5-20.5c-0.5-11.1,9.8-20.5,20.5-20.5c11.5,0,20,9.4,20.5,20.5C999,602.1,988.7,611.5,978,611.5z"/>
<linearGradient id="SVGID_00000151518679059502063900000018071267692472085151_" gradientUnits="userSpaceOnUse" x1="633.8863" y1="793.3981" x2="1058.3143" y2="793.3981">
	<stop  offset="8.379889e-03" style="stop-color:#0075BE"/>
	<stop  offset="0.7629" style="stop-color:#1E9CD7"/>
	<stop  offset="0.9944" style="stop-color:#005B97"/>
	<stop  offset="1" style="stop-color:#CCE0F4"/>
</linearGradient>
<path style="fill:url(#SVGID_00000151518679059502063900000018071267692472085151_);" d="M1058.2,768.1c-1-15.3-0.1-30.7-0.3-46
	c0-2.4,2-5.7-2.6-7.4c-21.7,24.6-50,38.6-80.9,48.3c-71.8,22.4-144.6,24.5-218.1,10.2c-45-8.8-87.6-23.3-122.3-60.2
	c0,22.3,0.5,42-0.1,61.6c-0.6,17.4,6.2,31.4,18.1,43.3c15.2,15.1,33.9,24.9,53.7,32.1c73.3,26.9,148.5,29.2,224.6,15.6
	c34.4-6.2,67.6-16.5,96.5-37.1C1047.5,813.7,1059.8,794.8,1058.2,768.1z M872,841c-11.5,0-20-9.4-20.5-20.5
	C851,809.4,861.3,800,872,800c11.5,0,20,9.4,20.5,20.5C893,831.6,882.7,841,872,841z M925,836c-11.5,0-20-9.4-20.5-20.5
	C904,804.4,914.3,795,925,795c11.5,0,20,9.4,20.5,20.5C946,826.6,935.7,836,925,836z M976,825c-11.5,0-20-9.4-20.5-20.5
	C955,793.4,965.3,784,976,784c11.5,0,20,9.4,20.5,20.5C997,815.6,986.7,825,976,825z"/>
<linearGradient id="SVGID_00000070808337504974862910000017771902697821563274_" gradientUnits="userSpaceOnUse" x1="633.7714" y1="683.6699" x2="1058.7256" y2="683.6699">
	<stop  offset="8.379889e-03" style="stop-color:#0075BE"/>
	<stop  offset="0.7629" style="stop-color:#1E9CD7"/>
	<stop  offset="0.9944" style="stop-color:#005B97"/>
	<stop  offset="1" style="stop-color:#CCE0F4"/>
</linearGradient>
<path style="fill:url(#SVGID_00000070808337504974862910000017771902697821563274_);" d="M1058.4,602.5
	c-27.8,31.3-61,45.7-96.3,55.5c-62.5,17.2-126,19.7-189.7,9.3c-50.7-8.2-99.5-22-138.3-63c0,21.1,0.8,39.7-0.2,58.1
	c-1.3,23.8,9.5,40.9,27.4,54.8c19.1,14.8,41,24.1,64,30.9c62.2,18.4,125.6,20.8,189.5,11.6c34.5-5,68.1-13.9,98.7-31.3
	c18.5-10.6,36.3-23.2,41.8-44.9C1061.8,658,1056.7,631.8,1058.4,602.5z M869.5,734c-11.5,0-20-9.4-20.5-20.5
	c-0.5-11.1,9.8-20.5,20.5-20.5c11.5,0,20,9.4,20.5,20.5C890.5,724.6,880.2,734,869.5,734z M925,728.5c-11.5,0-20-9.4-20.5-20.5
	c-0.5-11.1,9.8-20.5,20.5-20.5c11.5,0,20,9.4,20.5,20.5C946,719.1,935.7,728.5,925,728.5z M975,718.5c-11.5,0-20-9.4-20.5-20.5
	c-0.5-11.1,9.8-20.5,20.5-20.5c11.5,0,20,9.4,20.5,20.5C996,709.1,985.7,718.5,975,718.5z"/>
<linearGradient id="SVGID_00000054264597783511354400000005450529575926606492_" gradientUnits="userSpaceOnUse" x1="140.5297" y1="562.8991" x2="622.1284" y2="562.8991">
	<stop  offset="8.379889e-03" style="stop-color:#0075BE"/>
	<stop  offset="0.7629" style="stop-color:#1E9CD7"/>
	<stop  offset="0.9944" style="stop-color:#005B97"/>
	<stop  offset="1" style="stop-color:#CCE0F4"/>
</linearGradient>
<path style="fill:url(#SVGID_00000054264597783511354400000005450529575926606492_);" d="M620.5,491.6
	c-19.7,16.3-38.5,31.6-56.9,47.3c-5.4,4.6-9.6,6.4-17.1,3.5c-16-6.3-32.3-4.8-45.6,6.7c-6.6,5.7-9.5,3.6-14.1-1.5
	c-18.1-20.1-36.4-40.1-55.1-59.7c-5.3-5.6-7.1-9.7-3.6-17.6c8.6-19.3,2-41.3-14.7-54.1c-16.4-12.7-39.8-12.8-56.5-0.3
	c-16.8,12.5-23.3,34.3-15.4,54c2.3,5.7,2,8.9-2.3,13.5c-41.8,43.3-83.5,86.8-124.9,130.5c-8.1,8.5-15.6,15.8-28.8,12.8
	c-4.5-1-9.5,0.4-14.2,2.2c-25.9,9.8-38.1,38.9-26.4,63.6c11.4,24.2,41.6,34,64.9,21.1c24-13.3,31.5-43.7,16.2-66.9
	c-3-4.5-5.9-7.3-0.5-12.9c43.3-44.7,86.2-89.7,129.2-134.8c3.8-4,6.8-5.5,12.4-2.8c10.6,5.1,22.1,5.3,33,1c6.2-2.5,9.5-0.6,13.4,3.8
	c15.1,16.8,30.6,33.3,45.9,50c12,13.1,27.9,24.1,24.6,45.4c-0.1,0.7,0.5,1.5,0.7,2.3c7.7,25.2,33.5,39.1,58.4,31.4
	c25.5-7.8,39.5-34.4,30.4-59.7c-2.4-6.5-1.6-9.9,3.7-14.1c10.1-8,19-17.9,29.7-24.9C621.8,521.7,624.4,508.9,620.5,491.6z
	 M187.5,693c-5.8,0-10.9-2.4-14.5-6.3l0,0c-1.4-1.4-2.7-3-3.6-4.8c0,0,0,0,0,0c-0.3-0.6-0.6-1.1-0.9-1.7c0,0,0-0.1-0.1-0.1
	c-0.2-0.5-0.5-1.1-0.7-1.7c0-0.1-0.1-0.2-0.1-0.3c-0.2-0.5-0.3-1.1-0.5-1.6c0-0.1-0.1-0.3-0.1-0.4c-0.1-0.5-0.2-1.1-0.3-1.6
	c0-0.2-0.1-0.3-0.1-0.5c-0.1-0.7-0.2-1.4-0.2-2.1c-0.5-11.1,9.8-20.5,20.5-20.5c0.7,0,1.4,0,2.1,0.1c0,0,0,0,0.1,0
	c0.7,0.1,1.3,0.2,1.9,0.3c0,0,0.1,0,0.1,0c0.6,0.1,1.2,0.3,1.8,0.5c0.1,0,0.1,0,0.2,0.1c0.5,0.2,1.1,0.4,1.6,0.6
	c0.1,0,0.2,0.1,0.3,0.1c0.5,0.2,1,0.5,1.4,0.7c0.1,0.1,0.3,0.1,0.4,0.2c0.4,0.2,0.8,0.5,1.2,0.8c0.2,0.1,0.3,0.2,0.4,0.3
	c0.4,0.3,0.7,0.5,1.1,0.8c0.2,0.1,0.3,0.3,0.5,0.4c0.3,0.3,0.6,0.6,0.9,0.9c0.2,0.2,0.3,0.3,0.5,0.5l0,0c3.8,3.8,6.2,9,6.5,14.7
	C208.5,683.6,198.2,693,187.5,693z M385,474c-11.5,0-20-9.4-20.5-20.5C364,442.4,374.3,433,385,433c11.5,0,20,9.4,20.5,20.5
	C406,464.6,395.7,474,385,474z M530.5,606.5c-0.1,0-0.1,0-0.2,0c-0.1,0-0.2,0-0.3,0c-11.5,0-20-9.4-20.5-20.5
	c-0.5-11.1,9.8-20.5,20.5-20.5c0.1,0,0.1,0,0.2,0c0.1,0,0.2,0,0.3,0c11.5,0,20,9.4,20.5,20.5C551.5,597.1,541.2,606.5,530.5,606.5z"
	/>
<linearGradient id="SVGID_00000119812214971771409440000006078390372110474911_" gradientUnits="userSpaceOnUse" x1="289.4734" y1="899.9434" x2="583.5107" y2="899.9434">
	<stop  offset="8.379889e-03" style="stop-color:#0075BE"/>
	<stop  offset="0.7629" style="stop-color:#1E9CD7"/>
	<stop  offset="0.9944" style="stop-color:#005B97"/>
	<stop  offset="1" style="stop-color:#CCE0F4"/>
</linearGradient>
<path style="fill:url(#SVGID_00000119812214971771409440000006078390372110474911_);" d="M436.6,940c-44.9,0-89.8,0.1-134.7-0.2
	c-4.2,0-11.9,4.2-12.3-4.7c-0.4-7.4,3.6-15.4,11.4-14.4c16.9,2.2,18.6-8.4,21-20.1c2.1-10.3,6.1-20.2,7.3-30.5
	c1.2-10,6.3-10.9,14.6-10.9c61.9,0.3,123.8,0.3,185.7-0.1c8.9-0.1,12.9,2.4,14.6,11.2c2.4,12.6,6.8,24.9,9,37.6
	c1.6,9.2,4.9,13.8,14.8,12.3c5-0.7,9.6,0.8,12.8,5.2c2.6,3.5,3.6,7.4,2.4,11.4c-1.4,4.9-6,3.1-9.3,3.1C528,940,482.3,940,436.6,940z
	"/>
<path class="st9" d="M679.3,291.9c7.2-9.5,13-16.6,18.2-24.2c3-4.4,7.1-4.7,11.6-4.6c36.8,0.1,73.6-0.1,110.3,0.1
	c14.9,0.1,22.4,7.4,22.7,22.2c0.4,14.5-0.3,29.1,0.2,43.6c0.2,6.6-2.8,8-8.4,8.8c-25.4,3.4-25.4,3.5-25.4-21.7
	c0-24.1,0-24.1-23.9-24.1C750.5,291.9,716.2,291.9,679.3,291.9z"/>
<path class="st9" d="M638.6,263.7c-1.3,2-2.7,3.9-3.9,5.9c-7.2,12.3-15.3,19-32.3,16.9c-17.8-2.2-35.8,6.4-54.7,5.9
	c-29.9-0.8-57.3-12.1-86-17.6c-13-2.5-25.8-6-38.7-9c-0.3-4,2.7-3.3,4.9-3.3c69.1,0,138.2-0.2,207.4,0
	C636.6,262.5,637.5,263.2,638.6,263.7z"/>
<path class="st10" d="M638.6,263.7c-68.1,0-136.1,0-204.2,0.1c-3.8,0-8.1-1.7-11.4,2c-2,0.2-4.5,0.5-5.3-1.7
	c-1.3-3.4,1.8-2.8,3.4-2.8c4.8-0.1,9.7,0.1,14.6,0.1c63.5,0,127,0,190.5,0.1C630.3,261.4,635.2,259.4,638.6,263.7z"/>
<path class="st11" d="M823,593.2"/>
<path class="st11" d="M716.9,576.7"/>
<path class="st12" d="M961.6,602.9c1,1.7,2.4,3.1,3.9,4.2C964,605.9,962.7,604.5,961.6,602.9z"/>
<path class="st12" d="M957.9,813.6c0.8,2,1.9,3.6,3.3,4.8C959.9,817,958.8,815.4,957.9,813.6z"/>
<path class="st12" d="M907.7,718.7c0.7,1.3,1.5,2.4,2.5,3.3C909.3,720.9,908.5,719.8,907.7,718.7z"/>
<path class="st12" d="M988.2,682.5c-1.6-1.8-3.7-3.1-6.2-3.7C984.3,679.6,986.4,680.9,988.2,682.5z"/>
</svg>
