<?xml version="1.0" encoding="utf-8"?>
<!-- Generator: Adobe Illustrator 26.0.1, SVG Export Plug-In . SVG Version: 6.00 Build 0)  -->
<svg version="1.1" id="Layer_1" xmlns="http://www.w3.org/2000/svg" xmlns:xlink="http://www.w3.org/1999/xlink" x="0px" y="0px"
	 viewBox="0 0 1080 1080" style="enable-background:new 0 0 1080 1080;" xml:space="preserve">
<style type="text/css">
	.st0{fill:url(#SVGID_1_);}
	.st1{fill:url(#SVGID_00000044167446370172177800000009972961254690051757_);}
	.st2{fill:url(#SVGID_00000163038920577805066420000008452100785372048532_);}
	.st3{fill:url(#SVGID_00000144319815910205854070000011198290818588010685_);}
</style>
<linearGradient id="SVGID_1_" gradientUnits="userSpaceOnUse" x1="46.5432" y1="528.077" x2="1017.3182" y2="528.077">
	<stop  offset="0.2486" style="stop-color:#0075BE"/>
	<stop  offset="0.3994" style="stop-color:#0075BE"/>
	<stop  offset="0.7032" style="stop-color:#0075BE"/>
	<stop  offset="0.8575" style="stop-color:#1E9CD7"/>
	<stop  offset="0.9944" style="stop-color:#005B97"/>
	<stop  offset="1" style="stop-color:#CCE0F4"/>
</linearGradient>
<path class="st0" d="M615.4,588.6c-44.3,0-88,0-132.1,0c0,84.1,0,167.9,0,251.9c0.7,0.4,1.5,0.9,2.3,1.2c8,3.3,15,8.2,21.2,14.2
	c13.4,13,21.3,28.8,23.7,47.4c2.4,18.6-1.2,35.9-10.6,52c-2.3,4-5,7.7-8.1,11.2c-5.9,6.6-12.6,12.3-20.4,16.6
	c-20.2,11.1-41.2,12.3-62.4,4.3c-18.2-6.9-31.6-19.6-40.3-37.1c-8.7-17.4-10.8-35.6-6.5-54.5c4-17.8,13.1-32.5,27.3-44.1
	c5.6-4.6,11.7-7.9,18.3-10.7c6.2-2.7,6.2-2.6,6.2-9.3c0-78.8,0-157.5,0-236.3c0-2.2-0.2-4.4-0.2-6.8c-28.1,0-55.9,0-84.1,0
	c-0.1,1.8-0.3,3.4-0.3,5.1c0,46.5,0,93,0,139.5c0,1.3,0,2.6,0,4c-0.3,5.2-1.3,10.1-4.2,14.6c-5.1,7.7-12.3,11.3-21.3,11.3
	c-16.2,0-32.4,0-48.6,0c-1.1,0-2.1,0.1-3.2,0c-1.9-0.2-3.1,0.6-4,2.4c-6.3,14.1-16.4,25-29.2,33.3c-3.6,2.3-7.7,4.1-11.7,5.7
	c-12.3,5-25.1,6.8-38.3,4.5c-16.4-2.9-30.6-10-42.1-22.2c-11-11.6-18.1-25.2-20.8-40.9c-3.7-21.7,0.2-41.9,12.6-60.2
	c5.8-8.5,13-15.4,21.5-21.1c9.4-6.3,19.8-9.5,30.8-11.2c15.3-2.3,29.7,0.7,43.2,7.6c14.5,7.5,25.6,18.8,32.8,33.6
	c2.3,4.8,4.1,10,5.9,15c0.6,1.6,1.2,2.5,3,2.4c7.6-0.1,15.3,0,22.9-0.1c0.4,0,0.8-0.2,1.1-0.3c0.9-3.3,1-118.8,0-123.3
	c-1.5,0-3.2,0-4.9,0c-49.6,0-99.3,0-148.9,0c-12.6,0-24.9-2.2-36.6-7C92.3,574.2,78.4,562.6,68,547c-11.1-16.7-17.1-35.1-19.7-54.8
	c-3.1-22.5-1.8-44.9,2.7-67.1c4-19.4,10.5-38,20-55.5c5-9.1,10.7-17.8,17.6-25.6c7.8-8.8,16.4-16.7,25.7-23.8
	c10.7-8.2,22.3-14.8,34.5-20.5c11.6-5.3,23.7-8.5,36-11.4c19.6-4.6,39.4-4.8,59.2-3.2c4.6,0.4,9.1,1,14,1.5c1.4-2.8,2.8-5.5,4.2-8.3
	c5.3-10.8,12-20.7,20.2-29.5c8.7-9.3,18.7-16.8,30.1-22.6c11-5.7,22.8-8.5,34.9-10.5c9-1.5,18.1-1.8,27.1-1.1c0.5,0,1-0.1,1.8-0.2
	c0.4-0.9,0.9-1.8,1.2-2.8c5-17.9,12.5-34.7,22.8-50.1c5.3-8,11.3-15.6,17.6-22.8c9-10.2,19.2-19.1,30.3-27
	c9.9-7,20.2-13.2,31.1-18.5c10.5-5.2,21.5-9.2,32.5-13c14.6-5.1,29.7-7.8,44.8-10.8c11.3-2.2,22.6-3.4,34-4.3
	c19.8-1.5,39.7-2.3,59.5-0.4c8.9,0.8,17.9,1.6,26.6,3.3c12.8,2.5,25.5,5.5,37.6,10.2c13.5,5.3,26.5,11.6,38.6,19.6
	c14.7,9.7,27.9,21,39.5,34.3c6.3,7.2,12.2,14.8,17.6,22.8c10.5,15.5,18.9,32.2,25.8,49.6c7.6,19.1,13.1,38.9,17,59.1
	c3.5,18.1,5.9,36.4,6.9,54.8c0.1,2.7,0.4,5.5,0.7,8.6c1.4,0,2.5,0.1,3.6,0c13.1-1,26.1-0.6,38.9,1.9c11.3,2.2,22.6,5,33.2,9.9
	c11.3,5.2,21.9,11.5,31.3,19.7c14.2,12.3,25.2,27.1,33.3,44.1c8.9,18.6,13.9,38.3,15.9,58.7c0.8,8.4,0.4,16.8,0.3,25.3
	c-0.2,16.6-4.4,32.3-11.7,47.1c-6.5,13.2-15.3,24.5-26.6,33.9c-9.7,8.1-20.2,14.6-32.1,18.8c-3.9,1.4-7.8,2.1-12,2.1
	c-46.5-0.1-92.9,0-139.4,0c-1.7,0-3.4,0-4.9,0c-1,3.5-1.1,119.1-0.2,123.3c13,0,26.1,0,39.6,0c0.6-1.3,1.2-2.7,1.8-4.2
	c5.7-14.7,15.2-26.4,27.9-35.5c3.5-2.5,7.5-4.4,11.4-6.3c16.1-7.8,33-9,50-4.3c18.8,5.3,33.5,16.5,44,33.2
	c6.7,10.7,10.6,22.3,11.8,34.8c1.4,14.6-0.7,28.7-7,42c-7.3,15.6-18.4,27.6-33.6,35.9c-13.1,7.1-26.9,9.4-41.5,8.3
	c-7.2-0.6-14.3-2.1-21-5.1c-20-8.7-34-23.4-42.1-43.7c-0.3-0.9-0.6-1.7-1-2.6c-0.1-0.4-0.4-0.7-0.9-1.4c-1.4,0-2.9,0-4.5,0
	c-19.2,0-38.4,0.1-57.7-0.1c-3.1,0-6.4-0.3-9.3-1.2c-9.9-3.1-15.2-10.3-16.9-20.3c-0.5-2.7-0.4-5.5-0.4-8.3c0-46.1,0-92.2,0-138.3
	c0-1.9,0-3.9,0-5.7c-3.4-0.9-71.3-1.1-76.1-0.3c-0.1,1.3-0.3,2.7-0.3,4.1c0,80.7,0,161.5-0.1,242.2c0,3,0.7,4.7,3.7,6
	c25.5,10.9,40.5,30.4,45.9,57.2c4.7,23.7-0.4,45.5-15.1,64.8c-6.7,8.8-15,15.7-24.9,20.9c-19.8,10.3-40.2,11.1-60.7,3.4
	c-16.8-6.4-29.5-17.9-38.4-33.6c-5.8-10.3-9.1-21.2-10.1-32.9c-1.4-16.2,1.7-31.5,9.5-45.7c8.7-15.9,21.2-27.7,38.3-34.3
	c2.3-0.9,3.5-2.2,3.1-4.7c-0.1-0.8,0-1.6,0-2.4c0-79.8,0-159.6,0-239.5C615.4,592.5,615.4,590.7,615.4,588.6z M538.6,537.9
	c128.9,0,257.7,0,386.6,0c1.4,0,2.9,0.1,4.3,0c1-0.1,2.1-0.2,3.1-0.5c10.6-4.4,19.2-11.3,25.6-20.8c8.3-12.2,10.9-25.9,10.5-40.2
	c-0.5-18.3-4.3-36-12.5-52.6c-9.5-19.1-24-32.7-44.2-40c-8.8-3.2-17.8-5.4-27.2-6c-14.2-1-28.1,0.1-41.8,3.8
	c-4.7,1.3-9.4,1.6-14-0.1c-12.4-4.6-18.2-14.7-17.4-27c0.3-4.9,0.4-9.7,0.3-14.6c-0.4-19.6-2-39.2-5.4-58.5
	c-3-17.1-7.1-34-13.1-50.3c-6-16.6-13.6-32.5-23.6-47.2c-8.8-13.1-19.3-24.7-31.5-34.6c-10-8.1-20.9-14.7-32.6-19.8
	c-13.4-5.8-27.4-9.9-41.9-12.1c-16-2.5-32.2-3.1-48.4-2.5c-19.9,0.7-39.6,2-59.1,6.3c-12.8,2.8-25.6,5.7-38,10.4
	c-11.5,4.4-22.6,9.4-33,15.9c-7.6,4.7-14.8,10-21.5,16c-14.4,12.8-25.5,28-33.2,45.5c-5.4,12.1-8.9,24.7-9.9,38
	c-0.8,11.4-10.1,21.6-21.5,22.9c-3.6,0.4-7-0.2-10.5-1.1c-9.2-2.4-18.5-4.3-28.1-3.5c-3.8,0.3-7.6,0.9-11.3,1.6
	c-8.2,1.6-16,4.3-22.8,9.3c-11.5,8.4-19.1,19.8-24.2,32.9c-1.9,4.8-3.5,9.7-4.9,14.6c-4,13.3-17,21.8-31.6,17.3
	c-3.3-1-6.5-2.2-9.9-2.8c-23.3-4.2-46.5-4.8-69.5,1.9c-9.7,2.8-19.2,6.2-28.1,11.2c-8.7,4.9-16.6,10.6-24,17.2
	c-7.1,6.3-13.4,13.4-18.2,21.7c-14.4,24.7-21.1,51.5-20.7,80c0.2,16.2,2.9,32,11.6,46.1c5.1,8.3,12,14.6,21.3,17.9
	c7.6,2.7,15.6,3.7,23.7,3.7C280.9,537.9,409.8,537.9,538.6,537.9z M226.9,731.2c0.2-15.6-11.8-27.7-26.3-27.8
	c-14.3-0.1-26.7,11.2-26.9,27.8c-0.2,14.9,12.3,27.6,26.7,27.7C213.8,759,227.2,746.9,226.9,731.2z M455.9,886.3
	c-14.7,0-26.7,12.1-26.7,27.4c0,14.9,11.1,27.8,26.7,27.8c14.7,0,26.5-12.3,26.5-27.6C482.5,898.8,470.5,886.3,455.9,886.3z
	 M639.7,886.3c-14.7,0-26.6,12.4-26.6,27.6c0,15.3,11.8,27.6,26.5,27.7c14.9,0.1,26.8-12.3,26.8-27.8
	C666.4,898.9,654.2,885.9,639.7,886.3z M874.9,737.4c-0.3,14.2,10.9,27.6,26.4,27.6c15,0.1,26.6-12.2,26.8-27.3
	c0.2-15.1-11.8-27.9-26.7-28C886.6,709.7,874.6,722.9,874.9,737.4z"/>
<linearGradient id="SVGID_00000019640931137889994260000014524625444635846569_" gradientUnits="userSpaceOnUse" x1="451.785" y1="237.6845" x2="772.4948" y2="237.6845">
	<stop  offset="0.2486" style="stop-color:#0075BE"/>
	<stop  offset="0.3994" style="stop-color:#0075BE"/>
	<stop  offset="0.7032" style="stop-color:#0075BE"/>
	<stop  offset="0.8575" style="stop-color:#1E9CD7"/>
	<stop  offset="0.9944" style="stop-color:#005B97"/>
	<stop  offset="1" style="stop-color:#CCE0F4"/>
</linearGradient>
<path style="fill:url(#SVGID_00000019640931137889994260000014524625444635846569_);" d="M772.5,309.6c-0.3,7.6-3,13-9.5,15.8
	c-6.3,2.7-12.4,1.8-17.7-2.8c-2.9-2.5-4.1-6-5.1-9.6c-3.3-11.9-6.3-23.9-10-35.7c-4.5-14.2-10.8-27.7-18.7-40.4
	c-8.3-13.4-18.6-24.8-31.1-34.3c-1.5-1.1-3.1-2.1-4.6-3.1c-15.6-10.1-32.9-14.9-51.2-16.6c-20.2-2-39.9,0.6-59,7.2
	c-15.4,5.4-29.1,13.9-41,25.2c-7.7,7.2-14.6,15.2-20.5,23.9c-8.7,12.7-15.5,26.2-20.1,40.9c-1.6,5.1-4.2,9.5-9.4,11.5
	c-5.9,2.3-11.8,1.9-16.7-2.4c-5.2-4.5-7.2-10.5-5.4-17.1c1.7-6.2,3.9-12.3,6.4-18.2c5.6-13.3,12.5-25.8,20.9-37.5
	c8.6-11.9,18.3-22.7,29.6-32.1c9.9-8.2,20.6-15,32.1-20.6c10.1-4.9,20.8-8.1,31.6-10.8c22.8-5.7,45.9-5.9,68.9-2
	c11.4,1.9,22.6,5.2,33.1,10c11.9,5.5,22.9,12.3,32.8,20.9c12.5,10.9,22.9,23.5,31.6,37.6c9,14.6,16.2,30.2,21.4,46.5
	c4.1,12.6,7.2,25.5,10.7,38.4C772.1,306.4,772.3,308.4,772.5,309.6z"/>
<linearGradient id="SVGID_00000003106205566412104910000006436812180589095328_" gradientUnits="userSpaceOnUse" x1="139.5467" y1="434.2727" x2="246.2432" y2="434.2727">
	<stop  offset="0.2486" style="stop-color:#0075BE"/>
	<stop  offset="0.3994" style="stop-color:#0075BE"/>
	<stop  offset="0.7032" style="stop-color:#0075BE"/>
	<stop  offset="0.8575" style="stop-color:#1E9CD7"/>
	<stop  offset="0.9944" style="stop-color:#005B97"/>
	<stop  offset="1" style="stop-color:#CCE0F4"/>
</linearGradient>
<path style="fill:url(#SVGID_00000003106205566412104910000006436812180589095328_);" d="M139.5,468.4c0.1-15.4,2.3-30.4,8.3-44.7
	c4.6-10.8,11-20.3,19.6-28.3c15.1-14.1,33.2-21.3,53.4-23.9c2.6-0.3,5.2-0.7,7.8-0.8c7.4-0.5,14.8,4.9,16.7,11.4
	c2.2,7.6,0.3,15-7.3,20.4c-2.4,1.7-5.4,2-8.3,2.2c-8.2,0.4-16.2,2-23.8,5.2c-15.8,6.8-26.4,18.2-30.9,35c-3,10.9-3.7,22-2.5,33.3
	c0.8,7.5-1.7,13.4-7.9,17.7c-4.5,3.1-11.9,3.1-16.4-0.1c-4.7-3.3-7.6-7.6-7.9-13.4C140,477.6,139.8,473,139.5,468.4z"/>
<linearGradient id="SVGID_00000168800410349568765470000005555406349284299433_" gradientUnits="userSpaceOnUse" x1="847.7146" y1="457.907" x2="938.1221" y2="457.907">
	<stop  offset="0.2486" style="stop-color:#0075BE"/>
	<stop  offset="0.3994" style="stop-color:#0075BE"/>
	<stop  offset="0.7032" style="stop-color:#0075BE"/>
	<stop  offset="0.8575" style="stop-color:#1E9CD7"/>
	<stop  offset="0.9944" style="stop-color:#005B97"/>
	<stop  offset="1" style="stop-color:#CCE0F4"/>
</linearGradient>
<path style="fill:url(#SVGID_00000168800410349568765470000005555406349284299433_);" d="M868.4,405.8c7.9,0.1,15.5,1.5,22.7,4.6
	c12.1,5.1,22,13.2,29.5,24.1c9,13.1,13.5,27.8,15.9,43.3c0.7,4.3,1.1,8.6,1.5,12.9c0.5,5.1-0.7,9.6-4.1,13.6
	c-4.4,5.1-9.9,6.8-16.3,5c-6.5-1.8-10.2-6.4-11.5-12.8c-1.1-5.7-1.4-11.5-2.4-17.2c-1.5-8.9-4.2-17.4-9.5-24.9
	c-6.6-9.5-15.4-14.9-27.2-14.9c-1.8,0-3.7,0.1-5.5-0.1c-10.8-1.8-16.9-13.5-12.4-23.6c2.8-6.2,7.6-9.6,14.4-9.8
	C865.2,406,866.8,405.9,868.4,405.8z"/>
</svg>
