<?xml version="1.0" encoding="utf-8"?>
<!-- Generator: Adobe Illustrator 26.0.1, SVG Export Plug-In . SVG Version: 6.00 Build 0)  -->
<svg version="1.1" id="Layer_1" xmlns="http://www.w3.org/2000/svg" xmlns:xlink="http://www.w3.org/1999/xlink" x="0px" y="0px"
	 viewBox="0 0 720 720" style="enable-background:new 0 0 720 720;" xml:space="preserve">
<style type="text/css">
	.st0{fill:url(#SVGID_1_);}
	.st1{fill:#FEFEFE;}
	.st2{fill:#FBFBFB;}
	.st3{fill:url(#SVGID_00000152943124729723443070000001460457000865058988_);}
	.st4{fill:url(#SVGID_00000029740099302107068120000014842566332791300017_);}
	.st5{fill:url(#SVGID_00000167371598100117267300000014796776574401428108_);}
	.st6{fill:url(#SVGID_00000133514336264721797640000011606688118379061394_);}
	.st7{fill:url(#SVGID_00000090293344871130559180000005534963333182388657_);}
	.st8{fill:url(#SVGID_00000123416967325429356070000018316537889329521828_);}
</style>
<linearGradient id="SVGID_1_" gradientUnits="userSpaceOnUse" x1="33.5967" y1="366.8492" x2="693.9376" y2="366.8492">
	<stop  offset="0" style="stop-color:#1E9CD7"/>
	<stop  offset="0.4462" style="stop-color:#0075BE"/>
	<stop  offset="0.9944" style="stop-color:#005B97"/>
	<stop  offset="1" style="stop-color:#CCE0F4"/>
</linearGradient>
<path class="st0" d="M260.9,58.1c29.7,0,59.4,0,89.1,0.1c3.4,0,5.4-0.7,7.1-4.1c5.8-11.1,15.3-17.1,27.8-17.2c12.6,0,22.2,5.9,28,17
	c1.9,3.7,4.1,4.3,7.7,4.3c57.9-0.1,115.8-0.1,173.6,0c23,0,35.7,12.7,35.7,35.8c0,7.5,0.2,15.1-0.1,22.6c-0.2,4.1,0.7,5.7,5.3,5.6
	c11.7-0.4,23.5-0.2,35.3-0.1c14.6,0.1,23.4,8.6,23.4,23c0.1,34.4,0.1,68.7,0,103.1c0,14.1-8.8,22.8-22.8,22.9
	c-12,0.1-24,0.2-35.9-0.1c-3.8-0.1-5.3,0.5-5.3,4.9c0,16.5-0.2,16.5,16.3,16.5c8.6,0,17.3-0.1,25.9,0c12.7,0.2,21.7,9.1,21.7,21.9
	c0.1,35,0.1,70.1,0,105.1c0,13.1-9.1,21.8-22.4,22c-12.2,0.1-24.4,0.1-36.6-0.1c-3.5-0.1-4.9,0.5-5,4.6
	c-0.2,16.8-0.4,16.8,16.6,16.8c8.6,0,17.3-0.1,25.9,0c12.3,0.2,21.4,9.2,21.4,21.6c0.1,35.3,0.1,70.5,0,105.8
	c0,12.7-9.2,21.5-22,21.6c-12.2,0.1-24.4,0.3-36.6-0.1c-4.6-0.1-5.5,1.4-5.3,5.6c0.3,8.2,0.1,16.4,0.1,24.6
	c-0.1,20.3-13.5,33.8-33.7,33.8c-58.1,0.1-116.2,0.1-174.3-0.1c-4.7,0-7.2,1.2-9.6,5.5c-5.8,10.4-15.3,15.9-27.3,15.8
	c-12.3-0.1-21.7-5.9-27.5-16.6c-2-3.8-4.2-4.6-8.1-4.6c-57.9,0.1-115.8,0.1-173.6,0.1c-22.6,0-35.4-12.9-35.5-35.4
	c0-14.9-0.2-29.7,0.1-44.6c0.1-4.4-1.2-5.4-5.4-5.6c-24.4-1.2-48.6-3.9-71.1-14.4c-13.8-6.4-25.6-15.1-29.3-31.3
	c-0.9-3.7-0.7-7.5-0.7-11.2c0-110.4,0.2-220.9-0.2-331.3c-0.1-18.9,8-31.5,23.8-40.4c19.3-10.9,40.7-14.4,62.3-16.7
	c3.5-0.4,7.1-0.5,10.6-0.8c9.9-0.8,9.9-0.8,9.9-11.1c0-14-0.1-27.9,0-41.9c0.2-19,13.8-32.6,32.8-32.7
	C202.4,58,231.6,58.1,260.9,58.1z"/>
<path class="st1" d="M508,654.3c-29.3,0-58.6,0-87.8,0.1c-3.4,0-5.4-0.7-7.1-4.1c-5.8-11.1-15.3-17.1-27.9-17.2
	c-12.6-0.1-22.1,6-28,17c-1.7,3.2-3.4,4.3-7,4.3c-58.6-0.1-117.1-0.1-175.7-0.1c-9.2,0-13-3.8-13-12.8c-0.1-15.3,0.2-30.6-0.1-45.9
	c-0.1-4.5,1.4-5.3,5.5-5.5c20.8-1,41.5-3.3,61.4-10.3c6.7-2.4,13.1-5.3,19.1-9.1c13.9-8.9,21.7-21.1,20.7-38.2
	c-0.4-6.2-0.1-12.4-0.1-18.6c0-8.5,0-8.5,8.8-8.5c8.6,0,17.3-0.4,25.9,0c6.3,0.3,8.6-1.6,7.9-8.1c-1-9.4,2.7-16.9,11.4-21.4
	c8.9-4.5,17.1-2.8,25.3,5c6.6,6.3,6.6,6.3,13.2-0.3c11.4-11.5,22.6-23.2,34.2-34.5c3.7-3.6,3.1-5.7-0.4-8.7
	c-6.2-5.2-10.3-11.7-9.1-20.3c1.6-11.5,10.2-18.2,23.1-18.3c8.6-0.1,8.6-0.1,8.6-8.7c0-15.3,0.1-30.6-0.1-45.9
	c-0.1-9.2-0.2-9.2-9.3-9.2c-10.6-0.1-18-4.9-21.2-13.9c-3.5-9.6-0.2-17.6,7.1-23.8c5.3-4.5,4.6-7.1-0.1-11.6
	c-12.3-11.5-24.2-23.4-36.1-35.4c-3.1-3.2-5-2.8-7.7,0.3c-5.2,6.1-11.5,10.5-20.1,9.6c-11.7-1.2-18.9-10-19-23.1
	c-0.1-8.6-0.1-8.6-8.7-8.6c-9.8,0-19.5-0.2-29.3,0.1c-3.9,0.1-4.8-1.1-4.7-4.8c0.3-8.2-0.1-16.4,0.1-24.6c0.4-14.3-5.8-25.2-17-33.4
	c-14.5-10.6-31.3-15.1-48.6-18.3c-11.8-2.2-23.7-3.2-35.7-3.7c-3.7-0.2-5.4-0.6-5.3-5c0.3-15.7,0.1-31.5,0.2-47.2
	c0.1-7.8,4.1-11.9,11.9-12c59.2-0.1,118.4,0,177.7-0.1c3.2,0,4.5,1.2,5.9,3.9c6,11.3,15.6,17.5,28.4,17.4c12.5-0.1,22-6.2,27.8-17.3
	c1.6-3,3.2-3.9,6.5-3.9c58.8,0.1,117.6,0.1,176.3,0.1c8.7,0,12.5,3.9,12.6,12.6c0.1,8.4-0.2,16.9,0.1,25.3c0.1,3.7-0.9,4.9-4.7,4.8
	c-12.2-0.2-24.4-0.2-36.6-0.1c-13.6,0.1-22.6,8.9-22.6,22.4c-0.1,34.8-0.1,69.6,0,104.5c0,13.2,9,22,22.2,22.2
	c12.4,0.1,24.8,0.1,37.3,0c3.4,0,4.4,0.8,4.5,4.3c0.4,17,0.5,17-16.4,17c-8.4,0-16.9-0.1-25.3,0c-13.2,0.1-22.3,8.9-22.3,22
	c-0.1,35-0.1,70.1,0,105.1c0,12.8,9,21.7,21.8,21.8c12.4,0.1,24.8,0.2,37.3,0c3.6-0.1,4.8,0.8,4.9,4.7c0.2,16.7,0.3,16.7-16,16.7
	c-8.4,0-16.9-0.1-25.3,0c-13.6,0.1-22.6,8.9-22.7,22.4c-0.1,34.8-0.1,69.6,0,104.5c0,13.2,9,22.1,22.2,22.2
	c12.2,0.1,24.4,0.2,36.6-0.1c3.9-0.1,5.4,0.7,5.2,5c-0.4,8-0.1,16-0.1,23.9c0,10-3.6,13.7-13.5,13.7
	C566.1,654.3,537.1,654.3,508,654.3z"/>
<path class="st1" d="M55.1,402.7c64,23.8,127.4,23.9,191.8-0.1c0.4,0.6-0.2,2.6-0.2,4.5c0.1,11.5-0.9,23.2,0.3,34.6
	c1.8,16.6-6.8,24.9-20.6,30.6c-17.2,7.1-35.4,9.8-53.7,10.9c-30.7,1.9-61.1,1.1-90.7-8.5c-4-1.3-7.8-3.1-11.6-4.9
	c-10.5-5.1-16.3-12.5-15.5-25.1C55.8,430.4,55.1,416.1,55.1,402.7z"/>
<path class="st1" d="M55.1,232.3c64.1,23.9,127.5,23.8,191.5,0.1c0,16.2,0.3,33.6-0.2,51c-0.2,6.1-5.3,10-10.2,13.2
	c-10,6.6-21.2,10-32.8,12.1c-39.3,7.1-78.4,7.2-117.3-3c-8.6-2.3-16.7-5.7-23.8-11.4c-4.9-4-7.5-8.9-7.4-15.5
	C55.2,263.1,55.1,247.4,55.1,232.3z"/>
<path class="st1" d="M246.7,317.6c0,15.5-0.1,31.6,0,47.8c0,7.6-4.4,12.3-10.1,16.1c-10.1,6.8-21.5,10.3-33.3,12.5
	c-37.9,7-75.8,7-113.4-2c-9.7-2.3-19-5.8-27-12.1c-5.2-4.1-8-9-7.9-15.9c0.3-15.7,0.1-31.5,0.1-46.5
	C118.9,341.5,182.5,341.3,246.7,317.6z"/>
<path class="st1" d="M246.7,487.9c0,15.9,0.2,32.7-0.1,49.6c-0.1,7.5-5.6,11.8-11.3,15.4c-12.1,7.5-25.6,10.8-39.4,12.9
	c-35.4,5.3-70.7,5.1-105.6-3.3c-9.7-2.3-19-5.8-27.1-12c-5.4-4.2-8.3-9.3-8.2-16.5c0.3-15.7,0.1-31.3,0.1-46.1
	C119,511.7,182.4,511.8,246.7,487.9z"/>
<path class="st1" d="M268,271.6c0-5.8,0.3-11.5-0.1-17.3c-0.2-3.9,1.2-5.1,4.9-4.6c0.9,0.1,1.8,0.1,2.7,0
	c9.1-0.9,15.2,0.2,20.1,10.7c8.7,18.9,32.7,26,51.9,17.7c4.8-2.1,7.1-0.9,10.6,2.2c7.6,6.7,11.5,12.3,7.6,24.1
	c-6.8,20.5,5.4,41.1,25.8,48.9c3.2,1.2,4.8,2.5,4.3,6c-0.2,1.3-0.2,2.7,0,4c1.5,9.7-1,15.5-11.1,20.5c-19,9.4-25.7,33.1-16.9,52.7
	c1.7,3.8,1.5,6.1-1.7,8.4c-0.2,0.1-0.3,0.3-0.5,0.5c-6.6,8-12.5,12.6-25.1,8.3c-20-6.9-40.8,5.6-48.4,25.6c-1.3,3.5-2.8,4.9-6.5,4.5
	c-5.7-0.6-13.2,2.4-16.6-1.1c-3.4-3.5-0.8-10.9-1-16.6c-0.2-7.1,0-14.2-0.1-21.3c0-3,0-4.4,4.1-4.1c38.9,3.1,74-23.8,79.8-60.8
	c6.3-40.4-17.3-76.3-56.5-85.8c-7.8-1.9-15.8-2.7-23.7-1.5c-3.1,0.5-3.8-0.4-3.7-3.3C268.1,283.6,268,277.6,268,271.6z"/>
<path class="st1" d="M147,228.5c-21.8-0.6-47.4-1.8-71.7-11.8c-4.5-1.9-8.8-4.2-12.6-7.3c-10.2-8.3-10.2-17.7,0.2-25.9
	c7.6-6.1,16.5-9.3,25.7-11.8c15.4-4.3,31.3-5.7,47.2-6.9c3.5-0.2,4.6,0.7,4.5,4.2c-0.2,11.1,0,22.2-0.1,33.2c-0.1,3.4,0.3,5,4.5,5.1
	c16.9,0.2,16.9,0.4,16.9-16.5c0-7.3,0.1-14.6,0-21.9c-0.1-2.9,0.4-4.4,3.9-4.1c19.9,1.4,39.7,3.3,58.5,10.5
	c5.6,2.1,10.9,4.8,15.6,8.7c9.5,8,9.6,17.2,0,25.1c-9.7,7.9-21.4,11.3-33.3,14C188,227.2,169.5,228.4,147,228.5z"/>
<path class="st1" d="M620,143.3c16,0,31.9,0.1,47.9-0.1c3.8,0,4.8,1,4.8,4.8c-0.1,32.4-0.1,64.8,0,97.1c0,3.8-1,4.8-4.8,4.7
	c-32.4-0.1-64.8-0.1-97.1,0c-3.8,0-4.8-1-4.8-4.8c0.1-32.4,0.1-64.8,0-97.1c0-3.8,1-4.8,4.8-4.8C587.2,143.4,603.6,143.3,620,143.3z
	"/>
<path class="st1" d="M566.1,366.9c0-16.2,0.1-32.4-0.1-48.6c0-3.8,1-4.8,4.8-4.8c32.4,0.1,64.8,0.1,97.1,0c3.8,0,4.8,1,4.8,4.8
	c-0.1,32.4-0.1,64.8,0,97.1c0,3.8-1,4.8-4.8,4.7c-32.4-0.1-64.8-0.1-97.1,0c-3.7,0-4.8-1-4.8-4.7C566.2,399.2,566.1,383,566.1,366.9
	z"/>
<path class="st1" d="M619.8,484c16,0,31.9,0.2,47.9-0.1c4.2-0.1,5.1,1.2,5,5.2c-0.2,32.2-0.2,64.3,0,96.5c0,4.2-1.2,5.1-5.2,5
	c-32.2-0.2-64.3-0.2-96.5,0c-4.2,0-5.1-1.2-5-5.2c0.2-32.2,0.2-64.3,0-96.5c0-4.2,1.2-5.1,5.2-5C587.4,484.1,603.6,484,619.8,484z"
	/>
<path class="st1" d="M268,336.6c0-5.6,0.4-10.8-0.1-15.8c-0.6-5.4,1.8-6.7,6.6-7.1c25.2-2.1,49.4,15.1,55.8,39.9
	c8.9,34.6-18.5,68.1-54.2,66.5c-5.8-0.3-9.1-1.5-8.1-8.3c0.6-4.3-1.4-9.8,0.6-13c2.1-3.5,7.3,0.5,11.4,0.1
	c12.8-1.2,22.3-7.2,27.7-18.8c5.4-11.6,4-23.1-4.1-33.1c-8-9.9-18.6-13.9-31.3-11.3C271.2,335.9,270.1,336.2,268,336.6z"/>
<path class="st2" d="M385.1,79.4c-5.7,0-10.5-4.8-10.6-10.5c-0.1-6,5-11,11-10.7c5.7,0.2,10.4,5.1,10.2,10.8
	C395.6,74.7,390.8,79.4,385.1,79.4z"/>
<path class="st2" d="M289.3,367.2c-0.2,5.7-5,10.4-10.8,10.3c-6-0.1-10.8-5.3-10.5-11.3c0.4-5.7,5.4-10.2,11.1-10
	C284.9,356.5,289.5,361.4,289.3,367.2z"/>
<path class="st2" d="M385.1,675.6c-5.7,0-10.5-4.8-10.6-10.5c-0.1-6,5-11,11-10.7c5.7,0.2,10.4,5.1,10.2,10.8
	C395.6,670.9,390.8,675.6,385.1,675.6z"/>
<linearGradient id="SVGID_00000026848546287612322850000013896988342732002721_" gradientUnits="userSpaceOnUse" x1="587.2863" y1="175.2116" x2="651.5931" y2="175.2116">
	<stop  offset="0" style="stop-color:#1E9CD7"/>
	<stop  offset="0.4462" style="stop-color:#0075BE"/>
	<stop  offset="0.9944" style="stop-color:#005B97"/>
	<stop  offset="1" style="stop-color:#CCE0F4"/>
</linearGradient>
<path style="fill:url(#SVGID_00000026848546287612322850000013896988342732002721_);" d="M619.4,164.6c9.3,0,18.6,0.1,27.9-0.1
	c3.2-0.1,4,0.9,4.1,4.1c0.6,17.3,0.7,17.3-16.7,17.3c-14.2,0-28.4-0.1-42.6,0.1c-3.8,0.1-4.7-1-4.8-4.8
	c-0.2-16.6-0.3-16.6,16.1-16.6C608.7,164.6,614.1,164.6,619.4,164.6z"/>
<linearGradient id="SVGID_00000027580847373356051200000000427324618476918461_" gradientUnits="userSpaceOnUse" x1="587.2897" y1="217.794" x2="651.4383" y2="217.794">
	<stop  offset="0" style="stop-color:#1E9CD7"/>
	<stop  offset="0.4462" style="stop-color:#0075BE"/>
	<stop  offset="0.9944" style="stop-color:#005B97"/>
	<stop  offset="1" style="stop-color:#CCE0F4"/>
</linearGradient>
<path style="fill:url(#SVGID_00000027580847373356051200000000427324618476918461_);" d="M620,228.4c-9.3,0-18.6-0.2-27.9,0.1
	c-3.8,0.1-4.7-1.1-4.7-4.8c-0.2-16.6-0.3-16.6,16.1-16.6c14.4,0,28.8,0.1,43.2-0.1c3.8-0.1,4.7,1.1,4.7,4.8
	c0.2,16.6,0.3,16.6-16.1,16.6C630.2,228.4,625.1,228.4,620,228.4z"/>
<linearGradient id="SVGID_00000138559062358143379620000011614002528777998008_" gradientUnits="userSpaceOnUse" x1="587.2842" y1="345.5612" x2="651.5983" y2="345.5612">
	<stop  offset="0" style="stop-color:#1E9CD7"/>
	<stop  offset="0.4462" style="stop-color:#0075BE"/>
	<stop  offset="0.9944" style="stop-color:#005B97"/>
	<stop  offset="1" style="stop-color:#CCE0F4"/>
</linearGradient>
<path style="fill:url(#SVGID_00000138559062358143379620000011614002528777998008_);" d="M620,334.9c9.1,0,18.2,0.1,27.3-0.1
	c3.2-0.1,4,0.9,4.1,4.1c0.7,17.3,0.8,17.3-16.7,17.3c-14.2,0-28.4-0.1-42.6,0.1c-3.8,0.1-4.7-1-4.8-4.7
	c-0.2-16.6-0.3-16.6,16.1-16.6C608.9,334.9,614.5,334.9,620,334.9z"/>
<linearGradient id="SVGID_00000046297054779741398870000015088057727664165304_" gradientUnits="userSpaceOnUse" x1="587.2834" y1="388.1487" x2="651.5999" y2="388.1487">
	<stop  offset="0" style="stop-color:#1E9CD7"/>
	<stop  offset="0.4462" style="stop-color:#0075BE"/>
	<stop  offset="0.9944" style="stop-color:#005B97"/>
	<stop  offset="1" style="stop-color:#CCE0F4"/>
</linearGradient>
<path style="fill:url(#SVGID_00000046297054779741398870000015088057727664165304_);" d="M619.4,377.5c9.3,0,18.6,0.1,27.9-0.1
	c3.2-0.1,4,0.9,4.1,4.1c0.7,17.3,0.8,17.3-16.7,17.3c-14.2,0-28.4-0.1-42.6,0.1c-3.8,0.1-4.7-1-4.8-4.7
	c-0.2-16.6-0.3-16.6,16.1-16.6C608.7,377.5,614,377.5,619.4,377.5z"/>
<linearGradient id="SVGID_00000033358548885715446960000007996579479076236436_" gradientUnits="userSpaceOnUse" x1="587.2563" y1="515.9064" x2="651.4716" y2="515.9064">
	<stop  offset="0" style="stop-color:#1E9CD7"/>
	<stop  offset="0.4462" style="stop-color:#0075BE"/>
	<stop  offset="0.9944" style="stop-color:#005B97"/>
	<stop  offset="1" style="stop-color:#CCE0F4"/>
</linearGradient>
<path style="fill:url(#SVGID_00000033358548885715446960000007996579479076236436_);" d="M618.9,526.6c-8.9,0-17.7-0.1-26.6,0.1
	c-3.5,0.1-4.9-0.5-5-4.5c-0.2-16.8-0.4-16.8,16.6-16.8c14.2,0,28.4,0.1,42.6-0.1c3.5,0,4.9,0.5,5,4.5c0.2,16.8,0.4,16.8-16.6,16.8
	C629.5,526.6,624.2,526.6,618.9,526.6z"/>
<linearGradient id="SVGID_00000163753915999733246780000015314226981739137170_" gradientUnits="userSpaceOnUse" x1="587.283" y1="558.4983" x2="651.601" y2="558.4983">
	<stop  offset="0" style="stop-color:#1E9CD7"/>
	<stop  offset="0.4462" style="stop-color:#0075BE"/>
	<stop  offset="0.9944" style="stop-color:#005B97"/>
	<stop  offset="1" style="stop-color:#CCE0F4"/>
</linearGradient>
<path style="fill:url(#SVGID_00000163753915999733246780000015314226981739137170_);" d="M620,547.8c9.1,0,18.2,0.1,27.3-0.1
	c3.2-0.1,4,0.9,4.1,4.1c0.7,17.3,0.8,17.3-16.7,17.3c-14.2,0-28.4-0.1-42.6,0.1c-3.7,0.1-4.7-1-4.8-4.7
	c-0.2-16.6-0.3-16.6,16.1-16.6C608.9,547.8,614.5,547.8,620,547.8z"/>
</svg>
