<?xml version="1.0" encoding="utf-8"?>
<!-- Generator: Adobe Illustrator 26.0.1, SVG Export Plug-In . SVG Version: 6.00 Build 0)  -->
<svg version="1.1" id="Layer_1" xmlns="http://www.w3.org/2000/svg" xmlns:xlink="http://www.w3.org/1999/xlink" x="0px" y="0px"
	 viewBox="0 0 720 720" style="enable-background:new 0 0 720 720;" xml:space="preserve">
<style type="text/css">
	.st0{fill:#FEFEFE;}
	.st1{fill:url(#SVGID_1_);}
	.st2{fill:url(#SVGID_00000057145812064357721900000002750451240256572562_);}
	.st3{fill:url(#SVGID_00000155842127281764876600000005451405341964759739_);}
</style>
<path class="st0" d="M360,719.9c-118.4,0-236.7,0-355.1,0.1c-4.1,0-4.9-0.8-4.9-4.9C0.1,478.4,0.1,241.6,0,4.9C0,0.8,0.8,0,4.9,0
	c236.7,0.1,473.5,0.1,710.2,0c4.1,0,4.9,0.8,4.9,4.9c-0.1,236.7-0.1,473.4,0,710.2c0,4.1-0.8,4.9-4.9,4.9
	C596.7,719.9,478.4,719.9,360,719.9z"/>
<linearGradient id="SVGID_1_" gradientUnits="userSpaceOnUse" x1="6.7764" y1="360.3292" x2="713.0071" y2="360.3292">
	<stop  offset="8.138248e-02" style="stop-color:#1E9CD7"/>
	<stop  offset="0.4965" style="stop-color:#0075BE"/>
	<stop  offset="1" style="stop-color:#005B97"/>
	<stop  offset="1" style="stop-color:#CCE0F4"/>
</linearGradient>
<path class="st1" d="M247.7,672.1c0-5.8-0.1-11.6,0-17.4c0.1-4.2-1.8-6.6-5.7-8.1c-5.6-2.2-11.1-4.6-16.3-7.5
	c-3.8-2-6.6-1.6-9.7,1.2c-8.6,7.8-17.5,15.3-26,23.1c-3.5,3.2-6.1,3.8-10.3,0.7c-17.4-13-35.1-25.8-52.8-38.5c-4.4-3.1-5.4-6-3.1-11
	c4.9-10.3,9.1-20.8,13.9-31.2c1.8-3.8,1.2-6.7-1.7-9.7c-4.4-4.4-8.5-9-12.5-13.7c-2.5-2.9-5-3.8-8.9-2.5c-11.2,3.8-22.5,7-33.7,10.7
	c-4.3,1.4-6.9,0.6-9.3-3.5c-11-19.7-22.3-39.3-33.6-58.8c-1.8-3.1-1.8-4.9,1-7.4c8.8-7.8,17.2-16.2,26-24c3.9-3.4,4.6-6.9,2.7-11.6
	c-2.1-5.4-3.7-11-5.3-16.5c-0.9-3.3-2.8-4.9-6.2-5.3C44.7,439.8,33,438,21.3,437c-5.3-0.5-7.2-2.9-7.7-7.9
	c-2.1-21.9-4.3-43.7-6.7-65.6c-0.5-4.5,1.2-6.6,5.2-7.9c11-3.6,21.9-7.5,32.9-11c3.9-1.2,6.3-3.3,6.6-7.4c0.5-6,0.9-12,1.5-17.9
	c0.5-4.5-1.2-7.5-5.1-9.8c-9.7-5.6-19.2-11.5-28.9-17.1c-4.2-2.4-5.4-4.9-3.8-9.7c6.9-20.4,13.5-41,19.9-61.6c1.6-5,4.1-7.2,9.5-6.5
	c11.3,1.3,22.7,2.1,34,3.4c4.1,0.5,6.9-0.6,8.9-4.3c2.7-5.1,5.5-10.2,8.6-15.1c2.7-4.2,2.2-7.6-0.7-11.5c-6.6-9-12.8-18.4-19.4-27.4
	c-2.9-3.9-3-6.7,0.4-10.4c14.9-16.2,29.6-32.6,44.1-49c3.1-3.5,5.7-4.1,9.8-1.7c10,5.9,20.3,11.2,30.2,17.1
	c4.3,2.6,7.6,2.2,11.3-0.9c4.1-3.5,8.5-6.6,13.1-9.5c4-2.5,5.1-5.4,4.1-10c-2.5-11.5-4.5-23.1-7-34.6c-0.9-4.1,0.1-6.3,3.9-8
	c21.2-9.3,42.4-18.6,63.4-28.2c3-1.4,4.2-0.2,5.8,1.9c7.2,9.8,14.7,19.4,21.8,29.4c2.7,3.8,5.6,5.1,10.2,3.9
	c5-1.4,10.1-2.6,15.2-3.1c5.7-0.7,8.3-3.6,9.4-9c2.2-11,5-21.8,7.3-32.7c0.9-4.6,3.2-6.3,7.8-6.2c21.8,0.1,43.6,0.2,65.4,0
	c5.4-0.1,7.4,2.3,8.4,7.1c2.3,10.9,5,21.8,7.2,32.7c1,4.8,3.3,7.3,8.2,8.1c5.5,0.9,11,2,16.4,3.4c4.3,1.1,7.2-0.2,9.8-3.7
	c7.2-9.9,14.7-19.5,21.8-29.4c2-2.8,3.5-3.3,6.8-1.8c20.5,9.3,41.1,18.5,61.8,27.4c4.7,2,5.6,4.9,4.6,9.4
	c-2.4,10.9-4.4,21.9-6.7,32.9c-1.1,4.9-0.1,8.4,4.5,11.1c4.8,2.9,9.2,6.3,13.6,9.8c3.1,2.5,5.9,2.5,9.3,0.6
	c10.4-5.9,21-11.5,31.4-17.5c3.7-2.1,6.3-2,9.3,1.4c14.7,16.6,29.5,33.2,44.4,49.6c3.2,3.5,3,6.3,0.4,10c-7,9.5-13.5,19.3-20.4,28.9
	c-2.3,3.2-2.5,5.9-0.3,9.3c3.2,5,6.3,10.2,9,15.5c2.2,4.3,5.1,5.4,9.7,4.8c11.3-1.3,22.7-2.2,34-3.4c4.9-0.5,7.2,1.4,8.7,6
	c6.6,20.9,13.4,41.8,20.3,62.7c1.4,4.2,0.6,6.6-3.3,8.8c-9.9,5.6-19.5,11.7-29.4,17.4c-4.3,2.5-6.1,5.8-5.3,10.9
	c0.9,5.3,1.4,10.7,1.7,16.1c0.3,4.4,2.5,6.7,6.6,8.1c10.4,3.4,20.8,7.1,31.2,10.6c7.2,2.4,7.6,3.7,6.8,10.9
	c-2.5,21-4.9,42.1-6.8,63.2c-0.5,5.7-2.9,7.3-8.2,7.8c-11.3,1.1-22.6,2.9-33.9,4.2c-3.7,0.4-5.8,2.3-6.9,5.6
	c-1.9,5.7-3.5,11.5-5.6,17.1c-1.7,4.5-0.3,7.6,3,10.6c8.9,8.1,17.5,16.4,26.4,24.5c2.3,2.1,2.8,3.5,1.1,6.4
	c-11.6,19.8-23,39.8-34.3,59.8c-2.2,4-5,4.4-9,3.2c-11.2-3.6-22.5-6.9-33.7-10.7c-3.9-1.3-6.4-0.5-8.9,2.5c-4,4.7-8.1,9.3-12.5,13.7
	c-3,3-3.4,5.9-1.7,9.7c4.6,10.2,8.8,20.6,13.5,30.7c2.4,5.1,1.5,8.5-3.1,11.7c-17.6,12.5-35.1,25.2-52.4,38c-4,3-6.8,2.7-10.4-0.6
	c-8.4-7.7-17.2-15-25.6-22.6c-3.1-2.7-6-3.4-9.8-1.6c-5.4,2.6-10.8,5.1-16.4,7.3c-4.4,1.8-5.8,4.9-5.8,9.3c0,11.2-0.3,22.4-0.2,33.6
	c0,4.5-1.4,6.8-6.1,7.8c-22.5,4.7-45.1,8.8-67.3,14.6c-4,1.1-4.8-1.8-6-4.3c-4.9-10.5-9.9-21-14.4-31.6c-2.1-5-5.2-7-10.6-6.5
	c-5.2,0.5-10.4,0.4-15.6,0c-5-0.4-7.8,1.7-9.7,6.1c-4.5,10.2-9.4,20.3-13.8,30.6c-2.1,4.8-4.3,6.2-10,4.8
	c-20.9-5.1-42.1-9.4-63.2-13.6c-5.3-1-7-3.5-6.7-8.5c0.3-5.6,0.1-11.2,0.1-16.8C248,672.1,247.9,672.1,247.7,672.1z"/>
<path class="st0" d="M85.9,359.9c1.1-153,123.8-274.6,275.9-273.5c152,1.1,273.1,124.3,271.8,276.8
	c-1.2,150.6-124.9,272.5-275.2,271.3C207.1,633.4,84.8,510.1,85.9,359.9z"/>
<linearGradient id="SVGID_00000014604371949575051890000006668279427839219881_" gradientUnits="userSpaceOnUse" x1="114.4621" y1="364.5507" x2="604.6029" y2="364.5507">
	<stop  offset="8.138248e-02" style="stop-color:#1E9CD7"/>
	<stop  offset="0.4965" style="stop-color:#0075BE"/>
	<stop  offset="1" style="stop-color:#005B97"/>
	<stop  offset="1" style="stop-color:#CCE0F4"/>
</linearGradient>
<path style="fill:url(#SVGID_00000014604371949575051890000006668279427839219881_);" d="M353.7,521.1c-51-2.3-95.5-22.2-136.4-51.4
	c-39.2-28-72.6-61.8-100.9-100.8c-2-2.7-2.9-5-0.6-8c42.9-57.8,94-106.1,160.9-135.3c66.9-29.2,131.7-21.7,194.1,13.7
	c51.2,29,93.1,68.6,128.3,115.4c7.3,9.7,7.4,9.9-0.1,19.5c-40.2,52.5-87.7,96.6-148,125.5c-27.9,13.4-57.5,20.3-88.3,21.7
	C359.7,521.7,356.7,521.2,353.7,521.1z"/>
<path class="st0" d="M275.7,367.5c-0.1-46.7,37.4-84.1,84.2-84c47,0,84.1,37.5,84.1,84.8c0,46.5-37.7,84.1-84.3,84.1
	C312.9,452.3,275.7,414.8,275.7,367.5z"/>
<path class="st0" d="M476.9,438.5c27.1-51.7,25.2-102.1-6.1-151.2c2.5-1.2,3.4,0.6,4.6,1.4c28.8,19.8,53.8,43.9,76.9,70.1
	c2.8,3.2,4.4,6.1,1.1,9.9C530.7,395,505.6,418.7,476.9,438.5z"/>
<path class="st0" d="M249.5,287.3c-31.7,48-34.1,97.9-8.7,148.9c-1.6,1.2-2.3,0.2-3.1-0.3c-26.7-19.4-48.8-43.7-71.7-67.1
	c-2.8-2.8-2.9-5.2-0.3-8.2c23.5-27.4,49.5-52.1,79.5-72.5c0.8-0.5,1.7-1,2.6-1.3C248.2,286.6,248.6,287,249.5,287.3z"/>
<linearGradient id="SVGID_00000134972719592552724360000014603808001697775256_" gradientUnits="userSpaceOnUse" x1="366.5551" y1="327.3669" x2="416.1078" y2="327.3669">
	<stop  offset="8.138248e-02" style="stop-color:#1E9CD7"/>
	<stop  offset="0.4965" style="stop-color:#0075BE"/>
	<stop  offset="1" style="stop-color:#005B97"/>
	<stop  offset="1" style="stop-color:#CCE0F4"/>
</linearGradient>
<path style="fill:url(#SVGID_00000134972719592552724360000014603808001697775256_);" d="M366.6,326.6c0.1-13.4,11.7-24.4,25.3-24.1
	c13.4,0.2,24.2,11.3,24.2,24.6c0,14-11.4,25.5-25,25.2C377.3,352,366.4,340.6,366.6,326.6z"/>
</svg>
