<?xml version="1.0" encoding="utf-8"?>
<!-- Generator: Adobe Illustrator 26.0.1, SVG Export Plug-In . SVG Version: 6.00 Build 0)  -->
<svg version="1.1" id="Layer_1" xmlns="http://www.w3.org/2000/svg" xmlns:xlink="http://www.w3.org/1999/xlink" x="0px" y="0px"
	 viewBox="0 0 720 720" style="enable-background:new 0 0 720 720;" xml:space="preserve">
<style type="text/css">
	.st0{fill:#364871;}
	.st1{fill:#FEFEFE;}
	.st2{fill:#FF6600;}
	.st3{fill:#92FCE0;}
	.st4{fill:#29ABE2;}
</style>
<path class="st0" d="M226,530.7c-1.3,0-2.6-0.2-3.8,0c-2.4,0.4-3.4-1.1-3.5-3.1c-0.1-2.4,1.4-3.3,3.6-3.3c2.7,0,5.4-0.1,8,0.1
	c2.2,0.2,2.9-0.6,3-2.9c0.4-8.6,1.1-17.2,3-25.5c9.1-38.5,29.4-68.8,61.8-90c19.3-12.6,40.4-19.6,63.2-21.3c6.5-0.5,6.5-0.5,6.5-7.4
	c0-1.5,0-2.9,0-4.4c0.1-1.9,0.2-3.3,2.9-3.1c2.2,0.2,3.5,0.6,3.4,3.1c-0.1,2.5,0.2,5-0.1,7.5c-0.3,3.1,0.8,4,3.7,4.1
	c11.7,0.5,23.2,2.7,34.4,6.3c19.8,6.4,36.8,17.4,52.2,31.7c17.4,16.2,29.3,36,37,58.7c4.2,12.5,6.5,25.4,7.1,38.6
	c0.2,3.8,1.4,4.8,4.7,4.4c2.1-0.2,4.2,0,6.3,0c2,0,3.8,0.4,3.7,3c0,2.5-1.8,3.1-3.8,3.1c-2.4,0.1-4.8,0.3-7.2,0
	c-3-0.3-3.7,1-3.8,3.9c-1.9,34-13.6,64-35.9,89.2c-25.4,28.7-57,44.1-94.5,46.3c-3.3,0.2-4.5,1.2-4.1,4.5c0.2,2.2,0,4.4,0.1,6.6
	c0.1,2.3-0.4,4.3-3.1,4.2c-2.6-0.1-3.1-2.1-3.1-4.3c0-2.3-0.2-4.7,0-7c0.2-2.8-0.7-3.8-3.5-3.9c-15.9-0.7-31.3-4.1-45.9-10.5
	c-33.8-14.8-58.3-39.6-73.5-74.3c-6.5-14.9-10.2-30.6-11.4-46.9C233.1,530.8,233.2,530.7,226,530.7z M374.1,624.9c0,0.9,0,1.8,0,2.6
	c0,6.4,0,6.6,6.2,5.8c25.3-2.9,47.1-13.4,64.7-32.6c16.7-18.2,26-40,28.1-65.1c0.3-3.7-0.1-5.7-4.4-5.2c-3,0.4-6.2,0.1-9.3,0.1
	c-2.2,0-4.1-0.6-4-3.4c0.1-2.6,2-2.8,3.9-2.8c3,0,5.9,0,8.9,0c5.3,0,5.3,0,4.9-5.5c-1.6-19.2-7.4-36.9-18.3-52.5
	c-19-27.3-44.9-42.2-77.2-45.2c-3-0.3-3.6,0.8-3.5,3.6c0.2,3.8,0,7.6,0.1,11.4c0,2.3-1,3.8-3.2,3.8c-2,0-2.9-1.6-2.9-3.6
	c0-3.5-0.3-7,0-10.5c0.4-4-0.9-5-4.6-4.6c-21.5,2.2-40.8,9.7-57.4,24.1c-22.7,19.8-35.1,45.1-37.3,75.9c-0.2,2.5,0.5,3.4,3,3.3
	c3.7-0.2,7.3,0,11-0.1c2.2,0,4.2,0.3,4.1,3.1c-0.1,2.6-2.1,3.2-4.3,3.1c-3.2,0-6.5,0.3-9.7-0.1c-3.8-0.4-4.3,1.1-4,4.7
	c2.4,29.8,14.6,54.3,36.4,73.6c16.8,14.9,36.5,22.7,58.5,24.7c3.2,0.3,4.7-0.5,4.3-4.2c-0.3-3.3-0.1-6.7-0.1-10.1
	c0-2.2,0.4-4.3,3.1-4.3c2.7,0,3.1,1.9,3.1,4.2C374,621.1,374.1,623,374.1,624.9z M374.1,403c0,2.5,0.3,5-0.1,7.4
	c-0.7,4.4,2.1,5.5,5,5.2c5.7-0.6,11.2,0.9,16.5,2.2c17.6,4.2,33.5,12.5,47,25c22.3,20.7,34.7,46.7,36.6,77.8c0.2,3.1,1.1,4,4,3.9
	c5.2-0.2,10.4-0.2,15.6,0c3.2,0.2,4.1-0.9,3.9-4.3c-2.2-32.1-13.1-60.4-34.1-84.4c-23.2-26.4-51.9-41.1-86-44.6
	c-8.3-0.9-8.3-0.6-8.3,8.1C374.1,400.6,374.1,401.8,374.1,403z M250.8,524.5c2.3,0,4.5-0.3,6.8,0.1c4.1,0.6,4.9-1.3,5.3-5.3
	c4.1-43,24.7-74.4,62-93.7c12.4-6.4,25.6-9.6,39.4-10.5c2.5-0.2,3.9-0.5,3.7-3.7c-0.2-5.8-0.1-11.7,0-17.5c0-2.4-0.9-3-3-2.9
	c-6.8,0.3-13.5,0.9-20.1,2.5c-47.2,11.3-79.7,40.3-97.4,87c-4.9,12.9-7.5,26.5-7.9,40.5c-0.1,2.7,0.6,3.7,3.3,3.5
	C245.4,524.4,248.1,524.5,250.8,524.5z M251.8,530.7c-1.3,0-2,0-2.7,0c-10.5,0-10.5,0-9.2,10.8c5.1,43.4,25.2,77.2,60.4,101.1
	c19.5,13.3,41.1,20.1,64.4,21.2c2.2,0.1,3.5-0.3,3.4-3c-0.1-6-0.1-12,0-18c0.1-2.7-1.1-3.1-3.3-3.2c-8.2-0.4-16.2-1.9-24.1-4.2
	c-40.3-11.3-72.6-50.3-77.4-93.7c-0.4-3.6,0.3-8.4-1.6-10.4C259.5,529.1,254.8,531,251.8,530.7z M374.3,651.5c-0.1,0-0.1,0-0.2,0
	c0,2.9,0.2,5.9,0,8.8c-0.2,3.1,1.1,3.8,3.7,3.5c4.9-0.6,9.8-0.8,14.7-1.6c60.6-10.1,107.1-64.3,110.1-128c0.1-2.5-0.3-3.8-3.1-3.6
	c-3.6,0.2-7.3,0.1-11,0.1c-8.7,0-8.7,0-9.6,8.7c0,0.3-0.1,0.6-0.1,0.9c-6.4,52.4-43.8,91.5-94.3,98.8c-3.4,0.5-8.2-1-9.9,1.8
	C373,643.4,374.3,647.9,374.3,651.5z"/>
<path class="st0" d="M238,401.1c-6.6,0-13.2,0.1-19.9,0c-11.1-0.1-19.2-8.4-19.4-19.9c-0.2-13.2-0.2-26.3,0-39.5
	c0.1-12,8.2-20.3,19.8-20.5c3.7-0.1,7.3-0.1,11,0c1.7,0,2.6-0.4,2.6-2.4c-0.3-9.2,0.9-18.5-0.7-27.6c-2.5-13.8-10.7-22.8-23-28.1
	c-2.7-1.2-3.4-0.4-3.3,2.5c0.2,4.4,0.2,8.8,0,13.2c-0.3,10.9-8.5,19.4-19,19.5c-13.8,0.1-27.6,0.1-41.4-0.1
	c-10.7-0.1-18.5-8.5-18.9-20.1c-0.1-4.2-0.2-8.5,0-12.7c0.2-3.5-1.1-3.8-3.9-2.8c-14.4,4.6-24.9,18.8-25.2,34.4
	c-0.1,6.9,0.1,13.8-0.1,20.6c-0.1,2.8,0.6,3.9,3.5,3.8c4.8-0.2,9.6-0.1,14.4-0.1c12.2,0.1,20.2,8.3,20.3,20.8
	c0.1,12.7,0.1,25.5,0,38.2c-0.1,13-7.9,20.9-20.6,20.8c-12.8,0-25.7,0-38.5,0c-11.9,0-19.9-8-20.1-20.5c-0.2-12.9-0.2-25.8,0-38.6
	c0.2-12.6,8.2-20.6,20.4-20.7c3.7,0,7.3-0.2,11,0c2.9,0.2,3.6-1,3.5-3.8c-0.2-6.1-0.1-12.3-0.1-18.4c0-20.8,12.1-37.6,31.4-43.2
	c3.2-0.9,4.2-2.3,4.1-5.6c-0.2-4.8-0.3-9.7,0.3-14.5c1.2-10.4,8.9-17.3,19-17.5c4.1-0.1,8.2-0.2,12.3,0c2.7,0.2,3.3-0.9,3.3-3.5
	c-0.1-7.5-0.1-14.9-0.1-22.4c0-22.1,13.7-40.5,34.4-45.7c3.2-0.8,4.1-2.1,3.9-5.2c-0.2-4.5-0.2-9.1,0-13.6
	c0.3-10.9,8.6-19.3,19.1-19.4c13.7-0.1,27.3-0.1,41,0c10.7,0.1,18.8,8.6,19,19.9c0.1,4.8,0.1,9.7,0,14.5c-0.1,2.2,0.7,2.9,2.7,3.3
	c22.9,5.2,36.6,22.9,36.7,47.3c0,7.2,0.1,14.3,0,21.5c0,2.5,0.7,3.2,3.1,3.2c5.5,0.1,11-0.8,16.4,0.7c8.3,2.2,14.2,9.5,14.3,18.4
	c0.2,13.8,0.2,27.5,0,41.3c-0.2,11-8.3,19.4-18.9,19.5c-14,0.2-27.9,0.2-41.9,0c-10.1-0.1-18.3-8.5-18.5-19.1
	c-0.2-13.9-0.2-27.8,0-41.7c0.2-10.8,8.3-18.9,18.8-19.1c5.8-0.1,11.6-0.1,17.3,0c2.2,0.1,2.9-0.7,2.9-3c-0.1-8.8,0.2-17.6-0.1-26.3
	c-0.6-16.9-13.7-32.5-29.7-36.1c-2.9-0.7-3.4,0.2-3.3,2.9c0.2,4.4,0.1,8.8,0,13.2c-0.2,10.7-7.7,19.2-18,19.5
	c-14.4,0.3-28.8,0.3-43.1-0.1c-9.9-0.3-17.6-8.9-17.9-19.2c-0.1-4.4-0.2-8.8,0-13.2c0.1-2.8-0.6-3.5-3.4-2.8
	c-14.8,3.7-27.5,18.6-28.4,34.4c-0.5,9.3-0.1,18.7-0.3,28.1c0,2.2,0.9,2.7,2.8,2.7c5.4-0.1,10.7-0.1,16.1,0
	c10.9,0.1,19.2,8.6,19.5,19.9c0.1,5.1-1.2,10.7,0.4,15.2c1.6,4.6,8,4.1,12,6.7c13.6,8.9,20.7,21.5,21,38.2c0.1,6.4,0.1,12.9,0,19.3
	c-0.1,2.7,0.8,3.6,3.4,3.5c5.5-0.2,11-0.1,16.5,0c11.9,0.2,19.7,8.5,19.7,20.9c0,12.6,0,25.2,0,37.7c0,13.4-7.7,21.3-20.5,21.3
	C251,401.1,244.5,401.1,238,401.1z M128.1,339.4c-1.2-7-6-11.4-12.8-11.5c-13.5-0.1-27.1-0.1-40.6,0c-7.3,0.1-12.7,5.4-12.8,12.9
	c-0.2,13.5,0.1,26.9,0,40.4c-0.1,7.7,6,13.4,13.6,13.4c13.2,0.1,26.5,0.2,39.7-0.1c5.2-0.1,12.9-4.5,12.8-11.2
	c0.9-1.4,0.6-3.1,0.6-4.6c0-10.3,0-20.6-0.1-30.9C128.6,345.1,129.3,342.2,128.1,339.4z M334,225.1c-1.2-1.1-2.7-0.6-4-0.6
	c-10.4-0.1-20.7-0.1-31.1,0c-3.3,0-6.7-0.7-10,0.5c-7.3,1.9-10.9,6.4-11,14.5c-0.1,12.7-0.2,25.4,0,38.2c0.1,8.3,5.4,13.7,13.4,13.8
	c13.4,0.1,26.8,0.1,40.2,0c8-0.1,12.9-5.4,13-13.6c0.1-13.2,0.1-26.3,0-39.5c-0.1-5.5-2-9.9-7.6-11.7C336,226.4,335,225.7,334,225.1
	z M165.6,224.6c-6.5,0-13,0-19.4,0c-8.5,0.1-14.2,5.6-14.3,14.4c-0.2,12.9-0.2,25.7,0,38.6c0.1,8.3,5.3,14,13.2,14.2
	c13.5,0.3,27,0.2,40.5,0c7.7-0.1,13-5.8,13.2-13.7c0.2-13.2,0.2-26.3,0-39.5c-0.2-8.6-5.8-14-14.1-14
	C178.3,224.5,172,224.6,165.6,224.6z M238.3,181.9c6.8,0,13.5,0.2,20.3,0c8.2-0.3,13.2-5.8,13.3-14.3c0-12.6,0-25.1,0-37.7
	c0-9.3-5.4-14.9-14.5-14.9c-12.7-0.1-25.3-0.1-38,0c-8.8,0-14.2,5.6-14.3,14.7c0,12.6,0,25.1,0,37.7c0,9.1,5.1,14.5,13.8,14.6
	C225.4,182,231.8,181.9,238.3,181.9z M238.3,327.8C238.3,327.8,238.3,327.7,238.3,327.8c-6.2,0-12.4,0-18.6,0c-0.3,0-0.6,0-0.8,0
	c-8.7,0.2-13.8,5.6-13.8,14.6c0,12.6,0,25.1,0,37.7c0,9,5.5,14.6,14.3,14.7c12.8,0,25.6,0,38.4,0c8.5,0,14-5.8,14.1-14.5
	c0.1-12.6,0-25.1,0-37.7c0-9-5.1-14.6-13.7-14.8C251.5,327.6,244.9,327.8,238.3,327.8z"/>
<path class="st0" d="M614.8,244.2c-0.1,27.3-7.8,52.1-23.4,74.1c-1.6,2.2-1.4,3.6-0.1,5.7c16.2,25.2,32.2,50.5,48.5,75.6
	c11.6,17.9,7.9,41.3-8.8,53.2c-17,12.1-39.3,7.6-50.9-10.4c-16.1-24.9-32-49.8-47.9-74.8c-1.8-2.8-3.3-3.8-6.7-2.8
	c-52.8,13.8-105.6-8.4-133.5-57c-17.3-30.2-21.1-62.7-12.3-96.8c4.8-18.5,13.5-34.7,25.7-49c39.1-45.5,103-54.6,151.5-23.9
	C593.3,161.1,614.9,200.9,614.8,244.2z M381.4,244.7c-0.5,62.5,49.4,117.2,111.9,117.9c62.9,0.7,114.5-51.6,115.4-116.2
	c0.9-65.6-49.3-119.8-113.6-119.9C431.4,126.2,381.4,179.4,381.4,244.7z M535.8,361.7c5.2,8.1,10.1,15.9,15.1,23.6
	c11.4,17.9,22.8,35.9,34.3,53.7c7.4,11.3,20.5,16.5,32.5,13c20.4-5.9,29.1-29,17.6-47.5c-10.9-17.4-22.1-34.6-33.1-51.9
	c-5.6-8.7-11.1-17.4-16.8-26.3c-7,8.1-14.4,15-22.7,20.9C554.4,353.2,545.5,357.8,535.8,361.7z"/>
<path class="st0" d="M355.5,75.4c2.6,0,6.7,0,10.7,0c2.2,0,4.1,0.6,4.1,3.2c0,2.3-1.8,3-3.9,3c-10.1,0-20.2,0.7-30.3,1.6
	c-2,0.2-4.2,0.2-4.4-2.7c-0.2-3,1.9-3.5,4.2-3.7C341.9,76.5,347.9,76,355.5,75.4z"/>
<path class="st0" d="M482.6,647.7c-1.7-0.2-2.7-0.8-3-2.3c-0.5-1.9,0.4-3.1,1.9-3.9c3.7-1.9,7.4-3.5,11-5.5
	c5.6-3.1,11.1-6.3,16.7-9.5c1.8-1,3.5-1.4,4.8,0.7c1.3,2.1,0.2,3.6-1.6,4.7c-9.2,5.7-18.7,10.8-28.4,15.3
	C483.5,647.6,482.9,647.7,482.6,647.7z"/>
<path class="st0" d="M496.8,110c0,2.7-2.3,3.6-5.4,2.2c-6.8-3.1-13.6-6.3-20.4-9.4c-2.4-1.1-5-2-7.5-3c-1.8-0.8-3.3-1.8-2.6-4.2
	c0.7-2.5,2.6-2.5,4.4-1.8c10,3.8,19.8,8.2,29.4,13.2C495.9,107.6,496.7,108.5,496.8,110z"/>
<path class="st0" d="M82.1,427.1c0-2.2,0.3-3.7,2.3-4.1c1.9-0.3,3,0.7,3.4,2.5c2.2,11,4.6,22,7.5,32.8c0.4,1.7-0.3,3.2-2.1,3.7
	c-1.8,0.5-3.1-0.5-3.6-2.2C86.3,448.9,83.7,437.9,82.1,427.1z"/>
<path class="st0" d="M135.9,546.8c1.6,0,2.5,1.1,3.4,2.3c5.9,8.3,12.3,16.3,19.1,23.9c1.4,1.6,2.7,3.4,0.7,5.3
	c-1.8,1.7-3.5,0.9-5.1-0.9c-7-7.8-13.6-16-19.6-24.6C132.3,549.9,133.2,547,135.9,546.8z"/>
<path class="st0" d="M206.7,623.3c-1.1,0.1-1.8-0.6-2.7-1.1c-8.4-5.9-16.4-12.2-24.2-19c-1.8-1.6-3.2-3.3-1.4-5.5
	c1.9-2.4,3.7-0.7,5.4,0.7c7.6,6.5,15.3,12.8,23.5,18.5c1.5,1,2.7,2.1,2.1,4.3C209.1,622.5,208.2,623.3,206.7,623.3z"/>
<path class="st0" d="M401.2,77.7c10.5,1.3,20.8,3.2,31.1,5.7c2,0.5,3.4,1.7,2.9,4c-0.5,2.4-2.3,2.7-4.3,2.2
	c-10.1-2.5-20.4-4.3-30.7-5.7c-1.9-0.3-3.2-1.2-3.1-3.4C397.2,78.5,398.6,77.6,401.2,77.7z"/>
<path class="st0" d="M608.1,535.6c-0.3,0.6-0.5,1.6-1,2.5c-5.6,8.9-11.7,17.5-18.2,25.7c-1.3,1.7-3,3.1-5,1.2
	c-1.9-1.8-1-3.6,0.4-5.4c6.3-8,12.2-16.3,17.7-25c1-1.6,2.1-2.7,4.1-2.2C607.5,532.7,608,533.8,608.1,535.6z"/>
<path class="st0" d="M566.5,587.6c0,1.5-0.9,2.4-1.9,3.3c-7.3,7.2-15,14.1-23,20.5c-1.7,1.3-3.5,2.4-5.2,0.3c-1.8-2.3-0.4-4,1.5-5.5
	c7.9-6.3,15.5-13,22.7-20.2c1.2-1.2,2.5-2,4.2-1.2C565.9,585.4,566.4,586.4,566.5,587.6z"/>
<path class="st0" d="M637.2,475.2c-0.4,1.2-1.1,3-1.7,4.8c-3.1,8.8-6.7,17.3-10.7,25.7c-1,2.2-2.2,4-4.8,2.6
	c-2.3-1.3-1.7-3.3-0.7-5.3c4.5-9.3,8.3-18.9,11.7-28.6c0.7-2,1.7-3.5,3.9-3C636.3,471.7,637.3,472.8,637.2,475.2z"/>
<path class="st0" d="M267.9,651.5c-0.4,2.2-1.7,3.7-4.1,2.8c-10.3-3.9-20.3-8.6-30.1-13.9c-1.7-0.9-2.3-2.7-1.3-4.5
	c0.9-1.6,2.4-2,4-1.1c9.5,5.1,19.3,9.6,29.3,13.5C267.1,648.9,267.8,649.9,267.9,651.5z"/>
<path class="st0" d="M270.9,98.3c-1.1,0.2-2.4-0.4-2.9-2c-0.7-2.1,0.4-3.4,2.2-4.1c4.2-1.5,8.5-3.1,12.8-4.3
	c5.9-1.8,11.9-3.3,17.9-4.9c2-0.5,3.8-0.1,4.3,2.3c0.5,2.2-0.9,3.4-2.6,3.8c-10.3,2.3-20.3,5.6-30.3,9
	C271.9,98.2,271.6,98.2,270.9,98.3z"/>
<path class="st0" d="M103.3,487.9c1.9,0,2.7,1.2,3.3,2.6c4.1,9.8,8.7,19.3,13.8,28.6c1,1.8,1.4,3.7-0.6,5c-2.3,1.5-3.6,0-4.7-2
	c-5.3-9.4-9.8-19.1-14-29C100,490.5,100.6,488.5,103.3,487.9z"/>
<path class="st1" d="M374.1,624.9c0-1.9,0-3.8,0-5.7c0.1-2.3-0.4-4.3-3.1-4.2c-2.7,0-3.1,2.1-3.1,4.3c0,3.4-0.2,6.8,0.1,10.1
	c0.4,3.7-1.1,4.5-4.3,4.2c-21.9-2-41.7-9.9-58.5-24.7c-21.8-19.3-34-43.9-36.4-73.6c-0.3-3.5,0.2-5.1,4-4.7c3.2,0.4,6.5,0,9.7,0.1
	c2.2,0,4.2-0.6,4.3-3.1c0.1-2.8-2-3.1-4.1-3.1c-3.7,0.1-7.3-0.1-11,0.1c-2.4,0.1-3.2-0.7-3-3.3c2.2-30.7,14.6-56.1,37.3-75.9
	c16.6-14.4,36-22,57.4-24.1c3.8-0.4,5,0.6,4.6,4.6c-0.3,3.5-0.1,7,0,10.5c0,2,0.9,3.6,2.9,3.6c2.2,0,3.2-1.5,3.2-3.8
	c0-3.8,0.2-7.6-0.1-11.4c-0.2-2.8,0.5-3.9,3.5-3.6c32.3,3,58.2,17.9,77.2,45.2c10.9,15.6,16.7,33.3,18.3,52.5
	c0.4,5.5,0.4,5.5-4.9,5.5c-3,0-5.9,0-8.9,0c-2,0-3.9,0.2-3.9,2.8c-0.1,2.7,1.8,3.3,4,3.4c3.1,0,6.2,0.3,9.3-0.1
	c4.3-0.6,4.7,1.4,4.4,5.2c-2.1,25.1-11.4,46.9-28.1,65.1c-17.6,19.2-39.4,29.7-64.7,32.6c-6.2,0.7-6.2,0.5-6.2-5.8
	C374.1,626.7,374.1,625.8,374.1,624.9z M353.7,563.4c-0.2,1.9,0,3.2,1.6,3.9c1.7,0.7,3,0,3.9-1.5c0.4-0.7,0.7-1.6,1-2.4
	c6.6-16.9,13.2-33.8,19.7-50.7c2.5-6.5,5-13,7.5-19.5c0.8-2.1,1.8-4.4-1-5.6c-3-1.3-3.9,1.2-4.8,3.4c-0.3,0.7-0.5,1.4-0.7,2
	c-6.4,16.5-12.9,33-19.3,49.5C359,549.6,356.3,556.7,353.7,563.4z M343.6,551.5c0-1.5-1.1-2.3-2-3.2c-5.9-6.1-11.6-12.3-17.6-18.2
	c-2.5-2.4-2.2-3.9,0.1-6.1c6.1-6.1,12-12.4,17.9-18.5c1.5-1.5,2.4-3.1,0.8-4.9c-1.5-1.7-3.4-1.4-4.8,0.1
	c-7.7,7.9-15.3,15.9-22.9,23.9c-1.4,1.4-1.7,3.1-0.3,4.6c7.8,8.2,15.7,16.3,23.5,24.4c1.1,1.1,2.5,1.3,3.9,0.5
	C343.1,553.5,343.6,552.6,343.6,551.5z M428,527.1c0-1.7-1.2-2.6-2.2-3.6c-7.1-7.4-14.1-14.7-21.2-22c-1.6-1.7-3.4-3.2-5.4-1.1
	c-2.1,2.1-0.6,3.9,1.1,5.6c5.9,6.1,11.6,12.4,17.7,18.2c2.6,2.5,2.1,3.7-0.1,5.9c-6.1,6.1-12,12.4-18,18.6c-1.4,1.5-2.5,3.1-0.8,4.9
	c1.7,1.9,3.5,1.2,5.1-0.5c7.3-7.7,14.7-15.3,22.1-23C427.1,529.2,427.9,528.4,428,527.1z"/>
<path class="st2" d="M374.1,403c0-1.2,0-2.3,0-3.5c0-8.7,0-8.9,8.3-8.1c34.1,3.5,62.8,18.2,86,44.6c21,24,31.9,52.2,34.1,84.4
	c0.2,3.3-0.6,4.4-3.9,4.3c-5.2-0.2-10.4-0.2-15.6,0c-2.9,0.1-3.8-0.8-4-3.9c-1.9-31.1-14.3-57.1-36.6-77.8
	c-13.5-12.6-29.4-20.8-47-25c-5.3-1.3-10.8-2.8-16.5-2.2c-3,0.3-5.7-0.8-5-5.2C374.4,408,374.1,405.5,374.1,403z"/>
<path class="st2" d="M250.8,524.5c-2.7,0-5.4-0.2-8,0c-2.6,0.2-3.4-0.8-3.3-3.5c0.4-14,3-27.6,7.9-40.5c17.7-46.8,50.2-75.8,97.4-87
	c6.6-1.6,13.3-2.2,20.1-2.5c2.2-0.1,3.1,0.5,3,2.9c-0.1,5.8-0.2,11.7,0,17.5c0.1,3.1-1.3,3.5-3.7,3.7c-13.8,0.9-27.1,4-39.4,10.5
	c-37.2,19.4-57.9,50.7-62,93.7c-0.4,4-1.2,5.9-5.3,5.3C255.3,524.2,253,524.5,250.8,524.5z"/>
<path class="st2" d="M251.8,530.7c3,0.3,7.7-1.6,9.9,0.8c1.9,2,1.2,6.8,1.6,10.4c4.7,43.3,37,82.3,77.4,93.7
	c7.9,2.2,15.9,3.8,24.1,4.2c2.2,0.1,3.4,0.5,3.3,3.2c-0.1,6-0.2,12,0,18c0.1,2.7-1.2,3.1-3.4,3c-23.3-1.2-44.9-8-64.4-21.2
	c-35.1-23.9-55.2-57.8-60.4-101.1c-1.3-10.8-1.3-10.8,9.2-10.8C249.8,530.7,250.5,530.7,251.8,530.7z"/>
<path class="st2" d="M374.3,651.5c0-3.6-1.3-8.1,0.3-10.7c1.7-2.7,6.5-1.3,9.9-1.8c50.4-7.3,87.9-46.5,94.3-98.8
	c0-0.3,0.1-0.6,0.1-0.9c0.9-8.7,0.9-8.7,9.6-8.7c3.7,0,7.3,0.2,11-0.1c2.8-0.2,3.3,1.1,3.1,3.6c-3,63.8-49.5,117.9-110.1,128
	c-4.9,0.8-9.8,1-14.7,1.6c-2.6,0.3-3.9-0.5-3.7-3.5c0.2-2.9,0-5.8,0-8.8C374.2,651.5,374.2,651.5,374.3,651.5z"/>
<path class="st1" d="M165.6,224.6c6.3,0,12.7,0,19,0c8.3,0.1,13.9,5.4,14.1,14c0.2,13.1,0.2,26.3,0,39.5
	c-0.1,7.9-5.5,13.5-13.2,13.7c-13.5,0.2-27,0.3-40.5,0c-7.9-0.2-13-5.9-13.2-14.2c-0.2-12.9-0.2-25.7,0-38.6
	c0.1-8.8,5.8-14.3,14.3-14.4C152.7,224.5,159.2,224.6,165.6,224.6z"/>
<path class="st2" d="M238.3,181.9c-6.5,0-13,0.1-19.4,0c-8.7-0.1-13.8-5.5-13.8-14.6c0-12.6,0-25.1,0-37.7c0-9.1,5.5-14.7,14.3-14.7
	c12.7,0,25.3,0,38,0c9.1,0,14.5,5.6,14.5,14.9c0,12.6,0,25.1,0,37.7c0,8.5-5.1,14.1-13.3,14.3C251.8,182.1,245.1,181.9,238.3,181.9z
	"/>
<path class="st2" d="M238.3,327.8c6.6,0,13.2-0.1,19.8,0c8.6,0.2,13.7,5.8,13.7,14.8c0,12.6,0,25.1,0,37.7c0,8.7-5.6,14.5-14.1,14.5
	c-12.8,0-25.6,0-38.4,0c-8.8,0-14.3-5.6-14.3-14.7c0-12.6-0.1-25.1,0-37.7c0-9.1,5.1-14.4,13.8-14.6c0.3,0,0.6,0,0.8,0
	C225.9,327.7,232.1,327.7,238.3,327.8C238.3,327.7,238.3,327.8,238.3,327.8z"/>
<path class="st1" d="M334,225.1c1,0.5,1.9,1.2,2.9,1.5c5.6,1.8,7.5,6.2,7.6,11.7c0.1,13.2,0.1,26.3,0,39.5c-0.1,8.2-5,13.5-13,13.6
	c-13.4,0.2-26.8,0.2-40.2,0c-8-0.1-13.3-5.4-13.4-13.8c-0.2-12.7-0.2-25.4,0-38.2c0.1-8.1,3.7-12.6,11-14.5
	C304,225.5,319,225.4,334,225.1z"/>
<path class="st1" d="M128.1,383.4c0,6.6-7.6,11.1-12.8,11.2c-13.2,0.3-26.5,0.2-39.7,0.1c-7.6-0.1-13.6-5.8-13.6-13.4
	c0.1-13.5-0.1-26.9,0-40.4c0.1-7.5,5.5-12.9,12.8-12.9c13.5-0.1,27.1-0.1,40.6,0c6.8,0,11.5,4.4,12.8,11.5
	C128.1,354,128.1,368.7,128.1,383.4z"/>
<path class="st3" d="M334,225.1c-15,0.2-30,0.4-45-0.1c3.3-1.1,6.6-0.4,10-0.5c10.4-0.1,20.7-0.1,31.1,0
	C331.4,224.6,332.8,224.1,334,225.1z"/>
<path class="st3" d="M128.1,383.4c0-14.7,0-29.3,0-44c1.2,2.8,0.4,5.7,0.5,8.5c0.1,10.3,0.1,20.6,0.1,30.9
	C128.7,380.3,129,382,128.1,383.4z"/>
<path class="st2" d="M381.4,244.7c0-65.3,50-118.4,113.7-118.3c64.3,0.2,114.5,54.3,113.6,119.9c-0.9,64.6-52.5,116.9-115.4,116.2
	C430.8,361.9,380.8,307.1,381.4,244.7z M502.8,302.9c7.4-0.1,20.2-4.1,32.3-11.4c16.1-9.8,27.7-23.5,35-41.3c1.6-4,1.5-7.7,0-11.7
	c-12.9-33-43.2-53.3-78.6-52.6c-31.4,0.7-61.4,23.6-72.4,55.5c-0.6,1.9-0.8,3.6-0.1,5.5C429.1,279.9,462.7,304.4,502.8,302.9z"/>
<path class="st4" d="M535.8,361.7c9.6-3.9,18.5-8.5,26.8-14.4c8.3-5.9,15.7-12.8,22.7-20.9c5.7,8.9,11.2,17.6,16.8,26.3
	c11.1,17.3,22.3,34.5,33.1,51.9c11.5,18.5,2.9,41.6-17.6,47.5c-11.9,3.4-25.1-1.7-32.5-13c-11.6-17.8-22.9-35.8-34.3-53.7
	C546,377.5,541,369.7,535.8,361.7z"/>
<path class="st0" d="M353.7,563.4c2.6-6.8,5.3-13.8,8-20.9c6.4-16.5,12.8-33,19.3-49.5c0.3-0.7,0.5-1.4,0.7-2
	c0.9-2.2,1.8-4.7,4.8-3.4c2.7,1.2,1.8,3.6,1,5.6c-2.5,6.5-5,13-7.5,19.5c-6.6,16.9-13.2,33.8-19.7,50.7c-0.3,0.8-0.5,1.7-1,2.4
	c-0.9,1.5-2.2,2.3-3.9,1.5C353.8,566.7,353.5,565.3,353.7,563.4z"/>
<path class="st0" d="M343.6,551.5c0,1.1-0.5,2-1.4,2.5c-1.4,0.8-2.8,0.7-3.9-0.5c-7.9-8.1-15.7-16.3-23.5-24.4
	c-1.5-1.5-1.1-3.2,0.3-4.6c7.6-8,15.2-16,22.9-23.9c1.5-1.5,3.3-1.9,4.8-0.1c1.6,1.8,0.7,3.4-0.8,4.9c-6,6.2-11.8,12.5-17.9,18.5
	c-2.3,2.3-2.6,3.7-0.1,6.1c6,5.9,11.8,12.1,17.6,18.2C342.5,549.2,343.5,550,343.6,551.5z"/>
<path class="st0" d="M428,527.1c-0.2,1.2-0.9,2.1-1.7,2.9c-7.4,7.6-14.7,15.3-22.1,23c-1.6,1.7-3.4,2.4-5.1,0.5
	c-1.6-1.8-0.6-3.4,0.8-4.9c6-6.2,11.9-12.5,18-18.6c2.2-2.2,2.7-3.5,0.1-5.9c-6.1-5.9-11.8-12.2-17.7-18.2c-1.6-1.7-3.1-3.4-1.1-5.6
	c2-2.1,3.8-0.5,5.4,1.1c7.1,7.4,14.1,14.7,21.2,22C426.8,524.5,428,525.5,428,527.1z"/>
<path class="st0" d="M502.8,302.9c-40.1,1.5-73.8-23-84-56c-0.6-2-0.5-3.6,0.1-5.5c11.1-31.9,41-54.9,72.4-55.5
	c35.4-0.7,65.8,19.6,78.6,52.6c1.6,4.1,1.7,7.7,0,11.7c-7.3,17.8-18.9,31.5-35,41.3C523.1,298.9,510.2,302.8,502.8,302.9z
	 M495.2,296.8c15.3,0,32.6-5.5,46-16.9c10.2-8.6,17.9-19,23-31.4c1.1-2.8,1.1-5.1,0-7.9c-10.9-28.5-38.9-48.4-68.5-48.4
	c-30.9-0.1-59,19.5-70,48.7c-1,2.7-0.9,5,0.1,7.6C437,277.4,465,296.9,495.2,296.8z"/>
<path class="st1" d="M495.2,296.8c-30.2,0.1-58.2-19.4-69.4-48.4c-1-2.6-1.1-4.9-0.1-7.6c11-29.2,39.1-48.7,70-48.7
	c29.6,0,57.6,19.9,68.5,48.4c1.1,2.8,1.1,5.2,0,7.9c-5.2,12.5-12.9,22.8-23,31.4C527.8,291.3,510.5,296.8,495.2,296.8z M495.9,206
	c-10,0.2-18.3,3.3-25.4,9.7c-13.3,12.1-16.5,33.2-7.3,48.7c9.8,16.5,28.9,22.9,46.4,15.4c16.1-6.9,25.3-26,21.4-43.9
	c-1.2-5.2-3.8-9.9-4.5-15.4c-1.2-8.6-8.6-14.8-17.1-14.3C504.7,206.5,500,206.5,495.9,206z"/>
<path class="st0" d="M495.9,206c4,0.5,8.8,0.5,13.5,0.2c8.4-0.5,15.9,5.7,17.1,14.3c0.8,5.4,3.4,10.1,4.5,15.4
	c4,17.9-5.3,37.1-21.4,43.9c-17.5,7.4-36.6,1.1-46.4-15.4c-9.2-15.5-6.1-36.6,7.3-48.7C477.6,209.3,485.9,206.2,495.9,206z
	 M524.3,235.4c-8.9,8.1-17.2,9.6-24.7,4.2c-8.1-5.8-9.5-13.9-4.6-26.8c-11.9-0.8-24.2,7.8-28.7,20.1c-4.9,13.5-0.9,28.3,10,36.9
	c10.6,8.4,25.8,8.7,36.3,1C523.1,263.1,528.7,248.4,524.3,235.4z M509.7,212.4c-6.4,0-11.5,5.3-11.5,12c0,6.6,5.3,12.1,11.6,12
	c6.1-0.1,11.3-5.6,11.4-11.8C521.3,218,515.9,212.4,509.7,212.4z"/>
<path class="st4" d="M524.3,235.4c4.4,13-1.2,27.7-11.8,35.4c-10.5,7.7-25.6,7.4-36.3-1c-10.9-8.6-14.9-23.5-10-36.9
	c4.5-12.3,16.8-20.9,28.7-20.1c-4.9,12.9-3.5,21,4.6,26.8C507.1,244.9,515.5,243.5,524.3,235.4z"/>
<path class="st1" d="M509.7,212.4c6.2,0,11.6,5.7,11.5,12.1c-0.1,6.3-5.3,11.7-11.4,11.8c-6.3,0.1-11.6-5.3-11.6-12
	C498.2,217.6,503.2,212.3,509.7,212.4z"/>
<path class="st2" d="M95,327c6.6,0,13.2-0.1,19.8,0c8.6,0.2,13.7,5.9,13.7,15c0,12.7,0,25.5,0,38.2c0,8.9-5.6,14.7-14.1,14.7
	c-12.8,0-25.6,0-38.4,0c-8.8,0-14.3-5.7-14.3-14.9c0-12.7-0.1-25.5,0-38.2c0-9.2,5.1-14.6,13.8-14.9c0.3,0,0.6,0,0.8,0
	C82.6,327,88.8,327,95,327C95,327,95,327,95,327z"/>
<path class="st4" d="M164.7,224c6.8,0,13.5-0.1,20.3,0c8.8,0.2,14,6,14,15.2c0,12.9,0,25.9,0,38.8c0,9-5.7,14.9-14.4,14.9
	c-13.1,0-26.1,0-39.2,0c-9,0-14.6-5.8-14.6-15.1c-0.1-12.9-0.1-25.9,0-38.8c0-9.4,5.2-14.8,14.1-15.1c0.3,0,0.6,0,0.9,0
	C152.1,224,158.4,224,164.7,224C164.7,224,164.7,224,164.7,224z"/>
<path class="st4" d="M312,224c6.8,0,13.5-0.1,20.3,0c8.8,0.2,14,6,14,15.2c0,12.9,0,25.9,0,38.8c0,9-5.7,14.9-14.4,14.9
	c-13.1,0-26.1,0-39.2,0c-9,0-14.6-5.8-14.6-15.1c-0.1-12.9-0.1-25.9,0-38.8c0-9.4,5.2-14.8,14.1-15.1c0.3,0,0.6,0,0.9,0
	C299.4,224,305.7,224,312,224C312,224,312,224,312,224z"/>
</svg>
