<?xml version="1.0" encoding="utf-8"?>
<!-- Generator: Adobe Illustrator 26.0.1, SVG Export Plug-In . SVG Version: 6.00 Build 0)  -->
<svg version="1.1" id="Layer_1" xmlns="http://www.w3.org/2000/svg" xmlns:xlink="http://www.w3.org/1999/xlink" x="0px" y="0px"
	 viewBox="0 0 1080 1080" style="enable-background:new 0 0 1080 1080;" xml:space="preserve">
<style type="text/css">
	.st0{fill:url(#SVGID_1_);}
</style>
<linearGradient id="SVGID_1_" gradientUnits="userSpaceOnUse" x1="125.0175" y1="532.7406" x2="975" y2="532.7406">
	<stop  offset="0" style="stop-color:#1E9CD7"/>
	<stop  offset="0.1939" style="stop-color:#1A96D3"/>
	<stop  offset="0.4446" style="stop-color:#0D86C9"/>
	<stop  offset="0.6361" style="stop-color:#0075BE"/>
	<stop  offset="0.7682" style="stop-color:#0073BB"/>
	<stop  offset="0.8966" style="stop-color:#0066A7"/>
	<stop  offset="0.9944" style="stop-color:#005B97"/>
	<stop  offset="1" style="stop-color:#CCE0F4"/>
</linearGradient>
<path class="st0" d="M293.8,779.4c53.3-59.4,106.5-118.7,159.7-178c-0.8-1.9-2.3-2.9-3.4-4.1c-12.4-13.3-20.8-28.7-25-46.5
	c-4.4-18.9-3.5-37.5,2.6-55.8c0.5-1.4,0.9-2.9,1.4-4.5c-0.9-0.6-1.6-1.2-2.4-1.7c-28.3-17-171-99.1-176-101.2
	c-14.4,15.8-32.2,24.6-53.8,24.9c-17.5,0.2-33.1-5.5-46.6-16.8c-26.8-22.3-33.3-61.3-15.5-91.3c17.9-30.1,55-42.9,87.6-30.1
	c17.9,7.1,31.1,19.5,39.1,37.1c7.9,17.4,8.4,35.3,2.4,53.3c0.5,0.5,0.7,0.9,1.1,1.1c58.4,33.8,116.8,67.5,175.2,101.2
	c0.4,0.2,0.9,0.2,1.6,0.4c15.6-20.3,35.7-33.9,61-39.3c25.1-5.3,48.9-1.3,71.4,11c0.6-0.6,1.1-1,1.4-1.5
	c45.5-71.7,91-143.4,136.6-215.4c-1.1-1.2-2.1-2.4-3.2-3.4c-11-11.4-17.8-24.9-19.8-40.6c-4.6-37.5,18.5-66.9,47.2-76.8
	c40.9-14.1,83.2,9.9,93.2,50.3c10,40.5-16.3,79.6-55.3,87.3c-12.1,2.4-24,1.7-35.7-2c-1.2-0.4-2.4-0.7-3.5-1.1
	c-0.3-0.1-0.6,0.1-0.9,0.1c-2.3,2.8-136.4,213.9-138.8,218.7c3.2,3.9,6.7,7.6,9.7,11.7c3.1,4.2,6,8.7,8.5,13.3
	c2.4,4.5,4.5,9.2,6.1,14c1.7,4.9,3.1,10.1,4.1,15.2c1,5,1.3,10.1,2,15.2c0.8,0.2,1.3,0.5,1.9,0.6c68.8,6.6,137.6,13.2,206.7,19.8
	c0.6-1.6,1.2-3,1.8-4.4c9.8-24.6,27.5-40.3,53.4-45.5c38.6-7.8,74.9,16.9,83.5,54c8.7,37.8-13.9,75.2-51.3,85.2
	c-41.9,11.2-82.4-16.8-88.9-57.4c-0.3-2-0.7-4-1-6.1c-0.9-0.2-1.7-0.6-2.6-0.7c-10.9-1.1-21.9-2-32.8-3.1
	c-11.2-1.1-22.5-2.2-33.7-3.3c-11.1-1.1-22.2-2.1-33.3-3.1c-11.2-1.1-22.5-2.2-33.7-3.3c-7.9-0.8-15.7-1.5-23.6-2.2
	c-11.4-1.1-22.8-2.2-34.2-3.3c-4.8-0.5-9.5-0.9-14.5-1.3c-0.4,1-0.8,1.8-1.1,2.6c-5.1,19.7-15.2,36.4-30.2,50.2
	c-0.6,0.5-1.2,0.9-1.6,1.2c-0.1,2.3,1.2,3.6,2.1,5c11.9,19,23.9,38,35.8,57c33.3,52.9,66.5,105.9,99.8,158.8c1,1.6,2,3.1,2.9,4.5
	c1.5,0.8,2.6,0,3.8-0.4c8-2.7,16.2-4.1,24.6-3.9c36,0.8,63.4,27.1,69,58.5c6.9,38.6-17.3,72.6-50.8,81.9
	c-41.8,11.6-82.5-15.5-89.7-55.6c-4.2-23.6,2-44.4,18.2-62.2c1-1.1,2.1-2.3,3.1-3.4c0.1-0.1,0.1-0.3,0.2-0.4
	c-1.6-3.5-138.3-221.2-141.1-224.5c-31.5,14.1-62.9,13.4-93.7-2.6c-0.6,0.5-1.2,0.8-1.6,1.2C419.7,677.4,366.3,736.9,313,796.3
	c0.4,2.1,1.7,3.3,2.6,4.7c7.7,11.7,11.9,24.5,12,38.4c0.2,19.4-6.3,36.5-19.8,50.5c-14.9,15.4-33.3,23-54.7,22.1
	c-36.9-1.6-62.2-28.9-67.4-58.6c-7-39.9,19-74.8,54.7-82.6c17-3.7,33.2-1.6,48.7,6.3c1.2,0.6,2.5,1.3,3.7,2
	C292.9,779.2,293.1,779.2,293.8,779.4z"/>
</svg>
