<?xml version="1.0" encoding="utf-8"?>
<!-- Generator: Adobe Illustrator 26.0.1, SVG Export Plug-In . SVG Version: 6.00 Build 0)  -->
<svg version="1.1" id="Layer_1" xmlns="http://www.w3.org/2000/svg" xmlns:xlink="http://www.w3.org/1999/xlink" x="0px" y="0px"
	 viewBox="0 0 720 720" style="enable-background:new 0 0 720 720;" xml:space="preserve">
<style type="text/css">
	.st0{fill:url(#SVGID_1_);}
	.st1{fill:url(#SVGID_00000134930369042636364760000017843880382761355708_);}
	.st2{fill:url(#SVGID_00000019640103766810391200000012657330963369674937_);}
	.st3{fill:url(#SVGID_00000154386213671543970010000005085888281739127989_);}
	.st4{fill:url(#SVGID_00000083798526317738934870000010860840823382475392_);}
	.st5{fill:url(#SVGID_00000085213820708899910930000011798896623335438726_);}
	.st6{fill:url(#SVGID_00000109026087055587113390000009516831962621650367_);}
	.st7{fill:url(#SVGID_00000160190746441787836490000013646743275513921687_);}
	.st8{fill:url(#SVGID_00000176021482971662303930000011772561083574938040_);}
	.st9{fill:url(#SVGID_00000031206327992368038910000003882187478131665077_);}
	.st10{fill:url(#SVGID_00000158031213942247668320000006082400362014979207_);}
	.st11{fill:url(#SVGID_00000035512987547440336520000004074536111338566546_);}
	.st12{fill:url(#SVGID_00000168077238584198206630000012663234668344646786_);}
	.st13{fill:url(#SVGID_00000099654800911287014880000011791230534582900136_);}
	.st14{fill:url(#SVGID_00000154414656127498015650000004816952685400607123_);}
	.st15{fill:url(#SVGID_00000095318793514002987610000016384898847524081537_);}
	.st16{fill:url(#SVGID_00000154409561883879262360000007374485677179679632_);}
	.st17{fill:url(#SVGID_00000103241494089233653190000016392442763451030929_);}
	.st18{fill:url(#SVGID_00000090974903655214839800000010302312939978797497_);}
	.st19{fill:url(#SVGID_00000027576120447373405760000005161434043940352945_);}
	.st20{fill:url(#SVGID_00000081639361929331315570000004549979274821690534_);}
	.st21{fill:url(#SVGID_00000138542048966715515630000010500971633582642827_);}
	.st22{fill:url(#SVGID_00000183941711868750718720000014635456816712936586_);}
	.st23{fill:url(#SVGID_00000069363328516470250830000009541093665139853198_);}
	.st24{fill:url(#SVGID_00000181789700593094767710000016707462512754788502_);}
	.st25{fill:url(#SVGID_00000181795807569815439190000015254346441487116474_);}
	.st26{fill:url(#SVGID_00000117648751564794268950000001132531115001025942_);}
	.st27{fill:url(#SVGID_00000147189008878112305760000008635042627000119170_);}
	.st28{fill:url(#SVGID_00000075155326649073727160000006705876698753539976_);}
	.st29{fill:url(#SVGID_00000074434077717789075540000008703417367504421561_);}
	.st30{fill:url(#SVGID_00000047740397182577038450000003190606082880448898_);}
	.st31{fill:url(#SVGID_00000027588389751461342050000014120655211642703807_);}
	.st32{fill:url(#SVGID_00000028318352393642517630000010363139432639759033_);}
</style>
<linearGradient id="SVGID_1_" gradientUnits="userSpaceOnUse" x1="11.6352" y1="449.7605" x2="301.7914" y2="449.7605">
	<stop  offset="0" style="stop-color:#1E9CD7"/>
	<stop  offset="0.6173" style="stop-color:#0075BE"/>
	<stop  offset="0.9944" style="stop-color:#005B97"/>
	<stop  offset="1" style="stop-color:#CCE0F4"/>
</linearGradient>
<path class="st0" d="M110.9,302.4c23.9,0.6,20.7,0.3,20.8,22.6c0.1,9.8,0,19.6,0.1,29.5c0,0.5,0.2,1,0.6,2.1
	c10.3-3.5,20.6-6.6,31.8-5c24.9,3.7,43.6,20.9,48.2,45.8c1.1,5.7,3,7.8,9,7.5c12.4-0.6,24.9-0.2,37.3-0.2c13,0.1,19.6,6.8,19.6,20.1
	c0,40.3,0.1,80.6-0.1,120.9c0,5.6,1.3,10.2,4.7,14.6c5.7,7.6,11,15.5,16.5,23.3c2,2.8,3.4,5.6,1.5,9.1c-1.8,3.3-4.7,4.1-8.2,4.1
	c-7.5,0-14.9,0.2-22.4,0.3c-46.7-0.1-93.5-0.3-140.2-0.3c-35.8-0.1-71.6,0-107.4,0c-4,0-8.2,0.4-10.3-4.2c-2.1-4.4,0.3-8,3.1-10.9
	c16.3-17.2,22.7-37.4,19.5-61.1c-1.1-7.9-0.3-16.1-0.1-24.1c0.1-3.5-0.5-5.3-4.7-5.5c-17-0.7-17-0.9-17-18.1c0-52.9,0-105.7,0-158.6
	c0-9.7,1.7-11.4,11.3-11.5C53.3,302.7,82.1,302.6,110.9,302.4z M132,459.6c0,7.1,0.1,13.3,0,19.6c-0.1,9.4-2.8,12.2-12,12.2
	c-19.9,0-39.8,0.1-59.7-0.1c-4.6-0.1-6.1,1.3-5.9,5.9c0.3,9,0.1,18.1,0.1,27.2c0,15.1,0,15.1,14.8,15.1c60.4,0,120.8,0,181.2,0
	c3.7,0,8,1.6,8-5.4c-0.2-34.2-0.2-68.5,0-102.7c0-3.9-1.2-5.2-5.1-5.2c-11.9,0.2-23.9,0.3-35.8-0.1c-5-0.2-7.4,1.5-9.5,6.1
	c-8.4,18.2-22.8,28.8-42.4,31.8c-4.5,0.7-5.8,2.4-5.6,6.7c0.3,6.5,0.2,13.1,0,19.6c-0.1,3.9,0.5,6.8,4,9.7
	c6.8,5.6,6.8,14.6,0.8,20.5c-5.8,5.8-15.5,5.5-20.6-0.6c-5.5-6.6-4.4-15.7,2.7-21.2c1.5-1.2,4.3-1.5,4.4-3.7
	c0.3-9.5,1.4-19.3-0.3-28.5c-0.9-4.7-9.2-2.9-13.7-5.3C136.1,460.7,134.6,460.4,132,459.6z M108.9,379c-3,0-5-0.1-6.9,0
	c-7.8,0.3-15.6-1.8-21.7,6.9c-3.9,5.6-13.9,3.5-18.5-2c-4.7-5.7-4.2-14,1.1-19.1c5.3-5.1,14.8-5.9,18.6,0c4.4,6.7,9.8,6.2,16,6.1
	c3.5-0.1,7,0,10.4,0c10.2,0,14.9-4.7,14.9-14.8c0-9.1-0.3-18.1,0.1-27.2c0.3-5.5-1.7-6.6-6.8-6.6c-29.3,0.2-58.7,0.3-88,0
	c-6.2-0.1-7.3,2.2-7.2,7.8c0.2,31,0.1,61.9,0.1,92.9c0,12.3,0,24.7,0,37c0,2.7-0.6,5.5,3.8,5.5c31.3-0.1,62.6-0.1,93.9,0
	c2.8,0,4-0.8,4.1-3.8c0.1-5.1,0-9.7-4.7-13.3c-4.8-3.7-8-8.9-10.6-14.4C98.8,415.8,99.7,397.9,108.9,379z M20.2,588.8
	c3.1,0,4.8,0,6.4,0c29.8,0,59.6-0.2,89.5,0.1c5.3,0.1,7.8-1.5,8.5-6.7c0.8-6.3,4.7-7.8,10.6-7.7c14.4,0.3,28.8,0.4,43.2,0
	c6.3-0.2,10.1,1.7,10.8,8.3c0.5,5.2,3.5,6.2,8.2,6c10.4-0.3,20.9-0.1,31.3-0.1c21,0,42,0,64.5,0c-7.1-10.1-13.4-19-19.7-27.9
	c-1.6-2.3-4-1.6-6.1-1.6c-73.8,0-147.6,0-221.4,0c-2.1,0-4.5-0.7-6.2,1.6C33.6,569.8,27.3,578.7,20.2,588.8z M158.5,359.4
	c-26.7-0.4-48.6,20.7-49.1,47.2c-0.5,27.3,20.4,49.5,47.1,50c26.7,0.5,48.6-20.8,49.3-48C206.4,382.3,184.7,359.8,158.5,359.4z
	 M156.5,551.4c35.8,0,71.6,0,107.5,0.1c4.1,0,6.8,0.1,6.8-5.7c-0.3-40.3-0.1-80.6-0.2-120.9c0-8.4-3.7-12.2-11.6-12.3
	c-13.7-0.1-27.4,0-41,0c-2.2,0-4.8-0.4-4.9,3c-0.1,4,3,2.6,4.8,2.6c12.9,0.1,25.9,0,38.8,0.1c8.3,0.1,10.1,1.8,10.1,10.3
	c0.1,36.5-0.1,73,0.1,109.5c0,7-2.7,10.3-9.7,10.3c-66.9,0-133.8,0-200.7-0.1c-7.8,0-9.8-2.5-9.9-10.7c0-12.8,0.1-25.7-0.1-38.5
	c-0.1-2.5,2.1-7.4-1.9-7.3c-3.4,0.1-1.7,5-1.7,7.7c-0.2,14.9,0.2,29.7-0.2,44.6c-0.1,5.8,1.1,7.7,7.3,7.6
	C85.4,551.3,121,551.4,156.5,551.4z M72,473.5c-15.1,0-30.3,0.1-45.4-0.1c-3.8,0-5.3,0.9-5.2,5c0.1,3.7,1.5,4.7,4.9,4.7
	c11.7-0.1,23.3-0.1,35,0c2.5,0,3.5,0.2,3.4-3.5c-0.3-7.9,6.3-4.9,10.4-5.3c3.7-0.4,7.6,0.6,5.9,5.8c-1.6,5.1,2.2,2.8,3.5,2.8
	c11.2,0.2,22.3,0,33.5,0.2c3.7,0.1,6-0.3,5.9-5.2c-0.1-4.6-2.5-4.5-5.7-4.5C102.7,473.5,87.4,473.5,72,473.5z M156.4,588.8
	c7.2,0,14.4,0.1,21.6-0.1c1.5,0,4,1.1,4-1.7c0-2.3-1-4.3-4-4.3c-13.9,0.1-27.8,0-41.8,0c-2.7,0-4.4,1-4.4,3.8c0,3.4,2.8,2.2,4.4,2.2
	C142.9,588.9,149.6,588.8,156.4,588.8z M22.1,312.1c0,0.4,0,0.8,0,1.2c33.6,0,67.2,0,100.8,0c0-0.4,0-0.8,0-1.2
	C89.3,312.1,55.7,312.1,22.1,312.1z M155,516.8c3.8-0.6,6-2.8,5.8-6.6c-0.2-3.3-2.3-5.6-5.9-5.5c-3.9,0.2-5.8,2.6-5.6,6.4
	C149.5,514.7,151.8,516.4,155,516.8z M66.4,374.8c0.7,3.5,2.4,6.2,6.4,5.9c3.4-0.2,5.3-2.5,5.4-6c0-3.6-2.1-5.7-5.4-5.9
	C68.9,368.7,67,371.2,66.4,374.8z"/>
<linearGradient id="SVGID_00000078744649115398903250000007416139101152689800_" gradientUnits="userSpaceOnUse" x1="364.8358" y1="514.9135" x2="653.1025" y2="514.9135">
	<stop  offset="0" style="stop-color:#1E9CD7"/>
	<stop  offset="0.6173" style="stop-color:#0075BE"/>
	<stop  offset="0.9944" style="stop-color:#005B97"/>
	<stop  offset="1" style="stop-color:#CCE0F4"/>
</linearGradient>
<path style="fill:url(#SVGID_00000078744649115398903250000007416139101152689800_);" d="M482.6,553.9c-7.3-1.5-14.8,0.5-22.1-1.1
	c-3.4-0.7-2.6,3.2-3.2,5.1c-3.7,12.1-11.5,19.9-23.8,22.2c-12.8,2.4-23.4-2-31.3-12.6c-3.5-4.8-4.5-10.5-5.8-16.1
	c0.6-4.4,1.2-8.8,1.8-12.6c-8.1,0-16.1,0-24.7,0c2.2,7.1,7.2,6.9,12.2,6.8c4.6,0,9.9-1,10.9,5.8c-5.8,2.8-12,2.8-18.1,1.8
	c-8.2-1.4-13.3-7.7-13.5-16.6c-0.3-11.6-0.2-23.2,0-34.8c0.2-7.2,2.5-13.9,6.7-19.7c5.3-7.3,10.9-14.4,16.2-21.7
	c5.6-7.7,13.3-11.2,22.5-11.3c32.1-0.1,64.2-0.3,96.3,0c16.8,0.2,31.4,6.9,44.1,17.9c6.6,7.1,13.2,14.2,19.6,21.5
	c2.4,2.7,5.3,3.4,8.5,4c12.2,2.3,24,5.6,35.7,9.8c7.4,2.7,13.5,7.5,20.1,11.5l-0.1-0.1c-1.3,2-0.3,2.8,1.6,3.2l-0.1-0.1
	c-0.3,1-0.6,2.2,0.9,2.2c1.4,0,3-0.8,4.3-0.5c4.1,1,11.2-3.2,11.4,4.1c0.2,6.4-6.6,2.7-10.2,3.9c-0.6,0.2-1.3,0.5-2.1,0.8
	c2.1,3.1,5.5,3.5,8.1,5.1c2.6,1.6,5.9,2.9,3.9,6.7c-2,3.8-5.1,1.5-7.8,0.4c-2.5-1.1-4.9-2.3-7.6-3.6c-1.6,2.3-0.8,4.6-1,6.6
	c-0.6,6.8-4.2,10.7-10.9,11c-7.7,0.3-15.4,0-23.1,0.1c-2.8,0-5.1-0.6-5.1-4c0-3.3,2.3-4,5.1-4c6.2,0,12.4,0.1,18.6,0
	c3,0,7.3,1.1,7.4-3.8c0-5-4.4-2.9-6.9-3c-6.7-0.3-13.4-0.2-20.1-0.1c-3.1,0.1-5.9-0.3-8.3-2.3l0.1,0.2c0.1-4.5,2.6-6,6.8-6
	c8.2,0.2,16.4,0.1,24.6,0c1.6,0,3.9,0.5,3.6-2.4c-0.2-2-1.9-2-3.4-2c-9.8-0.1-15.3-5.2-16.5-14.9c-0.4-3-2.1-3.6-4.3-4.2
	c-14.1-4.1-28.1-8.1-43-8.1c-59.9,0.2-119.9,0.2-179.9-0.1c-6.8,0-8.7,1.9-8.1,8.4c0.5,6,0.3,12.1,0.1,18.1c-0.1,3.8,1,5.4,5,5.2
	c5.2-0.3,11.8-2.1,15.4,0.4c8,5.4,9.8-1.5,13.6-4.8c13.5-11.8,32.8-10.2,44.5,3.9c1.6,1.9,2.7,5.9,6.1,1.3c0.8-1.1,3.7-0.8,5.7-0.8
	c21.1,0,42.3,0,63.4,0c0.7,0,1.5,0,2.2,0c2.9,0.1,5.8,0.5,5.7,4.3c-0.1,3.4-2.9,3.7-5.4,3.7c-5,0-10,0-14.9,0c-16.4,0-32.8,0-49.3,0
	c-8.7,0-8.7,0-6.1,9.8c2.1-3.1,4.9-2.9,7.7-2.9c19.4,0,38.8,0,58.2,0c3.1,0,7.3-0.7,7.1,4.2c-0.1,4.4-4,3.6-6.9,3.6
	C511,553.6,496.8,553.7,482.6,553.9z M444.9,474c0,2,0,4,0,6c0,11.3,0,11.5,11.4,11.3c6.1-0.1,14.1,2.8,17.8-1.3
	c3.7-4,1-11.9,1.1-18.2c0.2-14.4,0.1-14.4-14.3-14.4C444.9,457.4,444.9,457.4,444.9,474z M512,474.6c0-2.8-0.4-5.6,0.1-8.3
	c1.2-7.6-2.3-9.7-9.1-8.9c-6.3,0.7-14.6-2.7-18.6,1.4c-4,4.1-1.1,12.5-1.2,18.9c-0.2,13.6-0.1,13.6,13,13.6
	C512,491.3,512,491.3,512,474.6z M405.1,549.7c0,12.9,10,22.9,22.8,22.7c12-0.1,22.5-10.9,22.3-22.8c-0.2-12.6-10.9-23.2-23.1-23
	C415.1,526.9,405.2,537.3,405.1,549.7z M562.2,491.3c-4.9-5.3-8.6-9-12-12.9c-7-8-15.4-14-25.4-17.7c-3.7-1.4-5.3-1.3-5.1,3.4
	c0.3,7.5,0.1,15,0,22.5c0,2.8,0.2,4.8,3.8,4.7C535.8,491.2,548.1,491.3,562.2,491.3z M428,491c-8-9.3-14.2-17.9-17.9-28.3
	c-0.7-2-0.3-5.5-4.3-4.8c-3.8,0.7-2.4,3.8-2.6,6c-0.7,11.1-6.1,17.7-16.1,17.9c-6.7,0.1-8.7,3.9-10.6,9.2
	C393.6,491,410.1,491,428,491z M436.9,488.2c0-10.3,0-18.8,0-27.2c0-2.5-1.1-3.6-3.6-3.6c-5.3,0.1-10.6,0-16.5,0
	C420.8,469.8,427.3,478.9,436.9,488.2z M638,529.3c0.3-1.3,2.2-0.3,1.8-2c-0.1-0.5-0.9-0.9-1.5-1.1c-1-0.3-2,0-1.8,1.3
	C636.5,528.1,637.2,528.5,638,529.3z"/>
<linearGradient id="SVGID_00000080895301464078184100000016398564846710882220_" gradientUnits="userSpaceOnUse" x1="536.9951" y1="361.0709" x2="708" y2="361.0709">
	<stop  offset="0" style="stop-color:#1E9CD7"/>
	<stop  offset="0.6173" style="stop-color:#0075BE"/>
	<stop  offset="0.9944" style="stop-color:#005B97"/>
	<stop  offset="1" style="stop-color:#CCE0F4"/>
</linearGradient>
<path style="fill:url(#SVGID_00000080895301464078184100000016398564846710882220_);" d="M570.7,357.4
	c-10.2-9.8-20.3-19.7-30.6-29.3c-4-3.7-4.2-6.5-0.3-10.5c7.1-7.3,13.7-15,20.5-22.6c5.5-5.8,11-11.6,16.4-17.5
	c3-3.3,5.6-3.5,8.8-0.4c12.7,12.1,25.4,24.1,38.2,36c3.7,3.4,3.1,6.2-0.1,9.5c-3.7,3.7-7.2,7.6-10.7,11.5c-2.5,2.8-6.1,4.9-1.1,9.4
	c4.7,4.3,6.3,0.8,8.7-1.8c8.2-8.8,16.4-17.6,24.4-26.6c3.4-3.9,6-4,9.9-0.5c16.1,14.3,16.2,14.2,1.5,30.2
	c-5.2,5.7-10.3,11.6-15.8,17.1c-2.8,2.8-2,4.3,0.5,6.5c2.3,2,4,4.2,7,0.4c3.9-4.9,8.5-9.2,12.6-13.9c3.4-4,6.3-3.8,9.9-0.3
	c11.5,11.1,23.2,22.1,34.9,33c3.2,3,3.6,5.6,0.5,8.9c-12.8,13.8-25.5,27.6-38.1,41.5c-2.8,3.1-5.3,2.9-8.2,0.1
	c-12-11.4-24-22.7-36.1-33.9c-3.4-3.2-2.8-5.9,0.1-8.9c4.5-4.7,8.6-9.8,13.3-14.3c3.1-3,1.4-4.5-0.9-6.4c-2.1-1.7-3.4-4.1-6.5-0.7
	c-9.6,10.9-19.5,21.6-29.5,32.1c-2.4,2.5-2.1,4.4-0.7,7.2c4.4,8.8,5.5,18.2,4.4,27.9c-0.3,2.3-0.6,4.7-3,5.7
	c-2.5,1.1-4.2-0.9-5.8-2.4c-9.6-8.8-19.1-17.6-28.7-26.3c-7.8-7.6-15.7-15.1-23.5-22.7c-1.6-1.5-3.6-3-3-5.6c0.7-3,3.4-3.4,5.8-3.9
	c8.4-1.6,16.7-0.7,25,1.1c3.8,3.1,6.5,2.5,9.9-1.3c8.3-9.6,17-18.9,25.8-28.1c3-3.1,4.3-5,0.3-8.9c-4.1-4-5.7-1.2-8,1.3
	c-1.5,1.7-3,3.3-4.6,5C583,367,583,367,570.7,357.4z M658.9,329.9c-2.6-2.5-4.9-5.1-7.7-7.2c-2.4-1.8-3.4,1.2-4.5,2.4
	c-20.2,21.8-40.2,43.8-60.5,65.5c-3.5,3.7-1,5.2,1.4,6.7c2.3,1.5,3.3,7,7.8,2c20.1-22.2,40.5-44.2,60.8-66.3
	C657.2,332.3,657.9,331.2,658.9,329.9z M552.6,393.4c14.9,14,28.5,26.8,42.9,40.3C595.2,410.5,577.4,393.6,552.6,393.4z
	 M579.8,314.6c2.7-1.2,15.3-14.8,15-16.4c-0.1-0.4-0.5-0.9-0.8-1.2c-4-3.7-7.6-8.8-12.3-10.5c-3.4-1.2-6.1,5-9,7.9
	c-1.9,1.9-5.9,4.1-4,7.1C571.8,306.3,576.1,310.2,579.8,314.6z M574.4,320.6c0-1.5-11.7-12.8-13.2-12.8c-0.2,0-0.5,0.1-0.6,0.2
	c-4.2,4.6-9.3,8.6-12.2,13.9c-1.7,3.1,3.9,5.3,6.3,7.9c1.9,2.1,3.6,4.9,6.6,5.6C562.4,335.7,574.4,321.9,574.4,320.6z M599.6,335
	c0.8-0.8,1.6-1.6,2.4-2.4c1.6,0.1,13.9-13.4,13.6-14.9c-0.1-0.5-0.4-0.9-0.8-1.2c-4.1-3.6-7.1-9.3-12.3-10.5
	c-3.5-0.8-5.9,4.7-8.5,7.5c-2,2.2-6.5,3.9-4.5,7.6C592.2,326.1,596.2,330.4,599.6,335z M581.9,327.5c-3.1,3.1-6.3,6.5-9.8,9.5
	c-4.3,3.6-3.8,6.2,0.3,9.9c9.6,8.6,9.4,8.9,18-0.8c1.7-2,4.5-3.3,4.7-6.4C595.2,338.5,583.4,327.7,581.9,327.5z M657.6,396.7
	c-0.2-0.4-0.3-1-0.6-1.3c-3.6-3.5-6.7-7.9-10.9-10c-3.6-1.7-4.5,4.3-7.3,6.1c-1.2,0.8-2.3,2-3,3.3c-1.2,2-5.7,3.4-3.2,6.2
	c3.4,3.8,6.7,8.1,11.5,10.3C644.9,411.7,657.5,397.9,657.6,396.7z M662.2,432c4.8-5.5,7.7-9.3,11.2-12.5c3.8-3.5,3.7-5.7-0.2-9.2
	c-8.2-7.4-8-7.7-15.7,0.3c-0.9,0.9-1.9,1.7-2.6,2.7c-1.3,1.9-4.8,3.2-2.7,6.1C655.1,423.6,658.6,427.5,662.2,432z M665,389.2
	c4.1-4.5,8.5-9.5,12.9-14.5c0.6-0.7-10.5-11.4-11.9-11.5c-0.9-0.1-13.8,13-13.9,14.1C652,378.1,663.1,389,665,389.2z M687.2,379.6
	c-0.6,0.6-1.2,1.2-1.8,1.8c-0.4,0.2-1,0.2-1.3,0.5c-4.1,4.3-8.2,8.6-12.3,13c-0.9,0.9,0,1.8,0.5,2.6c6,10,12.4,10.6,19.8,1.7
	c0.3-0.4,0.7-0.8,0.9-1.2c0.9-2.3,5.4-3.2,3.3-6.6C693.6,387.3,690.3,383.5,687.2,379.6z"/>
<linearGradient id="SVGID_00000066517456386084163140000008058303590815885446_" gradientUnits="userSpaceOnUse" x1="190.1937" y1="135.275" x2="346.3825" y2="135.275">
	<stop  offset="0" style="stop-color:#1E9CD7"/>
	<stop  offset="0.6173" style="stop-color:#0075BE"/>
	<stop  offset="0.9944" style="stop-color:#005B97"/>
	<stop  offset="1" style="stop-color:#CCE0F4"/>
</linearGradient>
<path style="fill:url(#SVGID_00000066517456386084163140000008058303590815885446_);" d="M345,130.1c-3.9,0.2-7.9,0.7-11.8,0.7
	c-3.1,0-4.4,1.1-4.4,4.4c0,3.6,1.8,4.2,4.7,4.1c2.7-0.1,5.5,0,8.2,0c2.6,0,4.5,1.4,4.6,3.9c0.2,2.7-1.9,4-4.3,4.2
	c-3,0.2-6,0.2-8.9,0.2c-2.6,0-4.2,0.6-4.2,3.8c0,3.3,1.1,4.6,4.4,4.4c3-0.2,6-0.1,8.9,0c2.6,0.1,4.4,1.4,4.2,4.2
	c-0.1,2.4-1.9,3.4-4.1,3.5c-3,0.1-6,0.2-8.9,0.1c-3.1-0.1-4.5,0.9-4.5,4.3c0,3.3,1.2,4.5,4.4,4.4c3-0.1,6,0,8.9,0.1
	c2.6,0.1,4.4,1.4,4.2,4.1c-0.2,2.3-1.9,3.4-4.1,3.6c-1.7,0.1-3.5,0.2-5.2,0c-4.7-0.3-8.5-0.4-9,6.4c-0.4,4.9-4.6,8.9-9.5,9.4
	c-5.4,0.6-6.6,3.1-5.9,7.8c0.2,1.5,0,3,0,4.5c0,2.9-0.3,6.1-4,5.9c-3.6-0.2-3.8-3.3-3.8-6.2c0-2.5-0.1-5,0-7.5
	c0.2-3.1-1.4-3.9-4.1-3.8c-2.6,0.1-4.4,0.6-4.4,3.7c0,2.8-0.1,5.5,0,8.3c0,2.7-0.3,5.5-3.6,5.6c-3.7,0.1-4.2-2.8-4.1-5.8
	c0-2.5-0.1-5,0-7.5c0.1-2.7-0.7-4.2-3.7-4.2c-3.2,0-4.5,1.3-4.3,4.4c0.1,2.8,0,5.5-0.1,8.3c-0.1,2.5-1.1,4.7-3.7,4.8
	c-3.1,0.1-4.2-2.2-4.3-5c-0.1-2.8-0.1-5.5,0-8.3c0.1-2.7-0.7-4.2-3.7-4.2c-3.3-0.1-4.5,1.3-4.3,4.5c0.1,2.8,0,5.5,0,8.3
	c-0.1,2.6-1.3,4.6-3.8,4.8c-3.1,0.2-4.2-2.2-4.3-5c-0.1-2.8-0.1-5.5-0.1-8.3c0.1-2.7-0.7-4.2-3.8-4.2c-3.3-0.1-4.4,1.3-4.3,4.5
	c0.1,3.3,0.1,6.6-0.2,9.8c-0.2,2.2-1.8,3.6-4.2,3.4c-2-0.2-3-1.6-3.2-3.6c-0.2-2,0.1-4.1-0.2-6c-0.5-3.1,2.4-8.2-4.4-8
	c-6.7,0.2-3.2,5.4-4,8.4c-0.4,1.4-0.1,3-0.1,4.5c0,2.6-1.1,4.6-3.8,4.7c-2.7,0.1-3.8-1.9-3.9-4.5c0-1.8-0.2-3.5,0-5.3
	c0.4-4.6,0.1-8-6-8.6c-4.6-0.4-8.7-4-9.3-8.8c-0.8-6.9-4.6-7.6-10-7.1c-2,0.2-4,0.1-6,0.1c-1.8-1.5-3.6-3.1-2.3-5.7
	c1-2.1,3.1-2.3,5.1-2.2c2.5,0.1,5-0.1,7.5,0c3,0.1,4.6-0.9,4.6-4.3c0-3.3-1.3-4.4-4.4-4.3c-3,0.2-6,0.1-9,0
	c-2.6-0.1-4.4-1.6-4.2-4.3c0.2-2.2,1.8-3.5,4.1-3.5c3,0,6-0.1,9,0c3,0.1,4.6-0.5,4.5-4.1c-0.1-3.4-1.4-4.4-4.5-4.2
	c-3,0.1-6,0.1-8.9-0.1c-2.5-0.2-4.4-1.6-4.2-4.3c0.2-2.2,1.8-3.6,4.1-3.6c3-0.1,6-0.2,9,0c2.9,0.1,4.6-0.5,4.6-4.1
	c0-3.4-1.4-4.4-4.4-4.3c-3,0.1-6,0.1-9-0.1c-2.6-0.1-4.4-1.5-4.2-4.2c0.1-2.2,1.8-3.6,4-3.7c3-0.2,6-0.2,8.9-0.1
	c2.8,0.1,4.7-0.4,4.7-4c0-3.5-1.4-4.4-4.4-4.2c-2.7,0.2-5.5,0-8.2,0c-2.8,0-5.1-1-5-4.2c0.1-2.7,2.2-3.7,4.7-3.7c2.2,0,4.5,0,6.7,0
	c2.8-0.1,6,0.9,6.2-4.1c0.1-4.9-2.8-4.4-5.8-4.3c-2,0-4,0-6,0c-2.9,0.1-6-0.4-5.8-4.1c0.2-3.7,3.3-3.8,6.2-3.7c1,0,2-0.1,3,0
	c5.4,0.8,8.6-0.3,9.3-6.9c0.6-5,5-8.7,9.9-9.1c5.4-0.5,5.4-3.2,5.6-7.4c0.2-3.8-2.6-10.4,3.4-10.6c6.9-0.2,3.3,6.8,4.2,10.7
	c0.6,2.8-1.5,6.8,4.2,6.7c5.6,0,3.7-3.9,4.3-6.8c0.8-3.9-2.8-10.9,4.1-10.7c6,0.2,2.9,6.8,3.6,10.6c0.5,2.8-1.7,6.8,4,6.9
	c5.7,0,3.6-4,4.2-6.8c0.7-3.8-2.3-10.4,3.6-10.7c6.8-0.2,3.6,6.7,4.4,10.7c0.5,2.8-1.6,6.8,4.1,6.8c5.8,0,3.4-4.2,3.9-6.9
	c0.7-3.8-2.1-10.4,3.8-10.6c6.8-0.2,3.5,6.8,4.3,10.7c0.6,2.8-1.4,6.8,4.2,6.8c5.7-0.1,3.5-4.2,4-6.9c0.7-3.8-2.3-10.5,3.7-10.5
	c7-0.1,3.3,6.9,4,10.8c0.6,3-1.1,6.7,4.4,6.7c5.7-0.1,3.5-4.1,4.1-6.9c0.7-3.8-2.4-10.4,3.6-10.5c6.9-0.1,3.7,6.9,3.9,10.8
	c0.3,4.3,0.6,6.5,5.8,7.2c5.8,0.7,9.9,5.3,10.4,11.4c0.4,4.5,2.6,4.2,5.7,4.6c4.2,0.6,11.6-3.1,11.7,3.7c0.1,7-7.4,3.7-11.5,3.8
	c-4.7,0.1-6.4,1.5-5.5,6.1c0.7,3.9,3.9,2.1,6,2.6c3.9,1,11-2.6,11.1,3.8c0.1,7.2-7.3,3.3-11.4,4.1c-2.8,0.6-6-0.8-5.9,4.3
	c0.1,5.1,3.5,3.8,6.2,3.9c2.2,0.1,4.5-0.2,6.7,0.1C346,123.6,347.9,125.7,345,130.1z M268.1,81.7c-14.4,0-28.8,0.1-43.2,0
	c-6.6-0.1-9.4,2.8-9.4,9.5c0.1,29.2,0.2,58.3,0,87.5c0,7.1,2.8,10,9.8,10c28.8-0.1,57.6-0.1,86.4,0c6.6,0,9.4-2.9,9.4-9.6
	c-0.1-29.2-0.1-58.3,0-87.5c0-7-2.7-10.1-9.8-9.9C296.9,81.9,282.5,81.7,268.1,81.7z"/>
<linearGradient id="SVGID_00000075857784995035039660000009242899743343230143_" gradientUnits="userSpaceOnUse" x1="359.775" y1="131.0651" x2="487.5092" y2="131.0651">
	<stop  offset="0" style="stop-color:#1E9CD7"/>
	<stop  offset="0.6173" style="stop-color:#0075BE"/>
	<stop  offset="0.9944" style="stop-color:#005B97"/>
	<stop  offset="1" style="stop-color:#CCE0F4"/>
</linearGradient>
<path style="fill:url(#SVGID_00000075857784995035039660000009242899743343230143_);" d="M475,178.1c-9.2,11.7-9.2,11.7-17.3-1.2
	c-3.8-6.1-7.8-12.2-11.7-18.3c-2.2-5.8,0.9-7.1,5.8-7.2c10.8-0.4,10.7-0.5,10.7-11.4c0-6-0.3-12.1,0.1-18.1
	c1.7-25.4-17.8-38.7-38-38.6c-18.9,0.2-37.8,0-56.7,0c-1.5,0-3,0-4.5,0c-2.4-0.1-3.7-1.5-3.7-3.9c0-2.3,1.5-3.8,3.8-3.9
	c4-0.1,8-0.1,11.9-0.1c16.7,0,33.3,0.3,50-0.1c22.2-0.5,46.8,15.9,45.1,46c-0.5,8,0.2,16.1-0.2,24.1c-0.2,4.6,1.2,6.6,5.8,5.9
	c0.7-0.1,1.5-0.1,2.2,0c3,0.4,6.9-1.4,8.7,2.4c1.7,3.6-1.5,6-3,8.8C481.1,167.8,478,172.9,475,178.1z M456.3,159.7
	c3.7,5.9,6.7,10.7,10.1,16.2c3.5-5.8,6.5-10.7,9.9-16.2C469.3,159.7,463.5,159.7,456.3,159.7z"/>
<linearGradient id="SVGID_00000137099648056514156740000015811766896213858995_" gradientUnits="userSpaceOnUse" x1="533.268" y1="549.5928" x2="594.727" y2="549.5928">
	<stop  offset="0" style="stop-color:#1E9CD7"/>
	<stop  offset="0.6173" style="stop-color:#0075BE"/>
	<stop  offset="0.9944" style="stop-color:#005B97"/>
	<stop  offset="1" style="stop-color:#CCE0F4"/>
</linearGradient>
<path style="fill:url(#SVGID_00000137099648056514156740000015811766896213858995_);" d="M593,536.5c-0.1,4.8,1.9,9.2,1.7,14.1
	c-0.5,14.9-11.3,27.6-25.7,29.8c-15.1,2.3-29.4-6.4-34.1-20.6c-4.8-14.4,1.3-30.2,14.5-37.4c12.9-7.1,29.2-3.9,38.5,7.5
	c1.8,2.2,2.3,5.5,5.3,6.8C593.1,536.6,593,536.5,593,536.5z M563.1,572.4c12.5,0.5,23.2-9.7,23.5-22.2c0.3-12.5-9.9-23.3-22.4-23.6
	c-11.6-0.3-22.3,10.1-22.9,22.4C540.8,560.9,551.1,571.9,563.1,572.4z"/>
<linearGradient id="SVGID_00000108282676483318077730000001109976973338368171_" gradientUnits="userSpaceOnUse" x1="533.3331" y1="436.1477" x2="571.86" y2="436.1477">
	<stop  offset="0" style="stop-color:#1E9CD7"/>
	<stop  offset="0.6173" style="stop-color:#0075BE"/>
	<stop  offset="0.9944" style="stop-color:#005B97"/>
	<stop  offset="1" style="stop-color:#CCE0F4"/>
</linearGradient>
<path style="fill:url(#SVGID_00000108282676483318077730000001109976973338368171_);" d="M557.1,451.6c-10.7-5.6-19-13.4-22.9-25.4
	c-1-3-2-6.2,2.1-7.4c3.7-1.1,4.6,2.1,5.5,4.7c3.2,9.2,8.8,16.1,18,19.7c2.3,1.7,5,2.2,7.6,2.7c2.8,0.5,4.9,1.7,4.3,4.9
	c-0.6,3.3-3.4,3.3-5.9,2.8C562.9,453,560,452.2,557.1,451.6z"/>
<linearGradient id="SVGID_00000133500285792904618040000008534600622733205649_" gradientUnits="userSpaceOnUse" x1="612.1899" y1="257.3067" x2="634.003" y2="257.3067">
	<stop  offset="0" style="stop-color:#1E9CD7"/>
	<stop  offset="0.6173" style="stop-color:#0075BE"/>
	<stop  offset="0.9944" style="stop-color:#005B97"/>
	<stop  offset="1" style="stop-color:#CCE0F4"/>
</linearGradient>
<path style="fill:url(#SVGID_00000133500285792904618040000008534600622733205649_);" d="M634,274.9c-0.2,2.3-0.7,3.8-2.7,4.5
	c-1.9,0.6-3.7,0.1-4.4-1.7c-4.9-12.5-9.7-25.1-14.5-37.7c-0.7-1.8-0.1-3.5,1.7-4.5c2.1-1.2,4.2-0.5,5.1,1.4
	C625.4,249.3,630,262.2,634,274.9z"/>
<linearGradient id="SVGID_00000150814696995416285970000015834318793133756039_" gradientUnits="userSpaceOnUse" x1="35.715" y1="268.1516" x2="55.99" y2="268.1516">
	<stop  offset="0" style="stop-color:#1E9CD7"/>
	<stop  offset="0.6173" style="stop-color:#0075BE"/>
	<stop  offset="0.9944" style="stop-color:#005B97"/>
	<stop  offset="1" style="stop-color:#CCE0F4"/>
</linearGradient>
<path style="fill:url(#SVGID_00000150814696995416285970000015834318793133756039_);" d="M35.9,284.7c3.2-12,7.4-24.3,12.4-36.3
	c1-2.3,2.8-3.6,5.4-2.4c2.7,1.2,2.6,3.6,1.7,5.7c-4.6,11.6-8.8,23.4-12,35.5c-0.6,2.3-2.2,4.1-4.9,3.4
	C35.8,289.9,35.4,287.7,35.9,284.7z"/>
<linearGradient id="SVGID_00000070085942876947430190000016480153348816812178_" gradientUnits="userSpaceOnUse" x1="261.2868" y1="676.0581" x2="307.4077" y2="676.0581">
	<stop  offset="0" style="stop-color:#1E9CD7"/>
	<stop  offset="0.6173" style="stop-color:#0075BE"/>
	<stop  offset="0.9944" style="stop-color:#005B97"/>
	<stop  offset="1" style="stop-color:#CCE0F4"/>
</linearGradient>
<path style="fill:url(#SVGID_00000070085942876947430190000016480153348816812178_);" d="M301.1,683.1c-12-1.3-23.9-3.5-35.8-6.2
	c-2.7-0.6-4.6-2.1-3.9-5.2c0.7-2.8,2.9-3.2,5.3-2.6c12.1,2.7,24.2,4.8,36.5,6.3c2.6,0.3,4.4,1.6,4.1,4.3
	C306.9,683.4,304,683.4,301.1,683.1z"/>
<linearGradient id="SVGID_00000045607140340782644070000011020816176060970898_" gradientUnits="userSpaceOnUse" x1="570.5886" y1="187.9498" x2="601.2059" y2="187.9498">
	<stop  offset="0" style="stop-color:#1E9CD7"/>
	<stop  offset="0.6173" style="stop-color:#0075BE"/>
	<stop  offset="0.9944" style="stop-color:#005B97"/>
	<stop  offset="1" style="stop-color:#CCE0F4"/>
</linearGradient>
<path style="fill:url(#SVGID_00000045607140340782644070000011020816176060970898_);" d="M601.2,203.9c0,1.9-0.9,3.2-2.7,3.9
	c-2,0.8-3.5-0.2-4.5-1.7c-6.9-11-14.6-21.5-22.5-31.7c-1.4-1.9-1.1-3.8,0.7-5.3c1.5-1.4,3.3-1.6,4.6-0.1
	c9.3,10.5,17.4,21.8,24.2,34.1C601.1,203.2,601.1,203.5,601.2,203.9z"/>
<linearGradient id="SVGID_00000053539727578067608230000011455602114769957275_" gradientUnits="userSpaceOnUse" x1="487.8824" y1="627.3634" x2="528.0457" y2="627.3634">
	<stop  offset="0" style="stop-color:#1E9CD7"/>
	<stop  offset="0.6173" style="stop-color:#0075BE"/>
	<stop  offset="0.9944" style="stop-color:#005B97"/>
	<stop  offset="1" style="stop-color:#CCE0F4"/>
</linearGradient>
<path style="fill:url(#SVGID_00000053539727578067608230000011455602114769957275_);" d="M492.1,642.4c-2,0.1-3.4-0.8-4-2.7
	c-0.7-1.9,0-3.6,1.6-4.6c11-6.7,21.6-14.1,31.9-21.8c1.8-1.4,3.8-1.3,5.3,0.6c1.4,1.8,1.4,3.9-0.3,5.4c-10.4,8.5-21.5,16-33.1,22.7
	C493.1,642.2,492.6,642.2,492.1,642.4z"/>
<linearGradient id="SVGID_00000176039452985937922480000009551702185957000861_" gradientUnits="userSpaceOnUse" x1="416.142" y1="662.8895" x2="460.6158" y2="662.8895">
	<stop  offset="0" style="stop-color:#1E9CD7"/>
	<stop  offset="0.6173" style="stop-color:#0075BE"/>
	<stop  offset="0.9944" style="stop-color:#005B97"/>
	<stop  offset="1" style="stop-color:#CCE0F4"/>
</linearGradient>
<path style="fill:url(#SVGID_00000176039452985937922480000009551702185957000861_);" d="M421.1,673.3c-2.3,0.2-4.1-0.4-4.8-2.7
	c-0.7-2.3,0.4-4.2,2.4-4.8c12.6-3.7,24.8-8.4,37-13.1c1.8-0.7,3.5,0,4.3,1.9c1,2.1,0.5,4.2-1.5,5.2
	C446.5,665.4,433.8,669.5,421.1,673.3z"/>
<linearGradient id="SVGID_00000078038647658528297480000004461505815950376889_" gradientUnits="userSpaceOnUse" x1="112.8773" y1="137.8519" x2="149.6658" y2="137.8519">
	<stop  offset="0" style="stop-color:#1E9CD7"/>
	<stop  offset="0.6173" style="stop-color:#0075BE"/>
	<stop  offset="0.9944" style="stop-color:#005B97"/>
	<stop  offset="1" style="stop-color:#CCE0F4"/>
</linearGradient>
<path style="fill:url(#SVGID_00000078038647658528297480000004461505815950376889_);" d="M149.7,124.6c0,2.3-1.8,3.4-3.3,4.7
	c-8.5,7.7-16.9,15.3-25.3,23.1c-2.1,2-4.3,4-6.9,1.3c-2.6-2.7-0.6-5,1.4-7c8.4-8.5,17.2-16.5,26.5-24c1.6-1.3,3.2-2.4,5.4-1.5
	C148.9,121.7,149.6,122.9,149.7,124.6z"/>
<linearGradient id="SVGID_00000143607700848017204900000011765366610919866298_" gradientUnits="userSpaceOnUse" x1="513.8885" y1="130.2587" x2="551.785" y2="130.2587">
	<stop  offset="0" style="stop-color:#1E9CD7"/>
	<stop  offset="0.6173" style="stop-color:#0075BE"/>
	<stop  offset="0.9944" style="stop-color:#005B97"/>
	<stop  offset="1" style="stop-color:#CCE0F4"/>
</linearGradient>
<path style="fill:url(#SVGID_00000143607700848017204900000011765366610919866298_);" d="M551.8,142.9c-1.3,4.2-3.9,5.1-6.8,2.6
	c-9.4-8.5-19-16.7-29.1-24.4c-2-1.6-2.8-3.6-1.1-5.8c1.4-1.8,3.3-2.2,5.2-0.8c10.7,7.7,20.7,16.2,30.2,25.4
	C551.1,140.6,551.3,142,551.8,142.9z"/>
<linearGradient id="SVGID_00000071549802474808199910000013208745148487430791_" gradientUnits="userSpaceOnUse" x1="188.2467" y1="652.9147" x2="231.5186" y2="652.9147">
	<stop  offset="0" style="stop-color:#1E9CD7"/>
	<stop  offset="0.6173" style="stop-color:#0075BE"/>
	<stop  offset="0.9944" style="stop-color:#005B97"/>
	<stop  offset="1" style="stop-color:#CCE0F4"/>
</linearGradient>
<path style="fill:url(#SVGID_00000071549802474808199910000013208745148487430791_);" d="M193.1,640.9c0.8,0.4,2.2,1,3.5,1.6
	c9.7,5.1,19.5,9.7,29.7,13.7c2.7,1.1,6.4,2.1,5,6c-1.3,3.8-4.6,2.8-7.5,1.6c-11-4.4-21.8-9.4-32.3-15c-2.2-1.2-3.7-2.7-2.9-5.3
	C189,641.7,190.4,640.7,193.1,640.9z"/>
<linearGradient id="SVGID_00000124147647714564439870000001428356376904716683_" gradientUnits="userSpaceOnUse" x1="65.6179" y1="197.3222" x2="95.0129" y2="197.3222">
	<stop  offset="0" style="stop-color:#1E9CD7"/>
	<stop  offset="0.6173" style="stop-color:#0075BE"/>
	<stop  offset="0.9944" style="stop-color:#005B97"/>
	<stop  offset="1" style="stop-color:#CCE0F4"/>
</linearGradient>
<path style="fill:url(#SVGID_00000124147647714564439870000001428356376904716683_);" d="M68.6,217.6c-2.8-0.7-3.9-3.1-2.2-6
	c6.4-11.5,13.6-22.7,21.8-33c1.4-1.7,3.3-2.3,5.2-0.8c1.8,1.5,2.1,3.5,0.9,5.4c-7.2,11.1-14.5,22-21.7,33
	C71.8,217.4,70.6,217.8,68.6,217.6z"/>
<linearGradient id="SVGID_00000049207541073237838740000016018455946407194289_" gradientUnits="userSpaceOnUse" x1="338.9869" y1="679.468" x2="385.39" y2="679.468">
	<stop  offset="0" style="stop-color:#1E9CD7"/>
	<stop  offset="0.6173" style="stop-color:#0075BE"/>
	<stop  offset="0.9944" style="stop-color:#005B97"/>
	<stop  offset="1" style="stop-color:#CCE0F4"/>
</linearGradient>
<path style="fill:url(#SVGID_00000049207541073237838740000016018455946407194289_);" d="M354.1,685c-4.3,0-7.5,0-10.7,0
	c-2.5,0-4.4-1-4.4-3.9c0-2.4,1.5-3.8,3.8-3.8c12.7-0.3,25.3-1.6,37.9-3.2c2.5-0.3,4.5,0.7,4.7,3.5c0.2,2.8-1.6,4-4.1,4.3
	C371.9,682.9,362.5,684,354.1,685z"/>
<linearGradient id="SVGID_00000020374987112469011120000006901899235659146388_" gradientUnits="userSpaceOnUse" x1="549.8281" y1="426.0284" x2="575.2421" y2="426.0284">
	<stop  offset="0" style="stop-color:#1E9CD7"/>
	<stop  offset="0.6173" style="stop-color:#0075BE"/>
	<stop  offset="0.9944" style="stop-color:#005B97"/>
	<stop  offset="1" style="stop-color:#CCE0F4"/>
</linearGradient>
<path style="fill:url(#SVGID_00000020374987112469011120000006901899235659146388_);" d="M561.8,435.4c-4.8-4-9.4-8.1-11.4-14.4
	c-0.8-2.6-1.1-5.1,1.8-6.4c3-1.3,4.6,0.6,5.6,3.2c1.3,3.6,3,6.9,6.6,8.7c1.8,2.3,4.6,2.7,7.2,3.4c2.8,0.8,4.5,2.4,3.4,5.4
	c-0.9,2.5-3,3.1-5.4,2.4C566.9,436.9,564.3,436.1,561.8,435.4z"/>
<linearGradient id="SVGID_00000109742473907626820990000003846475061560533926_" gradientUnits="userSpaceOnUse" x1="501.8603" y1="507.7691" x2="521.1156" y2="507.7691">
	<stop  offset="0" style="stop-color:#1E9CD7"/>
	<stop  offset="0.6173" style="stop-color:#0075BE"/>
	<stop  offset="0.9944" style="stop-color:#005B97"/>
	<stop  offset="1" style="stop-color:#CCE0F4"/>
</linearGradient>
<path style="fill:url(#SVGID_00000109742473907626820990000003846475061560533926_);" d="M512,503.6c3.1,0.8,9-2,9.1,3.9
	c0.1,6.5-6.2,3.6-9.9,4.3c-1.2,0.2-2.5,0.1-3.7,0c-2.8-0.2-5.8-0.5-5.7-4.3c0.2-3.8,3.2-3.8,6-3.9
	C509.1,503.6,510.4,503.6,512,503.6z"/>
<linearGradient id="SVGID_00000127035149209596426680000018021763496942097599_" gradientUnits="userSpaceOnUse" x1="634.7278" y1="510.2802" x2="653.1539" y2="510.2802">
	<stop  offset="0" style="stop-color:#1E9CD7"/>
	<stop  offset="0.6173" style="stop-color:#0075BE"/>
	<stop  offset="0.9944" style="stop-color:#005B97"/>
	<stop  offset="1" style="stop-color:#CCE0F4"/>
</linearGradient>
<path style="fill:url(#SVGID_00000127035149209596426680000018021763496942097599_);" d="M634.8,513.9c2.1-6.3,8.3-7.2,13.1-9.8
	c2.1-1.1,3.9,0,4.8,2.1c1,2.1,0.2,4-1.8,5.1c-4.7,2.5-9.2,5.5-14.8,5.6c0,0,0.1,0.1,0.1,0.1c1.2-1.9,0.1-2.7-1.6-3.2L634.8,513.9z"
	/>
<linearGradient id="SVGID_00000005980275854815935290000012782588671192252084_" gradientUnits="userSpaceOnUse" x1="336.8955" y1="281.0818" x2="492.7981" y2="281.0818">
	<stop  offset="0" style="stop-color:#1E9CD7"/>
	<stop  offset="0.6173" style="stop-color:#0075BE"/>
	<stop  offset="0.9944" style="stop-color:#005B97"/>
	<stop  offset="1" style="stop-color:#CCE0F4"/>
</linearGradient>
<path style="fill:url(#SVGID_00000005980275854815935290000012782588671192252084_);" d="M346.3,301.8c1.7-0.1,3.5-0.2,5.2-0.4
	c2.9-0.2,2.7-2.3,2.8-4.4c0.1-2.3-0.4-4-3.2-3.9c-3.2,0.1-6.5,0-9.7,0c-2.6,0-4.5-1.3-4.5-3.9c0-2.7,2-3.8,4.6-3.8
	c2.5,0,5-0.1,7.5,0c2.8,0,5.3,0.2,5.4-4.1c0.1-4.7-2.5-4.7-5.7-4.6c-2.2,0.1-4.5,0-6.7,0c-2.8,0-5.2-0.9-5.1-4.1
	c0.1-2.7,2.3-3.7,4.8-3.7c2.5,0,5-0.1,7.5,0c3.1,0.1,5.3-0.2,5.2-4.3c-0.1-3.7-2.1-3.9-4.9-3.9c-2.7,0.1-5.5,0.1-8.2-0.1
	c-2.5-0.2-4.5-1.5-4.3-4.2c0.1-2.6,2-3.9,4.6-3.9c3,0,6-0.1,9,0c3,0.1,3.8-1.4,3.8-4.2c0-3-1.2-4-4-3.9c-3,0.1-6,0.1-8.9-0.1
	c-2.4-0.2-4.5-1.4-4.4-4.2c0.1-2.7,2.1-3.8,4.6-4c1.2-0.1,2.5-0.2,3.7,0c5.4,0.7,9.2-0.2,10.3-6.9c0.8-4.6,4.6-8,9.4-8.7
	c5.4-0.7,6.3-3.7,5.7-8.3c-0.1-0.5-0.1-1,0-1.5c0.3-3.3-1.3-8.1,3.9-8.3c5.1-0.1,4,4.7,4.2,8c0.1,2,0,4,0.1,6c0.1,2.8,2.1,2.9,4.2,3
	c2.4,0.1,3.8-0.7,3.8-3.4c0-3,0-6,0-9.1c0-2.5,0.8-4.6,3.6-4.8c3.3-0.2,4.1,2.2,4.1,5c0,2.8,0.1,5.5,0,8.3c-0.1,3,1.3,4,4.1,3.9
	c2.7-0.1,4.1-1.1,4.1-4c0-2.8,0.1-5.5,0.2-8.3c0.1-2.7,0.9-5.2,4.2-4.9c2.7,0.2,3.6,2.3,3.6,4.9c0,2.8,0.1,5.5,0,8.3
	c-0.1,2.9,1.1,4.1,4,4c2.8,0,4.1-1.1,4-4c-0.1-2.5,0-5,0-7.6c0-3,0.7-5.8,4.4-5.7c3.3,0.1,3.8,2.7,3.8,5.4c0,2.8,0.1,5.5,0,8.3
	c-0.1,3.3,2,3.5,4.4,3.5c2.6,0,3.5-1.2,3.5-3.7c-0.1-3-0.1-6,0.1-9.1c0.2-2.5,1.3-4.4,4.1-4.5c2.8,0,3.8,1.9,4,4.4
	c0.1,1.5-0.2,3.1,0.1,4.5c0.7,3.1-2.5,8.4,4.2,8.2c6.1-0.1,3.2-5,3.8-7.9c0.3-1.4,0-3,0.1-4.5c0-2.5,0.9-4.6,3.7-4.8
	c2.8-0.2,3.9,1.7,4.3,4.2c0.1,1,0.3,2,0.2,3c-0.8,6.1,0.1,10.4,7.4,11.7c4.3,0.7,7.6,4.8,7.8,9.2c0.3,5.5,3.2,5.5,7.3,5.7
	c3.9,0.2,10.7-2.8,10.5,4.3c-0.2,6.1-6.6,3.2-10.4,3.9c-2.8,0.5-6.9-1.6-6.9,4.1c0,5.7,4.1,3.5,6.9,4.1c3.8,0.7,10.3-2.3,10.4,3.8
	c0.2,6.8-6.6,3.8-10.6,4.4c-2.9,0.5-6.9-1.3-6.7,4.3c0.2,5.6,4.3,3.3,7.1,3.9c3.7,0.7,10.2-2.4,10.1,4.1c-0.1,6.3-6.6,2.9-10.3,3.7
	c-2.8,0.6-6.8-1.5-7,4.1c-0.2,5.4,3.5,4.1,6.5,4.6c3.9,0.7,10.8-2.9,10.7,4c-0.1,6.1-6.7,2.8-10.4,3.6c-1.2,0.3-2.5,0.1-3.7,0.1
	c-2.8,0.1-3,2-3,4.2c0,2.2,0.4,4,3.2,4c2.2,0,4.5-0.1,6.7,0.1c3,0.4,7.4-0.9,7.5,3.9c0.1,4.7-4.1,4.1-7.3,4.2c-2,0-4,0.1-6,0
	c-2.6-0.1-4.2,0.6-4.3,3.7c-0.1,3.3,1.2,4.6,4.4,4.4c2.7-0.1,5.5,0,8.2,0.1c2.7,0.1,5.2,0.9,5,4.2c-0.1,3.2-2.5,4-5.3,4
	c-0.7,0-1.5,0-2.2,0c-5.5-0.2-10.7-0.9-11.3,7.5c-0.3,4.3-4.6,7.4-9,8.1c-4.8,0.8-6.1,3.3-5.7,7.7c0.2,2.2,0,4.5-0.3,6.8
	c-0.3,2.2-1.4,3.8-3.9,3.7c-2.4-0.1-3.7-1.5-3.8-3.8c-0.2-3-0.2-6-0.1-9.1c0.1-3.2-1.1-4.5-4.3-4.4c-3,0.1-3.9,1.5-3.8,4.2
	c0.1,2.8,0,5.5-0.1,8.3c-0.1,2.5-0.9,4.6-3.7,4.7c-3.2,0.1-4.3-2.1-4.4-4.9c-0.1-2.8-0.2-5.5-0.1-8.3c0.1-2.9-1.1-4.1-3.9-4.1
	c-2.8,0-4.2,0.9-4,3.9c0.1,2.5,0,5,0,7.6c0,3-0.4,5.9-4.2,5.8c-3.8-0.1-3.9-3.2-4-6c-0.1-2.3-0.1-4.5,0-6.8c0.2-3.2-1.2-4.5-4.4-4.4
	c-3.1,0.1-3.7,1.7-3.6,4.3c0.1,2.8,0,5.5,0,8.3c0,2.5-0.8,4.5-3.7,4.7c-2.8,0.1-4-1.7-4.2-4.3c-0.2-3-0.3-6-0.2-9.1
	c0.1-2.9-1.3-3.9-4.1-4c-2.8,0-4.2,1-4,3.9c0.1,2.3,0,4.5,0,6.8c-0.1,3,0.5,6.6-4,6.5c-3.9-0.1-3.6-3.4-3.7-6.2c0-2.3-0.1-4.5,0-6.8
	c0.1-2.7-0.7-4.3-3.7-4.3c-3.1,0-4.6,1.2-4.4,4.4c0.1,2.5,0.1,5-0.1,7.5c-0.2,2.6-0.6,5.3-4,5.3c-3.3,0-4.1-2.3-4-5.1c0-1-0.1-2,0-3
	c0.6-5.4-0.1-9.4-6.8-10.3c-4.7-0.7-8-4.7-8.7-9.4c-0.7-5.5-3.5-6.4-8-5.8c-2,0.2-4,0.2-6-0.1c-2.4-0.3-4.3-1.7-4.1-4.4
	c0.2-2.3,1.9-3.5,4.1-3.6c3-0.2,6-0.2,8.9-0.1c2.5,0,4.2-0.4,4.3-3.7c0-3.2-1-4.7-4.3-4.5c-2.2,0.1-4.5,0-6.7,0
	c-3.2,0-6.5-0.3-6.3-4.4c0.2-3.8,3.6-3.4,6.3-3.7c1-0.1,2,0,3,0C346.3,301.7,346.3,301.8,346.3,301.8z M415.3,227.9
	c-14.7,0-29.3,0.2-44-0.1c-6.9-0.1-9.3,3.1-9.2,9.6c0.1,29.2,0.1,58.4,0,87.6c0,6.7,2.8,9.4,9.5,9.3c28.8-0.2,57.7-0.2,86.5,0
	c6.6,0,9.5-2.3,9.5-9.2c-0.2-29.5-0.2-58.9,0-88.4c0-6.5-2.7-9-9-8.9C444.2,228,429.8,227.9,415.3,227.9z"/>
<linearGradient id="SVGID_00000008847715438581248260000005751788798652016545_" gradientUnits="userSpaceOnUse" x1="200.2532" y1="282.1139" x2="328.0169" y2="282.1139">
	<stop  offset="0" style="stop-color:#1E9CD7"/>
	<stop  offset="0.6173" style="stop-color:#0075BE"/>
	<stop  offset="0.9944" style="stop-color:#005B97"/>
	<stop  offset="1" style="stop-color:#CCE0F4"/>
</linearGradient>
<path style="fill:url(#SVGID_00000008847715438581248260000005751788798652016545_);" d="M289.3,337c-9.7,0-19.4,0.1-29.1,0
	c-25.2-0.5-42.9-18.7-43-44.3c0-8.1-0.2-16.1,0.1-24.2c0.1-4.2-1.2-6.1-5.5-5.6c-2.2,0.2-4.5,0.2-6.7,0c-4.8-0.4-6.1-3.2-3.7-7.2
	c5.2-8.6,10.5-17.1,15.9-25.5c2.7-4.2,5.6-3.8,8.1,0.1c5.3,8.2,10.5,16.5,15.5,24.9c2.8,4.6,1.8,7.7-4.2,7.8c-2.2,0-4.5,0.2-6.7,0
	c-3.6-0.3-4.7,1.4-4.7,4.9c0.2,10.3-0.3,20.7,0.2,31c0.8,17.2,16.5,30.2,36.6,30.4c19.4,0.2,38.8,0,58.2,0.1c3.1,0,7.4-1,7.5,3.8
	c0.1,4.8-4.2,4-7.3,4C310.2,337,299.8,337,289.3,337z M231,254.9c-3-6-5.8-11-9.9-15.8c-3.3,5.5-6.2,10.2-9.6,15.8
	C218.4,254.9,224.1,254.9,231,254.9z"/>
<linearGradient id="SVGID_00000088104150147637217300000002663935996799784576_" gradientUnits="userSpaceOnUse" x1="636.4395" y1="527.6963" x2="639.8456" y2="527.6963">
	<stop  offset="0" style="stop-color:#1E9CD7"/>
	<stop  offset="0.6173" style="stop-color:#0075BE"/>
	<stop  offset="0.9944" style="stop-color:#005B97"/>
	<stop  offset="1" style="stop-color:#CCE0F4"/>
</linearGradient>
<path style="fill:url(#SVGID_00000088104150147637217300000002663935996799784576_);" d="M638,529.3c-0.7-0.8-1.4-1.3-1.5-1.8
	c-0.2-1.4,0.8-1.6,1.8-1.3c0.6,0.2,1.4,0.6,1.5,1.1C640.2,529,638.3,528,638,529.3z"/>
<linearGradient id="SVGID_00000003825476633930107770000010584489399492606344_" gradientUnits="userSpaceOnUse" x1="634.15" y1="515.3109" x2="636.7953" y2="515.3109">
	<stop  offset="0" style="stop-color:#1E9CD7"/>
	<stop  offset="0.6173" style="stop-color:#0075BE"/>
	<stop  offset="0.9944" style="stop-color:#005B97"/>
	<stop  offset="1" style="stop-color:#CCE0F4"/>
</linearGradient>
<path style="fill:url(#SVGID_00000003825476633930107770000010584489399492606344_);" d="M634.7,513.7c1.6,0.5,2.8,1.2,1.6,3.2
	C634.5,516.5,633.4,515.7,634.7,513.7z"/>
<linearGradient id="SVGID_00000018238996530677948130000016725282326768590762_" gradientUnits="userSpaceOnUse" x1="114.1573" y1="393.1754" x2="200.6481" y2="393.1754">
	<stop  offset="0" style="stop-color:#1E9CD7"/>
	<stop  offset="0.6173" style="stop-color:#0075BE"/>
	<stop  offset="0.9944" style="stop-color:#005B97"/>
	<stop  offset="1" style="stop-color:#CCE0F4"/>
</linearGradient>
<path style="fill:url(#SVGID_00000018238996530677948130000016725282326768590762_);" d="M156.5,379.8c15.9,0.4,29.2,7,40.7,17.8
	c2.2,2,5.1,4.3,2.3,7.5c-2.9,3.3-5.3,0.5-7.5-1.5c-8.8-8.1-18.7-14.1-30.9-15.4c-14.6-1.5-26.8,3.8-37.5,13.4
	c-2.3,2.1-4.8,5.8-8.1,2.3c-3.7-4,0.7-6.3,3-8.5C129.4,385.7,141.8,380.1,156.5,379.8z"/>
<linearGradient id="SVGID_00000114039017973207906060000007725879050988429997_" gradientUnits="userSpaceOnUse" x1="123.0584" y1="405.3264" x2="190.8817" y2="405.3264">
	<stop  offset="0" style="stop-color:#1E9CD7"/>
	<stop  offset="0.6173" style="stop-color:#0075BE"/>
	<stop  offset="0.9944" style="stop-color:#005B97"/>
	<stop  offset="1" style="stop-color:#CCE0F4"/>
</linearGradient>
<path style="fill:url(#SVGID_00000114039017973207906060000007725879050988429997_);" d="M157.5,394.2c11.5,0.2,21.8,5.7,30.9,14.1
	c2,1.8,3.6,4,1.5,6.5c-2.4,2.9-4.6,1.2-7-0.7c-20.2-16-32.5-16.2-51.9-0.9c-2.3,1.8-4.5,3.6-7,0.6c-2.2-2.7-0.3-4.7,1.6-6.5
	C134.3,399.2,144.3,394.2,157.5,394.2z"/>
<linearGradient id="SVGID_00000055705785443310164400000013028166489081129117_" gradientUnits="userSpaceOnUse" x1="132.3385" y1="416.2795" x2="181.9377" y2="416.2795">
	<stop  offset="0" style="stop-color:#1E9CD7"/>
	<stop  offset="0.6173" style="stop-color:#0075BE"/>
	<stop  offset="0.9944" style="stop-color:#005B97"/>
	<stop  offset="1" style="stop-color:#CCE0F4"/>
</linearGradient>
<path style="fill:url(#SVGID_00000055705785443310164400000013028166489081129117_);" d="M156.6,415.1c-6.4-0.1-11.4,2.9-16,7
	c-2.1,1.9-4.4,4.1-7,1.3c-2.9-3.1-0.3-5.4,1.9-7.6c12.9-12.3,32.1-11.6,44,1.5c1.8,2,3.5,4,1.3,6.5c-2.1,2.4-4.3,1.3-6.5-0.4
	C164,415.9,162.3,415.2,156.6,415.1z"/>
<linearGradient id="SVGID_00000129904066968421095150000012195378863185372071_" gradientUnits="userSpaceOnUse" x1="145.2464" y1="431.6397" x2="168.6311" y2="431.6397">
	<stop  offset="0" style="stop-color:#1E9CD7"/>
	<stop  offset="0.6173" style="stop-color:#0075BE"/>
	<stop  offset="0.9944" style="stop-color:#005B97"/>
	<stop  offset="1" style="stop-color:#CCE0F4"/>
</linearGradient>
<path style="fill:url(#SVGID_00000129904066968421095150000012195378863185372071_);" d="M157.3,443.3c-6.5,0.1-11.9-5.1-12.1-11.6
	c-0.2-6.7,4.9-11.9,11.6-11.8c6.4,0.1,11.7,5.5,11.8,12C168.7,438.1,163.6,443.2,157.3,443.3z M157,427.9c-2.4,0.1-3.9,1.6-3.8,3.7
	c0.1,2,1.5,3.6,3.9,3.6c2.1,0,3.2-1.3,3.2-3.3C160.4,429.7,159,428.4,157,427.9z"/>
<linearGradient id="SVGID_00000173861006904707149990000015568572532635814276_" gradientUnits="userSpaceOnUse" x1="410.7298" y1="549.7219" x2="444.1048" y2="549.7219">
	<stop  offset="0" style="stop-color:#1E9CD7"/>
	<stop  offset="0.6173" style="stop-color:#0075BE"/>
	<stop  offset="0.9944" style="stop-color:#005B97"/>
	<stop  offset="1" style="stop-color:#CCE0F4"/>
</linearGradient>
<path style="fill:url(#SVGID_00000173861006904707149990000015568572532635814276_);" d="M427.9,532.9c9,0.1,16.4,7.8,16.2,17
	c-0.2,9.3-7.5,16.7-16.6,16.7c-8.7,0.1-16.8-8-16.8-16.7C410.7,540.4,418.4,532.8,427.9,532.9z M427.6,558c5.2-0.4,8.4-3.5,8.2-8.6
	c-0.1-5.1-3.5-8.4-8.7-8.2c-4.8,0.2-7.8,3.3-7.8,8.2C419.3,554.7,422.2,557.7,427.6,558z"/>
<linearGradient id="SVGID_00000124129035278787192550000011986814666805157809_" gradientUnits="userSpaceOnUse" x1="221.3106" y1="135.1481" x2="314.9799" y2="135.1481">
	<stop  offset="0" style="stop-color:#1E9CD7"/>
	<stop  offset="0.6173" style="stop-color:#0075BE"/>
	<stop  offset="0.9944" style="stop-color:#005B97"/>
	<stop  offset="1" style="stop-color:#CCE0F4"/>
</linearGradient>
<path style="fill:url(#SVGID_00000124129035278787192550000011986814666805157809_);" d="M221.4,135.1c0-12.8,0.2-25.7-0.1-38.5
	c-0.1-6.5,2.5-9,8.9-8.9c25.1,0.2,50.2,0.2,75.4,0c6.7-0.1,9.4,2.4,9.4,9.3c-0.2,25.4-0.2,50.9,0,76.3c0.1,6.9-2.7,9.4-9.4,9.3
	c-24.9-0.2-49.7-0.2-74.6,0c-7,0.1-9.9-2.4-9.7-9.7C221.7,160.3,221.4,147.7,221.4,135.1z M306.1,135.1c0-11.1-0.2-22.2,0.1-33.2
	c0.1-4.7-1.3-6-5.9-6c-21.6,0.2-43.3,0.2-64.9,0c-4.6,0-6,1.6-6,6.1c0.2,21.9,0.2,43.8,0,65.7c0,4.7,1.3,6,5.9,5.9
	c22.1-0.2,44.3-0.2,66.4,0.1c3.9,0,4.5-1.2,4.4-4.6C306,157.8,306.1,146.5,306.1,135.1z"/>
<linearGradient id="SVGID_00000029041204277496479980000005611599625237077947_" gradientUnits="userSpaceOnUse" x1="547.5414" y1="549.8079" x2="580.4168" y2="549.8079">
	<stop  offset="0" style="stop-color:#1E9CD7"/>
	<stop  offset="0.6173" style="stop-color:#0075BE"/>
	<stop  offset="0.9944" style="stop-color:#005B97"/>
	<stop  offset="1" style="stop-color:#CCE0F4"/>
</linearGradient>
<path style="fill:url(#SVGID_00000029041204277496479980000005611599625237077947_);" d="M580.4,549.2c0.2,9.3-7,17.1-16,17.5
	c-8.9,0.3-16.7-7.4-16.8-16.6c-0.1-9.6,6.7-17,16-17.1C573.2,532.8,580.3,539.6,580.4,549.2z M572.4,549.3c-0.7-5.1-3.5-8.4-8.8-8.1
	c-5.1,0.3-8.2,3.7-7.9,9c0.3,4.9,3.4,7.7,8.3,7.7C569.4,557.9,572,554.7,572.4,549.3z"/>
<linearGradient id="SVGID_00000029757092478479231440000005218486816257115026_" gradientUnits="userSpaceOnUse" x1="367.9189" y1="281.0502" x2="461.5297" y2="281.0502">
	<stop  offset="0" style="stop-color:#1E9CD7"/>
	<stop  offset="0.6173" style="stop-color:#0075BE"/>
	<stop  offset="0.9944" style="stop-color:#005B97"/>
	<stop  offset="1" style="stop-color:#CCE0F4"/>
</linearGradient>
<path style="fill:url(#SVGID_00000029757092478479231440000005218486816257115026_);" d="M414.6,328.1c-12.7,0-25.4-0.2-38,0.1
	c-6,0.1-8.7-2.1-8.6-8.3c0.1-25.9,0.1-51.8,0-77.8c0-6.2,2.6-8.4,8.6-8.3c25.4,0.2,50.7,0.2,76.1,0c6.3-0.1,9,2.1,8.9,8.7
	c-0.2,25.7-0.2,51.3,0,77c0.1,6.7-2.6,8.8-8.9,8.7C439.9,327.9,427.3,328.1,414.6,328.1z M376.6,280.8c0,11.3,0,22.6,0,33.9
	c0,3,0,5.4,4.1,5.3c22.6-0.1,45.2-0.1,67.8,0c3.2,0,4.7-1.2,4.7-4.3c0-22.9,0-45.7-0.1-68.6c0-3.6-1.7-5.1-5.5-5.1
	c-21.8,0.2-43.7,0.2-65.5,0c-4.1,0-5.7,1.1-5.5,5.5C376.8,258.6,376.6,269.7,376.6,280.8z"/>
</svg>
