<?xml version="1.0" encoding="utf-8"?>
<!-- Generator: Adobe Illustrator 26.0.1, SVG Export Plug-In . SVG Version: 6.00 Build 0)  -->
<svg version="1.1" id="Layer_1" xmlns="http://www.w3.org/2000/svg" xmlns:xlink="http://www.w3.org/1999/xlink" x="0px" y="0px"
	 viewBox="0 0 720 720" style="enable-background:new 0 0 720 720;" xml:space="preserve">
<style type="text/css">
	.st0{fill:url(#SVGID_1_);}
	.st1{fill:url(#SVGID_00000166649910933559314080000006941974344800651662_);}
	.st2{fill:url(#SVGID_00000168104194761765394670000014513390220419220363_);}
	.st3{fill:url(#SVGID_00000047034796387232369580000015819540750289170329_);}
	.st4{fill:url(#SVGID_00000010270327263444787880000004663145290500465052_);}
	.st5{fill:url(#SVGID_00000109029838447178648350000018106357802869376670_);}
	.st6{fill:url(#SVGID_00000172435531857220391970000009221629886140441250_);}
	.st7{fill:url(#SVGID_00000011023943227904439740000013702536046318615209_);}
	.st8{fill:url(#SVGID_00000137836507504523358010000004515236549444707495_);}
	.st9{fill:url(#SVGID_00000092435236158528417600000013033300441609274021_);}
	.st10{fill:url(#SVGID_00000075133476022029324080000014203515555828423572_);}
	.st11{fill:url(#SVGID_00000067954997395132742760000004733089148466515093_);}
	.st12{fill:url(#SVGID_00000015313077307358770990000003495840072040369079_);}
	.st13{fill:url(#SVGID_00000122683497689763826440000010313043974420972174_);}
	.st14{fill:url(#SVGID_00000049914539228442027410000007699415186636409747_);}
	.st15{fill:url(#SVGID_00000065039273126144376640000007406744530898364332_);}
	.st16{fill:url(#SVGID_00000072271586638686819990000004085643274196210596_);}
	.st17{fill:url(#SVGID_00000003093173355296382420000013351513758854242479_);}
	.st18{fill:url(#SVGID_00000168089378487384549060000012934666371920173742_);}
	.st19{fill:url(#SVGID_00000090256243637903898700000015207765468457714578_);}
	.st20{fill:url(#SVGID_00000141450554531433879520000001584896708879720893_);}
	.st21{fill:url(#SVGID_00000024690360514212796530000012780369916009452458_);}
	.st22{fill:url(#SVGID_00000144330314535567942880000007786763458503390375_);}
	.st23{fill:url(#SVGID_00000100382825568160686740000015922805759426636933_);}
	.st24{fill:url(#SVGID_00000183240170171737363010000011060970819588522386_);}
	.st25{fill:url(#SVGID_00000139252300405868913340000011477717355880492968_);}
	.st26{fill:url(#SVGID_00000072964378508269319230000017449450531919514280_);}
	.st27{fill:url(#SVGID_00000031178577240920387890000005999576757193964933_);}
	.st28{fill:url(#SVGID_00000029759774996086440310000012891431858474446499_);}
	.st29{fill:url(#SVGID_00000100350404913507129090000013664540049699453824_);}
	.st30{fill:url(#SVGID_00000093891240787439224070000003722454350725648822_);}
	.st31{fill:url(#SVGID_00000172416497635695282180000010149736302660516524_);}
	.st32{fill:url(#SVGID_00000150085988613319614960000013028758505627701431_);}
	.st33{fill:url(#SVGID_00000013899590811934792060000015704089088130433932_);}
	.st34{fill:url(#SVGID_00000018939073249668310950000009901255193799033521_);}
	.st35{fill:#FEFEFE;}
	.st36{fill:#FDFDFD;}
	.st37{fill:url(#SVGID_00000125571830676357189720000015729747215714647693_);}
	.st38{fill:url(#SVGID_00000058582542597476817300000014403095435624893086_);}
	.st39{fill:url(#SVGID_00000105410510730815215090000009093804018953171634_);}
	.st40{fill:url(#SVGID_00000173867953883579883730000003954196552756401029_);}
	.st41{fill:url(#SVGID_00000107573626102888105160000014547900115216381625_);}
</style>
<linearGradient id="SVGID_1_" gradientUnits="userSpaceOnUse" x1="336.6361" y1="504.616" x2="708" y2="504.616">
	<stop  offset="0" style="stop-color:#0075BE"/>
	<stop  offset="0.4333" style="stop-color:#1E9CD7"/>
	<stop  offset="0.8184" style="stop-color:#067DC3"/>
	<stop  offset="0.9944" style="stop-color:#005B97"/>
	<stop  offset="1" style="stop-color:#CCE0F4"/>
</linearGradient>
<path class="st0" d="M611.8,429.8c2.4,33.3-11.4,61.8-31.9,88c-3.4,4.3-8.7,7.6-2.4,14.3c4.6,4.8,6.3,8.8,14.4,3.3
	c7.6-5.1,11.6,4.7,15.3,9.4c27.5,35.6,54.5,71.5,81.6,107.4c4.4,5.8,8.7,11.6,12.8,17.5c9.5,13.7,8.7,20.5-4.2,30.6
	c-5.3,4.2-11,7.9-16.8,11.5c-13.1,8-22.4,7.1-32-4.5c-33.6-40.6-66.9-81.6-100.1-122.5c-2.2-2.7-7.1-6-2.7-9.7
	c6.9-5.8,5.9-9.7,0.2-16.1c-6.1-6.8-11-6.3-18.9-3.6C472,574.4,421,567,378.8,526c-41.2-40.1-52.2-90.2-33-143.7
	c19.8-55.2,63-85.9,121-89.7C557.1,286.5,617.7,366.1,611.8,429.8z"/>
<linearGradient id="SVGID_00000018924461735081055880000018410682473687355835_" gradientUnits="userSpaceOnUse" x1="492.8482" y1="98.4967" x2="681.653" y2="98.4967">
	<stop  offset="0" style="stop-color:#0075BE"/>
	<stop  offset="0.4333" style="stop-color:#1E9CD7"/>
	<stop  offset="0.8184" style="stop-color:#067DC3"/>
	<stop  offset="0.9944" style="stop-color:#005B97"/>
	<stop  offset="1" style="stop-color:#CCE0F4"/>
</linearGradient>
<path style="fill:url(#SVGID_00000018924461735081055880000018410682473687355835_);" d="M587.1,190c-26.1,0-52.2-0.5-78.2,0.2
	c-11.7,0.3-16.3-2.1-16.1-15.1c0.8-51.7,0.6-103.4,0.1-155.1c-0.1-10.6,3.1-13.4,13.5-13.3c54.2,0.5,108.3,0.5,162.5-0.1
	c11.4-0.1,12.8,4.3,12.7,13.8c-0.4,51.7-0.5,103.4,0.1,155.1c0.1,11-2.6,15-14.3,14.7C640.6,189.5,613.9,190,587.1,190z"/>
<linearGradient id="SVGID_00000004538397207458119550000008570748903622663333_" gradientUnits="userSpaceOnUse" x1="14.4321" y1="98.4889" x2="199.9905" y2="98.4889">
	<stop  offset="0" style="stop-color:#0075BE"/>
	<stop  offset="0.4333" style="stop-color:#1E9CD7"/>
	<stop  offset="0.8184" style="stop-color:#067DC3"/>
	<stop  offset="0.9944" style="stop-color:#005B97"/>
	<stop  offset="1" style="stop-color:#CCE0F4"/>
</linearGradient>
<path style="fill:url(#SVGID_00000004538397207458119550000008570748903622663333_);" d="M107.4,7c26.7,0,53.5,0.4,80.2-0.2
	c9.7-0.2,12.5,2.5,12.4,12.2c-0.5,53-0.5,106.1,0,159.1c0.1,9.9-3.4,12.2-12.7,12.2c-53.5-0.4-107-0.4-160.5,0
	c-10,0.1-12.3-3.3-12.3-12.6c0.4-53,0.5-106.1-0.1-159.1c-0.1-10.2,3.5-12,12.7-11.8C53.9,7.3,80.6,7,107.4,7z"/>
<linearGradient id="SVGID_00000126306134404937349230000014123306978249056166_" gradientUnits="userSpaceOnUse" x1="14.38" y1="574.8757" x2="200.0438" y2="574.8757">
	<stop  offset="0" style="stop-color:#0075BE"/>
	<stop  offset="0.4333" style="stop-color:#1E9CD7"/>
	<stop  offset="0.8184" style="stop-color:#067DC3"/>
	<stop  offset="0.9944" style="stop-color:#005B97"/>
	<stop  offset="1" style="stop-color:#CCE0F4"/>
</linearGradient>
<path style="fill:url(#SVGID_00000126306134404937349230000014123306978249056166_);" d="M105.6,666.5c-25.4,0-50.9-0.5-76.3,0.2
	C18.6,667,14.2,665,14.4,653c0.7-51.7,0.6-103.5,0.1-155.2c-0.1-10.7,2.1-14.9,14.1-14.8c52.2,0.7,104.4,0.6,156.6,0.1
	c10.8-0.1,15.1,2.1,14.9,13.9c-0.6,51.7-0.6,103.5,0,155.2c0.1,10.9-2.4,14.9-14.1,14.5C159.1,665.9,132.4,666.5,105.6,666.5z"/>
<linearGradient id="SVGID_00000052821804273009270680000010192616416850610601_" gradientUnits="userSpaceOnUse" x1="224.7092" y1="361.6052" x2="334.6867" y2="361.6052">
	<stop  offset="0" style="stop-color:#0075BE"/>
	<stop  offset="0.4333" style="stop-color:#1E9CD7"/>
	<stop  offset="0.8184" style="stop-color:#067DC3"/>
	<stop  offset="0.9944" style="stop-color:#005B97"/>
	<stop  offset="1" style="stop-color:#CCE0F4"/>
</linearGradient>
<path style="fill:url(#SVGID_00000052821804273009270680000010192616416850610601_);" d="M250.3,273c10-0.5,19.9-0.9,29.9-1.4
	c0.7,0.7,1.3,1.3,2,1.9c2.1,3.4,2.4,7.4,3.4,11.1c1,4,2.9,7.5,7.5,7.8c5.6,0.4,8.2-3.1,9.4-8c1.7-6.8,1.8-14.6,10.6-17.2
	c15.7-3,23,3,21.1,19.1c-2.4,21.2,4.6,43-3.6,63.9c-21-3.7-26.3,5.8-25.8,25.6c0.6,26.1,1.6,52.5-4.7,78.3
	c-13.6,4.3-27.6,0.9-41.3,2c-4.4,0.3-7.6-1.6-9.8-5.3c-1.7-2.8-2.3-7.1-4.9-8.5c-29.1-15.5-17.1-40.8-15.8-63.6
	c7.9-0.1,15.8-0.2,23.7-0.3c4.6,3.3,4.1,9.3,6.9,13.5c2.4,3.7,5.9,4.9,10.1,3.7c2.8-0.8,4.2-3,4.5-5.7c0.4-4.3-1.6-7.4-5.7-9
	c-5.3-2.2-11.8-1.4-15.7-6.8c-0.2-13.4-1.6-27.3,19.8-22.8c9.7,2.1,8.9-5.7,8.1-11.3c-0.9-6,4.9-17.5-7.4-16.2
	c-19.2,1.9-19.1-8.8-19.3-22.2c-0.1-9.6,1.1-19.6-3.1-28.9c0.8-0.5,1.2-0.8,1.2-0.8C251.9,271.7,251.5,272.1,250.3,273z"/>
<linearGradient id="SVGID_00000176742177230229170110000009021599162270888632_" gradientUnits="userSpaceOnUse" x1="39.2433" y1="283.9937" x2="202.1842" y2="283.9937">
	<stop  offset="0" style="stop-color:#0075BE"/>
	<stop  offset="0.4333" style="stop-color:#1E9CD7"/>
	<stop  offset="0.8184" style="stop-color:#067DC3"/>
	<stop  offset="0.9944" style="stop-color:#005B97"/>
	<stop  offset="1" style="stop-color:#CCE0F4"/>
</linearGradient>
<path style="fill:url(#SVGID_00000176742177230229170110000009021599162270888632_);" d="M39.4,243.3c21.8,3.5,43.7,1.3,65.5,1.3
	c10.6,0,16.6,2,14.6,13.9c-1.6,9.6,1.2,14.1,12.5,13.5c22.5-1.1,45.2-0.7,67.7-1c4.1,14.4,5,27.2-14.4,31.1
	c-4.2,0.8-6.5,4.4-7.5,8.4c-4.3,18.5-17,16.1-30.3,12.2c-2.8-8.6,6.4-21.8-6-25.7c-10.2-3.2-25.5-5.2-22.1,15.3
	c1.4,8-1.1,12.4-10.6,11.4c-7.1-0.7-15.7,1.7-14-10.2c1.7-11.6-2.6-17.7-15-16.7c-10.3,0.8-14.1-3.7-13.1-13.8
	c0.6-5.7,1.2-13.4-8-12.5c-24.8,2.5-19.4-14.2-18.8-28L39.4,243.3z"/>
<linearGradient id="SVGID_00000072281492160216970600000010930839474043081110_" gradientUnits="userSpaceOnUse" x1="519.5107" y1="264.6785" x2="681.6193" y2="264.6785">
	<stop  offset="0" style="stop-color:#0075BE"/>
	<stop  offset="0.4333" style="stop-color:#1E9CD7"/>
	<stop  offset="0.8184" style="stop-color:#067DC3"/>
	<stop  offset="0.9944" style="stop-color:#005B97"/>
	<stop  offset="1" style="stop-color:#CCE0F4"/>
</linearGradient>
<path style="fill:url(#SVGID_00000072281492160216970600000010930839474043081110_);" d="M520.5,243.5c12,0.4,24,0.4,35.9,1.4
	c12,1.1,19.4-1.3,16.8-15.5c-1.8-9.8,4.4-10.3,11.9-10.1c18.7,0.3,37.4,0.5,56-0.1c9.1-0.3,13.7,1.6,12.6,11.8
	c-0.8,7.2,0.3,14.6-0.3,21.8c-1,12.5-0.5,22.8,17,19c8.8-1.9,11.8,2.6,11.1,11.1c-0.6,8.6-0.1,17.2-0.1,27.2
	c-14.7-4-24.4-14.4-35-22.3c-32.8-24.5-71.1-29.1-109.8-33.5c-6.1-0.7-14,2.8-16.2-6.9c-0.8-0.9-1.1-1.7-0.8-2.6
	C519.9,244,520.2,243.5,520.5,243.5z"/>
<linearGradient id="SVGID_00000182517932649193178790000014101199256123144845_" gradientUnits="userSpaceOnUse" x1="353.9172" y1="123.5771" x2="415.0214" y2="123.5771">
	<stop  offset="0" style="stop-color:#0075BE"/>
	<stop  offset="0.4333" style="stop-color:#1E9CD7"/>
	<stop  offset="0.8184" style="stop-color:#067DC3"/>
	<stop  offset="0.9944" style="stop-color:#005B97"/>
	<stop  offset="1" style="stop-color:#CCE0F4"/>
</linearGradient>
<path style="fill:url(#SVGID_00000182517932649193178790000014101199256123144845_);" d="M411.5,191.3c-7.6-0.2-15.1-0.4-22.7-0.6
	c-4.4-14.2-12.7-24.1-28.8-25.6c-1.7-1.6-2.8-3.5-3.6-5.6c-1.9-16.7-5.9-33.5,4.2-49.2c16.8-4.2,23.6-14.7,22.2-31.8
	c-0.6-7.1,0.8-14.7,7.4-19.6c8.6-6.3,24-2.4,23.8,6.9C413.2,107.6,418.1,149.6,411.5,191.3z"/>
<linearGradient id="SVGID_00000007396838301692119320000007953708504486217663_" gradientUnits="userSpaceOnUse" x1="252.0882" y1="548.6613" x2="305.4201" y2="548.6613">
	<stop  offset="0" style="stop-color:#0075BE"/>
	<stop  offset="0.4333" style="stop-color:#1E9CD7"/>
	<stop  offset="0.8184" style="stop-color:#067DC3"/>
	<stop  offset="0.9944" style="stop-color:#005B97"/>
	<stop  offset="1" style="stop-color:#CCE0F4"/>
</linearGradient>
<path style="fill:url(#SVGID_00000007396838301692119320000007953708504486217663_);" d="M252.5,562.5c0-9.9,0.5-19.9-0.1-29.8
	c-1-14.6-0.8-26.4,20.1-22.7c11.7,2.1,7.2-8.5,7.4-13.9c0.4-7.7-0.5-14,11.1-13.7c11.2,0.3,8.8,7.1,9.2,13.4
	c0.4,6.6-0.3,13.6,1.7,19.7c4.4,13.6,3.8,21.1-14,19.6c-12.9-1.1-6.6,10.1-7.6,16.1c-1,5.8-1.6,12.3,8.3,11.5
	c8.5-0.7,16.7-2.3,16.8,11.9c0.1,13.7-7.1,13.1-16.2,12.5c-12.8-0.8-9.5,9-8.9,15.2c1,11.3-4.1,13.1-13.9,12.8
	c-9.3-0.2-15.3-0.8-14.2-12.8C253.4,589.1,252.5,575.7,252.5,562.5z"/>
<linearGradient id="SVGID_00000070825677677992980140000017741495485994029231_" gradientUnits="userSpaceOnUse" x1="277.8232" y1="177.3788" x2="338.1934" y2="177.3788">
	<stop  offset="0" style="stop-color:#0075BE"/>
	<stop  offset="0.4333" style="stop-color:#1E9CD7"/>
	<stop  offset="0.8184" style="stop-color:#067DC3"/>
	<stop  offset="0.9944" style="stop-color:#005B97"/>
	<stop  offset="1" style="stop-color:#CCE0F4"/>
</linearGradient>
<path style="fill:url(#SVGID_00000070825677677992980140000017741495485994029231_);" d="M279.4,143.9c0.3-1.3,0.5-2.6,0.8-3.9
	c10.3-6.3,21.7-9.8,26-24.5c3.3-11.3,15.8-9.7,25.8-5.3c9.9,14.5,5.3,30.5,4.2,46c-0.5,7.6-6.7,10.7-13.5,12.7
	c-5,1.5-11.1,2.5-10.4,9.8c0.7,7.1,7.3,6.6,12.1,8.3c1.9,0.7,3.7,1.3,5.5,2.3c0.8,0.7,1.5,1.4,2.2,2.2c0,17.4,0,34.8,0,52.2
	c-19.9,7.8-25,5.7-25.6-13c-0.4-10.6-4.1-14.5-14.1-13.1c-11.5,1.6-15.2-3.6-14.5-14.6C279.2,183.3,276.4,163.5,279.4,143.9z"/>
<linearGradient id="SVGID_00000044856992165723676540000005283490535106104725_" gradientUnits="userSpaceOnUse" x1="279.4632" y1="642.0188" x2="384.836" y2="642.0188">
	<stop  offset="0" style="stop-color:#0075BE"/>
	<stop  offset="0.4333" style="stop-color:#1E9CD7"/>
	<stop  offset="0.8184" style="stop-color:#067DC3"/>
	<stop  offset="0.9944" style="stop-color:#005B97"/>
	<stop  offset="1" style="stop-color:#CCE0F4"/>
</linearGradient>
<path style="fill:url(#SVGID_00000044856992165723676540000005283490535106104725_);" d="M332.3,667.8c-4.7,0-9.3,0-14,0
	c-40,0-39.6,0-38.5-40c0.3-9.7,2.9-12.3,12.4-12.2c8.8,0.2,14.1,1.2,12.9,11.7c-1,8-1.5,15.8,11.3,15.4c10.3-0.3,18.1-0.2,17.6-13.9
	c-0.5-13.8,5.9-14.6,15-5.7c9.5,9.3,18.9,18.6,28.1,28.2c3.5,3.7,9.3,7.4,7.3,13.1c-2.4,6.6-9.3,3.1-14.1,3.3
	C357.6,668.1,344.9,667.8,332.3,667.8z"/>
<linearGradient id="SVGID_00000110460521535376513910000014233278403145641103_" gradientUnits="userSpaceOnUse" x1="199.6229" y1="218.6344" x2="252.4771" y2="218.6344">
	<stop  offset="0" style="stop-color:#0075BE"/>
	<stop  offset="0.4333" style="stop-color:#1E9CD7"/>
	<stop  offset="0.8184" style="stop-color:#067DC3"/>
	<stop  offset="0.9944" style="stop-color:#005B97"/>
	<stop  offset="1" style="stop-color:#CCE0F4"/>
</linearGradient>
<path style="fill:url(#SVGID_00000110460521535376513910000014233278403145641103_);" d="M199.6,267.5c0.5-8.3,0.9-16.6,1.4-24.9
	l-0.7,0.7c27.4,3.4,27.4,3.4,27.4-22.6c0-13.9,0.2-27.8-0.1-41.6c-0.2-8.4-0.7-14.8,11.9-14.7c11.3,0.1,13.3,4.2,12.9,13.8
	c-1.4,31.6,2.2,63.3-2,94.9c0,0-0.1-0.2-0.1-0.2c0,0,1.1-1.5,1.1-1.5l-1.8-0.5C233.1,266.4,216,272.3,199.6,267.5z"/>
<linearGradient id="SVGID_00000080164118796014131720000007579628199022842517_" gradientUnits="userSpaceOnUse" x1="385.8808" y1="249.3912" x2="441.1194" y2="249.3912">
	<stop  offset="0" style="stop-color:#0075BE"/>
	<stop  offset="0.4333" style="stop-color:#1E9CD7"/>
	<stop  offset="0.8184" style="stop-color:#067DC3"/>
	<stop  offset="0.9944" style="stop-color:#005B97"/>
	<stop  offset="1" style="stop-color:#CCE0F4"/>
</linearGradient>
<path style="fill:url(#SVGID_00000080164118796014131720000007579628199022842517_);" d="M440.4,219.6c0,11.2-1.6,22.7,0.2,33.7
	c2.8,16.5-7.1,21.9-19.5,26.1c-2.4,0.8-6.9,4.7-7.9-0.6c-3.1-16.6-14.5-7.6-22.9-8.1c-8.1-15.2-2.3-31.4-3.3-47.1
	c-0.3-5,4.3-6.1,8.4-5.9C410.4,218.5,425.6,215.4,440.4,219.6z"/>
<linearGradient id="SVGID_00000097501565254808211940000017035002453889566878_" gradientUnits="userSpaceOnUse" x1="305.3713" y1="74.2596" x2="360.5505" y2="74.2596">
	<stop  offset="0" style="stop-color:#0075BE"/>
	<stop  offset="0.4333" style="stop-color:#1E9CD7"/>
	<stop  offset="0.8184" style="stop-color:#067DC3"/>
	<stop  offset="0.9944" style="stop-color:#005B97"/>
	<stop  offset="1" style="stop-color:#CCE0F4"/>
</linearGradient>
<path style="fill:url(#SVGID_00000097501565254808211940000017035002453889566878_);" d="M360.6,32.1c-0.1,25.4-0.1,50.7-0.2,76.1
	c-5.6,9-13.7,9.6-22.8,6.3c-2.6-1.7-4.6-4.2-7-6.1c-3.3-4.8-3-11.1-6.8-15.7c-16.2-4.2-20.5-15.3-17.6-30.3
	c5.2-9.3,24.1-5.5,21.7-22.2c0.4-1.8,1.1-3.6,2-5.2c0.7-0.7,1.3-1.3,2-2C341.4,32.7,351,32.4,360.6,32.1z"/>
<linearGradient id="SVGID_00000035523947939939907410000005494826184646312111_" gradientUnits="userSpaceOnUse" x1="360.0609" y1="31.6487" x2="442.2674" y2="31.6487">
	<stop  offset="0" style="stop-color:#0075BE"/>
	<stop  offset="0.4333" style="stop-color:#1E9CD7"/>
	<stop  offset="0.8184" style="stop-color:#067DC3"/>
	<stop  offset="0.9944" style="stop-color:#005B97"/>
	<stop  offset="1" style="stop-color:#CCE0F4"/>
</linearGradient>
<path style="fill:url(#SVGID_00000035523947939939907410000005494826184646312111_);" d="M440.7,56.5c-13.2,0.6-31,9.1-27.7-17.2
	c1.1-8.5-6.3-6.6-11.1-6.6c-13.9-0.2-27.9-0.1-41.8-0.1C360.5,7,360.5,7,386.6,7c1.3,0,2.7-0.1,4,0c16.3,1.4,38-7.3,47.3,3.6
	C446,19.9,440.3,40.7,440.7,56.5z"/>
<linearGradient id="SVGID_00000180362648244036866680000006293371793316287140_" gradientUnits="userSpaceOnUse" x1="93.9077" y1="376.6277" x2="145.5022" y2="376.6277">
	<stop  offset="0" style="stop-color:#0075BE"/>
	<stop  offset="0.4333" style="stop-color:#1E9CD7"/>
	<stop  offset="0.8184" style="stop-color:#067DC3"/>
	<stop  offset="0.9944" style="stop-color:#005B97"/>
	<stop  offset="1" style="stop-color:#CCE0F4"/>
</linearGradient>
<path style="fill:url(#SVGID_00000180362648244036866680000006293371793316287140_);" d="M144.3,372.2c0,30.9,0,30.9-25.6,30.9
	c-23.8,0-21.5-0.2-24.5-29.9c-2.7-26.3,12.7-21,28.2-22.8C145.7,347.8,147.5,359.6,144.3,372.2z"/>
<linearGradient id="SVGID_00000106831050016238600950000011323805953409211315_" gradientUnits="userSpaceOnUse" x1="39.2984" y1="416.9189" x2="66.4185" y2="416.9189">
	<stop  offset="0" style="stop-color:#0075BE"/>
	<stop  offset="0.4333" style="stop-color:#1E9CD7"/>
	<stop  offset="0.8184" style="stop-color:#067DC3"/>
	<stop  offset="0.9944" style="stop-color:#005B97"/>
	<stop  offset="1" style="stop-color:#CCE0F4"/>
</linearGradient>
<path style="fill:url(#SVGID_00000106831050016238600950000011323805953409211315_);" d="M66,415.6c0,7.9-0.6,15.8,0.1,23.6
	c1,11-1,16.4-14.5,16.5c-14,0-12.4-7.5-12.3-16.2c0.2-15.8,0.4-31.5-0.1-47.3c-0.2-8.7-0.2-14.8,12-14.2
	c10.4,0.5,16.3,1.8,14.8,13.9C65.3,399.8,66,407.8,66,415.6z"/>
<linearGradient id="SVGID_00000119813687766095878320000015346367572970679482_" gradientUnits="userSpaceOnUse" x1="226.7776" y1="72.7125" x2="252.4175" y2="72.7125">
	<stop  offset="0" style="stop-color:#0075BE"/>
	<stop  offset="0.4333" style="stop-color:#1E9CD7"/>
	<stop  offset="0.8184" style="stop-color:#067DC3"/>
	<stop  offset="0.9944" style="stop-color:#005B97"/>
	<stop  offset="1" style="stop-color:#CCE0F4"/>
</linearGradient>
<path style="fill:url(#SVGID_00000119813687766095878320000015346367572970679482_);" d="M252.2,112.2c-22.7,2.9-27.4-8.8-24.8-28.4
	c1.6-12.4,0.8-25.1,0.1-37.6c-0.5-9.9,2.1-13.7,13.1-13.5c10.3,0.2,12.1,4,11.8,12.8c-0.6,22.5-0.5,44.9-0.7,67.4L252.2,112.2z"/>
<linearGradient id="SVGID_00000078730654122314536310000010396159899098182050_" gradientUnits="userSpaceOnUse" x1="279.9919" y1="33.1059" x2="332.3466" y2="33.1059">
	<stop  offset="0" style="stop-color:#0075BE"/>
	<stop  offset="0.4333" style="stop-color:#1E9CD7"/>
	<stop  offset="0.8184" style="stop-color:#067DC3"/>
	<stop  offset="0.9944" style="stop-color:#005B97"/>
	<stop  offset="1" style="stop-color:#CCE0F4"/>
</linearGradient>
<path style="fill:url(#SVGID_00000078730654122314536310000010396159899098182050_);" d="M280,56.4c0-7.3,0.2-14.6,0.1-21.9
	C279.8,7,279.8,7,308.4,7c24.7,0,24.7,0,23.4,26c0,0,0.5-0.8,0.5-0.8c-9.4,6.8-22.8,6.9-27.5,22.1C302.4,62.2,288.8,58.9,280,56.4z"
	/>
<linearGradient id="SVGID_00000091009054810401712870000008938106167206190475_" gradientUnits="userSpaceOnUse" x1="440.3909" y1="178.4367" x2="465.2571" y2="178.4367">
	<stop  offset="0" style="stop-color:#0075BE"/>
	<stop  offset="0.4333" style="stop-color:#1E9CD7"/>
	<stop  offset="0.8184" style="stop-color:#067DC3"/>
	<stop  offset="0.9944" style="stop-color:#005B97"/>
	<stop  offset="1" style="stop-color:#CCE0F4"/>
</linearGradient>
<path style="fill:url(#SVGID_00000091009054810401712870000008938106167206190475_);" d="M464.4,140c0.2,21.9,0.1,43.8,0.8,65.6
	c0.3,8.6-2.5,11.6-11.3,11.2c-8-0.4-14,0.1-13.5-11.1c0.9-21.8,0.5-43.8,0.6-65.6C448.9,140.1,456.6,140,464.4,140z"/>
<linearGradient id="SVGID_00000148654903986311780260000016812285105390711742_" gradientUnits="userSpaceOnUse" x1="440.4584" y1="86.1889" x2="465.8326" y2="86.1889">
	<stop  offset="0" style="stop-color:#0075BE"/>
	<stop  offset="0.4333" style="stop-color:#1E9CD7"/>
	<stop  offset="0.8184" style="stop-color:#067DC3"/>
	<stop  offset="0.9944" style="stop-color:#005B97"/>
	<stop  offset="1" style="stop-color:#CCE0F4"/>
</linearGradient>
<path style="fill:url(#SVGID_00000148654903986311780260000016812285105390711742_);" d="M440.7,60.5c7.9,2.3,21.1-4.4,23.2,4.2
	c3.3,13.7,1.7,29,0.1,43.3c-0.7,6-8.9,3.7-14,3.8c-6.4,0.1-9.7-3-9.5-9.7c0.3-13.9,0.3-27.8,0.3-41.7
	C440.8,60.4,440.7,60.5,440.7,60.5z"/>
<linearGradient id="SVGID_00000123425366235704116240000009002641786717871786_" gradientUnits="userSpaceOnUse" x1="468.043" y1="231.6697" x2="521.1061" y2="231.6697">
	<stop  offset="0" style="stop-color:#0075BE"/>
	<stop  offset="0.4333" style="stop-color:#1E9CD7"/>
	<stop  offset="0.8184" style="stop-color:#067DC3"/>
	<stop  offset="0.9944" style="stop-color:#005B97"/>
	<stop  offset="1" style="stop-color:#CCE0F4"/>
</linearGradient>
<path style="fill:url(#SVGID_00000123425366235704116240000009002641786717871786_);" d="M521.1,243.6c-12.6,0-25.2-0.4-37.7,0.3
	c-10,0.5-15.4-0.5-15.4-13.1c0-12.7,6.9-11.4,15-11.2c12.6,0.3,25.1,0.3,37.7,0.5C520.8,227.9,521,235.7,521.1,243.6z"/>
<linearGradient id="SVGID_00000083072647830834079910000000440166860639407799_" gradientUnits="userSpaceOnUse" x1="174.5876" y1="443.1766" x2="224.0965" y2="443.1766">
	<stop  offset="0" style="stop-color:#0075BE"/>
	<stop  offset="0.4333" style="stop-color:#1E9CD7"/>
	<stop  offset="0.8184" style="stop-color:#067DC3"/>
	<stop  offset="0.9944" style="stop-color:#005B97"/>
	<stop  offset="1" style="stop-color:#CCE0F4"/>
</linearGradient>
<path style="fill:url(#SVGID_00000083072647830834079910000000440166860639407799_);" d="M223.7,430.6c1.2,24.5,1.1,22.8-29,25
	c-23,1.6-21.1-10.4-18.9-25C191.8,430.6,207.8,430.6,223.7,430.6z"/>
<linearGradient id="SVGID_00000173839781556432239650000017601269879474839439_" gradientUnits="userSpaceOnUse" x1="331.9528" y1="256.9899" x2="360.9363" y2="256.9899">
	<stop  offset="0" style="stop-color:#0075BE"/>
	<stop  offset="0.4333" style="stop-color:#1E9CD7"/>
	<stop  offset="0.8184" style="stop-color:#067DC3"/>
	<stop  offset="0.9944" style="stop-color:#005B97"/>
	<stop  offset="1" style="stop-color:#CCE0F4"/>
</linearGradient>
<path style="fill:url(#SVGID_00000173839781556432239650000017601269879474839439_);" d="M336.3,270.9c-8.1-8.2-1.6-18.7-4.4-27.7
	c4.6,0.5,9.2,1.4,13.8,1.3c8.3-0.1,15.3-1.1,15.2,11.5c-0.1,11.5-3.7,15.4-14.8,14C343,269.5,339.6,270.5,336.3,270.9z"/>
<linearGradient id="SVGID_00000161589850932984923160000012759571087755213985_" gradientUnits="userSpaceOnUse" x1="327.7879" y1="176.8157" x2="364.8952" y2="176.8157">
	<stop  offset="0" style="stop-color:#0075BE"/>
	<stop  offset="0.4333" style="stop-color:#1E9CD7"/>
	<stop  offset="0.8184" style="stop-color:#067DC3"/>
	<stop  offset="0.9944" style="stop-color:#005B97"/>
	<stop  offset="1" style="stop-color:#CCE0F4"/>
</linearGradient>
<path style="fill:url(#SVGID_00000161589850932984923160000012759571087755213985_);" d="M360,163.6c0.4,1.4,0.8,2.8,1.2,4.1
	c4.7,6.8,4.8,13.9,1.4,21.2c-0.8,0.7-1.5,1.5-2.3,2.2c-9.4,0.1-18.7,0.1-28.1,0.2c0,0,0.3,0.6,0.3,0.6c-9.4-21.5-5.3-27.3,21.6-30.4
	c2.4,0,4.7,0.8,6.6,2.2C360.6,163.8,360,163.6,360,163.6z"/>
<linearGradient id="SVGID_00000063607330242756777390000003119149870337724296_" gradientUnits="userSpaceOnUse" x1="279.133" y1="98.6708" x2="306.3272" y2="98.6708">
	<stop  offset="0" style="stop-color:#0075BE"/>
	<stop  offset="0.4333" style="stop-color:#1E9CD7"/>
	<stop  offset="0.8184" style="stop-color:#067DC3"/>
	<stop  offset="0.9944" style="stop-color:#005B97"/>
	<stop  offset="1" style="stop-color:#CCE0F4"/>
</linearGradient>
<path style="fill:url(#SVGID_00000063607330242756777390000003119149870337724296_);" d="M305,108c-7,8.7-16,1.6-23.9,3
	c-5.9-20.2,2.1-28.3,22.6-25.5C308.1,92.7,305.9,100.4,305,108z"/>
<linearGradient id="SVGID_00000035520119586460027480000010659041100879556230_" gradientUnits="userSpaceOnUse" x1="279.6328" y1="260.0046" x2="303.8371" y2="260.0046">
	<stop  offset="0" style="stop-color:#0075BE"/>
	<stop  offset="0.4333" style="stop-color:#1E9CD7"/>
	<stop  offset="0.8184" style="stop-color:#067DC3"/>
	<stop  offset="0.9944" style="stop-color:#005B97"/>
	<stop  offset="1" style="stop-color:#CCE0F4"/>
</linearGradient>
<path style="fill:url(#SVGID_00000035520119586460027480000010659041100879556230_);" d="M302.8,270.6c-7.5,7.7-15.3,6.1-23.2,0.6
	c0,0,0.6,0.4,0.6,0.4c-0.9-26.7-0.9-26.7,23.6-27.5"/>
<linearGradient id="SVGID_00000059989784062431414730000002632101877490635157_" gradientUnits="userSpaceOnUse" x1="39.105" y1="311.4141" x2="65.5555" y2="311.4141">
	<stop  offset="0" style="stop-color:#0075BE"/>
	<stop  offset="0.4333" style="stop-color:#1E9CD7"/>
	<stop  offset="0.8184" style="stop-color:#067DC3"/>
	<stop  offset="0.9944" style="stop-color:#005B97"/>
	<stop  offset="1" style="stop-color:#CCE0F4"/>
</linearGradient>
<path style="fill:url(#SVGID_00000059989784062431414730000002632101877490635157_);" d="M52.7,322.9c-13.1,3.1-13-4-13.5-12.9
	c-0.6-10.7,4.5-12.2,12.8-11c5.8,0.9,16.2-4.2,13,9.5C63.2,316.2,67,328.1,52.7,322.9z"/>
<linearGradient id="SVGID_00000052070978338614227930000008807507754599670713_" gradientUnits="userSpaceOnUse" x1="251.6886" y1="125.0707" x2="280.4542" y2="125.0707">
	<stop  offset="0" style="stop-color:#0075BE"/>
	<stop  offset="0.4333" style="stop-color:#1E9CD7"/>
	<stop  offset="0.8184" style="stop-color:#067DC3"/>
	<stop  offset="0.9944" style="stop-color:#005B97"/>
	<stop  offset="1" style="stop-color:#CCE0F4"/>
</linearGradient>
<path style="fill:url(#SVGID_00000052070978338614227930000008807507754599670713_);" d="M279.7,112.4c-1.5,10.7,8.4,27.6-15.9,25.4
	c-14.7-1.3-4.9-14.3-11.4-18.9c-0.1-2.2-0.1-4.5-0.2-6.7c0,0-0.5,0.6-0.5,0.6C261,112.7,270.4,112.5,279.7,112.4z"/>
<linearGradient id="SVGID_00000097487565242383605510000007627939607038468507_" gradientUnits="userSpaceOnUse" x1="360.0829" y1="201.7682" x2="384.7863" y2="201.7682">
	<stop  offset="0" style="stop-color:#0075BE"/>
	<stop  offset="0.4333" style="stop-color:#1E9CD7"/>
	<stop  offset="0.8184" style="stop-color:#067DC3"/>
	<stop  offset="0.9944" style="stop-color:#005B97"/>
	<stop  offset="1" style="stop-color:#CCE0F4"/>
</linearGradient>
<path style="fill:url(#SVGID_00000097487565242383605510000007627939607038468507_);" d="M384.2,192.2c1.6,25.7,1.6,25.7-23.9,23.4
	c0-8.1,0-16.3-0.1-24.4c0,0-0.1,0.8-0.1,0.8C368.2,185.5,376.2,185.2,384.2,192.2z"/>
<linearGradient id="SVGID_00000003802442498942039320000000529663783904747921_" gradientUnits="userSpaceOnUse" x1="174.5399" y1="231.9406" x2="200.9941" y2="231.9406">
	<stop  offset="0" style="stop-color:#0075BE"/>
	<stop  offset="0.4333" style="stop-color:#1E9CD7"/>
	<stop  offset="0.8184" style="stop-color:#067DC3"/>
	<stop  offset="0.9944" style="stop-color:#005B97"/>
	<stop  offset="1" style="stop-color:#CCE0F4"/>
</linearGradient>
<path style="fill:url(#SVGID_00000003802442498942039320000000529663783904747921_);" d="M201,242.6c-9.6-1.4-24.7,10.8-26.3-10.4
	c-0.6-7.9,0.6-13.7,11.5-13.1c9,0.5,15.7,0.8,13.7,12.4c-0.6,3.8,0.2,7.8,0.4,11.7C200.3,243.3,201,242.6,201,242.6z"/>
<linearGradient id="SVGID_00000042736160142533682570000010201267996197324416_" gradientUnits="userSpaceOnUse" x1="174.2861" y1="390.739" x2="200.111" y2="390.739">
	<stop  offset="0" style="stop-color:#0075BE"/>
	<stop  offset="0.4333" style="stop-color:#1E9CD7"/>
	<stop  offset="0.8184" style="stop-color:#067DC3"/>
	<stop  offset="0.9944" style="stop-color:#005B97"/>
	<stop  offset="1" style="stop-color:#CCE0F4"/>
</linearGradient>
<path style="fill:url(#SVGID_00000042736160142533682570000010201267996197324416_);" d="M188,402.8c-11,2.5-13.7-2.7-13.7-11.6
	c0-8.4,1.5-13.7,12.2-13.2c10.1,0.4,13.9,3.5,13.7,14C199.9,401.8,196.7,405.3,188,402.8z"/>
<linearGradient id="SVGID_00000068666181365470004420000015681516389570352792_" gradientUnits="userSpaceOnUse" x1="119.2509" y1="442.8005" x2="144.5896" y2="442.8005">
	<stop  offset="0" style="stop-color:#0075BE"/>
	<stop  offset="0.4333" style="stop-color:#1E9CD7"/>
	<stop  offset="0.8184" style="stop-color:#067DC3"/>
	<stop  offset="0.9944" style="stop-color:#005B97"/>
	<stop  offset="1" style="stop-color:#CCE0F4"/>
</linearGradient>
<path style="fill:url(#SVGID_00000068666181365470004420000015681516389570352792_);" d="M132.5,454.7c-12.9,3-12.7-4.2-13.2-13
	c-0.6-10.5,4.2-11,12.7-11.5c11.5-0.7,12.6,4.5,12.6,13.8C144.6,453.8,141.1,457.2,132.5,454.7z"/>
<linearGradient id="SVGID_00000016793858742655449780000000486964057819612335_" gradientUnits="userSpaceOnUse" x1="14.3392" y1="232.0547" x2="40.1397" y2="232.0547">
	<stop  offset="0" style="stop-color:#0075BE"/>
	<stop  offset="0.4333" style="stop-color:#1E9CD7"/>
	<stop  offset="0.8184" style="stop-color:#067DC3"/>
	<stop  offset="0.9944" style="stop-color:#005B97"/>
	<stop  offset="1" style="stop-color:#CCE0F4"/>
</linearGradient>
<path style="fill:url(#SVGID_00000016793858742655449780000000486964057819612335_);" d="M40.1,242.6c-8.7-2.1-23.2,11.5-25.4-8.7
	c-0.8-7.8-1.8-14.6,11-14.9c22.7-0.6,10.1,15.8,13.6,24.3C39.4,243.3,40.1,242.6,40.1,242.6z"/>
<linearGradient id="SVGID_00000110436553856264575020000017124755936837410459_" gradientUnits="userSpaceOnUse" x1="227.2925" y1="654.1895" x2="252.6522" y2="654.1895">
	<stop  offset="0" style="stop-color:#0075BE"/>
	<stop  offset="0.4333" style="stop-color:#1E9CD7"/>
	<stop  offset="0.8184" style="stop-color:#067DC3"/>
	<stop  offset="0.9944" style="stop-color:#005B97"/>
	<stop  offset="1" style="stop-color:#CCE0F4"/>
</linearGradient>
<path style="fill:url(#SVGID_00000110436553856264575020000017124755936837410459_);" d="M252,653.9c1.5,8.8-0.6,13.2-11,13
	c-9.6-0.2-14.4-1.6-13.7-12.7c0.5-8.2,0.7-13.2,11.5-12.6C248,642,254.8,642.4,252,653.9z"/>
<path class="st35" d="M584,427.3c0.1,60.4-47.7,109.5-106.4,109.5c-64.6-0.1-112.2-46.3-112.2-108.9c0-60.2,48.8-108.4,109.7-108.5
	C533.7,319.3,583.9,369,584,427.3z"/>
<path class="st36" d="M583,165.4c-17.6-1.7-46.7,9.3-58.8-4.1c-10.7-11.8-3.1-40.2-3.3-61.3c-0.2-18.5,0.5-37-0.2-55.5
	c-0.4-9.7,2.9-12.2,12.4-12.1c36,0.5,72,0.5,108,0c9.4-0.1,12.6,2.4,12.5,12.1c-0.5,36.4-0.6,72.7,0,109.1
	c0.2,10-3.2,12.3-12.5,11.9C623.1,165,605.1,165.4,583,165.4z"/>
<path class="st36" d="M175.1,100.1c0,17.2-0.5,34.5,0.2,51.7c0.4,10-2.1,14.1-13.1,13.9c-36.8-0.6-73.5-0.7-110.3,0
	c-11.4,0.2-12.9-4.3-12.8-13.9c0.5-35.1,0.7-70.3-0.1-105.4c-0.3-11.9,4.2-14.1,15-13.9c35.4,0.6,70.9,0.9,106.3-0.1
	c13.2-0.4,15.7,4.5,15.1,16C174.4,65.6,175.1,82.9,175.1,100.1z"/>
<path class="st36" d="M39.3,575.8c0-15.9,1.1-31.9-0.3-47.6c-1.5-16.1,2.9-21.9,20.2-20.9c33.3,1.9,66.7,1.7,100,1.8
	c10,0,15.8,1.1,15.6,13.7c-0.6,35.7-0.2,71.4,0.5,107.1c0.2,9.7-3,12.3-12.4,12.2c-37.4-0.5-74.7-0.6-112.1,0
	c-10.4,0.2-12-4-11.7-12.8C39.7,611.5,39.3,593.7,39.3,575.8z"/>
<linearGradient id="SVGID_00000114785080440458045910000011506516663666546093_" gradientUnits="userSpaceOnUse" x1="227.4754" y1="470.1185" x2="252.4387" y2="470.1185">
	<stop  offset="0" style="stop-color:#0075BE"/>
	<stop  offset="0.4333" style="stop-color:#1E9CD7"/>
	<stop  offset="0.8184" style="stop-color:#067DC3"/>
	<stop  offset="0.9944" style="stop-color:#005B97"/>
	<stop  offset="1" style="stop-color:#CCE0F4"/>
</linearGradient>
<path style="fill:url(#SVGID_00000114785080440458045910000011506516663666546093_);" d="M251.9,470.7c2.1,9.8-2.1,12.2-11.7,12.7
	c-11.7,0.6-12.6-4.8-12.7-14c-0.2-9.2,2.2-12.3,12.1-12.6C251.1,456.6,253.7,461.2,251.9,470.7z"/>
<linearGradient id="SVGID_00000153691677361113531930000004934575204048479638_" gradientUnits="userSpaceOnUse" x1="174.8118" y1="324.0449" x2="224.8214" y2="324.0449">
	<stop  offset="0" style="stop-color:#0075BE"/>
	<stop  offset="0.4333" style="stop-color:#1E9CD7"/>
	<stop  offset="0.8184" style="stop-color:#067DC3"/>
	<stop  offset="0.9944" style="stop-color:#005B97"/>
	<stop  offset="1" style="stop-color:#CCE0F4"/>
</linearGradient>
<path style="fill:url(#SVGID_00000153691677361113531930000004934575204048479638_);" d="M223.9,299.1c0.3,4.6,0.8,9.1,0.9,13.7
	c0.3,37.8,0.3,37.7-37.8,36c-7.2-0.3-12.9-0.1-12.1-10.1c0.7-8.3-0.1-15.9,12.3-14.5c5.1,0.6,13.9,2.7,12.3-7.2
	C195.8,294.4,211.5,299.3,223.9,299.1L223.9,299.1z"/>
<linearGradient id="SVGID_00000052822771890776614600000010664751229815969421_" gradientUnits="userSpaceOnUse" x1="548.675" y1="98.9731" x2="625.8073" y2="98.9731">
	<stop  offset="0" style="stop-color:#0075BE"/>
	<stop  offset="0.4333" style="stop-color:#1E9CD7"/>
	<stop  offset="0.8184" style="stop-color:#067DC3"/>
	<stop  offset="0.9944" style="stop-color:#005B97"/>
	<stop  offset="1" style="stop-color:#CCE0F4"/>
</linearGradient>
<path style="fill:url(#SVGID_00000052822771890776614600000010664751229815969421_);" d="M586.9,60.6c38.9,0,38.9,0,38.9,38.9
	c0,37.8,0,37.8-38.3,37.8c-38.9,0-38.9,0-38.9-39.1C548.7,60.6,548.7,60.6,586.9,60.6z"/>
<linearGradient id="SVGID_00000178892421472630775720000016936626408441318291_" gradientUnits="userSpaceOnUse" x1="67.2166" y1="98.9725" x2="144.2763" y2="98.9725">
	<stop  offset="0" style="stop-color:#0075BE"/>
	<stop  offset="0.4333" style="stop-color:#1E9CD7"/>
	<stop  offset="0.8184" style="stop-color:#067DC3"/>
	<stop  offset="0.9944" style="stop-color:#005B97"/>
	<stop  offset="1" style="stop-color:#CCE0F4"/>
</linearGradient>
<path style="fill:url(#SVGID_00000178892421472630775720000016936626408441318291_);" d="M144.3,98.4c0,38.9,0,38.9-39.1,38.9
	c-37.9,0-37.9,0-37.9-38c0-38.7,0-38.7,39-38.7C144.3,60.6,144.3,60.6,144.3,98.4z"/>
<linearGradient id="SVGID_00000107566734354529961240000014326772830660192956_" gradientUnits="userSpaceOnUse" x1="67.2105" y1="574.9628" x2="144.2848" y2="574.9628">
	<stop  offset="0" style="stop-color:#0075BE"/>
	<stop  offset="0.4333" style="stop-color:#1E9CD7"/>
	<stop  offset="0.8184" style="stop-color:#067DC3"/>
	<stop  offset="0.9944" style="stop-color:#005B97"/>
	<stop  offset="1" style="stop-color:#CCE0F4"/>
</linearGradient>
<path style="fill:url(#SVGID_00000107566734354529961240000014326772830660192956_);" d="M67.2,572.8c0-37.2,0-37.2,36.7-37.2
	c40.4,0,40.4,0,40.4,39.8c0,38.8,0,38.8-36.9,38.8C67.2,614.3,67.2,614.3,67.2,572.8z"/>
</svg>
