<?xml version="1.0" encoding="utf-8"?>
<!-- Generator: Adobe Illustrator 26.0.1, SVG Export Plug-In . SVG Version: 6.00 Build 0)  -->
<svg version="1.1" id="Layer_1" xmlns="http://www.w3.org/2000/svg" xmlns:xlink="http://www.w3.org/1999/xlink" x="0px" y="0px"
	 viewBox="0 0 720 720" style="enable-background:new 0 0 720 720;" xml:space="preserve">
<style type="text/css">
	.st0{fill:url(#SVGID_1_);}
	.st1{fill:#FEFEFE;}
	.st2{fill:#E6E6E6;}
	.st3{fill:url(#SVGID_00000142893075182780671480000003216754333448505009_);}
	.st4{fill:url(#SVGID_00000060017622754239983550000009935535464011618741_);}
	.st5{fill:url(#SVGID_00000090254421799206038900000011188280230845707419_);}
	.st6{fill:url(#SVGID_00000021822550486604111120000004441508897657262522_);}
	.st7{fill:url(#SVGID_00000155143416322969247010000005717334802207668385_);}
	.st8{fill:url(#SVGID_00000170959941557392423260000005160433487102677653_);}
	.st9{fill:url(#SVGID_00000067957410441106787390000005161311645749920148_);}
	.st10{fill:url(#SVGID_00000016795626471126813810000006224633296285321633_);}
	.st11{fill:url(#SVGID_00000163030378377867719350000002787958431658662288_);}
	.st12{fill:url(#SVGID_00000114791005150091743460000013435439529441344933_);}
</style>
<g>
	<linearGradient id="SVGID_1_" gradientUnits="userSpaceOnUse" x1="38.1361" y1="360.9807" x2="683.1921" y2="360.9807">
		<stop  offset="2.551656e-02" style="stop-color:#1E9CD7"/>
		<stop  offset="0.3065" style="stop-color:#0075BE"/>
		<stop  offset="0.9944" style="stop-color:#005B97"/>
		<stop  offset="1" style="stop-color:#CCE0F4"/>
	</linearGradient>
	<path class="st0" d="M70.4,565.7c-8.9-12-10.6-24.7-10.6-38.2C60,428.7,60,330,59.9,231.3c0-8.4,1-16.6,4.6-24.3
		c9.1-19.6,25.4-29.1,46.1-30c23.2-1,46.5-0.4,69.7-0.2c4.1,0,5.5-1.3,7.2-5c7.3-15.4,13.4-31.6,24.2-45.1
		c28.9-36.4,65.7-60.1,111.6-69.1c45.1-8.8,88-2.6,128.5,19.5c17.5,9.6,32.9,21.5,46.4,36.1c14.8,16,25.8,34,33.2,54.4
		c2.3,6.4,5.7,9.6,13.6,9.3c20-0.8,40.1,0,60.1-0.3c32.5-0.5,56.7,22.3,56.5,56c-0.7,97.2-0.3,194.5-0.2,291.7
		c0,14.5-0.7,28.5-10.8,41.3c7.1,0,13,0,18.9,0c10.1,0,13.5,3.3,13.6,13.3c0,11.9-0.2,23.9,0.1,35.8c0.7,30.7-23.1,51.6-51.3,53.2
		c-1.9,0.1-3.8,0.1-5.8,0.1c-177,0-354,0-531,0.1c-19.3,0-35.3-6.5-47.3-21.7c-6.5-8.3-9.4-18.1-9.5-28.6c-0.1-13.4-0.1-26.9,0-40.3
		c0.1-7.9,3.8-11.7,11.8-11.8C56.4,565.7,62.8,565.7,70.4,565.7z"/>
	<path class="st1" d="M477.7,524.8c-2.8,0-4.9,0-7,0c-113.2,0-226.4,0-339.7,0.1c-5.6,0-7.3-1.2-7.3-7.1c0.2-91,0.2-182.1,0-273.1
		c0-5.1,0.9-6.9,6.4-6.7c14.3,0.5,28.6,0.3,42.9,0c4.2-0.1,5.4,1.3,5.7,5.3c0.7,13.2,2.9,26.4,7.9,38.6c6.9,17,14.3,34,25.8,48.5
		c14.5,18.2,31.4,34,51.7,45.5c41,23.3,85,31.4,131.7,22.7c7.8-1.4,15.4-3.2,22.8-5.9c2.8-1,3.8-0.3,5.5,2
		c9.3,12.4,15.8,26.5,24,39.5c2.2,3.5,1.5,4.7-1.9,6.6c-11.7,6.6-12.3,9.8-5.8,21.3C452.4,482.9,466.4,502.3,477.7,524.8z"/>
	<path class="st1" d="M360.4,647.6c-88.9,0-177.9,0-266.8,0c-18,0-31.4-10.1-33.2-26.2c-1.2-10.7-0.4-21.7-0.5-32.6
		c0-1.8,0.5-2.8,2.5-2.7c1.3,0.1,2.6,0,3.8,0c74.6,0,149.3,0.1,223.9-0.1c5.2,0,6.7,1,6.6,6.4c-0.3,22.6,11.9,34.6,34.7,34.6
		c19.6,0,39.2,0,58.9,0c22.1-0.1,34.4-12.3,34.1-34.5c-0.1-5.3,1.2-6.6,6.5-6.6c26.9,0.3,53.7,0.2,80.6,0.1c3.1,0,5.5,0.4,7.9,2.9
		c15.6,16.5,41.1,21,61.7,11.6c6.7-3.1,12.8-6.7,17.5-12.4c1.4-1.7,2.9-2.2,4.9-2.2c17.9,0.1,35.8,0.2,53.7-0.1c3.7,0,4.1,1.4,4,4.4
		c-0.2,8.3,0,16.6-0.1,24.9c-0.1,18.8-12.7,31.6-31.6,32.1c-4.7,0.1-9.4,0-14.1,0C530.6,647.6,445.5,647.6,360.4,647.6z"/>
	<path class="st1" d="M198.4,231.3c0.4-25.3,4.1-46.7,14-66.4c12.5-24.7,29.5-46.2,53-61.3c50-32.2,103-38.6,158.8-16.6
		c19.6,7.7,36.5,19.3,51.9,33.8c11.8,11.2,20.4,24.2,28.1,38.1c23.4,42.6,23.2,86.4,4.5,129.9c-11,25.6-29,47-52.3,62.5
		c-49.9,33.2-103.4,39.9-159.8,18.1c-18.8-7.3-35.3-18.1-50.2-31.9c-12.2-11.3-21-24.7-29.7-38.6C203.2,277.1,199.7,253,198.4,231.3
		z"/>
	<path class="st1" d="M596.8,513.6c-11.4-16.8-21.1-34.5-31.8-51.6c-10.2-16.1-19.6-32.6-29.3-48.9c-1.9-3.2-4.3-6.2-6.9-8.8
		c-4.5-4.6-9.4-3.7-14.5-0.6c-8.4,5-7.2,5-12.2-3.2c-7.7-12.6-13.8-26.2-22.9-38c-1-1.3-0.7-1.7,0.6-2.8
		c23.6-19.6,40.9-43.6,52.3-72.3c5.7-14.4,9-28.9,10.5-44c0.4-3.8,1.3-5.4,5.7-5.3c14.9,0.3,29.8,0.2,44.8,0.1c2.9,0,4.5,0.2,4.5,4
		c-0.1,90.1-0.1,180.3-0.1,270.4C597.3,512.8,597,513.2,596.8,513.6z"/>
	<path class="st1" d="M502.9,565.7c-3.2,0-5.5,0-7.9,0c-125.4,0-250.8-0.2-376.2,0.2c-17.2,0.1-28.8-6.6-36.7-21
		c-2-3.7-1.8-8.2-1.8-12.5c0-72.1,0-144.2,0-216.2c0-28.8,0.5-57.6-0.2-86.4c-0.3-15.3,15.7-33,31.6-32.7c21.5,0.4,43.1,0.2,64.6,0
		c3.9,0,4.2,1.6,3.5,4.5c-0.2,0.8-0.3,1.7-0.5,2.5c-1.1,4.3,1,10.8-2.2,12.7c-3.6,2.2-9.5,0.8-14.4,0.8c-15.6,0-31.1,0-46.7,0
		c-10.9,0-14.1,3.2-14.1,14.1c0,99.4,0,198.7,0,298.1c0,12.5,2.8,15.4,15.3,15.4c122.4,0,244.8,0,367.2-0.1c5,0,7.8,1.4,9.8,5.8
		C496.8,555.7,499.7,560.2,502.9,565.7z"/>
	<path class="st1" d="M559.6,585.1c-14-0.2-23.5-6.5-30.1-16.7c-6.9-10.7-12.3-22.4-19.4-33c-10.3-15.3-18.3-31.9-28.5-47.1
		c-6.3-9.3-11.4-19.2-17.5-28.5c-1.7-2.7-1.7-4.1,1.4-5.8c16.6-8.9,33.2-18,49.6-27.2c3.6-2,4,0.8,5,2.6
		c11.9,20.7,24.7,40.9,37.1,61.4c9,14.8,17.3,30,26.8,44.5c3.3,5,6.2,9.7,7.1,15.7C594.1,569.7,574.3,586.3,559.6,585.1z"/>
	<path class="st1" d="M611.7,551.6c-0.6-3.7-1.5-6.9,3.5-9.1c4.1-1.8,4-6.5,4-10.7c0-49.7,0-99.4,0-149c0-50.3,0-100.6,0-151
		c0-10.8-3.2-14.1-14-14.1c-19-0.1-38-0.2-56.9,0.1c-4.3,0.1-5.7-1.3-5.6-5.3c0-1.9-0.1-3.8-0.4-5.7c-1.1-9.5-1.1-9.5,8.2-9.5
		c18.8,0,37.5-0.1,56.3,0c16,0.1,25.5,7.1,31.8,21.9c1.9,4.5,2.4,8.7,2.4,13.3c0,100,0,200,0.1,300c0,12-10.2,27.4-20.5,31
		c-9.4,3.2-9.7,3.3-8.8-6.6C613.1,555.1,613.1,553.3,611.7,551.6z"/>
	<path class="st1" d="M361,586.2c13,0,26,0.1,39-0.1c3.4-0.1,4.1,1,4.3,4.2c0.6,10.4-1.3,16.3-15.9,16.3c-18.7,0-37.5,0-56.2,0
		c-12.2,0-17.5-6.6-15.1-18.4c0.7-3.3,2.8-2,4.4-2C334.6,586.2,347.8,586.2,361,586.2z"/>
	<path class="st1" d="M487.7,416.6c0.6,2.4-1.5,2.5-2.5,3.1c-4.4,2.5-9,4.6-13.4,7.1c-2.3,1.3-3,0.1-3.9-1.5
		c-6.9-13.6-16.4-25.6-23.8-38.8c-1.4-2.5-1-3.5,1.4-4.7c4.5-2.2,9.1-4.5,13.4-7.2c2.6-1.6,3.3-0.2,4.3,1.6c2.5,4.4,5,8.9,7.6,13.2
		c5,8,10.1,16,15.1,24C486.6,414.5,487.2,415.6,487.7,416.6z"/>
	<path class="st2" d="M611.7,551.6c3.4,1.7,3.4,3.4,0,5.2C611.7,555.1,611.7,553.3,611.7,551.6z"/>
	
		<linearGradient id="SVGID_00000022536905775457304940000005822366898399777179_" gradientUnits="userSpaceOnUse" x1="231.4506" y1="453.1078" x2="414.3588" y2="453.1078">
		<stop  offset="2.551656e-02" style="stop-color:#1E9CD7"/>
		<stop  offset="0.3065" style="stop-color:#0075BE"/>
		<stop  offset="0.9944" style="stop-color:#005B97"/>
		<stop  offset="1" style="stop-color:#CCE0F4"/>
	</linearGradient>
	<path style="fill:url(#SVGID_00000022536905775457304940000005822366898399777179_);" d="M322.9,463.4c-25.6,0-51.1,0-76.7,0
		c-2.1,0-4.3,0.2-6.4-0.2c-5.1-0.9-8.8-5.5-8.4-10.5c0.4-5.3,3.5-8.6,8.7-9.6c2.1-0.4,4.2-0.2,6.4-0.2c51.1,0,102.2,0,153.4,0
		c1.3,0,2.6,0,3.8,0c6.4,0.4,10.7,4.5,10.6,10.4c-0.1,5.8-4.4,10-10.9,10.1c-15.8,0.1-31.5,0-47.3,0.1
		C345.1,463.4,334,463.4,322.9,463.4z"/>
	
		<linearGradient id="SVGID_00000021082425089255881020000006043367689144655493_" gradientUnits="userSpaceOnUse" x1="231.4447" y1="494.0705" x2="414.3596" y2="494.0705">
		<stop  offset="2.551656e-02" style="stop-color:#1E9CD7"/>
		<stop  offset="0.3065" style="stop-color:#0075BE"/>
		<stop  offset="0.9944" style="stop-color:#005B97"/>
		<stop  offset="1" style="stop-color:#CCE0F4"/>
	</linearGradient>
	<path style="fill:url(#SVGID_00000021082425089255881020000006043367689144655493_);" d="M322.9,483.8c25.6,0,51.1,0,76.7,0
		c1.7,0,3.4-0.1,5.1,0.1c5.6,0.5,9.6,4.7,9.7,10c0.1,5.6-4,9.9-10,10.4c-1.5,0.1-3,0-4.5,0c-51.1,0-102.2,0-153.4,0
		c-1.9,0-3.9,0.1-5.7-0.1c-5.6-0.6-9.4-5-9.4-10.3c0.1-5.3,4-9.5,9.6-10c1.9-0.2,3.8-0.1,5.7-0.1
		C272.2,483.8,297.5,483.8,322.9,483.8z"/>
	
		<linearGradient id="SVGID_00000179640952866673434030000004640666864696545213_" gradientUnits="userSpaceOnUse" x1="231.4448" y1="412.2024" x2="296.7249" y2="412.2024">
		<stop  offset="2.551656e-02" style="stop-color:#1E9CD7"/>
		<stop  offset="0.3065" style="stop-color:#0075BE"/>
		<stop  offset="0.9944" style="stop-color:#005B97"/>
		<stop  offset="1" style="stop-color:#CCE0F4"/>
	</linearGradient>
	<path style="fill:url(#SVGID_00000179640952866673434030000004640666864696545213_);" d="M263.2,422.4c-6.8,0-13.6,0.1-20.4,0
		c-7-0.1-11.4-4.2-11.3-10.3c0-6,4.4-10.1,11.5-10.1c13.6-0.1,27.2,0,40.9-0.1c5.6,0,10,2.4,12.2,7.2c2.8,6-3.1,12.9-11.1,13.2
		C277.7,422.6,270.4,422.4,263.2,422.4z"/>
	
		<linearGradient id="SVGID_00000091732317315110936430000003349960077497792652_" gradientUnits="userSpaceOnUse" x1="167.4612" y1="412.1431" x2="209.6174" y2="412.1431">
		<stop  offset="2.551656e-02" style="stop-color:#1E9CD7"/>
		<stop  offset="0.3065" style="stop-color:#0075BE"/>
		<stop  offset="0.9944" style="stop-color:#005B97"/>
		<stop  offset="1" style="stop-color:#CCE0F4"/>
	</linearGradient>
	<path style="fill:url(#SVGID_00000091732317315110936430000003349960077497792652_);" d="M188.3,422.4c-3.8,0-7.7,0.3-11.5-0.1
		c-5.6-0.5-9.4-4.9-9.4-10.2c0-5.3,3.9-9.8,9.5-10.1c7.6-0.3,15.3-0.3,22.9,0c5.7,0.2,9.6,4.5,9.7,9.8c0.2,5.5-3.9,10-9.8,10.4
		C196,422.6,192.2,422.4,188.3,422.4C188.3,422.4,188.3,422.4,188.3,422.4z"/>
	
		<linearGradient id="SVGID_00000003808605745689250570000003459104004503595964_" gradientUnits="userSpaceOnUse" x1="167.4593" y1="453.1549" x2="209.6138" y2="453.1549">
		<stop  offset="2.551656e-02" style="stop-color:#1E9CD7"/>
		<stop  offset="0.3065" style="stop-color:#0075BE"/>
		<stop  offset="0.9944" style="stop-color:#005B97"/>
		<stop  offset="1" style="stop-color:#CCE0F4"/>
	</linearGradient>
	<path style="fill:url(#SVGID_00000003808605745689250570000003459104004503595964_);" d="M188.6,442.9c3.6,0,7.2-0.2,10.8,0
		c6,0.3,10.2,4.5,10.2,10c0.1,5.6-4,10.1-10,10.3c-7.4,0.3-14.9,0.3-22.3,0c-5.9-0.2-10-4.8-9.9-10.3c0.1-5.6,4.2-9.7,10.3-10
		C181.3,442.7,184.9,442.9,188.6,442.9z"/>
	
		<linearGradient id="SVGID_00000126283749730477318490000014049231586900766624_" gradientUnits="userSpaceOnUse" x1="167.4613" y1="494.0495" x2="209.5927" y2="494.0495">
		<stop  offset="2.551656e-02" style="stop-color:#1E9CD7"/>
		<stop  offset="0.3065" style="stop-color:#0075BE"/>
		<stop  offset="0.9944" style="stop-color:#005B97"/>
		<stop  offset="1" style="stop-color:#CCE0F4"/>
	</linearGradient>
	<path style="fill:url(#SVGID_00000126283749730477318490000014049231586900766624_);" d="M188.4,504.3c-3.8,0-7.7,0.2-11.5-0.1
		c-5.6-0.4-9.5-4.8-9.5-10.1c0-5.3,3.8-9.9,9.4-10.1c7.8-0.3,15.7-0.4,23.6,0c5.5,0.3,9.5,5.1,9.1,10.3c-0.4,5.6-3.6,9.1-9.1,9.8
		C196.5,504.6,192.5,504.2,188.4,504.3C188.4,504.2,188.4,504.2,188.4,504.3z"/>
	
		<linearGradient id="SVGID_00000164511088755724286090000015044231457610788793_" gradientUnits="userSpaceOnUse" x1="220.0177" y1="228.1425" x2="500.9425" y2="228.1425">
		<stop  offset="2.551656e-02" style="stop-color:#1E9CD7"/>
		<stop  offset="0.3065" style="stop-color:#0075BE"/>
		<stop  offset="0.9944" style="stop-color:#005B97"/>
		<stop  offset="1" style="stop-color:#CCE0F4"/>
	</linearGradient>
	<path style="fill:url(#SVGID_00000164511088755724286090000015044231457610788793_);" d="M358.6,361c-32.3-1.2-61.6-10.7-87.3-31
		c-10.9-8.6-19.7-18.6-27.3-29.9c-30.5-45.1-31.6-92.7-4.4-138.1c29.6-49.3,76.5-70.4,133.9-66.4c29.2,2.1,55.1,12.7,78,31.3
		c8,6.5,15.1,13.7,21.2,21.8c33.4,44.4,37.1,92.5,11.7,140.6c-21.8,41.3-58.9,63.9-105.3,70.4C372.3,360.7,365.5,361.3,358.6,361z"
		/>
	<path class="st1" d="M242.7,229.3c0.1-26.3,6.6-49.3,22.3-68.2c27.2-32.9,62.8-48.5,105.6-45.2c32.4,2.5,59.7,15.9,81.4,40.9
		c20.7,23.8,28.1,51.3,25.8,81.9c-1.4,18.3-7.1,35.6-17.8,50.6c-19.2,26.9-45.2,43.8-77.9,49.3c-37.3,6.3-71-2.4-100.1-26.7
		C255.8,290.1,243.2,261.6,242.7,229.3z"/>
	
		<linearGradient id="SVGID_00000163758971836638372960000009039911768080572297_" gradientUnits="userSpaceOnUse" x1="392.6347" y1="227.9173" x2="446.4096" y2="227.9173">
		<stop  offset="2.551656e-02" style="stop-color:#1E9CD7"/>
		<stop  offset="0.3065" style="stop-color:#0075BE"/>
		<stop  offset="0.9944" style="stop-color:#005B97"/>
		<stop  offset="1" style="stop-color:#CCE0F4"/>
	</linearGradient>
	<path style="fill:url(#SVGID_00000163758971836638372960000009039911768080572297_);" d="M392.6,227.9c0-16.2,0-32.4,0-48.5
		c0-9.3,3.4-12.7,12.6-12.9c9.8-0.1,19.6-0.1,29.4,0c7.9,0.1,11.7,3.9,11.7,11.9c0.1,33,0.1,66,0,99c0,8-3.8,11.8-11.6,11.9
		c-9.8,0.1-19.6,0.1-29.4,0c-9.3-0.1-12.7-3.6-12.7-12.8C392.6,260.3,392.6,244.1,392.6,227.9z"/>
	
		<linearGradient id="SVGID_00000057864704313326778600000000953082208920523697_" gradientUnits="userSpaceOnUse" x1="328.6332" y1="243.281" x2="382.4272" y2="243.281">
		<stop  offset="2.551656e-02" style="stop-color:#1E9CD7"/>
		<stop  offset="0.3065" style="stop-color:#0075BE"/>
		<stop  offset="0.9944" style="stop-color:#005B97"/>
		<stop  offset="1" style="stop-color:#CCE0F4"/>
	</linearGradient>
	<path style="fill:url(#SVGID_00000057864704313326778600000000953082208920523697_);" d="M328.7,243.3c0-11.1,0-22.1,0-33.2
		c0-9.3,3.5-12.8,12.6-12.9c9.6-0.1,19.2-0.1,28.7,0c8.9,0.1,12.4,3.7,12.4,12.5c0,22.3,0,44.7,0,67c0,8.8-3.5,12.4-12.3,12.6
		c-10,0.2-20,0.1-30,0c-7.5-0.1-11.3-4-11.4-11.5C328.6,266.3,328.7,254.8,328.7,243.3z"/>
	
		<linearGradient id="SVGID_00000153681804035921845740000007195060058959090332_" gradientUnits="userSpaceOnUse" x1="263.3828" y1="258.6101" x2="317.2224" y2="258.6101">
		<stop  offset="2.551656e-02" style="stop-color:#1E9CD7"/>
		<stop  offset="0.3065" style="stop-color:#0075BE"/>
		<stop  offset="0.9944" style="stop-color:#005B97"/>
		<stop  offset="1" style="stop-color:#CCE0F4"/>
	</linearGradient>
	<path style="fill:url(#SVGID_00000153681804035921845740000007195060058959090332_);" d="M263.4,258.3c0-6,0-11.9,0-17.9
		c0.1-8.3,3.2-12.1,11.2-12.4c10.9-0.4,21.7-0.3,32.6,0c5.9,0.2,9.6,3.9,9.8,9.8c0.3,13.9,0.3,27.7,0,41.6
		c-0.1,5.9-4.3,9.8-10.4,9.9c-10.4,0.2-20.9,0.3-31.3,0c-8.5-0.2-11.8-3.9-11.9-12.4C263.4,270.7,263.4,264.5,263.4,258.3z"/>
	<path class="st1" d="M424.6,228.5c0,11.9-0.2,23.9,0.1,35.8c0.1,4.3-1.6,4.8-5.1,4.7c-3.2-0.1-5.4,0.2-5.3-4.5
		c0.3-24.3,0.3-48.6,0-72.9c0-4.3,1.6-4.8,5.1-4.7c3.2,0.1,5.5-0.2,5.3,4.5C424.4,203.7,424.6,216.1,424.6,228.5z"/>
	<path class="st1" d="M360.7,243.9c0,7-0.3,14.1,0.1,21.1c0.3,4.8-2.6,3.8-5.2,3.8c-2.6,0-5.3,0.9-5.2-3.8c0.3-14.5,0.3-29,0-43.5
		c-0.1-4.7,2.6-3.8,5.2-3.8c2.6,0,5.5-0.9,5.2,3.8C360.3,229,360.7,236.4,360.7,243.9z"/>
	<path class="st1" d="M296.7,257.7c0,1.8,0,3.1,0,4.4c0,6.4-3.5,8.7-9.9,6.8c-2.3-0.7-1.6-2.2-1.6-3.5c-0.1-3.4,0.3-6.9-0.1-10.2
		c-0.7-5.4,0.9-7.1,6.7-7C301.2,248.4,294.4,255.3,296.7,257.7z"/>
</g>
</svg>
