<?xml version="1.0" encoding="utf-8"?>
<!-- Generator: Adobe Illustrator 26.0.1, SVG Export Plug-In . SVG Version: 6.00 Build 0)  -->
<svg version="1.1" id="Layer_1" xmlns="http://www.w3.org/2000/svg" xmlns:xlink="http://www.w3.org/1999/xlink" x="0px" y="0px"
	 viewBox="0 0 1190.55 841.89" style="enable-background:new 0 0 1190.55 841.89;" xml:space="preserve">
<style type="text/css">
	.st0{fill:url(#SVGID_1_);}
	.st1{fill:#1B75BC;}
	.st2{fill:#FFFFFF;}
	.st3{opacity:0.82;fill:#1B75BC;}
	.st4{opacity:0.36;fill:#1B75BC;}
	.st5{opacity:0.61;fill:#1B75BC;}
	.st6{opacity:0.73;fill:#1B75BC;}
	.st7{opacity:0.76;}
	.st8{fill:#939598;}
	.st9{fill:#0859A3;}
</style>
<radialGradient id="SVGID_1_" cx="598.2305" cy="417.3274" r="515.5323" gradientTransform="matrix(1.0113 0 0 1.0314 -13.3887 -9.7088)" gradientUnits="userSpaceOnUse">
	<stop  offset="0" style="stop-color:#FFFFFF"/>
	<stop  offset="1" style="stop-color:#BFBFBF"/>
</radialGradient>
<rect x="-10.4" y="-13.44" class="st0" width="1203.95" height="868.32"/>
<path class="st1" d="M1141.42,574.69c0,24.41-19.79,44.2-44.2,44.2s-44.2-19.79-44.2-44.2c0-24.41,19.79-44.2,44.2-44.2
	S1141.42,550.28,1141.42,574.69z"/>
<path class="st1" d="M1125.66,336c0,15.25-12.36,27.61-27.61,27.61c-15.25,0-27.61-12.36-27.61-27.61
	c0-15.25,12.36-27.61,27.61-27.61C1113.3,308.39,1125.66,320.75,1125.66,336z"/>
<path class="st1" d="M793.04,186.94c0,20.7-16.78,37.47-37.47,37.47c-20.69,0-37.47-16.78-37.47-37.47
	c0-20.7,16.78-37.47,37.47-37.47C776.27,149.47,793.04,166.24,793.04,186.94z"/>
<path class="st1" d="M682.38,287.51c0,16.58-13.44,30.03-30.02,30.03c-16.58,0-30.03-13.44-30.03-30.03
	c0-16.58,13.44-30.03,30.03-30.03C668.94,257.48,682.38,270.93,682.38,287.51z"/>
<path class="st1" d="M948.35,156.23c0,18.38-14.9,33.29-33.29,33.29c-18.39,0-33.29-14.9-33.29-33.29
	c0-18.38,14.9-33.29,33.29-33.29C933.45,122.95,948.35,137.85,948.35,156.23z"/>
<path class="st1" d="M732.74,590.54c0,23.63-19.15,42.78-42.78,42.78c-23.62,0-42.77-19.15-42.77-42.78
	c0-23.62,19.15-42.78,42.77-42.78C713.59,547.76,732.74,566.91,732.74,590.54z"/>
<path class="st2" d="M713.68,588.33l0.8-3.42c0.23-0.96-0.38-1.93-1.34-2.16l-37.08-8.72l1.96-8.33c-0.41-0.24-0.84-0.42-1.31-0.53
	c-4.1-0.96-8.76,3.93-10.41,10.94c-1.05,4.46-0.62,8.7,0.89,11.44v17.71c0,0.5,0.4,0.9,0.9,0.9c0.5,0,0.9-0.4,0.9-0.9v-15.55
	c0.53,0.4,1.12,0.68,1.76,0.83c0.46,0.11,0.93,0.14,1.41,0.11l2.28-9.7l11.82,2.78l-11.74,25.16c-0.34,0.74-0.03,1.61,0.71,1.95
	c0.74,0.34,1.61,0.03,1.95-0.71l0.85-1.82l10.94-2.03l11.11,2.43l0.54,1.35c0.3,0.75,1.16,1.12,1.91,0.81
	c0.75-0.3,1.12-1.16,0.81-1.91l-9.43-23.43l16.39,3.85v9.05h-0.75c-0.76,0-1.39,0.63-1.39,1.39v0.97c0,0.76,0.63,1.39,1.39,1.39
	h3.21c0.76,0,1.39-0.63,1.39-1.39v-0.97c0-0.76-0.63-1.39-1.39-1.39h-0.67v-8.73C712.85,589.63,713.5,589.09,713.68,588.33z
	 M687.22,580.59c0-0.95,0.63-1.75,1.49-2.03c0.2-0.06,0.42-0.1,0.64-0.1c1.17,0,2.13,0.96,2.13,2.13c0,1.17-0.96,2.13-2.13,2.13
	c-0.9,0-1.67-0.57-1.98-1.36C687.28,581.12,687.22,580.86,687.22,580.59z M692.28,589.31l0.49,1.21l-1.03-0.89L692.28,589.31z
	 M694.24,594.18l0.07,0.17l-4.17,2.35l-5.12-3.08l5.09-3.02L694.24,594.18z M686.19,590.84l1.21-2.6l1.28,1.11L686.19,590.84z
	 M684.16,595.2l4.18,2.52l-7.26,4.08L684.16,595.2z M690.11,598.78l6.94,4.18l-8.04,1.49l-6.47-1.41L690.11,598.78z M678.97,606.31
	l0.94-2.01l4.54,0.99L678.97,606.31z M693.53,605.44l4.88-0.9l0.87,2.16L693.53,605.44z M691.91,597.77l3.08-1.73l1.9,4.73
	L691.91,597.77z M691.6,587.62l-1.29,0.77l-2.12-1.84l0.99-2.13l1.24,0.29L691.6,587.62z"/>
<path class="st1" d="M661.68,440.78c0,18.88-15.31,34.19-34.19,34.19c-18.88,0-34.19-15.31-34.19-34.19
	c0-18.88,15.31-34.19,34.19-34.19C646.37,406.59,661.68,421.9,661.68,440.78z"/>
<path class="st2" d="M632.62,428.77c0,0,7.81,4.95,0,12.76c0,0-8.96-17.37-1.84-27.06c0,0-13.55,4.87-13.09,28.03
	c0,0-5.05-2.87-4.13-7.89c0,0-12.17,9.91-1.15,23h8.66c-2.25-1.36-4.65-3.48-3.6-5.97c1.84-4.36,6.89-5.65,7.81-9.14
	c0.92-3.49,2.6,4.11,2.22,7.2c0,0,3.3-0.81,3.07-4.03c0,0,6.43,6.89,2.99,11.94h6.89C640.43,457.6,659.96,439,632.62,428.77z"/>
<g>
	<path class="st2" d="M1078.54,556.63c0.18,0.24,0.44,0.47,0.71,0.63c0.07,0.04,0.13,0.08,0.2,0.11c0.07,0.03,0.14,0.07,0.2,0.1
		l0.2,0.08l0.1,0.04l0.1,0.03c0.52,0.18,1,0.27,1.47,0.33c0.47,0.06,0.93,0.09,1.39,0.09l0.17,0l0.14,0c0.09,0,0.18,0,0.27,0l0.13,0
		l0.13,0l0.13,0c0.04,0,0.08,0,0.12,0.01c0.33,0.02,0.63,0.05,0.91,0.11c0.28,0.07,0.56,0.17,0.86,0.41
		c0.15,0.12,0.29,0.26,0.43,0.44c0.14,0.18,0.28,0.37,0.41,0.61c0.17-0.22,0.27-0.47,0.34-0.74c0.06-0.27,0.07-0.56,0.04-0.86
		c-0.08-0.59-0.41-1.2-0.88-1.63c-0.96-0.89-2.24-1.09-3.21-1.08c-0.45,0-0.89,0.02-1.33,0.05c-0.43,0.04-0.86,0.09-1.24,0.14
		l-0.52,0.06c-0.16,0.02-0.3,0.02-0.49,0c-0.09-0.02-0.19-0.04-0.29-0.08c-0.11-0.03-0.21-0.08-0.33-0.11
		c-0.23-0.09-0.47-0.18-0.73-0.25c0.04,0.27,0.09,0.52,0.17,0.77C1078.25,556.13,1078.37,556.38,1078.54,556.63z"/>
	<path class="st2" d="M1085.71,553.68c0.18,0.24,0.44,0.47,0.71,0.63c0.07,0.04,0.13,0.08,0.2,0.11c0.07,0.03,0.14,0.07,0.2,0.1
		l0.2,0.08l0.1,0.04l0.1,0.03c0.52,0.18,1,0.27,1.47,0.33c0.47,0.06,0.93,0.09,1.39,0.09l0.17,0l0.14,0c0.09,0,0.18,0,0.27,0l0.13,0
		l0.13,0l0.13,0c0.04,0,0.08,0,0.12,0.01c0.33,0.02,0.63,0.05,0.91,0.11c0.28,0.07,0.56,0.17,0.86,0.41
		c0.15,0.12,0.29,0.26,0.43,0.44c0.14,0.18,0.28,0.37,0.41,0.61c0.17-0.22,0.27-0.47,0.34-0.74c0.06-0.27,0.07-0.56,0.04-0.86
		c-0.08-0.59-0.41-1.2-0.88-1.64c-0.96-0.89-2.24-1.09-3.21-1.08c-0.45,0-0.89,0.02-1.33,0.05c-0.43,0.04-0.86,0.09-1.24,0.14
		l-0.52,0.07c-0.16,0.02-0.3,0.02-0.49,0c-0.09-0.02-0.19-0.04-0.29-0.08c-0.11-0.03-0.21-0.08-0.33-0.11
		c-0.23-0.09-0.47-0.18-0.73-0.25c0.04,0.27,0.09,0.52,0.17,0.77C1085.42,553.18,1085.53,553.43,1085.71,553.68z"/>
	<path class="st2" d="M1128.15,564.19h-12.21c-0.84,0-1.52,0.68-1.52,1.52c0,0.65,0.4,1.2,0.97,1.42v12.23h-1.71v-8.22
		c0-0.87-0.56-1.62-1.34-1.9c0-0.01,0-0.02,0-0.03c0-0.25-0.14-0.47-0.35-0.59c-0.08-0.37-0.27-0.71-0.53-0.97
		c-0.36-0.36-0.85-0.58-1.39-0.58h-4.47c-0.54,0-1.04,0.22-1.39,0.58c-0.36,0.36-0.58,0.85-0.58,1.39v3.23
		c-0.9,0.2-1.58,1.01-1.58,1.97v5.11h-3.68v-2.84c0-1.38-0.93-2.54-2.2-2.89l-0.81-14.94c-0.02-0.44-0.49-0.78-1.06-0.78h-0.98
		c-0.57,0-1.03,0.35-1.06,0.78l-0.81,14.82h-2.62l-0.65-12c-0.02-0.44-0.49-0.78-1.06-0.78h-0.98c-0.57,0-1.03,0.35-1.06,0.78
		l-0.66,12.07c-1.35,0.29-2.35,1.49-2.35,2.93v2.84H1078v-3.09l-4.4,3.09h-0.02v-3.09l-4.4,3.09h-0.02v-3.09l-4.41,3.1v4.37v2.14
		v6.95c0,2.42,1.96,4.38,4.38,4.38h55.1c2.42,0,4.38-1.96,4.38-4.38v-4.16c0.04-0.14,0.07-0.28,0.07-0.43v-21.11
		c0.57-0.22,0.97-0.77,0.97-1.42C1129.67,564.87,1128.99,564.19,1128.15,564.19z M1070.61,590.38h-1.39V589h1.39V590.38z
		 M1070.61,588.44h-1.39v-1.39h1.39V588.44z M1070.61,586.49h-1.39v-1.39h1.39V586.49z M1072.41,590.38h-1.39V589h1.39V590.38z
		 M1072.41,588.44h-1.39v-1.39h1.39V588.44z M1072.41,586.49h-1.39v-1.39h1.39V586.49z M1074.21,590.38h-1.39V589h1.39V590.38z
		 M1074.21,588.44h-1.39v-1.39h1.39V588.44z M1074.21,586.49h-1.39v-1.39h1.39V586.49z M1088.71,587.64h-1.39v-1.39h1.39V587.64z
		 M1088.71,585.7h-1.39v-1.39h1.39V585.7z M1088.71,583.75h-1.39v-1.39h1.39V583.75z M1090.51,587.64h-1.39v-1.39h1.39V587.64z
		 M1090.51,585.7h-1.39v-1.39h1.39V585.7z M1090.51,583.75h-1.39v-1.39h1.39V583.75z M1092.31,587.64h-1.39v-1.39h1.39V587.64z
		 M1092.31,585.7h-1.39v-1.39h1.39V585.7z M1092.31,583.75h-1.39v-1.39h1.39V583.75z M1107.72,579.36h-1.63v-2.26h0.84
		c0.1,0,0.2-0.04,0.27-0.11c0.07-0.07,0.11-0.17,0.11-0.27v-1.45h0.41V579.36z M1109.64,579.36h-1.16v-4.1h1.16V579.36z
		 M1109.64,574.5h-1.16v-0.99c0-0.29,0.12-0.55,0.31-0.75c0.19-0.19,0.46-0.31,0.75-0.31c0.04,0,0.07,0.01,0.1,0.01V574.5z
		 M1110.98,569.24c-0.78,0.28-1.34,1.03-1.34,1.9v0.55c-0.03,0-0.07-0.01-0.1-0.01c-0.5,0-0.96,0.21-1.29,0.54
		c-0.33,0.33-0.54,0.79-0.54,1.29v0.99h-0.79c-0.1,0-0.2,0.04-0.27,0.11c-0.07,0.07-0.11,0.17-0.11,0.27v1.45h-0.46v-2.08
		c0-1-0.73-1.83-1.69-1.99v-3.21c0-0.33,0.13-0.63,0.35-0.85c0.22-0.22,0.52-0.35,0.85-0.35h4.47c0.33,0,0.63,0.13,0.85,0.35
		c0.14,0.14,0.24,0.31,0.3,0.5c-0.15,0.13-0.24,0.31-0.24,0.51C1110.98,569.22,1110.98,569.23,1110.98,569.24z M1120.9,583.72h-1.39
		v-1.39h1.39V583.72z M1120.9,581.77h-1.39v-1.39h1.39V581.77z M1120.9,579.82h-1.39v-1.39h1.39V579.82z M1120.9,575.18h-1.39v-1.39
		h1.39V575.18z M1120.9,573.23h-1.39v-1.39h1.39V573.23z M1120.9,571.28h-1.39v-1.39h1.39V571.28z M1122.7,583.72h-1.39v-1.39h1.39
		V583.72z M1122.7,581.77h-1.39v-1.39h1.39V581.77z M1122.7,579.82h-1.39v-1.39h1.39V579.82z M1122.7,575.18h-1.39v-1.39h1.39
		V575.18z M1122.7,573.23h-1.39v-1.39h1.39V573.23z M1122.7,571.28h-1.39v-1.39h1.39V571.28z M1124.51,583.72h-1.39v-1.39h1.39
		V583.72z M1124.51,581.77h-1.39v-1.39h1.39V581.77z M1124.51,579.82h-1.39v-1.39h1.39V579.82z M1124.51,575.18h-1.39v-1.39h1.39
		V575.18z M1124.51,573.23h-1.39v-1.39h1.39V573.23z M1124.51,571.28h-1.39v-1.39h1.39V571.28z"/>
	<path class="st2" d="M1112.81,560c-0.64-0.42-1.38-0.65-2.17-0.65c-0.8,0-1.54,0.24-2.19,0.67c-0.43,0.28-0.82,0.65-1.15,1.08
		l1.09,0.83c0.2-0.23,0.43-0.43,0.68-0.6c0.47-0.31,1.01-0.48,1.57-0.48c0.56,0,1.1,0.17,1.56,0.47c0.25,0.16,0.47,0.35,0.67,0.58
		l1.08-0.84C1113.62,560.63,1113.24,560.28,1112.81,560z"/>
	<path class="st2" d="M1106.36,555.57c1.27-0.83,2.73-1.31,4.29-1.31c1.53,0,2.98,0.46,4.24,1.28c1.04,0.68,1.96,1.59,2.69,2.69
		l1.03-0.81c-0.85-1.29-1.91-2.37-3.13-3.16c-1.43-0.93-3.08-1.46-4.83-1.46c-1.77,0-3.44,0.54-4.88,1.49
		c-1.23,0.81-2.3,1.91-3.15,3.23l1.04,0.79C1104.38,557.2,1105.3,556.26,1106.36,555.57z"/>
	<path class="st2" d="M1115.18,560.09l1.16-0.91c-0.6-0.86-1.33-1.59-2.17-2.13c-1.05-0.68-2.25-1.06-3.54-1.07
		c-1.3,0-2.52,0.4-3.57,1.09c-0.84,0.55-1.59,1.3-2.19,2.18l1.17,0.89c0.47-0.66,1.04-1.22,1.68-1.64c0.86-0.56,1.85-0.89,2.9-0.89
		c1.04,0,2.02,0.31,2.87,0.87C1114.15,558.9,1114.71,559.45,1115.18,560.09z"/>
</g>
<g>
	<path class="st2" d="M923.45,168.53h-14.1c-2.65,0-4.79-2.14-4.79-4.79v-14.1c0-2.65,2.14-4.79,4.79-4.79h14.1
		c2.65,0,4.79,2.14,4.79,4.79v14.1C928.24,166.38,926.09,168.53,923.45,168.53z"/>
	<polygon class="st2" points="913.06,148.7 913.06,143.54 913.99,142.63 913.99,136.33 913.46,136.33 913.46,142.4 912.53,143.32 
		912.53,148.7 913.06,148.7 	"/>
	<polygon class="st2" points="916.87,147.35 916.87,142.06 916.34,141.42 916.34,136.33 915.81,136.33 915.81,141.61 916.34,142.25 
		916.34,147.35 916.87,147.35 	"/>
	<polygon class="st2" points="919.41,146.63 919.41,142.29 919.96,141.63 919.96,136.33 919.43,136.33 919.43,141.44 918.88,142.1 
		918.88,146.63 919.41,146.63 	"/>
	<polygon class="st2" points="923.11,145.51 923.11,142.1 922.42,141.26 922.42,136.33 921.88,136.33 921.88,141.45 922.58,142.29 
		922.58,145.51 923.11,145.51 	"/>
	<polygon class="st2" points="910.21,146.23 910.21,142.29 910.69,141.71 910.69,136.33 910.16,136.33 910.16,141.52 909.68,142.1 
		909.68,146.23 910.21,146.23 	"/>
	<polygon class="st2" points="919.73,163.76 919.73,168.92 918.8,169.84 918.8,176.14 919.33,176.14 919.33,170.06 920.26,169.14 
		920.26,163.76 919.73,163.76 	"/>
	<polygon class="st2" points="915.92,165.12 915.92,170.41 916.45,171.05 916.45,176.14 916.98,176.14 916.98,170.85 916.45,170.21 
		916.45,165.12 915.92,165.12 	"/>
	<polygon class="st2" points="913.38,165.84 913.38,170.17 912.83,170.83 912.83,176.14 913.36,176.14 913.36,171.03 913.91,170.37 
		913.91,165.84 913.38,165.84 	"/>
	<polygon class="st2" points="909.68,166.96 909.68,170.37 910.37,171.2 910.37,176.14 910.91,176.14 910.91,171.01 910.21,170.17 
		910.21,166.96 909.68,166.96 	"/>
	<polygon class="st2" points="922.58,166.24 922.58,170.17 922.1,170.75 922.1,176.14 922.63,176.14 922.63,170.95 923.11,170.37 
		923.11,166.24 922.58,166.24 	"/>
	<polygon class="st2" points="893.28,153.65 898.44,153.65 899.35,154.58 905.65,154.58 905.65,154.05 899.58,154.05 898.66,153.12 
		893.28,153.12 893.28,153.65 	"/>
	<polygon class="st2" points="894.63,157.46 899.92,157.46 900.56,156.93 905.65,156.93 905.65,156.4 900.37,156.4 899.73,156.93 
		894.63,156.93 894.63,157.46 	"/>
	<polygon class="st2" points="895.35,160 899.69,160 900.35,160.55 905.65,160.55 905.65,160.02 900.54,160.02 899.88,159.47 
		895.35,159.47 895.35,160 	"/>
	<polygon class="st2" points="896.47,163.7 899.88,163.7 900.72,163.01 905.65,163.01 905.65,162.47 900.53,162.47 899.69,163.17 
		896.47,163.17 896.47,163.7 	"/>
	<polygon class="st2" points="895.75,150.8 899.69,150.8 900.27,151.28 905.65,151.28 905.65,150.75 900.46,150.75 899.88,150.27 
		895.75,150.27 895.75,150.8 	"/>
	<polygon class="st2" points="924.48,153.65 929.64,153.65 930.55,154.58 936.85,154.58 936.85,154.05 930.78,154.05 929.86,153.12 
		924.48,153.12 924.48,153.65 	"/>
	<polygon class="st2" points="925.84,157.46 931.12,157.46 931.76,156.93 936.85,156.93 936.85,156.4 931.57,156.4 930.93,156.93 
		925.84,156.93 925.84,157.46 	"/>
	<polygon class="st2" points="926.55,160 930.89,160 931.55,160.55 936.85,160.55 936.85,160.02 931.74,160.02 931.08,159.47 
		926.55,159.47 926.55,160 	"/>
	<polygon class="st2" points="927.67,163.7 931.08,163.7 931.92,163.01 936.85,163.01 936.85,162.47 931.73,162.47 930.89,163.17 
		927.67,163.17 927.67,163.7 	"/>
	<polygon class="st2" points="926.95,150.8 930.89,150.8 931.47,151.28 936.85,151.28 936.85,150.75 931.66,150.75 931.08,150.27 
		926.95,150.27 926.95,150.8 	"/>
</g>
<path class="st2" d="M770.5,200.36h-3.33c0.03-0.18,0.05-0.36,0.05-0.54l0,0c0-1.88-1.54-3.41-3.41-3.41h-1.41V190
	c0-0.24-0.02-0.48-0.06-0.72l9.87-11.38c1.15-1.32,1.01-3.34-0.32-4.49l-1.03-0.89c-0.88-0.76-2.06-0.95-3.09-0.61l-23.3-7.39
	c-1.31-0.42-2.72,0.32-3.14,1.63l-0.1,0.31c-0.09,0.28-0.12,0.56-0.11,0.84c-0.49,0.11-0.93,0.4-1.21,0.85l-0.36,0.58
	c-0.37,0.6-0.37,1.33-0.06,1.91l-4.46,1.36l-0.96,8.41l0.76-0.21l2.61-6.7l3.62-0.77l0.9,3.6l-4.87,5.28l0.15,0.77l7.14-4.55
	l-0.74-4.61c0.66,0.02,1.32-0.3,1.69-0.89l0.36-0.58c0.23-0.36,0.31-0.78,0.28-1.18l17.55,5.57l-8.27,9.53
	c-0.15,0.17-0.28,0.36-0.39,0.56c-1.15,0.86-1.9,2.23-1.9,3.78v6.41h-1.41c-1.88,0-3.41,1.54-3.41,3.41l0,0
	c0,0.18,0.02,0.36,0.05,0.54h-5.38c-2.03,0-3.7,1.66-3.7,3.7l0,0c0,2.03,1.66,3.7,3.7,3.7h27.72c2.03,0,3.7-1.66,3.7-3.7l0,0
	C774.19,202.03,772.53,200.36,770.5,200.36z M765.83,175.37c0.34-1.49,1.83-2.42,3.32-2.07c0.78,0.18,1.4,0.68,1.77,1.32
	c0.34,0.58,0.46,1.29,0.3,2c-0.34,1.49-1.83,2.42-3.32,2.07c-0.96-0.22-1.68-0.92-1.99-1.79
	C765.74,176.42,765.7,175.9,765.83,175.37z M757.67,187.25c1.7,0,3.08,1.38,3.08,3.08c0,0.28-0.04,0.55-0.11,0.81
	c-0.36,1.31-1.55,2.27-2.97,2.27c-1.7,0-3.08-1.38-3.08-3.08c0-0.4,0.08-0.78,0.22-1.13C755.26,188.06,756.37,187.25,757.67,187.25z
	"/>
<g>
	<path class="st2" d="M1119.98,336.98c0.38-1.17,0.59-2.43,0.59-3.73v-0.05l-1.69,0.01c0-1.12-0.19-2.19-0.52-3.2l1.6-0.53
		c-0.4-1.22-0.99-2.34-1.73-3.35l-1.36,1c-0.31-0.43-0.66-0.83-1.04-1.21c-0.39-0.39-0.82-0.75-1.27-1.08l0.99-1.37
		c-1.01-0.73-2.15-1.31-3.37-1.7l-0.52,1.61c-1-0.32-2.07-0.5-3.18-0.5c-0.01,0-0.02,0-0.03,0l0-1.69c-1.3,0-2.55,0.21-3.72,0.6
		l0.53,1.61c-1.04,0.34-2.02,0.85-2.89,1.48l-1-1.36c-1.02,0.75-1.92,1.65-2.66,2.67l1.37,0.99c-0.63,0.87-1.13,1.85-1.47,2.89
		l-1.61-0.52c-0.38,1.17-0.58,2.41-0.58,3.7v0.02l1.69,0c0,1.12,0.18,2.19,0.51,3.2l-1.61,0.52c0.4,1.22,0.98,2.35,1.72,3.36l1.36-1
		c0.32,0.44,0.67,0.85,1.05,1.23c0.39,0.39,0.81,0.74,1.25,1.06l-0.99,1.37c1.01,0.74,2.15,1.32,3.36,1.71l0.52-1.61
		c1.01,0.33,2.08,0.5,3.2,0.5c0,0,0.01,0,0.01,0l0,1.69c1.3,0,2.55-0.21,3.72-0.59l-0.52-1.61c1.05-0.34,2.02-0.84,2.89-1.48
		l0.99,1.36c1.02-0.74,1.92-1.65,2.67-2.67l-1.37-0.99c0.63-0.87,1.13-1.84,1.47-2.89L1119.98,336.98z M1114.6,339.35
		c-1.56,1.56-3.71,2.52-6.09,2.52c-2.38,0-4.53-0.96-6.09-2.52c-1.56-1.56-2.52-3.71-2.52-6.09c0-2.38,0.96-4.53,2.52-6.09
		c1.56-1.56,3.71-2.52,6.09-2.52c2.38,0,4.53,0.96,6.09,2.52c1.56,1.56,2.52,3.71,2.52,6.09
		C1117.12,335.64,1116.16,337.79,1114.6,339.35z"/>
	<path class="st2" d="M1096.55,329.59c0.32-0.61,0.54-1.29,0.66-2.01l0-0.03l-0.93-0.15c0.1-0.62,0.09-1.23,0-1.82l0.93-0.15
		c-0.11-0.71-0.33-1.38-0.65-2.01l-0.84,0.43c-0.14-0.27-0.29-0.52-0.46-0.76c-0.18-0.25-0.38-0.49-0.6-0.71l0.67-0.67
		c-0.49-0.5-1.07-0.92-1.71-1.24l-0.43,0.84c-0.52-0.27-1.1-0.46-1.71-0.56c-0.01,0-0.01,0-0.02,0l0.15-0.93
		c-0.72-0.11-1.43-0.11-2.11,0l0.15,0.93c-0.61,0.1-1.19,0.29-1.73,0.56l-0.43-0.84c-0.63,0.32-1.21,0.74-1.71,1.24l0.67,0.67
		c-0.43,0.42-0.79,0.92-1.07,1.47l-0.84-0.43c-0.31,0.61-0.54,1.28-0.65,1.99l0,0.01l0.93,0.15c-0.1,0.62-0.1,1.23,0,1.82
		l-0.93,0.15c0.11,0.71,0.33,1.39,0.65,2.01l0.84-0.43c0.14,0.27,0.29,0.53,0.47,0.77c0.18,0.25,0.38,0.48,0.6,0.7l-0.67,0.67
		c0.49,0.5,1.07,0.92,1.7,1.25l0.43-0.84c0.53,0.27,1.1,0.47,1.72,0.57c0,0,0,0,0.01,0l-0.15,0.93c0.72,0.12,1.43,0.11,2.11,0.01
		l-0.14-0.93c0.61-0.09,1.19-0.28,1.73-0.56l0.43,0.84c0.63-0.32,1.21-0.74,1.71-1.23l-0.67-0.67c0.43-0.42,0.79-0.92,1.07-1.46
		L1096.55,329.59z M1093.37,330.42c-1,0.72-2.28,1.06-3.59,0.85c-1.32-0.21-2.42-0.94-3.14-1.94c-0.72-1-1.06-2.28-0.85-3.59
		c0.21-1.32,0.94-2.42,1.94-3.14c1-0.72,2.28-1.06,3.59-0.85c1.32,0.21,2.42,0.94,3.14,1.94c0.72,1,1.06,2.28,0.85,3.59
		C1095.09,328.59,1094.37,329.69,1093.37,330.42z"/>
	<path class="st2" d="M1095.6,346.42c0.4-0.78,0.69-1.64,0.84-2.56l0.01-0.03l-1.19-0.19c0.12-0.79,0.12-1.57,0-2.32l1.19-0.19
		c-0.14-0.9-0.43-1.77-0.83-2.56l-1.07,0.55c-0.17-0.34-0.37-0.66-0.59-0.97c-0.23-0.32-0.49-0.62-0.77-0.9l0.85-0.85
		c-0.63-0.63-1.36-1.17-2.18-1.59l-0.55,1.07c-0.67-0.34-1.4-0.59-2.18-0.71c-0.01,0-0.01,0-0.02,0l0.19-1.19
		c-0.91-0.15-1.82-0.14-2.69-0.01l0.19,1.19c-0.78,0.12-1.52,0.36-2.2,0.71l-0.55-1.07c-0.8,0.41-1.54,0.94-2.18,1.58l0.85,0.85
		c-0.54,0.54-1.01,1.17-1.37,1.87l-1.07-0.55c-0.4,0.78-0.68,1.63-0.83,2.54l0,0.02l1.19,0.19c-0.13,0.79-0.12,1.57-0.01,2.32
		l-1.19,0.19c0.14,0.9,0.42,1.77,0.83,2.56l1.07-0.55c0.17,0.34,0.37,0.67,0.6,0.98c0.23,0.32,0.48,0.62,0.76,0.89l-0.86,0.85
		c0.63,0.63,1.36,1.17,2.17,1.59l0.55-1.07c0.67,0.35,1.41,0.59,2.19,0.72c0,0,0,0,0.01,0l-0.19,1.19c0.91,0.15,1.82,0.15,2.69,0.01
		l-0.18-1.19c0.78-0.12,1.52-0.36,2.2-0.71l0.54,1.08c0.81-0.41,1.54-0.94,2.18-1.57l-0.85-0.86c0.55-0.54,1.01-1.17,1.37-1.87
		L1095.6,346.42z M1091.53,347.47c-1.28,0.92-2.9,1.35-4.58,1.08c-1.68-0.27-3.08-1.2-4-2.48c-0.92-1.28-1.35-2.9-1.08-4.58
		c0.27-1.68,1.2-3.08,2.48-4c1.28-0.92,2.9-1.35,4.58-1.08c1.68,0.27,3.08,1.2,4,2.48c0.92,1.28,1.35,2.9,1.08,4.58
		C1093.74,345.14,1092.81,346.55,1091.53,347.47z"/>
</g>
<path class="st1" d="M1167.66,449.97c0,19.22-15.58,34.81-34.81,34.81c-19.22,0-34.81-15.59-34.81-34.81
	c0-19.22,15.58-34.81,34.81-34.81C1152.08,415.17,1167.66,430.75,1167.66,449.97z"/>
<g>
	<path class="st2" d="M1134.13,453.29v-22.57c0-0.84-0.69-1.53-1.53-1.53c-0.84,0-1.53,0.69-1.53,1.53v22.57
		c-0.91,0.53-1.53,1.5-1.53,2.63c0,1.68,1.37,3.05,3.05,3.05s3.05-1.37,3.05-3.05C1135.66,454.79,1135.04,453.82,1134.13,453.29z
		 M1133.01,434.73h1.12v0.47h-1.12V434.73z M1133.01,436.42h1.12v0.47h-1.12V436.42z M1132.61,457.93c-1.08,0-1.95-0.87-1.95-1.95
		c0-0.95,0.69-1.74,1.59-1.91v-22.61h0.71v6.65h1.17v0.47h-1.17v4.59h1.17v0.47h-1.17v4.59h1.17v0.47h-1.17v5.37
		c0.91,0.17,1.59,0.96,1.59,1.91C1134.56,457.05,1133.68,457.93,1132.61,457.93z M1133.01,440.26v-0.47h1.12v0.47H1133.01z
		 M1134.13,441.48v0.47h-1.12v-0.47H1134.13z M1133.01,445.32v-0.47h1.12v0.47H1133.01z M1134.13,446.54v0.47h-1.12v-0.47H1134.13z
		 M1133.01,450.38v-0.47h1.12v0.47H1133.01z M1134.13,451.59v0.47h-1.12v-0.47H1134.13z"/>
	<g>
		<path class="st2" d="M1116.84,462.3c1.01-0.93,2.41-1.59,3.76-1.58c0.38,0,0.75,0.05,1.11,0.15c0.67,0.19,1.24,0.57,1.82,1.01
			c0.58,0.44,1.15,0.95,1.83,1.37c0.92,0.56,1.82,0.8,2.7,0.8c1.9-0.01,3.56-1.08,5.2-2.05c1.19-0.71,2.64-1.26,4.04-1.26
			c0.22,0,0.44,0.01,0.66,0.04c0.7,0.09,1.23,0.34,1.76,0.68c0.52,0.34,1.02,0.79,1.6,1.26c1.23,0.99,2.7,1.5,4.16,1.5
			c1.65,0,3.3-0.65,4.59-1.94c0.17-0.17,0.17-0.44,0-0.6c-0.17-0.17-0.44-0.17-0.6,0c-1.13,1.13-2.56,1.69-3.99,1.69
			c-1.27,0-2.54-0.43-3.62-1.31c-0.56-0.45-1.07-0.92-1.67-1.31c-0.59-0.39-1.27-0.7-2.11-0.81c-0.26-0.03-0.52-0.05-0.77-0.05
			c-1.62,0-3.19,0.61-4.47,1.38c-1.65,0.99-3.21,1.94-4.76,1.93c-0.72,0-1.45-0.19-2.25-0.68c-0.6-0.37-1.15-0.85-1.76-1.32
			c-0.61-0.46-1.27-0.91-2.1-1.15c-0.45-0.13-0.9-0.19-1.35-0.19c-1.62,0-3.19,0.75-4.34,1.81c-0.17,0.16-0.18,0.43-0.02,0.6
			C1116.4,462.45,1116.66,462.46,1116.84,462.3L1116.84,462.3z"/>
		<path class="st2" d="M1115.94,465.81c1.01-0.93,2.41-1.59,3.76-1.58c0.38,0,0.75,0.05,1.11,0.16c0.67,0.19,1.24,0.57,1.82,1.01
			c0.58,0.44,1.15,0.95,1.83,1.37c0.92,0.56,1.82,0.8,2.7,0.8c1.9-0.01,3.56-1.08,5.2-2.05c1.19-0.71,2.64-1.26,4.04-1.26
			c0.22,0,0.45,0.01,0.66,0.04c0.7,0.09,1.23,0.34,1.76,0.68c0.52,0.34,1.02,0.79,1.6,1.26c1.23,0.99,2.7,1.5,4.16,1.5
			c1.65,0,3.3-0.65,4.59-1.94c0.17-0.17,0.17-0.44,0-0.6c-0.17-0.17-0.44-0.17-0.6,0c-1.13,1.13-2.56,1.69-3.99,1.69
			c-1.27,0-2.54-0.44-3.62-1.31c-0.56-0.45-1.07-0.91-1.67-1.31c-0.59-0.39-1.27-0.7-2.11-0.81c-0.26-0.03-0.52-0.05-0.78-0.05
			c-1.62,0-3.19,0.61-4.47,1.38c-1.65,0.99-3.21,1.94-4.76,1.93c-0.72,0-1.45-0.19-2.25-0.68c-0.6-0.37-1.15-0.85-1.76-1.32
			c-0.61-0.46-1.27-0.91-2.1-1.15c-0.45-0.13-0.9-0.19-1.35-0.19c-1.62,0-3.19,0.75-4.33,1.81c-0.17,0.16-0.18,0.43-0.02,0.6
			C1115.49,465.96,1115.76,465.97,1115.94,465.81L1115.94,465.81z"/>
		<path class="st2" d="M1115.94,469.17c1.01-0.93,2.41-1.59,3.76-1.58c0.38,0,0.75,0.05,1.11,0.15c0.67,0.19,1.24,0.57,1.82,1.01
			c0.58,0.44,1.15,0.95,1.83,1.37c0.92,0.56,1.82,0.8,2.7,0.8c1.9-0.01,3.56-1.08,5.2-2.05c1.19-0.71,2.64-1.26,4.04-1.26
			c0.22,0,0.45,0.01,0.66,0.04c0.7,0.09,1.23,0.34,1.76,0.68c0.52,0.34,1.02,0.79,1.6,1.26c1.23,0.99,2.7,1.5,4.16,1.5
			c1.65,0,3.3-0.65,4.59-1.94c0.17-0.17,0.17-0.44,0-0.6c-0.17-0.17-0.44-0.17-0.6,0c-1.13,1.13-2.56,1.69-3.99,1.69
			c-1.27,0-2.54-0.43-3.62-1.31c-0.56-0.45-1.07-0.91-1.67-1.31c-0.59-0.39-1.27-0.7-2.11-0.81c-0.26-0.03-0.52-0.05-0.78-0.05
			c-1.62,0-3.19,0.61-4.47,1.38c-1.65,0.99-3.21,1.94-4.76,1.93c-0.72,0-1.45-0.19-2.25-0.68c-0.6-0.37-1.15-0.85-1.76-1.32
			c-0.61-0.46-1.27-0.91-2.1-1.15c-0.45-0.13-0.9-0.19-1.35-0.19c-1.62,0-3.19,0.75-4.34,1.81c-0.17,0.16-0.18,0.43-0.02,0.6
			C1115.49,469.32,1115.76,469.33,1115.94,469.17L1115.94,469.17z"/>
	</g>
</g>
<path class="st1" d="M1092.06,226.99c0,19.66-15.94,35.59-35.59,35.59c-19.66,0-35.59-15.93-35.59-35.59
	c0-19.66,15.93-35.59,35.59-35.59C1076.13,191.4,1092.06,207.34,1092.06,226.99z"/>
<g>
	<path class="st2" d="M1062.61,234.33c-1.79-1.16-3.84-1.82-6.04-1.82c-2.22,0-4.3,0.67-6.1,1.86c-1.21,0.79-2.29,1.82-3.22,3.02
		l3.03,2.31c0.57-0.65,1.2-1.21,1.9-1.67c1.3-0.85,2.8-1.34,4.39-1.34c1.57,0,3.05,0.47,4.34,1.31c0.68,0.44,1.31,0.99,1.87,1.61
		l3.01-2.35C1064.88,236.1,1063.8,235.1,1062.61,234.33z"/>
	<path class="st2" d="M1044.63,221.98c3.53-2.32,7.61-3.64,11.94-3.64c4.27,0,8.31,1.29,11.81,3.56c2.91,1.88,5.45,4.43,7.49,7.48
		l2.88-2.25c-2.36-3.59-5.32-6.6-8.72-8.8c-4-2.58-8.57-4.05-13.46-4.05c-4.94,0-9.58,1.51-13.61,4.15
		c-3.43,2.25-6.42,5.33-8.78,9.01l2.9,2.21C1039.13,226.53,1041.7,223.91,1044.63,221.98z"/>
	<path class="st2" d="M1069.22,234.58l3.24-2.53c-1.67-2.41-3.72-4.43-6.04-5.93c-2.93-1.89-6.27-2.97-9.85-2.97
		c-3.62,0-7.01,1.1-9.96,3.04c-2.35,1.54-4.42,3.62-6.09,6.08l3.27,2.49c1.31-1.85,2.9-3.4,4.69-4.58c2.39-1.57,5.16-2.47,8.08-2.47
		c2.89,0,5.62,0.87,8,2.41C1066.34,231.27,1067.92,232.78,1069.22,234.58z"/>
</g>
<g>
	<path class="st2" d="M645.34,278.35h-9.68c-0.65,0-1.25,0.33-1.6,0.87l-4.79,7.39c-0.13,0.2-0.22,0.43-0.27,0.67l-1.18,5.92
		c-0.24,1.18,0.67,2.28,1.87,2.28h4.98c0,1.57,1.28,2.85,2.85,2.85c1.57,0,2.85-1.28,2.85-2.85h3.65c0.98,0,1.8-0.74,1.9-1.72
		l1.33-13.31C647.35,279.32,646.47,278.35,645.34,278.35z M644.03,286.22h-6.05l-1,1h-6.55l4.26-6.42c0.32-0.48,0.86-0.77,1.44-0.77
		h8.98L644.03,286.22z"/>
	<path class="st2" d="M672.46,290.92h-23.79c-0.86,0-1.59,0.4-1.69,0.94l-0.46,2.43c-0.12,0.63,0.67,1.19,1.69,1.19h9.42
		c0,1.57,1.28,2.85,2.85,2.85s2.85-1.28,2.85-2.85h1c0,1.57,1.28,2.85,2.85,2.85s2.85-1.28,2.85-2.85h1.98
		c0.86,0,1.59-0.4,1.69-0.94l0.46-2.43C674.27,291.47,673.48,290.92,672.46,290.92z"/>
	<path class="st2" d="M675.19,276.7h-25.51c-0.91,0-1.66,0.86-1.74,1.97l-0.63,9.5c-0.08,1.25,0.72,2.32,1.74,2.32h25.51
		c0.91,0,1.66-0.86,1.74-1.97l0.63-9.5C677.01,277.77,676.21,276.7,675.19,276.7z"/>
</g>
<g>
	<path class="st3" d="M960.96,415.78c0,0.06,0,0.12,0,0.18c0,11.38-2.24,22.18-6.29,32.06l22.73,9.32
		c5.24-12.77,8.13-26.77,8.13-41.39c0-0.08,0-0.16,0-0.24L960.96,415.78L960.96,415.78z M947.47,370.11
		c5.87,9.08,10.04,19.33,12.08,30.34l24.16-4.47c-2.64-14.23-8.03-27.5-15.6-39.2L947.47,370.11L947.47,370.11z M911.4,338.96
		c10.06,4.58,19.08,11.08,26.58,19.04l17.88-16.84c-9.66-10.25-21.28-18.64-34.28-24.56L911.4,338.96L911.4,338.96z M864.22,332.27
		c3.97-0.57,8.04-0.87,12.18-0.87c7.08,0,13.93,0.87,20.48,2.49l5.93-23.84c-8.47-2.11-17.32-3.22-26.41-3.22
		c-5.32,0-10.56,0.38-15.69,1.12L864.22,332.27L864.22,332.27z M820.95,352.13c8.22-7.14,17.81-12.72,28.33-16.28l-7.88-23.27
		c-13.6,4.6-25.99,11.81-36.57,21.01L820.95,352.13L820.95,352.13z M795.23,392.22c3.12-10.68,8.29-20.49,15.07-28.98l-19.2-15.33
		c-8.74,10.94-15.42,23.62-19.46,37.43L795.23,392.22L795.23,392.22z M795.28,439.87c-2.23-7.57-3.42-15.58-3.43-23.91
		c0-2.92,0.15-5.81,0.44-8.65l-24.44-2.48c-0.37,3.66-0.56,7.38-0.56,11.13c0,10.69,1.54,21.05,4.42,30.85L795.28,439.87
		L795.28,439.87z M821.09,479.91c-8.28-7.17-15.15-15.92-20.14-25.76l-21.91,11.11c6.45,12.71,15.3,23.98,25.97,33.21L821.09,479.91
		L821.09,479.91z M864.41,499.67c-11.12-1.58-21.53-5.31-30.82-10.78l-12.46,21.17c11.99,7.06,25.47,11.9,39.83,13.93L864.41,499.67
		z M911.56,492.89c-9.74,4.46-20.45,7.12-31.77,7.56l0.96,24.55c14.57-0.57,28.46-4.01,41.03-9.77L911.56,492.89L911.56,492.89z
		 M947.57,461.66c-5.95,9.25-13.67,17.27-22.66,23.58l14.11,20.11c11.6-8.14,21.53-18.46,29.21-30.39L947.57,461.66L947.57,461.66z"
		/>
	<path class="st4" d="M965.98,424.63c-0.01,0.05-0.01,0.1-0.02,0.16c-1.66,16.81-7.82,32.03-17.18,44.67l11.01,8.15
		c10.79-14.56,17.9-32.16,19.8-51.48c0.01-0.06,0.01-0.12,0.02-0.18L965.98,424.63L965.98,424.63z M939.05,351.35
		c11.55,11.22,20.05,25.46,24.29,41.26l13.23-3.56c-4.9-18.23-14.68-34.62-27.98-47.54L939.05,351.35L939.05,351.35z M864.96,326.68
		c3.72-0.47,7.5-0.72,11.33-0.72c2.95,0,5.94,0.14,8.94,0.44c9.63,0.95,18.74,3.38,27.14,7.04l5.47-12.56
		c-9.69-4.22-20.2-7.02-31.27-8.11c-3.45-0.34-6.88-0.51-10.29-0.51c-4.41,0-8.77,0.28-13.06,0.83L864.96,326.68z M799.48,369.22
		c8.47-13.91,20.58-25.26,34.87-32.83l-6.41-12.11c-16.46,8.72-30.39,21.77-40.16,37.82L799.48,369.22L799.48,369.22z
		 M791.89,446.93c-3.55-9.68-5.48-20.08-5.48-30.86c0-2.95,0.14-5.94,0.44-8.94c0.26-2.68,0.64-5.32,1.13-7.92l-13.46-2.53
		c-0.56,2.99-1,6.03-1.3,9.11c-0.34,3.45-0.51,6.88-0.51,10.29c0,12.42,2.22,24.42,6.32,35.58L791.89,446.93L791.89,446.93z
		 M847.91,501.34c-15.68-5.22-29.31-14.58-39.73-26.7l-10.39,8.93c11.99,13.95,27.7,24.75,45.79,30.77L847.91,501.34z
		 M925.36,491.47c-13.33,8.65-28.99,13.83-45.63,14.42l0.49,13.69c19.19-0.68,37.26-6.66,52.6-16.63L925.36,491.47L925.36,491.47z"
		/>
	<path class="st5" d="M992.62,415.69c0,0.09,0,0.18,0,0.27c0,11.05-1.53,21.68-4.39,31.75c-4.28,15.11-11.55,28.98-21.14,40.93
		c-9.6,11.95-21.52,21.98-35.04,29.37l20.39,37.31c24.65-13.48,45.29-33.26,59.81-57.22c7.26-11.98,12.98-25.01,16.89-38.81
		c3.91-13.79,6-28.35,6-43.34c0-0.12,0-0.24,0-0.36L992.62,415.69z M876.21,299.74c0.07,0,0.13,0,0.2,0
		c11.03,0,21.64,1.53,31.7,4.37c15.09,4.27,28.94,11.51,40.88,21.08c11.95,9.57,21.97,21.45,29.37,34.94l37.27-20.46
		c-13.5-24.58-33.27-45.16-57.2-59.64c-11.97-7.24-24.98-12.94-38.76-16.84c-13.77-3.9-28.31-5.98-43.27-5.98c-0.09,0-0.18,0-0.27,0
		L876.21,299.74L876.21,299.74z M760.19,416.09c0-0.04,0-0.09,0-0.13c0-11.04,1.53-21.65,4.38-31.72
		c4.27-15.09,11.52-28.95,21.1-40.9c9.58-11.95,21.47-21.97,34.98-29.37l-20.44-37.28c-24.6,13.49-45.2,33.26-59.7,57.21
		c-7.24,11.97-12.96,24.99-16.86,38.77c-3.9,13.78-5.98,28.32-5.98,43.3c0,0.06,0,0.12,0,0.18L760.19,416.09L760.19,416.09z
		 M876.48,532.17h-0.08h0.01c-11.04,0-21.67-1.53-31.74-4.38c-15.1-4.28-28.96-11.54-40.92-21.12
		c-11.95-9.59-21.98-21.49-29.37-35.01l-37.3,20.41c13.48,24.63,33.26,45.25,57.21,59.75c11.98,7.25,25,12.97,38.79,16.87
		c13.79,3.9,28.34,5.99,43.32,5.99h0.01h0.08L876.48,532.17L876.48,532.17z"/>
	<path class="st6" d="M987.46,369.47c0.02,0.05,0.04,0.1,0.07,0.16c6.32,15.17,9.3,30.84,9.31,46.28c0,27.46-9.48,54.18-26.54,75.45
		l17.33,13.89c20.21-25.22,31.41-56.77,31.42-89.34c0-18.3-3.55-36.92-11.02-54.82c-0.03-0.06-0.05-0.12-0.08-0.18L987.46,369.47
		L987.46,369.47z M829.96,304.89l0.12-0.05c15.17-6.32,30.84-9.3,46.28-9.31c27.42,0,54.09,9.45,75.36,26.46l13.87-17.34
		c-25.2-20.15-56.7-31.32-89.22-31.32c-18.3,0-36.92,3.55-54.82,11.02c-0.05,0.02-0.09,0.04-0.14,0.06L829.96,304.89L829.96,304.89z
		 M765.32,462.37l-0.03-0.08c-6.32-15.17-9.3-30.84-9.31-46.28c0-27.44,9.46-54.12,26.49-75.39l-17.34-13.87
		c-20.17,25.2-31.35,56.72-31.35,89.26c0,18.3,3.55,36.92,11.02,54.82l0.04,0.09L765.32,462.37z M922.78,527.06l-0.04,0.02l0.01,0
		c-15.17,6.32-30.84,9.3-46.28,9.31c-27.45,0-54.15-9.47-75.42-26.51l-13.88,17.33c25.21,20.19,56.75,31.38,89.3,31.39
		c18.3,0,36.92-3.55,54.82-11.02l0,0l0.04-0.02L922.78,527.06L922.78,527.06z"/>
	<path class="st1" d="M952.1,415.81c0,0.05,0,0.1,0,0.15c0,0.47,0,0.93-0.01,1.39l3.78,0.07c0.01-0.49,0.01-0.97,0.01-1.46
		c0-0.05,0-0.11,0-0.16L952.1,415.81z M951.72,408.39c0.05,0.46,0.09,0.92,0.12,1.39l3.77-0.3c-0.04-0.49-0.08-0.97-0.13-1.46
		L951.72,408.39L951.72,408.39z M950.63,401.04c0.09,0.45,0.18,0.91,0.26,1.37l3.72-0.67c-0.09-0.48-0.18-0.96-0.27-1.44
		L950.63,401.04L950.63,401.04z M948.82,393.84c0.14,0.44,0.27,0.89,0.39,1.34l3.64-1.04c-0.13-0.47-0.27-0.94-0.41-1.4
		L948.82,393.84z M946.3,386.86c0.18,0.43,0.35,0.85,0.52,1.29l3.51-1.39c-0.18-0.45-0.36-0.9-0.55-1.35L946.3,386.86L946.3,386.86z
		 M943.12,380.17c0.22,0.41,0.43,0.82,0.65,1.23l3.36-1.73c-0.22-0.43-0.45-0.86-0.68-1.29L943.12,380.17L943.12,380.17z
		 M939.29,373.81c0.26,0.38,0.51,0.77,0.76,1.16l3.18-2.05c-0.26-0.41-0.53-0.82-0.8-1.22L939.29,373.81L939.29,373.81z
		 M934.85,367.86c0.3,0.36,0.59,0.72,0.88,1.08l2.96-2.35c-0.3-0.38-0.61-0.76-0.92-1.14L934.85,367.86z M929.85,362.36
		c0.33,0.33,0.65,0.66,0.98,0.99l2.72-2.63c-0.34-0.35-0.68-0.7-1.03-1.04L929.85,362.36L929.85,362.36z M924.34,357.38
		c0.36,0.29,0.72,0.59,1.07,0.89l2.45-2.88c-0.37-0.32-0.75-0.63-1.12-0.94L924.34,357.38z M918.37,352.96
		c0.39,0.26,0.77,0.52,1.15,0.78l2.16-3.1c-0.4-0.28-0.8-0.55-1.21-0.82L918.37,352.96L918.37,352.96z M911.99,349.14
		c0.41,0.22,0.82,0.44,1.23,0.67l1.84-3.3c-0.43-0.24-0.86-0.47-1.29-0.7L911.99,349.14L911.99,349.14z M905.27,345.97
		c0.43,0.18,0.86,0.36,1.29,0.55l1.51-3.47c-0.45-0.19-0.9-0.39-1.35-0.57L905.27,345.97L905.27,345.97z M898.27,343.47
		c0.45,0.13,0.89,0.27,1.34,0.42l1.16-3.6c-0.47-0.15-0.93-0.3-1.4-0.44L898.27,343.47L898.27,343.47z M891.06,341.69
		c0.46,0.09,0.91,0.18,1.36,0.28l0.8-3.69c-0.48-0.1-0.95-0.2-1.43-0.29L891.06,341.69L891.06,341.69z M883.71,340.62
		c0.46,0.04,0.92,0.09,1.39,0.15l0.43-3.75c-0.48-0.06-0.97-0.11-1.45-0.15L883.71,340.62L883.71,340.62z M876.29,340.27l0.11,0
		c0.43,0,0.85,0,1.28,0.01l0.06-3.78c-0.45-0.01-0.89-0.01-1.34-0.01l-0.12,0L876.29,340.27z M868.88,340.64
		c0.46-0.05,0.92-0.09,1.39-0.12l-0.3-3.77c-0.49,0.04-0.97,0.08-1.46,0.13L868.88,340.64L868.88,340.64z M861.53,341.73
		c0.45-0.09,0.91-0.18,1.37-0.26l-0.67-3.72c-0.48,0.09-0.96,0.18-1.44,0.27L861.53,341.73L861.53,341.73z M854.33,343.54
		c0.44-0.14,0.89-0.27,1.34-0.39l-1.03-3.64c-0.47,0.13-0.94,0.27-1.4,0.41L854.33,343.54L854.33,343.54z M847.35,346.05
		c0.43-0.18,0.86-0.35,1.29-0.52l-1.39-3.52c-0.45,0.18-0.9,0.36-1.35,0.55L847.35,346.05L847.35,346.05z M840.65,349.23
		c0.41-0.22,0.82-0.43,1.23-0.65l-1.73-3.36c-0.43,0.22-0.86,0.45-1.29,0.68L840.65,349.23L840.65,349.23z M834.29,353.06
		c0.38-0.26,0.77-0.51,1.16-0.76l-2.05-3.18c-0.41,0.26-0.82,0.53-1.22,0.8L834.29,353.06L834.29,353.06z M828.34,357.49
		c0.36-0.29,0.72-0.59,1.08-0.87l-2.35-2.96c-0.38,0.3-0.76,0.61-1.14,0.92L828.34,357.49L828.34,357.49z M822.84,362.49
		c0.33-0.33,0.66-0.65,0.99-0.98l-2.63-2.72c-0.35,0.34-0.7,0.68-1.04,1.03L822.84,362.49L822.84,362.49z M817.85,368
		c0.29-0.36,0.59-0.72,0.89-1.07l-2.88-2.45c-0.32,0.37-0.63,0.75-0.94,1.12L817.85,368z M813.43,373.96
		c0.26-0.39,0.52-0.77,0.79-1.15l-3.1-2.16c-0.28,0.4-0.55,0.8-0.82,1.21L813.43,373.96L813.43,373.96z M809.61,380.34
		c0.22-0.41,0.44-0.82,0.67-1.22l-3.3-1.84c-0.24,0.43-0.47,0.86-0.7,1.29L809.61,380.34L809.61,380.34z M806.43,387.06
		c0.18-0.43,0.36-0.86,0.55-1.29l-3.47-1.51c-0.2,0.45-0.39,0.9-0.57,1.35L806.43,387.06L806.43,387.06z M803.93,394.06
		c0.13-0.45,0.27-0.89,0.42-1.34l-3.6-1.16c-0.15,0.47-0.3,0.93-0.44,1.4L803.93,394.06L803.93,394.06z M802.14,401.27
		c0.09-0.46,0.18-0.91,0.28-1.36l-3.69-0.8c-0.1,0.48-0.2,0.95-0.3,1.43L802.14,401.27L802.14,401.27z M801.07,408.62
		c0.04-0.46,0.09-0.92,0.15-1.39l-3.75-0.43c-0.06,0.48-0.11,0.97-0.15,1.45L801.07,408.62L801.07,408.62z M800.72,416.03l0-0.08
		c0-0.44,0-0.88,0.01-1.32l-3.78-0.06c-0.01,0.46-0.01,0.92-0.01,1.38v0.08L800.72,416.03z M801.09,423.45
		c-0.05-0.46-0.09-0.92-0.12-1.39l-3.77,0.3c0.04,0.49,0.08,0.97,0.13,1.46L801.09,423.45z M802.17,430.8
		c-0.09-0.45-0.18-0.91-0.26-1.37l-3.72,0.67c0.09,0.48,0.18,0.96,0.27,1.44L802.17,430.8z M803.98,438
		c-0.13-0.44-0.27-0.89-0.39-1.34l-3.64,1.03c0.13,0.47,0.27,0.94,0.41,1.4L803.98,438L803.98,438z M806.48,444.98
		c-0.18-0.43-0.35-0.86-0.52-1.29l-3.52,1.39c0.18,0.45,0.36,0.9,0.55,1.35L806.48,444.98L806.48,444.98z M809.66,451.68
		c-0.22-0.41-0.43-0.82-0.65-1.23l-3.36,1.72c0.22,0.43,0.45,0.86,0.68,1.29L809.66,451.68z M813.49,458.04
		c-0.26-0.38-0.51-0.77-0.76-1.16l-3.18,2.05c0.26,0.41,0.53,0.82,0.8,1.22L813.49,458.04L813.49,458.04z M817.92,464
		c-0.29-0.36-0.59-0.72-0.87-1.08l-2.96,2.35c0.3,0.38,0.61,0.76,0.92,1.14L817.92,464z M822.91,469.5
		c-0.33-0.33-0.65-0.66-0.98-0.99l-2.72,2.62c0.34,0.35,0.68,0.7,1.02,1.04L822.91,469.5L822.91,469.5z M828.42,474.49
		c-0.36-0.29-0.72-0.59-1.07-0.89l-2.45,2.88c0.37,0.32,0.75,0.63,1.12,0.94L828.42,474.49L828.42,474.49z M834.38,478.92
		c-0.39-0.26-0.77-0.52-1.15-0.79l-2.16,3.1c0.4,0.28,0.8,0.55,1.21,0.83L834.38,478.92L834.38,478.92z M840.75,482.74
		c-0.41-0.22-0.82-0.44-1.22-0.67l-1.84,3.3c0.43,0.24,0.85,0.47,1.29,0.7L840.75,482.74z M847.47,485.92
		c-0.43-0.18-0.86-0.36-1.29-0.55l-1.51,3.46c0.45,0.2,0.9,0.39,1.35,0.57L847.47,485.92L847.47,485.92z M854.48,488.42
		c-0.45-0.14-0.89-0.27-1.33-0.42l-1.16,3.6c0.47,0.15,0.93,0.3,1.4,0.44L854.48,488.42L854.48,488.42z M861.68,490.22
		c-0.46-0.09-0.91-0.18-1.36-0.28l-0.8,3.69c0.48,0.1,0.95,0.2,1.43,0.3L861.68,490.22L861.68,490.22z M869.03,491.29
		c-0.46-0.04-0.92-0.09-1.39-0.15l-0.43,3.75c0.48,0.06,0.97,0.11,1.45,0.15L869.03,491.29L869.03,491.29z M876.45,491.65l-0.04,0
		c-0.45,0-0.9,0-1.35-0.01l-0.07,3.78c0.47,0.01,0.95,0.01,1.42,0.01h0.04L876.45,491.65L876.45,491.65z M883.87,491.29
		c-0.46,0.05-0.92,0.09-1.39,0.12l0.3,3.77c0.49-0.04,0.97-0.08,1.46-0.13L883.87,491.29L883.87,491.29z M891.21,490.2
		c-0.45,0.09-0.91,0.18-1.37,0.26l0.67,3.72c0.48-0.09,0.96-0.18,1.44-0.27L891.21,490.2z M898.41,488.4
		c-0.44,0.13-0.89,0.27-1.34,0.39l1.03,3.64c0.47-0.13,0.94-0.27,1.4-0.41L898.41,488.4L898.41,488.4z M905.4,485.9
		c-0.43,0.18-0.86,0.35-1.29,0.52l1.38,3.52c0.45-0.18,0.9-0.36,1.35-0.55L905.4,485.9z M912.1,482.72
		c-0.41,0.22-0.82,0.43-1.23,0.64l1.72,3.36c0.43-0.22,0.86-0.45,1.29-0.68L912.1,482.72L912.1,482.72z M918.46,478.9
		c-0.39,0.26-0.77,0.51-1.16,0.76l2.04,3.18c0.41-0.26,0.82-0.53,1.22-0.8L918.46,478.9L918.46,478.9z M924.42,474.47
		c-0.36,0.29-0.72,0.59-1.08,0.87l2.35,2.96c0.38-0.3,0.76-0.61,1.14-0.92L924.42,474.47L924.42,474.47z M929.92,469.48
		c-0.33,0.33-0.66,0.65-0.99,0.98l2.62,2.72c0.35-0.34,0.7-0.68,1.04-1.02L929.92,469.48L929.92,469.48z M934.92,463.98
		c-0.3,0.36-0.59,0.72-0.89,1.07l2.88,2.45c0.32-0.37,0.63-0.74,0.94-1.12L934.92,463.98z M939.35,458.02
		c-0.26,0.39-0.52,0.77-0.79,1.15l3.1,2.16c0.28-0.4,0.55-0.8,0.83-1.21L939.35,458.02L939.35,458.02z M943.17,451.65
		c-0.22,0.41-0.44,0.82-0.67,1.22l3.3,1.85c0.24-0.43,0.47-0.85,0.7-1.29L943.17,451.65L943.17,451.65z M946.36,444.93
		c-0.18,0.43-0.36,0.86-0.55,1.29l3.46,1.51c0.2-0.45,0.39-0.9,0.57-1.35L946.36,444.93L946.36,444.93z M948.86,437.93
		c-0.14,0.45-0.27,0.89-0.42,1.33l3.6,1.16c0.15-0.47,0.3-0.93,0.44-1.4L948.86,437.93L948.86,437.93z M950.66,430.72
		c-0.09,0.46-0.18,0.91-0.28,1.36l3.69,0.8c0.1-0.48,0.2-0.95,0.3-1.43L950.66,430.72L950.66,430.72z M951.74,423.38
		c-0.04,0.46-0.09,0.92-0.15,1.39l3.75,0.43c0.06-0.48,0.11-0.97,0.15-1.45L951.74,423.38z"/>
</g>
<g class="st7">
	<path class="st3" d="M894.27,384.78c0.02,0.01,0.04,0.03,0.07,0.04c4.19,2.41,7.7,5.53,10.48,9.11l8.25-6.39
		c-3.59-4.64-8.14-8.67-13.52-11.77c-0.03-0.02-0.06-0.03-0.09-0.05L894.27,384.78L894.27,384.78z M874.59,380.07
		c4.59-0.24,9.25,0.4,13.73,1.98l3.47-9.84c-5.8-2.05-11.83-2.87-17.75-2.57L874.59,380.07L874.59,380.07z M855.47,386.74
		c3.82-2.73,8.13-4.68,12.65-5.75l-2.41-10.16c-5.82,1.38-11.38,3.88-16.31,7.42L855.47,386.74L855.47,386.74z M843,402.7
		c0.63-1.58,1.38-3.15,2.26-4.67c1.5-2.61,3.27-4.95,5.26-7.01l-7.52-7.24c-2.57,2.67-4.86,5.7-6.79,9.04
		c-1.13,1.96-2.1,3.97-2.91,6.02L843,402.7L843,402.7z M841.14,422.85c-0.89-4.54-0.91-9.26,0.01-13.89l-10.24-2.03
		c-1.19,5.99-1.16,12.07-0.02,17.93L841.14,422.85L841.14,422.85z M850.45,440.82c-3.27-3.41-5.79-7.4-7.48-11.7l-9.72,3.82
		c2.18,5.54,5.43,10.69,9.66,15.1L850.45,440.82L850.45,440.82z M868.01,450.91c-3.26-0.79-6.47-2.04-9.53-3.81
		c-1.08-0.62-2.11-1.29-3.09-1.99l-6.1,8.48c1.27,0.91,2.6,1.77,3.98,2.57c3.94,2.27,8.08,3.9,12.3,4.91L868.01,450.91
		L868.01,450.91z M888.23,449.89c-4.39,1.53-9.07,2.2-13.76,1.96l-0.55,10.42c6.05,0.32,12.08-0.55,17.74-2.52L888.23,449.89
		L888.23,449.89z M904.69,438.13c-2.94,3.76-6.52,6.8-10.51,9.06l5.15,9.08c5.14-2.92,9.78-6.86,13.58-11.71L904.69,438.13z
		 M912.19,419.32c-0.42,4.53-1.71,9.04-3.95,13.3l9.24,4.85c2.88-5.49,4.56-11.33,5.1-17.18L912.19,419.32L912.19,419.32z
		 M908.33,399.44c2.14,4.15,3.46,8.7,3.88,13.35l10.4-0.93c-0.54-6-2.23-11.84-5-17.2L908.33,399.44L908.33,399.44z"/>
	<path class="st4" d="M898.59,384.81c0.02,0.01,0.04,0.03,0.05,0.04c5.84,4.18,10.14,9.67,12.81,15.8l5.34-2.33
		c-3.07-7.06-8.05-13.41-14.76-18.21c-0.02-0.02-0.04-0.03-0.06-0.04L898.59,384.81L898.59,384.81z M865.9,379.19
		c6.58-1.88,13.63-1.98,20.35-0.2l1.5-5.63c-7.75-2.06-15.86-1.94-23.44,0.22L865.9,379.19L865.9,379.19z M841.1,401.24
		c0.61-1.47,1.33-2.91,2.14-4.33c0.63-1.09,1.31-2.16,2.06-3.2c2.39-3.35,5.22-6.18,8.35-8.5l-3.47-4.68
		c-3.61,2.67-6.87,5.95-9.62,9.79c-0.86,1.2-1.65,2.43-2.37,3.68c-0.94,1.62-1.76,3.29-2.47,4.99L841.1,401.24z M842.88,434.38
		c-3.33-6.07-4.94-12.93-4.7-19.8l-5.82-0.2c-0.28,7.91,1.57,15.81,5.41,22.81L842.88,434.38L842.88,434.38z M869.89,453.65
		c-4.32-0.74-8.56-2.24-12.53-4.52c-1.09-0.63-2.16-1.31-3.2-2.06c-0.93-0.67-1.82-1.37-2.68-2.1l-3.79,4.42
		c0.98,0.84,2.01,1.65,3.08,2.41c1.2,0.86,2.43,1.65,3.68,2.37c4.57,2.63,9.47,4.36,14.44,5.22L869.89,453.65L869.89,453.65z
		 M901.81,444.56c-5.25,4.67-11.58,7.7-18.26,8.97l1.09,5.72c7.68-1.46,14.99-4.95,21.04-10.34L901.81,444.56z M914.6,413.94
		c0.36,6.74-1.05,13.61-4.36,19.86l5.15,2.72c3.82-7.21,5.45-15.14,5.03-22.9L914.6,413.94L914.6,413.94z"/>
	<path class="st5" d="M900.95,373.1c0.03,0.02,0.07,0.04,0.1,0.06c4.07,2.34,7.66,5.16,10.76,8.35c4.66,4.78,8.22,10.4,10.59,16.47
		c2.37,6.07,3.53,12.58,3.39,19.13l18.06,0.4c0.26-11.94-2.64-23.73-8.39-34.16c-2.87-5.21-6.46-10.09-10.71-14.45
		c-4.25-4.36-9.17-8.22-14.69-11.4c-0.04-0.03-0.09-0.05-0.13-0.08L900.95,373.1z M833.57,391.39c0.01-0.02,0.03-0.05,0.04-0.07
		c2.34-4.06,5.15-7.65,8.33-10.75c4.77-4.65,10.38-8.22,16.43-10.59c6.06-2.37,12.56-3.54,19.1-3.41l0.37-18.06
		c-11.91-0.24-23.69,2.67-34.09,8.42c-5.2,2.87-10.06,6.46-14.42,10.7c-4.36,4.25-8.2,9.16-11.38,14.67
		c-0.02,0.03-0.04,0.07-0.06,0.1L833.57,391.39L833.57,391.39z M851.81,458.79c-0.02-0.01-0.03-0.02-0.05-0.03
		c-4.06-2.34-7.65-5.15-10.75-8.34c-4.65-4.77-8.22-10.38-10.59-16.44c-2.37-6.06-3.54-12.57-3.4-19.11l-18.06-0.38
		c-0.25,11.92,2.66,23.7,8.41,34.11c2.87,5.21,6.46,10.07,10.7,14.43c4.25,4.36,9.16,8.21,14.68,11.38
		c0.02,0.01,0.04,0.03,0.07,0.04L851.81,458.79L851.81,458.79z M919.22,440.58l-0.02,0.03l0,0c-2.34,4.07-5.16,7.65-8.34,10.76
		c-4.78,4.65-10.39,8.22-16.46,10.59c-6.06,2.37-12.58,3.54-19.12,3.39l-0.39,18.06c11.93,0.26,23.72-2.65,34.14-8.4
		c5.21-2.87,10.08-6.46,14.44-10.71c4.36-4.25,8.22-9.17,11.39-14.68l0,0l0.02-0.03L919.22,440.58L919.22,440.58z"/>
	<path class="st6" d="M882.84,365.2c0.02,0,0.05,0.01,0.07,0.01c6.93,0.89,13.33,3.11,19.02,6.39
		c10.12,5.82,17.94,14.98,22.16,25.77l8.79-3.44c-5-12.79-14.25-23.61-26.24-30.51c-6.74-3.88-14.35-6.52-22.53-7.57
		c-0.03,0-0.06-0.01-0.08-0.01L882.84,365.2L882.84,365.2z M825.65,409.51l0.01-0.05c0.89-6.93,3.11-13.33,6.39-19.02
		c5.81-10.1,14.95-17.92,25.72-22.14l-3.45-8.78c-12.76,5.01-23.56,14.24-30.46,26.22c-3.88,6.74-6.52,14.35-7.57,22.53
		c0,0.02-0.01,0.04-0.01,0.06L825.65,409.51L825.65,409.51z M869.94,466.71l-0.04,0c-6.93-0.89-13.33-3.11-19.02-6.39
		c-10.1-5.82-17.93-14.96-22.15-25.74l-8.79,3.44c5.01,12.77,14.24,23.57,26.22,30.48c6.74,3.88,14.35,6.52,22.53,7.57l0.04,0.01
		L869.94,466.71z M927.16,422.44l0,0.02l0,0c-0.89,6.93-3.11,13.33-6.39,19.02c-5.82,10.11-14.97,17.93-25.76,22.15l3.44,8.79
		c12.78-5,23.59-14.24,30.5-26.23c3.88-6.74,6.52-14.35,7.57-22.53l0,0l0-0.02L927.16,422.44L927.16,422.44z"/>
	<path class="st1" d="M892.4,388.05c0.02,0.01,0.04,0.02,0.06,0.03c0.17,0.1,0.34,0.2,0.51,0.3l0.83-1.38
		c-0.18-0.11-0.36-0.21-0.54-0.31c-0.02-0.01-0.04-0.02-0.06-0.03L892.4,388.05z M889.59,386.62c0.18,0.08,0.36,0.16,0.54,0.25
		l0.69-1.45c-0.19-0.09-0.38-0.18-0.56-0.26L889.59,386.62L889.59,386.62z M886.65,385.46c0.19,0.06,0.37,0.13,0.56,0.19l0.54-1.51
		c-0.2-0.07-0.39-0.14-0.59-0.2L886.65,385.46L886.65,385.46z M883.62,384.6c0.19,0.04,0.38,0.09,0.58,0.14l0.39-1.56
		c-0.2-0.05-0.4-0.1-0.6-0.15L883.62,384.6z M880.51,384.05c0.19,0.03,0.39,0.05,0.58,0.08l0.23-1.59c-0.2-0.03-0.41-0.06-0.61-0.08
		L880.51,384.05L880.51,384.05z M877.37,383.8c0.2,0.01,0.39,0.01,0.59,0.02l0.08-1.6c-0.21-0.01-0.41-0.02-0.62-0.02L877.37,383.8
		L877.37,383.8z M874.22,383.86c0.2-0.01,0.39-0.03,0.59-0.04l-0.08-1.6c-0.21,0.01-0.41,0.02-0.62,0.04L874.22,383.86
		L874.22,383.86z M871.09,384.24c0.19-0.03,0.39-0.06,0.58-0.09l-0.24-1.59c-0.2,0.03-0.41,0.06-0.61,0.1L871.09,384.24z
		 M868,384.91c0.19-0.05,0.38-0.1,0.57-0.15l-0.39-1.56c-0.2,0.05-0.4,0.1-0.6,0.16L868,384.91L868,384.91z M865,385.88
		c0.18-0.07,0.37-0.14,0.56-0.2l-0.54-1.51c-0.2,0.07-0.39,0.14-0.58,0.21L865,385.88z M862.1,387.15c0.18-0.09,0.35-0.17,0.53-0.26
		l-0.69-1.45c-0.19,0.09-0.37,0.18-0.56,0.27L862.1,387.15L862.1,387.15z M859.35,388.68c0.17-0.1,0.34-0.21,0.51-0.31l-0.83-1.38
		c-0.18,0.11-0.36,0.21-0.53,0.32L859.35,388.68L859.35,388.68z M856.75,390.49c0.16-0.12,0.31-0.24,0.47-0.36l-0.96-1.29
		c-0.17,0.12-0.33,0.25-0.5,0.38L856.75,390.49L856.75,390.49z M854.35,392.54c0.14-0.14,0.29-0.27,0.44-0.4l-1.08-1.19
		c-0.15,0.14-0.31,0.28-0.46,0.42L854.35,392.54L854.35,392.54z M852.16,394.81c0.13-0.15,0.26-0.3,0.39-0.44l-1.19-1.08
		c-0.14,0.15-0.28,0.31-0.41,0.47L852.16,394.81L852.16,394.81z M850.21,397.29c0.11-0.16,0.23-0.32,0.35-0.48l-1.29-0.95
		c-0.12,0.17-0.24,0.33-0.36,0.5L850.21,397.29L850.21,397.29z M848.51,399.95l0.02-0.04c0.09-0.16,0.18-0.31,0.28-0.47l-1.38-0.82
		c-0.1,0.16-0.19,0.33-0.29,0.49l-0.03,0.04L848.51,399.95z M847.07,402.76c0.08-0.18,0.16-0.36,0.25-0.54l-1.45-0.69
		c-0.09,0.19-0.18,0.38-0.26,0.56L847.07,402.76L847.07,402.76z M845.92,405.7c0.06-0.19,0.13-0.37,0.19-0.56l-1.51-0.54
		c-0.07,0.2-0.14,0.39-0.2,0.59L845.92,405.7L845.92,405.7z M845.06,408.73c0.04-0.19,0.09-0.38,0.14-0.58l-1.56-0.39
		c-0.05,0.2-0.1,0.4-0.15,0.6L845.06,408.73L845.06,408.73z M844.5,411.84c0.03-0.19,0.05-0.39,0.08-0.58l-1.59-0.23
		c-0.03,0.2-0.06,0.41-0.08,0.61L844.5,411.84L844.5,411.84z M844.25,414.98c0.01-0.2,0.01-0.39,0.02-0.59l-1.6-0.08
		c-0.01,0.21-0.02,0.41-0.02,0.62L844.25,414.98L844.25,414.98z M844.31,418.13c-0.01-0.2-0.03-0.39-0.04-0.59l-1.6,0.08
		c0.01,0.21,0.02,0.41,0.04,0.62L844.31,418.13L844.31,418.13z M844.68,421.27c-0.03-0.19-0.06-0.39-0.09-0.58l-1.59,0.24
		c0.03,0.2,0.06,0.41,0.1,0.61L844.68,421.27L844.68,421.27z M845.36,424.35c-0.05-0.19-0.1-0.38-0.15-0.57l-1.56,0.39
		c0.05,0.2,0.1,0.4,0.16,0.6L845.36,424.35L845.36,424.35z M846.33,427.35c-0.07-0.18-0.14-0.37-0.2-0.56l-1.51,0.54
		c0.07,0.2,0.14,0.39,0.21,0.58L846.33,427.35z M847.59,430.25c-0.09-0.18-0.17-0.35-0.26-0.53l-1.45,0.69
		c0.09,0.19,0.18,0.37,0.27,0.56L847.59,430.25L847.59,430.25z M849.12,433.01c-0.1-0.17-0.21-0.34-0.31-0.51l-1.38,0.82
		c0.11,0.18,0.21,0.36,0.32,0.53L849.12,433.01L849.12,433.01z M850.93,435.6c-0.12-0.16-0.24-0.31-0.36-0.47l-1.29,0.96
		c0.12,0.17,0.25,0.33,0.38,0.5L850.93,435.6L850.93,435.6z M852.98,438.01c-0.14-0.14-0.27-0.29-0.4-0.44l-1.19,1.08
		c0.14,0.15,0.28,0.31,0.42,0.46L852.98,438.01L852.98,438.01z M855.25,440.19c-0.15-0.13-0.3-0.26-0.44-0.39l-1.08,1.19
		c0.15,0.14,0.31,0.28,0.47,0.41L855.25,440.19L855.25,440.19z M857.73,442.15c-0.16-0.11-0.32-0.23-0.48-0.35l-0.95,1.29
		c0.17,0.12,0.33,0.24,0.5,0.36L857.73,442.15L857.73,442.15z M860.39,443.85l-0.03-0.02c-0.16-0.09-0.32-0.19-0.48-0.28l-0.82,1.38
		c0.17,0.1,0.34,0.2,0.51,0.3l0.03,0.02L860.39,443.85z M863.2,445.29c-0.18-0.08-0.36-0.16-0.54-0.25l-0.69,1.45
		c0.19,0.09,0.38,0.18,0.56,0.26L863.2,445.29z M866.13,446.44c-0.19-0.06-0.37-0.13-0.56-0.19l-0.54,1.51
		c0.2,0.07,0.39,0.14,0.59,0.2L866.13,446.44z M869.17,447.31c-0.19-0.04-0.38-0.09-0.58-0.14l-0.39,1.56c0.2,0.05,0.4,0.1,0.6,0.15
		L869.17,447.31L869.17,447.31z M872.27,447.87c-0.19-0.03-0.39-0.05-0.58-0.08l-0.24,1.59c0.2,0.03,0.41,0.06,0.61,0.09
		L872.27,447.87L872.27,447.87z M875.41,448.11c-0.2-0.01-0.39-0.01-0.59-0.02l-0.08,1.6c0.21,0.01,0.41,0.02,0.62,0.02
		L875.41,448.11z M878.57,448.05c-0.2,0.01-0.39,0.02-0.59,0.03l0.08,1.6c0.21-0.01,0.41-0.02,0.62-0.04L878.57,448.05
		L878.57,448.05z M881.7,447.69c-0.19,0.03-0.39,0.06-0.58,0.09l0.24,1.59c0.2-0.03,0.41-0.06,0.61-0.1L881.7,447.69z
		 M884.78,447.01c-0.19,0.05-0.38,0.1-0.57,0.15l0.39,1.56c0.2-0.05,0.4-0.1,0.6-0.16L884.78,447.01L884.78,447.01z M887.79,446.04
		c-0.18,0.07-0.37,0.14-0.56,0.2l0.54,1.51c0.2-0.07,0.39-0.14,0.58-0.21L887.79,446.04L887.79,446.04z M890.68,444.79
		c-0.18,0.09-0.36,0.17-0.53,0.26l0.68,1.45c0.19-0.09,0.37-0.18,0.56-0.27L890.68,444.79L890.68,444.79z M893.44,443.25
		c-0.17,0.1-0.34,0.21-0.51,0.31l0.82,1.38c0.18-0.11,0.36-0.21,0.53-0.32L893.44,443.25z M896.04,441.45
		c-0.16,0.12-0.31,0.24-0.47,0.36l0.96,1.29c0.17-0.12,0.33-0.25,0.5-0.38L896.04,441.45L896.04,441.45z M898.44,439.4
		c-0.14,0.14-0.29,0.27-0.44,0.4l1.08,1.19c0.15-0.14,0.31-0.28,0.46-0.42L898.44,439.4L898.44,439.4z M900.63,437.13
		c-0.13,0.15-0.26,0.3-0.39,0.44l1.19,1.08c0.14-0.15,0.28-0.31,0.41-0.46L900.63,437.13L900.63,437.13z M902.59,434.65
		c-0.11,0.16-0.23,0.32-0.35,0.48l1.29,0.96c0.12-0.17,0.24-0.33,0.37-0.5L902.59,434.65L902.59,434.65z M904.29,431.99l-0.01,0.01
		c-0.1,0.17-0.19,0.33-0.29,0.5l1.38,0.83c0.1-0.17,0.21-0.35,0.31-0.52l0.01-0.01L904.29,431.99L904.29,431.99z M905.73,429.19
		c-0.08,0.18-0.16,0.36-0.25,0.54l1.45,0.69c0.09-0.19,0.18-0.38,0.26-0.56L905.73,429.19L905.73,429.19z M906.89,426.25
		c-0.06,0.19-0.13,0.37-0.2,0.56l1.51,0.54c0.07-0.2,0.14-0.39,0.2-0.59L906.89,426.25z M907.75,423.22
		c-0.04,0.19-0.09,0.38-0.14,0.58l1.56,0.39c0.05-0.2,0.1-0.4,0.15-0.6L907.75,423.22L907.75,423.22z M908.31,420.11
		c-0.03,0.19-0.05,0.39-0.08,0.58l1.59,0.24c0.03-0.2,0.06-0.41,0.09-0.61L908.31,420.11z M908.56,416.97
		c-0.01,0.2-0.01,0.39-0.02,0.59l1.6,0.08c0.01-0.21,0.02-0.41,0.02-0.62L908.56,416.97L908.56,416.97z M908.51,413.82
		c0.01,0.2,0.02,0.39,0.03,0.59l1.6-0.08c-0.01-0.21-0.02-0.41-0.04-0.62L908.51,413.82L908.51,413.82z M908.14,410.68
		c0.03,0.19,0.06,0.39,0.09,0.58l1.59-0.24c-0.03-0.2-0.06-0.41-0.1-0.61L908.14,410.68L908.14,410.68z M907.47,407.6
		c0.05,0.19,0.1,0.38,0.15,0.57l1.56-0.39c-0.05-0.2-0.1-0.4-0.16-0.6L907.47,407.6L907.47,407.6z M906.5,404.59
		c0.07,0.18,0.14,0.37,0.2,0.56l1.51-0.54c-0.07-0.2-0.14-0.39-0.21-0.58L906.5,404.59z M905.24,401.7
		c0.09,0.18,0.17,0.36,0.26,0.53l1.45-0.68c-0.09-0.19-0.18-0.37-0.27-0.56L905.24,401.7L905.24,401.7z M903.71,398.94
		c0.1,0.17,0.21,0.34,0.31,0.51l1.38-0.82c-0.11-0.18-0.21-0.36-0.32-0.53L903.71,398.94L903.71,398.94z M901.91,396.34
		c0.12,0.16,0.24,0.32,0.36,0.47l1.29-0.95c-0.12-0.17-0.25-0.33-0.38-0.5L901.91,396.34L901.91,396.34z M899.86,393.93
		c0.14,0.14,0.27,0.29,0.4,0.44l1.19-1.08c-0.14-0.15-0.28-0.31-0.42-0.46L899.86,393.93L899.86,393.93z M897.59,391.74
		c0.15,0.13,0.3,0.26,0.44,0.39l1.08-1.19c-0.15-0.14-0.31-0.28-0.46-0.41L897.59,391.74L897.59,391.74z M895.11,389.79
		c0.16,0.11,0.32,0.23,0.48,0.35l0.96-1.29c-0.17-0.12-0.33-0.24-0.5-0.37L895.11,389.79z"/>
</g>
<g>
	<line class="st8" x1="793.04" y1="262.58" x2="774.19" y2="229.65"/>
	<polyline class="st1" points="793.71,262.2 774.87,229.26 773.52,230.03 792.37,262.97 	"/>
	<polyline class="st1" points="906.42,246.2 911.68,198.05 910.14,197.88 904.88,246.03 	"/>
	<polyline class="st1" points="996.13,284.7 1021.51,263.17 1020.5,261.99 995.13,283.52 	"/>
	<polyline class="st1" points="1029.59,356 1064.87,347.34 1064.5,345.83 1029.22,354.5 	"/>
	<polyline class="st1" points="1045.55,445.52 1087.47,450.12 1087.64,448.58 1045.72,443.98 	"/>
	<polyline class="st1" points="1022.57,528.69 1040.1,540.77 1040.98,539.49 1023.45,527.42 	"/>
	<polyline class="st1" points="756.52,533.62 727.85,555.79 728.8,557.02 757.47,534.84 	"/>
	<polyline class="st1" points="705.79,432.64 673.25,435.26 673.38,436.81 705.92,434.18 	"/>
	<polyline class="st1" points="723.25,328.21 689.93,311.57 689.24,312.95 722.56,329.6 	"/>
</g>
<g>
	<g>
		<path class="st9" d="M850.03,424.18v190.99c0,14.34,11.62,25.96,25.96,25.96c14.34,0,25.96-11.62,25.96-25.96V424.18
			c0-14.34-11.62-25.96-25.96-25.96C861.66,398.21,850.03,409.84,850.03,424.18"/>
	</g>
	<g>
		<path class="st9" d="M898.05,523.6c-0.05,21.98-0.08,44.22-0.08,66.52c0,21.44,0.02,42.94,0.07,64.29
			c0.03,13.55,11.04,24.52,24.59,24.49c13.55-0.03,24.52-11.04,24.49-24.59c-0.05-21.32-0.07-42.78-0.07-64.18
			c0-22.26,0.03-44.47,0.08-66.41c0.03-13.55-10.93-24.57-24.48-24.6C909.09,499.08,898.08,510.05,898.05,523.6L898.05,523.6z"/>
		<path class="st9" d="M797.81,564.15c12.59,32.75,23.88,66.61,35.5,100.49c4.4,12.82,18.36,19.65,31.18,15.25
			c12.82-4.4,19.65-18.36,15.25-31.18c-11.53-33.61-23-68.04-36.11-102.17c-4.86-12.65-19.06-18.97-31.71-14.1
			C799.26,537.3,792.95,551.5,797.81,564.15L797.81,564.15z"/>
		<path class="st9" d="M944.28,535.33c-0.05,19.94-0.08,40.08-0.08,60.22c0,16.59,0.02,33.18,0.05,49.67
			c0.03,13.55,11.03,24.52,24.59,24.5c13.55-0.03,24.52-11.03,24.5-24.59c-0.03-16.46-0.05-33.02-0.05-49.58
			c0-20.1,0.02-40.19,0.08-60.08c0.04-13.55-10.92-24.57-24.47-24.61C955.34,510.82,944.32,521.77,944.28,535.33L944.28,535.33z"/>
		<path class="st9" d="M983.41,556.61c-0.06,16.87-0.08,33.72-0.08,50.56c0,11.69,0.01,23.37,0.03,35.07
			c0.02,13.55,11.03,24.52,24.58,24.5c13.55-0.02,24.52-11.03,24.5-24.58c-0.02-11.67-0.03-23.33-0.03-34.99
			c0-16.79,0.02-33.58,0.08-50.39c0.05-13.55-10.9-24.58-24.46-24.62C994.48,532.11,983.45,543.06,983.41,556.61L983.41,556.61z"/>
	</g>
	<path class="st9" d="M848.75,693.17c0,0-25.14-31.12-37.24-90.87c-12.09-59.75,46.95,17.78,46.95,17.78s24.19,36.99,24.9,41.26
		c0.71,4.27,5.69,24.19,5.69,24.19l-9.96,7.64"/>
	<path class="st9" d="M871.29,727.4c29.34,2.8,70.35,4.68,119.81,0.73c32.79-29.45,41.25-79.82,41.25-79.82
		s-43.25-24.02-51.78-29.97c-8.54-5.96-40.55-10.73-44.81-6.83c-4.27,3.89-28.81,0-28.81,0l-68.29,5.64l-9.21,42.07
		C829.45,659.2,847.31,708.46,871.29,727.4z"/>
	<path class="st9" d="M1000.41,736.08H869.6c-4.12,0-7.5-3.38-7.5-7.5v-15.79c0-4.12,3.38-7.5,7.5-7.5h130.81
		c4.12,0,7.5,3.38,7.5,7.5v15.79C1007.91,732.71,1004.53,736.08,1000.41,736.08z"/>
</g>
</svg>
