<?xml version="1.0" encoding="utf-8"?>
<!-- Generator: Adobe Illustrator 26.0.1, SVG Export Plug-In . SVG Version: 6.00 Build 0)  -->
<svg version="1.1" id="Layer_1" xmlns="http://www.w3.org/2000/svg" xmlns:xlink="http://www.w3.org/1999/xlink" x="0px" y="0px"
	 viewBox="0 0 720 720" style="enable-background:new 0 0 720 720;" xml:space="preserve">
<style type="text/css">
	.st0{fill:url(#SVGID_1_);}
	.st1{fill:url(#SVGID_00000008861296429584942500000014557762859216176029_);}
	.st2{fill:url(#SVGID_00000002361251950121283190000010564273667365444273_);}
	.st3{fill:url(#SVGID_00000111877940048745572380000005758932867885479832_);}
	.st4{fill:url(#SVGID_00000088125735562327405680000005989020117118953610_);}
	.st5{fill:url(#SVGID_00000065067739912141645790000006759205640263716264_);}
	.st6{fill:url(#SVGID_00000047022220269589723650000006142337278768939927_);}
	.st7{fill:url(#SVGID_00000148621008539082917730000015242520731761616565_);}
	.st8{fill:url(#SVGID_00000086652411408875944120000002918676735731695027_);}
	.st9{fill:url(#SVGID_00000066480104599607613330000013438516835400406698_);}
	.st10{fill:url(#SVGID_00000093887168743063557960000012458781633825778109_);}
	.st11{fill:url(#SVGID_00000021084611051596701290000005305415624654039687_);}
	.st12{fill:url(#SVGID_00000137101934298212379980000003948884833579964560_);}
	.st13{fill:url(#SVGID_00000164511306462791128920000008862259079981947294_);}
	.st14{fill:url(#SVGID_00000138559876236606775140000003301260607350266303_);}
	.st15{fill:url(#SVGID_00000060003267159188853060000008802395985642689417_);}
	.st16{fill:url(#SVGID_00000162351264720128511420000005452125578316002436_);}
	.st17{fill:url(#SVGID_00000101797055395404718840000007995808682225675680_);}
	.st18{fill:url(#SVGID_00000155863123778220547520000007923451582238316442_);}
</style>
<linearGradient id="SVGID_1_" gradientUnits="userSpaceOnUse" x1="51.22" y1="343.5001" x2="655.7721" y2="343.5001">
	<stop  offset="8.696908e-02" style="stop-color:#1E9CD7"/>
	<stop  offset="0.2254" style="stop-color:#1793D1"/>
	<stop  offset="0.4537" style="stop-color:#047AC1"/>
	<stop  offset="0.4909" style="stop-color:#0075BE"/>
	<stop  offset="0.751" style="stop-color:#0066A8"/>
	<stop  offset="0.9944" style="stop-color:#005B97"/>
	<stop  offset="1" style="stop-color:#CCE0F4"/>
</linearGradient>
<path class="st0" d="M51.2,377.1c0-20.6,0-41.2,0-61.8c3.4-1.8,1.8-5.4,2.8-8c0.9-7.1,1.4-14.3,2.7-21.3
	C80.5,161.7,180.9,64.9,306.4,44.6c4.3-0.7,10.9,4.5,13.6-3.4c21.5,0,43,0,64.5,0c0.7,2,2.3,2.4,4.1,2.5
	c57.9,6.1,109.8,27.4,154.4,64.5c60.4,50.3,100.1,112.8,107.8,193c0.3,3.3,1.9,6.6,5,8.7c0,22.4,0,44.8,0,67.2
	c-9,7.9-3.9,19-6.2,28.5c-29.3,118.4-101.8,195.5-219,229.7c-15.9,4.7-32.5,7-48.8,10.4c-20.6,0-41.2,0-61.8,0
	c-0.9-2.7-3.3-2.3-5.5-2.6C185.3,624.9,86.1,533.2,57.8,406.3C55.6,396.6,56.6,386.1,51.2,377.1z M61.4,369.7
	c-0.5,48.4,26.7,119,83.3,177.2c69,71,155.3,98.6,251.6,86.2c60.7-7.8,115.5-35.6,160-80c56.4-56.2,86.7-123.8,88.6-203.6
	c3.8-163.3-127.8-294.9-286.2-297.8C203.2,48.8,65.2,172.9,61.4,369.7z"/>
<linearGradient id="SVGID_00000052099690351195774700000006690959074640132228_" gradientUnits="userSpaceOnUse" x1="51.22" y1="311.2577" x2="54.0204" y2="311.2577">
	<stop  offset="8.696908e-02" style="stop-color:#1E9CD7"/>
	<stop  offset="0.2254" style="stop-color:#1793D1"/>
	<stop  offset="0.4537" style="stop-color:#047AC1"/>
	<stop  offset="0.4909" style="stop-color:#0075BE"/>
	<stop  offset="0.751" style="stop-color:#0066A8"/>
	<stop  offset="0.9944" style="stop-color:#005B97"/>
	<stop  offset="1" style="stop-color:#CCE0F4"/>
</linearGradient>
<path style="fill:url(#SVGID_00000052099690351195774700000006690959074640132228_);" d="M51.2,307.2c0.9,0,1.9,0,2.8,0
	c-1,2.6,0.6,6.2-2.8,8C51.2,312.6,51.2,309.9,51.2,307.2z"/>
<linearGradient id="SVGID_00000016037987311686589140000012963481491570329745_" gradientUnits="userSpaceOnUse" x1="325.3483" y1="356.6527" x2="513.5282" y2="356.6527">
	<stop  offset="8.696908e-02" style="stop-color:#1E9CD7"/>
	<stop  offset="0.2254" style="stop-color:#1793D1"/>
	<stop  offset="0.4537" style="stop-color:#047AC1"/>
	<stop  offset="0.4909" style="stop-color:#0075BE"/>
	<stop  offset="0.751" style="stop-color:#0066A8"/>
	<stop  offset="0.9944" style="stop-color:#005B97"/>
	<stop  offset="1" style="stop-color:#CCE0F4"/>
</linearGradient>
<path style="fill:url(#SVGID_00000016037987311686589140000012963481491570329745_);" d="M346.5,433.3c-0.6,14.1,7.2,24.9,15,35.3
	c4.6,6.2,8.6,2,11-2.8c5-10.1,7.4-21,9.1-32c7.8-49.5,8.7-99.6,13.3-149.3c2.2-23.5,3.8-47.2,11.1-69.9c2.9-9.1,5.7-19.2,17.9-20.9
	c12.7-1.7,18.7,7.2,24.2,15.7c11.4,17.8,17.1,38.1,24.9,57.6c5.3,13.2,10.5,26.5,16.5,39.4c3.5,7.4,7.3,14.6,18.3,15.1
	c8.9,0.5,5.8,6.6,1.7,11.2l0.3-0.3c-14.9,1.1-22.8-8.2-28.9-19.7c-10.1-19-16.6-39.4-24.2-59.4c-5.3-13.7-10.2-27.7-18.3-40.1
	c-3-4.5-6.4-9.9-12.1-9.5c-6,0.5-7.7,6.8-9.5,11.8c-6.7,18.7-8.6,38.4-10.4,57.9c-3.8,41.8-6.4,83.8-10.2,125.6c-0.9,9.5,4,9,10.1,9
	c29.5,0,59,0,88.6,0c2.7,0,5.4-0.1,8,0.1c3,0.2,7.6-0.7,7.6,3.3c-0.1,5.4-5.4,3.4-8.5,3.4c-22.4,0.2-44.7,0.1-67.1,0.1
	c-12.5,0-27.5-4.4-36.8,1c-9.9,5.8-5.4,22.9-9.1,34.7c-2.6,8.1-4.4,16.4-9.3,23.6c-2.8,4.1-6.2,9.1-11.4,8.1
	c-11.8-2.4-11.7,4.3-11.3,12.5c0.3,5.8,0.1,11.6,0,17.4c-0.1,3.7-0.5,7.6-5.3,7.8c-5.2,0.2-5.1-3.9-5.2-7.5
	c-0.1-7.6-0.1-15.2,0-22.8c0-4.1,0.5-8.2-5.8-8c-2.8,0.1-7.3,0.7-6.9-3.9c0.4-4.1,4.6-3.2,7.6-3.4c2.2-0.2,4.4-0.3,8.5-0.6
	c-8.9-17.8-16.6-35-20.3-53.6c-1.1-5.7-2.6-11.3-3.9-16.9c-0.9-3.8-0.5-7.8,3.8-8.7c4.3-0.9,5.8,2.7,6.7,6.6
	c2.2,10,4.7,19.9,7.2,29.9c0.4,1.7,1.1,3.4,3.5,2.9L346.5,433.3z"/>
<linearGradient id="SVGID_00000130609731383972962490000006488598812695540875_" gradientUnits="userSpaceOnUse" x1="192.2155" y1="300.3025" x2="397.3499" y2="300.3025">
	<stop  offset="8.696908e-02" style="stop-color:#1E9CD7"/>
	<stop  offset="0.2254" style="stop-color:#1793D1"/>
	<stop  offset="0.4537" style="stop-color:#047AC1"/>
	<stop  offset="0.4909" style="stop-color:#0075BE"/>
	<stop  offset="0.751" style="stop-color:#0066A8"/>
	<stop  offset="0.9944" style="stop-color:#005B97"/>
	<stop  offset="1" style="stop-color:#CCE0F4"/>
</linearGradient>
<path style="fill:url(#SVGID_00000130609731383972962490000006488598812695540875_);" d="M346.9,433.7c-0.1-24.2-0.4-48.3-0.4-72.5
	c0-6,0.8-12.1-8.5-11c-3.3,0.4-6.6-0.9-6.6-4.8c0.1-3.7,3.3-5.6,6.5-5.3c9,0.9,9-4.7,8.5-10.9c-0.1-1.3,0-2.7,0-4
	c-0.1-13,4.4-28.9-1.5-38.1c-6.6-10.2-23.8-2.1-36.2-4c-1.7-0.3-3.7-0.2-5-5.1c8.6-2.6,17.7-2,26.1-1.1c13.5,1.4,18.8-2.9,16.8-16.8
	c-1.1-7.9-0.2-16.1-0.2-24.1c0-17.4,0-17.4-18.1-17.4c-41.2,0-82.4,0.1-123.5-0.1c-4.5,0-12.7,2.6-12.6-3c0.1-6.9,8.5-3.8,13.2-3.9
	c43.4-0.3,86.8-0.1,130.3-0.3c3.9,0,10.8,2.3,10.3-4.6c-0.5-6.7,5.6-15.8-3.5-19.9c-6-2.7-7.4-5.6-3.4-9.5
	c4.4-4.3,7.8-15.4,16.2-8.1c3.5,3,21.4,8.2,3.3,18.7c-4.8,2.8-2.5,13.8-0.8,20.5c1.4,5.3,7.7,2.7,11.9,2.9
	c7.6,0.4,15.2,0.2,22.8,0.4c2.3,0.1,4.8,0.8,4.8,3.5c-0.1,2.8-2.7,3.2-4.9,3.3c-9,0.1-17.9,0.4-26.9,0c-6.3-0.3-8.7,1.9-8.5,8.4
	c0.4,13.4,0.5,26.9,0,40.3c-0.3,8,3.1,9.7,10.3,9.7c5.8,0,12.4-2.4,18.3,3c-5.5,5.6-12.1,3.4-17.7,3.2c-7.8-0.3-11.4,1.4-10.9,10.2
	c0.8,12,0.7,24.2,0,36.2c-0.4,8.2,2.1,11.7,10.5,10.5c3.1-0.4,6.3-0.1,9.4,0.4c2.8,0.4,5.1,2,5,5.3c-0.1,3.4-2.5,4.5-5.3,4.7
	c-3.1,0.2-6.3,0.4-9.4,0.1c-7.5-0.9-10.4,1.8-10.1,9.6c0.5,12.1,0.7,24.2,0,36.2c-0.6,9.2,2.6,13.3,12.6,12.4
	c-7.5,4-14.1,7.4-12.7,17.3c1.1,7.6-4.1,8.9-10.4,7.5C346.5,433.3,346.9,433.7,346.9,433.7z"/>
<linearGradient id="SVGID_00000170241766573447437610000002735784354019177108_" gradientUnits="userSpaceOnUse" x1="184.7284" y1="420.1701" x2="320.6774" y2="420.1701">
	<stop  offset="8.696908e-02" style="stop-color:#1E9CD7"/>
	<stop  offset="0.2254" style="stop-color:#1793D1"/>
	<stop  offset="0.4537" style="stop-color:#047AC1"/>
	<stop  offset="0.4909" style="stop-color:#0075BE"/>
	<stop  offset="0.751" style="stop-color:#0066A8"/>
	<stop  offset="0.9944" style="stop-color:#005B97"/>
	<stop  offset="1" style="stop-color:#CCE0F4"/>
</linearGradient>
<path style="fill:url(#SVGID_00000170241766573447437610000002735784354019177108_);" d="M320.6,421.3c0,26.4,0.1,52.8,0,79.2
	c-0.1,15.4-3.8,19.2-18.9,19.2c-32.6,0.1-65.3,0.1-97.9,0c-15-0.1-18.9-4-18.9-19.3c-0.1-53.7-0.1-107.3,0-161
	c0-14,4.6-18.7,18.3-18.7c33.1-0.2,66.2-0.2,99.3,0c13.7,0.1,18.1,4.7,18.2,18.8C320.7,366.7,320.6,394,320.6,421.3z M311,420.8
	c0-26-0.2-51.9,0.1-77.9c0.1-8.3-2-11.9-11.3-11.7c-31.3,0.6-62.7,0.6-94,0c-9.4-0.2-11.3,3.5-11.3,11.7c0.2,51.5,0.3,103-0.1,154.5
	c-0.1,9.8,3.9,11.9,12.7,11.8c30.4-0.4,60.9-0.6,91.3,0.1c10.5,0.2,12.9-3.7,12.7-13.3C310.6,471,311,445.9,311,420.8z"/>
<linearGradient id="SVGID_00000054246653354058568170000013358633073935065525_" gradientUnits="userSpaceOnUse" x1="409.0069" y1="345.4877" x2="529.7405" y2="345.4877">
	<stop  offset="8.696908e-02" style="stop-color:#1E9CD7"/>
	<stop  offset="0.2254" style="stop-color:#1793D1"/>
	<stop  offset="0.4537" style="stop-color:#047AC1"/>
	<stop  offset="0.4909" style="stop-color:#0075BE"/>
	<stop  offset="0.751" style="stop-color:#0066A8"/>
	<stop  offset="0.9944" style="stop-color:#005B97"/>
	<stop  offset="1" style="stop-color:#CCE0F4"/>
</linearGradient>
<path style="fill:url(#SVGID_00000054246653354058568170000013358633073935065525_);" d="M509.5,332.7c11.4-5.1,16,4.7,19.4,11.1
	c3.6,6.8-5.6,9.8-9.6,14.1c-1.9,2-6.3,2.9-7,0.4c-3.9-13-14.2-7.2-21.7-7.4c-23.6-0.7-47.3-0.2-70.9-0.3c-4.1,0-10.5,1.7-10.7-4.6
	c-0.3-7.2,6.5-5.9,11.1-5.9c26.8-0.1,53.5,0,80.3-0.1c4.9,0,11.9,2,9.5-7.5C509.8,332.4,509.5,332.7,509.5,332.7z"/>
<linearGradient id="SVGID_00000015313421727986760300000002146923272940590504_" gradientUnits="userSpaceOnUse" x1="225.1912" y1="289.9862" x2="302.5762" y2="289.9862">
	<stop  offset="8.696908e-02" style="stop-color:#1E9CD7"/>
	<stop  offset="0.2254" style="stop-color:#1793D1"/>
	<stop  offset="0.4537" style="stop-color:#047AC1"/>
	<stop  offset="0.4909" style="stop-color:#0075BE"/>
	<stop  offset="0.751" style="stop-color:#0066A8"/>
	<stop  offset="0.9944" style="stop-color:#005B97"/>
	<stop  offset="1" style="stop-color:#CCE0F4"/>
</linearGradient>
<path style="fill:url(#SVGID_00000015313421727986760300000002146923272940590504_);" d="M270.9,270.4c14-0.9,32.2,16.5,31.7,31.3
	c-0.1,2.4-0.8,4.5-3.1,5.3c-3,1-5.1-0.3-6.5-3.1c-2.3-4.8-4.2-9.9-7-14.4c-7.2-11.7-15.3-13.5-26.9-6.3c-9.6,6-16.6,14.8-24,23.1
	c-2.1,2.4-4.6,4.8-7.9,1.8c-2.3-2.1-2.6-5.2-0.7-7.3C238.6,287.6,248,270.1,270.9,270.4z"/>
<linearGradient id="SVGID_00000002344943225815875800000013337302173268339134_" gradientUnits="userSpaceOnUse" x1="384.421" y1="477.9747" x2="510.5214" y2="477.9747">
	<stop  offset="8.696908e-02" style="stop-color:#1E9CD7"/>
	<stop  offset="0.2254" style="stop-color:#1793D1"/>
	<stop  offset="0.4537" style="stop-color:#047AC1"/>
	<stop  offset="0.4909" style="stop-color:#0075BE"/>
	<stop  offset="0.751" style="stop-color:#0066A8"/>
	<stop  offset="0.9944" style="stop-color:#005B97"/>
	<stop  offset="1" style="stop-color:#CCE0F4"/>
</linearGradient>
<path style="fill:url(#SVGID_00000002344943225815875800000013337302173268339134_);" d="M447.6,481.6c-18.3,0-36.6,0.1-54.8-0.1
	c-3.2,0-8.3,1.4-8.4-3.8c0-4,4.5-3.5,7.5-3.5c37,0,74-0.1,111,0c3,0,7.4-0.7,7.6,3.3c0.2,5.4-4.9,4-8.1,4
	C484.2,481.7,465.9,481.6,447.6,481.6z"/>
<linearGradient id="SVGID_00000127748102098939589210000002669230975341738414_" gradientUnits="userSpaceOnUse" x1="457.2641" y1="215.085" x2="510.6226" y2="215.085">
	<stop  offset="8.696908e-02" style="stop-color:#1E9CD7"/>
	<stop  offset="0.2254" style="stop-color:#1793D1"/>
	<stop  offset="0.4537" style="stop-color:#047AC1"/>
	<stop  offset="0.4909" style="stop-color:#0075BE"/>
	<stop  offset="0.751" style="stop-color:#0066A8"/>
	<stop  offset="0.9944" style="stop-color:#005B97"/>
	<stop  offset="1" style="stop-color:#CCE0F4"/>
</linearGradient>
<path style="fill:url(#SVGID_00000127748102098939589210000002669230975341738414_);" d="M483.7,218.5c-7.1,0-14.2,0.1-21.3,0
	c-2.1,0-4.8,0-5.1-3c-0.3-2.8,2-3.8,4.3-3.8c15.1-0.1,30.2-0.1,45.3,0.2c1.3,0,3.4,1.8,3.7,3c0.5,2.9-1.9,3.5-4.2,3.5
	C498.8,218.5,491.2,218.4,483.7,218.5C483.7,218.5,483.7,218.5,483.7,218.5z"/>
<linearGradient id="SVGID_00000183222802810339281830000005050258993386858125_" gradientUnits="userSpaceOnUse" x1="191.5573" y1="280.1094" x2="233.72" y2="280.1094">
	<stop  offset="8.696908e-02" style="stop-color:#1E9CD7"/>
	<stop  offset="0.2254" style="stop-color:#1793D1"/>
	<stop  offset="0.4537" style="stop-color:#047AC1"/>
	<stop  offset="0.4909" style="stop-color:#0075BE"/>
	<stop  offset="0.751" style="stop-color:#0066A8"/>
	<stop  offset="0.9944" style="stop-color:#005B97"/>
	<stop  offset="1" style="stop-color:#CCE0F4"/>
</linearGradient>
<path style="fill:url(#SVGID_00000183222802810339281830000005050258993386858125_);" d="M233.2,281.9c-12.5,2.7-25.2,0.9-37.9,1.1
	c-1.9,0-3.6-0.9-3.8-2.9c-0.2-2.2,1.5-3.1,3.4-3.1c12.9-0.1,25.8,0,38.8,0C233.5,278.5,233.4,280.2,233.2,281.9z"/>
<linearGradient id="SVGID_00000131362166119362768760000013615132242155991973_" gradientUnits="userSpaceOnUse" x1="414.5541" y1="280.1284" x2="459.1068" y2="280.1284">
	<stop  offset="8.696908e-02" style="stop-color:#1E9CD7"/>
	<stop  offset="0.2254" style="stop-color:#1793D1"/>
	<stop  offset="0.4537" style="stop-color:#047AC1"/>
	<stop  offset="0.4909" style="stop-color:#0075BE"/>
	<stop  offset="0.751" style="stop-color:#0066A8"/>
	<stop  offset="0.9944" style="stop-color:#005B97"/>
	<stop  offset="1" style="stop-color:#CCE0F4"/>
</linearGradient>
<path style="fill:url(#SVGID_00000131362166119362768760000013615132242155991973_);" d="M459.1,281.9c-13.5,2.7-27.4,0.9-41.1,1
	c-1.8,0-3.4-0.9-3.4-3.2c0.1-2.4,2.1-2.8,3.7-2.8c13.6-0.1,27.2-0.1,40.9-0.1C459.1,278.5,459.1,280.2,459.1,281.9z"/>
<linearGradient id="SVGID_00000052793660414919164690000003147071171989325726_" gradientUnits="userSpaceOnUse" x1="482.3329" y1="279.8873" x2="510.3771" y2="279.8873">
	<stop  offset="8.696908e-02" style="stop-color:#1E9CD7"/>
	<stop  offset="0.2254" style="stop-color:#1793D1"/>
	<stop  offset="0.4537" style="stop-color:#047AC1"/>
	<stop  offset="0.4909" style="stop-color:#0075BE"/>
	<stop  offset="0.751" style="stop-color:#0066A8"/>
	<stop  offset="0.9944" style="stop-color:#005B97"/>
	<stop  offset="1" style="stop-color:#CCE0F4"/>
</linearGradient>
<path style="fill:url(#SVGID_00000052793660414919164690000003147071171989325726_);" d="M482.3,279.8c3.6-1.9,4.7-3,5.8-3
	c7.4,0.4,15-2.2,22,1.9c0.4,0.3,0,3.3-0.3,3.4C501.4,283.3,492.7,285.1,482.3,279.8z"/>
<linearGradient id="SVGID_00000001635158287665665310000009311084186599971219_" gradientUnits="userSpaceOnUse" x1="204.7453" y1="378.3338" x2="300.6821" y2="378.3338">
	<stop  offset="8.696908e-02" style="stop-color:#1E9CD7"/>
	<stop  offset="0.2254" style="stop-color:#1793D1"/>
	<stop  offset="0.4537" style="stop-color:#047AC1"/>
	<stop  offset="0.4909" style="stop-color:#0075BE"/>
	<stop  offset="0.751" style="stop-color:#0066A8"/>
	<stop  offset="0.9944" style="stop-color:#005B97"/>
	<stop  offset="1" style="stop-color:#CCE0F4"/>
</linearGradient>
<path style="fill:url(#SVGID_00000001635158287665665310000009311084186599971219_);" d="M251.8,417.5c-12.5,0-25-0.3-37.5,0.1
	c-7,0.2-9.5-2.6-9.4-9.4c0.2-19.7,0.3-39.3,0-59c-0.1-7.4,2.3-10.3,10-10.2c25.5,0.4,50.9,0.3,76.4,0c6.9-0.1,9.5,2.5,9.4,9.4
	c-0.3,19.7-0.4,39.3,0.1,59c0.2,8.7-3.7,10.5-11.4,10.2C276.8,417.2,264.3,417.5,251.8,417.5z M255,345.3c-13.1,0-23.9,0.3-34.6-0.1
	c-6.5-0.2-8.6,2.3-8.5,8.6c0.3,16.1,0.3,32.2,0,48.3c-0.2,7,2.3,9.5,9.3,9.3c15.7-0.4,31.3-0.1,47-0.1c25.2,0,25.3,0,25.1-25.4
	c-0.1-12.9,4.3-30-2.2-37.7C283.6,339.3,265.9,346.8,255,345.3z"/>
<linearGradient id="SVGID_00000012473092256053394430000003765313390633691799_" gradientUnits="userSpaceOnUse" x1="203.0876" y1="463.8471" x2="227.3221" y2="463.8471">
	<stop  offset="8.696908e-02" style="stop-color:#1E9CD7"/>
	<stop  offset="0.2254" style="stop-color:#1793D1"/>
	<stop  offset="0.4537" style="stop-color:#047AC1"/>
	<stop  offset="0.4909" style="stop-color:#0075BE"/>
	<stop  offset="0.751" style="stop-color:#0066A8"/>
	<stop  offset="0.9944" style="stop-color:#005B97"/>
	<stop  offset="1" style="stop-color:#CCE0F4"/>
</linearGradient>
<path style="fill:url(#SVGID_00000012473092256053394430000003765313390633691799_);" d="M226.9,473.1c0,8.8,0.5,14.7-0.1,20.4
	c-0.6,6.2-5,9.4-11,9.4c-6.6,0-12-3.2-11.6-10.1c0.8-13.9-4.5-28.5,3.5-41.6c2.6-4.3-1.5-5.1-2.4-7.7c-2.1-6.2-3-12.6,3.6-16.6
	c5.4-3.3,11.8-3,15.7,2.1c4.1,5.4,3.8,11.6-1.2,17c-1.1,1.2-6,1.7-3,3.6C231.4,456.6,225.6,467.2,226.9,473.1z M220.3,475.5
	c0-4.9,0.1-9.7,0-14.6c-0.1-3-1.6-5.1-4.7-5.2c-3.1-0.1-5.2,1.8-5.2,4.8c-0.2,10.2-0.1,20.3,0.1,30.5c0.1,3.2,2.4,4.5,5.4,4.4
	c3.4-0.1,4.5-2.3,4.5-5.3C220.3,485.3,220.3,480.4,220.3,475.5z"/>
<linearGradient id="SVGID_00000039095308659643354820000005338254806204014520_" gradientUnits="userSpaceOnUse" x1="236.5883" y1="436.5489" x2="300.218" y2="436.5489">
	<stop  offset="8.696908e-02" style="stop-color:#1E9CD7"/>
	<stop  offset="0.2254" style="stop-color:#1793D1"/>
	<stop  offset="0.4537" style="stop-color:#047AC1"/>
	<stop  offset="0.4909" style="stop-color:#0075BE"/>
	<stop  offset="0.751" style="stop-color:#0066A8"/>
	<stop  offset="0.9944" style="stop-color:#005B97"/>
	<stop  offset="1" style="stop-color:#CCE0F4"/>
</linearGradient>
<path style="fill:url(#SVGID_00000039095308659643354820000005338254806204014520_);" d="M268.5,447.3c-7.1,0-14.3,0.1-21.4-0.1
	c-6.2-0.2-10.1-3.3-10.5-9.7c-0.4-7.1,3.5-11.2,10.2-11.4c14.3-0.4,28.5-0.4,42.8-0.1c6.8,0.2,10.9,4.5,10.5,11.3
	c-0.4,6.7-4.5,10.3-11.6,10.1C281.9,447.1,275.2,447.3,268.5,447.3z M269.7,433c0,0,0-0.1,0-0.1c-6.7,0-13.4-0.1-20.1,0
	c-2.7,0-5.8,0.6-5.7,4.1c0,2.4,2,4,4.5,4c13.4,0,26.8,0,40.2,0c2.5,0,4.2-1.4,4.3-4.1c0-2.9-2.1-3.7-4.4-3.8
	C282.2,432.9,275.9,433,269.7,433z"/>
<linearGradient id="SVGID_00000138574455415241382580000017978700905190109582_" gradientUnits="userSpaceOnUse" x1="236.5959" y1="492.3374" x2="300.179" y2="492.3374">
	<stop  offset="8.696908e-02" style="stop-color:#1E9CD7"/>
	<stop  offset="0.2254" style="stop-color:#1793D1"/>
	<stop  offset="0.4537" style="stop-color:#047AC1"/>
	<stop  offset="0.4909" style="stop-color:#0075BE"/>
	<stop  offset="0.751" style="stop-color:#0066A8"/>
	<stop  offset="0.9944" style="stop-color:#005B97"/>
	<stop  offset="1" style="stop-color:#CCE0F4"/>
</linearGradient>
<path style="fill:url(#SVGID_00000138574455415241382580000017978700905190109582_);" d="M268.8,481.6c7.1,0,14.3-0.1,21.4,0
	c6.7,0.1,9.8,4.4,9.9,10.3c0.2,6-3.1,10.8-9.4,10.9c-14.7,0.4-29.5,0.5-44.2,0c-6.7-0.2-10.5-4.8-10-11.7c0.5-6.4,4.5-9.4,10.7-9.5
	C254.5,481.5,261.7,481.5,268.8,481.6z M268.3,495.9C268.3,495.9,268.3,495.9,268.3,495.9c6.3,0.1,12.5,0.2,18.8,0
	c2.6-0.1,5.8-0.2,5.7-3.9c0-2.6-2-3.9-4.5-3.9c-13.4-0.1-26.9-0.1-40.3-0.1c-2.6,0-4.3,1.7-4.4,4.1c-0.1,2.8,2.1,3.7,4.5,3.8
	C254.9,495.9,261.6,495.9,268.3,495.9z"/>
<linearGradient id="SVGID_00000165196598197028386310000018398391283937543615_" gradientUnits="userSpaceOnUse" x1="236.6115" y1="464.4341" x2="300.165" y2="464.4341">
	<stop  offset="8.696908e-02" style="stop-color:#1E9CD7"/>
	<stop  offset="0.2254" style="stop-color:#1793D1"/>
	<stop  offset="0.4537" style="stop-color:#047AC1"/>
	<stop  offset="0.4909" style="stop-color:#0075BE"/>
	<stop  offset="0.751" style="stop-color:#0066A8"/>
	<stop  offset="0.9944" style="stop-color:#005B97"/>
	<stop  offset="1" style="stop-color:#CCE0F4"/>
</linearGradient>
<path style="fill:url(#SVGID_00000165196598197028386310000018398391283937543615_);" d="M268.1,475c-6.7,0-13.3,0.1-20,0
	c-6.5-0.1-11.2-2.7-11.5-10.1c-0.2-7.3,4-10.7,10.6-10.9c14.2-0.3,28.5-0.2,42.7,0c6.3,0.1,10.1,4,10.2,10.1
	c0.1,6.7-3.7,10.8-10.7,10.9C282.3,475.1,275.2,475,268.1,475z M268,468.3c6.2,0,12.5,0.1,18.7,0c2.6,0,5.7,0.3,6.1-3.4
	c0.4-3.7-2.3-4.3-5.1-4.3c-12.9,0-25.9,0-38.8,0c-2.4,0-4.7,0.8-4.9,3.4c-0.3,3.5,2.5,4.3,5.3,4.3
	C255.5,468.3,261.7,468.3,268,468.3z"/>
<linearGradient id="SVGID_00000133530310433522631230000004641175301286086839_" gradientUnits="userSpaceOnUse" x1="228.1112" y1="378.2275" x2="258.2234" y2="378.2275">
	<stop  offset="8.696908e-02" style="stop-color:#1E9CD7"/>
	<stop  offset="0.2254" style="stop-color:#1793D1"/>
	<stop  offset="0.4537" style="stop-color:#047AC1"/>
	<stop  offset="0.4909" style="stop-color:#0075BE"/>
	<stop  offset="0.751" style="stop-color:#0066A8"/>
	<stop  offset="0.9944" style="stop-color:#005B97"/>
	<stop  offset="1" style="stop-color:#CCE0F4"/>
</linearGradient>
<path style="fill:url(#SVGID_00000133530310433522631230000004641175301286086839_);" d="M258.2,358.2c-0.4,0.5-1.4,2.4-1.9,2.3
	c-11-2-7.3,7.1-8.4,11.6c-1.9,8.2-1.9,16.8-3.9,25c-1.7,7.1-6.6,10.9-13.8,5.9c-2.2-1.5-3.4-7.7,0.5-6.7c11.1,3,7.6-5.4,8.5-9.6
	c2.1-10,3.2-20.2,5.3-30.1c0.9-4.4,4.5-6.5,9.3-4.8C256.3,352.7,258.4,354.3,258.2,358.2z"/>
<linearGradient id="SVGID_00000000195230270648007000000006927823899892879784_" gradientUnits="userSpaceOnUse" x1="254.3007" y1="380.6557" x2="277.3154" y2="380.6557">
	<stop  offset="8.696908e-02" style="stop-color:#1E9CD7"/>
	<stop  offset="0.2254" style="stop-color:#1793D1"/>
	<stop  offset="0.4537" style="stop-color:#047AC1"/>
	<stop  offset="0.4909" style="stop-color:#0075BE"/>
	<stop  offset="0.751" style="stop-color:#0066A8"/>
	<stop  offset="0.9944" style="stop-color:#005B97"/>
	<stop  offset="1" style="stop-color:#CCE0F4"/>
</linearGradient>
<path style="fill:url(#SVGID_00000000195230270648007000000006927823899892879784_);" d="M277.3,367.1c-2.7,7.6-10.1,15.8-0.7,24.1
	c1.2,1.1,0.7,3.6-1.1,4.4c-1.8,0.8-3.5-0.1-4.5-1.8c-3.3-5.3-6.5-7.2-10.1-0.2c-1.1,2.3-3.4,3.2-5.5,1.4c-2.2-1.9-0.8-4.5,0.5-5.9
	c4.8-5.3,6.3-10.3,0.8-16.2c-1.7-1.8-3.8-4.7-1-7c2.9-2.3,4.7,0.7,6.1,2.8C269.4,379.8,269.9,361.7,277.3,367.1z"/>
</svg>
