<?xml version="1.0" encoding="utf-8"?>
<!-- Generator: Adobe Illustrator 26.0.1, SVG Export Plug-In . SVG Version: 6.00 Build 0)  -->
<svg version="1.1" id="Layer_1" xmlns="http://www.w3.org/2000/svg" xmlns:xlink="http://www.w3.org/1999/xlink" x="0px" y="0px"
	 viewBox="0 0 1080 1080" style="enable-background:new 0 0 1080 1080;" xml:space="preserve">
<style type="text/css">
	.st0{fill:url(#SVGID_1_);}
	.st1{fill:url(#SVGID_00000049925254163724041730000007576365484886877333_);}
	.st2{fill:url(#SVGID_00000039844963864221337800000002418895215410021255_);}
	.st3{fill:url(#SVGID_00000163065541383213460490000015844813991935569573_);}
	.st4{fill:url(#SVGID_00000138534322707686524280000005220807424080910727_);}
	.st5{fill:url(#SVGID_00000073685473022163975420000006166866075167894169_);}
	.st6{fill:url(#SVGID_00000125599744415439703320000016932523019876058782_);}
	.st7{fill:url(#SVGID_00000028298711211600912140000008278710410957541555_);}
	.st8{fill:url(#SVGID_00000088852819159626542650000009402932719820072072_);}
	.st9{fill:url(#SVGID_00000170990163354807022100000005979426875009791679_);}
	.st10{fill:url(#SVGID_00000147930819594074484790000001300316289175563671_);}
	.st11{fill:url(#SVGID_00000086690786609424210820000017580806017099476148_);}
	.st12{fill:url(#SVGID_00000089572302540069275960000010465584753547271839_);}
	.st13{fill:url(#SVGID_00000120518181918563302790000015043104507887679414_);}
	.st14{fill:url(#SVGID_00000003065102965186033840000010644064857851478178_);}
	.st15{fill:url(#SVGID_00000080929320527574759670000016052010494145348252_);}
	.st16{fill:url(#SVGID_00000170963966123560811470000015839159257279769009_);}
	.st17{fill:url(#SVGID_00000061459087763825674340000009237160320854792086_);}
	.st18{fill:url(#SVGID_00000003067541474448916680000014135820223873201553_);}
	.st19{fill:url(#SVGID_00000090285129507536878680000012930622133014296737_);}
	.st20{fill:url(#SVGID_00000018205890168297213230000017133661952661660057_);}
	.st21{fill:url(#SVGID_00000176728008876917567910000008076904265418797497_);}
	.st22{fill:url(#SVGID_00000102511027372850311710000007322677990585395890_);}
</style>
<linearGradient id="SVGID_1_" gradientUnits="userSpaceOnUse" x1="91.1195" y1="522.5524" x2="1040.8107" y2="522.5524">
	<stop  offset="1.992996e-02" style="stop-color:#1E9CD7"/>
	<stop  offset="0.1762" style="stop-color:#1B98D4"/>
	<stop  offset="0.3258" style="stop-color:#138DCD"/>
	<stop  offset="0.4723" style="stop-color:#0579C0"/>
	<stop  offset="0.5112" style="stop-color:#0073BC"/>
	<stop  offset="0.6235" style="stop-color:#0075BE"/>
	<stop  offset="0.6249" style="stop-color:#0075BE"/>
	<stop  offset="0.8257" style="stop-color:#0074BC"/>
	<stop  offset="0.898" style="stop-color:#006FB5"/>
	<stop  offset="0.9494" style="stop-color:#0067AA"/>
	<stop  offset="0.9908" style="stop-color:#005C99"/>
	<stop  offset="0.9944" style="stop-color:#005B97"/>
</linearGradient>
<path class="st0" d="M642.5,843.8c0,13.7,0,26.4,0,39.4c13.5,3.4,27.3,5.8,40.4,10.4c13.1,4.7,26.3,10.1,37.7,17.8
	c18,12.3,19,33.8,1.3,46.5c-13.1,9.4-28.7,16.9-44.3,21.1c-63.1,17-127.7,19.3-192.6,16.8c-41.4-1.6-82.8-5.1-122.8-16.5
	c-13.6-3.9-27.3-9.3-39.2-16.8c-24.4-15.4-23.5-39.6,0.9-55c19.2-12.1,41.1-16.9,62.9-21.6c3.4-0.7,6.7-1.5,10.3-2.2
	c0-13.2,0-25.9,0-39.9c-3.5,0-6.9,0-10.3,0c-71.1,0-142.2,0-213.3,0c-50.3,0-82.2-32.1-82.2-82.6c0-169.3,0-338.5,0-507.8
	c0-51.1,31.8-82.9,82.9-82.9c161.6,0,323.3,0,484.9,0c3.7,0,7.4,0,12.1,0c-1-2.8-1.5-4.5-2.3-6.2c-8.2-18.3-8.2-18.3,5.7-32.1
	c19.8-19.8,39.8-39.5,59.4-59.6c4.7-4.8,8.3-6.1,14.7-2.8c25.6,13.3,23.6,13,32.8-13.2c0.9-2.7,2-5.3,3-8.2c37.8,0,75.3,0,113.4,0
	c2.7,7.5,5.5,14.9,8.1,22.4c2.5,7.3,6.9,9.1,13.9,6c7.4-3.3,15.6-9.6,22.4-8.4c6.5,1.1,11.7,10.1,17.3,15.7
	c18.5,18.5,36.7,37.2,55.6,55.3c5.7,5.5,6.6,9.9,2.4,16.3c-2.6,4-4.1,8.6-6.3,12.9c-3.2,6.5-1.5,10.9,5.2,13.5
	c7.7,2.9,18.8,3.9,22.1,9.4c4,6.7,1.4,17.3,1.4,26.2c0.1,28.4,0,56.7,0,85.9c-7.4,2.7-14.7,5.8-22.1,8.1c-8,2.5-9.9,6.9-6.5,14.4
	c3.3,7.4,9.4,15.7,8.2,22.4c-1.2,6.5-10.1,11.6-15.8,17.2c-16.2,16.2-32.3,32.6-48.8,48.6c-5,4.8-7,9.6-7,16.6
	c0.2,110,0.2,219.9,0.2,329.9c0,51.1-31.8,83-82.8,83c-70.5,0-140.9,0-211.4,0C650.5,843.8,647,843.8,642.5,843.8z M183.4,659.5
	c224.6,0,448.5,0,672.5,0c0-71.3,0-142,0-212.4c-1-0.5-1.5-0.9-2.1-0.9c-14-0.1-28.1-0.1-42.1-0.2c-8.9-0.1-19.5,2.6-26.2-1.4
	c-5.6-3.3-6.6-14.3-9.5-22c-2.6-6.8-7-8.5-13.5-5.3c-4.3,2.1-9,3.5-12.8,6.3c-7.1,5.1-11.6,2.4-16.9-3.1
	c-18-18.5-36.5-36.6-54.7-54.9c-5.8-5.8-14.6-11.3-16-18.2c-1.3-6.3,5.2-14.4,8.6-21.5c3.3-7,1.4-11.5-5.9-14
	c-7.5-2.6-14.9-5.4-23.2-8.4c0-13.6,0-27.2,0-40.6c-153.3,0-305.6,0-458.3,0C183.4,395.1,183.4,526.9,183.4,659.5z M641.9,201.1
	c-4,0-7.1,0-10.3,0c-153,0-306.1,0-459.1,0c-32.3,0-50.8,18.6-50.8,51.2c0,169.9,0,339.8,0,509.7c0,33,18.4,51.2,51.7,51.2
	c230.8,0,461.6,0,692.5,0c33.2,0,51.7-18.3,51.7-51.3c0-111.9,0-223.8,0-335.6c0-3.4,0-6.8,0-11.9c-17.2,5.2-12.6,22.5-20.9,31.2
	c-3,0.2-6.1,0.5-9.7,0.8c0,4.1,0,7.6,0,11.1c0,65.7,0,131.3,0,197c0,24.8-11.5,36.3-36.2,36.3c-220.6,0-441.2,0-661.9,0
	c-25.3,0-36.6-11.3-36.6-36.9c0-128.5,0-256.9,0-385.4c0-25.4,11.4-36.8,36.6-36.8c147.3,0,294.6,0,441.9,0c3.7,0,7.3,0,11,0
	C641.9,220.9,641.9,211.7,641.9,201.1z M747.5,391.6c12-11.3,24.2-9.3,38.1-2.9c9.5,4.4,15.8,9.1,18.1,19.4c0.6,2.8,5.1,6.8,7.9,6.9
	c19.7,0.6,39.5,0.5,59.3,0.1c2.3,0,6.3-2.7,6.6-4.6c2.2-13.5,11.4-18.4,23-23.2c10.5-4.4,19.2-6.3,29.1,0.4c2.1,1.4,7.6,0.8,9.5-1
	c14.3-13.6,28.2-27.6,42-41.8c1.6-1.7,2.7-6.3,1.6-7.8c-8.2-11.4-5.3-21.7-0.1-33.5c4.2-9.7,8.3-17.4,19.6-18.9
	c6.3-0.9,7.6-4.9,7.5-10.9c-0.4-17.8-0.5-35.7,0-53.5c0.2-6.7-1.9-10.2-8.3-11.3c-9.8-1.6-13.9-7.9-18.1-16.7
	c-6.7-14.1-8.9-26.6,2.3-39.2c-14.6-14.5-28.8-27.8-42-42.1c-6-6.5-11.2-8.2-18.4-3c-6.6,4.7-13.2,5.2-20.1,0.3c-2-1.4-4.5-2.5-7-3
	c-11.1-2.2-17.9-8.5-19.6-20c-0.8-5.3-3.9-6.9-9.4-6.8c-18.5,0.4-37,0.5-55.4,0c-6.5-0.2-9,2.5-10.6,8c-1.3,4.5-2.2,11-5.4,12.8
	c-9.3,5.3-19.4,9.7-29.8,12.5c-3.9,1-9-3.8-13.9-5.1c-3.4-0.9-8.6-1.7-10.5,0.2c-14.6,13.8-28.7,28.1-42.7,42.5
	c-1.5,1.5-2.5,5.7-1.5,7.1c8.3,11.6,5.6,22.2,0.2,34.3c-4.4,9.8-8.9,16.9-19.9,18.7c-5.1,0.8-7.2,3.6-7,9.2
	c0.4,18.8,0.3,37.6,0.1,56.4c0,4.7,0.5,8.1,6,8.9c12.1,1.8,16.9,9.9,21.5,20.8c4.9,11.5,7.1,21-0.4,31.7c-1.2,1.7-0.5,6.3,1,7.9
	C715.8,360,731.2,375.2,747.5,391.6z M427.9,844.1c0,15.8-0.3,30.8,0.1,45.7c0.2,9,6.1,15,15.2,15.1c50.9,0.2,101.9,0.2,152.8,0
	c8.4,0,14.6-4.9,15-13.1c0.8-15.7,0.2-31.6,0.2-47.7C549.9,844.1,489.5,844.1,427.9,844.1z M337.6,933.9c0.1,0.9,0.2,1.9,0.2,2.8
	c4.1,2.2,7.9,5.1,12.2,6.4c16.5,4.8,32.9,10.2,49.7,13.3c60.5,11,121.6,12.1,182.8,7.4c34.3-2.6,68.4-6.9,101.1-18.5
	c6.3-2.2,12.1-5.6,19.9-9.3c-21.9-13.3-43.7-17.6-65.6-21.3c-1.9-0.3-4.9,2.3-6.6,4.2c-9.9,11.2-22.1,16.7-37,16.7
	c-50,0-100,0-150,0c-11.2,0-23-2.1-29.6-10.8c-9.2-12.3-19.3-10.2-30.9-6.9c-6.1,1.8-12.5,2.7-18.5,4.8
	C355.9,926.1,346.8,930.1,337.6,933.9z"/>
<linearGradient id="SVGID_00000018222136038949420550000006220985353247180176_" gradientUnits="userSpaceOnUse" x1="214.0138" y1="491.7495" x2="610.7222" y2="491.7495">
	<stop  offset="1.992996e-02" style="stop-color:#1E9CD7"/>
	<stop  offset="0.1762" style="stop-color:#1B98D4"/>
	<stop  offset="0.3258" style="stop-color:#138DCD"/>
	<stop  offset="0.4723" style="stop-color:#0579C0"/>
	<stop  offset="0.5112" style="stop-color:#0073BC"/>
	<stop  offset="0.6235" style="stop-color:#0075BE"/>
	<stop  offset="0.6249" style="stop-color:#0075BE"/>
	<stop  offset="0.8257" style="stop-color:#0074BC"/>
	<stop  offset="0.898" style="stop-color:#006FB5"/>
	<stop  offset="0.9494" style="stop-color:#0067AA"/>
	<stop  offset="0.9908" style="stop-color:#005C99"/>
	<stop  offset="0.9944" style="stop-color:#005B97"/>
</linearGradient>
<path style="fill:url(#SVGID_00000018222136038949420550000006220985353247180176_);" d="M214,506.5c0-10.1,0-19.6,0-29.5
	c132.3,0,264.1,0,396.7,0c0,9.5,0,19.1,0,29.5C478.9,506.5,346.8,506.5,214,506.5z"/>
<linearGradient id="SVGID_00000183214656643539754530000009467311906063339942_" gradientUnits="userSpaceOnUse" x1="275.3499" y1="552.9562" x2="610.7536" y2="552.9562">
	<stop  offset="1.992996e-02" style="stop-color:#1E9CD7"/>
	<stop  offset="0.1762" style="stop-color:#1B98D4"/>
	<stop  offset="0.3258" style="stop-color:#138DCD"/>
	<stop  offset="0.4723" style="stop-color:#0579C0"/>
	<stop  offset="0.5112" style="stop-color:#0073BC"/>
	<stop  offset="0.6235" style="stop-color:#0075BE"/>
	<stop  offset="0.6249" style="stop-color:#0075BE"/>
	<stop  offset="0.8257" style="stop-color:#0074BC"/>
	<stop  offset="0.898" style="stop-color:#006FB5"/>
	<stop  offset="0.9494" style="stop-color:#0067AA"/>
	<stop  offset="0.9908" style="stop-color:#005C99"/>
	<stop  offset="0.9944" style="stop-color:#005B97"/>
</linearGradient>
<path style="fill:url(#SVGID_00000183214656643539754530000009467311906063339942_);" d="M275.3,538.2c111.8,0,223.2,0,335.4,0
	c0,9.6,0,19.2,0,29.5c-111.5,0-223.2,0-335.4,0C275.3,558.2,275.3,548.8,275.3,538.2z"/>
<linearGradient id="SVGID_00000079470870483727073850000004165557025291151014_" gradientUnits="userSpaceOnUse" x1="214.0165" y1="614.3305" x2="549.8452" y2="614.3305">
	<stop  offset="1.992996e-02" style="stop-color:#1E9CD7"/>
	<stop  offset="0.1762" style="stop-color:#1B98D4"/>
	<stop  offset="0.3258" style="stop-color:#138DCD"/>
	<stop  offset="0.4723" style="stop-color:#0579C0"/>
	<stop  offset="0.5112" style="stop-color:#0073BC"/>
	<stop  offset="0.6235" style="stop-color:#0075BE"/>
	<stop  offset="0.6249" style="stop-color:#0075BE"/>
	<stop  offset="0.8257" style="stop-color:#0074BC"/>
	<stop  offset="0.898" style="stop-color:#006FB5"/>
	<stop  offset="0.9494" style="stop-color:#0067AA"/>
	<stop  offset="0.9908" style="stop-color:#005C99"/>
	<stop  offset="0.9944" style="stop-color:#005B97"/>
</linearGradient>
<path style="fill:url(#SVGID_00000079470870483727073850000004165557025291151014_);" d="M549.8,599.6c0,10.1,0,19.5,0,29.4
	c-112.1,0-223.7,0-335.8,0c0-9.9,0-19.3,0-29.4C325.7,599.6,437.4,599.6,549.8,599.6z"/>
<linearGradient id="SVGID_00000083797491650317769810000003871417591205872772_" gradientUnits="userSpaceOnUse" x1="642.1006" y1="552.907" x2="733.5648" y2="552.907">
	<stop  offset="1.992996e-02" style="stop-color:#1E9CD7"/>
	<stop  offset="0.1762" style="stop-color:#1B98D4"/>
	<stop  offset="0.3258" style="stop-color:#138DCD"/>
	<stop  offset="0.4723" style="stop-color:#0579C0"/>
	<stop  offset="0.5112" style="stop-color:#0073BC"/>
	<stop  offset="0.6235" style="stop-color:#0075BE"/>
	<stop  offset="0.6249" style="stop-color:#0075BE"/>
	<stop  offset="0.8257" style="stop-color:#0074BC"/>
	<stop  offset="0.898" style="stop-color:#006FB5"/>
	<stop  offset="0.9494" style="stop-color:#0067AA"/>
	<stop  offset="0.9908" style="stop-color:#005C99"/>
	<stop  offset="0.9944" style="stop-color:#005B97"/>
</linearGradient>
<path style="fill:url(#SVGID_00000083797491650317769810000003871417591205872772_);" d="M733.6,537.7c0,10.7,0,20.1,0,30.7
	c-5.3,0-10.3-0.3-15.3,0.1c-8.4,0.6-13.5,5.3-14.8,13.6c-6.1,36.9-23,50.2-61.4,46.9c0-4.8,0-9.8,0-14.7c0-4.7,0-9.4,0-15.2
	c5.4,0,10.1,0.2,14.7,0c9.3-0.5,14.1-5.8,16-14.6c2.2-10.6,5.6-21,8.5-31.5c-2.7-9.9-6-20.9-8.7-32.1c-2-8.1-6.6-12.9-15-13.5
	c-4.7-0.3-9.5-0.1-14.9-0.1c0-10.2,0-19.8,0-29.5c33.1-6.3,57.2,11.4,60.6,44.6c1,9.7,6.3,14.9,16,15.4
	C723.8,537.9,728.2,537.7,733.6,537.7z"/>
<linearGradient id="SVGID_00000027604476800105346590000011166267502536268735_" gradientUnits="userSpaceOnUse" x1="734.5661" y1="552.9387" x2="825.3823" y2="552.9387">
	<stop  offset="1.992996e-02" style="stop-color:#1E9CD7"/>
	<stop  offset="0.1762" style="stop-color:#1B98D4"/>
	<stop  offset="0.3258" style="stop-color:#138DCD"/>
	<stop  offset="0.4723" style="stop-color:#0579C0"/>
	<stop  offset="0.5112" style="stop-color:#0073BC"/>
	<stop  offset="0.6235" style="stop-color:#0075BE"/>
	<stop  offset="0.6249" style="stop-color:#0075BE"/>
	<stop  offset="0.8257" style="stop-color:#0074BC"/>
	<stop  offset="0.898" style="stop-color:#006FB5"/>
	<stop  offset="0.9494" style="stop-color:#0067AA"/>
	<stop  offset="0.9908" style="stop-color:#005C99"/>
	<stop  offset="0.9944" style="stop-color:#005B97"/>
</linearGradient>
<path style="fill:url(#SVGID_00000027604476800105346590000011166267502536268735_);" d="M825.4,537.7c0,10.7,0,20.1,0,30.7
	c-5.3,0-10.3-0.3-15.3,0.1c-8.4,0.6-13.4,5.3-14.8,13.6c-6,36.8-23.2,50.3-60.7,46.9c0-9.6,0-19.2,0-30c4.8,0,9.5,0.2,14.1,0
	c9.2-0.5,14.1-5.8,16-14.6c2.2-10.6,5.6-21,8.5-31.4c-2.7-10-6-21-8.7-32.1c-2-8.1-6.6-12.9-15-13.5c-4.7-0.3-9.5-0.1-14.9-0.1
	c0-10.2,0-19.9,0-29.5c33.3-6.2,57.2,11.4,60.6,44.6c1,9.7,6.3,14.9,16.1,15.4C815.6,537.9,820.1,537.7,825.4,537.7z"/>
<linearGradient id="SVGID_00000093897176934202631430000015460090041747247755_" gradientUnits="userSpaceOnUse" x1="214.3313" y1="369.6112" x2="304.9475" y2="369.6112">
	<stop  offset="1.992996e-02" style="stop-color:#1E9CD7"/>
	<stop  offset="0.1762" style="stop-color:#1B98D4"/>
	<stop  offset="0.3258" style="stop-color:#138DCD"/>
	<stop  offset="0.4723" style="stop-color:#0579C0"/>
	<stop  offset="0.5112" style="stop-color:#0073BC"/>
	<stop  offset="0.6235" style="stop-color:#0075BE"/>
	<stop  offset="0.6249" style="stop-color:#0075BE"/>
	<stop  offset="0.8257" style="stop-color:#0074BC"/>
	<stop  offset="0.898" style="stop-color:#006FB5"/>
	<stop  offset="0.9494" style="stop-color:#0067AA"/>
	<stop  offset="0.9908" style="stop-color:#005C99"/>
	<stop  offset="0.9944" style="stop-color:#005B97"/>
</linearGradient>
<path style="fill:url(#SVGID_00000093897176934202631430000015460090041747247755_);" d="M266.1,369.3c2.8,10.2,6.3,20.6,8.5,31.2
	c1.9,8.9,6.6,14.3,15.8,14.8c4.7,0.3,9.4,0,14.5,0c0,10.4,0,19.8,0,29.2c-31.1,7.5-58.1-11.6-60.7-43.1c-1-11.5-6.2-16.5-17.7-16.7
	c-3.8-0.1-7.6,0-12.2,0c0-9.9,0-19.6,0-30.6c4.6,0,9.6,0.2,14.5-0.1c8.4-0.5,13.6-5.1,15.1-13.3c6.8-37.8,21.5-49.5,60.7-47.5
	c0,9.6,0,19.2,0,30.3c-4.4,0-9-0.2-13.6,0c-9.8,0.4-14.5,5.7-16.4,15.2C272.5,349.1,269,359.2,266.1,369.3z"/>
<linearGradient id="SVGID_00000150102492654127612880000006585774169442808228_" gradientUnits="userSpaceOnUse" x1="305.8627" y1="369.4277" x2="396.6786" y2="369.4277">
	<stop  offset="1.992996e-02" style="stop-color:#1E9CD7"/>
	<stop  offset="0.1762" style="stop-color:#1B98D4"/>
	<stop  offset="0.3258" style="stop-color:#138DCD"/>
	<stop  offset="0.4723" style="stop-color:#0579C0"/>
	<stop  offset="0.5112" style="stop-color:#0073BC"/>
	<stop  offset="0.6235" style="stop-color:#0075BE"/>
	<stop  offset="0.6249" style="stop-color:#0075BE"/>
	<stop  offset="0.8257" style="stop-color:#0074BC"/>
	<stop  offset="0.898" style="stop-color:#006FB5"/>
	<stop  offset="0.9494" style="stop-color:#0067AA"/>
	<stop  offset="0.9908" style="stop-color:#005C99"/>
	<stop  offset="0.9944" style="stop-color:#005B97"/>
</linearGradient>
<path style="fill:url(#SVGID_00000150102492654127612880000006585774169442808228_);" d="M305.9,384.7c0-10.9,0-20.3,0-30.7
	c5.1,0,9.8,0.2,14.5,0c8.8-0.5,14.2-5.2,15.5-13.9c5.5-36.1,24.4-50.7,60.8-46.4c0,9.6,0,19.2,0,29.8c-5.1,0-9.8-0.2-14.5,0
	c-8.8,0.4-13.6,5.3-15.6,13.9c-2.5,10.9-5.7,21.6-8.6,32.1c2.7,9.9,6.1,20.6,8.6,31.5c2,8.6,6.6,13.6,15.4,14.1
	c4.7,0.3,9.4,0.1,14.7,0.1c0,10.4,0,20.1,0,29.7c-35.1,5.1-57-11.3-60.7-45.1c-1.1-9.6-6.5-14.7-16.3-15.1
	C315.3,384.6,310.9,384.7,305.9,384.7z"/>
<linearGradient id="SVGID_00000049908915762173022550000001400326914808577204_" gradientUnits="userSpaceOnUse" x1="428.2675" y1="369.3369" x2="610.7126" y2="369.3369">
	<stop  offset="1.992996e-02" style="stop-color:#1E9CD7"/>
	<stop  offset="0.1762" style="stop-color:#1B98D4"/>
	<stop  offset="0.3258" style="stop-color:#138DCD"/>
	<stop  offset="0.4723" style="stop-color:#0579C0"/>
	<stop  offset="0.5112" style="stop-color:#0073BC"/>
	<stop  offset="0.6235" style="stop-color:#0075BE"/>
	<stop  offset="0.6249" style="stop-color:#0075BE"/>
	<stop  offset="0.8257" style="stop-color:#0074BC"/>
	<stop  offset="0.898" style="stop-color:#006FB5"/>
	<stop  offset="0.9494" style="stop-color:#0067AA"/>
	<stop  offset="0.9908" style="stop-color:#005C99"/>
	<stop  offset="0.9944" style="stop-color:#005B97"/>
</linearGradient>
<path style="fill:url(#SVGID_00000049908915762173022550000001400326914808577204_);" d="M428.3,384.1c0-10.1,0-19.5,0-29.4
	c60.8,0,121.3,0,182.4,0c0,9.4,0,19.1,0,29.4C550.3,384.1,489.7,384.1,428.3,384.1z"/>
<linearGradient id="SVGID_00000183226912989290971480000011420454105580950456_" gradientUnits="userSpaceOnUse" x1="428.2514" y1="430.5432" x2="611.0355" y2="430.5432">
	<stop  offset="1.992996e-02" style="stop-color:#1E9CD7"/>
	<stop  offset="0.1762" style="stop-color:#1B98D4"/>
	<stop  offset="0.3258" style="stop-color:#138DCD"/>
	<stop  offset="0.4723" style="stop-color:#0579C0"/>
	<stop  offset="0.5112" style="stop-color:#0073BC"/>
	<stop  offset="0.6235" style="stop-color:#0075BE"/>
	<stop  offset="0.6249" style="stop-color:#0075BE"/>
	<stop  offset="0.8257" style="stop-color:#0074BC"/>
	<stop  offset="0.898" style="stop-color:#006FB5"/>
	<stop  offset="0.9494" style="stop-color:#0067AA"/>
	<stop  offset="0.9908" style="stop-color:#005C99"/>
	<stop  offset="0.9944" style="stop-color:#005B97"/>
</linearGradient>
<path style="fill:url(#SVGID_00000183226912989290971480000011420454105580950456_);" d="M428.3,445.2c0-10,0-19.5,0-29.4
	c61.1,0,121.7,0,182.8,0c0,9.9,0,19.3,0,29.4C550.4,445.2,489.7,445.2,428.3,445.2z"/>
<linearGradient id="SVGID_00000090985073886702685110000004568364396134474118_" gradientUnits="userSpaceOnUse" x1="489.4912" y1="307.8846" x2="610.7212" y2="307.8846">
	<stop  offset="1.992996e-02" style="stop-color:#1E9CD7"/>
	<stop  offset="0.1762" style="stop-color:#1B98D4"/>
	<stop  offset="0.3258" style="stop-color:#138DCD"/>
	<stop  offset="0.4723" style="stop-color:#0579C0"/>
	<stop  offset="0.5112" style="stop-color:#0073BC"/>
	<stop  offset="0.6235" style="stop-color:#0075BE"/>
	<stop  offset="0.6249" style="stop-color:#0075BE"/>
	<stop  offset="0.8257" style="stop-color:#0074BC"/>
	<stop  offset="0.898" style="stop-color:#006FB5"/>
	<stop  offset="0.9494" style="stop-color:#0067AA"/>
	<stop  offset="0.9908" style="stop-color:#005C99"/>
	<stop  offset="0.9944" style="stop-color:#005B97"/>
</linearGradient>
<path style="fill:url(#SVGID_00000090985073886702685110000004568364396134474118_);" d="M489.5,322.9c0-10.1,0-19.5,0-29.9
	c20.4,0,40.4,0,60.3,0c20,0,40.1,0,60.9,0c0,9.9,0,19.6,0,29.9C570.7,322.9,530.5,322.9,489.5,322.9z"/>
<linearGradient id="SVGID_00000011011446816855572850000004332303727156491408_" gradientUnits="userSpaceOnUse" x1="428.5341" y1="308.2989" x2="457.9066" y2="308.2989">
	<stop  offset="1.992996e-02" style="stop-color:#1E9CD7"/>
	<stop  offset="0.1762" style="stop-color:#1B98D4"/>
	<stop  offset="0.3258" style="stop-color:#138DCD"/>
	<stop  offset="0.4723" style="stop-color:#0579C0"/>
	<stop  offset="0.5112" style="stop-color:#0073BC"/>
	<stop  offset="0.6235" style="stop-color:#0075BE"/>
	<stop  offset="0.6249" style="stop-color:#0075BE"/>
	<stop  offset="0.8257" style="stop-color:#0074BC"/>
	<stop  offset="0.898" style="stop-color:#006FB5"/>
	<stop  offset="0.9494" style="stop-color:#0067AA"/>
	<stop  offset="0.9908" style="stop-color:#005C99"/>
	<stop  offset="0.9944" style="stop-color:#005B97"/>
</linearGradient>
<path style="fill:url(#SVGID_00000011011446816855572850000004332303727156491408_);" d="M457.9,323.1c-9.8,0-19.2,0-29.4,0
	c0-9.6,0-19.3,0-29.5c9.6,0,19.2,0,29.4,0C457.9,303.1,457.9,312.5,457.9,323.1z"/>
<linearGradient id="SVGID_00000044899917624439441590000016328339344734842774_" gradientUnits="userSpaceOnUse" x1="214.1328" y1="553.1021" x2="243.4348" y2="553.1021">
	<stop  offset="1.992996e-02" style="stop-color:#1E9CD7"/>
	<stop  offset="0.1762" style="stop-color:#1B98D4"/>
	<stop  offset="0.3258" style="stop-color:#138DCD"/>
	<stop  offset="0.4723" style="stop-color:#0579C0"/>
	<stop  offset="0.5112" style="stop-color:#0073BC"/>
	<stop  offset="0.6235" style="stop-color:#0075BE"/>
	<stop  offset="0.6249" style="stop-color:#0075BE"/>
	<stop  offset="0.8257" style="stop-color:#0074BC"/>
	<stop  offset="0.898" style="stop-color:#006FB5"/>
	<stop  offset="0.9494" style="stop-color:#0067AA"/>
	<stop  offset="0.9908" style="stop-color:#005C99"/>
	<stop  offset="0.9944" style="stop-color:#005B97"/>
</linearGradient>
<path style="fill:url(#SVGID_00000044899917624439441590000016328339344734842774_);" d="M243.4,568c-9.9,0-19.3,0-29.3,0
	c0-10,0-19.6,0-29.8c9.7,0,19.1,0,29.3,0C243.4,547.7,243.4,557.4,243.4,568z"/>
<linearGradient id="SVGID_00000122689690887973331790000008357844668844943756_" gradientUnits="userSpaceOnUse" x1="581.2221" y1="614.1621" x2="610.9811" y2="614.1621">
	<stop  offset="1.992996e-02" style="stop-color:#1E9CD7"/>
	<stop  offset="0.1762" style="stop-color:#1B98D4"/>
	<stop  offset="0.3258" style="stop-color:#138DCD"/>
	<stop  offset="0.4723" style="stop-color:#0579C0"/>
	<stop  offset="0.5112" style="stop-color:#0073BC"/>
	<stop  offset="0.6235" style="stop-color:#0075BE"/>
	<stop  offset="0.6249" style="stop-color:#0075BE"/>
	<stop  offset="0.8257" style="stop-color:#0074BC"/>
	<stop  offset="0.898" style="stop-color:#006FB5"/>
	<stop  offset="0.9494" style="stop-color:#0067AA"/>
	<stop  offset="0.9908" style="stop-color:#005C99"/>
	<stop  offset="0.9944" style="stop-color:#005B97"/>
</linearGradient>
<path style="fill:url(#SVGID_00000122689690887973331790000008357844668844943756_);" d="M581.2,628.8c0-9.8,0-19.2,0-29.2
	c10,0,19.6,0,29.8,0c0,9.6,0,19.1,0,29.2C601.6,628.8,591.9,628.8,581.2,628.8z"/>
<linearGradient id="SVGID_00000018203951347114353780000010095479107171932318_" gradientUnits="userSpaceOnUse" x1="473.777" y1="751.96" x2="565.5398" y2="751.96">
	<stop  offset="1.992996e-02" style="stop-color:#1E9CD7"/>
	<stop  offset="0.1762" style="stop-color:#1B98D4"/>
	<stop  offset="0.3258" style="stop-color:#138DCD"/>
	<stop  offset="0.4723" style="stop-color:#0579C0"/>
	<stop  offset="0.5112" style="stop-color:#0073BC"/>
	<stop  offset="0.6235" style="stop-color:#0075BE"/>
	<stop  offset="0.6249" style="stop-color:#0075BE"/>
	<stop  offset="0.8257" style="stop-color:#0074BC"/>
	<stop  offset="0.898" style="stop-color:#006FB5"/>
	<stop  offset="0.9494" style="stop-color:#0067AA"/>
	<stop  offset="0.9908" style="stop-color:#005C99"/>
	<stop  offset="0.9944" style="stop-color:#005B97"/>
</linearGradient>
<path style="fill:url(#SVGID_00000018203951347114353780000010095479107171932318_);" d="M565.5,751.9c0,25.4-20.9,46.2-46.3,46
	c-25-0.2-45.4-20.8-45.5-45.8c0-25.4,20.9-46.1,46.3-45.9C545,706.3,565.5,726.9,565.5,751.9z M520,767.2
	c8.3-0.2,15.1-7.4,14.9-15.6c-0.2-8.3-7.3-15.1-15.6-14.8c-8.3,0.2-15.1,7.3-14.8,15.6C504.6,760.6,511.8,767.4,520,767.2z"/>
<linearGradient id="SVGID_00000156568140268237938650000004271708096705015968_" gradientUnits="userSpaceOnUse" x1="734.6457" y1="752.1759" x2="763.7433" y2="752.1759">
	<stop  offset="1.992996e-02" style="stop-color:#1E9CD7"/>
	<stop  offset="0.1762" style="stop-color:#1B98D4"/>
	<stop  offset="0.3258" style="stop-color:#138DCD"/>
	<stop  offset="0.4723" style="stop-color:#0579C0"/>
	<stop  offset="0.5112" style="stop-color:#0073BC"/>
	<stop  offset="0.6235" style="stop-color:#0075BE"/>
	<stop  offset="0.6249" style="stop-color:#0075BE"/>
	<stop  offset="0.8257" style="stop-color:#0074BC"/>
	<stop  offset="0.898" style="stop-color:#006FB5"/>
	<stop  offset="0.9494" style="stop-color:#0067AA"/>
	<stop  offset="0.9908" style="stop-color:#005C99"/>
	<stop  offset="0.9944" style="stop-color:#005B97"/>
</linearGradient>
<path style="fill:url(#SVGID_00000156568140268237938650000004271708096705015968_);" d="M763.7,782.3c-10,0-19.2,0-29.1,0
	c0-20,0-39.9,0-60.3c9.5,0,19.1,0,29.1,0C763.7,742.2,763.7,762.2,763.7,782.3z"/>
<linearGradient id="SVGID_00000023986006292803008170000008938839839746410145_" gradientUnits="userSpaceOnUse" x1="795.8674" y1="752.0451" x2="825.3057" y2="752.0451">
	<stop  offset="1.992996e-02" style="stop-color:#1E9CD7"/>
	<stop  offset="0.1762" style="stop-color:#1B98D4"/>
	<stop  offset="0.3258" style="stop-color:#138DCD"/>
	<stop  offset="0.4723" style="stop-color:#0579C0"/>
	<stop  offset="0.5112" style="stop-color:#0073BC"/>
	<stop  offset="0.6235" style="stop-color:#0075BE"/>
	<stop  offset="0.6249" style="stop-color:#0075BE"/>
	<stop  offset="0.8257" style="stop-color:#0074BC"/>
	<stop  offset="0.898" style="stop-color:#006FB5"/>
	<stop  offset="0.9494" style="stop-color:#0067AA"/>
	<stop  offset="0.9908" style="stop-color:#005C99"/>
	<stop  offset="0.9944" style="stop-color:#005B97"/>
</linearGradient>
<path style="fill:url(#SVGID_00000023986006292803008170000008938839839746410145_);" d="M825.3,722c0,20.4,0,40,0,60.1
	c-9.9,0-19.3,0-29.4,0c0-19.8,0-39.6,0-60.1C805.4,722,815,722,825.3,722z"/>
<linearGradient id="SVGID_00000151521489354144830790000001967523945926829977_" gradientUnits="userSpaceOnUse" x1="857.1102" y1="751.889" x2="886.4066" y2="751.889">
	<stop  offset="1.992996e-02" style="stop-color:#1E9CD7"/>
	<stop  offset="0.1762" style="stop-color:#1B98D4"/>
	<stop  offset="0.3258" style="stop-color:#138DCD"/>
	<stop  offset="0.4723" style="stop-color:#0579C0"/>
	<stop  offset="0.5112" style="stop-color:#0073BC"/>
	<stop  offset="0.6235" style="stop-color:#0075BE"/>
	<stop  offset="0.6249" style="stop-color:#0075BE"/>
	<stop  offset="0.8257" style="stop-color:#0074BC"/>
	<stop  offset="0.898" style="stop-color:#006FB5"/>
	<stop  offset="0.9494" style="stop-color:#0067AA"/>
	<stop  offset="0.9908" style="stop-color:#005C99"/>
	<stop  offset="0.9944" style="stop-color:#005B97"/>
</linearGradient>
<path style="fill:url(#SVGID_00000151521489354144830790000001967523945926829977_);" d="M857.1,721.7c9.9,0,19.3,0,29.3,0
	c0,20.2,0,40,0,60.3c-9.7,0-19.1,0-29.3,0C857.1,762.4,857.1,742.5,857.1,721.7z"/>
<linearGradient id="SVGID_00000072960243964226474310000005136837785984980906_" gradientUnits="userSpaceOnUse" x1="183.5436" y1="767.0114" x2="212.8047" y2="767.0114">
	<stop  offset="1.992996e-02" style="stop-color:#1E9CD7"/>
	<stop  offset="0.1762" style="stop-color:#1B98D4"/>
	<stop  offset="0.3258" style="stop-color:#138DCD"/>
	<stop  offset="0.4723" style="stop-color:#0579C0"/>
	<stop  offset="0.5112" style="stop-color:#0073BC"/>
	<stop  offset="0.6235" style="stop-color:#0075BE"/>
	<stop  offset="0.6249" style="stop-color:#0075BE"/>
	<stop  offset="0.8257" style="stop-color:#0074BC"/>
	<stop  offset="0.898" style="stop-color:#006FB5"/>
	<stop  offset="0.9494" style="stop-color:#0067AA"/>
	<stop  offset="0.9908" style="stop-color:#005C99"/>
	<stop  offset="0.9944" style="stop-color:#005B97"/>
</linearGradient>
<path style="fill:url(#SVGID_00000072960243964226474310000005136837785984980906_);" d="M183.5,752.1c10.1,0,19.3,0,29.3,0
	c0,9.8,0,19.4,0,29.8c-9.4,0-19,0-29.3,0C183.5,772.3,183.5,762.6,183.5,752.1z"/>
<linearGradient id="SVGID_00000013875004228798197730000005091890874115184281_" gradientUnits="userSpaceOnUse" x1="244.7958" y1="767.3464" x2="274.3285" y2="767.3464">
	<stop  offset="1.992996e-02" style="stop-color:#1E9CD7"/>
	<stop  offset="0.1762" style="stop-color:#1B98D4"/>
	<stop  offset="0.3258" style="stop-color:#138DCD"/>
	<stop  offset="0.4723" style="stop-color:#0579C0"/>
	<stop  offset="0.5112" style="stop-color:#0073BC"/>
	<stop  offset="0.6235" style="stop-color:#0075BE"/>
	<stop  offset="0.6249" style="stop-color:#0075BE"/>
	<stop  offset="0.8257" style="stop-color:#0074BC"/>
	<stop  offset="0.898" style="stop-color:#006FB5"/>
	<stop  offset="0.9494" style="stop-color:#0067AA"/>
	<stop  offset="0.9908" style="stop-color:#005C99"/>
	<stop  offset="0.9944" style="stop-color:#005B97"/>
</linearGradient>
<path style="fill:url(#SVGID_00000013875004228798197730000005091890874115184281_);" d="M274.3,782.2c-10.1,0-19.5,0-29.5,0
	c0-9.9,0-19.5,0-29.7c9.8,0,19.4,0,29.5,0C274.3,762.3,274.3,771.7,274.3,782.2z"/>
<linearGradient id="SVGID_00000109721933348500558640000010228797941848912514_" gradientUnits="userSpaceOnUse" x1="306.1307" y1="767.2" x2="335.4327" y2="767.2">
	<stop  offset="1.992996e-02" style="stop-color:#1E9CD7"/>
	<stop  offset="0.1762" style="stop-color:#1B98D4"/>
	<stop  offset="0.3258" style="stop-color:#138DCD"/>
	<stop  offset="0.4723" style="stop-color:#0579C0"/>
	<stop  offset="0.5112" style="stop-color:#0073BC"/>
	<stop  offset="0.6235" style="stop-color:#0075BE"/>
	<stop  offset="0.6249" style="stop-color:#0075BE"/>
	<stop  offset="0.8257" style="stop-color:#0074BC"/>
	<stop  offset="0.898" style="stop-color:#006FB5"/>
	<stop  offset="0.9494" style="stop-color:#0067AA"/>
	<stop  offset="0.9908" style="stop-color:#005C99"/>
	<stop  offset="0.9944" style="stop-color:#005B97"/>
</linearGradient>
<path style="fill:url(#SVGID_00000109721933348500558640000010228797941848912514_);" d="M306.1,752.3c9.9,0,19.3,0,29.3,0
	c0,10,0,19.6,0,29.8c-9.7,0-19.1,0-29.3,0C306.1,772.6,306.1,762.9,306.1,752.3z"/>
<linearGradient id="SVGID_00000180344189635770635650000002422763266485962671_" gradientUnits="userSpaceOnUse" x1="718.6334" y1="247.0078" x2="963.4941" y2="247.0078">
	<stop  offset="1.992996e-02" style="stop-color:#1E9CD7"/>
	<stop  offset="0.1762" style="stop-color:#1B98D4"/>
	<stop  offset="0.3258" style="stop-color:#138DCD"/>
	<stop  offset="0.4723" style="stop-color:#0579C0"/>
	<stop  offset="0.5112" style="stop-color:#0073BC"/>
	<stop  offset="0.6235" style="stop-color:#0075BE"/>
	<stop  offset="0.6249" style="stop-color:#0075BE"/>
	<stop  offset="0.8257" style="stop-color:#0074BC"/>
	<stop  offset="0.898" style="stop-color:#006FB5"/>
	<stop  offset="0.9494" style="stop-color:#0067AA"/>
	<stop  offset="0.9908" style="stop-color:#005C99"/>
	<stop  offset="0.9944" style="stop-color:#005B97"/>
</linearGradient>
<path style="fill:url(#SVGID_00000180344189635770635650000002422763266485962671_);" d="M841,124.6c67.3,0,122.4,54.9,122.5,122.1
	c0.1,67.7-55.1,122.9-122.9,122.7c-67.2-0.2-122.1-55.3-122-122.6C718.7,179.6,773.8,124.6,841,124.6z M840.6,155.2
	c-50.4,0.2-91.6,41.7-91.4,92.2c0.2,50.4,41.7,91.6,92.2,91.4c50.5-0.2,91.6-41.7,91.4-92.2C932.7,196.1,891.2,155,840.6,155.2z"/>
<linearGradient id="SVGID_00000070088439075582156960000017409018822124111030_" gradientUnits="userSpaceOnUse" x1="779.8735" y1="247.0048" x2="902.2484" y2="247.0048">
	<stop  offset="1.992996e-02" style="stop-color:#1E9CD7"/>
	<stop  offset="0.1762" style="stop-color:#1B98D4"/>
	<stop  offset="0.3258" style="stop-color:#138DCD"/>
	<stop  offset="0.4723" style="stop-color:#0579C0"/>
	<stop  offset="0.5112" style="stop-color:#0073BC"/>
	<stop  offset="0.6235" style="stop-color:#0075BE"/>
	<stop  offset="0.6249" style="stop-color:#0075BE"/>
	<stop  offset="0.8257" style="stop-color:#0074BC"/>
	<stop  offset="0.898" style="stop-color:#006FB5"/>
	<stop  offset="0.9494" style="stop-color:#0067AA"/>
	<stop  offset="0.9908" style="stop-color:#005C99"/>
	<stop  offset="0.9944" style="stop-color:#005B97"/>
</linearGradient>
<path style="fill:url(#SVGID_00000070088439075582156960000017409018822124111030_);" d="M902.2,247c0,33.7-27.7,61.3-61.4,61.2
	c-33.7-0.1-61.1-27.9-60.9-61.7c0.2-33.3,27.6-60.6,61-60.7C874.7,185.7,902.2,213.2,902.2,247z M841,216.4
	c-16.6,0-30.4,13.8-30.5,30.4c-0.1,16.6,13.6,30.5,30.2,30.7c17,0.2,31.1-13.9,31-30.9C871.5,230.1,857.6,216.4,841,216.4z"/>
</svg>
