<?xml version="1.0" encoding="utf-8"?>
<!-- Generator: Adobe Illustrator 26.0.1, SVG Export Plug-In . SVG Version: 6.00 Build 0)  -->
<svg version="1.1" id="Layer_1" xmlns="http://www.w3.org/2000/svg" xmlns:xlink="http://www.w3.org/1999/xlink" x="0px" y="0px"
	 viewBox="0 0 1366 768" style="enable-background:new 0 0 1366 768;" xml:space="preserve">
<style type="text/css">
	.st0{fill:none;stroke:#000000;stroke-width:1.5;stroke-miterlimit:10;}
	.st1{fill:none;stroke:#FCFF00;stroke-width:2;stroke-miterlimit:10;}
	.st2{fill:#DF0025;stroke:#FF0000;stroke-width:3;stroke-miterlimit:10;}
	.st3{fill:#7600BF;}
	.st4{font-family:'TimesNewRomanPSMT';}
	.st5{font-size:14px;}
	.st6{fill:#1F52FF;stroke:#FF0000;stroke-width:2;stroke-miterlimit:10;}
	.st7{fill:none;}
	.st8{fill:#FFFFFF;}
	.st9{font-size:14.9211px;}
	.st10{fill:none;stroke:#FF0000;stroke-width:3;stroke-miterlimit:10;}
	.st11{fill:none;stroke:#00A99D;stroke-width:2;stroke-miterlimit:10;}
	.st12{fill:none;stroke:#FF00FF;stroke-width:2;stroke-miterlimit:10;}
	.st13{fill:none;stroke:#FF00ED;stroke-width:2;stroke-miterlimit:10;}
	.st14{fill:url(#SVGID_1_);stroke:#000000;stroke-width:1.5;stroke-miterlimit:10;}
	
		.st15{fill:url(#SVGID_00000080929345849256573920000015858483402978809266_);stroke:#000000;stroke-width:1.5;stroke-miterlimit:10;}
	
		.st16{fill:url(#SVGID_00000112605879384809824330000012796853602233671852_);stroke:#000000;stroke-width:1.5;stroke-miterlimit:10;}
	
		.st17{fill:url(#SVGID_00000047049266746653934830000011260701823216686774_);stroke:#000000;stroke-width:1.5;stroke-miterlimit:10;}
	
		.st18{fill:url(#SVGID_00000117665797551803711500000000053751326606913972_);stroke:#000000;stroke-width:1.5;stroke-miterlimit:10;}
	.st19{fill:none;stroke:#FCEE21;stroke-width:2;stroke-miterlimit:10;}
	
		.st20{fill:url(#SVGID_00000134963447823921313970000010277628457362138251_);stroke:#000000;stroke-width:1.5;stroke-miterlimit:10;}
	
		.st21{fill:url(#SVGID_00000138541028346875207270000000767948969118872732_);stroke:#000000;stroke-width:1.5;stroke-miterlimit:10;}
	
		.st22{fill:url(#SVGID_00000004534152650740353050000000020520878892633007_);stroke:#000000;stroke-width:1.5;stroke-miterlimit:10;}
	
		.st23{fill:url(#SVGID_00000038373677526764413160000006275881935933001380_);stroke:#000000;stroke-width:1.5;stroke-miterlimit:10;}
	
		.st24{fill:url(#SVGID_00000021080011677197205680000006076532349220536751_);stroke:#000000;stroke-width:1.5;stroke-miterlimit:10;}
	.st25{fill:#FF0000;stroke:#FF0000;stroke-width:5;stroke-miterlimit:10;}
	.st26{fill:none;stroke:#FF0000;stroke-width:4;stroke-miterlimit:10;}
	.st27{fill:none;stroke:#FF0000;stroke-width:5;stroke-miterlimit:10;}
	.st28{fill:#00A99D;stroke:#B3B3B3;stroke-width:2;stroke-miterlimit:10;}
	.st29{fill:#62272D;stroke:#CCCCCC;stroke-width:2;stroke-miterlimit:10;}
	.st30{fill:#662D91;}
	.st31{fill:#00A99D;stroke:#CCCCCC;stroke-width:2;stroke-miterlimit:10;}
	.st32{fill:#39B54A;}
	.st33{fill:#666666;stroke:#FFFFFF;stroke-miterlimit:10;}
	.st34{fill:#FFFF00;stroke:#666666;stroke-miterlimit:10;}
	.st35{fill:#B2B400;}
	.st36{fill:#006837;stroke:#FFFFFF;stroke-miterlimit:10;}
	.st37{fill:#8CC63F;stroke:#FF0000;stroke-miterlimit:10;}
	.st38{fill:#00FFFF;stroke:#FFFFFF;stroke-miterlimit:10;}
	.st39{fill:#FCEE21;stroke:#FFFFFF;stroke-miterlimit:10;}
	.st40{fill:#FF00FF;stroke:#FFFFFF;stroke-miterlimit:10;}
	.st41{fill:#22B573;stroke:#FFFFFF;stroke-miterlimit:10;}
	.st42{fill:#00A99D;}
	.st43{font-size:13px;}
	.st44{font-size:17px;}
	.st45{fill:#FFFF00;}
	.st46{font-size:12px;}
	.st47{font-size:10px;}
	.st48{fill:#FF2E24;}
	.st49{font-size:16px;}
	.st50{font-size:15px;}
	.st51{font-size:11px;}
</style>
<g>
	<line class="st0" x1="1107" y1="705" x2="1105.5" y2="565"/>
	<line class="st1" x1="1105" y1="705" x2="1103.5" y2="565"/>
</g>
<line class="st2" x1="73" y1="64" x2="1297" y2="64"/>
<text transform="matrix(1 0 0 1 20.2437 22.25)"><tspan x="0" y="0" class="st3 st4 st5">Painted</tspan><tspan x="-8.01" y="16.8" class="st3 st4 st5">Body Exit</tspan></text>
<g>
	<polygon class="st6" points="252.99,82 159.32,82 158.49,38.89 252.99,38.89 	"/>
	<rect x="156" y="19" class="st6" width="99.47" height="21.55"/>
	<rect x="158.49" y="22.32" class="st7" width="96.99" height="15.75"/>
	<text transform="matrix(1 0 0 1 167.4878 35.376)" class="st8 st4 st9">DM PLANT</text>
	<rect x="157.1" y="44.72" class="st7" width="96.99" height="33.14"/>
	<text transform="matrix(1 0 0 1 177.5151 57.52)"><tspan x="0" y="0" class="st8 st4 st9">DI RINS</tspan><tspan x="-1.23" y="17.91" class="st8 st4 st9">STAGES</tspan></text>
</g>
<g>
	<polygon class="st6" points="380.64,82 286.97,82 286.14,38.89 380.64,38.89 	"/>
	<rect x="283.66" y="19" class="st6" width="99.47" height="21.55"/>
	<rect x="286.14" y="22.32" class="st7" width="96.99" height="15.75"/>
	<text transform="matrix(1 0 0 1 291.3921 35.376)" class="st8 st4 st9">UF-SYSTEM</text>
	<rect x="284.76" y="44.72" class="st7" width="96.99" height="33.14"/>
	<text transform="matrix(1 0 0 1 303.5083 57.52)"><tspan x="0" y="0" class="st8 st4 st9">UF RINS</tspan><tspan x="0.44" y="17.91" class="st8 st4 st9">STAGES</tspan></text>
</g>
<polygon class="st6" points="659,82 412.33,82 412,39 659,38.89 "/>
<rect x="407.66" y="19" class="st6" width="99.47" height="21.55"/>
<rect x="410.14" y="22.32" class="st7" width="96.99" height="15.75"/>
<text transform="matrix(1 0 0 1 436.8271 35.376)" class="st8 st4 st9">ADOR</text>
<rect x="414.76" y="44.72" class="st7" width="237.24" height="33.14"/>
<text transform="matrix(1 0 0 1 448.1348 66.4727)" class="st8 st4 st9">CED COAT MAIN TANK</text>
<rect x="680.63" y="180.81" class="st7" width="237.24" height="33.14"/>
<text transform="matrix(1 0 0 1 714.006 202.56)" class="st8 st4 st9">CED COAT MAIN TANK</text>
<line class="st10" x1="73" y1="64" x2="73.5" y2="145.5"/>
<line class="st10" x1="1297.5" y1="64" x2="1297.5" y2="132.5"/>
<line class="st10" x1="73.5" y1="145.5" x2="380.5" y2="145.5"/>
<g>
	<line class="st11" x1="1140" y1="305.5" x2="1297.5" y2="306.5"/>
	<line class="st0" x1="1140" y1="307.5" x2="1297.5" y2="308.5"/>
</g>
<g>
	<line class="st11" x1="1116" y1="463.5" x2="1297.5" y2="462.5"/>
	<line class="st0" x1="1116" y1="461.5" x2="1297.5" y2="460.5"/>
</g>
<g>
	<line class="st11" x1="1117" y1="563.5" x2="1298.5" y2="564.5"/>
	<line class="st0" x1="1117" y1="565.5" x2="1298.5" y2="566.5"/>
</g>
<g>
	<line class="st11" x1="739" y1="467.5" x2="1115.5" y2="471.5"/>
	<line class="st0" x1="739" y1="469.5" x2="1115.5" y2="473.5"/>
</g>
<g>
	<line class="st12" x1="361" y1="469.5" x2="738.5" y2="467.5"/>
	<line class="st0" x1="361" y1="471.5" x2="738.5" y2="469.5"/>
</g>
<g>
	<line class="st12" x1="361" y1="391.5" x2="515.5" y2="392.5"/>
	<line class="st0" x1="361" y1="393.5" x2="515.5" y2="394.5"/>
</g>
<g>
	<line class="st0" x1="74" y1="212.5" x2="1023.5" y2="213.5"/>
	<line class="st11" x1="74" y1="210.5" x2="1023.5" y2="211.5"/>
</g>
<g>
	<line class="st0" x1="382" y1="145.5" x2="1265.5" y2="146.5"/>
	<line class="st11" x1="382" y1="143.5" x2="1265.5" y2="144.5"/>
</g>
<g>
	<line class="st0" x1="74" y1="277.5" x2="320.5" y2="276.5"/>
	<line class="st11" x1="74" y1="279.5" x2="320.5" y2="278.5"/>
</g>
<g>
	<line class="st0" x1="118" y1="361.5" x2="520.5" y2="360.5"/>
	<line class="st11" x1="118" y1="363.5" x2="520.5" y2="362.5"/>
</g>
<g>
	<line class="st0" x1="521" y1="362.5" x2="1021.5" y2="363.5"/>
	<line class="st1" x1="521" y1="360.5" x2="1021.5" y2="361.5"/>
</g>
<g>
	<line class="st0" x1="323" y1="298.5" x2="1141.5" y2="307.5"/>
	<line class="st13" x1="323" y1="296.5" x2="1141.5" y2="305.5"/>
</g>
<g>
	
		<linearGradient id="SVGID_1_" gradientUnits="userSpaceOnUse" x1="1297.8539" y1="436.0312" x2="1298.6053" y2="436.0312" gradientTransform="matrix(-1 0 0 1 2595.043 0)">
		<stop  offset="0" style="stop-color:#FFFFFF"/>
		<stop  offset="1" style="stop-color:#000000"/>
	</linearGradient>
	<line class="st14" x1="1297.19" y1="564" x2="1296.44" y2="308.06"/>
	<line class="st11" x1="1298.69" y1="564" x2="1297.94" y2="308.06"/>
</g>
<g>
	
		<linearGradient id="SVGID_00000165946721253409086100000000538180411198267320_" gradientUnits="userSpaceOnUse" x1="1480.6053" y1="538.5312" x2="1480.8828" y2="538.5312" gradientTransform="matrix(-1 0 0 1 2595.043 0)">
		<stop  offset="0" style="stop-color:#FFFFFF"/>
		<stop  offset="1" style="stop-color:#000000"/>
	</linearGradient>
	
		<line style="fill:url(#SVGID_00000165946721253409086100000000538180411198267320_);stroke:#000000;stroke-width:1.5;stroke-miterlimit:10;" x1="1114.16" y1="616" x2="1114.44" y2="461.06"/>
	<line class="st11" x1="1115.61" y1="616" x2="1115.88" y2="461.06"/>
</g>
<g>
	
		<linearGradient id="SVGID_00000005245732851958433720000002722376513065507464_" gradientUnits="userSpaceOnUse" x1="75.6054" y1="243.0312" x2="75.8828" y2="243.0312">
		<stop  offset="0" style="stop-color:#FFFFFF"/>
		<stop  offset="1" style="stop-color:#000000"/>
	</linearGradient>
	
		<line style="fill:url(#SVGID_00000005245732851958433720000002722376513065507464_);stroke:#000000;stroke-width:1.5;stroke-miterlimit:10;" x1="75.88" y1="276" x2="75.61" y2="210.06"/>
	<line class="st11" x1="74.44" y1="276" x2="74.16" y2="210.06"/>
</g>
<g>
	
		<linearGradient id="SVGID_00000098205007821375095300000006867399777195937166_" gradientUnits="userSpaceOnUse" x1="134.8828" y1="531.5312" x2="138.6054" y2="531.5312">
		<stop  offset="0" style="stop-color:#FFFFFF"/>
		<stop  offset="1" style="stop-color:#000000"/>
	</linearGradient>
	
		<line style="fill:url(#SVGID_00000098205007821375095300000006867399777195937166_);stroke:#000000;stroke-width:1.5;stroke-miterlimit:10;" x1="134.88" y1="700" x2="138.61" y2="363.06"/>
	<line class="st11" x1="133.44" y1="700" x2="137.16" y2="363.06"/>
</g>
<g>
	
		<linearGradient id="SVGID_00000177448919078137788080000015136970688905729929_" gradientUnits="userSpaceOnUse" x1="1022.6054" y1="180.0312" x2="1022.8828" y2="180.0312">
		<stop  offset="0" style="stop-color:#FFFFFF"/>
		<stop  offset="1" style="stop-color:#000000"/>
	</linearGradient>
	
		<line style="fill:url(#SVGID_00000177448919078137788080000015136970688905729929_);stroke:#000000;stroke-width:1.5;stroke-miterlimit:10;" x1="1022.88" y1="213" x2="1022.61" y2="147.06"/>
	<line class="st11" x1="1021.44" y1="213" x2="1021.16" y2="147.06"/>
</g>
<g>
	<g>
		<line class="st11" x1="1067.25" y1="616" x2="1115.75" y2="616"/>
		<line class="st0" x1="1067.25" y1="614" x2="1115.75" y2="614"/>
	</g>
	<g>
		<line class="st19" x1="1019.75" y1="613" x2="1066.25" y2="613"/>
		<line class="st0" x1="1019.75" y1="615" x2="1066.25" y2="615"/>
	</g>
</g>
<g>
	<line class="st0" x1="1315.5" y1="564" x2="1316" y2="707"/>
	<line class="st1" x1="1313.5" y1="564" x2="1314" y2="707"/>
</g>
<g>
	<line class="st0" x1="1105" y1="705" x2="1315.5" y2="706"/>
	<line class="st1" x1="1105" y1="703" x2="1315.5" y2="704"/>
</g>
<g>
	<line class="st19" x1="1078.5" y1="563.19" x2="1106" y2="563.19"/>
	<line class="st0" x1="1078.5" y1="565.19" x2="1106" y2="565.19"/>
</g>
<g>
	<line class="st12" x1="452.62" y1="562.44" x2="1078.12" y2="563.44"/>
	<line class="st0" x1="452.62" y1="564.44" x2="1078.12" y2="565.44"/>
</g>
<g>
	<line class="st0" x1="1019.75" y1="362.75" x2="1021.25" y2="612.75"/>
	<line class="st1" x1="1021.75" y1="362.75" x2="1023.25" y2="612.75"/>
</g>
<g>
	
		<linearGradient id="SVGID_00000146484979297344721310000001130374347664428220_" gradientUnits="userSpaceOnUse" x1="312.709" y1="561.2812" x2="312.709" y2="561.2812" gradientTransform="matrix(-1 0 0 1 766.25 0)">
		<stop  offset="0" style="stop-color:#FFFFFF"/>
		<stop  offset="1" style="stop-color:#000000"/>
	</linearGradient>
	
		<path style="fill:url(#SVGID_00000146484979297344721310000001130374347664428220_);stroke:#000000;stroke-width:1.5;stroke-miterlimit:10;" d="
		M453.54,561.28"/>
	
		<linearGradient id="SVGID_00000002353090822500413100000012182376346878978432_" gradientUnits="userSpaceOnUse" x1="315.9863" y1="680.2188" x2="315.9863" y2="680.2188" gradientTransform="matrix(-1 0 0 1 766.25 0)">
		<stop  offset="0" style="stop-color:#FFFFFF"/>
		<stop  offset="1" style="stop-color:#000000"/>
	</linearGradient>
	
		<path style="fill:url(#SVGID_00000002353090822500413100000012182376346878978432_);stroke:#000000;stroke-width:1.5;stroke-miterlimit:10;" d="
		M450.26,680.22"/>
	<line class="st12" x1="451.71" y1="680.22" x2="452" y2="564"/>
</g>
<g>
	
		<linearGradient id="SVGID_00000031189856132382870980000015122410794575431836_" gradientUnits="userSpaceOnUse" x1="316.2363" y1="623.7969" x2="316.25" y2="623.7969" gradientTransform="matrix(-1 0 0 1 766.25 0)">
		<stop  offset="0" style="stop-color:#FFFFFF"/>
		<stop  offset="1" style="stop-color:#000000"/>
	</linearGradient>
	
		<line style="fill:url(#SVGID_00000031189856132382870980000015122410794575431836_);stroke:#000000;stroke-width:1.5;stroke-miterlimit:10;" x1="450.01" y1="680.59" x2="450" y2="567"/>
</g>
<g>
	
		<linearGradient id="SVGID_00000082337187031737104960000003229785399104045732_" gradientUnits="userSpaceOnUse" x1="404.9589" y1="431.125" x2="405.2363" y2="431.125" gradientTransform="matrix(-1 0 0 1 766.25 0)">
		<stop  offset="0" style="stop-color:#FFFFFF"/>
		<stop  offset="1" style="stop-color:#000000"/>
	</linearGradient>
	
		<line style="fill:url(#SVGID_00000082337187031737104960000003229785399104045732_);stroke:#000000;stroke-width:1.5;stroke-miterlimit:10;" x1="361.01" y1="471.59" x2="361.29" y2="390.66"/>
	<line class="st12" x1="362.46" y1="471.59" x2="362.74" y2="390.66"/>
</g>
<g>
	
		<linearGradient id="SVGID_00000078731756140021944390000012655392758943320205_" gradientUnits="userSpaceOnUse" x1="345.709" y1="499.375" x2="345.9863" y2="499.375">
		<stop  offset="0" style="stop-color:#FFFFFF"/>
		<stop  offset="1" style="stop-color:#000000"/>
	</linearGradient>
	
		<line style="fill:url(#SVGID_00000078731756140021944390000012655392758943320205_);stroke:#000000;stroke-width:1.5;stroke-miterlimit:10;" x1="345.99" y1="635.84" x2="345.71" y2="362.91"/>
	<line class="st11" x1="344.54" y1="635.84" x2="344.26" y2="362.91"/>
</g>
<g>
	<line class="st0" x1="138.25" y1="425.25" x2="344.75" y2="426.25"/>
	<line class="st11" x1="138.25" y1="423.25" x2="344.75" y2="424.25"/>
</g>
<g>
	<line class="st0" x1="138.25" y1="456.5" x2="344.75" y2="457.5"/>
	<line class="st11" x1="138.25" y1="454.5" x2="344.75" y2="455.5"/>
</g>
<g>
	<line class="st0" x1="138.25" y1="492.5" x2="344.75" y2="493.5"/>
	<line class="st11" x1="138.25" y1="490.5" x2="344.75" y2="491.5"/>
</g>
<g>
	<line class="st0" x1="270" y1="634.5" x2="344.75" y2="635.5"/>
	<line class="st11" x1="270" y1="632.5" x2="344.75" y2="633.5"/>
</g>
<g>
	<line class="st0" x1="269.12" y1="682.5" x2="341.88" y2="681.5"/>
	<line class="st11" x1="269.12" y1="680.5" x2="341.88" y2="679.5"/>
</g>
<g>
	<line class="st0" x1="343.12" y1="681.5" x2="451.88" y2="680.5"/>
	<line class="st12" x1="343.12" y1="679.5" x2="451.88" y2="678.5"/>
</g>
<line class="st10" x1="36.5" y1="362.5" x2="116" y2="362.5"/>
<g>
	<line class="st10" x1="37.25" y1="104.5" x2="37.25" y2="362.62"/>
	<g>
		<polygon class="st25" points="33.5,77.1 42,77.1 37.86,70.56 37.86,70.56 		"/>
		<line class="st26" x1="37.5" y1="78.2" x2="37.36" y2="108"/>
		<path class="st27" d="M34.42,78.47"/>
		<path class="st27" d="M33.5,78.47"/>
	</g>
</g>
<polygon class="st6" points="798,82.62 687.03,82.62 686.88,39.62 798,39.51 "/>
<polygon class="st6" points="928,82.62 820.02,82.62 819.88,39.62 928,39.51 "/>
<polygon class="st6" points="1059,82.62 952.02,82.62 951.88,39.62 1059,39.51 "/>
<polygon class="st6" points="1187,82.62 1081.02,82.62 1080.88,39.62 1187,39.51 "/>
<polygon class="st6" points="1319,82.62 1213.02,82.62 1212.88,39.62 1319,39.51 "/>
<polygon class="st28" points="240,165.12 123.1,165.12 122.94,122.12 240,122.01 "/>
<polygon class="st29" points="694,165.12 242.54,165.12 241.94,122.12 694,122.01 "/>
<polygon class="st30" points="1265,245 1040.3,245 1040,133.16 1265,132.89 "/>
<polygon class="st31" points="1344,175.62 1238.02,175.62 1237.88,132.62 1344,132.51 "/>
<polygon class="st32" points="1344.19,220.99 1265.11,220.99 1265,177.99 1344.19,177.89 "/>
<rect x="1175" y="250" class="st33" width="90" height="49"/>
<rect x="1175.5" y="315.5" class="st34" width="90" height="40"/>
<rect x="46.5" y="332.5" class="st33" width="81" height="55"/>
<polygon class="st29" points="335,233.62 135.37,233.62 135.1,190.62 335,190.51 "/>
<polygon class="st29" points="504,494 369.36,494 369.18,443.63 504,443.51 "/>
<polygon class="st35" points="683,494 512.41,494 512.18,443.63 683,443.51 "/>
<polygon class="st29" points="508,585 373.36,585 373.18,534.63 508,534.51 "/>
<polygon class="st35" points="670,585.56 520.29,585.56 520.09,535.19 670,535.07 "/>
<polygon class="st35" points="995,585.56 724.9,585.56 724.54,535.19 995,535.07 "/>
<rect x="463" y="191" class="st36" width="111" height="43"/>
<rect x="714.5" y="191.5" class="st36" width="151" height="43"/>
<rect x="917.5" y="191.5" class="st36" width="88" height="43"/>
<rect x="215.5" y="336.5" class="st36" width="111" height="45"/>
<rect x="152.5" y="542.5" class="st36" width="175.46" height="59"/>
<rect x="153.54" y="606.5" class="st36" width="175.46" height="54"/>
<rect x="153.4" y="668.5" class="st36" width="152.1" height="59.44"/>
<rect x="6.5" y="542.5" class="st36" width="108.85" height="59"/>
<rect x="7.15" y="606.5" class="st36" width="108.85" height="54"/>
<rect x="8.3" y="668.5" class="st36" width="107.2" height="59.44"/>
<rect x="463.5" y="233.5" class="st37" width="111" height="19"/>
<rect x="574.5" y="195.5" class="st38" width="40" height="34"/>
<rect x="423.5" y="195.5" class="st38" width="40" height="34"/>
<rect x="298.5" y="255.5" class="st38" width="58" height="58"/>
<rect x="502.5" y="343.5" class="st39" width="58" height="63"/>
<rect x="1104.5" y="281.5" class="st38" width="48" height="48"/>
<rect x="715.5" y="439.5" class="st38" width="48" height="48"/>
<rect x="414" y="663" class="st30" width="153" height="28"/>
<rect x="316.5" y="662.5" class="st38" width="58" height="62"/>
<polygon class="st35" points="1277,606 1123.98,606 1123.77,524.7 1277,524.51 "/>
<polygon class="st35" points="1277,498 1124.09,498 1123.89,429.17 1277,429 "/>
<polygon class="st35" points="1277,735 1124.09,735 1123.89,674.4 1277,674.25 "/>
<rect x="1049.5" y="547.5" class="st40" width="43" height="34"/>
<rect x="1049.5" y="598.5" class="st41" width="43" height="34"/>
<rect x="1287.5" y="545.5" class="st41" width="43" height="34"/>
<g>
	<rect x="127.28" y="570.37" class="st42" width="14.69" height="4.55"/>
	<polygon class="st42" points="152,573.21 141.23,588 141.23,559.57 152,573.21 	"/>
	<polygon class="st42" points="117,572.67 127.77,587.46 127.77,559.02 117,572.67 	"/>
</g>
<g>
	<rect x="127.28" y="631.37" class="st42" width="14.69" height="4.55"/>
	<polygon class="st42" points="152,634.21 141.23,649 141.23,620.57 152,634.21 	"/>
	<polygon class="st42" points="117,633.67 127.77,648.46 127.77,620.02 117,633.67 	"/>
</g>
<g>
	<rect x="127.28" y="696.37" class="st42" width="14.69" height="4.55"/>
	<polygon class="st42" points="152,699.21 141.23,714 141.23,685.57 152,699.21 	"/>
	<polygon class="st42" points="117,698.67 127.77,713.46 127.77,685.02 117,698.67 	"/>
</g>
<rect x="690.63" y="47.81" class="st7" width="104.37" height="30.19"/>
<text transform="matrix(1 0 0 1 691.6642 68.0888)" class="st8 st4 st9">PASSIVATION</text>
<rect x="822.63" y="46.28" class="st7" width="104.37" height="30.19"/>
<text transform="matrix(1 0 0 1 824.0958 66.2398)" class="st8 st4 st5">PHOSPHATING</text>
<rect x="951" y="41" class="st7" width="109.27" height="41"/>
<text transform="matrix(1 0 0 1 975.2067 58.2174)"><tspan x="0" y="0" class="st8 st4 st43">SURFACE</tspan><tspan x="-19.37" y="15.6" class="st8 st4 st43">CONDITIONING</tspan></text>
<rect x="1081.9" y="46.28" class="st7" width="104.37" height="30.19"/>
<text transform="matrix(1 0 0 1 1087.4762 66.2398)" class="st8 st4 st5">DEGREASING</text>
<rect x="1213.69" y="46.53" class="st7" width="104.37" height="30.19"/>
<text transform="matrix(1 0 0 1 1223.175 66.4898)" class="st8 st4 st5">HOT WATER</text>
<rect x="1055" y="176.53" class="st7" width="188" height="24.47"/>
<text transform="matrix(1 0 0 1 1084.0745 194.672)" class="st8 st4 st44">CLD STRIP OUT</text>
<rect x="1244.14" y="131.53" class="st7" width="104.37" height="45.47"/>
<text transform="matrix(1 0 0 1 1267.8752 150.982)"><tspan x="0" y="0" class="st4 st43">PT Screed</tspan><tspan x="4.17" y="15.6" class="st4 st43">Load Lft</tspan></text>
<rect x="1245.06" y="177.89" class="st7" width="104.37" height="45.47"/>
<text transform="matrix(1 0 0 1 1274.2415 197.0902)"><tspan x="0" y="0" class="st4 st5">PTCLD</tspan><tspan x="2.16" y="16.8" class="st4 st5">WEBB</tspan></text>
<rect x="1167.06" y="251.89" class="st7" width="104.37" height="45.47"/>
<text transform="matrix(1 0 0 1 1201.3035 271.0902)"><tspan x="0" y="0" class="st45 st4 st5">B.I.W</tspan><tspan x="3.92" y="16.8" class="st45 st4 st5">TAL</tspan></text>
<rect x="1176" y="313" class="st7" width="89" height="43"/>
<text transform="matrix(1 0 0 1 1200.781 331.4696)"><tspan x="0" y="0" class="st4 st46">VINAR</tspan><tspan x="-3.85" y="14.4" class="st4 st46">STATUS</tspan></text>
<rect x="1106" y="283.12" class="st7" width="44" height="43"/>
<text transform="matrix(1 0 0 1 1106.5315 302.1)"><tspan x="0" y="0" class="st4 st47">secondary</tspan><tspan x="11.85" y="12" class="st4 st47">proy</tspan></text>
<rect x="918.65" y="187.78" class="st7" width="86.35" height="46.22"/>
<text transform="matrix(1 0 0 1 952.2848 207.3546)"><tspan x="0" y="0" class="st8 st4 st5">ED</tspan><tspan x="-16.4" y="16.8" class="st8 st4 st5">REPAIR</tspan></text>
<rect x="726" y="188.76" class="st7" width="119" height="46.22"/>
<text transform="matrix(1 0 0 1 758.0056 208.3397)"><tspan x="0" y="0" class="st8 st4 st5">SEALER</tspan><tspan x="2.54" y="16.8" class="st8 st4 st5">BOOTH</tspan></text>
<rect x="572.6" y="189.75" class="st7" width="44" height="43"/>
<text transform="matrix(1 0 0 1 587.5007 208.725)"><tspan x="0" y="0" class="st4 st47">UB</tspan><tspan x="-3.63" y="12" class="st4 st47">Load</tspan></text>
<rect x="421" y="191.25" class="st7" width="44" height="43"/>
<text transform="matrix(1 0 0 1 435.9045 210.225)"><tspan x="0" y="0" class="st4 st47">UB</tspan><tspan x="-8.37" y="12" class="st4 st47">Unload</tspan></text>
<rect x="463" y="231.31" class="st7" width="111" height="21.69"/>
<text transform="matrix(1 0 0 1 488.8151 245.6312)" class="st4 st47">UBS - WEBB</text>
<rect x="469" y="198.56" class="st7" width="92" height="24.44"/>
<text transform="matrix(1 0 0 1 477.9455 215.6437)" class="st8 st4 st5">UB BOOTH</text>
<rect x="123" y="121.74" class="st7" width="117" height="43.26"/>
<text transform="matrix(1 0 0 1 145.985 140.09)"><tspan x="0" y="0" class="st4 st43">CED Unload</tspan><tspan x="25.18" y="15.6" class="st4 st43">Lift</tspan></text>
<rect x="271" y="123.31" class="st7" width="359" height="43.26"/>
<text transform="matrix(1 0 0 1 379.3879 150.4978)" class="st48 st4 st49">LD BAKING OVEN</text>
<rect x="154.25" y="200.31" class="st7" width="161.75" height="20.69"/>
<text transform="matrix(1 0 0 1 178.2839 216.2151)" class="st48 st4 st49">SEALER OVEN</text>
<rect x="369" y="444" class="st7" width="134" height="47"/>
<text transform="matrix(1 0 0 1 392.9724 463.4597)"><tspan x="0" y="0" class="st48 st4 st49">SURFACER</tspan><tspan x="20.09" y="19.2" class="st48 st4 st49">OVEN</tspan></text>
<rect x="365" y="536.65" class="st7" width="151" height="47"/>
<text transform="matrix(1 0 0 1 383.2136 556.114)"><tspan x="0" y="0" class="st48 st4 st49">CLLEAR COAT</tspan><tspan x="34.35" y="19.2" class="st48 st4 st49">OVEN</tspan></text>
<rect x="417.26" y="668.79" class="st7" width="149.74" height="15.75"/>
<text transform="matrix(1 0 0 1 440.7539 681.8501)" class="st8 st4 st9">TC STRIP OUT</text>
<rect x="34.44" y="337.45" class="st7" width="104.37" height="45.47"/>
<text transform="matrix(1 0 0 1 67.8703 356.6527)"><tspan x="0" y="0" class="st45 st4 st5">P.B.S.</tspan><tspan x="4.73" y="16.8" class="st45 st4 st5">TAL</tspan></text>
<rect x="207" y="337.58" class="st7" width="119" height="46.22"/>
<text transform="matrix(1 0 0 1 236.2917 357.1522)"><tspan x="0" y="0" class="st8 st4 st5">WAXING</tspan><tspan x="5.26" y="16.8" class="st8 st4 st5">BOOTH</tspan></text>
<rect x="159" y="543.58" class="st7" width="163" height="54.42"/>
<text transform="matrix(1 0 0 1 176.9416 567.0009)"><tspan x="0" y="0" class="st8 st4 st50">POLISH DUFFING</tspan><tspan x="30.13" y="18" class="st8 st4 st50">BOOTH-2</tspan></text>
<rect x="161" y="606.48" class="st7" width="163" height="54.42"/>
<text transform="matrix(1 0 0 1 178.9416 629.8999)"><tspan x="0" y="0" class="st8 st4 st50">POLISH DUFFING</tspan><tspan x="30.13" y="18" class="st8 st4 st50">BOOTH-1</tspan></text>
<rect x="158" y="671.48" class="st7" width="143" height="54.42"/>
<text transform="matrix(1 0 0 1 219.4665 694.8999)"><tspan x="0" y="0" class="st8 st4 st50">I/C</tspan><tspan x="-35.74" y="18" class="st8 st4 st50">INSPECTION</tspan></text>
<rect x="-11" y="544.48" class="st7" width="143" height="54.42"/>
<text transform="matrix(1 0 0 1 21.6301 567.8999)"><tspan x="0" y="0" class="st8 st4 st50">TOUCH UP</tspan><tspan x="5.44" y="18" class="st8 st4 st50">BOOTH-3</tspan></text>
<rect x="-11" y="608.48" class="st7" width="143" height="54.42"/>
<text transform="matrix(1 0 0 1 21.6301 631.8999)"><tspan x="0" y="0" class="st8 st4 st50">TOUCH UP</tspan><tspan x="5.44" y="18" class="st8 st4 st50">BOOTH-2</tspan></text>
<rect x="-11" y="669.48" class="st7" width="143" height="54.42"/>
<text transform="matrix(1 0 0 1 21.6301 692.8999)"><tspan x="0" y="0" class="st8 st4 st50">TOUCH UP</tspan><tspan x="5.44" y="18" class="st8 st4 st50">BOOTH-1 </tspan></text>
<rect x="509.85" y="353.81" class="st7" width="44" height="43"/>
<text transform="matrix(1 0 0 1 513.863 372.7875)"><tspan x="0" y="0" class="st4 st47">Surfacer</tspan><tspan x="9.2" y="12" class="st4 st47">Exit</tspan></text>
<rect x="301.85" y="256.81" class="st7" width="48.15" height="51.19"/>
<text transform="matrix(1 0 0 1 310.7438 273.0287)"><tspan x="0" y="0" class="st4 st51">secour</tspan><tspan x="-4.14" y="13.2" class="st4 st51">secpmdt</tspan><tspan x="5.52" y="26.4" class="st4 st51">(10)</tspan></text>
<rect x="321.85" y="662.69" class="st7" width="44" height="61.31"/>
<text transform="matrix(1 0 0 1 336.6081 684.8187)"><tspan x="0" y="0" class="st4 st47">exe</tspan><tspan x="-3.21" y="12" class="st4 st47">Crop</tspan><tspan x="-12.85" y="24" class="st4 st47">Propertes</tspan></text>
<rect x="1286.72" y="543.19" class="st7" width="44" height="43"/>
<text transform="matrix(1 0 0 1 1300.7874 562.1625)"><tspan x="0" y="0" class="st4 st47">W.I</tspan><tspan x="-2.08" y="12" class="st4 st47">EXE</tspan></text>
<rect x="1049.12" y="543.19" class="st7" width="44" height="43"/>
<text transform="matrix(1 0 0 1 1063.1912 562.1625)"><tspan x="0" y="0" class="st4 st47">W.I</tspan><tspan x="-2.08" y="12" class="st4 st47">EXE</tspan></text>
<rect x="1050.12" y="595.19" class="st7" width="44" height="43"/>
<text transform="matrix(1 0 0 1 1064.1912 614.1625)"><tspan x="0" y="0" class="st4 st47">W.I</tspan><tspan x="-2.08" y="12" class="st4 st47">EXE</tspan></text>
<rect x="534.62" y="445.58" class="st7" width="119" height="46.22"/>
<text transform="matrix(1 0 0 1 553.7868 464.8998)"><tspan x="0" y="0" class="st8 st4 st50">SURFACER</tspan><tspan x="13.61" y="18" class="st8 st4 st50">BOOTH</tspan></text>
<rect x="529.62" y="538.23" class="st7" width="119" height="46.22"/>
<text transform="matrix(1 0 0 1 540.2253 557.5493)"><tspan x="0" y="0" class="st8 st4 st50">CLEAR COAT</tspan><tspan x="22.17" y="18" class="st8 st4 st50">BOOTH</tspan></text>
<rect x="717.15" y="433.03" class="st7" width="44" height="61.31"/>
<text transform="matrix(1 0 0 1 722.1481 461.1625)"><tspan x="0" y="0" class="st4 st47">Energes</tspan><tspan x="2.65" y="12" class="st4 st47">energy</tspan></text>
<rect x="725" y="539.23" class="st7" width="270" height="46.22"/>
<text transform="matrix(1 0 0 1 792.9079 567.5493)" class="st8 st4 st50">TOP COAT BOOTH</text>
<rect x="1127" y="439.58" class="st7" width="147" height="46.22"/>
<text transform="matrix(1 0 0 1 1146.7903 467.8998)" class="st8 st4 st50">DRY SANDING</text>
<rect x="1127.62" y="542.58" class="st7" width="147" height="46.22"/>
<text transform="matrix(1 0 0 1 1176.8904 561.8998)"><tspan x="0" y="0" class="st8 st4 st50">MOIST</tspan><tspan x="-10.87" y="18" class="st8 st4 st50">SANDING</tspan></text>
<rect x="1124.62" y="682.23" class="st7" width="147" height="46.22"/>
<text transform="matrix(1 0 0 1 1166.1653 701.5493)"><tspan x="0" y="0" class="st8 st4 st50">COLOUR</tspan><tspan x="-10.67" y="18" class="st8 st4 st50">SELECTION</tspan></text>
</svg>
