<?xml version="1.0" encoding="utf-8"?>
<!-- Generator: Adobe Illustrator 26.0.1, SVG Export Plug-In . SVG Version: 6.00 Build 0)  -->
<svg version="1.1" id="Layer_1" xmlns="http://www.w3.org/2000/svg" xmlns:xlink="http://www.w3.org/1999/xlink" x="0px" y="0px"
	 viewBox="0 0 1920 1080" style="enable-background:new 0 0 1920 1080;" xml:space="preserve">
<style type="text/css">
	.st0{fill:#FFFFFF;stroke:#000000;stroke-width:4;stroke-miterlimit:10;}
	.st1{fill:none;stroke:#000000;stroke-width:3;stroke-miterlimit:10;}
	.st2{fill:#F7931E;stroke:#F7931E;stroke-width:3;stroke-miterlimit:10;}
	.st3{fill:#FFFFFF;stroke:#F7931E;stroke-width:3;stroke-miterlimit:10;}
	.st4{fill:#F7931E;stroke:#FFFFFF;stroke-width:3;stroke-miterlimit:10;}
	.st5{fill:#FFFFFF;stroke:#FFFFFF;stroke-width:0.75;stroke-miterlimit:10;}
	.st6{fill:#FFFFFF;}
	.st7{font-family:'Calibri-Bold';}
	.st8{font-size:33px;}
	.st9{fill:#0071BC;}
	.st10{fill:#F7931E;}
	.st11{fill:#F7931E;stroke:#F7931E;stroke-width:6;stroke-miterlimit:10;}
	.st12{fill:#FFFFFF;stroke:#F7931E;stroke-width:4;stroke-miterlimit:10;}
	.st13{fill:#F7931E;stroke:#F7931E;stroke-width:0.75;stroke-miterlimit:10;}
	.st14{fill:none;stroke:#FFFFFF;stroke-miterlimit:10;}
	.st15{fill:none;stroke:#F7931E;stroke-width:5;stroke-miterlimit:10;}
	.st16{fill:#F7931E;stroke:#F7931E;stroke-width:5;stroke-miterlimit:10;}
	.st17{fill:#006837;}
	.st18{fill:#FFFFFF;stroke:#F7931E;stroke-width:15;stroke-miterlimit:10;}
	.st19{fill:none;stroke:#F7931E;stroke-width:4;stroke-miterlimit:10;}
	.st20{fill:#F7931E;stroke:#F7931E;stroke-miterlimit:10;}
	.st21{fill:none;stroke:#FFFFFF;stroke-width:8;stroke-linecap:round;stroke-miterlimit:10;}
	.st22{fill:#FFFFFF;stroke:#FFFFFF;stroke-width:8;stroke-linecap:round;stroke-miterlimit:10;}
	.st23{fill:#2E3192;}
	.st24{fill:#F7931E;stroke:#FFFFFF;stroke-width:2;stroke-linecap:round;stroke-miterlimit:10;}
	.st25{fill:#FFFFFF;stroke:#FFFFFF;stroke-width:4;stroke-linecap:round;stroke-miterlimit:10;}
	.st26{fill:none;}
	.st27{fill:none;stroke:#F7931E;stroke-width:2;stroke-miterlimit:10;}
	.st28{fill:none;stroke:#F7931E;stroke-miterlimit:10;}
</style>
<polygon class="st0" points="1328.95,727.65 1202.75,797.68 1076.55,727.65 1076.55,587.6 1202.75,517.57 1328.95,587.6 "/>
<polygon class="st0" points="313.59,729.11 187.39,799.14 61.18,729.11 61.18,589.05 187.39,519.03 313.59,589.05 "/>
<line class="st1" x1="0" y1="729.98" x2="63.5" y2="729.5"/>
<polygon class="st0" points="566.08,868.96 439.87,938.99 313.67,868.96 313.67,728.91 439.87,658.88 566.08,728.91 "/>
<polygon class="st0" points="819.98,729 693.77,799.02 567.57,729 567.57,588.94 693.77,518.91 819.98,588.94 "/>
<polygon class="st0" points="1582.1,866.82 1455.89,936.85 1329.69,866.82 1329.69,726.76 1455.89,656.74 1582.1,726.76 "/>
<polygon class="st0" points="1835,727.85 1708.79,797.88 1582.59,727.85 1582.59,587.8 1708.79,517.77 1835,587.8 "/>
<polygon class="st0" points="1074.3,869.76 948.09,939.79 821.89,869.76 821.89,729.71 948.09,659.68 1074.3,729.71 "/>
<line class="st1" x1="1836.28" y1="728.5" x2="1920" y2="728.5"/>
<ellipse class="st2" cx="190.25" cy="631.87" rx="71.75" ry="69.37"/>
<g>
	<ellipse class="st3" cx="167.44" cy="648.5" rx="30.89" ry="31.84"/>
	<ellipse class="st4" cx="167.81" cy="648.5" rx="18.9" ry="19.48"/>
	<rect x="165.07" y="612.87" class="st5" width="6.65" height="6.65"/>
	
		<rect x="186.92" y="622.37" transform="matrix(0.7071 0.7071 -0.7071 0.7071 498.1575 48.7353)" class="st5" width="6.65" height="6.65"/>
	
		<rect x="195.92" y="642.49" transform="matrix(0.0808 0.9967 -0.9967 0.0808 826.8509 395.0283)" class="st5" width="6.65" height="6.65"/>
	
		<rect x="189.27" y="665.3" transform="matrix(-0.6389 0.7693 -0.7693 -0.6389 830.012 947.6486)" class="st5" width="6.65" height="6.65"/>
	
		<rect x="166.82" y="677.59" transform="matrix(-0.9893 0.146 -0.146 -0.9893 437.8892 1329.6992)" class="st5" width="6.65" height="6.65"/>
	
		<rect x="131.8" y="642.15" transform="matrix(-0.0476 0.9989 -0.9989 -0.0476 786.3035 541.2001)" class="st5" width="6.65" height="6.65"/>
	
		<rect x="141.31" y="621.24" transform="matrix(0.7071 0.7071 -0.7071 0.7071 483.999 80.6601)" class="st5" width="6.65" height="6.65"/>
	
		<rect x="138.46" y="665.91" transform="matrix(-0.7953 0.6063 -0.6063 -0.7953 660.2798 1115.4828)" class="st5" width="6.65" height="6.65"/>
</g>
<ellipse transform="matrix(0.095 -0.9955 0.9955 0.095 -413.4927 752.0607)" class="st6" cx="206.89" cy="603.45" rx="21.33" ry="20.65"/>
<ellipse transform="matrix(0.095 -0.9955 0.9955 0.095 -413.5616 751.8957)" class="st4" cx="206.76" cy="603.41" rx="14.08" ry="13.66"/>
<rect x="197.23" y="623.46" transform="matrix(-0.9622 -0.2725 0.2725 -0.9622 223.4684 1285.6212)" class="st5" width="7.56" height="7.66"/>
<rect x="181.01" y="609.94" transform="matrix(-0.4013 -0.916 0.916 -0.4013 -303.2551 1029.3208)" class="st5" width="7.56" height="7.66"/>
<rect x="183.92" y="585.38" transform="matrix(0.5876 -0.8091 0.8091 0.5876 -399.3528 394.8533)" class="st5" width="7.56" height="7.66"/>
<rect x="220.98" y="615.79" transform="matrix(0.5876 -0.8091 0.8091 0.5876 -408.675 437.3831)" class="st5" width="7.56" height="7.66"/>
<rect x="226.68" y="593.94" transform="matrix(0.9807 -0.1957 0.1957 0.9807 -112.5137 56.6515)" class="st5" width="7.56" height="7.66"/>
<rect x="207.67" y="575.88" transform="matrix(-0.9902 -0.1396 0.1396 -0.9902 339.9304 1183.2581)" class="st5" width="7.56" height="7.66"/>
<text transform="matrix(1.0615 0 0 1 103.75 741.0762)" class="st7 st8">AUTOMATE</text>
<text transform="matrix(1.0615 0 0 1 370.7959 890.3896)" class="st9 st7 st8">CONNECT</text>
<circle class="st10" cx="446.46" cy="766.26" r="23.74"/>
<line class="st11" x1="368.96" y1="824.46" x2="444.9" y2="774.71"/>
<line class="st11" x1="438.09" y1="781.17" x2="507.58" y2="722.75"/>
<line class="st11" x1="401.33" y1="726.63" x2="494.76" y2="804.81"/>
<line class="st11" x1="446.65" y1="756.38" x2="449.27" y2="820.97"/>
<circle class="st10" cx="449.3" cy="821.82" r="13.12"/>
<circle class="st10" cx="502.51" cy="813.93" r="13.12"/>
<circle class="st10" cx="506.88" cy="724.03" r="13.12"/>
<circle class="st10" cx="399.51" cy="724.9" r="13.12"/>
<circle class="st10" cx="368.09" cy="821.79" r="13.12"/>
<path class="st12" d="M753.75,662h-112.5c-5.11,0-9.25-4.14-9.25-9.25v-57.5c0-5.11,4.14-9.25,9.25-9.25h112.5
	c5.11,0,9.25,4.14,9.25,9.25v57.5C763,657.86,758.86,662,753.75,662z"/>
<path class="st12" d="M722.88,687.5H677.5c-2.76,0-5-2.24-5-5l6-13h44l5,11.38C727.5,683.43,725.43,687.5,722.88,687.5z"/>
<path class="st3" d="M750.5,603.5h-24c-0.55,0-1-0.45-1-1l0,0c0-0.55,0.45-1,1-1h24c0.55,0,1,0.45,1,1l0,0
	C751.5,603.05,751.05,603.5,750.5,603.5z"/>
<path class="st3" d="M750.5,618.5h-24c-0.55,0-1-0.45-1-1l0,0c0-0.55,0.45-1,1-1h24c0.55,0,1,0.45,1,1l0,0
	C751.5,618.05,751.05,618.5,750.5,618.5z"/>
<path class="st3" d="M750.5,633.5h-24c-0.55,0-1-0.45-1-1l0,0c0-0.55,0.45-1,1-1h24c0.55,0,1,0.45,1,1l0,0
	C751.5,633.05,751.05,633.5,750.5,633.5z"/>
<circle class="st13" cx="679.5" cy="624.5" r="23"/>
<rect x="681.49" y="597.23" transform="matrix(0.9624 0.2718 -0.2718 0.9624 193.4931 -166.9733)" class="st6" width="36.02" height="35.55"/>
<circle class="st10" cx="686" cy="621" r="11"/>
<line class="st14" x1="684.5" y1="600.5" x2="676.5" y2="626.5"/>
<line class="st14" x1="700.5" y1="633.5" x2="676.5" y2="626.5"/>
<text transform="matrix(1.0615 0 0 1 624.7336 735.9521)" class="st10 st7 st8">MONITOR</text>
<path class="st3" d="M976.95,843.62H930c-8.01,0-14.5-6.49-14.5-14.5v-67.25c0-8.01,6.49-14.5,14.5-14.5h46.95
	c8.01,0,14.5,6.49,14.5,14.5v67.25C991.45,837.12,984.96,843.62,976.95,843.62z"/>
<g>
	<path class="st15" d="M912.2,718.03c25.16-21.47,62.97-18.47,84.44,6.69"/>
	<path class="st15" d="M919.29,725.67c20.97-17.89,52.47-15.39,70.36,5.58"/>
	<path class="st15" d="M927.18,734.91c15.86-13.53,39.7-11.64,53.23,4.22"/>
</g>
<circle class="st16" cx="931.56" cy="759.95" r="2.6"/>
<circle class="st16" cx="953.26" cy="759.95" r="2.6"/>
<circle class="st16" cx="974.96" cy="759.95" r="2.6"/>
<circle class="st16" cx="931.56" cy="772.97" r="2.6"/>
<circle class="st16" cx="953.26" cy="772.97" r="2.6"/>
<circle class="st16" cx="974.96" cy="772.97" r="2.6"/>
<circle class="st16" cx="931.56" cy="786.86" r="2.6"/>
<circle class="st16" cx="953.26" cy="786.86" r="2.6"/>
<circle class="st16" cx="974.96" cy="786.86" r="2.6"/>
<circle class="st16" cx="931.56" cy="799.88" r="2.6"/>
<circle class="st16" cx="953.26" cy="799.88" r="2.6"/>
<circle class="st16" cx="974.96" cy="799.88" r="2.6"/>
<circle class="st16" cx="931.56" cy="813.76" r="2.6"/>
<circle class="st16" cx="953.26" cy="813.76" r="2.6"/>
<circle class="st16" cx="931.56" cy="827.65" r="2.6"/>
<circle class="st16" cx="953.26" cy="827.65" r="2.6"/>
<path class="st12" d="M999.7,862.81c-9.35-4.55-12.21-9.36-13.02-13.02c-1.42-6.38-0.5-7.53-3.47-11.28
	c-2.48-3.13-4.15-3.2-8.68-7.81c-0.75-0.77-3.83-3.83-5.21-5.21c-3.47-3.47,0-8.68,7.81-7.81c2.86,0.32,10.38,4.72,13.02,6.94
	c1.58,1.34,0.98,1.73,3.47,5.21c0,0,1.1,1.54,6.94,7.81l0,0"/>
<path class="st12" d="M992.75,807.25c3.31,0.65,7.84,2.12,11.66,5.9c0.67,0.67,10.1,28.78,9.33,26.14
	c2.12,7.25,0.4,9.94,10.25,20.04"/>
<text transform="matrix(1.0615 0 0 1 877.843 893.6396)" class="st17 st7 st8">CONTROL</text>
<path class="st18" d="M1254.66,621.72c0,31.88-25.22,57.72-56.33,57.72c-31.11,0-56.33-25.84-56.33-57.72
	c0-31.88,25.22-57.72,56.33-57.72c8.15,0,15.29,2.27,17.94,3.21c21.29,7.51,30.76,25.35,32.15,28.08
	C1249.96,598.31,1254.66,608.7,1254.66,621.72z"/>
<line class="st19" x1="1232.59" y1="672.67" x2="1259.11" y2="699.2"/>
<path class="st20" d="M1269.68,708.94l-2.79,2.53c-1.51,1.37-3.83,1.25-5.2-0.25l-16.6-18.28c-1.37-1.5-1.25-3.83,0.25-5.2
	l2.79-2.53c1.51-1.37,3.83-1.25,5.2,0.25l16.6,18.28C1271.3,705.25,1271.19,707.58,1269.68,708.94z"/>
<path class="st20" d="M1257.5,601.5"/>
<path class="st21" d="M1207.97,566.37c4.7,0.62,21.63,5.13,33.58,20.76"/>
<path class="st22" d="M1247.65,595.2c1.12,2.35,2.24,5.09,3.21,8.19c1.39,4.46,2.11,8.53,2.47,11.94"/>
<path class="st10" d="M1233.8,637.25h-69.54c-1.54,0-2.78,1.25-2.78,2.78l0,0c0,1.54,1.25,2.78,2.78,2.78h69.54
	c1.54,0,2.78-1.25,2.78-2.78l0,0C1236.58,638.5,1235.33,637.25,1233.8,637.25z"/>
<path class="st20" d="M1206.7,639.57h-12.58c-0.88,0-1.59-0.71-1.59-1.59v-21.85c0-0.88,0.71-1.59,1.59-1.59h12.58
	c0.88,0,1.59,0.71,1.59,1.59v21.85C1208.3,638.86,1207.58,639.57,1206.7,639.57z"/>
<path class="st20" d="M1182.6,638.64h-12.58c-0.88,0-1.59-0.71-1.59-1.59v-28.34c0-0.88,0.71-1.59,1.59-1.59h12.58
	c0.88,0,1.59,0.71,1.59,1.59v28.34C1184.19,637.93,1183.48,638.64,1182.6,638.64z"/>
<path class="st20" d="M1229.89,638.64h-12.58c-0.88,0-1.59-0.71-1.59-1.59v-37.61c0-0.88,0.71-1.59,1.59-1.59h12.58
	c0.88,0,1.59,0.71,1.59,1.59v37.61C1231.48,637.93,1230.77,638.64,1229.89,638.64z"/>
<text transform="matrix(1.0615 0 0 1 1143.2959 747.3271)" class="st23 st7 st8">ANALYSE</text>
<polygon class="st10" points="1451.47,840.86 1403,818.77 1403.42,779 1451.47,792.26 "/>
<polygon class="st10" points="1453.89,841 1498,818.91 1497.62,779.14 1453.89,792.39 "/>
<path class="st24" d="M1440.79,811.18L1395,796.69c-1.71-0.54-2.49-2.33-1.66-3.78l7.12-12.46c0.64-1.12,2.06-1.69,3.41-1.36
	l46.92,11.32c1.8,0.43,2.72,2.24,1.92,3.77l-8.25,15.62C1443.8,811.03,1442.22,811.63,1440.79,811.18z"/>
<path class="st24" d="M1464.24,811.73l37.83-16.48c1.41-0.62,1.98-2.43,1.2-3.85l-6.66-12.12c-0.6-1.09-1.82-1.6-2.94-1.21
	l-38.94,13.37c-1.49,0.51-2.18,2.36-1.42,3.84l7.77,15.23C1461.69,811.72,1463.05,812.24,1464.24,811.73z"/>
<path class="st10" d="M1468.5,753.5c0,8.39-7.14,20-7.89,21c-1.15,1.53,1.46,4-9.11,4c-10.77,0-7.5-3.49-8.61-5
	c-0.73-1-9.81-12.8-9.39-21c0.56-10.8,4.48-20,18-20C1464.03,732.5,1468.5,739.55,1468.5,753.5z"/>
<ellipse class="st12" cx="1452" cy="784" rx="7" ry="1"/>
<line class="st25" x1="1450.99" y1="760.62" x2="1450.99" y2="778.31"/>
<ellipse transform="matrix(0.9179 -0.3968 0.3968 0.9179 -188.1685 630.9309)" class="st3" cx="1430.61" cy="770.19" rx="3.12" ry="0.5"/>
<ellipse transform="matrix(0.0399 -0.9992 0.9992 0.0399 613.8304 2149.5535)" class="st3" cx="1425.5" cy="755.35" rx="0.5" ry="3.12"/>
<ellipse transform="matrix(0.2432 -0.97 0.97 0.2432 362.5598 1944.7312)" class="st3" cx="1427.48" cy="740.03" rx="0.61" ry="3"/>
<ellipse transform="matrix(0.7866 -0.6175 0.6175 0.7866 -141.9805 1041.6121)" class="st3" cx="1435.75" cy="726.19" rx="0.61" ry="3"/>
<ellipse transform="matrix(0.0998 -0.995 0.995 0.0998 586.3135 2095.4749)" class="st3" cx="1451.25" cy="723.7" rx="3" ry="0.61"/>
<ellipse transform="matrix(0.5441 -0.839 0.839 0.5441 57.5326 1563.3148)" class="st3" cx="1467.25" cy="728.72" rx="3" ry="0.61"/>
<ellipse transform="matrix(0.9272 -0.3746 0.3746 0.9272 -170.0162 606.7192)" class="st3" cx="1475.75" cy="740.72" rx="3" ry="0.61"/>
<ellipse transform="matrix(0.0399 -0.9992 0.9992 0.0399 661.4708 2202.7449)" class="st3" cx="1477" cy="757.16" rx="0.5" ry="3.12"/>
<ellipse transform="matrix(0.3677 -0.9299 0.9299 0.3677 214.217 1857.3773)" class="st3" cx="1473" cy="771.16" rx="0.5" ry="3.12"/>
<text transform="matrix(1.0615 0 0 1 1403.093 881.3271)" class="st10 st7 st8">PRIDCT</text>
<g>
	<g>
		<path class="st26" d="M1623,697c0-49.99,0-99.98,0-150c49.98,0,99.97,0,150,0c0,49.98,0,99.99,0,150
			C1723.02,697,1673.02,697,1623,697z"/>
		<path class="st26" d="M1711.68,619.28c3.62,7.89,3.91,15.7,0.21,23.53c10.76,1.38,27.08-3.78,35.58-19.41
			c8.08-14.86,5.13-33.29-7.17-45.02c-12.22-11.64-30.82-13.66-45.12-4.89c-11.97,7.34-20.76,24.45-17.73,34.74
			c3.7-1.78,7.59-2.68,11.69-2.65c4.1,0.03,7.91,1.21,11.78,2.83c-0.46,0.49-0.81,0.88-1.18,1.25c-4.41,4.42-8.86,8.8-13.21,13.28
			c-3.34,3.43-3.16,8.31,0.29,11.28c3.1,2.66,7.37,2.43,10.55-0.7c4.41-4.35,8.76-8.76,13.14-13.14
			C1710.86,620.02,1711.26,619.67,1711.68,619.28z"/>
		<path class="st26" d="M1709.46,627.77c-0.52,0.66-0.79,1.06-1.12,1.4c-2.54,2.56-5.06,5.15-7.66,7.66
			c-3.43,3.32-7.47,4.74-12.18,3.46c-9.07-2.46-12.02-13.46-5.47-20.47c2.6-2.78,5.35-5.41,8.04-8.11c0.32-0.32,0.63-0.65,1.02-1.06
			c-3.37-0.81-7.91-0.25-11.63,1.36c-10.56,4.56-15.37,16.26-11.11,27.23c0.48,1.24,0.26,1.83-0.71,2.65
			c-6.23,5.24-12.4,10.57-18.58,15.86c-5.19,4.44-10.37,8.88-15.57,13.31c-3.61,3.08-5.06,6.9-3.65,11.51
			c1.17,3.85,3.86,6.28,7.81,7.12c4.28,0.91,7.74-0.61,10.52-3.88c9.74-11.44,19.5-22.86,29.22-34.32c0.78-0.92,1.35-1.11,2.54-0.64
			c12.51,4.94,25.63-2.11,28.5-15.26C1709.94,633.17,1710.11,630.72,1709.46,627.77z"/>
		<path class="st26" d="M1705.42,651.16c0.55,2.01,1.1,3.97,1.64,5.93c5.05,0,10.01,0,15.01,0c0.4-1.56,0.73-3.08,1.2-4.56
			c0.14-0.45,0.64-1.01,1.07-1.1c5.57-1.24,10.74-3.44,15.58-6.45c0.41-0.25,1.2-0.23,1.65,0c1.38,0.7,2.67,1.56,4.06,2.4
			c3.42-3.43,6.77-6.77,10.07-10.15c0.23-0.23,0.26-0.91,0.1-1.22c-0.6-1.17-1.39-2.24-1.97-3.42c-0.21-0.42-0.24-1.16,0-1.54
			c3.04-4.84,5.22-10.01,6.47-15.59c0.1-0.46,0.71-0.99,1.19-1.15c1.46-0.48,2.98-0.8,4.48-1.18c0-5.08,0-10.05,0-15.09
			c-1.44-0.37-2.84-0.79-4.26-1.05c-0.97-0.18-1.34-0.68-1.54-1.6c-0.89-4.17-2.37-8.14-4.4-11.89c-0.74-1.37-2.17-2.71-2.16-4.05
			c0.02-1.4,1.44-2.76,2.13-4.2c0.18-0.38,0.1-1.15-0.18-1.44c-3.06-3.15-6.16-6.26-9.31-9.32c-0.28-0.28-1.06-0.34-1.44-0.16
			c-1.09,0.52-2.13,1.18-3.14,1.86c-0.65,0.43-1.14,0.48-1.83,0.03c-4.75-3.08-9.89-5.21-15.41-6.46c-0.49-0.11-1.04-0.78-1.22-1.3
			c-0.48-1.42-0.77-2.9-1.15-4.38c-5.04,0-10,0-15.04,0c-0.39,1.53-0.71,3.05-1.2,4.51c-0.16,0.48-0.7,1.09-1.16,1.19
			c-5.53,1.23-10.67,3.36-15.41,6.44c-0.69,0.45-1.18,0.41-1.83-0.03c-1.05-0.71-2.14-1.36-3.27-1.93
			c-0.32-0.16-0.98-0.11-1.22,0.12c-3.38,3.3-6.71,6.66-10.13,10.07c0.85,1.41,1.71,2.71,2.41,4.09c0.23,0.45,0.24,1.25-0.01,1.66
			c-3,4.8-5.16,9.93-6.41,15.46c-0.11,0.5-0.76,1.07-1.28,1.25c-1.42,0.48-2.9,0.78-4.38,1.15c0,5.06,0,10.07,0,15.04
			c2.02,0.56,3.95,1.09,5.84,1.62c0.84-0.8,1.69-1.77,2.7-2.51c0.99-0.71,1.06-1.53,1.04-2.62c-0.07-3.16-0.3-6.37,0.09-9.48
			c3.06-24.37,26.69-40.97,50.71-35.75c18.24,3.97,31.55,19.25,33.01,38.49c1.38,18.22-9.4,34.99-26.1,41.81
			c-6.33,2.59-12.9,3.65-19.74,2.92c-0.73-0.08-1.69,0.05-2.22,0.48C1707.32,648.97,1706.36,650.17,1705.42,651.16z"/>
	</g>
	<path class="st27" d="M1711.68,619.28c-0.42,0.4-0.82,0.74-1.18,1.11c-4.38,4.38-8.73,8.79-13.14,13.14
		c-3.18,3.13-7.44,3.36-10.55,0.7c-3.45-2.96-3.63-7.85-0.29-11.28c4.36-4.47,8.81-8.85,13.21-13.28c0.37-0.37,0.72-0.76,1.18-1.25
		c-3.87-1.62-7.68-2.8-11.78-2.83c-4.1-0.03-7.99,0.87-11.69,2.65c-3.03-10.28,5.76-27.4,17.73-34.74
		c14.3-8.77,32.91-6.75,45.12,4.89c12.31,11.73,15.26,30.15,7.17,45.02c-8.5,15.63-24.82,20.79-35.58,19.41
		C1715.59,634.97,1715.3,627.17,1711.68,619.28z M1705.89,578.76c-0.51-1.55-0.96-2.91-1.41-4.27
		c-8.76,1.88-20.38,13.63-20.87,21.06c1.36,0.44,2.73,0.88,4.17,1.34C1690.98,587.97,1696.98,581.98,1705.89,578.76z M1740.72,625.4
		c-1.31-1-2.5-1.9-3.73-2.83c-0.98,1.11-1.89,2.15-2.89,3.28c1.17,1.05,2.27,2.05,3.48,3.13
		C1738.55,627.86,1739.59,626.67,1740.72,625.4z M1714.48,572.67c-1.74,0.16-3.31,0.31-4.98,0.46c0.26,1.65,0.49,3.08,0.74,4.61
		c1.47-0.13,2.85-0.25,4.24-0.37C1714.48,575.81,1714.48,574.36,1714.48,572.67z M1718.88,633.42c0.24,1.56,0.47,2.99,0.72,4.62
		c1.68-0.39,3.25-0.76,4.9-1.14c-0.52-1.61-0.97-3.02-1.44-4.45C1721.6,632.79,1720.33,633.09,1718.88,633.42z M1727.08,630.81
		c0.73,1.44,1.4,2.77,2.13,4.2c1.49-0.91,2.84-1.74,4.27-2.62c-0.96-1.37-1.8-2.56-2.68-3.8
		C1729.55,629.34,1728.39,630.03,1727.08,630.81z"/>
	<path class="st27" d="M1709.46,627.77c0.65,2.94,0.48,5.4-0.05,7.82c-2.87,13.15-15.99,20.2-28.5,15.26
		c-1.18-0.47-1.76-0.28-2.54,0.64c-9.71,11.46-19.47,22.89-29.22,34.32c-2.79,3.27-6.25,4.78-10.52,3.88
		c-3.95-0.84-6.63-3.27-7.81-7.12c-1.4-4.61,0.05-8.43,3.65-11.51c5.19-4.43,10.38-8.87,15.57-13.31
		c6.19-5.29,12.35-10.62,18.58-15.86c0.97-0.82,1.19-1.41,0.71-2.65c-4.26-10.97,0.55-22.67,11.11-27.23
		c3.73-1.61,8.26-2.17,11.63-1.36c-0.39,0.41-0.7,0.74-1.02,1.06c-2.68,2.7-5.44,5.33-8.04,8.11c-6.55,7.01-3.6,18.01,5.47,20.47
		c4.71,1.28,8.75-0.13,12.18-3.46c2.59-2.51,5.11-5.1,7.66-7.66C1708.67,628.84,1708.94,628.43,1709.46,627.77z M1646.68,678.31
		c0.03-2.54-2.04-4.69-4.58-4.74c-2.55-0.05-4.7,2.01-4.77,4.55c-0.07,2.6,2.06,4.81,4.65,4.82
		C1644.52,682.94,1646.65,680.85,1646.68,678.31z M1659.51,663.52c1.07-1,2.16-2.01,3.05-2.85c-0.98-1.07-1.98-2.15-3.01-3.27
		c-1.04,1.07-2.05,2.1-3.1,3.18C1657.5,661.59,1658.58,662.62,1659.51,663.52z M1653.01,670.45c1.06-1.13,2.07-2.22,2.97-3.18
		c-0.95-1.01-1.99-2.13-2.73-2.92c-1.16,0.97-2.3,1.92-3.37,2.82C1650.96,668.3,1651.96,669.35,1653.01,670.45z M1666.1,651.08
		c-0.96,0.96-1.95,1.94-2.92,2.9c1.02,1,2.07,2.04,3.11,3.07c0.98-0.94,1.98-1.91,2.95-2.84
		C1668.16,653.13,1667.14,652.11,1666.1,651.08z"/>
	<path class="st27" d="M1705.42,651.16c0.94-0.99,1.89-2.19,3.05-3.13c0.53-0.43,1.49-0.56,2.22-0.48
		c6.84,0.73,13.41-0.33,19.74-2.92c16.7-6.82,27.48-23.59,26.1-41.81c-1.46-19.23-14.77-34.52-33.01-38.49
		c-24.02-5.23-47.65,11.38-50.71,35.75c-0.39,3.12-0.16,6.32-0.09,9.48c0.02,1.1-0.05,1.91-1.04,2.62c-1.02,0.73-1.86,1.71-2.7,2.51
		c-1.89-0.52-3.82-1.06-5.84-1.62c0-4.97,0-9.98,0-15.04c1.48-0.37,2.96-0.67,4.38-1.15c0.52-0.18,1.17-0.75,1.28-1.25
		c1.24-5.53,3.41-10.66,6.41-15.46c0.26-0.41,0.24-1.21,0.01-1.66c-0.7-1.38-1.56-2.68-2.41-4.09c3.42-3.42,6.75-6.77,10.13-10.07
		c0.24-0.23,0.9-0.28,1.22-0.12c1.13,0.57,2.22,1.23,3.27,1.93c0.65,0.44,1.15,0.48,1.83,0.03c4.74-3.09,9.88-5.21,15.41-6.44
		c0.46-0.1,1-0.7,1.16-1.19c0.49-1.47,0.81-2.99,1.2-4.51c5.04,0,10,0,15.04,0c0.37,1.48,0.67,2.97,1.15,4.38
		c0.18,0.53,0.73,1.19,1.22,1.3c5.52,1.25,10.66,3.39,15.41,6.46c0.69,0.45,1.19,0.4,1.83-0.03c1.01-0.68,2.04-1.34,3.14-1.86
		c0.38-0.18,1.16-0.11,1.44,0.16c3.15,3.06,6.25,6.17,9.31,9.32c0.28,0.29,0.36,1.06,0.18,1.44c-0.69,1.44-2.12,2.8-2.13,4.2
		c-0.01,1.34,1.42,2.68,2.16,4.05c2.03,3.75,3.51,7.72,4.4,11.89c0.2,0.92,0.56,1.42,1.54,1.6c1.43,0.26,2.82,0.69,4.26,1.05
		c0,5.04,0,10.01,0,15.09c-1.5,0.38-3.02,0.7-4.48,1.18c-0.48,0.16-1.09,0.69-1.19,1.15c-1.25,5.58-3.43,10.76-6.47,15.59
		c-0.24,0.38-0.21,1.12,0,1.54c0.58,1.18,1.37,2.25,1.97,3.42c0.16,0.32,0.13,0.99-0.1,1.22c-3.3,3.38-6.65,6.72-10.07,10.15
		c-1.39-0.84-2.69-1.7-4.06-2.4c-0.45-0.23-1.25-0.26-1.65,0c-4.84,3.01-10.01,5.21-15.58,6.45c-0.43,0.09-0.92,0.65-1.07,1.1
		c-0.48,1.48-0.81,3-1.2,4.56c-4.99,0-9.95,0-15.01,0C1706.52,655.13,1705.98,653.16,1705.42,651.16z"/>
	<path class="st26" d="M1737.84,610.2c0-7.84,0-15.57,0-23.26c-1.58,0-3.06,0-4.5,0c0,7.81,0,15.5,0,23.26
		C1734.86,610.2,1736.3,610.2,1737.84,610.2z M1724.01,591.58c0,6.28,0,12.44,0,18.57c1.58,0,3.06,0,4.5,0c0-6.25,0-12.37,0-18.57
		C1726.99,591.58,1725.55,591.58,1724.01,591.58z M1714.62,610.18c1.55,0,3.02,0,4.51,0c0-3.13,0-6.16,0-9.18c-1.58,0-3.05,0-4.51,0
		C1714.62,604.12,1714.62,607.12,1714.62,610.18z"/>
	<path class="st26" d="M1705.89,578.76c-8.92,3.22-14.92,9.21-18.11,18.13c-1.44-0.46-2.82-0.9-4.17-1.34
		c0.5-7.43,12.12-19.18,20.87-21.06C1704.93,575.85,1705.39,577.21,1705.89,578.76z"/>
	<path class="st26" d="M1740.72,625.4c-1.12,1.28-2.17,2.47-3.14,3.58c-1.21-1.09-2.31-2.08-3.48-3.13c1-1.13,1.91-2.17,2.89-3.28
		C1738.21,623.5,1739.4,624.4,1740.72,625.4z"/>
	<path class="st26" d="M1714.48,572.67c0,1.7,0,3.14,0,4.7c-1.4,0.12-2.77,0.24-4.24,0.37c-0.24-1.53-0.47-2.96-0.74-4.61
		C1711.17,572.97,1712.74,572.83,1714.48,572.67z"/>
	<path class="st26" d="M1718.88,633.42c1.45-0.34,2.72-0.63,4.18-0.97c0.46,1.43,0.92,2.84,1.44,4.45c-1.65,0.38-3.22,0.75-4.9,1.14
		C1719.35,636.41,1719.12,634.98,1718.88,633.42z"/>
	<path class="st26" d="M1727.08,630.81c1.31-0.78,2.47-1.47,3.72-2.22c0.88,1.25,1.71,2.43,2.68,3.8c-1.43,0.88-2.78,1.7-4.27,2.62
		C1728.48,633.58,1727.81,632.25,1727.08,630.81z"/>
	<path class="st28" d="M1646.68,678.31c-0.03,2.54-2.16,4.64-4.7,4.62c-2.59-0.01-4.72-2.22-4.65-4.82c0.07-2.54,2.22-4.6,4.77-4.55
		C1644.63,673.61,1646.71,675.76,1646.68,678.31z"/>
	<path class="st26" d="M1659.51,663.52c-0.94-0.9-2.01-1.93-3.06-2.93c1.05-1.08,2.06-2.11,3.1-3.18c1.03,1.11,2.03,2.2,3.01,3.27
		C1661.67,661.51,1660.59,662.52,1659.51,663.52z"/>
	<path class="st26" d="M1653.01,670.45c-1.05-1.1-2.05-2.15-3.13-3.29c1.08-0.9,2.21-1.85,3.37-2.82c0.74,0.8,1.78,1.91,2.73,2.92
		C1655.08,668.23,1654.07,669.32,1653.01,670.45z"/>
	<path class="st26" d="M1666.1,651.08c1.04,1.03,2.06,2.05,3.14,3.13c-0.97,0.93-1.97,1.9-2.95,2.84c-1.04-1.03-2.1-2.07-3.11-3.07
		C1664.15,653.02,1665.14,652.04,1666.1,651.08z"/>
	<path class="st27" d="M1739.41,611.84c-2.69,0-5.2,0-7.85,0c0-9.64,0-19.2,0-28.91c2.52,0,5.09,0,7.85,0
		C1739.41,592.49,1739.41,602.1,1739.41,611.84z"/>
	<path class="st27" d="M1722.11,588.7c2.69,0,5.21,0,7.85,0c0,7.7,0,15.32,0,23.08c-2.52,0-5.09,0-7.85,0
		C1722.11,604.17,1722.11,596.51,1722.11,588.7z"/>
	<path class="st27" d="M1713.23,611.82c0-3.8,0-7.53,0-11.41c2.54,0,5.11,0,7.86,0c0,3.75,0,7.52,0,11.41
		C1718.5,611.82,1715.93,611.82,1713.23,611.82z"/>
</g>
<rect x="1346" y="44" class="st26" width="384" height="384"/>
<text transform="matrix(1.0615 0 0 1 1655.6882 746.8271)" class="st10 st7 st8">OPIMISE</text>
</svg>
