<svg version="1.1" id="Layer_1" xmlns="http://www.w3.org/2000/svg" xmlns:xlink="http://www.w3.org/1999/xlink" x="0px" y="0px"
	 viewBox="0 0 1366 768" style="enable-background:new 0 0 1366 768;" xml:space="preserve">
<style type="text/css">
	.st0{font-family: 'Montserrat', sans-serif;}
	.st1{font-size:19.7479px;}
	.st2{font-size:19.4236px;}
	.st3{fill:#999999;}
	.st4{font-family: 'Montserrat', sans-serif;}
	.st5{font-size:21.7227px;}
	.st6{font-size:16.7858px;}
	.st7{font-size:17.7732px;}
	.st8{font-size:19.4188px;}
	.st9{font-size:15.5389px;}
	.st10{fill:#55A9E0;}
	.st11{fill:#CAE4F5;}
	.st12{fill:#74B9E6;}
	.st13{fill:#A0CFED;}
	.st14{fill:#84C1E9;}
	.st15{fill:#CDE6F6;}
	.st16{fill:#7BBDE7;}
	.st17{fill:#ACD5EF;}
	.st18{fill:#B6DAF1;}
	.st19{fill:#2B99AA;}
	.st20{fill:#FF6606;stroke:#F7931E;stroke-miterlimit:10;}
	.st21{fill:#FF6606;}
	.st22{font-size:29.1432px;}
	.st23{font-size:28.6646px;}
	.st24{font-size:18.4524px;}
	.st25{font-size:17.4813px;}
	.st26{fill:none;}
	.st27{fill:#FFFFFF;}
	.st28{font-size:22px;}
	.st29{font-size:24px;}
	.st30{fill:#DDEAE2;}
	.st31{fill:#65B27F;}
	.st32{fill:#B2DBC0;}
	.st33{fill:#69B481;}
	.st34{fill:#DDE9E1;}
	.st35{fill:#B7DDC5;}
	.st36{fill:#AEDBBD;}
	.st37{fill:#B4DBC0;}
	.st38{fill:#CFE3D6;}
	.st39{fill:#DAE8DE;}
	.st40{fill:#E1E9E1;}
</style>
<text transform="matrix(1.2016 0 0 1 69.3154 157.4941)" class="st0 st1">BUSINESS ENTERPRISE APPLICATIONS</text>
<text transform="matrix(1.1962 0 0 1 887.3652 157.2188)" class="st0 st2">DATA LAKE / WAREHOUSE</text>
<g>
	<rect x="53" y="191.2" class="st3" width="116.5" height="58.3"/>
	<text transform="matrix(1.084 0 0 1 82.7812 228.2056)" class="st4 st5">SCM</text>
</g>
<rect x="53" y="396.6" class="st3" width="168.5" height="70.1"/>
<text transform="matrix(0.9008 0 0 1 55.8389 428.2773)" class="st4 st6">Production planning</text>
<text transform="matrix(0.9008 0 0 1 90.4385 448.417)" class="st4 st6">&amp; Moitoring</text>
<rect x="226.2" y="396.6" class="st3" width="162.6" height="70.1"/>
<text transform="matrix(0.9008 0 0 1 260.6177 438.1514)" class="st4 st7">Traceability</text>
<rect x="397.1" y="396.6" class="st3" width="164.9" height="70.1"/>
<text transform="matrix(0.9136 0 0 1 433.2007 429.2646)" class="st4 st7">Equipment</text>
<text transform="matrix(0.9136 0 0 1 434.1875 450.5947)" class="st4 st7">Monitoring</text>
<rect x="53" y="470.6" class="st3" width="168.5" height="70.1"/>
<text transform="matrix(0.9008 0 0 1 111.0088 502.3311)" class="st4 st7">Utility</text>
<text transform="matrix(0.9008 0 0 1 79.814 523.6611)" class="st4 st7">Management</text>
<g>
	<rect x="226.2" y="470.6" class="st3" width="162.6" height="70.1"/>
</g>
<rect x="397.1" y="470.6" class="st3" width="164.9" height="70.1"/>
<text transform="matrix(0.9136 0 0 1 436.7808 501.3438)" class="st4 st7">Workforce</text>
<text transform="matrix(0.9136 0 0 1 423.9902 522.6738)" class="st4 st7">Management</text>
<rect x="53" y="543.7" class="st3" width="168.5" height="70.1"/>
<rect x="227.3" y="543.7" class="st3" width="161.5" height="70.1"/>
<rect x="397.1" y="543.7" class="st3" width="164.9" height="70.1"/>
<rect x="771.5" y="387.5" class="st3" width="173.2" height="69"/>
<rect x="956.1" y="387.5" class="st3" width="173.2" height="69"/>
<rect x="1140.8" y="387.5" class="st3" width="173.2" height="69"/>
<rect x="771.5" y="466.2" class="st3" width="173.2" height="69"/>
<rect x="956.1" y="466.2" class="st3" width="173.2" height="69"/>
<rect x="1140.8" y="466.2" class="st3" width="173.2" height="69"/>
<rect x="771.5" y="544.8" class="st3" width="173.2" height="69"/>
<rect x="956.1" y="544.8" class="st3" width="173.2" height="69"/>
<rect x="1140.8" y="544.8" class="st3" width="173.2" height="69"/>
<g>
	<rect x="183.8" y="191.2" class="st3" width="116.5" height="58.3"/>
	<text transform="matrix(1.084 0 0 1 212.6855 228.2056)" class="st4 st5">HRM</text>
</g>
<g>
	<rect x="314.7" y="191.2" class="st3" width="116.5" height="58.3"/>
	<text transform="matrix(1.084 0 0 1 346.5776 228.2056)" class="st4 st5">ERP</text>
</g>
<g>
	<rect x="445.5" y="191.2" class="st3" width="116.5" height="58.3"/>
	<text transform="matrix(1.084 0 0 1 457.5464 228.2056)" class="st4 st8">Analytics</text>
</g>
<g>
	<rect x="768" y="187.4" class="st3" width="163.8" height="26.2"/>
	<text transform="matrix(1.1962 0 0 1 780.0264 206.3848)" class="st4 st9">Data ingestion</text>
</g>
<g>
	<rect x="948.1" y="187.4" class="st3" width="163.8" height="26.2"/>
	<text transform="matrix(1.1024 0 0 1 973.2256 206.0796)" class="st4 st9">Data Storage</text>
</g>
<g>
	<rect x="1128.1" y="187.4" class="st3" width="184.7" height="26.2"/>
	<text transform="matrix(1.1962 0 0 1 1134.6406 206.0796)" class="st4 st9">Machine Learning</text>
</g>
<g>
	<rect x="768" y="223.4" class="st3" width="163.8" height="26.2"/>
	<text transform="matrix(1.1962 0 0 1 785.8906 242.3188)" class="st4 st9">Data Security</text>
	<text transform="matrix(1.1962 0 0 1 966.5811 239.1372)" class="st4 st9">Lorem ipsum</text>
</g>
<g>
	<rect x="948.1" y="223.4" class="st3" width="163.8" height="26.2"/>
	<text transform="matrix(1.1024 0 0 1 968.1465 242.0132)" class="st4 st9">Data Analytics</text>
</g>
<g>
	<rect x="1128.1" y="223.4" class="st3" width="184.7" height="26.2"/>
	<text transform="matrix(1.1962 0 0 1 1157.1396 242.0132)" class="st4 st9">Data Insights</text>
</g>
<path class="st10" d="M627.6,450.6c0.9-0.3,1.8-0.1,2.7-0.1c0.1,0.1,0.1,0.1,0,0.1C629.4,450.6,628.5,450.6,627.6,450.6z"/>
<path class="st11" d="M619.1,450.6c0,0,0-0.1,0-0.1c0.4,0,0.8,0,1.2,0c0.1,0,0.1,0.1,0,0.1C619.9,450.6,619.5,450.6,619.1,450.6z"/>
<path class="st12" d="M709.2,287.5c-0.2-0.3-0.2-0.7-0.1-1c0.1-0.1,0.1-0.1,0.1,0C709.2,286.8,709.2,287.1,709.2,287.5z"/>
<path class="st12" d="M709,415.9c0-0.4-0.1-0.7,0.1-1c0,0.3,0,0.7,0,1C709.1,416,709.1,416,709,415.9z"/>
<path class="st13" d="M620.3,450.6c0,0,0-0.1,0-0.1c0.3,0,0.7,0,1,0c0.1,0,0.1,0.1,0,0.1C621,450.6,620.6,450.6,620.3,450.6z"/>
<path class="st14" d="M630.3,450.6c0,0,0-0.1,0-0.1c0.3,0,0.7,0,1,0c0,0,0.1,0,0.1,0.1c0,0-0.1,0-0.1,0
	C631,450.6,630.6,450.6,630.3,450.6z"/>
<path class="st15" d="M633.3,450.5c0,0,0,0.1,0,0.1c-0.3,0-0.7,0-1,0c-0.1,0-0.1-0.1,0-0.1C632.6,450.5,632.9,450.5,633.3,450.5z"/>
<path class="st16" d="M621.3,450.6c0,0,0-0.1,0-0.1c0.3,0,0.6,0,0.9,0c0,0,0,0.1,0,0.1C621.9,450.6,621.6,450.6,621.3,450.6z"/>
<path class="st17" d="M632.2,450.5c0,0,0,0.1,0,0.1c-0.3,0-0.6,0-0.9,0c0,0,0-0.1,0-0.1C631.6,450.5,631.9,450.5,632.2,450.5z"/>
<path class="st18" d="M709.2,286.5c0,0-0.1,0-0.1,0c0-0.2,0-0.5,0-0.7c0,0,0.1,0,0.1,0C709.2,286,709.2,286.2,709.2,286.5z"/>
<path class="st18" d="M709,415.9c0,0,0.1,0,0.1,0c0,0.2,0,0.5,0,0.7l-0.1,0H709C709,416.4,709,416.1,709,415.9z"/>
<g>
	<path class="st19" d="M655.5,274.9c-5.2,0-10.4-0.3-15.5-0.8c-8.5-0.9-16.9-2.4-24.9-5.4c-3.2-1.2-6.3-2.6-8.9-4.6
		c-0.9-0.7-1.8-1.5-2.5-2.4c-1.1-1.5-1.1-2.9,0-4.4c1.1-1.5,2.6-2.7,4.3-3.7c3.7-2.3,7.8-3.8,12.1-5c5.5-1.6,11.1-2.6,16.7-3.3
		c7.2-0.9,14.5-1.3,21.8-1.2c4.8,0.1,9.6,0.3,14.4,0.8c7.9,0.9,15.6,2.2,23,4.7c3.5,1.2,6.9,2.6,9.9,4.7c1.3,0.9,2.4,1.8,3.3,3
		c1.1,1.5,1.1,2.9,0,4.4c-1.1,1.5-2.6,2.7-4.3,3.7c-3.7,2.3-7.9,3.8-12.1,5c-4.6,1.4-9.3,2.3-14.1,3c-4.8,0.7-9.7,1.2-14.7,1.4
		C661.3,274.8,658.4,274.9,655.5,274.9z"/>
	<path class="st19" d="M602.9,274.7c0.9,0.4,1.6,0.8,2.4,1.2c4.9,2.4,10.1,4,15.4,5.3c5.6,1.4,11.2,2.3,17,2.9
		c7.2,0.8,14.4,1.1,21.6,1c10.9-0.2,21.6-1.2,32.2-3.7c5.7-1.3,11.1-3,16.3-5.5c0.8-0.4,1.6-0.8,2.4-1.2c0.2,0.1,0.1,0.3,0.1,0.4
		c0,4.9,0,9.9,0,14.8c0,1.1-0.5,2.1-1.3,2.9c-1.7,1.9-3.9,3.3-6.3,4.5c-4.7,2.3-9.7,3.8-14.9,5c-5.8,1.3-11.7,2.1-17.6,2.6
		c-6.4,0.5-12.8,0.7-19.1,0.5c-9.5-0.3-18.9-1.4-28.1-3.7c-4.8-1.2-9.5-2.8-13.7-5.1c-2.1-1.1-4-2.5-5.4-4.3
		c-0.6-0.8-0.9-1.7-0.9-2.7c0-4.8,0-9.6,0-14.4C602.9,275.2,602.9,275,602.9,274.7z"/>
	<path class="st19" d="M602.9,305.5c0.9,0.4,1.6,0.9,2.4,1.2c5.6,2.7,11.6,4.5,17.8,5.9c6.7,1.5,13.6,2.4,20.5,2.9
		c7.2,0.5,14.5,0.6,21.8,0.3c9.5-0.5,18.9-1.7,28-4c5.7-1.5,11.2-3.3,16.3-6c0.1-0.1,0.3-0.1,0.5-0.2c0,0.2,0,0.4,0,0.6
		c0,4.7,0,9.3,0,14c0,1.7-0.7,3-1.9,4.2c-2,2-4.5,3.3-7.1,4.5c-5.5,2.5-11.4,4-17.4,5.2c-5.1,1-10.3,1.6-15.6,2
		c-6,0.4-12.1,0.5-18.1,0.3c-9.3-0.4-18.4-1.4-27.4-3.7c-4.3-1.1-8.4-2.5-12.3-4.4c-2.4-1.2-4.6-2.5-6.3-4.5c-0.9-1-1.3-2.1-1.3-3.4
		c0-4.7,0-9.4,0-14.1C602.9,306,602.9,305.8,602.9,305.5z"/>
	<path class="st19" d="M710.2,336.2c0,0.3,0,0.5,0,0.6c0,4-0.1,8,0,12c0,1.7-0.7,3.1-1.9,4.3c-2,1.9-4.5,3.3-7.1,4.5
		c-5.3,2.4-11,3.9-16.9,5.1c-5,1-10,1.6-15.1,2c-6.2,0.5-12.3,0.6-18.5,0.4c-9.3-0.3-18.5-1.4-27.5-3.6c-4.9-1.2-9.7-2.8-14-5.2
		c-2.1-1.1-4-2.5-5.4-4.3c-0.6-0.8-0.9-1.7-0.9-2.7c0-4.1,0-8.3,0-12.4c0-0.2,0-0.4,0-0.5c0.2-0.1,0.3,0,0.4,0.1
		c6.1,3.3,12.7,5.3,19.5,6.9c6.7,1.5,13.4,2.4,20.2,2.9c6.8,0.5,13.5,0.6,20.3,0.4c10.2-0.4,20.3-1.6,30.2-4.1
		c5.7-1.5,11.1-3.3,16.2-6C709.8,336.4,710,336.3,710.2,336.2z"/>
</g>
<g>
	<path class="st20" d="M623,204.2c0,0.4,0.2,0.6,0.5,0.7c0.3,0.1,0.7,0.2,1.1,0.2c23.8,0,47.6,0,71.4,0c0.3,0,0.7-0.1,1-0.1
		c0.4-0.1,0.6-0.2,0.6-0.7c0-3.2,0-6.4,0-9.6c0-0.6,0-0.6,0.7-0.4c0.7,0.3,1.3,0.6,2,0.7c0.2-0.1,0.3,0,0.5,0.1
		c0.2,0.1,0.4,0.1,0.6,0.2c0.2,0.1,0.3,0.2,0.5,0.2c0.7,0.2,1.4,0.5,2.1,0.8c0.1,0,0.2,0,0.3,0c0.1,0.1,0.3,0.2,0.5,0.2
		c0.4,0.3,0.8,0.4,1.3,0.5c0.2,0.2,0.4,0.2,0.6,0.2c0.3,0.1,0.6,0.1,0.8,0.3l0,0c0.9,0.3,1.7,0.6,2.6,0.9c0.8,0.3,1.6,0.6,2.5,0.9
		c0.4,0.2,0.8,0.4,1.3,0.4c0.3,0.1,0.5,0.2,0.8,0.3c0.2,0.2,0.4,0.3,0.7,0.3c0.5,0.2,0.9,0.4,1.4,0.5c0.3,0.2,0.7,0.3,1.1,0.4
		c0.4,0.1,0.7,0.2,1,0.3c0.2,0.1,0.3,0.2,0.5,0.2c0.5,0.1,0.9,0.4,1.4,0.5c0.5,0.3,1.1,0.3,1.5,0.6c0.8,0.3,1.6,0.7,2.5,0.8
		c0.2,0.1,0.3,0.1,0.5,0.2c0.9,0.4,1.9,0.8,2.9,1.1c0.6,0.4,1.4,0.5,2.1,0.8c0.2,0.1,0.4,0.1,0.5,0.2c0.2,0.1,0.4,0,0.6,0.1
		c0.2,0.2,0.5,0.2,0.8,0.2c0.3,0.2,0.6,0.4,1.1,0.4c0.4,0.3,0.9,0.3,1.3,0.6c0.7,0.3,1.5,0.5,2.1,0.9c0.9,0.1,1.7,0.6,2.6,0.9
		c0.4,0.1,0.7,0.3,1.1,0.4c0.2,0.1,0.3,0.2,0.5,0.2c0.3,0.1,0.6,0.2,0.8,0.3c0.3,0.1,0.5,0.1,0.8,0.2c0.2,0.1,0.3,0.2,0.5,0.3
		c0.3,0.1,0.6,0.3,0.8,0.4c0.2,0.1,0.2,0.2,0,0.3c-0.3,0.1-0.6,0.2-0.8,0.4c-0.3,0.2-0.7,0.3-1.1,0.5c-0.5,0.1-1,0.3-1.5,0.5
		c-0.2,0.2-0.6,0.2-0.8,0.3c-0.8,0.3-1.6,0.5-2.3,0.9c-0.5,0.2-0.9,0.4-1.4,0.5c-0.2,0.1-0.3,0.1-0.5,0.2l0,0
		c-0.2,0.1-0.4,0.1-0.6,0.2c-1,0.4-2.1,0.8-3.2,1.2c-0.1,0-0.2,0.1-0.2,0.1c-0.7-0.1-1.1,0.4-1.7,0.5c-0.6,0.2-1.2,0.4-1.8,0.7
		c-0.2,0.1-0.5,0.1-0.6,0.3c-0.3,0.1-0.7,0.2-1,0.3c-0.3,0.1-0.7,0.2-1.1,0.3c-0.2,0.2-0.5,0.2-0.8,0.3c-0.7,0.3-1.3,0.6-2.1,0.8
		c-0.6,0.4-1.4,0.5-2.1,0.8c-0.3,0.1-0.5,0.2-0.8,0.3c-0.2,0.1-0.3,0.1-0.5,0.2c-0.2,0.1-0.4,0.1-0.6,0.2c-0.2,0.1-0.5,0.2-0.7,0.2
		c-0.4,0-0.7,0.2-1.1,0.4c-0.4,0-0.8,0.3-1.2,0.4c-0.3,0.1-0.5,0.1-0.7,0.3c-0.3,0.1-0.5,0.2-0.8,0.3c-0.7,0.2-1.4,0.5-2.1,0.7
		c-0.6,0.2-1.3,0.5-1.9,0.7c-0.9,0.3-1.8,0.7-2.7,0.9c-0.4,0.3-0.9,0.3-1.3,0.6c-0.3,0.1-0.7,0.2-1,0.3c-1.1,0.3-2,0.8-3,1.1
		c0,0-0.1,0.1-0.1,0.1c-0.2,0.1-0.5,0.1-0.8,0.2c-0.2,0.1-0.5,0.2-0.7,0.3c-0.1,0.1-0.3,0.1-0.4,0.2c-0.7,0.3-1.4,0.5-2.1,0.8
		c-0.5,0.1-0.4-0.2-0.4-0.5c0-3.2,0-6.5,0-9.7c0-0.1,0-0.3,0-0.4c0.1-0.3,0-0.4-0.4-0.4c-0.2,0-0.5-0.1-0.7-0.1
		c-23.9,0-47.7,0-71.6,0c-0.3,0-0.6,0-0.9,0.1c-0.1,0.1-0.2,0.1-0.3,0.1c-0.3,0.2-0.2,0.4-0.2,0.6c0,3,0,6,0,9.1c0,0.1,0,0.2,0,0.4
		c0,0.6-0.2,0.7-0.8,0.5c-0.2-0.1-0.4-0.1-0.5-0.2c-0.5-0.1-0.9-0.3-1.4-0.5c-0.2-0.1-0.5-0.2-0.7-0.2h0l0,0c0-0.1-0.1-0.1-0.2-0.1
		c-0.5-0.2-0.9-0.5-1.4-0.5c-1.1-0.4-2.2-1-3.4-1.2c-0.3-0.2-0.8-0.2-1.1-0.5c-0.2-0.1-0.4-0.1-0.6-0.2c-0.3-0.1-0.7-0.3-1-0.4
		c-1-0.5-2.1-0.8-3.1-1.2c-0.1,0-0.2-0.1-0.3,0c-0.2,0-0.3-0.1-0.5-0.2c-0.1-0.2-0.4-0.1-0.6-0.2c-0.1,0-0.2,0-0.2-0.1
		c-0.2-0.2-0.5-0.2-0.8-0.3c-0.3-0.2-0.7-0.3-1.1-0.4c-0.2-0.1-0.4-0.2-0.6-0.2c-0.5-0.3-1.2-0.5-1.8-0.7c-0.2-0.1-0.4,0-0.6-0.1
		c-0.2-0.1-0.3-0.1-0.5-0.2c-0.2-0.1-0.4-0.1-0.6-0.2c-0.1,0-0.2-0.1-0.3-0.1c-0.2-0.1-0.6-0.2-0.8-0.3c-0.5-0.2-1-0.4-1.6-0.6
		c-0.2-0.1-0.5-0.2-0.7-0.4c-0.7-0.1-1.2-0.5-1.9-0.6c-0.8-0.3-1.5-0.7-2.3-0.8c-0.3-0.1-0.6-0.2-0.8-0.4c-0.5-0.4-1.2-0.5-1.8-0.6
		c-0.1-0.2-0.3-0.3-0.6-0.3l0,0c-1.2-0.4-2.5-0.9-3.7-1.4c-0.2-0.1-0.5-0.1-0.8-0.2c-0.1,0-0.2-0.1-0.2-0.1
		c-0.7-0.4-1.5-0.6-2.2-0.9c-0.5-0.2-1-0.5-1.6-0.5c-0.1,0-0.2,0-0.3-0.1c-0.5-0.2-1-0.4-1.6-0.6c-0.2-0.1-0.5-0.2-0.7-0.4
		c-0.6-0.3-1.2-0.5-1.9-0.7c-0.3-0.1-0.7-0.2-1-0.3c0-0.1,0-0.1,0-0.2c0.3-0.1,0.7-0.2,1-0.3c0.7-0.1,1.3-0.4,1.9-0.7
		c0.2-0.2,0.5-0.2,0.7-0.3c0.2-0.1,0.4,0,0.5-0.2l0,0c0.8-0.1,1.4-0.5,2.1-0.7c0.3-0.1,0.6-0.3,0.9-0.4c0.2-0.1,0.3-0.2,0.5-0.3
		c1-0.2,1.8-0.6,2.7-1c0.5-0.2,1.1-0.3,1.5-0.6c0.4,0,0.6-0.1,0.9-0.3c0,0,0.1,0,0.1,0c0.2,0,0.4,0.1,0.6-0.1
		c0.4-0.1,0.8-0.1,1.1-0.5c0.6,0,1.1-0.3,1.6-0.5c0.5-0.1,0.9-0.4,1.3-0.5c0.5-0.2,1.1-0.3,1.5-0.6c0.2,0,0.4-0.1,0.6-0.2
		c0.6-0.2,1.2-0.4,1.9-0.6c0.2-0.2,0.5-0.2,0.7-0.4c0.5-0.2,1.1-0.4,1.6-0.6c0.2-0.1,0.5-0.1,0.8-0.3c0.1-0.1,0.3-0.1,0.4-0.2
		c0.1,0,0.2-0.1,0.3-0.1c0.2-0.1,0.4-0.1,0.6-0.2c0.2-0.1,0.4-0.1,0.6-0.2c0.4-0.1,0.9-0.3,1.3-0.5c0.4-0.1,0.8-0.2,1-0.4
		c0.3-0.1,0.5-0.2,0.8-0.3c0.3-0.1,0.8-0.2,1-0.4c0.1,0,0.2-0.1,0.2-0.1c0.9-0.2,1.8-0.6,2.7-0.9c0.6-0.3,1.2-0.4,1.8-0.7
		c0.3-0.1,0.6-0.2,0.8-0.3c0.2-0.1,0.6-0.1,0.8-0.3c0.3-0.1,0.5-0.2,0.8-0.3c0.7-0.1,1.4-0.5,2.1-0.7c0.3-0.1,0.6-0.2,0.9-0.3
		c0.7-0.3,1.4-0.6,2.1-0.8c0.1-0.1,0.3-0.2,0.5-0.2c0.2-0.1,0.4-0.1,0.6-0.2c0.4,0,0.7-0.3,1-0.3c0.4-0.1,0.8-0.2,1.1-0.4
		c0.3-0.1,0.4,0,0.4,0.2c0,0.1,0,0.2,0,0.3"/>
</g>
<g>
	<path class="st20" d="M333,280.4c-0.5,0-0.8,0-0.9,0.2c-0.1,0.1-0.2,0.2-0.2,0.4c0,8.3,0,16.6,0,24.9c0,0.1,0.1,0.2,0.2,0.4
		c0.1,0.1,0.4,0.2,0.9,0.2c4.5,0,8.9,0,13.4,0c0.9,0,0.9,0,0.5,0.2c-0.4,0.2-0.8,0.5-1,0.7c0.2,0.1,0,0.1-0.1,0.2
		c-0.1,0.1-0.2,0.1-0.3,0.2c-0.1,0.1-0.2,0.1-0.3,0.2c-0.4,0.2-0.7,0.5-1.1,0.7c0,0,0,0.1,0,0.1c-0.2,0-0.3,0.1-0.3,0.2
		c-0.4,0.1-0.5,0.3-0.7,0.5c-0.2,0-0.2,0.1-0.3,0.2c-0.1,0.1-0.2,0.2-0.4,0.3l0,0c-0.4,0.3-0.9,0.6-1.3,0.9
		c-0.4,0.3-0.9,0.6-1.3,0.9c-0.2,0.1-0.5,0.3-0.6,0.5c-0.1,0.1-0.3,0.2-0.4,0.3c-0.3,0.1-0.4,0.1-0.4,0.2c-0.3,0.2-0.5,0.3-0.7,0.5
		c-0.3,0.1-0.4,0.2-0.5,0.4c-0.1,0.1-0.3,0.2-0.5,0.4c-0.1,0.1-0.2,0.1-0.3,0.2c-0.1,0.2-0.5,0.3-0.7,0.5c-0.4,0.2-0.5,0.4-0.9,0.5
		c-0.4,0.3-1,0.5-1.1,0.9c-0.1,0-0.2,0.1-0.3,0.2c-0.6,0.3-1.1,0.7-1.5,1c-0.5,0.2-0.6,0.5-1.1,0.7c-0.1,0-0.1,0.1-0.3,0.2
		c-0.2,0.1,0,0.1-0.1,0.2c-0.3,0.1-0.2,0.2-0.3,0.3c-0.3,0.1-0.6,0.2-0.6,0.4c-0.4,0.1-0.4,0.3-0.8,0.5c-0.4,0.2-0.7,0.5-1.2,0.7
		c-0.2,0.3-0.8,0.6-1.2,0.9c-0.2,0.1-0.4,0.3-0.6,0.4c-0.1,0.1-0.2,0.1-0.3,0.2c-0.1,0.1-0.2,0.2-0.5,0.3c-0.1,0.1-0.2,0.2-0.3,0.3
		c-0.1,0.1-0.3,0.1-0.4,0.2c-0.2,0.1-0.4,0.2-0.5,0.3c-0.1,0.1-0.2,0.1-0.4,0c-0.2-0.1-0.4-0.2-0.5-0.3c-0.2-0.1-0.5-0.2-0.7-0.4
		c-0.1-0.2-0.4-0.4-0.7-0.5c-0.3-0.1-0.3-0.2-0.4-0.3c-0.4-0.3-0.7-0.6-1.2-0.8c-0.2-0.2-0.5-0.3-0.7-0.5c-0.1,0-0.1-0.1-0.3-0.2
		l0,0c-0.1-0.1-0.1-0.1-0.3-0.2c-0.6-0.4-1.1-0.7-1.7-1.1c0,0-0.1,0-0.1-0.1c0.2-0.2-0.6-0.4-0.7-0.6c-0.3-0.2-0.5-0.4-1-0.6
		c-0.2-0.1-0.1-0.2-0.4-0.2c-0.1-0.1-0.3-0.2-0.4-0.4s-0.3-0.2-0.4-0.4c-0.3-0.1-0.3-0.2-0.4-0.3c-0.4-0.2-0.9-0.5-1.1-0.7
		c-0.5-0.2-0.8-0.5-1.2-0.7c-0.1-0.1-0.3-0.2-0.4-0.3c-0.1-0.1-0.2-0.1-0.3-0.2c-0.1-0.1-0.2-0.1-0.3-0.2c-0.1-0.1-0.3-0.2-0.3-0.2
		c0-0.1-0.3-0.3-0.6-0.4c0-0.1-0.4-0.3-0.6-0.4c-0.1-0.1-0.2-0.2-0.4-0.2c-0.1-0.1-0.3-0.2-0.4-0.3c-0.2-0.3-0.7-0.5-1-0.7
		c-0.3-0.2-0.7-0.4-1-0.7c-0.5-0.3-1-0.6-1.3-0.9c-0.4-0.1-0.5-0.3-0.8-0.5c-0.1-0.1-0.3-0.2-0.4-0.4c-0.4-0.4-1-0.7-1.5-1.1
		c0,0-0.1,0-0.1,0c-0.1-0.1-0.2-0.2-0.3-0.3c-0.1-0.1-0.2-0.2-0.4-0.2c-0.1,0-0.1-0.1-0.2-0.1c-0.4-0.2-0.7-0.5-1.1-0.7
		c-0.1-0.2,0.3-0.1,0.7-0.1c4.5,0,9,0,13.5,0c0.2,0,0.4,0,0.5,0c0.4,0,0.6,0,0.6-0.1c0-0.1,0.1-0.2,0.1-0.2c0-8.3,0-16.6,0-25
		c0-0.1,0-0.2-0.1-0.3c-0.1,0-0.2-0.1-0.2-0.1c-0.2-0.1-0.5,0-0.8,0c-4.2,0-8.4,0-12.6,0c-0.2,0-0.3,0-0.5,0c-0.8,0-0.9-0.1-0.7-0.3
		c0.1-0.1,0.2-0.1,0.3-0.2c0.2-0.2,0.4-0.3,0.7-0.5c0.1-0.1,0.2-0.2,0.3-0.3l0,0l0,0c0.1,0,0.1,0,0.2-0.1c0.3-0.2,0.6-0.3,0.7-0.5
		c0.6-0.4,1.4-0.8,1.7-1.2c0.3-0.1,0.3-0.3,0.6-0.4c0.2-0.1,0.1-0.1,0.2-0.2c0.2-0.1,0.4-0.2,0.6-0.4c0.7-0.3,1.1-0.7,1.7-1.1
		c0.1,0,0.1-0.1,0-0.1c0-0.1,0.1-0.1,0.3-0.2c0.2,0,0.2-0.1,0.3-0.2c0,0,0-0.1,0.1-0.1c0.4-0.1,0.3-0.2,0.5-0.3
		c0.3-0.1,0.4-0.2,0.5-0.4c0.2,0,0.3-0.1,0.3-0.2c0.5-0.2,0.7-0.4,1-0.6c0.1-0.1,0-0.1,0.2-0.2c0.1-0.1,0.2-0.1,0.3-0.2
		c0.1-0.1,0.2-0.1,0.3-0.2c0,0,0.1-0.1,0.2-0.1c0.2-0.1,0.2-0.2,0.4-0.3c0.3-0.2,0.6-0.4,0.8-0.6c0.2-0.1,0.3-0.2,0.5-0.2
		c0.1-0.2,0.7-0.4,0.9-0.6c0.4-0.3,1-0.5,1.1-0.8c0.2-0.1,0.2-0.2,0.5-0.3c0.5-0.2,0.7-0.4,0.9-0.6c0.4,0,0.4-0.1,0.4-0.2l0,0
		c0.6-0.4,1.3-0.9,1.9-1.3c0.1-0.1,0.2-0.2,0.3-0.3c0,0,0.1,0,0.1-0.1c0.5-0.2,0.8-0.5,1.2-0.8c0.3-0.2,0.6-0.3,0.7-0.5
		c0,0,0-0.1,0.1-0.1c0.2-0.2,0.6-0.4,0.8-0.5c0.2-0.1,0.2-0.2,0.5-0.2c0.4-0.2,0.8-0.4,1-0.7c0.1-0.1,0.3-0.2,0.4-0.4
		c0.1,0,0.2,0,0.2,0c0.1,0.1,0.3,0.2,0.4,0.4c0.2,0.2,0.6,0.4,1,0.7c0.2,0.1,0.3,0.2,0.5,0.2c0.1,0,0,0.1,0.2,0.2l0,0
		c0.1,0.3,0.7,0.5,1,0.7c0.1,0.1,0.4,0.2,0.5,0.3c0.1,0.1,0.3,0.1,0.4,0.2c0.3,0.3,0.9,0.6,1.4,0.9c0.2,0.2,0.4,0.4,0.8,0.5
		c0,0.1,0.2,0.2,0.4,0.3c0,0,0,0,0,0c0,0.1-0.1,0.1,0.1,0.2c0.2,0.1,0.2,0.3,0.7,0.4c0,0.2,0.4,0.4,0.7,0.6c0.2,0.2,0.5,0.3,0.7,0.5
		c0.2,0.2,0.4,0.4,0.8,0.5c0,0.1,0.1,0.1,0.3,0.2c0.3,0.2,0.6,0.4,0.9,0.6c0.2,0.1,0.3,0.2,0.5,0.2c0.2,0.2,0.5,0.4,0.8,0.5
		c0.2,0.1,0.2,0.2,0.4,0.3c0.1,0,0.1,0.1,0.2,0.1c0.1,0,0.1,0.1,0.2,0.1c0.1,0.1,0.2,0.1,0.3,0.2c0.2,0.1,0.1,0.1,0.2,0.2
		c0.2,0.1,0.4,0.3,0.7,0.5c0.2,0.1,0.2,0.3,0.5,0.4c0.1,0.1,0.3,0.2,0.4,0.3c0.2,0.1,0.2,0.3,0.6,0.4c0,0,0.1,0,0.1,0.1
		c0.3,0.3,0.9,0.6,1.3,0.9c0.4,0.2,0.6,0.4,1,0.6c0.1,0.1,0.2,0.2,0.4,0.3c0.2,0.1,0.2,0.2,0.4,0.3c0.1,0.1,0.3,0.2,0.4,0.3
		c0.2,0.3,0.7,0.5,1,0.7c0.1,0.1,0.3,0.2,0.4,0.3c0.4,0.2,0.8,0.5,1.1,0.7c0.1,0,0.2,0.1,0.3,0.2c0.2,0.1,0.1,0.1,0.2,0.2
		c0,0.1,0.5,0.2,0.4,0.4c0.2,0.1,0.3,0.3,0.5,0.4c0.2,0.1,0,0.1-0.3,0.1c-0.1,0-0.3,0-0.4,0"/>
</g>
<rect x="53" y="337.3" class="st21" width="509" height="43.5"/>
<text transform="matrix(0.9327 0 0 1 163.7427 370.9824)" class="st0 st22">DATA VISUALIZATION</text>
<g>
	<path class="st20" d="M1042.1,278.1c-0.5,0-0.8,0-0.9,0.2c-0.1,0.1-0.2,0.2-0.2,0.4c0,8.2,0,16.3,0,24.5c0,0.1,0.1,0.2,0.2,0.4
		c0.1,0.1,0.3,0.2,0.9,0.2c4.4,0,8.8,0,13.1,0c0.8,0,0.9,0,0.5,0.2c-0.3,0.2-0.8,0.4-0.9,0.7c0.2,0.1,0,0.1-0.1,0.2
		c-0.1,0.1-0.2,0.1-0.3,0.2s-0.2,0.1-0.3,0.2c-0.3,0.2-0.7,0.5-1.1,0.7c0,0,0,0.1,0,0.1c-0.2,0-0.3,0.1-0.3,0.2
		c-0.3,0.1-0.5,0.3-0.7,0.4c-0.2,0-0.2,0.1-0.3,0.2c-0.2,0.1-0.2,0.2-0.4,0.3l0,0c-0.4,0.3-0.8,0.6-1.3,0.9
		c-0.4,0.3-0.9,0.6-1.2,0.8c-0.2,0.1-0.5,0.3-0.6,0.4c-0.1,0.1-0.3,0.2-0.4,0.3c-0.3,0.1-0.3,0.1-0.4,0.2c-0.3,0.2-0.5,0.3-0.7,0.5
		c-0.3,0.1-0.4,0.2-0.5,0.4c-0.1,0.1-0.3,0.2-0.5,0.4c-0.1,0.1-0.2,0.1-0.3,0.2c-0.1,0.2-0.5,0.3-0.7,0.5c-0.4,0.2-0.4,0.4-0.9,0.5
		c-0.4,0.3-0.9,0.5-1.1,0.9c-0.1,0-0.2,0.1-0.3,0.2c-0.6,0.3-1.1,0.7-1.5,1c-0.5,0.2-0.6,0.5-1.1,0.7c-0.1,0-0.1,0.1-0.3,0.2
		c-0.2,0.1,0,0.1-0.2,0.2c-0.3,0.1-0.2,0.2-0.3,0.3c-0.3,0.1-0.6,0.2-0.6,0.4c-0.4,0.1-0.4,0.3-0.8,0.5c-0.4,0.2-0.7,0.5-1.2,0.7
		c-0.2,0.3-0.8,0.6-1.2,0.9c-0.2,0.1-0.4,0.3-0.6,0.4c-0.1,0.1-0.2,0.1-0.3,0.2c-0.1,0.1-0.2,0.2-0.4,0.3c-0.1,0.1-0.2,0.2-0.3,0.3
		c-0.1,0-0.2,0.1-0.4,0.2c-0.2,0.1-0.3,0.2-0.5,0.3c-0.1,0.1-0.2,0.1-0.4,0c-0.2-0.1-0.3-0.2-0.5-0.3c-0.2-0.1-0.4-0.2-0.7-0.4
		c-0.1-0.2-0.4-0.4-0.7-0.5c-0.3-0.1-0.2-0.2-0.4-0.3c-0.4-0.3-0.7-0.5-1.2-0.8c-0.2-0.2-0.5-0.3-0.7-0.5c-0.1,0-0.1-0.1-0.3-0.2
		l0,0c-0.1-0.1-0.1-0.1-0.2-0.2c-0.6-0.4-1.1-0.7-1.7-1.1c-0.1,0-0.1,0-0.1-0.1c0.2-0.2-0.6-0.4-0.7-0.6c-0.3-0.2-0.5-0.4-1-0.6
		c-0.2-0.1-0.1-0.2-0.4-0.2c-0.1-0.1-0.3-0.2-0.4-0.4c-0.1-0.1-0.3-0.2-0.4-0.4c-0.3-0.1-0.3-0.2-0.4-0.3c-0.3-0.2-0.9-0.5-1.1-0.7
		c-0.5-0.2-0.7-0.5-1.1-0.7c-0.1-0.1-0.3-0.2-0.4-0.3c-0.1-0.1-0.2-0.1-0.3-0.2c-0.1-0.1-0.2-0.1-0.3-0.2c-0.1-0.1-0.3-0.1-0.3-0.2
		c0-0.1-0.3-0.2-0.5-0.4c0-0.1-0.4-0.3-0.5-0.4c-0.1-0.1-0.2-0.2-0.4-0.2c-0.1-0.1-0.3-0.2-0.4-0.3c-0.2-0.2-0.7-0.5-1-0.7
		c-0.3-0.2-0.7-0.4-1-0.6c-0.4-0.3-1-0.6-1.3-0.9c-0.4-0.1-0.5-0.3-0.8-0.4c-0.1-0.1-0.3-0.2-0.4-0.4c-0.4-0.4-1-0.7-1.5-1
		c0,0-0.1,0-0.1,0c-0.1-0.1-0.2-0.2-0.3-0.3c-0.1-0.1-0.2-0.2-0.4-0.2c-0.1,0-0.1-0.1-0.2-0.1c-0.4-0.2-0.7-0.5-1.1-0.7
		c-0.1-0.2,0.3-0.1,0.7-0.1c4.4,0,8.8,0,13.2,0c0.2,0,0.4,0,0.5,0c0.4,0,0.6,0,0.6-0.1c0-0.1,0.1-0.2,0.1-0.2c0-8.2,0-16.4,0-24.5
		c0-0.1,0-0.2-0.2-0.3c-0.1,0-0.2-0.1-0.2-0.1c-0.2-0.1-0.5,0-0.8,0c-4.1,0-8.2,0-12.3,0c-0.2,0-0.3,0-0.5,0c-0.8,0-0.9-0.1-0.7-0.3
		c0.1-0.1,0.2-0.1,0.3-0.2c0.2-0.2,0.4-0.3,0.7-0.5c0.1-0.1,0.2-0.2,0.3-0.2l0,0l0,0c0.1,0,0.1,0,0.2-0.1c0.3-0.2,0.6-0.3,0.7-0.5
		c0.6-0.4,1.4-0.7,1.6-1.2c0.3-0.1,0.3-0.3,0.6-0.4c0.2-0.1,0.1-0.1,0.2-0.2c0.2-0.1,0.4-0.2,0.6-0.4c0.7-0.3,1.1-0.7,1.7-1.1
		c0.1,0,0.1-0.1,0-0.1c0-0.1,0.1-0.1,0.3-0.2c0.2,0,0.2-0.1,0.3-0.2c0,0,0-0.1,0.1-0.1c0.3-0.1,0.3-0.2,0.5-0.3
		c0.3-0.1,0.4-0.2,0.5-0.4c0.2,0,0.3-0.1,0.3-0.2c0.4-0.2,0.7-0.4,1-0.6c0.1-0.1,0-0.1,0.2-0.2c0.1-0.1,0.2-0.1,0.3-0.2
		c0.1-0.1,0.2-0.1,0.3-0.2c0,0,0.1-0.1,0.2-0.1c0.2-0.1,0.2-0.2,0.4-0.3c0.3-0.2,0.6-0.4,0.8-0.5c0.2-0.1,0.2-0.2,0.5-0.2
		c0.1-0.2,0.7-0.4,0.8-0.6c0.4-0.3,1-0.5,1.1-0.8c0.2-0.1,0.2-0.2,0.5-0.3c0.5-0.2,0.7-0.4,0.9-0.6c0.3,0,0.4-0.1,0.4-0.2l0,0
		c0.6-0.4,1.2-0.9,1.9-1.3c0.1-0.1,0.2-0.2,0.3-0.3c0,0,0.1,0,0.1-0.1c0.5-0.2,0.8-0.5,1.2-0.8c0.3-0.2,0.6-0.3,0.7-0.5
		c0,0,0.1-0.1,0.1-0.1c0.2-0.2,0.6-0.4,0.8-0.5c0.2-0.1,0.2-0.2,0.5-0.2c0.4-0.2,0.7-0.4,0.9-0.6c0.1-0.1,0.3-0.2,0.4-0.4
		c0.1,0,0.2,0,0.2,0c0.1,0.1,0.3,0.2,0.4,0.4c0.2,0.2,0.6,0.4,0.9,0.6c0.2,0.1,0.3,0.2,0.5,0.2c0.1,0,0.1,0.1,0.2,0.2l0,0
		c0.1,0.3,0.7,0.5,1,0.7c0.1,0.1,0.4,0.2,0.5,0.3c0.1,0,0.3,0.1,0.4,0.2c0.3,0.3,0.8,0.6,1.3,0.9c0.2,0.2,0.4,0.4,0.8,0.5
		c0,0.1,0.2,0.2,0.4,0.3c0,0,0,0,0,0c0,0.1-0.1,0.1,0.1,0.2c0.2,0.1,0.2,0.3,0.7,0.4c0,0.2,0.4,0.4,0.7,0.6c0.2,0.1,0.5,0.3,0.7,0.4
		c0.2,0.2,0.4,0.4,0.8,0.5c0,0.1,0.1,0.1,0.3,0.2c0.3,0.2,0.6,0.4,0.8,0.6c0.2,0.1,0.3,0.2,0.5,0.2c0.2,0.2,0.5,0.4,0.8,0.5
		c0.2,0.1,0.2,0.2,0.4,0.3c0.1,0,0.1,0.1,0.2,0.1c0.1,0,0.1,0.1,0.2,0.1c0.1,0.1,0.2,0.1,0.3,0.2c0.2,0.1,0.1,0.1,0.2,0.2
		c0.2,0.1,0.4,0.3,0.7,0.4c0.2,0.1,0.2,0.3,0.5,0.4c0.1,0.1,0.3,0.2,0.4,0.3c0.2,0.1,0.2,0.3,0.6,0.4c0,0,0.1,0,0.1,0.1
		c0.3,0.3,0.9,0.6,1.3,0.9c0.4,0.2,0.6,0.4,0.9,0.6c0.1,0.1,0.2,0.2,0.4,0.3c0.2,0.1,0.2,0.2,0.3,0.3c0.1,0.1,0.3,0.2,0.4,0.3
		c0.2,0.2,0.7,0.5,1,0.7c0.1,0.1,0.3,0.2,0.3,0.3c0.4,0.2,0.8,0.5,1.1,0.7c0.1,0,0.2,0.1,0.3,0.2c0.2,0.1,0.1,0.1,0.2,0.2
		c0.1,0.1,0.4,0.2,0.4,0.4c0.2,0.1,0.3,0.3,0.5,0.4c0.2,0.1,0,0.1-0.3,0.1c-0.1,0-0.3,0-0.4,0"/>
</g>
<rect x="769.2" y="332.1" class="st21" width="544.8" height="42.7"/>
<text transform="matrix(0.9284 0 0 1 914.6465 365.2583)" class="st0 st23">EDGE ANALYTICS</text>
<text transform="matrix(0.9008 0 0 1 239.4746 502.582)" class="st4 st7">Mistake Proofing</text>
<text transform="matrix(0.9008 0 0 1 278.5601 523.9121)" class="st4 st7">System</text>
<text transform="matrix(0.9008 0 0 1 73.2598 573.6748)" class="st4 st7">Quality Control</text>
<text transform="matrix(0.9008 0 0 1 104.1479 595.0049)" class="st4 st7">System</text>
<text transform="matrix(0.9008 0 0 1 229.5386 572.6865)" class="st4 st6">Machine to Machine</text>
<text transform="matrix(0.9008 0 0 1 244.7168 592.8262)" class="st4 st6">Communication</text>
<text transform="matrix(0.9136 0 0 1 423.1387 583.5488)" class="st4 st7">Data Logging</text>
<text transform="matrix(0.9675 0 0 1 809.9004 419.9102)" class="st4 st24">Data Model</text>
<text transform="matrix(0.9675 0 0 1 800.5938 442.0498)" class="st4 st24">Management</text>
<text transform="matrix(0.9675 0 0 1 976.9922 420.0732)" class="st4 st25">Real Time Data</text>
<text transform="matrix(0.9675 0 0 1 994.8135 441.0527)" class="st4 st25">Processing</text>
<text transform="matrix(0.9813 0 0 1 1167.4326 429.6387)" class="st4 st24">Data Analysis</text>
<text transform="matrix(0.9675 0 0 1 813.9648 496.8779)" class="st4 st7">Operation</text>
<text transform="matrix(0.9675 0 0 1 809.6406 518.208)" class="st4 st7">Monitoring</text>
<text transform="matrix(0.9813 0 0 1 1183.4346 494.9209)" class="st4 st7">Preventive</text>
<text transform="matrix(0.9813 0 0 1 1172.5811 516.251)" class="st4 st7">Maintenance</text>
<text transform="matrix(0.9675 0 0 1 1003.5732 496.1572)" class="st4 st24">Machine</text>
<text transform="matrix(0.9675 0 0 1 1002.1611 518.2969)" class="st4 st24">Learning</text>
<text transform="matrix(0.9675 0 0 1 804.6797 577.9336)" class="st4 st25">Predictions /</text>
<text transform="matrix(0.9675 0 0 1 833.5312 598.9141)" class="st4 st25">Alerts</text>
<text transform="matrix(0.9675 0 0 1 1004.46 572.0898)" class="st4 st24">Artificial</text>
<text transform="matrix(0.9675 0 0 1 988.7676 594.2295)" class="st4 st24">Intelligence</text>
<text transform="matrix(0.9813 0 0 1 1183.6006 575.1816)" class="st4 st24">Statistical</text>
<text transform="matrix(0.9813 0 0 1 1156.3789 597.3213)" class="st4 st24">Process Control</text>
<g>
	<path class="st21" d="M599.4,444.7c9-7.6,18.5-10.2,28.3-18.4c0,5.8,0,6.2,0,12.2c7.4,0,14.5,0,21.9,0c0-10.1,0-20.2,0-30.6
		c-7,0-5-0.4-11.9-0.4c9.4-11,10.2-11.9,19.6-22c8.5,8.2,10.2,12.8,18.7,22c-6.5,0-3.9,0.1-11,0.1c0,10.4,0,20.5,0,30.9
		c7.1,0,14.2,0,21.7,0c0-5.9,0-6.3,0-12c9.7,8.2,19.3,10.8,28.5,18.6c-9.2,7.7-18.8,11.2-28.5,19.3c0-5.8,0-7.1,0-13.1
		c-19.7,0-39.1,0-58.8,0c0,5.9,0,7.2,0,12.8C618.3,456,608.8,452.6,599.4,444.7z"/>
</g>
<rect x="52" y="631.3" class="st19" width="1262" height="30.2"/>
<rect x="52" y="674.9" class="st21" width="1262" height="33.1"/>
<path class="st26" d="M559.3,232.1c-103.6,0-207.3,0-310.9,0c-1.2,0-1.3-0.3-1.3-1.3c0-65.2,0-130.3,0-195.5c0-1.1,0.2-1.3,1.4-1.3
	c207.2,0,414.5,0,621.7,0c1.2,0,1.4,0.3,1.4,1.4c0,65.2,0,130.3,0,195.5c0,1-0.2,1.2-1.3,1.2C766.6,232.1,662.9,232.1,559.3,232.1z"
	/>
<text transform="matrix(1 0 0 1 610.769 654.5)" class="st27 st0 st28">DATA LAYER</text>
<text transform="matrix(1 0 0 1 528.3464 699.6851)" class="st0 st28">SHOP FLOOR EQUIPMENTS</text>
<text transform="matrix(1 0 0 1 88.0591 745)" class="st0 st28">Sensor      </text>
<text transform="matrix(1 0 0 1 201.8391 745)" class="st21 st0 st29">|      </text>
<text transform="matrix(1 0 0 1 250.1091 745)" class="st0 st28">Drive      </text>
<text transform="matrix(1 0 0 1 342.1391 745)" class="st21 st0 st29">|      </text>
<text transform="matrix(1 0 0 1 389.1591 745)" class="st0 st28">Programmable Controller      </text>
<text transform="matrix(1 0 0 1 717.3891 745)" class="st21 st0 st29">|             </text>
<text transform="matrix(1 0 0 1 764.3991 745)" class="st0 st28">Mechatronic Device      </text>
<text transform="matrix(1 0 0 1 1027.1691 745)" class="st21 st0 st29">|      </text>
<text transform="matrix(1 0 0 1 1074.1791 745)" class="st0 st28">Measuring Device</text>
<path class="st30" d="M575,91.1c0.2-0.2,0.1-0.4,0.1-0.7c0-0.2-0.1-0.5,0.1-0.7c0.3,0.6,0.3,3.7,0,4.3c-0.2-0.2-0.1-0.4-0.1-0.6
	c0-0.2,0.1-0.4-0.1-0.6C575,92.2,575,91.6,575,91.1z"/>
<path class="st31" d="M671.9,26c1.1,0,2.1,0,3.2,0c0,0.1,0,0.2-0.1,0.2c-1,0.2-2.1,0.2-3.1,0C671.9,26.2,671.9,26.1,671.9,26z"/>
<path class="st32" d="M671.9,26c0,0,0,0.1,0,0.1c-0.5,0.3-1,0.2-1.5,0.1c-0.1,0-0.1-0.1-0.1-0.2C670.9,26,671.4,26,671.9,26z"/>
<path class="st33" d="M740,92.8c0,0.5,0,1.1,0,1.6c-0.1,0-0.2,0-0.2-0.1c-0.2-0.5-0.2-1,0-1.5C739.8,92.8,739.9,92.8,740,92.8z"/>
<path class="st34" d="M645.3,177.6c0,0,0,0.1,0,0.1c-0.5,0-0.9,0-1.3,0c0,0,0-0.1,0-0.1C644.4,177.3,644.8,177.3,645.3,177.6z"/>
<path class="st34" d="M675.2,177.7c0,0,0-0.1,0-0.1c0.5-0.3,0.9-0.3,1.3,0c0,0,0,0.1,0,0.1C676,177.7,675.6,177.7,675.2,177.7z"/>
<path class="st35" d="M739.8,94.4c0,0,0.1,0,0.1,0c0,0.4,0,0.7,0,1.1c0,0-0.1,0-0.1,0C739.5,95.1,739.5,94.8,739.8,94.4z"/>
<path class="st36" d="M675.2,26.1c0,0,0-0.1,0-0.1c0.3,0,0.6,0,0.9,0c0,0.1,0,0.1,0,0.2C675.7,26.3,675.4,26.4,675.2,26.1z"/>
<path class="st37" d="M740,92.8c0,0-0.1,0-0.1,0c-0.3-0.3-0.2-0.6-0.1-0.9c0-0.1,0.1-0.1,0.2-0.1C740,92.2,740,92.5,740,92.8z"/>
<path class="st38" d="M676.1,26.1c0,0,0-0.1,0-0.1c0.2,0,0.5,0,0.7,0c0,0,0,0.1,0,0.1C676.5,26.3,676.3,26.3,676.1,26.1z"/>
<path class="st39" d="M670.3,26c0,0,0,0.1,0,0.1c-0.1,0.1-0.3,0.1-0.4,0c0,0,0-0.1,0-0.1C670.1,26,670.2,26,670.3,26z"/>
<path class="st40" d="M740,91.9c0,0-0.1,0-0.1,0c-0.1-0.1-0.1-0.2,0-0.3c0,0,0.1,0,0.1,0C740,91.7,740,91.8,740,91.9z"/>
<path class="st21" d="M739.8,91.6c0,0.1,0,0.2,0,0.3c0,0.3,0,0.6,0,0.9c0,0.5,0,1.1,0,1.6c0,0.4,0,0.7,0,1.1
	c-0.5,7.7-5.5,13.6-12.2,15.9c-0.6,0.2-1.2,0.3-1.8,0.3c-7.9,0-15.9,0-23.8,0c-0.9,0-0.8-0.1-0.8,0.8c0,6.2,0,12.3,0,18.5
	c0,0.8-0.1,0.7,0.7,0.7c1.8,0,3.7,0,5.5,0c0.4,0,0.6-0.1,0.7-0.5c1.8-4.4,5.1-7.1,9.7-8c6.8-1.2,13.2,3.1,14.8,9.7
	c1.6,6.9-2.6,13.7-9.5,15.4c-6.1,1.5-12.6-1.8-14.9-7.7c-0.2-0.6-0.2-0.6-0.8-0.6c-3.3,0-6.5,0-9.8,0c-0.5,0-1,0-1.5-0.1
	c-1.9-0.5-3.1-2-3.2-4c0-0.2,0-0.5,0-0.7c0-7.5,0-15.1,0-22.6c0-0.1,0-0.3,0-0.4c0-0.5,0-0.5-0.5-0.5c-3.9,0-7.8,0-11.8,0
	c-0.5,0-0.5,0-0.5,0.5c0,0.1,0,0.3,0,0.4c0,13,0,26.1,0,39.1c0,0.1,0,0.1,0,0.2c0,0.6-0.1,0.5,0.5,0.8c4.3,1.8,7.1,5.1,7.9,9.7
	c1.3,7.3-3.7,13.6-10.2,14.9c-0.6,0.1-1.2,0.2-1.8,0.3c-0.5,0-0.9,0-1.3,0c-1.5-0.2-3-0.4-4.5-1.1c-4.3-2-6.9-5.4-7.6-10.1
	c-0.8-5.7,2.4-11.4,8.1-13.7c0.5-0.2,0.5-0.2,0.5-0.8c0-13.2,0-26.4,0-39.6c0-0.1,0-0.2,0-0.3c0-0.3-0.1-0.3-0.4-0.3
	c-0.1,0-0.3,0-0.4,0c-6.9,0-13.9,0-20.8,0c-0.8,0-0.8-0.1-0.8,0.7c0,13.2,0,26.3,0,39.5c0,0.5,0.1,0.8,0.7,1c5.1,2.3,8,7.5,7.5,13
	c-0.6,5.8-5.1,10.6-10.8,11.4c-0.4,0.1-0.9,0.1-1.3,0.2c-0.5,0-0.9,0-1.3,0c-2.1-0.2-4.1-0.7-5.9-1.9c-3.5-2.2-5.6-5.4-6.1-9.5
	c-0.8-5.9,2.8-11.7,8.5-13.7c0.6-0.2,0.5-0.1,0.5-0.8c0-12,0-24,0-35.9c0-1.2,0-2.3,0-3.5c0-0.6,0-0.6-0.6-0.6c-4.2,0-8.4,0-12.7,0
	c-0.2,0-0.5,0-0.7,0c-0.2,0-0.2,0.1-0.2,0.2c0,0.2,0,0.4,0,0.6c0,7.6,0,15.3,0,22.9c0,0.6,0,1.2-0.2,1.7c-0.6,1.9-2.2,3-4.3,3
	c-2.4,0-4.8,0-7.2,0c-0.5,0-0.9,0-1.3,0c-0.4,0-0.5,0.1-0.7,0.4c-1,1.9-2.3,3.5-4.1,4.8c-7.6,5.3-18.3,1.3-20.1-8.1
	c-1.4-7.5,3.7-14.1,10.7-15.1c6.3-1,12.3,2.8,14.2,8.9c0,0.1,0.1,0.2,0.1,0.3c0,0.3,0.2,0.4,0.5,0.4c1.2,0,2.5,0,3.7,0
	c0.3,0,0.4-0.1,0.4-0.4c0-0.1,0-0.2,0-0.3c0-6.2,0-12.4,0-18.5c0-0.9,0.1-0.7-0.8-0.7c-8.4,0-16.9,0-25.3,0c-3.6,0-7-1-9.9-3.2
	c-2.9-2.1-4.7-5-5.9-8.4c-0.7-2-1-4.1-1.2-6.1c0-1.4,0-2.9,0-4.3c0.3-3.6,1.1-7.1,2.5-10.4c2.5-6.3,7-10.8,13-13.9
	c3.2-1.7,6.7-2.7,10.3-3.1c3.2-0.4,6.5-0.4,9.7,0.1c0.3,0,0.5-0.1,0.7-0.4c1-2.1,2.2-4.1,3.9-5.7c2.8-2.9,6.3-4.7,10.2-5.3
	c1.7-0.3,3.5-0.4,5.3-0.3c0.4,0,0.5-0.1,0.7-0.5c2.3-7.8,7.2-13.6,14.1-17.7c4-2.4,8.3-3.9,12.8-4.9c3.3-0.7,6.7-1.2,10-1.4
	c0.5,0,1.1-0.1,1.6-0.1c0.1,0,0.3,0,0.4,0c0.5,0,1.1,0,1.6,0c1.1,0,2.2,0,3.2,0c0.3,0,0.6,0,0.9,0c0.2,0,0.5,0,0.7,0
	c4.5,0.3,9,1.1,13.2,2.9c6.9,2.9,12.2,7.6,16.1,13.9c2.6,4.2,4.3,8.8,5.5,13.6c0.7,3,1.2,6.1,1.5,9.2c0.1,0.9,0.2,1.9,0.2,2.8
	c0,0.3,0.1,0.4,0.5,0.4c1.4-0.1,2.8-0.1,4.3,0c9.6,0.7,17.5,6.1,20.6,16.1C739.3,87.2,739.7,89.4,739.8,91.6z"/>
<path class="st27" d="M658.2,103.3c-21.8,0-43.5,0-65.3,0c-1,0-1.9-0.1-2.8-0.3c-1.9-0.5-3.4-1.6-4.5-3.2c-0.9-1.4-1.4-3-1.7-4.7
	c-0.8-5.4,0.3-10.6,3-15.3c1.6-2.8,3.9-4.7,6.6-6.3c2.7-1.6,5.7-2.6,8.9-2.9c3.5-0.4,6.9-0.1,10.3,0.8c2.3,0.7,4.5-0.6,5.2-2.9
	c0.4-1.4,1-2.8,1.7-4.1c1.9-3.3,4.8-5.1,8.7-5.3c1.8-0.1,3.5,0.1,5.2,0.5c2.4,0.7,4.7-0.7,5.3-3c0.2-0.6,0.1-1.3,0.2-1.9
	c0.8-4.5,3-8.3,6.2-11.4c3-2.8,6.5-4.7,10.4-6.1c3.2-1.1,6.4-1.8,9.7-2.2c3.1-0.4,6.1-0.5,9.2-0.5c4.4,0.1,8.6,0.7,12.7,2.5
	c5,2.1,8.8,5.6,11.7,10.1c2.2,3.5,3.7,7.4,4.6,11.4c0.7,3,1.2,5.9,1.4,9c0.2,2.1,0.2,4.2,0.1,6.3c-0.1,2.1,1.3,3.8,3.3,4.3
	c0.6,0.1,1.2,0.1,1.9,0c2-0.4,4-0.7,6-0.7c2.2,0,4.4,0.4,6.5,1.2c3.7,1.5,6.2,4.2,7.7,7.8c1,2.7,1.6,5.5,1.4,8.4
	c-0.3,3.7-2,6.5-5.3,8.2c-0.5,0.2-0.9,0.3-1.5,0.3C702.5,103.3,680.4,103.3,658.2,103.3z"/>
<path class="st27" d="M720.1,140.4c-2.5,0-4.4-2-4.4-4.4c0-2.5,2-4.5,4.5-4.5c2.5,0,4.5,2,4.4,4.5
	C724.6,138.8,722.2,140.5,720.1,140.4z"/>
<path class="st27" d="M605.8,134.9c0,2.1-1.5,4.5-4.5,4.5c-2.5,0-4.5-1.9-4.5-4.5c0-3,2.5-4.4,4.4-4.4
	C603.8,130.4,605.8,132.4,605.8,134.9z"/>
<path class="st27" d="M649.1,164.7c0,2.5-2,4.4-4.5,4.4c-2.4,0-4.4-2-4.4-4.4c0-2.5,2-4.5,4.5-4.5
	C647.1,160.2,649.1,162.2,649.1,164.7z"/>
<path class="st27" d="M680.3,164.6c0.1,2.3-1.9,4.5-4.4,4.5c-2.5,0-4.5-2-4.5-4.5c0-2.5,2-4.4,4.5-4.4
	C678.3,160.2,680.2,162.2,680.3,164.6z"/>
<path class="st21" d="M671.2,39.9c3.8,0,7.5,0.6,11,2.2c4.4,2,7.8,5.1,10.4,9.1c2.2,3.3,3.7,7,4.8,10.8c0.3,1.1,0.6,2.3,0.9,3.4
	c0.4,1.5-0.3,2.9-1.7,3.4c-1.6,0.6-3.3-0.3-3.8-2c-0.3-1.1-0.5-2.1-0.8-3.2c-1-3.4-2.2-6.6-4.2-9.6c-2.2-3.4-5.2-6-9-7.4
	c-2.5-0.9-5.1-1.3-7.8-1.3c-3.2,0-6.3,0.5-9.2,1.8c-4,1.8-7.1,4.6-9.5,8.2c-1.2,1.9-2.2,3.9-2.9,6c-0.4,1.2-1.5,2-2.7,2
	c-1.3,0-2.3-0.8-2.7-2.1c-0.2-0.6-0.1-1.1,0-1.7c0.8-2.6,2-5,3.5-7.3c3.2-4.8,7.3-8.5,12.7-10.6c2.6-1,5.2-1.6,8-1.9
	C669.2,39.9,670.2,39.9,671.2,39.9z"/>
<path class="st21" d="M606.2,76.1c0.7-0.1,1.3,0.1,1.9,0.6c0.9,0.7,1.3,1.9,1,3.1c-0.4,1.2-1.4,1.9-2.6,2c-1.5,0.1-2.9,0.4-4.3,0.9
	c-3,1.3-4.8,3.6-5.3,6.8c-0.3,1.5-0.2,3-0.1,4.5c0.1,1.4-0.7,2.6-2,2.9c-1.7,0.5-3.4-0.6-3.6-2.3c-0.3-3.4-0.1-6.7,1.3-9.8
	c1.7-3.8,4.7-6.3,8.7-7.7C602.7,76.5,604.8,76.1,606.2,76.1z"/>
<path class="st21" d="M714.6,81.8c4.2,0.2,7.5,2.2,9.7,6c1.2,2,1.7,4.3,2,6.6c0.1,0.5,0.1,1,0.1,1.5c0.1,1.7-1,2.9-2.6,3
	c-1.6,0.1-2.8-1-3-2.7c-0.1-1.3-0.3-2.6-0.7-3.9c-0.3-1-0.8-1.9-1.4-2.8c-1.1-1.4-2.6-2.1-4.4-2.1c-0.4,0-0.8,0-1.2-0.1
	c-1.3-0.4-2.2-1.6-2.1-3c0.1-1.3,1.2-2.4,2.5-2.5C713.9,81.8,714.2,81.8,714.6,81.8z"/>
</svg>
