<svg width="400" height="357" viewBox="0 0 400 357" fill="none" xmlns="http://www.w3.org/2000/svg">
<rect width="400" height="357" fill="white"/>
<path d="M27.3111 265.927L39.6902 275.583C47.729 281.853 51.8176 291.932 50.4192 302.03L47.9989 319.51C45.6209 336.683 58.9627 352 76.3003 352H235H339.637C363.403 352 376.78 324.675 362.203 305.904L324.768 257.7C316.762 247.39 316.761 232.965 324.766 222.654L377.211 155.103C386.311 143.381 384.923 126.643 374.015 116.581L311.388 58.8089C295.952 44.5693 270.944 51.2903 264.725 71.3496L247.7 126.268C242.117 144.28 220.925 152.038 205.032 141.888L69.318 55.2182C46.8328 40.8586 18.6814 62.4179 26.6843 87.8686L48.9955 158.822C51.3469 166.3 50.5226 174.416 46.7157 181.268L19.9076 229.523C13.0731 241.825 16.2145 257.272 27.3111 265.927Z" fill="url(#paint0_linear)"/>
<line x1="36.5" y1="352.5" x2="359.5" y2="352.5" stroke="#C8E3F2" stroke-width="3" stroke-linecap="round"/>
<path d="M178.571 312.5H170.536V335.268H227.232L225.446 312.5L216.964 311.161L213.393 287.5H178.571V312.5Z" fill="#E6F3FF"/>
<path d="M306.595 182.295H69.1205C48.3037 182.295 31.3662 165.28 31.3662 144.379C31.3662 125.514 45.1601 109.826 63.1625 106.944C66.2856 78.476 92.0725 56.5426 121.878 60.3084C130.069 32.2641 155.907 12.4951 185.506 12.4951C211.787 12.4951 235.223 27.9146 245.878 51.5371C252.685 48.6495 260.001 47.1411 267.384 47.1411C296.912 47.1411 321.124 70.4434 322.73 99.7016C338.597 106.21 349.324 121.904 349.324 139.389C349.324 163.043 330.149 182.295 306.595 182.295Z" fill="#E6F3FF" stroke="#045996" stroke-width="4.5"/>
<path d="M292.41 167.344H83.035C64.6215 167.344 49.1064 159.55 49.1064 142.852C49.1064 127.78 61.3078 115.247 77.2319 112.944C79.9944 90.1996 99.5529 70.9536 129.168 75.6848C136.414 53.2791 154.464 29.4524 185.451 29.4524C216.439 29.4524 229.428 49.8041 238.853 68.6771C244.874 66.3701 251.346 65.165 257.877 65.165C287.499 61.1361 305.412 83.7821 306.832 107.158C320.868 112.358 330.356 124.896 330.356 138.866C330.356 157.763 313.245 167.344 292.41 167.344Z" fill="white"/>
<path opacity="0.32" d="M110.161 282.436V187.019" stroke="#045996" stroke-width="3" stroke-linecap="round" stroke-dasharray="0.89 5.36"/>
<path opacity="0.32" d="M198.554 282.436V187.019" stroke="#045996" stroke-width="3" stroke-linecap="round" stroke-dasharray="0.89 5.36"/>
<path opacity="0.32" d="M286.947 282.436V187.019" stroke="#045996" stroke-width="3" stroke-linecap="round" stroke-dasharray="0.89 5.36"/>
<path d="M109.375 251.685C121.95 251.685 132.143 241.496 132.143 228.926C132.143 216.357 121.95 206.167 109.375 206.167C96.8009 206.167 86.6074 216.357 86.6074 228.926C86.6074 241.496 96.8009 251.685 109.375 251.685Z" fill="#6FCF97"/>
<path d="M97.8381 226.176C103.821 220.061 113.555 220.061 119.594 226.244L119.729 226.399C120.286 227.006 121.189 227.003 121.78 226.434C121.794 226.426 121.803 226.417 121.814 226.405C122.376 225.83 122.368 224.872 121.823 224.277C121.757 224.197 121.691 224.121 121.619 224.048C114.489 216.76 102.889 216.76 95.756 224.048C95.1824 224.634 95.1824 225.587 95.7589 226.176C96.3325 226.763 97.2645 226.763 97.8381 226.176Z" fill="white"/>
<path d="M115.492 232.484L115.628 232.631C116.173 233.203 117.063 233.203 117.648 232.666C117.66 232.655 117.671 232.647 117.682 232.636C118.233 232.097 118.228 231.193 117.688 230.632C117.623 230.558 117.558 230.486 117.487 230.414C112.636 225.672 104.741 225.672 99.8897 230.414C99.3245 230.97 99.3245 231.868 99.8897 232.421C100.458 232.976 101.376 232.973 101.941 232.421C105.659 228.784 111.715 228.784 115.492 232.484Z" fill="white"/>
<path d="M110.977 236.045C112.187 237.255 112.187 239.219 110.977 240.432C109.763 241.643 107.796 241.643 106.585 240.432C105.372 239.219 105.372 237.255 106.585 236.045C107.796 234.83 109.763 234.83 110.977 236.045Z" fill="white"/>
<path d="M285.268 251.685C297.842 251.685 308.036 241.496 308.036 228.926C308.036 216.357 297.842 206.167 285.268 206.167C272.694 206.167 262.5 216.357 262.5 228.926C262.5 241.496 272.694 251.685 285.268 251.685Z" fill="#6FCF97"/>
<path fill-rule="evenodd" clip-rule="evenodd" d="M293.548 224.191L286.109 216.512H284.806V226.719L278.826 220.546L276.989 222.443L284.272 229.96L276.989 237.478L278.826 239.374L284.806 233.201V243.409H286.109L293.548 235.73L287.946 229.96L293.548 224.191ZM287.411 221.663L289.861 224.191L287.411 226.72V221.663ZM287.411 238.258L289.861 235.73L287.411 233.201V238.258Z" fill="white"/>
<path d="M197.768 251.685C210.342 251.685 220.536 241.496 220.536 228.926C220.536 216.357 210.342 206.167 197.768 206.167C185.194 206.167 175 216.357 175 228.926C175 241.496 185.194 251.685 197.768 251.685Z" fill="#6FCF97"/>
<path fill-rule="evenodd" clip-rule="evenodd" d="M197.901 225.673L202.568 240.941H193.234L197.901 225.673Z" fill="white" stroke="white" stroke-width="0.892857"/>
<path fill-rule="evenodd" clip-rule="evenodd" d="M197.931 221.616C198.787 221.616 199.481 220.923 199.481 220.067C199.481 219.211 198.787 218.518 197.931 218.518C197.075 218.518 196.381 219.211 196.381 220.067C196.381 220.923 197.075 221.616 197.931 221.616Z" fill="white"/>
<path d="M194.56 224.529C192.294 222.314 192.294 218.71 194.585 216.474L194.642 216.424C194.867 216.218 194.866 215.884 194.655 215.665C194.652 215.66 194.649 215.657 194.644 215.652C194.431 215.444 194.076 215.447 193.856 215.649C193.826 215.674 193.798 215.698 193.771 215.724C191.071 218.364 191.071 222.659 193.771 225.3C193.988 225.512 194.341 225.512 194.56 225.299C194.777 225.086 194.777 224.741 194.56 224.529Z" fill="white"/>
<path d="M195.61 218.075L195.664 218.024C195.876 217.823 195.876 217.493 195.677 217.276C195.673 217.272 195.67 217.268 195.666 217.264C195.466 217.06 195.132 217.062 194.924 217.262C194.896 217.286 194.869 217.31 194.843 217.336C193.086 219.132 193.086 222.055 194.843 223.851C195.049 224.06 195.381 224.06 195.586 223.851C195.792 223.641 195.791 223.301 195.586 223.092C194.239 221.715 194.239 219.473 195.61 218.075Z" fill="white"/>
<path d="M201.24 224.529C203.506 222.314 203.506 218.71 201.215 216.474L201.158 216.424C200.933 216.218 200.934 215.884 201.145 215.665C201.148 215.66 201.151 215.657 201.156 215.652C201.368 215.444 201.724 215.447 201.944 215.649C201.973 215.674 202.002 215.698 202.029 215.724C204.729 218.364 204.729 222.659 202.029 225.3C201.812 225.512 201.459 225.512 201.24 225.299C201.023 225.086 201.023 224.741 201.24 224.529Z" fill="white"/>
<path d="M200.19 218.075L200.136 218.024C199.924 217.823 199.924 217.493 200.122 217.276C200.127 217.272 200.13 217.268 200.134 217.264C200.333 217.06 200.668 217.062 200.876 217.262C200.904 217.286 200.93 217.31 200.957 217.336C202.714 219.132 202.714 222.055 200.957 223.851C200.751 224.06 200.418 224.06 200.214 223.851C200.008 223.641 200.009 223.301 200.214 223.092C201.561 221.715 201.561 219.473 200.19 218.075Z" fill="white"/>
<path d="M189.754 117.27L185.03 116.469C184.538 114.881 183.905 113.349 183.132 111.887L185.916 107.994C187.097 106.336 186.914 104.073 185.466 102.64L181.276 98.4513C180.489 97.6642 179.448 97.2285 178.337 97.2285C177.466 97.2285 176.636 97.4956 175.933 98.0015L172.024 100.784C170.506 99.9832 168.917 99.3227 167.272 98.8307L166.485 94.1646C166.147 92.1548 164.418 90.6931 162.379 90.6931H156.46C154.421 90.6931 152.692 92.1548 152.354 94.1646L151.539 98.9432C149.964 99.4351 148.432 100.082 146.969 100.869L143.103 98.0858C142.4 97.5799 141.556 97.3128 140.684 97.3128C139.574 97.3128 138.519 97.7485 137.746 98.5356L133.542 102.724C132.108 104.157 131.911 106.42 133.092 108.079L135.904 112.028C135.131 113.504 134.512 115.036 134.034 116.624L129.366 117.411C127.355 117.748 125.893 119.477 125.893 121.515V127.432C125.893 129.47 127.355 131.199 129.366 131.536L134.146 132.351C134.638 133.925 135.285 135.457 136.073 136.919L133.303 140.77C132.122 142.428 132.305 144.691 133.753 146.125L137.943 150.313C138.73 151.1 139.77 151.536 140.881 151.536C141.753 151.536 142.582 151.269 143.285 150.763L147.236 147.952C148.656 148.697 150.147 149.301 151.679 149.779L152.467 154.501C152.804 156.511 154.534 157.973 156.572 157.973H162.506C164.544 157.973 166.274 156.511 166.611 154.501L167.413 149.779C169.002 149.287 170.534 148.654 171.996 147.881L175.891 150.664C176.594 151.17 177.438 151.437 178.309 151.437C179.42 151.437 180.461 151.002 181.248 150.214L185.438 146.026C186.872 144.593 187.069 142.33 185.888 140.671L183.104 136.764C183.877 135.288 184.524 133.756 185.002 132.182L189.726 131.395C191.737 131.058 193.199 129.329 193.199 127.291V121.374C193.227 119.336 191.765 117.608 189.754 117.27Z" fill="#C8E3F2"/>
<path d="M189.754 117.27L189.378 119.489L189.382 119.489L189.754 117.27ZM185.03 116.469L182.881 117.135L183.29 118.456L184.654 118.688L185.03 116.469ZM183.132 111.887L181.302 110.579L180.493 111.71L181.143 112.94L183.132 111.887ZM185.916 107.994L187.746 109.303L187.749 109.3L185.916 107.994ZM185.466 102.64L183.875 104.231L183.883 104.239L185.466 102.64ZM181.276 98.4513L182.867 96.86L181.276 98.4513ZM175.933 98.0015L177.238 99.8345L177.248 99.8277L175.933 98.0015ZM172.024 100.784L170.975 102.774L172.2 103.421L173.329 102.617L172.024 100.784ZM167.272 98.8307L165.053 99.2051L165.286 100.585L166.628 100.986L167.272 98.8307ZM166.485 94.1646L164.266 94.5372L164.266 94.539L166.485 94.1646ZM152.354 94.1646L154.572 94.5431L154.573 94.5372L152.354 94.1646ZM151.539 98.9432L152.21 101.091L153.525 100.68L153.757 99.3217L151.539 98.9432ZM146.969 100.869L145.655 102.695L146.797 103.517L148.036 102.85L146.969 100.869ZM143.103 98.0858L144.417 96.2597L143.103 98.0858ZM137.746 98.5356L139.334 100.13L139.342 100.121L139.351 100.113L137.746 98.5356ZM133.542 102.724L131.954 101.13L131.951 101.133L133.542 102.724ZM133.092 108.079L134.925 106.774L134.925 106.774L133.092 108.079ZM135.904 112.028L137.897 113.072L138.538 111.849L137.737 110.723L135.904 112.028ZM134.034 116.624L134.408 118.843L135.786 118.61L136.188 117.272L134.034 116.624ZM129.366 117.411L129.738 119.63L129.74 119.63L129.366 117.411ZM129.366 131.536L129.744 129.318L129.738 129.317L129.366 131.536ZM134.146 132.351L136.294 131.68L135.883 130.365L134.525 130.133L134.146 132.351ZM136.073 136.919L137.899 138.233L138.721 137.09L138.054 135.852L136.073 136.919ZM133.303 140.77L131.476 139.456L131.47 139.465L133.303 140.77ZM133.753 146.125L135.343 144.533L135.336 144.526L133.753 146.125ZM137.943 150.313L136.352 151.904H136.352L137.943 150.313ZM143.285 150.763L141.981 148.929L141.971 148.936L143.285 150.763ZM147.236 147.952L148.282 145.959L147.058 145.317L145.932 146.118L147.236 147.952ZM151.679 149.779L153.899 149.409L153.671 148.043L152.349 147.631L151.679 149.779ZM152.467 154.501L150.247 154.871L150.248 154.874L152.467 154.501ZM166.611 154.501L164.393 154.125L164.392 154.129L166.611 154.501ZM167.413 149.779L166.747 147.629L165.426 148.039L165.194 149.402L167.413 149.779ZM171.996 147.881L173.304 146.051L172.174 145.243L170.945 145.892L171.996 147.881ZM175.891 150.664L177.205 148.838L177.199 148.833L175.891 150.664ZM181.248 150.214L179.657 148.623H179.657L181.248 150.214ZM185.438 146.026L187.029 147.617H187.029L185.438 146.026ZM185.888 140.671L187.721 139.366L187.72 139.366L185.888 140.671ZM183.104 136.764L181.111 135.72L180.469 136.944L181.271 138.07L183.104 136.764ZM185.002 132.182L184.632 129.963L183.255 130.192L182.849 131.529L185.002 132.182ZM189.726 131.395L190.096 133.615L190.098 133.614L189.726 131.395ZM193.199 121.374L190.949 121.343L190.949 121.359V121.374H193.199ZM190.131 115.052L185.406 114.251L184.654 118.688L189.378 119.489L190.131 115.052ZM187.179 115.803C186.647 114.085 185.961 112.423 185.121 110.835L181.143 112.94C181.85 114.275 182.429 115.677 182.881 117.135L187.179 115.803ZM184.962 113.196L187.746 109.303L184.086 106.686L181.302 110.579L184.962 113.196ZM187.749 109.3C189.563 106.752 189.289 103.258 187.049 101.041L183.883 104.239C184.539 104.888 184.631 105.92 184.083 106.689L187.749 109.3ZM187.057 101.048L182.867 96.86L179.685 100.043L183.875 104.231L187.057 101.048ZM182.867 96.86C181.663 95.6564 180.052 94.9785 178.337 94.9785V99.4785C178.844 99.4785 179.315 99.672 179.685 100.043L182.867 96.86ZM178.337 94.9785C176.996 94.9785 175.707 95.3924 174.619 96.1753L177.248 99.8277C177.566 99.5987 177.935 99.4785 178.337 99.4785V94.9785ZM174.628 96.1686L170.72 98.9514L173.329 102.617L177.238 99.8344L174.628 96.1686ZM173.074 98.7943C171.435 97.9292 169.71 97.2114 167.917 96.6751L166.628 100.986C168.124 101.434 169.577 102.037 170.975 102.774L173.074 98.7943ZM169.491 98.4564L168.703 93.7902L164.266 94.539L165.053 99.2051L169.491 98.4564ZM168.704 93.7921C168.184 90.6971 165.515 88.4431 162.379 88.4431V92.9431C163.321 92.9431 164.111 93.6125 164.266 94.5372L168.704 93.7921ZM162.379 88.4431H156.46V92.9431H162.379V88.4431ZM156.46 88.4431C153.324 88.4431 150.655 90.6971 150.135 93.7921L154.573 94.5372C154.728 93.6125 155.519 92.9431 156.46 92.9431V88.4431ZM150.136 93.7861L149.321 98.5647L153.757 99.3217L154.572 94.5431L150.136 93.7861ZM150.868 96.7955C149.155 97.3307 147.49 98.0333 145.903 98.8874L148.036 102.85C149.373 102.13 150.774 101.539 152.21 101.091L150.868 96.7955ZM148.284 99.0425L144.417 96.2597L141.788 99.912L145.655 102.695L148.284 99.0425ZM144.417 96.2597C143.323 95.4721 142.017 95.0628 140.684 95.0628V99.5628C141.095 99.5628 141.477 99.6876 141.788 99.912L144.417 96.2597ZM140.684 95.0628C138.981 95.0628 137.345 95.7331 136.141 96.9587L139.351 100.113C139.693 99.764 140.166 99.5628 140.684 99.5628V95.0628ZM136.158 96.9416L131.954 101.13L135.13 104.318L139.334 100.13L136.158 96.9416ZM131.951 101.133C129.743 103.339 129.438 106.826 131.259 109.384L134.925 106.774C134.384 106.014 134.472 104.976 135.132 104.315L131.951 101.133ZM131.259 109.384L134.071 113.333L137.737 110.723L134.925 106.774L131.259 109.384ZM133.911 110.984C133.069 112.591 132.397 114.256 131.879 115.975L136.188 117.272C136.627 115.816 137.192 114.417 137.897 113.072L133.911 110.984ZM133.66 114.405L128.992 115.192L129.74 119.63L134.408 118.843L133.66 114.405ZM128.994 115.192C125.899 115.711 123.643 118.378 123.643 121.515H128.143C128.143 120.576 128.812 119.785 129.738 119.63L128.994 115.192ZM123.643 121.515V127.432H128.143V121.515H123.643ZM123.643 127.432C123.643 130.569 125.899 133.236 128.994 133.755L129.738 129.317C128.812 129.161 128.143 128.371 128.143 127.432H123.643ZM128.988 133.754L133.768 134.569L134.525 130.133L129.744 129.318L128.988 133.754ZM131.999 133.022C132.534 134.735 133.237 136.4 134.092 137.986L138.054 135.852C137.333 134.515 136.743 133.115 136.294 131.68L131.999 133.022ZM134.246 135.605L131.476 139.456L135.129 142.084L137.899 138.233L134.246 135.605ZM131.47 139.465C129.656 142.012 129.929 145.506 132.17 147.724L135.336 144.526C134.68 143.876 134.588 142.844 135.136 142.075L131.47 139.465ZM132.162 147.716L136.352 151.904L139.533 148.722L135.343 144.533L132.162 147.716ZM136.352 151.904C137.556 153.108 139.166 153.786 140.881 153.786V149.286C140.374 149.286 139.904 149.092 139.533 148.722L136.352 151.904ZM140.881 153.786C142.222 153.786 143.512 153.372 144.6 152.589L141.971 148.936C141.653 149.165 141.284 149.286 140.881 149.286V153.786ZM144.59 152.596L148.541 149.785L145.932 146.118L141.981 148.929L144.59 152.596ZM146.191 149.944C147.741 150.757 149.359 151.412 151.01 151.927L152.349 147.631C150.935 147.19 149.572 146.636 148.282 145.959L146.191 149.944ZM149.46 150.149L150.247 154.871L154.686 154.131L153.899 149.409L149.46 150.149ZM150.248 154.874C150.767 157.969 153.436 160.223 156.572 160.223V155.723C155.631 155.723 154.841 155.053 154.686 154.129L150.248 154.874ZM156.572 160.223H162.506V155.723H156.572V160.223ZM162.506 160.223C165.642 160.223 168.311 157.969 168.83 154.874L164.392 154.129C164.237 155.053 163.447 155.723 162.506 155.723V160.223ZM168.83 154.878L169.631 150.155L165.194 149.402L164.393 154.125L168.83 154.878ZM168.078 151.928C169.797 151.396 171.459 150.71 173.048 149.871L170.945 145.892C169.609 146.598 168.206 147.178 166.747 147.629L168.078 151.928ZM170.688 149.712L174.583 152.495L177.199 148.833L173.304 146.051L170.688 149.712ZM174.577 152.49C175.671 153.278 176.976 153.687 178.309 153.687V149.187C177.899 149.187 177.517 149.062 177.205 148.838L174.577 152.49ZM178.309 153.687C180.024 153.687 181.635 153.009 182.839 151.806L179.657 148.623C179.287 148.994 178.816 149.187 178.309 149.187V153.687ZM182.839 151.806L187.029 147.617L183.847 144.435L179.657 148.623L182.839 151.806ZM187.029 147.617C189.236 145.411 189.542 141.924 187.721 139.366L184.055 141.977C184.596 142.736 184.508 143.774 183.847 144.435L187.029 147.617ZM187.72 139.366L184.936 135.459L181.271 138.07L184.055 141.977L187.72 139.366ZM185.097 137.809C185.927 136.224 186.631 134.561 187.155 132.836L182.849 131.529C182.417 132.952 181.827 134.353 181.111 135.72L185.097 137.809ZM185.372 134.402L190.096 133.615L189.356 129.176L184.632 129.963L185.372 134.402ZM190.098 133.614C193.193 133.095 195.449 130.428 195.449 127.291H190.949C190.949 128.231 190.28 129.021 189.354 129.176L190.098 133.614ZM195.449 127.291V121.374H190.949V127.291H195.449ZM195.449 121.405C195.493 118.241 193.217 115.57 190.127 115.051L189.382 119.489C190.313 119.646 190.962 120.432 190.949 121.343L195.449 121.405Z" fill="#045996"/>
<path d="M160.455 114.332C155.436 114.332 151.359 118.407 151.359 123.423C151.359 128.44 155.436 132.515 160.455 132.515C165.474 132.515 169.55 128.44 169.55 123.423C169.55 118.407 165.474 114.332 160.455 114.332Z" fill="white"/>
<path d="M160.455 112.099C154.204 112.099 149.127 117.173 149.127 123.423H153.592C153.592 119.64 156.668 116.564 160.455 116.564V112.099ZM149.127 123.423C149.127 129.674 154.204 134.747 160.455 134.747V130.283C156.668 130.283 153.592 127.207 153.592 123.423H149.127ZM160.455 134.747C166.706 134.747 171.782 129.674 171.782 123.423H167.318C167.318 127.207 164.242 130.283 160.455 130.283V134.747ZM171.782 123.423C171.782 117.173 166.706 112.099 160.455 112.099V116.564C164.242 116.564 167.318 119.64 167.318 123.423H171.782Z" fill="#045996"/>
<path d="M206.924 67.8012L204.232 67.3447C203.951 66.4398 203.591 65.5669 203.15 64.734L204.737 62.5157C205.41 61.5707 205.305 60.2814 204.48 59.4645L202.093 57.0781C201.644 56.6296 201.051 56.3813 200.418 56.3813C199.922 56.3813 199.449 56.5335 199.048 56.8218L196.821 58.4074C195.956 57.951 195.051 57.5746 194.113 57.2943L193.665 54.6355C193.472 53.4903 192.487 52.6575 191.325 52.6575H187.953C186.791 52.6575 185.806 53.4903 185.613 54.6355L185.149 57.3583C184.251 57.6386 183.378 58.007 182.545 58.4555L180.342 56.8698C179.941 56.5815 179.46 56.4294 178.964 56.4294C178.331 56.4294 177.73 56.6776 177.289 57.1261L174.894 59.5126C174.077 60.3294 173.965 61.6188 174.638 62.5638L176.24 64.8141C175.799 65.655 175.447 66.5279 175.174 67.4328L172.514 67.8813C171.369 68.0735 170.536 69.0585 170.536 70.2197V73.5912C170.536 74.7524 171.369 75.7374 172.514 75.9296L175.238 76.3941C175.519 77.291 175.887 78.1639 176.336 78.9968L174.758 81.1911C174.085 82.1361 174.189 83.4254 175.014 84.2423L177.401 86.6287C177.85 87.0772 178.443 87.3255 179.076 87.3255C179.573 87.3255 180.045 87.1733 180.446 86.885L182.697 85.2833C183.506 85.7078 184.355 86.0521 185.229 86.3244L185.677 89.0152C185.87 90.1604 186.855 90.9933 188.017 90.9933H191.398C192.559 90.9933 193.545 90.1604 193.737 89.0152L194.194 86.3244C195.099 86.0441 195.972 85.6837 196.805 85.2433L199.024 86.8289C199.425 87.1172 199.906 87.2694 200.402 87.2694C201.035 87.2694 201.628 87.0211 202.077 86.5727L204.464 84.1862C205.281 83.3693 205.394 82.08 204.721 81.135L203.134 78.9087C203.575 78.0678 203.943 77.1949 204.216 76.298L206.908 75.8495C208.053 75.6573 208.887 74.6723 208.887 73.5111V70.1396C208.903 68.9784 208.069 67.9934 206.924 67.8012Z" fill="#C8E3F2"/>
<path d="M206.924 67.8012L206.551 70.0019L206.554 70.0026L206.924 67.8012ZM204.232 67.3447L202.1 68.0054L202.506 69.316L203.859 69.5454L204.232 67.3447ZM203.15 64.734L201.335 63.4356L200.532 64.5581L201.177 65.7778L203.15 64.734ZM204.737 62.5157L206.552 63.8141L206.555 63.8105L204.737 62.5157ZM204.48 59.4645L202.902 61.0432L202.91 61.0509L204.48 59.4645ZM202.093 57.0781L203.671 55.4994L202.093 57.0781ZM199.048 56.8218L200.343 58.6402L200.352 58.6335L199.048 56.8218ZM196.821 58.4074L195.78 60.3817L196.996 61.0232L198.116 60.2258L196.821 58.4074ZM194.113 57.2943L191.912 57.6657L192.143 59.035L193.474 59.4329L194.113 57.2943ZM193.665 54.6355L191.463 55.0051L191.464 55.0069L193.665 54.6355ZM185.613 54.6355L187.814 55.011L187.815 55.0051L185.613 54.6355ZM185.149 57.3583L185.814 59.489L187.119 59.0814L187.349 57.7338L185.149 57.3583ZM182.545 58.4555L181.241 60.2672L182.374 61.0825L183.603 60.421L182.545 58.4555ZM180.342 56.8698L181.646 55.0581L180.342 56.8698ZM177.289 57.1261L178.865 58.7074L178.873 58.699L178.882 58.6905L177.289 57.1261ZM174.894 59.5126L173.318 57.9313L173.316 57.9339L174.894 59.5126ZM174.638 62.5638L176.456 61.2691L176.456 61.2689L174.638 62.5638ZM176.24 64.8141L178.217 65.8501L178.853 64.636L178.058 63.5194L176.24 64.8141ZM175.174 67.4328L175.545 69.6339L176.912 69.4034L177.312 68.0762L175.174 67.4328ZM172.514 67.8813L172.884 70.0827L172.886 70.0823L172.514 67.8813ZM172.514 75.9296L172.89 73.7292L172.884 73.7282L172.514 75.9296ZM175.238 76.3941L177.369 75.7281L176.961 74.4235L175.614 74.1937L175.238 76.3941ZM176.336 78.9968L178.148 80.3002L178.963 79.1671L178.301 77.9382L176.336 78.9968ZM174.758 81.1911L172.946 79.8877L172.939 79.8963L174.758 81.1911ZM175.014 84.2423L176.592 82.6636L176.584 82.6559L175.014 84.2423ZM177.401 86.6287L175.823 88.2074L175.823 88.2074L177.401 86.6287ZM180.446 86.885L179.152 85.0662L179.142 85.0733L180.446 86.885ZM182.697 85.2833L183.734 83.3066L182.52 82.6699L181.403 83.4645L182.697 85.2833ZM185.229 86.3244L187.43 85.9573L187.205 84.6024L185.893 84.1935L185.229 86.3244ZM185.677 89.0152L183.476 89.3823L183.476 89.3848L185.677 89.0152ZM193.737 89.0152L191.536 88.6417L191.536 88.6456L193.737 89.0152ZM194.194 86.3244L193.533 84.1921L192.222 84.598L191.993 85.9509L194.194 86.3244ZM196.805 85.2433L198.103 83.4271L196.981 82.6255L195.762 83.2699L196.805 85.2433ZM199.024 86.8289L200.328 85.0172L200.322 85.0128L199.024 86.8289ZM202.077 86.5727L203.655 88.1513L202.077 86.5727ZM204.464 84.1862L202.886 82.6075L204.464 84.1862ZM204.721 81.135L206.539 79.8402L206.538 79.8398L204.721 81.135ZM203.134 78.9087L201.157 77.8727L200.521 79.0872L201.316 80.204L203.134 78.9087ZM204.216 76.298L203.849 74.0962L202.483 74.3239L202.08 75.6494L204.216 76.298ZM206.908 75.8495L207.275 78.0513L207.277 78.0509L206.908 75.8495ZM208.887 70.1396L206.655 70.1088L206.654 70.1242V70.1396H208.887ZM207.297 65.6005L204.605 65.144L203.859 69.5454L206.551 70.0019L207.297 65.6005ZM206.364 66.6841C206.044 65.6498 205.63 64.6483 205.123 63.6902L201.177 65.7778C201.552 66.4854 201.859 67.2298 202.1 68.0054L206.364 66.6841ZM204.966 66.0324L206.552 63.8141L202.921 61.2173L201.335 63.4356L204.966 66.0324ZM206.555 63.8105C207.856 61.9836 207.662 59.4729 206.051 57.8782L202.91 61.0509C202.949 61.0898 202.963 61.1578 202.918 61.2209L206.555 63.8105ZM206.058 57.8859L203.671 55.4994L200.515 58.6567L202.902 61.0432L206.058 57.8859ZM203.671 55.4994C202.809 54.6378 201.651 54.1492 200.418 54.1492V58.6135C200.441 58.6135 200.455 58.6175 200.466 58.6219C200.477 58.6263 200.494 58.6355 200.515 58.6567L203.671 55.4994ZM200.418 54.1492C199.456 54.1492 198.527 54.4471 197.745 55.0101L200.352 58.6335C200.365 58.6245 200.374 58.6206 200.381 58.6184C200.388 58.6162 200.399 58.6135 200.418 58.6135V54.1492ZM197.754 55.0034L195.527 56.5891L198.116 60.2258L200.343 58.6402L197.754 55.0034ZM197.863 56.4332C196.877 55.9133 195.838 55.4801 194.753 55.1557L193.474 59.4329C194.264 59.669 195.035 59.9887 195.78 60.3817L197.863 56.4332ZM196.314 56.9229L195.866 54.2641L191.464 55.0069L191.912 57.6657L196.314 56.9229ZM195.866 54.2659C195.493 52.0442 193.576 50.4253 191.325 50.4253V54.8896C191.398 54.8896 191.452 54.9365 191.463 55.0051L195.866 54.2659ZM191.325 50.4253H187.953V54.8896H191.325V50.4253ZM187.953 50.4253C185.702 50.4253 183.785 52.0442 183.412 54.2659L187.815 55.0051C187.826 54.9365 187.88 54.8896 187.953 54.8896V50.4253ZM183.413 54.26L182.948 56.9829L187.349 57.7338L187.814 55.011L183.413 54.26ZM184.483 55.2277C183.448 55.551 182.444 55.975 181.487 56.49L183.603 60.421C184.312 60.0391 185.054 59.7263 185.814 59.489L184.483 55.2277ZM183.849 56.6438L181.646 55.0581L179.038 58.6815L181.241 60.2672L183.849 56.6438ZM181.646 55.0581C180.857 54.4905 179.918 54.1972 178.964 54.1972V58.6615C179.003 58.6615 179.025 58.6726 179.038 58.6815L181.646 55.0581ZM178.964 54.1972C177.743 54.1972 176.565 54.6782 175.697 55.5617L178.882 58.6905C178.89 58.6821 178.899 58.6758 178.911 58.671C178.922 58.6661 178.94 58.6615 178.964 58.6615V54.1972ZM175.714 55.5448L173.318 57.9313L176.469 61.0939L178.865 58.7074L175.714 55.5448ZM173.316 57.9339C171.731 59.5178 171.511 62.0214 172.819 63.8586L176.456 61.2689C176.418 61.2161 176.422 61.1411 176.472 61.0913L173.316 57.9339ZM172.819 63.8584L174.421 66.1088L178.058 63.5194L176.456 61.2691L172.819 63.8584ZM174.263 63.778C173.754 64.749 173.349 65.7539 173.037 66.7894L177.312 68.0762C177.545 67.3019 177.844 66.5609 178.217 65.8501L174.263 63.778ZM174.803 65.2317L172.143 65.6802L172.886 70.0823L175.545 69.6339L174.803 65.2317ZM172.145 65.6799C169.924 66.0525 168.304 67.9684 168.304 70.2197H172.768C172.768 70.1485 172.814 70.0944 172.884 70.0826L172.145 65.6799ZM168.304 70.2197V73.5912H172.768V70.2197H168.304ZM168.304 73.5912C168.304 75.8424 169.924 77.7584 172.145 78.131L172.884 73.7282C172.814 73.7165 172.768 73.6624 172.768 73.5912H168.304ZM172.139 78.13L174.863 78.5945L175.614 74.1937L172.89 73.7292L172.139 78.13ZM173.108 77.0601C173.431 78.0947 173.856 79.0989 174.371 80.0554L178.301 77.9382C177.919 77.229 177.606 76.4874 177.369 75.7281L173.108 77.0601ZM174.524 77.6934L172.946 79.8877L176.57 82.4945L178.148 80.3002L174.524 77.6934ZM172.939 79.8963C171.638 81.7232 171.833 84.2338 173.444 85.8286L176.584 82.6559C176.545 82.617 176.531 82.549 176.576 82.4859L172.939 79.8963ZM173.436 85.8209L175.823 88.2074L178.98 85.0501L176.592 82.6636L173.436 85.8209ZM175.823 88.2074C176.685 89.069 177.844 89.5576 179.076 89.5576V85.0933C179.053 85.0933 179.039 85.0893 179.028 85.0849C179.018 85.0805 179.001 85.0712 178.98 85.0501L175.823 88.2074ZM179.076 89.5576C180.038 89.5576 180.967 89.2597 181.75 88.6967L179.142 85.0733C179.129 85.0823 179.12 85.0862 179.113 85.0884C179.107 85.0905 179.095 85.0933 179.076 85.0933V89.5576ZM181.74 88.7038L183.991 87.1021L181.403 83.4645L179.152 85.0662L181.74 88.7038ZM181.66 87.26C182.598 87.7521 183.573 88.1464 184.564 88.4554L185.893 84.1935C185.137 83.9578 184.414 83.6634 183.734 83.3066L181.66 87.26ZM183.027 86.6915L183.476 89.3823L187.879 88.6481L187.43 85.9573L183.027 86.6915ZM183.476 89.3848C183.849 91.6065 185.766 93.2254 188.017 93.2254V88.7611C187.944 88.7611 187.89 88.7142 187.879 88.6456L183.476 89.3848ZM188.017 93.2254H191.398V88.7611H188.017V93.2254ZM191.398 93.2254C193.648 93.2254 195.565 91.6065 195.938 89.3848L191.536 88.6456C191.524 88.7142 191.471 88.7611 191.398 88.7611V93.2254ZM195.938 89.3887L196.394 86.6979L191.993 85.9509L191.536 88.6417L195.938 89.3887ZM194.854 88.4567C195.888 88.1364 196.89 87.7234 197.848 87.2167L195.762 83.2699C195.054 83.6441 194.309 83.9519 193.533 84.1921L194.854 88.4567ZM195.508 87.0595L197.727 88.6451L200.322 85.0128L198.103 83.4271L195.508 87.0595ZM197.721 88.6406C198.509 89.2082 199.448 89.5015 200.402 89.5015V85.0373C200.363 85.0373 200.341 85.0262 200.328 85.0172L197.721 88.6406ZM200.402 89.5015C201.635 89.5015 202.793 89.013 203.655 88.1513L200.499 84.994C200.478 85.0152 200.461 85.0244 200.45 85.0289C200.439 85.0332 200.425 85.0373 200.402 85.0373V89.5015ZM203.655 88.1513L206.042 85.7649L202.886 82.6075L200.499 84.994L203.655 88.1513ZM206.042 85.7649C207.627 84.181 207.847 81.6773 206.539 79.8402L202.902 82.4299C202.94 82.4827 202.936 82.5577 202.886 82.6075L206.042 85.7649ZM206.538 79.8398L204.952 77.6134L201.316 80.204L202.903 82.4303L206.538 79.8398ZM205.111 79.9448C205.609 78.9955 206.034 77.9932 206.352 76.9466L202.08 75.6494C201.853 76.3967 201.541 77.1402 201.157 77.8727L205.111 79.9448ZM204.583 78.4998L207.275 78.0513L206.541 73.6477L203.849 74.0962L204.583 78.4998ZM207.277 78.0509C209.498 77.6783 211.119 75.7624 211.119 73.5111H206.654C206.654 73.5823 206.609 73.6364 206.538 73.6482L207.277 78.0509ZM211.119 73.5111V70.1396H206.654V73.5111H211.119ZM211.118 70.1704C211.15 67.8916 209.51 65.9717 207.293 65.5998L206.554 70.0026C206.594 70.0092 206.618 70.026 206.633 70.044C206.641 70.0535 206.646 70.0631 206.649 70.0721C206.652 70.0802 206.655 70.0915 206.655 70.1088L211.118 70.1704Z" fill="#045996"/>
<path d="M189.978 65.9685C186.892 65.9685 184.385 68.4743 184.385 71.5591C184.385 74.644 186.892 77.1498 189.978 77.1498C193.064 77.1498 195.571 74.644 195.571 71.5591C195.571 68.4743 193.064 65.9685 189.978 65.9685Z" fill="white"/>
<path d="M189.978 63.7364C185.66 63.7364 182.153 67.2407 182.153 71.5591H186.617C186.617 69.7079 188.123 68.2006 189.978 68.2006V63.7364ZM182.153 71.5591C182.153 75.8776 185.66 79.3819 189.978 79.3819V74.9176C188.123 74.9176 186.617 73.4104 186.617 71.5591H182.153ZM189.978 79.3819C194.296 79.3819 197.803 75.8776 197.803 71.5591H193.338C193.338 73.4104 191.832 74.9176 189.978 74.9176V79.3819ZM197.803 71.5591C197.803 67.2407 194.296 63.7364 189.978 63.7364V68.2006C191.832 68.2006 193.338 69.7079 193.338 71.5591H197.803Z" fill="#045996"/>
<path d="M245.649 104.9L242.074 104.294C241.701 103.092 241.222 101.932 240.637 100.826L242.744 97.8802C243.638 96.6251 243.499 94.9128 242.404 93.8279L239.233 90.6584C238.637 90.0628 237.85 89.7331 237.009 89.7331C236.349 89.7331 235.722 89.9351 235.189 90.318L232.232 92.424C231.082 91.8177 229.88 91.3178 228.635 90.9456L228.039 87.4144C227.784 85.8935 226.475 84.7874 224.932 84.7874H220.453C218.91 84.7874 217.601 85.8935 217.346 87.4144L216.729 91.0306C215.537 91.4029 214.377 91.8922 213.271 92.4878L210.345 90.3819C209.813 89.999 209.174 89.7969 208.515 89.7969C207.674 89.7969 206.876 90.1266 206.291 90.7222L203.11 93.8917C202.024 94.9766 201.875 96.689 202.769 97.944L204.897 100.933C204.312 102.049 203.844 103.209 203.482 104.411L199.949 105.006C198.428 105.262 197.321 106.57 197.321 108.112V112.59C197.321 114.132 198.428 115.44 199.949 115.695L203.567 116.312C203.939 117.503 204.429 118.663 205.025 119.769L202.929 122.683C202.035 123.938 202.173 125.651 203.269 126.735L206.44 129.905C207.036 130.501 207.823 130.83 208.664 130.83C209.323 130.83 209.951 130.628 210.483 130.245L213.473 128.118C214.548 128.682 215.676 129.139 216.835 129.501L217.431 133.074C217.686 134.595 218.995 135.702 220.538 135.702H225.028C226.571 135.702 227.88 134.595 228.135 133.074L228.742 129.501C229.944 129.129 231.104 128.65 232.21 128.065L235.158 130.171C235.69 130.554 236.328 130.756 236.988 130.756C237.828 130.756 238.616 130.426 239.211 129.831L242.382 126.661C243.468 125.576 243.616 123.864 242.723 122.609L240.616 119.652C241.201 118.535 241.691 117.376 242.052 116.185L245.627 115.589C247.149 115.334 248.256 114.026 248.256 112.483V108.006C248.277 106.463 247.17 105.155 245.649 104.9Z" fill="#C8E3F2"/>
<path d="M245.649 104.9L245.273 107.118L245.276 107.119L245.649 104.9ZM242.074 104.294L239.924 104.96L240.334 106.281L241.697 106.512L242.074 104.294ZM240.637 100.826L238.807 99.5176L237.998 100.649L238.648 101.879L240.637 100.826ZM242.744 97.8802L244.574 99.1889L244.577 99.1854L242.744 97.8802ZM242.404 93.8279L240.813 95.4192L240.821 95.4269L242.404 93.8279ZM239.233 90.6584L240.823 89.0671L239.233 90.6584ZM235.189 90.318L236.494 92.151L236.504 92.1442L235.189 90.318ZM232.232 92.424L231.182 94.414L232.407 95.0607L233.536 94.2569L232.232 92.424ZM228.635 90.9456L226.417 91.3199L226.649 92.7002L227.991 93.1012L228.635 90.9456ZM228.039 87.4144L225.82 87.787L225.821 87.7888L228.039 87.4144ZM217.346 87.4144L219.564 87.7929L219.565 87.787L217.346 87.4144ZM216.729 91.0306L217.4 93.1783L218.715 92.7674L218.947 91.4091L216.729 91.0306ZM213.271 92.4878L211.956 94.314L213.098 95.1358L214.337 94.469L213.271 92.4878ZM210.345 90.3819L211.659 88.5557L210.345 90.3819ZM206.291 90.7222L207.879 92.3162L207.887 92.3077L207.896 92.2991L206.291 90.7222ZM203.11 93.8917L201.522 92.2977L201.519 92.3004L203.11 93.8917ZM202.769 97.944L204.602 96.639L204.602 96.6388L202.769 97.944ZM204.897 100.933L206.89 101.977L207.531 100.753L206.73 99.6277L204.897 100.933ZM203.482 104.411L203.856 106.629L205.234 106.397L205.636 105.059L203.482 104.411ZM199.949 105.006L200.322 107.225L200.323 107.225L199.949 105.006ZM199.949 115.695L200.328 113.477L200.322 113.476L199.949 115.695ZM203.567 116.312L205.715 115.641L205.303 114.326L203.945 114.094L203.567 116.312ZM205.025 119.769L206.851 121.083L207.673 119.941L207.006 118.702L205.025 119.769ZM202.929 122.683L201.102 121.369L201.096 121.378L202.929 122.683ZM203.269 126.735L204.86 125.144L204.852 125.136L203.269 126.735ZM206.44 129.905L204.849 131.496H204.849L206.44 129.905ZM210.483 130.245L209.179 128.412L209.169 128.419L210.483 130.245ZM213.473 128.118L214.518 126.126L213.295 125.484L212.169 126.285L213.473 128.118ZM216.835 129.501L219.055 129.131L218.827 127.765L217.505 127.353L216.835 129.501ZM217.431 133.074L215.212 133.445L215.212 133.447L217.431 133.074ZM228.135 133.074L225.917 132.698L225.916 132.702L228.135 133.074ZM228.742 129.501L228.076 127.351L226.755 127.761L226.523 129.124L228.742 129.501ZM232.21 128.065L233.518 126.234L232.387 125.426L231.159 126.076L232.21 128.065ZM235.158 130.171L236.472 128.345L236.466 128.34L235.158 130.171ZM239.211 129.831L240.802 131.422L239.211 129.831ZM242.382 126.661L240.792 125.07L242.382 126.661ZM242.723 122.609L244.555 121.304L244.555 121.303L242.723 122.609ZM240.616 119.652L238.623 118.608L237.981 119.832L238.784 120.958L240.616 119.652ZM242.052 116.185L241.683 113.965L240.305 114.195L239.899 115.531L242.052 116.185ZM245.627 115.589L245.997 117.808L246 117.808L245.627 115.589ZM248.256 108.006L246.006 107.975L246.006 107.99V108.006H248.256ZM246.025 102.682L242.45 102.075L241.697 106.512L245.273 107.118L246.025 102.682ZM244.223 103.628C243.81 102.295 243.278 101.007 242.626 99.7741L238.648 101.879C239.167 102.858 239.592 103.888 239.924 104.96L244.223 103.628ZM242.467 102.135L244.574 99.1889L240.914 96.5714L238.807 99.5176L242.467 102.135ZM244.577 99.1854C246.104 97.0414 245.874 94.0979 243.986 92.2289L240.821 95.4269C241.124 95.7277 241.172 96.2089 240.911 96.575L244.577 99.1854ZM243.994 92.2366L240.823 89.0671L237.642 92.2497L240.813 95.4192L243.994 92.2366ZM240.823 89.0671C239.811 88.055 238.454 87.4831 237.009 87.4831V91.9831C237.245 91.9831 237.463 92.0705 237.642 92.2497L240.823 89.0671ZM237.009 87.4831C235.88 87.4831 234.792 87.832 233.875 88.4918L236.504 92.1442C236.651 92.0383 236.819 91.9831 237.009 91.9831V87.4831ZM233.885 88.4851L230.927 90.591L233.536 94.2569L236.494 92.151L233.885 88.4851ZM233.281 90.4339C232.011 89.7637 230.673 89.2066 229.28 88.7899L227.991 93.1012C229.087 93.429 230.154 93.8717 231.182 94.414L233.281 90.4339ZM230.854 90.5712L230.258 87.0401L225.821 87.7888L226.417 91.3199L230.854 90.5712ZM230.258 87.0419C229.821 84.4358 227.573 82.5374 224.932 82.5374V87.0374C225.378 87.0374 225.747 87.3512 225.82 87.787L230.258 87.0419ZM224.932 82.5374H220.453V87.0374H224.932V82.5374ZM220.453 82.5374C217.813 82.5374 215.565 84.4358 215.127 87.0419L219.565 87.787C219.638 87.3512 220.007 87.0374 220.453 87.0374V82.5374ZM215.128 87.0359L214.511 90.6521L218.947 91.4091L219.564 87.7929L215.128 87.0359ZM216.058 88.883C214.728 89.2986 213.436 89.8439 212.204 90.5065L214.337 94.469C215.319 93.9404 216.347 93.5073 217.4 93.1783L216.058 88.883ZM214.585 90.6616L211.659 88.5557L209.03 92.2081L211.956 94.314L214.585 90.6616ZM211.659 88.5557C210.736 87.8912 209.636 87.5469 208.515 87.5469V92.0469C208.713 92.0469 208.89 92.1067 209.03 92.2081L211.659 88.5557ZM208.515 87.5469C207.082 87.5469 205.702 88.1111 204.686 89.1453L207.896 92.2991C208.05 92.142 208.266 92.0469 208.515 92.0469V87.5469ZM204.703 89.1282L201.522 92.2977L204.698 95.4857L207.879 92.3162L204.703 89.1282ZM201.519 92.3004C199.66 94.1585 199.402 97.0949 200.936 99.2492L204.602 96.6388C204.348 96.2831 204.388 95.7947 204.7 95.483L201.519 92.3004ZM200.936 99.249L203.064 102.238L206.73 99.6277L204.602 96.639L200.936 99.249ZM202.904 99.8884C202.25 101.136 201.729 102.429 201.327 103.762L205.636 105.059C205.959 103.989 206.374 102.963 206.89 101.977L202.904 99.8884ZM203.108 102.192L199.575 102.788L200.323 107.225L203.856 106.629L203.108 102.192ZM199.577 102.787C196.972 103.224 195.071 105.471 195.071 108.112H199.571C199.571 107.669 199.884 107.299 200.322 107.225L199.577 102.787ZM195.071 108.112V112.59H199.571V108.112H195.071ZM195.071 112.59C195.071 115.231 196.972 117.477 199.577 117.914L200.322 113.476C199.884 113.403 199.571 113.033 199.571 112.59H195.071ZM199.571 117.913L203.189 118.53L203.945 114.094L200.328 113.477L199.571 117.913ZM201.42 116.984C201.835 118.314 202.381 119.605 203.044 120.836L207.006 118.702C206.477 117.72 206.044 116.693 205.715 115.641L201.42 116.984ZM203.198 118.455L201.102 121.369L204.755 123.997L206.851 121.083L203.198 118.455ZM201.096 121.378C199.569 123.522 199.798 126.466 201.686 128.335L204.852 125.136C204.548 124.836 204.501 124.354 204.761 123.988L201.096 121.378ZM201.678 128.327L204.849 131.496L208.031 128.314L204.86 125.144L201.678 128.327ZM204.849 131.496C205.862 132.508 207.219 133.08 208.664 133.08V128.58C208.427 128.58 208.21 128.493 208.031 128.314L204.849 131.496ZM208.664 133.08C209.793 133.08 210.881 132.731 211.797 132.072L209.169 128.419C209.022 128.525 208.854 128.58 208.664 128.58V133.08ZM211.787 132.079L214.777 129.951L212.169 126.285L209.179 128.412L211.787 132.079ZM212.428 130.111C213.632 130.743 214.887 131.25 216.166 131.649L217.505 127.353C216.464 127.028 215.463 126.621 214.518 126.126L212.428 130.111ZM214.616 129.871L215.212 133.445L219.65 132.704L219.055 129.131L214.616 129.871ZM215.212 133.447C215.65 136.053 217.898 137.952 220.538 137.952V133.452C220.093 133.452 219.723 133.138 219.65 132.702L215.212 133.447ZM220.538 137.952H225.028V133.452H220.538V137.952ZM225.028 137.952C227.668 137.952 229.916 136.053 230.354 133.447L225.916 132.702C225.843 133.138 225.474 133.452 225.028 133.452V137.952ZM230.353 133.451L230.96 129.877L226.523 129.124L225.917 132.698L230.353 133.451ZM229.407 131.65C230.74 131.238 232.029 130.706 233.262 130.054L231.159 126.076C230.178 126.594 229.148 127.02 228.076 127.351L229.407 131.65ZM230.902 129.896L233.85 132.002L236.466 128.34L233.518 126.234L230.902 129.896ZM233.843 131.997C234.766 132.662 235.867 133.006 236.988 133.006V128.506C236.789 128.506 236.613 128.446 236.472 128.345L233.843 131.997ZM236.988 133.006C238.432 133.006 239.79 132.434 240.802 131.422L237.621 128.239C237.442 128.418 237.224 128.506 236.988 128.506V133.006ZM240.802 131.422L243.973 128.252L240.792 125.07L237.621 128.239L240.802 131.422ZM243.973 128.252C245.832 126.394 246.09 123.458 244.555 121.304L240.89 123.914C241.143 124.27 241.103 124.758 240.792 125.07L243.973 128.252ZM244.555 121.303L242.448 118.346L238.784 120.958L240.89 123.914L244.555 121.303ZM242.609 120.696C243.251 119.47 243.798 118.18 244.205 116.838L239.899 115.531C239.583 116.571 239.151 117.6 238.623 118.608L242.609 120.696ZM242.422 118.404L245.997 117.808L245.258 113.37L241.683 113.965L242.422 118.404ZM246 117.808C248.605 117.371 250.506 115.124 250.506 112.483H246.006C246.006 112.927 245.693 113.297 245.255 113.37L246 117.808ZM250.506 112.483V108.006H246.006V112.483H250.506ZM250.505 108.037C250.542 105.368 248.622 103.117 246.021 102.681L245.276 107.119C245.718 107.193 246.012 107.559 246.006 107.975L250.505 108.037Z" fill="#045996"/>
<path d="M223.143 102.466C219.045 102.466 215.715 105.794 215.715 109.891C215.715 113.988 219.045 117.316 223.143 117.316C227.242 117.316 230.571 113.988 230.571 109.891C230.571 105.794 227.242 102.466 223.143 102.466Z" fill="white"/>
<path d="M223.143 100.234C217.813 100.234 213.483 104.56 213.483 109.891H217.947C217.947 107.028 220.277 104.698 223.143 104.698V100.234ZM213.483 109.891C213.483 115.222 217.813 119.548 223.143 119.548V115.084C220.277 115.084 217.947 112.754 217.947 109.891H213.483ZM223.143 119.548C228.474 119.548 232.803 115.222 232.803 109.891H228.339C228.339 112.754 226.01 115.084 223.143 115.084V119.548ZM232.803 109.891C232.803 104.56 228.474 100.234 223.143 100.234V104.698C226.01 104.698 228.339 107.028 228.339 109.891H232.803Z" fill="#045996"/>
<path d="M330.95 50.3003C329.014 50.3003 327.441 51.8727 327.441 53.8084C327.441 55.7442 329.014 57.3166 330.95 57.3166C332.887 57.3166 334.46 55.7442 334.46 53.8084C334.46 51.8727 332.887 50.3003 330.95 50.3003Z" fill="#E6F3FF"/>
<path d="M382.081 179.393C380.145 179.393 378.572 180.965 378.572 182.901C378.572 184.837 380.145 186.409 382.081 186.409C384.018 186.409 385.591 184.837 385.591 182.901C385.591 180.965 384.018 179.393 382.081 179.393Z" fill="#E6F3FF"/>
<path d="M373.152 251.686C371.216 251.686 369.643 253.258 369.643 255.194C369.643 257.129 371.216 258.702 373.152 258.702C375.089 258.702 376.662 257.129 376.662 255.194C376.662 253.258 375.089 251.686 373.152 251.686Z" fill="#E6F3FF"/>
<path d="M241.902 298.095C239.966 298.095 238.393 299.668 238.393 301.603C238.393 303.539 239.966 305.112 241.902 305.112C243.839 305.112 245.412 303.539 245.412 301.603C245.412 299.668 243.839 298.095 241.902 298.095Z" fill="#E6F3FF"/>
<path d="M258.867 318.623C256.93 318.623 255.357 320.196 255.357 322.131C255.357 324.067 256.93 325.64 258.867 325.64C260.804 325.64 262.377 324.067 262.377 322.131C262.377 320.196 260.804 318.623 258.867 318.623Z" fill="#E6F3FF"/>
<path d="M38.3303 319.516C36.3938 319.516 34.8208 321.088 34.8208 323.024C34.8208 324.96 36.3938 326.532 38.3303 326.532C40.2669 326.532 41.8399 324.96 41.8399 323.024C41.8399 321.088 40.2669 319.516 38.3303 319.516Z" fill="#E6F3FF"/>
<path d="M12.4378 199.028C10.5012 199.028 8.92822 200.6 8.92822 202.536C8.92822 204.472 10.5012 206.044 12.4378 206.044C14.3743 206.044 15.9473 204.472 15.9473 202.536C15.9473 200.6 14.3743 199.028 12.4378 199.028Z" fill="#E6F3FF"/>
<path d="M90.117 36.5928C88.1804 36.5928 86.6074 38.1652 86.6074 40.1009C86.6074 42.0367 88.1804 43.609 90.117 43.609C92.0535 43.609 93.6265 42.0367 93.6265 40.1009C93.6265 38.1652 92.0535 36.5928 90.117 36.5928Z" fill="#E6F3FF"/>
<path d="M106.187 22.3127C104.251 22.3127 102.678 23.8851 102.678 25.8209C102.678 27.7566 104.251 29.329 106.187 29.329C108.124 29.329 109.697 27.7566 109.697 25.8209C109.697 23.8851 108.124 22.3127 106.187 22.3127Z" fill="#E6F3FF"/>
<path d="M229.72 318.112V335.899H245.537H243.56V329.97L229.72 322.065" fill="#50A7E6"/>
<path d="M229.72 318.112V335.899H245.537H243.56V329.97L229.72 322.065" stroke="#045996" stroke-width="3" stroke-miterlimit="10" stroke-linecap="round" stroke-linejoin="round"/>
<path d="M176.052 341.828C182.058 341.828 186.926 336.961 186.926 330.958C186.926 324.955 182.058 320.089 176.052 320.089C170.047 320.089 165.179 324.955 165.179 330.958C165.179 336.961 170.047 341.828 176.052 341.828Z" fill="#F5FAFF" stroke="#045996" stroke-width="3" stroke-miterlimit="10" stroke-linecap="round" stroke-linejoin="round"/>
<path d="M176.052 335.899C178.782 335.899 180.995 333.687 180.995 330.958C180.995 328.229 178.782 326.017 176.052 326.017C173.323 326.017 171.11 328.229 171.11 330.958C171.11 333.687 173.323 335.899 176.052 335.899Z" stroke="#045996" stroke-width="3" stroke-miterlimit="10" stroke-linecap="round" stroke-linejoin="round"/>
<path d="M215.594 341.828C221.599 341.828 226.468 336.961 226.468 330.958C226.468 324.955 221.599 320.089 215.594 320.089C209.589 320.089 204.72 324.955 204.72 330.958C204.72 336.961 209.589 341.828 215.594 341.828Z" fill="#F5FAFF" stroke="#045996" stroke-width="3" stroke-miterlimit="10" stroke-linecap="round" stroke-linejoin="round"/>
<path d="M215.593 335.899C218.323 335.899 220.536 333.687 220.536 330.958C220.536 328.229 218.323 326.017 215.593 326.017C212.863 326.017 210.65 328.229 210.65 330.958C210.65 333.687 212.863 335.899 215.593 335.899Z" stroke="#045996" stroke-width="3" stroke-miterlimit="10" stroke-linecap="round" stroke-linejoin="round"/>
<path d="M216.072 312.184L212.628 286.493H177.041V312.184H169.133V322.639" stroke="#045996" stroke-width="3" stroke-miterlimit="10" stroke-linecap="round" stroke-linejoin="round"/>
<path d="M226.468 330.225V316.927C226.468 314.358 224.293 312.184 221.723 312.184H212.628" stroke="#045996" stroke-width="2.96556" stroke-miterlimit="10" stroke-linecap="round" stroke-linejoin="round"/>
<path d="M212.628 292.421H204.72V304.279H214.605" fill="white"/>
<path d="M212.628 292.421H204.72V304.279H214.605" stroke="#045996" stroke-width="3" stroke-miterlimit="10" stroke-linecap="round" stroke-linejoin="round"/>
<path d="M204.018 334.911H187.946" stroke="#045996" stroke-width="2.96556" stroke-miterlimit="10" stroke-linecap="round" stroke-linejoin="round"/>
<path d="M198.788 316.136H186.925L182.971 312.184V292.421H198.788V316.136Z" fill="white" stroke="#045996" stroke-width="2.96556" stroke-miterlimit="10" stroke-linecap="round" stroke-linejoin="round"/>
<mask id="path-55-inside-1" fill="white">
<rect x="276.786" y="276.785" width="20.5357" height="69.6429" rx="2.67857"/>
</mask>
<rect x="276.786" y="276.785" width="20.5357" height="69.6429" rx="2.67857" fill="#E6F3FF" stroke="#045996" stroke-width="6" mask="url(#path-55-inside-1)"/>
<mask id="path-56-inside-2" fill="white">
<rect x="269.643" y="295.535" width="33.9286" height="33.0357" rx="2.67857"/>
</mask>
<rect x="269.643" y="295.535" width="33.9286" height="33.0357" rx="2.67857" fill="white" stroke="#045996" stroke-width="6" mask="url(#path-56-inside-2)"/>
<path d="M275.893 314.732H279.911L283.929 304.91L287.054 320.535L290.179 312.946H297.322" stroke="#045996" stroke-width="2" stroke-linecap="round"/>
<rect x="91.6787" y="286.321" width="32.7143" height="51.4643" rx="2.07143" fill="#E6F3FF" stroke="#045996" stroke-width="3"/>
<rect x="95.5356" y="293.75" width="25" height="33.9286" rx="1.78571" fill="white"/>
<path fill-rule="evenodd" clip-rule="evenodd" d="M108.036 299.88C103.106 299.88 99.1074 303.657 99.1074 308.314C99.1074 314.64 108.036 323.978 108.036 323.978C108.036 323.978 116.965 314.64 116.965 308.314C116.965 303.657 112.966 299.88 108.036 299.88ZM108.036 311.326C106.276 311.326 104.847 309.977 104.847 308.314C104.847 306.652 106.276 305.302 108.036 305.302C109.796 305.302 111.225 306.652 111.225 308.314C111.225 309.977 109.796 311.326 108.036 311.326Z" fill="#50A7E6" stroke="#045996" stroke-width="2"/>
<line x1="103.572" y1="291.071" x2="112.5" y2="291.071" stroke="#045996" stroke-width="1.78571" stroke-linecap="round"/>
<circle cx="108.036" cy="332.143" r="1.78571" fill="#045996"/>
<defs>
<linearGradient id="paint0_linear" x1="200.562" y1="12.9458" x2="200.563" y2="352" gradientUnits="userSpaceOnUse">
<stop stop-color="#F5FAFF"/>
<stop offset="0.21875" stop-color="#F5FAFF" stop-opacity="0.78125"/>
<stop offset="1" stop-color="#F5FAFF" stop-opacity="0"/>
</linearGradient>
</defs>
</svg>
