<?xml version="1.0" encoding="utf-8"?>
<!-- Generator: Adobe Illustrator 26.0.1, SVG Export Plug-In . SVG Version: 6.00 Build 0)  -->
<svg version="1.1" id="Layer_1" xmlns="http://www.w3.org/2000/svg" xmlns:xlink="http://www.w3.org/1999/xlink" x="0px" y="0px"
	 viewBox="0 0 720 720" style="enable-background:new 0 0 720 720;" xml:space="preserve">
<style type="text/css">
	.st0{fill:url(#SVGID_1_);}
	.st1{fill:url(#SVGID_00000095321491330350106880000003468096351168503206_);}
	.st2{fill:url(#SVGID_00000123431753967011684690000012423199731050552199_);}
	.st3{fill:url(#SVGID_00000176007936255995722040000008587857572105871537_);}
	.st4{fill:url(#SVGID_00000102504309974763744490000001807884006684846218_);}
</style>
<linearGradient id="SVGID_1_" gradientUnits="userSpaceOnUse" x1="74.9002" y1="360.0077" x2="641.0905" y2="360.0077">
	<stop  offset="0.1222" style="stop-color:#0075BE"/>
	<stop  offset="0.249" style="stop-color:#1E9CD7"/>
	<stop  offset="0.4218" style="stop-color:#0C76B2"/>
	<stop  offset="0.7067" style="stop-color:#015E9A"/>
	<stop  offset="0.9944" style="stop-color:#005B97"/>
	<stop  offset="1" style="stop-color:#CCE0F4"/>
</linearGradient>
<path class="st0" d="M114.9,391.5c-21.6-5.8-37-19.4-38.8-42.3c-1-12.6,3.2-26.3,7.8-38.4c3.6-9.4,3.8-16.5-1.2-25
	c-6.4-10.8-9.6-22.7-6.9-35.5c4.5-21.5,18.2-34.1,39.1-39.6c0.6-8.4,0.5-16.7,1.8-24.8c6.5-40.7,38.8-63.8,67.2-62
	c2.7,0.2,6.7-3.3,8.3-6.2c15.3-26,45.8-36.6,72.3-24.3c21.8,10.1,32.3,27.9,32.3,51.9c0.1,40.7,0,81.3,0,122c0,3.5,0,7,0,11.1
	c13.2-5.6,17.5-13.7,17.1-27c-1.1-35-0.4-70-0.3-105c0.1-28.1,15.8-49.7,40.6-56.1c25.7-6.6,50.2,4.3,64.5,28.1
	c1.6,2.7,5.8,5.4,8.8,5.5c29,0.5,48.6,15.6,59.6,41c5.9,13.7,7.4,29.3,10.9,44c-0.9,0.4-1.8,0.8-2.6,1.2c2.1,0.8,4.1,1.6,6.3,2.3
	c27.8,9.2,42.4,38.4,29.7,64.9c-7.5,15.6-7.1,28-0.7,43.7c11.5,28.3,3.9,47.7-21.4,65.2c-2.1,1.5-3.7,4.4-4.7,7
	c-5.5,15.6-10.8,31.2-17.1,49.7c10.9,10.8,21.8,28.8,37.6,35.8c38.3,17,57.8,53.4,88.2,78.1c7.7,6.3,14.3,13.9,21.2,21.1
	c8.6,9,8.6,17.1-0.1,26.2c-7.2,7.4-14.4,14.8-21.9,21.9c-8.2,7.7-16.7,7.9-24.7,0c-30.4-30.3-60.7-60.7-91-91.2
	c-2-2.1-4.9-5-4.7-7.4c0.7-11.5-8-16.6-14.4-23.5c-8.8-9.5-17.4-19.3-26.2-29.1c-19.9,10.7-37.4,19.8-54.5,29.5
	c-24.8,14.1-55.6,7.3-73.2-15.4c-7.3-9.5-16.8-17.2-26.4-26.9c-1.6,5.3-2.4,8.1-3.4,10.8c-8,22.5-23.7,36.4-47.4,38.6
	c-23.6,2.2-42.1-8-53.9-28.7c-3.2-5.6-5.9-7.9-12.7-7.8c-31.3,0.4-58.2-25.7-63.4-60.7C115.7,406.7,115.5,399.4,114.9,391.5z
	 M118.7,226.9c-22,4.6-33.2,24.1-25.8,43.9c2.5,6.8,7.1,13,8.9,20c1.4,5.6,1,12.1-0.5,17.7c-2.5,9.3-7.4,17.9-9.7,27.2
	c-4.6,18.6,8.4,36.9,27.2,39.1c4.3-18.1,15.4-30.4,32.3-35.8c0-8.3-0.9-15.8,0.4-22.7c0.6-3.2,5.8-5.5,8.9-8.3
	c2.1,3.3,6.1,6.7,5.8,9.8c-1.3,18.4,5.1,31,23.3,36.9c2.5,0.8,3.7,5.9,5.5,9.1c-3.4,1.8-7.6,5.8-10.1,4.9c-7-2.5-14.1-6-19.8-10.8
	c-5-4.3-9.5-5.5-14.1-1.9c-5.4,4.1-12,8.7-14.1,14.6c-8.1,22.8-9.2,45.8,5.3,66.9c11.3,16.3,26.4,25.3,46.9,20.6
	c7.8-1.8,11.4,0.9,13.7,8.6c4.5,15.3,15.1,25,30.7,28.2c16.6,3.4,30.7-2,40-16c9-13.3,11.9-27.3,2.4-42.8
	c-6.5-10.6-11.1-22.8-14.5-34.8c-2.4-8.3-6.3-9-12.8-7c-2.2,0.7-4.3,2.6-6.4,2.5c-3.8-0.2-7.6-1.5-11.3-2.3
	c1.5-3.8,2.1-9.6,4.9-11.1c6.5-3.5,14-5,21.8-7.5c-0.5-23.9,4.3-47,17.4-67.4c5.7-8.9,3.3-14.2-3.7-19.1
	c-6.5-4.6-13.2-10.9-21.6-1.7c-3.7,4-9.1,6.6-14.2,8.9c-5.1,2.4-11.6,4.7-14.6-2.5c-3.1-7.4,2.8-9.5,8.5-11.7
	c13.8-5.2,20.4-15.9,18.9-30.2c-2.7-0.9-5.7-1.6-8.4-2.7c-16.7-6.9-27.1-18.9-29.6-37.1c-0.7-5.3-1.3-11.5,6-12.6
	c7.4-1.2,8.4,4.4,9.2,10.1c1.8,13.7,9.8,22.4,22.9,25.9c16.2,4.3,17.5,5.8,16,22.9c-0.3,2.9-0.6,5.9-1,8.9c5.8,2.8,11.4,5.4,16.9,8
	c0.6-1.2,1.1-1.8,1.1-2.3c0.1-43.7,0.4-87.3-0.1-131c-0.2-18.6-12.2-32.5-29.4-37.1c-21.2-5.6-42,6.1-49.2,28.1
	c-2.1,6.3-4.4,10.1-11.9,8.4c-19.6-4.5-36.2,2.2-48.1,19.6c-14.9,21.7-14.2,45.3-6.1,68.8c2.1,6.2,9.1,10.9,14.6,15.5
	c4.2,3.5,8.3,2.6,13-1.6c5.8-5.1,13.1-9,20.3-11.8c2.4-0.9,6.8,3,10.2,4.7c-1.8,3.1-2.8,8.1-5.4,9.1c-17.6,6.6-24.4,19-23.4,37.3
	c0.2,3.1-4,6.4-6.1,9.7c-3-2.8-8-5.3-8.7-8.6c-1.4-6.6-0.4-13.8-0.4-21.7C135,256.9,123.5,245.3,118.7,226.9z M439.1,258.6
	c0.3-0.4,0.7-0.7,1-1.1c-6.2-3.7-12.9-6.8-18.6-11.2c-2.8-2.1-3.8-6.5-5.6-9.9c3.3-1.5,7.4-5,9.7-4.1c7.5,3,15.2,6.8,21.3,12
	c4.8,4.1,8.4,4.2,13.2,1.6c8.7-4.7,14.1-11.9,16.1-21.7c1.1-5.5,2.5-11.1,3-16.7c2-23.4-5-43.5-23.4-58.6
	c-9.1-7.5-20.2-11.8-31.6-8.3c-11,3.4-14.5-0.3-17.7-10.2c-5.8-18.1-24.6-28.7-43.4-26.2c-18.6,2.5-33.3,17.1-33.7,36.3
	c-0.8,38.3-0.2,76.6-0.1,114.9c0,0.5,0.7,1,1.4,2c7-3,16.4-2.3,16.8-14.4c0.1-2.3,6.6-5.6,10.5-6.3c11.4-1.9,20-7.1,24.7-17.8
	c1.6-3.6,1.1-8.1,3-11.5c1.8-3.2,5.3-5.3,8.1-7.9c2.3,3.1,6.9,6.8,6.4,9.3c-2,8.9-5.1,17.7-9.2,25.8c-2.1,4.3-7,7.2-9.9,10
	C400.9,249.5,420,254,439.1,258.6z M383,481.2c60.1-1.2,109.5-52.3,108.1-111.9c-1.4-59.4-51.6-107.6-110.9-106.8
	c-59.8,0.9-108.1,50.5-107.3,110.1C273.7,432.9,323.9,482.3,383,481.2z M623.7,592.1c-31.2-31.4-62-62.4-92-92.5
	c-7.4,7.3-15.5,15.4-22.7,22.5c30.5,30.5,61.3,61.5,92.1,92.3C608.4,607.1,616.4,599.2,623.7,592.1z M492.2,226.7
	c-4.4,17.8-15.1,30.5-35.5,37.4c4.3,6.9,6.9,13.3,11.3,17.7c19.4,19.4,32.1,42.1,36.8,69.2c0.9,5.4,1.4,10.9,2.2,16.9
	c12.6-9.3,17.5-22.7,10.1-38.5c-9.6-20.6-11.1-38.5,0.4-59.5C527.5,251.4,513.8,230.7,492.2,226.7z M513.8,492.9
	c-13.5-13.5-25.8-25.9-37.2-37.3c-4.2,3.3-9,7.1-14.2,11.2c7.1,7,13.4,13.3,19.8,19.6c6.3,6.2,12.6,12.3,18.8,18.4
	C506,500,510.1,496.2,513.8,492.9z"/>
<linearGradient id="SVGID_00000026851699778008407460000010931312271038098826_" gradientUnits="userSpaceOnUse" x1="178.7841" y1="157.7693" x2="237.7567" y2="157.7693">
	<stop  offset="0.1222" style="stop-color:#0075BE"/>
	<stop  offset="0.249" style="stop-color:#1E9CD7"/>
	<stop  offset="0.4218" style="stop-color:#0C76B2"/>
	<stop  offset="0.7067" style="stop-color:#015E9A"/>
	<stop  offset="0.9944" style="stop-color:#005B97"/>
	<stop  offset="1" style="stop-color:#CCE0F4"/>
</linearGradient>
<path style="fill:url(#SVGID_00000026851699778008407460000010931312271038098826_);" d="M190.6,180.8c-1.3-0.1-4.2,0.5-5.7-0.8
	c-2.7-2.2-5.8-5.4-6.1-8.4c-0.2-1.9,4.7-6.2,7.1-6.1c19.7,1,32.1-7.4,38.3-26.2c0.8-2.3,6.1-3.1,9.4-4.6c1.5,3.6,4.7,7.5,4.1,10.8
	C234.3,165.1,213.1,181,190.6,180.8z"/>
<linearGradient id="SVGID_00000163050492746181135020000013576971577516266164_" gradientUnits="userSpaceOnUse" x1="373.4284" y1="157.4575" x2="432.3656" y2="157.4575">
	<stop  offset="0.1222" style="stop-color:#0075BE"/>
	<stop  offset="0.249" style="stop-color:#1E9CD7"/>
	<stop  offset="0.4218" style="stop-color:#0C76B2"/>
	<stop  offset="0.7067" style="stop-color:#015E9A"/>
	<stop  offset="0.9944" style="stop-color:#005B97"/>
	<stop  offset="1" style="stop-color:#CCE0F4"/>
</linearGradient>
<path style="fill:url(#SVGID_00000163050492746181135020000013576971577516266164_);" d="M417.6,180.8
	c-20.7-0.7-37.8-13.7-42.9-32.2c-1.5-5.6-3.1-12,4.4-14.1c7-2,8.6,3.8,10.4,9.1c4.4,13.6,14.8,21.5,28.8,21.8
	c6.1,0.1,14.4-2.2,14,7.5C432,182.7,423,179.9,417.6,180.8z"/>
<linearGradient id="SVGID_00000023247589167061324680000007478183147849073560_" gradientUnits="userSpaceOnUse" x1="292.5832" y1="371.2628" x2="470.3656" y2="371.2628">
	<stop  offset="0.1222" style="stop-color:#0075BE"/>
	<stop  offset="0.249" style="stop-color:#1E9CD7"/>
	<stop  offset="0.4218" style="stop-color:#0C76B2"/>
	<stop  offset="0.7067" style="stop-color:#015E9A"/>
	<stop  offset="0.9944" style="stop-color:#005B97"/>
	<stop  offset="1" style="stop-color:#CCE0F4"/>
</linearGradient>
<path style="fill:url(#SVGID_00000023247589167061324680000007478183147849073560_);" d="M352.1,304.1c-0.9-3.2-1.6-5.7-2.2-8.2
	c-2-7.7,1.3-11.6,9-11.6c15.3-0.1,30.6-0.1,45.9,0c5.9,0,11.1,3.4,8.8,9c-4.6,11.6,3,14.3,10.5,17.8c0.6-0.2,1.4-0.2,1.8-0.6
	c12.7-12.2,14-12,23,3.2c6.2,10.6,12.6,21.2,18.7,31.9c5,8.9,3.7,13.1-5.8,15.4c-5.9,1.5-8.1,3.7-8,10c0.1,6,1.6,8.8,7.7,10.3
	c9.7,2.4,11.2,6.5,6.3,15.2c-6.7,11.9-13.7,23.6-20.7,35.3c-6.5,10.8-9.9,11.2-18.8,2.2c-0.9-0.9-1.9-1.8-3.4-3.1
	c-4.3,2.4-8.5,4.8-12.5,7c-0.3,1.1-0.7,1.8-0.6,2.3c3.8,17,3,18-14.8,18c-11.6,0-23.3,0.1-34.9,0c-12.5-0.1-14.4-2.8-11-15.3
	c0.3-1.2,0.6-2.5,1-4.4c-4.3-2.5-8.6-5-13.2-7.7c-2,1.9-4,3.6-5.8,5.5c-6,6-11,5.2-15.2-2c-7.1-12-14.2-24.1-21.3-36.1
	c-6.4-11-5.2-13.9,7.1-17.6c1.6-0.5,3.1-1,4.8-1.5c2-9.2,3-17-9.7-19c-5.9-0.9-7.7-6.2-4.6-11.7c7.9-13.9,16-27.7,24.2-41.3
	c3.7-6.2,8.7-6.8,13.9-1.6c1.9,1.9,3.5,4,5.7,6.4C342.9,309.2,347.3,306.7,352.1,304.1z M327.1,420c7.4-10.4,14.1-9,21.4-1.8
	c2.8,2.7,6.6,4.7,10.3,5.9c9,2.9,13.6,7.9,9.5,18.1c9.2,0,17.6,0,27.2,0c-5.1-10.6,0.2-15,8.7-17.8c3.4-1.1,7.1-2.8,9.5-5.3
	c7.5-7.6,14.7-9.8,22.6,0.4c5-8.7,9.4-16.3,12.4-21.5c-4.5-5.4-11.3-10.4-10.5-13c4-12.7-10.9-31.2,12.1-37.8
	c-5-8.3-9.5-15.8-14.6-24c-7.2,9.8-13.7,9.1-20.7,1.8c-2.4-2.5-5.9-4.6-9.3-5.6c-9.6-2.8-15.1-7.8-11.2-18.6c-9.2,0-17.6,0-27.2,0
	c5.7,10.6,0.3,14.9-8.1,17.9c-3.7,1.3-7.6,3.1-10.3,5.8c-7.5,7.3-14.5,9-22-1.2c-5,8.5-9.4,16.2-14.7,25.3
	c14.1,0.4,14.4,8.5,12.5,18.1c-0.6,2.9-0.7,6.1,0,8.9c2.4,10.1,0.7,17.7-12,19.5C317.6,403.6,321.9,411,327.1,420z"/>
<linearGradient id="SVGID_00000157290923313863074220000006130798894665207219_" gradientUnits="userSpaceOnUse" x1="335.8408" y1="371.5833" x2="427.4553" y2="371.5833">
	<stop  offset="0.1222" style="stop-color:#0075BE"/>
	<stop  offset="0.249" style="stop-color:#1E9CD7"/>
	<stop  offset="0.4218" style="stop-color:#0C76B2"/>
	<stop  offset="0.7067" style="stop-color:#015E9A"/>
	<stop  offset="0.9944" style="stop-color:#005B97"/>
	<stop  offset="1" style="stop-color:#CCE0F4"/>
</linearGradient>
<path style="fill:url(#SVGID_00000157290923313863074220000006130798894665207219_);" d="M335.8,371.7c0.1-25.3,21.2-46.2,46.5-46.1
	c24.5,0.1,45.2,21.4,45.1,46.4c-0.1,24.7-21.4,45.8-46,45.5C356.1,417.1,335.7,396.7,335.8,371.7z M411.9,371.8
	c-0.1-16.7-14.2-30.9-30.3-30.7c-16.6,0.2-30.2,14.1-30.2,30.8c0,16.6,13.9,30.1,30.8,29.9C398.4,401.8,411.9,388,411.9,371.8z"/>
</svg>
