<?xml version="1.0" encoding="utf-8"?>
<!-- Generator: Adobe Illustrator 26.0.1, SVG Export Plug-In . SVG Version: 6.00 Build 0)  -->
<svg version="1.1" id="Layer_1" xmlns="http://www.w3.org/2000/svg" xmlns:xlink="http://www.w3.org/1999/xlink" x="0px" y="0px"
	 viewBox="0 0 720 720" style="enable-background:new 0 0 720 720;" xml:space="preserve">
<style type="text/css">
	.st0{fill:url(#SVGID_1_);}
	.st1{fill:url(#SVGID_00000016073327688575090760000003297192482195175089_);}
	.st2{fill:url(#SVGID_00000002363374983471616410000007678830520634956201_);}
	.st3{fill:url(#SVGID_00000166665381165252572260000016972794950111537578_);}
	.st4{fill:url(#SVGID_00000057107087881129800020000016118102051338287240_);}
	.st5{fill:url(#SVGID_00000080886396655521126690000000118545254660053894_);}
	.st6{fill:url(#SVGID_00000057147803666079584230000018216369480132566971_);}
	.st7{fill:url(#SVGID_00000030488819353367528180000001204166756076726206_);}
	.st8{fill:url(#SVGID_00000139255698424392983290000011804249231434106531_);}
	.st9{fill:url(#SVGID_00000145051146555934520010000003865628421332646060_);}
	.st10{fill:url(#SVGID_00000036223421709479659210000009591974349018047889_);}
	.st11{fill:url(#SVGID_00000042735152673796136990000000449741832076954518_);}
	.st12{fill:url(#SVGID_00000005255020106932234340000005757286037073075879_);}
	.st13{fill:url(#SVGID_00000180353496961040870680000006388148002977969303_);}
	.st14{fill:url(#SVGID_00000096741872196023215320000004760921028688246661_);}
	.st15{fill:url(#SVGID_00000008147637774925248910000010674131901320317369_);}
	.st16{fill:url(#SVGID_00000116207718416484129310000003419757755493064849_);}
	.st17{fill:url(#SVGID_00000139287312431063016670000002573011713610639022_);}
	.st18{fill:url(#SVGID_00000029047320466582485000000004101487789278865832_);}
	.st19{fill:url(#SVGID_00000124122499948867174990000005692322006423911308_);}
	.st20{fill:url(#SVGID_00000049923625799741009450000015025923194130514054_);}
</style>
<linearGradient id="SVGID_1_" gradientUnits="userSpaceOnUse" x1="26.7729" y1="406.9019" x2="414.2143" y2="406.9019">
	<stop  offset="2.551656e-02" style="stop-color:#1E9CD7"/>
	<stop  offset="0.405" style="stop-color:#0177BF"/>
	<stop  offset="0.5858" style="stop-color:#0075BE"/>
	<stop  offset="0.7737" style="stop-color:#0063A2"/>
	<stop  offset="0.9944" style="stop-color:#005B97"/>
</linearGradient>
<path class="st0" d="M414.2,322.9c0,9.3,0,18.2,0,27.4c-1.8,0-3.4,0-5,0c-99.4,0-198.7,0-298.1,0c-32.1,0-57.4,25.7-57,57.8
	c0.4,29.9,25.2,55,55.2,55.4c21.5,0.3,43,0.1,64.5,0.1c78.2,0,156.4,0,234.7,0c1.8,0,3.5,0,5.6,0c0,9.1,0,18.1,0,27.6
	c-1.3,0-2.7,0-4,0c-99.1,0-198.2,0-297.3,0c-43.6,0-78.3-29.1-85-71.1c-8.1-51.2,30.8-97.2,82.7-97.3c100.1-0.2,200.2-0.1,300.3-0.1
	C411.9,322.7,412.9,322.8,414.2,322.9z"/>
<linearGradient id="SVGID_00000138568556878718533320000010310047570877493163_" gradientUnits="userSpaceOnUse" x1="421.2807" y1="422.4124" x2="506.6803" y2="422.4124">
	<stop  offset="2.551656e-02" style="stop-color:#1E9CD7"/>
	<stop  offset="0.405" style="stop-color:#0177BF"/>
	<stop  offset="0.5858" style="stop-color:#0075BE"/>
	<stop  offset="0.7737" style="stop-color:#0063A2"/>
	<stop  offset="0.9944" style="stop-color:#005B97"/>
</linearGradient>
<path style="fill:url(#SVGID_00000138568556878718533320000010310047570877493163_);" d="M506.7,303.8c0,79.2,0,158.1,0,237.2
	c-28.5,0-56.9,0-85.4,0c0-79.1,0-158,0-237.2C449.7,303.8,478,303.8,506.7,303.8z"/>
<linearGradient id="SVGID_00000122691588130606634710000013321092232185589408_" gradientUnits="userSpaceOnUse" x1="513.7255" y1="406.9152" x2="706" y2="406.9152">
	<stop  offset="2.551656e-02" style="stop-color:#1E9CD7"/>
	<stop  offset="0.405" style="stop-color:#0177BF"/>
	<stop  offset="0.5858" style="stop-color:#0075BE"/>
	<stop  offset="0.7737" style="stop-color:#0063A2"/>
	<stop  offset="0.9944" style="stop-color:#005B97"/>
</linearGradient>
<path style="fill:url(#SVGID_00000122691588130606634710000013321092232185589408_);" d="M513.7,350.2c0-9.4,0-18.2,0-27.4
	c1.4-0.1,2.7-0.2,4.1-0.2c34.7,0,69.4-0.1,104.1,0c44.3,0.1,79.6,32.2,83.7,77c3.9,42.5-24.3,81-66.4,89.6
	c-5.7,1.2-11.7,1.7-17.6,1.8c-35.1,0.2-70.2,0.1-105.2,0.1c-0.7,0-1.5-0.1-2.5-0.1c0-9.1,0-18,0-27.5c1.5,0,2.9,0,4.4,0
	c34.4,0,68.9,0.1,103.3,0c27.6-0.1,50.2-18.5,55.9-45.3c7.4-34.4-19.4-67.7-54.6-67.9c-34.8-0.2-69.6,0-104.5,0
	C517,350.2,515.5,350.2,513.7,350.2z"/>
<linearGradient id="SVGID_00000033351054319820617320000001102110772319822211_" gradientUnits="userSpaceOnUse" x1="347.3286" y1="614.8846" x2="580.6623" y2="614.8846">
	<stop  offset="2.551656e-02" style="stop-color:#1E9CD7"/>
	<stop  offset="0.405" style="stop-color:#0177BF"/>
	<stop  offset="0.5858" style="stop-color:#0075BE"/>
	<stop  offset="0.7737" style="stop-color:#0063A2"/>
	<stop  offset="0.9944" style="stop-color:#005B97"/>
</linearGradient>
<path style="fill:url(#SVGID_00000033351054319820617320000001102110772319822211_);" d="M580.6,640.7c-77.8,0-155.2,0-232.9,0
	c-0.1-0.8-0.4-1.6-0.4-2.4c0-7.2-0.1-14.3,0-21.5c0.3-16,12.2-27.8,28.1-27.8c59,0,117.9,0,176.9,0c16,0,28.1,12.2,28.2,28.2
	C580.7,625,580.6,632.8,580.6,640.7z"/>
<linearGradient id="SVGID_00000118376408967825909450000008981579836556547258_" gradientUnits="userSpaceOnUse" x1="365.481" y1="262.4279" x2="525.2444" y2="262.4279">
	<stop  offset="2.551656e-02" style="stop-color:#1E9CD7"/>
	<stop  offset="0.405" style="stop-color:#0177BF"/>
	<stop  offset="0.5858" style="stop-color:#0075BE"/>
	<stop  offset="0.7737" style="stop-color:#0063A2"/>
	<stop  offset="0.9944" style="stop-color:#005B97"/>
</linearGradient>
<path style="fill:url(#SVGID_00000118376408967825909450000008981579836556547258_);" d="M456.2,296.7c-18.6,0-37.2,0-55.8,0
	c-19.7,0-34.9-15.1-34.9-34.4c0-19.2,15.2-34.2,34.7-34.2c37.9,0,75.7,0,113.6,0c8.6,0,11.4,2.8,11.4,11.6c0,15.2,0,30.4,0,45.6
	c0,8.5-2.9,11.4-11.3,11.4C494.7,296.7,475.5,296.7,456.2,296.7z M412.7,262.6c0.1-6.6-5.1-11.9-11.5-11.9
	c-6.2,0-11.4,5.3-11.4,11.6c-0.1,6.3,5.2,11.6,11.3,11.7C407.5,274,412.7,268.9,412.7,262.6z"/>
<linearGradient id="SVGID_00000053529577880751517880000015594803284701753994_" gradientUnits="userSpaceOnUse" x1="385.9848" y1="564.9854" x2="542.1125" y2="564.9854">
	<stop  offset="2.551656e-02" style="stop-color:#1E9CD7"/>
	<stop  offset="0.405" style="stop-color:#0177BF"/>
	<stop  offset="0.5858" style="stop-color:#0075BE"/>
	<stop  offset="0.7737" style="stop-color:#0063A2"/>
	<stop  offset="0.9944" style="stop-color:#005B97"/>
</linearGradient>
<path style="fill:url(#SVGID_00000053529577880751517880000015594803284701753994_);" d="M541.6,582c-51.7,0-103.4,0-155.1,0
	c-3.3-18.6,9.4-34,27.9-34.1c33.2,0,66.4-0.1,99.6,0C532,548,545,564,541.6,582z"/>
<linearGradient id="SVGID_00000178884819904031193640000009723202019250346890_" gradientUnits="userSpaceOnUse" x1="150.8454" y1="275.9692" x2="206.3787" y2="275.9692">
	<stop  offset="2.551656e-02" style="stop-color:#1E9CD7"/>
	<stop  offset="0.405" style="stop-color:#0177BF"/>
	<stop  offset="0.5858" style="stop-color:#0075BE"/>
	<stop  offset="0.7737" style="stop-color:#0063A2"/>
	<stop  offset="0.9944" style="stop-color:#005B97"/>
</linearGradient>
<path style="fill:url(#SVGID_00000178884819904031193640000009723202019250346890_);" d="M206.4,315.7c-18.7,0-36.9,0-55.5,0
	c0-1.4,0-2.7,0-3.9c0-22.1,0-44.3,0-66.4c0-6.8,2.3-9.1,9-9.1c12.6,0,25.2,0,37.7,0c6.5,0,8.8,2.3,8.8,8.9c0,22.3,0,44.5,0,66.8
	C206.4,313.1,206.4,314.2,206.4,315.7z"/>
<linearGradient id="SVGID_00000094603247097667541010000012519800662630977152_" gradientUnits="userSpaceOnUse" x1="304.0062" y1="176.1207" x2="393.5718" y2="176.1207">
	<stop  offset="2.551656e-02" style="stop-color:#1E9CD7"/>
	<stop  offset="0.405" style="stop-color:#0177BF"/>
	<stop  offset="0.5858" style="stop-color:#0075BE"/>
	<stop  offset="0.7737" style="stop-color:#0063A2"/>
	<stop  offset="0.9944" style="stop-color:#005B97"/>
</linearGradient>
<path style="fill:url(#SVGID_00000094603247097667541010000012519800662630977152_);" d="M304,137.5c11.8-5.2,19.7-13.8,24.4-26
	c21.9,37,43.4,73.5,65.2,110.2c-12.3,2.3-21.6,8.5-28.6,19C344.6,206.2,324.4,172.1,304,137.5z"/>
<linearGradient id="SVGID_00000152226653125654472160000002362377550908736690_" gradientUnits="userSpaceOnUse" x1="251.8916" y1="97.4507" x2="323.8954" y2="97.4507">
	<stop  offset="2.551656e-02" style="stop-color:#1E9CD7"/>
	<stop  offset="0.405" style="stop-color:#0177BF"/>
	<stop  offset="0.5858" style="stop-color:#0075BE"/>
	<stop  offset="0.7737" style="stop-color:#0063A2"/>
	<stop  offset="0.9944" style="stop-color:#005B97"/>
</linearGradient>
<path style="fill:url(#SVGID_00000152226653125654472160000002362377550908736690_);" d="M287.9,133.7c-20,0-36.1-16.2-36-36.4
	c0-20.2,16.1-36.3,36.2-36.2c19.8,0.1,35.7,16.1,35.8,36.2C324,117.5,307.9,133.7,287.9,133.7z M287.8,112
	c8.1,0.1,14.6-6.4,14.6-14.5c0-7.9-6.4-14.4-14.4-14.4c-8-0.1-14.5,6.2-14.6,14.2C273.3,105.4,279.7,112,287.8,112z"/>
<linearGradient id="SVGID_00000157992744982740781480000008150994232035901827_" gradientUnits="userSpaceOnUse" x1="599.4205" y1="569.3738" x2="620.5071" y2="569.3738">
	<stop  offset="2.551656e-02" style="stop-color:#1E9CD7"/>
	<stop  offset="0.405" style="stop-color:#0177BF"/>
	<stop  offset="0.5858" style="stop-color:#0075BE"/>
	<stop  offset="0.7737" style="stop-color:#0063A2"/>
	<stop  offset="0.9944" style="stop-color:#005B97"/>
</linearGradient>
<path style="fill:url(#SVGID_00000157992744982740781480000008150994232035901827_);" d="M599.4,498.1c7,0,13.9,0,21.1,0
	c0,47.4,0,94.9,0,142.6c-6.9,0-13.9,0-21.1,0C599.4,593.2,599.4,545.8,599.4,498.1z"/>
<linearGradient id="SVGID_00000023991247108984295550000010044149870137803167_" gradientUnits="userSpaceOnUse" x1="112.3357" y1="569.4549" x2="133.4807" y2="569.4549">
	<stop  offset="2.551656e-02" style="stop-color:#1E9CD7"/>
	<stop  offset="0.405" style="stop-color:#0177BF"/>
	<stop  offset="0.5858" style="stop-color:#0075BE"/>
	<stop  offset="0.7737" style="stop-color:#0063A2"/>
	<stop  offset="0.9944" style="stop-color:#005B97"/>
</linearGradient>
<path style="fill:url(#SVGID_00000023991247108984295550000010044149870137803167_);" d="M133.5,640.8c-7.1,0-14,0-21.1,0
	c0-47.6,0-95,0-142.7c7,0,14,0,21.1,0C133.5,545.7,133.5,593.2,133.5,640.8z"/>
<linearGradient id="SVGID_00000070116970214937122070000011709723194304988336_" gradientUnits="userSpaceOnUse" x1="268.4427" y1="406.8886" x2="340.8123" y2="406.8886">
	<stop  offset="2.551656e-02" style="stop-color:#1E9CD7"/>
	<stop  offset="0.405" style="stop-color:#0177BF"/>
	<stop  offset="0.5858" style="stop-color:#0075BE"/>
	<stop  offset="0.7737" style="stop-color:#0063A2"/>
	<stop  offset="0.9944" style="stop-color:#005B97"/>
</linearGradient>
<path style="fill:url(#SVGID_00000070116970214937122070000011709723194304988336_);" d="M304.8,370.3c20,0,36,16.2,36,36.3
	c0,20.5-15.9,36.7-36,36.7c-20,0.1-36.3-16.4-36.3-36.6C268.5,386.6,284.6,370.4,304.8,370.3z M285.5,407c0,10.5,8.7,19.3,19.1,19.4
	c10.5,0.1,19.4-8.9,19.3-19.5c-0.1-10.8-8.8-19.5-19.4-19.3C294,387.6,285.5,396.3,285.5,407z"/>
<linearGradient id="SVGID_00000111901601547856357140000015608188275142387117_" gradientUnits="userSpaceOnUse" x1="145.1426" y1="406.8826" x2="217.5624" y2="406.8826">
	<stop  offset="2.551656e-02" style="stop-color:#1E9CD7"/>
	<stop  offset="0.405" style="stop-color:#0177BF"/>
	<stop  offset="0.5858" style="stop-color:#0075BE"/>
	<stop  offset="0.7737" style="stop-color:#0063A2"/>
	<stop  offset="0.9944" style="stop-color:#005B97"/>
</linearGradient>
<path style="fill:url(#SVGID_00000111901601547856357140000015608188275142387117_);" d="M145.1,406.7c0.1-20.4,16.2-36.5,36.4-36.4
	c20.1,0.2,36.2,16.7,36,36.9c-0.2,20-16.5,36.2-36.4,36.2C161.1,443.4,145.1,427.1,145.1,406.7z M200.5,407.1
	c0.1-10.7-8.6-19.6-19.2-19.6c-10.5,0-19.1,8.6-19.2,19.2c-0.1,10.6,8.7,19.7,19.2,19.7C191.6,426.4,200.4,417.5,200.5,407.1z"/>
<linearGradient id="SVGID_00000181785624230116599360000011308949296962340030_" gradientUnits="userSpaceOnUse" x1="515.3193" y1="406.8819" x2="587.7446" y2="406.8819">
	<stop  offset="2.551656e-02" style="stop-color:#1E9CD7"/>
	<stop  offset="0.405" style="stop-color:#0177BF"/>
	<stop  offset="0.5858" style="stop-color:#0075BE"/>
	<stop  offset="0.7737" style="stop-color:#0063A2"/>
	<stop  offset="0.9944" style="stop-color:#005B97"/>
</linearGradient>
<path style="fill:url(#SVGID_00000181785624230116599360000011308949296962340030_);" d="M587.7,407c-0.1,20.4-16.1,36.5-36.3,36.5
	c-19.8-0.1-36.1-16.5-36.1-36.4c0-20.3,16.3-36.7,36.3-36.6C571.8,370.4,587.8,386.6,587.7,407z M532.4,406.9
	c0,10.5,8.7,19.3,19.1,19.4c10.5,0.1,19.4-8.9,19.4-19.5c0-10.6-8.5-19.2-19.1-19.4C541.2,387.4,532.4,396.2,532.4,406.9z"/>
<linearGradient id="SVGID_00000004536386608057285110000000078108748997977507_" gradientUnits="userSpaceOnUse" x1="189.1343" y1="137.949" x2="261.7506" y2="137.949">
	<stop  offset="2.551656e-02" style="stop-color:#1E9CD7"/>
	<stop  offset="0.405" style="stop-color:#0177BF"/>
	<stop  offset="0.5858" style="stop-color:#0075BE"/>
	<stop  offset="0.7737" style="stop-color:#0063A2"/>
	<stop  offset="0.9944" style="stop-color:#005B97"/>
</linearGradient>
<path style="fill:url(#SVGID_00000004536386608057285110000000078108748997977507_);" d="M211.5,175.2c-7.5-17.4-9-19.1-22.3-26.1
	c18.6-16.1,37-32,55.9-48.4c1.5,12.8,6.9,23,16.7,31.1C244.9,146.4,228.2,160.7,211.5,175.2z"/>
<linearGradient id="SVGID_00000013879781897652612730000014208116064677315725_" gradientUnits="userSpaceOnUse" x1="152.2424" y1="181.1181" x2="204.8156" y2="181.1181">
	<stop  offset="2.551656e-02" style="stop-color:#1E9CD7"/>
	<stop  offset="0.405" style="stop-color:#0177BF"/>
	<stop  offset="0.5858" style="stop-color:#0075BE"/>
	<stop  offset="0.7737" style="stop-color:#0063A2"/>
	<stop  offset="0.9944" style="stop-color:#005B97"/>
</linearGradient>
<path style="fill:url(#SVGID_00000013879781897652612730000014208116064677315725_);" d="M178.8,154.6c14.6,0.1,26.2,11.9,26,26.6
	c-0.1,14.7-11.9,26.5-26.3,26.4c-14.6-0.1-26.4-12.2-26.2-26.9C152.4,166.1,164.1,154.5,178.8,154.6z M178.6,191.6
	c5.7,0,10.5-4.9,10.5-10.6c0-5.8-4.7-10.5-10.5-10.5c-5.9,0-10.8,4.9-10.7,10.7C168,186.8,173,191.6,178.6,191.6z"/>
<linearGradient id="SVGID_00000166659299844962925260000014804193495046985865_" gradientUnits="userSpaceOnUse" x1="115.8514" y1="223.688" x2="154.6544" y2="223.688">
	<stop  offset="2.551656e-02" style="stop-color:#1E9CD7"/>
	<stop  offset="0.405" style="stop-color:#0177BF"/>
	<stop  offset="0.5858" style="stop-color:#0075BE"/>
	<stop  offset="0.7737" style="stop-color:#0063A2"/>
	<stop  offset="0.9944" style="stop-color:#005B97"/>
</linearGradient>
<path style="fill:url(#SVGID_00000166659299844962925260000014804193495046985865_);" d="M145.4,179.2c0.1,9.7,3,17.7,9.2,24.8
	c-7.4,2.7-14.3,5.2-21.3,7.6c-2.4,0.8-3.3,1.9-3.2,4.6c0.2,9.7,0,19.4,0.2,29c0,1.6,1,3.6,2.1,4.8c2.7,3,5.5,5.9,8.6,8.5
	c3.2,2.6,3.8,5.6,2.9,9.7c-9-4-17.9-7.9-26.8-12c-0.7-0.3-1.1-1.8-1.1-2.8c-0.1-18.6-0.1-37.2,0-55.8c0-1,0.6-2.6,1.4-3
	C126.4,189.4,135.6,184.5,145.4,179.2z"/>
<linearGradient id="SVGID_00000137111207878707732720000004330961777178289080_" gradientUnits="userSpaceOnUse" x1="203.0935" y1="223.8465" x2="241.2051" y2="223.8465">
	<stop  offset="2.551656e-02" style="stop-color:#1E9CD7"/>
	<stop  offset="0.405" style="stop-color:#0177BF"/>
	<stop  offset="0.5858" style="stop-color:#0075BE"/>
	<stop  offset="0.7737" style="stop-color:#0063A2"/>
	<stop  offset="0.9944" style="stop-color:#005B97"/>
</linearGradient>
<path style="fill:url(#SVGID_00000137111207878707732720000004330961777178289080_);" d="M213.4,268.1c-1-4.3-0.4-7.4,3-9.8
	c8.8-6.1,12.1-14.4,10.6-25.2c-0.8-5.5-0.3-11.3-0.1-16.9c0.1-2.8-0.9-3.9-3.5-4.8c-6.8-2.2-13.5-4.8-20.2-7.2
	c-0.1,0-0.2-0.2-0.2-0.2c2.1-3.8,4.7-7.4,6.2-11.4c1.5-4,2-8.5,3-13.2c4.6,2.5,9.3,5,14,7.6c4.3,2.3,8.7,4.5,12.9,7.1
	c1,0.6,2,2.2,2,3.4c0.1,18.6,0.1,37.2,0,55.8c0,1-0.7,2.6-1.5,2.9C231.1,260.3,222.4,264.1,213.4,268.1z"/>
<linearGradient id="SVGID_00000085249048187001172200000012398873561783204245_" gradientUnits="userSpaceOnUse" x1="392.0547" y1="406.7069" x2="414.4559" y2="406.7069">
	<stop  offset="2.551656e-02" style="stop-color:#1E9CD7"/>
	<stop  offset="0.405" style="stop-color:#0177BF"/>
	<stop  offset="0.5858" style="stop-color:#0075BE"/>
	<stop  offset="0.7737" style="stop-color:#0063A2"/>
	<stop  offset="0.9944" style="stop-color:#005B97"/>
</linearGradient>
<path style="fill:url(#SVGID_00000085249048187001172200000012398873561783204245_);" d="M414.4,373.3c0,6.7,0.1,12.9-0.1,19.2
	c0,0.9-0.8,1.8-1.4,2.6c-5.3,7.6-5.2,16.1,0,23.5c0.6,0.9,1.3,2,1.4,3c0.1,5,0.1,10.1,0.1,15.1c0,1.1,0,2.2,0,3.4
	c-10.5-2-21.2-16.5-22.3-29.7C390.9,394.1,399.9,378.7,414.4,373.3z"/>
<linearGradient id="SVGID_00000104707604290314559500000014371208344430277517_" gradientUnits="userSpaceOnUse" x1="615.3312" y1="406.891" x2="647.8691" y2="406.891">
	<stop  offset="2.551656e-02" style="stop-color:#1E9CD7"/>
	<stop  offset="0.405" style="stop-color:#0177BF"/>
	<stop  offset="0.5858" style="stop-color:#0075BE"/>
	<stop  offset="0.7737" style="stop-color:#0063A2"/>
	<stop  offset="0.9944" style="stop-color:#005B97"/>
</linearGradient>
<path style="fill:url(#SVGID_00000104707604290314559500000014371208344430277517_);" d="M647.9,407c0,9.3-7.4,16.5-16.5,16.4
	c-8.9-0.1-16-7.5-16-16.6c0-9,7.3-16.4,16.2-16.4C640.6,390.3,647.9,397.7,647.9,407z"/>
<linearGradient id="SVGID_00000019679580517822691570000009777129094608640445_" gradientUnits="userSpaceOnUse" x1="85.0113" y1="406.89" x2="117.393" y2="406.89">
	<stop  offset="2.551656e-02" style="stop-color:#1E9CD7"/>
	<stop  offset="0.405" style="stop-color:#0177BF"/>
	<stop  offset="0.5858" style="stop-color:#0075BE"/>
	<stop  offset="0.7737" style="stop-color:#0063A2"/>
	<stop  offset="0.9944" style="stop-color:#005B97"/>
</linearGradient>
<path style="fill:url(#SVGID_00000019679580517822691570000009777129094608640445_);" d="M85,406.8c0-9.1,7.2-16.4,16.2-16.4
	c8.9-0.1,16.2,7.3,16.2,16.4c0.1,9.1-7.1,16.5-16,16.6C92.3,423.4,85,416.1,85,406.8z"/>
</svg>
