<?xml version="1.0" encoding="utf-8"?>
<!-- Generator: Adobe Illustrator 26.0.1, SVG Export Plug-In . SVG Version: 6.00 Build 0)  -->
<svg version="1.1" id="Layer_1" xmlns="http://www.w3.org/2000/svg" xmlns:xlink="http://www.w3.org/1999/xlink" x="0px" y="0px"
	 viewBox="0 0 720 720" style="enable-background:new 0 0 720 720;" xml:space="preserve">
<style type="text/css">
	.st0{fill:url(#SVGID_1_);}
	.st1{fill:url(#SVGID_00000018225836158879404150000000163475315325606031_);}
	.st2{fill:url(#SVGID_00000051341848610865786730000018399594030950923706_);}
	.st3{fill:url(#SVGID_00000007402755106477775990000010797700394529761430_);}
	.st4{fill:url(#SVGID_00000178168491611784056740000011589736758081873087_);}
	.st5{fill:url(#SVGID_00000180340603472669084570000009424859394227272599_);}
	.st6{fill:url(#SVGID_00000073681107095241415400000009632096019251939991_);}
	.st7{fill:#FEFEFE;}
</style>
<linearGradient id="SVGID_1_" gradientUnits="userSpaceOnUse" x1="6.9913" y1="261.1582" x2="713.3188" y2="261.1582">
	<stop  offset="0.1317" style="stop-color:#1E9CD7"/>
	<stop  offset="0.6864" style="stop-color:#0075BE"/>
	<stop  offset="0.9944" style="stop-color:#005B97"/>
	<stop  offset="1" style="stop-color:#CCE0F4"/>
</linearGradient>
<path class="st0" d="M72.2,173.8c2.3-6.3,6.8-10.6,11-15.1c4.4-4.6,8.3-9.6,10.7-15.5c3.9-9.4,10-13.3,20.7-13.1
	c10.2,0.1,18.8,4.9,21.2,13.6c2.6,9.4,8.9,13.8,17.4,16.7c26.8,9.3,50.8,5.4,71.7-14.2c9.9-9.2,19.5-18.6,29.4-27.8
	c15.9-14.9,34.4-23.1,56.7-21.2c8.5,0.7,16.7,3,24.7,6c5.8,2.2,5.9,1.9,6.7-3.9c1.4-9.7-0.8-17.7-7.6-25.2
	c-9.4-10.3-8.3-27.6,1.7-38.9c10.3-11.8,27.3-14.3,40.3-6.2c15.9,9.9,20.9,32.9,7.4,46.6c-7.5,7.5-6.6,17.3-6.1,26.9
	c0.1,2.7,1.9,1.6,3.2,1.2c6.2-1.8,12.4-4,18.7-5.2c24.1-4.9,45.2,1.5,63.4,17.8c10.8,9.7,21.2,19.8,31.8,29.7
	c24.7,23.1,51.8,24,80.8,10.5c3.1-1.4,4.7-4.1,6-7c1.3-2.9,2.5-5.9,4.2-8.5c9.7-15.1,30.4-15.4,39.1,0.3c5,9,11,17,17.6,24.6
	c1.2,1.3,2,2.9,2.4,5.4c-3.8-2.3-7.8-4.4-11.4-6.9c-2.7-1.9-4.6-2-6.3,1.2c-0.7,1.5-1.7,3.1-3,3.9c-6.8,4.5-5.8,10.1-3.5,16.6
	c27,77.9,53.9,155.9,80.8,233.9c1.9,5.5,4.3,10.4,9.1,13.9c3.7,2.6,2,6.5,1.7,9.7c-0.3,2.5-3.4,1.3-5.2,1.3
	c-67.5,0.2-135,0.3-202.4,0.3c-4.1,0-6.4-4.6-3.2-7.9c12.2-12.5,14.4-29.4,19.7-44.7c24.5-69.6,48.4-139.5,72.7-209.3
	c1.5-4.3,1.2-7.1-2.1-10.4c-8.7-8.7-8.5-8.9-19.7-3.3c-11.6,5.8-23.3,11.6-36.3,13.7c-18.7,3.1-35.7-1.3-51.3-11.7
	c-10.1-6.7-19.8-14.1-29.8-21c-20.9-14.6-43-15.9-66.3-6.1c-7.2,3.1-10.2,7.9-10.2,15.4c0,15.7-0.2,31.3-0.2,47
	c-0.1,95.1-0.1,190.3,0,285.4c0,5.1-1.2,6.5-6.3,6.2c-8.1-0.5-16.3-0.3-24.5,0c-3.8,0.1-4.7-1.1-4.6-4.8
	c0.1-35.2,0.1-70.3,0.1-105.5c0.1-75,0.1-150,0.2-224.9c0-1.8-0.1-3.7-0.1-5.5c-0.1-5.9-2.9-10.1-8.3-12.5
	c-23.5-10.1-46.3-9.8-67.8,5.2c-7.4,5.1-14.8,10.2-21.9,15.7c-27,21-55.7,23.2-86.1,8.5c-6-2.9-11.8-6.2-17.6-9.5
	c-2.3-1.3-4-1.4-5.4,0.9c-0.1,0.1-0.2,0.3-0.3,0.4c-8.5,6.6-9.2,13.9-5.5,24.4c27.1,76.7,53.4,153.6,79.9,230.5
	c1.8,5.2,4.3,9.7,8.9,12.9c3.9,2.6,2,6.4,1.5,9.5c-0.4,3.1-3.6,1.7-5.5,1.7c-67.3,0.1-134.6,0.1-201.9,0c-1.9,0-4.7,1.3-5.5-1.8
	c-0.6-2.7-1.2-5.6,1.6-7.8c5.2-4.1,7.4-10,9.5-16c27.3-79.2,54.7-158.5,82.2-237.6c1.4-4,1.3-6.9-2-9.7c-3.2-2.8-5-8.7-8.9-8.8
	c-3.7-0.1-7.4,3.9-11.1,6.1C76.6,171,74.4,172.4,72.2,173.8z"/>
<linearGradient id="SVGID_00000067231927225523926160000003835518701209927828_" gradientUnits="userSpaceOnUse" x1="232.3188" y1="660.0322" x2="488.2106" y2="660.0322">
	<stop  offset="0.1317" style="stop-color:#1E9CD7"/>
	<stop  offset="0.6864" style="stop-color:#0075BE"/>
	<stop  offset="0.9944" style="stop-color:#005B97"/>
	<stop  offset="1" style="stop-color:#CCE0F4"/>
</linearGradient>
<path style="fill:url(#SVGID_00000067231927225523926160000003835518701209927828_);" d="M360.6,679c-41,0-81.9-0.1-122.9,0.1
	c-5.2,0-5.7-1.9-5.3-6.1c1.9-16.9,14.4-29.6,31.4-31c21.1-1.7,42.3-0.6,63.4-0.7c39.6-0.2,79.2,0,118.9,0c7.5,0,15,0.4,22,3.6
	c12.7,5.7,19.5,15.5,20.1,29.6c0.2,3.8-1.1,4.7-4.8,4.7C442.5,678.9,401.5,679,360.6,679z"/>
<linearGradient id="SVGID_00000065780396412004098820000000179259691100658826_" gradientUnits="userSpaceOnUse" x1="17.2788" y1="481.6938" x2="210.8481" y2="481.6938">
	<stop  offset="0.1317" style="stop-color:#1E9CD7"/>
	<stop  offset="0.6864" style="stop-color:#0075BE"/>
	<stop  offset="0.9944" style="stop-color:#005B97"/>
	<stop  offset="1" style="stop-color:#CCE0F4"/>
</linearGradient>
<path style="fill:url(#SVGID_00000065780396412004098820000000179259691100658826_);" d="M113.9,452.5c30.6,0,61.3,0,91.9,0
	c5.6,0,5.8,0.2,4,5.6c-2.1,6.5-5.6,12.2-10.3,16.9c-26.5,26.5-58.4,38.9-95.9,35.4c-25.1-2.4-47.9-11.1-67.1-27.9
	c-7.9-6.9-14.1-15-18.1-24.8c-2-5.1-2-5.1,3.4-5.1C52.6,452.5,83.2,452.5,113.9,452.5z"/>
<linearGradient id="SVGID_00000137104971659104000150000004398215910203344781_" gradientUnits="userSpaceOnUse" x1="510.0821" y1="481.9703" x2="704.277" y2="481.9703">
	<stop  offset="0.1317" style="stop-color:#1E9CD7"/>
	<stop  offset="0.6864" style="stop-color:#0075BE"/>
	<stop  offset="0.9944" style="stop-color:#005B97"/>
	<stop  offset="1" style="stop-color:#CCE0F4"/>
</linearGradient>
<path style="fill:url(#SVGID_00000137104971659104000150000004398215910203344781_);" d="M607.3,452.9c31,0,62,0.1,92.9-0.1
	c4.6,0,4.7,1.4,3.2,5c-4.1,9.9-10.6,18-18.6,25c-49.3,43.3-121.9,33.1-158-3.6c-6.1-6.2-11.2-13.2-15.1-21c-2.6-5.3-2.6-5.3,3.1-5.3
	C545.7,452.9,576.5,452.9,607.3,452.9z"/>
<linearGradient id="SVGID_00000081626083815565720610000012489761930009820054_" gradientUnits="userSpaceOnUse" x1="319.7803" y1="540.3685" x2="401.3658" y2="540.3685">
	<stop  offset="0.1317" style="stop-color:#1E9CD7"/>
	<stop  offset="0.6864" style="stop-color:#0075BE"/>
	<stop  offset="0.9944" style="stop-color:#005B97"/>
	<stop  offset="1" style="stop-color:#CCE0F4"/>
</linearGradient>
<path style="fill:url(#SVGID_00000081626083815565720610000012489761930009820054_);" d="M360.3,574.9c-12.3,0-24.6-0.1-37,0.1
	c-3.3,0.1-4-0.9-3.2-4c4.6-19.2,9.1-38.5,13.6-57.8c1.2-4.9,4.1-7.3,9.2-7.3c13,0,26,0,39-0.2c3,0,4.4,0.8,5.1,3.8
	c4.6,20.4,9.3,40.9,14.1,61.2c0.8,3.5,0,4.1-3.3,4.1C385.2,574.8,372.7,574.9,360.3,574.9z"/>
<linearGradient id="SVGID_00000106863772292740227240000007821338613837541780_" gradientUnits="userSpaceOnUse" x1="268.9979" y1="624.9325" x2="452.8542" y2="624.9325">
	<stop  offset="0.1317" style="stop-color:#1E9CD7"/>
	<stop  offset="0.6864" style="stop-color:#0075BE"/>
	<stop  offset="0.9944" style="stop-color:#005B97"/>
	<stop  offset="1" style="stop-color:#CCE0F4"/>
</linearGradient>
<path style="fill:url(#SVGID_00000106863772292740227240000007821338613837541780_);" d="M361,615.6c24.8,0,49.6,0,74.4,0
	c3,0,6,0,9,0.3c5.8,0.5,8.5,3.6,8.5,9.1c-0.1,5.4-2.8,8.4-8.6,9c-2.1,0.2-4.3,0.3-6.5,0.3c-51.3,0-102.6,0-153.9,0c-2,0-4,0-6-0.2
	c-6.2-0.6-8.9-3.4-8.9-9.2c0-5.7,2.8-8.6,9-8.9c7.1-0.3,14.3-0.2,21.5-0.3C320,615.6,340.5,615.6,361,615.6z"/>
<linearGradient id="SVGID_00000012431093965065073540000009757156386465640597_" gradientUnits="userSpaceOnUse" x1="302.9927" y1="595.8432" x2="418.1041" y2="595.8432">
	<stop  offset="0.1317" style="stop-color:#1E9CD7"/>
	<stop  offset="0.6864" style="stop-color:#0075BE"/>
	<stop  offset="0.9944" style="stop-color:#005B97"/>
	<stop  offset="1" style="stop-color:#CCE0F4"/>
</linearGradient>
<path style="fill:url(#SVGID_00000012431093965065073540000009757156386465640597_);" d="M360.9,582.9c14.6,0,29.3-0.2,43.9,0.1
	c9.1,0.2,13.6,5.2,13.3,13.8c-0.2,5.2-2.8,8.8-7.7,10.6c-3,1.1-6.1,1.5-9.3,1.5c-27.3,0-54.6,0-81.9,0c-9.6,0-15.6-4.5-16.2-12
	c-0.7-8.1,4.7-13.8,13.9-13.9C331.6,582.7,346.2,582.9,360.9,582.9C360.9,582.9,360.9,582.9,360.9,582.9z"/>
<path class="st7" d="M110.3,181.5c1.1,3,0.9,5.6,0.9,8.2c0,78.5,0,156.9,0,235.4c0,7.2-1.1,8.4-8.4,8.4c-25.3,0-50.6,0-76,0.1
	c-4,0-4.3-1.1-3.1-4.6c28.1-81.2,56.1-162.5,84.2-243.8C108.3,184.1,108.4,182.7,110.3,181.5z"/>
<path class="st7" d="M119.1,182c2,1.3,2,3.3,2.6,4.9c27.7,80.3,55.4,160.6,83.1,240.8c1.8,5.2,1.8,5.2-3.8,5.2
	c-26,0-51.9-0.1-77.9,0.1c-3.6,0-4.8-0.8-4.8-4.6c0.1-80.7,0.1-161.5,0.1-242.2C118.3,184.9,117.9,183.5,119.1,182z"/>
<path class="st7" d="M699.4,432.8c-2.2,0.1-3.6,0.2-5.1,0.2c-26,0-52-0.1-77.9,0.1c-3.9,0-5-1-5-5c0.1-80.1,0.1-160.2,0.1-240.3
	c0-1.5-0.5-3.2,1.6-5.7C642,266.1,670.6,349.2,699.4,432.8z"/>
<path class="st7" d="M602.3,181.9c1.6,2.3,1.1,4,1.1,5.6c0,80,0,159.9,0.1,239.9c0,4.4-0.9,5.9-5.7,5.9c-25.8-0.3-51.6-0.2-77.5,0
	c-4.2,0-4.6-1-3.3-4.7c27.8-80.6,55.6-161.3,83.3-241.9C600.9,185.2,601.5,183.9,602.3,181.9z"/>
</svg>
