<?xml version="1.0" encoding="utf-8"?>
<!-- Generator: Adobe Illustrator 26.0.1, SVG Export Plug-In . SVG Version: 6.00 Build 0)  -->
<svg version="1.1" id="Layer_1" xmlns="http://www.w3.org/2000/svg" xmlns:xlink="http://www.w3.org/1999/xlink" x="0px" y="0px"
	 viewBox="0 0 720 720" style="enable-background:new 0 0 720 720;" xml:space="preserve">
<style type="text/css">
	.st0{fill:url(#SVGID_1_);}
	.st1{fill:url(#SVGID_00000139984190413113724550000004870198011237437834_);}
	.st2{fill:url(#SVGID_00000156575596301420247720000004505212104543115917_);}
	.st3{fill:url(#SVGID_00000010287880134783204440000014121491036573300411_);}
	.st4{fill:#FFFFFF;}
	.st5{fill:url(#SVGID_00000162311115061427640790000006139931604748747421_);}
	.st6{fill:url(#SVGID_00000164502807242619507850000010960886541469555336_);}
	.st7{fill:none;stroke:#FFFFFF;stroke-width:20;stroke-linecap:round;stroke-miterlimit:10;}
</style>
<linearGradient id="SVGID_1_" gradientUnits="userSpaceOnUse" x1="179.5944" y1="435.3934" x2="339.4512" y2="435.3934">
	<stop  offset="0" style="stop-color:#1E9CD7"/>
	<stop  offset="0.3568" style="stop-color:#0075BE"/>
	<stop  offset="1" style="stop-color:#005B97"/>
	<stop  offset="1" style="stop-color:#CCE0F4"/>
</linearGradient>
<path class="st0" d="M268.6,304.5c6.9-24.2,13.7-48.5,20.5-72.4c1.1-0.4,1.6-0.7,2.1-0.8c48.1-4.8,48.1-4.8,48.1,42.8
	c0,44.9-0.2,89.8,0.1,134.7c0.1,10.9-1.3,19.2-13.4,23.4c-3.1,1.1-5.5,8.9-5.5,13.6c-0.4,59.2-0.2,118.3-0.2,177.5
	c0,5.7,0,11.4,0,18.1c-18.5,0-35.6,0-56.4,0c0-36.2,0-72.3,0-108.3c-2.5,0-5-0.1-7.5-0.1c0,35.8,0,71.6,0,108.4c-21,0-38.1,0-56.9,0
	c0-69.1,0-138,0-207.9c-16.2-0.3-20-9.1-19.8-22.7c0.5-53.9,0.5-107.8,0-161.6c-0.1-12.8,3.6-17.8,17-17.7c34,0,33.7-0.4,42,33.5
	c3.2,13.1,8.5,25.7,12.8,38.6c2.5,7.2,4.9,14.4,7.4,21.6c1.1-0.2,2.2-0.5,3.3-0.7C264.3,317.8,266.5,311.2,268.6,304.5z"/>
<linearGradient id="SVGID_00000183211151461153449580000012542676919589338762_" gradientUnits="userSpaceOnUse" x1="218.9992" y1="164.7339" x2="302.002" y2="164.7339">
	<stop  offset="0" style="stop-color:#1E9CD7"/>
	<stop  offset="0.3568" style="stop-color:#0075BE"/>
	<stop  offset="1" style="stop-color:#005B97"/>
	<stop  offset="1" style="stop-color:#CCE0F4"/>
</linearGradient>
<path style="fill:url(#SVGID_00000183211151461153449580000012542676919589338762_);" d="M219,156c0.1-27.2,14.1-47.8,41.3-47.5
	c26.3,0.3,41.5,20,41.7,46.5c0.2,28.4-15.1,65.9-42,66C233,221.1,218.9,184.5,219,156z"/>
<linearGradient id="SVGID_00000062874122391977824900000001398280887383140760_" gradientUnits="userSpaceOnUse" x1="251.4" y1="279.3525" x2="268.6485" y2="279.3525">
	<stop  offset="0" style="stop-color:#1E9CD7"/>
	<stop  offset="0.3568" style="stop-color:#0075BE"/>
	<stop  offset="1" style="stop-color:#005B97"/>
	<stop  offset="1" style="stop-color:#CCE0F4"/>
</linearGradient>
<path style="fill:url(#SVGID_00000062874122391977824900000001398280887383140760_);" d="M268.6,304.5c-2.2,6.7-4.4,13.3-6.6,20
	c-1.1,0.2-2.2,0.5-3.3,0.7c-2.5-7.2-4.9-14.4-7.4-21.6c1-15.1,2.4-30.2,3-45.4c0.3-7.9-1-15.8-1.6-24.7c3.9,0,9.7,0,11.1,0
	c1.1,16.3,2.1,31.9,3.1,47.6C267.5,288.9,268.1,296.7,268.6,304.5z"/>
<linearGradient id="SVGID_00000025441991246867043870000004647019152891718588_" gradientUnits="userSpaceOnUse" x1="444.5348" y1="212.3437" x2="580.1205" y2="212.3437">
	<stop  offset="9.255566e-02" style="stop-color:#1E9CD7"/>
	<stop  offset="0.53" style="stop-color:#0075BE"/>
	<stop  offset="1" style="stop-color:#005B97"/>
	<stop  offset="1" style="stop-color:#CCE0F4"/>
</linearGradient>
<path style="fill:url(#SVGID_00000025441991246867043870000004647019152891718588_);" d="M580.1,212.3c0.1,37.2-30.3,67.6-67.7,67.8
	c-37.1,0.2-67.5-30.1-67.9-67.6c-0.3-37.1,30.6-68,67.8-67.9C549.7,144.7,580.1,175,580.1,212.3z"/>
<path class="st4" d="M541.8,198c0,3.1-1.1,5.4-2.9,7.3c-9.2,9.3-18.5,18.5-27.8,27.7c-4.1,4.1-9.8,3.9-14-0.2
	c-3.7-3.6-7.4-7.3-11.1-11.1c-4-4.1-4.1-9.9-0.4-13.8c3.8-3.9,9.8-3.9,14,0.2c1.1,1.1,2.2,2.1,3.2,3.2c1,1.2,1.7,0.9,2.7-0.1
	c6.5-6.6,13-13.1,19.6-19.6c5.7-5.5,14.4-3.2,16.4,4.2C541.7,196.8,541.7,197.6,541.8,198z"/>
<linearGradient id="SVGID_00000172433468174886469550000002826583937334955189_" gradientUnits="userSpaceOnUse" x1="444.5348" y1="367.2166" x2="580.1205" y2="367.2166">
	<stop  offset="9.255566e-02" style="stop-color:#1E9CD7"/>
	<stop  offset="0.53" style="stop-color:#0075BE"/>
	<stop  offset="1" style="stop-color:#005B97"/>
	<stop  offset="1" style="stop-color:#CCE0F4"/>
</linearGradient>
<path style="fill:url(#SVGID_00000172433468174886469550000002826583937334955189_);" d="M580.1,367.2c0.1,37.2-30.3,67.6-67.7,67.8
	c-37.1,0.2-67.5-30.1-67.9-67.6c-0.3-37.1,30.6-68,67.8-67.9C549.7,299.5,580.1,329.9,580.1,367.2z"/>
<linearGradient id="SVGID_00000013170304922891471540000001877112866292885904_" gradientUnits="userSpaceOnUse" x1="444.5348" y1="528.2166" x2="580.1205" y2="528.2166">
	<stop  offset="9.255566e-02" style="stop-color:#1E9CD7"/>
	<stop  offset="0.53" style="stop-color:#0075BE"/>
	<stop  offset="1" style="stop-color:#005B97"/>
	<stop  offset="1" style="stop-color:#CCE0F4"/>
</linearGradient>
<path style="fill:url(#SVGID_00000013170304922891471540000001877112866292885904_);" d="M580.1,528.2c0.1,37.2-30.3,67.6-67.7,67.8
	c-37.1,0.2-67.5-30.1-67.9-67.6c-0.3-37.1,30.6-68,67.8-67.9C549.7,460.5,580.1,490.9,580.1,528.2z"/>
<path class="st4" d="M541.8,352.8c0,3.1-1.1,5.4-2.9,7.3c-9.2,9.3-18.5,18.5-27.8,27.7c-4.1,4.1-9.8,3.9-14-0.2
	c-3.7-3.6-7.4-7.3-11.1-11.1c-4-4.1-4.1-9.9-0.4-13.8c3.8-3.9,9.8-3.9,14,0.2c1.1,1.1,2.2,2.1,3.2,3.2c1,1.2,1.7,0.9,2.7-0.1
	c6.5-6.6,13-13.1,19.6-19.6c5.7-5.5,14.4-3.2,16.4,4.2C541.7,351.7,541.7,352.5,541.8,352.8z"/>
<line class="st7" x1="479.5" y1="494.5" x2="548" y2="563"/>
<line class="st7" x1="552" y1="494" x2="480.5" y2="565.5"/>
</svg>
