<?xml version="1.0" encoding="utf-8"?>
<!-- Generator: Adobe Illustrator 26.0.1, SVG Export Plug-In . SVG Version: 6.00 Build 0)  -->
<svg version="1.1" id="Layer_1" xmlns="http://www.w3.org/2000/svg" xmlns:xlink="http://www.w3.org/1999/xlink" x="0px" y="0px"
	 viewBox="0 0 720 720" style="enable-background:new 0 0 720 720;" xml:space="preserve">
<style type="text/css">
	.st0{fill:url(#SVGID_1_);}
</style>
<linearGradient id="SVGID_1_" gradientUnits="userSpaceOnUse" x1="29.3334" y1="371.8221" x2="700.2465" y2="371.8221">
	<stop  offset="0" style="stop-color:#1E9CD7"/>
	<stop  offset="0.6529" style="stop-color:#0075BE"/>
	<stop  offset="1" style="stop-color:#005B97"/>
	<stop  offset="1" style="stop-color:#CCE0F4"/>
</linearGradient>
<path class="st0" d="M364.9,707c-55.4,0-110.8,0-166.2,0c-18.2,0-27.7-12.8-22.1-30.2c1.8-5.5,3.6-11,6.1-16.2
	c1.8-3.7,0.8-5.2-2.4-7.3c-37.4-24.6-69-55.2-93.8-92.5c-44.8-67.1-63.1-141-55.4-221.4C44.3,201.1,143.3,84.6,276.1,49.4
	c109.6-29.1,210.4-8.2,299.3,62.4c70.8,56.3,113.2,130.6,122.6,220.5c14,134.1-35.5,241.1-145.7,319.3c-5.2,3.7-7.6,6.2-3.8,12.4
	c2.6,4.3,4,9.5,5.6,14.4c4.9,15.3-5,28.6-21.1,28.6C476.9,707,420.9,707,364.9,707z M104.1,432.1c-3.7,4.6-8.5,6.6-14.3,4.4
	c-5.5-2.1-7.9-6.3-7.8-12.1c0.1-4.3-0.2-8.7,0.1-13c0.2-3.3-1-4.2-4.3-4.2c-9.7,0.2-19.4,0.4-29.1,0c-4.9-0.2-5.8,1.2-5.1,5.9
	C56.8,510,104,586,184.3,641.7c4.1,2.9,5.9,3.3,9.1-1.7c27-43.4,65.5-69.5,116.7-75.8c3.8-0.5,4.8-2,4.7-5.5
	c-0.2-11-0.2-21.9,0-32.9c0.1-3.7-1.4-5.4-4.5-7.1c-28.8-16.3-45.3-40.8-48.5-73.9c-0.4-4.2-1.9-5.8-5.9-6.9
	c-30-8.1-43.3-41.7-27.2-68.3c1.8-3,2.5-5.9,2.5-9.3c-0.1-21.5-0.1-43,0-64.5c0-48.3,37.7-86,86.1-86.1c31-0.1,62,0,93,0
	c15.3,0,30.6,0,45.9,0c6.2,0,8.1,2.1,7.9,8.3c-0.1,5-1.2,9.8-2.8,14.6c-0.7,2.1-0.7,3.2,1.5,4.4c24,13.2,33,34.5,32.8,60.9
	c-0.2,20.5,0,40.9-0.1,61.4c0,3.4,0.6,6.3,2.6,9.2c5.7,8.3,8.2,17.6,7.5,27.6c-1.6,21.4-14.6,36.8-35.6,42.4
	c-2.4,0.6-4.4,0.8-4.7,4.3c-2.8,34.1-19.3,59.5-49.1,76.2c-2.5,1.4-3.5,3-3.4,5.8c0.2,9.1,0.1,18.2,0.1,27.3
	c0,10.9,0,10.9,10.9,12.9c48.6,8.6,85.5,34.7,112.1,75.6c3.2,4.8,5,4.6,9.2,1.7c32-21.6,59.6-47.8,82.3-79.1
	c32.7-45.1,52.3-95.3,59.1-150.5c0.5-3.8-0.1-5-4.2-4.9c-8.3,0.3-16.5,0.1-24.8,0.1c-8.6,0-8.6,0-8.6,8.3c0,2.9,0,5.8,0,8.7
	c-0.1,5.8-2.9,9.8-8.4,11.7c-5.3,1.9-9.9,0.3-13.3-3.9c-13.9-17.5-27.7-35-41.3-52.7c-3.5-4.6-3.7-9.8-0.1-14.4
	c13.7-17.6,27.5-35.1,41.4-52.7c3.6-4.6,8.7-5.7,14-3.8c5.1,1.8,7.8,5.9,7.8,11.5c0,4.5,0.2,9.1,0,13.6c-0.2,3.3,1.1,4.2,4.3,4.1
	c9.7-0.2,19.4-0.2,29.1,0c4,0.1,4.8-1,4.3-4.9c-2.8-22.4-7.8-44.3-15.1-65.6c-11.8-34.3-28.9-65.7-51.7-94.9
	c-5,5.2-9.6,10.1-14.4,15c-3.7,3.9-10.1,7.4-10.5,11.6c-0.5,4.8,6.6,8,10.2,12c3.9,4.2,5.5,8.7,3,14.1c-2.6,5.6-7.2,7.8-13.1,7.2
	c-21.7-2.5-43.5-5.1-65.2-7.8c-6-0.7-10-4.2-10.8-10.3c-2.8-22.1-5.4-44.3-7.9-66.5c-0.6-5.4,1.5-9.8,6.5-12.2
	c5.3-2.5,10.1-1.5,14.2,2.4c3.1,3,6.4,5.9,9.2,9.2c2.6,3.1,4.2,2.5,6.7-0.2c6.5-6.9,13.2-13.7,20.2-20.1c3.1-2.9,3.4-4.5-0.2-7.4
	c-48.1-38.2-102.5-61.1-163.4-69c-3.9-0.5-4.5,0.9-4.4,4.2c0.2,6-0.1,12,0.1,18c0.2,5.5-2.4,12.6,1.2,16c2.8,2.6,9.8,0.8,14.9,1
	c0.2,0,0.4,0,0.6,0c5.8-0.1,9.9,2.5,11.9,8c2,5.5,0.5,10.2-4.1,13.8c-17.3,13.7-34.7,27.4-52.1,41c-4.8,3.7-10.1,3.7-14.9,0
	c-17.6-13.7-35.2-27.5-52.6-41.4c-4.3-3.4-5.6-8.2-3.7-13.4c1.9-5.2,5.7-8,11.3-8c4.3,0,8.7-0.2,13,0c3.7,0.2,5.1-0.8,5-4.8
	c-0.3-10.1-0.3-20.3,0-30.4c0.1-4.4-1.7-4.6-5.2-4c-10.8,1.7-21.6,3.3-32.3,5.8c-48.3,11-91.7,32.2-130.5,63
	c-3.1,2.5-3.8,3.9-0.5,6.8c4.2,3.6,7.9,7.9,11.9,11.8c4,3.9,7.6,10.3,12.1,11c4.7,0.7,8.1-6.6,12.1-10.3c4.4-4,9.1-5.7,14.7-3.1
	c5.6,2.6,7.6,7.3,6.9,13.3c-2.5,21.5-5.1,43.1-7.7,64.6c-0.8,6.2-4.3,10.4-10.7,11.2c-22.1,2.8-44.3,5.4-66.5,7.9
	c-5.5,0.6-9.7-1.8-12.1-6.9c-2.3-5-1.5-9.7,2.2-13.7c3-3.2,6-6.3,9.2-9.2c2.7-2.4,2.4-4,0-6.4c-6.9-6.6-13.6-13.3-20.1-20.2
	c-3-3.3-4.6-3-7.2,0.5C87.6,203,72.2,230.9,61,261.2c-8.5,23.2-14.3,47-17.4,71.4c-0.5,4.1,0.4,5.6,4.7,5.4c5.8-0.3,11.6,0,17.4-0.1
	c5.1-0.1,11.9,1.7,15-0.9c3.7-3,1.2-10,1.3-15.3c0.1-6.1,2.4-10.6,8.2-12.5c5.6-1.9,10.5-0.2,14.3,4.7
	c13.2,16.9,26.6,33.8,39.8,50.7c4.5,5.8,4.4,10.9-0.2,16.9c-4,5.3-8.2,10.4-12.2,15.6 M363.7,269c-5.6,0-11.2,0-16.7,0
	c-23.6,0.2-42.8,9.6-57.6,27.8c-12.6,15.5-17.2,33.5-16.1,53.2c0.3,5.5-1.2,9-7.6,9.6c-18.1,1.6-31.4,15.4-32,32.7
	c-0.6,17.6,11.8,32.1,30.1,35c9.4,1.5,9.4,1.5,9.6,11.3c0.6,35.2,24.7,66.4,58.5,76.2c13.2,3.8,26.6,3.3,40,3.2
	c45.3,0,81-35.3,81.8-80.6c0.1-8,1-9,9-10c18-2.1,31-16,31.3-33.5c0.3-16.6-11.9-31.2-28.5-34c-11.8-2-11.8-2-11.8-13.8
	c0-1.7,0-3.3,0-5c-0.5-30-19.1-56.3-47.1-67.4C392.5,268.3,378.1,268.9,363.7,269z M242.9,353.9c5.5-2,9.6-4.1,14-5
	c3.9-0.7,4.3-2.6,4.3-5.9c1.1-50.3,38.1-86.4,88.5-86.4c20.9,0,41.7,0.1,62.6-0.1c17.8-0.2,34.3-13.5,38.6-30.4
	c0.9-3.6,0.4-4.6-3.5-4.6c-45,0.2-90.1-0.3-135.1,0.4c-32.7,0.6-61.9,25.7-67.6,57.8C240.5,304.1,244.1,328.8,242.9,353.9z
	 M400.8,526.3c-24.9,5.6-49.4,5.1-74.1,0.4c0,13.2,0,26.3,0,39.3c0,1.4,0,2.9,0,4.3c1,19.6,17,34.9,36.4,35.1
	c19.9,0.2,36.7-14.9,37.5-34.6C401.3,556.2,400.8,541.5,400.8,526.3z M313.9,102c-0.2,0.4-0.4,0.8-0.7,1.2
	c16.5,13,33.1,25.8,49.5,38.9c2.6,2.1,3.7,0,5.1-1.1c15.3-11.9,30.6-23.9,45.9-35.9c0.8-0.6,2.5-0.9,1.8-2.8c-6,0-11.9,0-17.9,0
	c-8.5,0-9.8-1.3-9.7-9.7c0.1-12.8,0.1-25.6,0.4-38.4c0.1-3.5-1-4.6-4.5-4.7c-12.2-0.5-24.3-0.6-36.5-0.1c-4.3,0.2-5,1.9-4.9,5.6
	c0.2,12.6,0.1,25.2,0.1,37.8c0,8-1.3,9.2-9.4,9.2C326.7,102,320.3,102,313.9,102z M94,425.2c13.4-17.1,25.7-32.9,38.1-48.6
	c1.7-2.2,3-3.8,0.7-6.8c-12.1-15.2-23.8-30.7-35.7-46c-0.7-0.9-1.1-2.9-3.3-2c0,6.5-0.1,13.1,0,19.7c0.1,5.7-2.3,8.3-8.2,8.2
	c-12.8-0.2-25.6,0.1-38.4-0.2c-4.4-0.1-5.7,1.5-5.7,5.6c0.1,11.6,0.2,23.1-0.1,34.7c-0.1,4.9,1.8,5.8,6.2,5.7
	c12.2-0.4,24.4-0.3,36.6-0.4c8.6,0,9.8,1.2,9.9,9.5C94,411.1,94,417.4,94,425.2z M636.6,424.7c0-7.7-0.1-13.6,0-19.6
	c0.1-7.6,2-9.6,9.5-9.6c12.4,0,24.8-0.1,37.2,0.1c3.3,0,5-0.7,5-4.3c0.1-12.2,0.8-24.3,0.3-36.5c-0.2-4-2-4.7-5.4-4.6
	c-12.6,0.2-25.2,0.1-37.8,0c-6.7,0-8.4-1.7-8.4-8.5c-0.1-6.7,0-13.4,0-21.8c-14.2,18-27.1,34.5-40.2,51c-1.4,1.8-0.7,2.9,0.4,4.3
	C610,391.2,622.8,407.4,636.6,424.7z M422.9,268c29.2,18.3,43.9,47.3,43,76c-0.1,1.7-0.2,3.6,1.9,3.9c5.5,0.7,10.3,3.6,15.8,5.2
	c0-20.5,0.4-40.5-0.1-60.5c-0.5-18.6-7.8-34-24.4-43.9c-2.3-1.4-4.3-2.7-6.8,0.5C445.1,258.7,435.3,264.5,422.9,268z"/>
</svg>
