<?xml version="1.0" encoding="utf-8"?>
<!-- Generator: Adobe Illustrator 26.0.1, SVG Export Plug-In . SVG Version: 6.00 Build 0)  -->
<svg version="1.1" id="Layer_1" xmlns="http://www.w3.org/2000/svg" xmlns:xlink="http://www.w3.org/1999/xlink" x="0px" y="0px"
	 viewBox="0 0 720 720" style="enable-background:new 0 0 720 720;" xml:space="preserve">
<style type="text/css">
	.st0{fill:url(#SVGID_1_);stroke:url(#SVGID_00000140732766594676992410000015822869083009200319_);stroke-miterlimit:10;}
	.st1{fill:url(#SVGID_00000028319449197739059830000014319775775664806037_);}
	.st2{fill:url(#SVGID_00000134216719067965659550000000137363859959422604_);}
	.st3{fill:url(#SVGID_00000178903137337433784620000014778688883743723933_);}
	.st4{fill:url(#SVGID_00000131359302566726799390000003133603773912475298_);}
	.st5{fill:url(#SVGID_00000045588794086256548980000016616737693300455310_);}
	.st6{fill:url(#SVGID_00000178199624987915959980000006105186052999786677_);}
	.st7{fill:url(#SVGID_00000170965346586620634890000001984689483634891429_);}
	.st8{fill:url(#SVGID_00000008852902653359716590000016692141113548769171_);}
	.st9{fill:url(#SVGID_00000044138378452178634670000004314134328321137048_);}
	.st10{fill:url(#SVGID_00000008836997513090231720000007962919489089887400_);}
	.st11{fill:url(#SVGID_00000085956132411456269610000015292058847935921322_);}
	.st12{fill:url(#SVGID_00000071547511436090620750000018211307935830340241_);}
	.st13{fill:url(#SVGID_00000084520764798123320620000006040999895787478971_);}
	.st14{fill:url(#SVGID_00000160167406998091453070000006634507055276603264_);}
	.st15{fill:url(#SVGID_00000099628971076690007160000003446670695041533878_);}
	.st16{fill:url(#SVGID_00000070841611776592603940000007861501624614002824_);}
	.st17{fill:url(#SVGID_00000050664251140237658080000013677255461217215107_);}
	.st18{fill:url(#SVGID_00000116939057195825380260000008724143141082318233_);}
	.st19{fill:url(#SVGID_00000054239399756528892820000009224765242846984074_);}
	.st20{fill:url(#SVGID_00000151525483508349373960000000776683900472154757_);}
	.st21{fill:url(#SVGID_00000158016021811726704090000001324520623392649908_);}
	.st22{fill:url(#SVGID_00000082332838300383176130000014891171204082867645_);}
	.st23{fill:url(#SVGID_00000145028682923548085820000000592749235043283845_);}
	.st24{fill:url(#SVGID_00000058564849524441759020000009084465468838201755_);}
	.st25{fill:url(#SVGID_00000084496111712529569500000000779193955365918906_);}
	.st26{fill:url(#SVGID_00000015316107080880432310000015311720901494479288_);}
	.st27{fill:url(#SVGID_00000175309338259692950190000009134009608065130123_);}
</style>
<linearGradient id="SVGID_1_" gradientUnits="userSpaceOnUse" x1="73.0017" y1="369.4457" x2="672.2483" y2="369.4457">
	<stop  offset="7.020930e-02" style="stop-color:#1E9CD7"/>
	<stop  offset="0.3735" style="stop-color:#0075BE"/>
	<stop  offset="0.9944" style="stop-color:#005B97"/>
</linearGradient>
<linearGradient id="SVGID_00000025421867177298334600000017427016011864481446_" gradientUnits="userSpaceOnUse" x1="72.5017" y1="369.4457" x2="672.7483" y2="369.4457">
	<stop  offset="0" style="stop-color:#CCE0F4"/>
	<stop  offset="6.405089e-02" style="stop-color:#C3DCF2"/>
	<stop  offset="0.1706" style="stop-color:#A9D2EE"/>
	<stop  offset="0.3066" style="stop-color:#80C2E7"/>
	<stop  offset="0.4649" style="stop-color:#47ACDE"/>
	<stop  offset="0.5674" style="stop-color:#1E9CD7"/>
	<stop  offset="0.8652" style="stop-color:#0075BE"/>
	<stop  offset="0.9944" style="stop-color:#005B97"/>
</linearGradient>
<path style="fill:url(#SVGID_1_);stroke:url(#SVGID_00000025421867177298334600000017427016011864481446_);stroke-miterlimit:10;" d="
	M437.4,504.5c2.1-3,4.4-6.1,7.2-10.1c-10.9-10.1-21.7-20.2-32.7-30.4c-17.7,8-36.7,16.7-52.3,23.7c1.1,18,3.1,35.1,2.8,52.1
	c-0.2,12.2-7.8,20.9-19.6,25.2c-9.2,3.3-11.5,9.1-7.2,18.1c6.3,13.4,2.7,25-7.3,35.1c-5.4,5.5-10.8,11-16.4,16.3
	c-9.8,9.4-21.1,12.8-33.9,6.9c-8.5-3.9-14.9-3.3-18.5,6.3c-7.3,20.1-23.9,21.1-41.7,21.1c-17.9,0-34.3-1.1-41.6-21.2
	c-3.1-8.6-8.9-10.4-17.1-6.6c-14.7,6.9-26.9,2.4-37.5-8.8c-4.2-4.5-8.7-8.8-13.1-13.1c-10.6-10.4-14.6-22.2-8.1-36.3
	c3.7-8,2.7-14-6.1-17.3c-16.6-6.1-21.7-18.6-21.4-35.2c0.3-19.6-2.4-39.8,21.8-49.2c3.5-1.4,7.5-10.6,6.1-14
	c-7.5-17.7-1.8-30.9,11.5-42.5c8.8-7.7,17.5-15.6,26.7-23.8c-28.4-49.9-35.3-103.3-17.2-159.3c11-34.1,31-62.2,57.5-86.3
	c5.2-4.7,8.6-13.3,9.5-20.5c1.6-11.6,0.1-23.6,0.6-35.4c0.8-17.1,11.2-28.6,28.1-28.8c58.2-0.5,116.3-0.5,174.5,0
	c16.6,0.1,30.2,12.1,28.1,28.5c-4.5,34.5,10.8,56.9,33,81.4c50.4,55.9,64.3,146.6,12.3,228.9c10.7,9.7,21.7,19.7,33.8,30.7
	c1.7-1.1,5.2-3.4,8.7-5.7c50.9,50.5,101.7,100,151.3,150.8c18.9,19.4,16.5,49.5-2.3,68.3c-18.9,18.9-49,21.4-68.4,2.5
	C537.7,606.3,488.2,555.5,437.4,504.5z M189.4,240.2c-1.3-0.2-2.6-0.5-4-0.7c-18,34.6-20.6,70.6-7.6,107.8
	c10.9,31.1,11.7,31.9,44.3,31.4c17.5-0.3,31.2,3.9,38.3,21.9c1.4,3.5,9.2,8.3,11.3,7.3c24.3-12.5,39.1,1.8,52.9,18.1
	c6.2,7.3,12.5,7.4,20.3,4.7c48.6-16.6,79.8-49.5,91.8-99.5c7.6-31.9,3.2-62.5-14.1-90.9c-1.6,16.4-1.3,32.6-1.7,48.9
	c-0.6,20.9-11,31.7-31.6,31.8c-56.1,0.3-112.2,0.3-168.3,0c-20.9-0.1-31.1-10.5-31.6-31.4C189.1,273,189.4,256.6,189.4,240.2z
	 M319.3,594.8c-0.3-1-0.6-1.9-0.9-2.9c-6.7-29.3-6.6-29.4,18.5-45.5c11.5-7.4,9.7-40.3-2.7-46.8c-19.6-10.3-24.6-20.8-16.8-41.2
	c5.1-13.3-5.4-17.5-11.5-23.9c-5.9-6.2-10.4-15-22.9-10.1c-19.4,7.7-32.2,2.7-40.2-15.8c-5.4-12.6-15-10.5-24.4-10.4
	c-9.9,0-20-2.5-25.5,11.1c-7.2,17.5-21.2,22.9-39.1,15.4c-12.2-5.1-17.3,2.6-23.1,9.2c-6.2,7-17.6,11.1-11.9,25.2
	c7.7,19,2.5,31.6-16.3,39.9c-12.6,5.5-10,15.3-10,24.6c0,9.3-2.5,19.1,10,24.6c18.9,8.4,24.1,21,16.4,39.9
	c-5.4,13.2,4.4,17.7,10.7,24.1c6.4,6.5,11.2,15.8,24.2,10.3c18-7.5,32-2.1,39.1,15.4c5.2,12.5,14.2,11.4,23.9,11.2
	c10.4-0.2,21,2.5,26.6-11.9c6.4-16.6,20.8-21.1,38.2-15.3C293,625.8,319.6,606.6,319.3,594.8z M465.3,506.1
	c43.6,43.6,87.4,87.7,131.5,131.6c14.9,14.8,33.6,15.2,46.6,1.9c13-13.2,12.1-31.4-2.9-46.6c-26.7-27.1-53.9-53.8-80.7-80.8
	c-16.9-17.1-33.5-34.6-49.8-51.5C494.3,476.6,480.4,490.8,465.3,506.1z M208.6,244.7c0,15.5,0.1,29.8-0.1,44.2
	c-0.1,9.2,4.3,12.8,13.2,12.8c55.5-0.1,111,0.2,166.5-0.6c4.3-0.1,11.8-6.8,12.3-11.1c1.5-14.6,0.6-29.5,0.6-45.3
	C336.8,244.7,273.9,244.7,208.6,244.7z M401.2,146.8c0-15.8-0.1-30.1,0-44.4c0.1-9.2-4.7-12.9-13.4-12.9c-55.5,0-111-0.2-166.4,0.4
	c-4.2,0-11.7,5.3-12,8.5c-1.2,16.1-0.6,32.3-0.6,48.4C273.7,146.8,336.3,146.8,401.2,146.8z M400.5,167.6c-64.9,0-127.8,0-191,0
	c0,19.2,0,37.4,0,55.8c64.2,0,127.5,0,191,0C400.5,204.3,400.5,186.5,400.5,167.6z M334.5,470.4c53.9-0.1,117.5-55.5,136.7-118.5
	c19.3-63.4-2.9-143.9-48.3-174.8c-3.6,19-3.4,20.2,6.5,33.8c61.4,84.5,24.5,202.8-74.3,235.9C342.7,451,336.2,456.9,334.5,470.4z
	 M169.9,406.8c10.7-11.3,10.7-12,3.6-24.5c-34.1-60.3-30.5-118.3,9.2-175c5.6-8,5.8-19.7,8.5-29.7
	C113.7,238.1,118.2,356.1,169.9,406.8z M458.2,479.2c8.4-8.5,16.2-16.3,22.8-23c-9.3-9.3-18.9-18.9-27.8-27.8
	c-7.5,6.8-15.8,14.2-23.6,21.2C439.7,460.1,449,469.6,458.2,479.2z"/>
<linearGradient id="SVGID_00000060011791071236348380000005925217735470473348_" gradientUnits="userSpaceOnUse" x1="545.2523" y1="168.3138" x2="565.8088" y2="168.3138">
	<stop  offset="7.020930e-02" style="stop-color:#1E9CD7"/>
	<stop  offset="0.3735" style="stop-color:#0075BE"/>
	<stop  offset="0.9944" style="stop-color:#005B97"/>
</linearGradient>
<path style="fill:url(#SVGID_00000060011791071236348380000005925217735470473348_);" d="M545.7,174.8c0.2-5.1,0.5-10.2,0.8-16.6
	c6,0,11.7,0,18.6,0c0,7.1,0,13.7,0,20.2c0,0,0.7-0.6,0.7-0.6c-6.9-1.1-13.7-2.2-20.6-3.3L545.7,174.8z"/>
<linearGradient id="SVGID_00000114051487714567498660000015450359362972128949_" gradientUnits="userSpaceOnUse" x1="565.134" y1="186.4961" x2="584.2731" y2="186.4961">
	<stop  offset="7.020930e-02" style="stop-color:#1E9CD7"/>
	<stop  offset="0.3735" style="stop-color:#0075BE"/>
	<stop  offset="0.9944" style="stop-color:#005B97"/>
</linearGradient>
<path style="fill:url(#SVGID_00000114051487714567498660000015450359362972128949_);" d="M565.8,177.8c0,0-0.7,0.6-0.7,0.6
	c6.2-0.7,12.4-1.4,19.1-2.2c0,7.5,0,12.8,0,18.9c-6.2,0.4-11.6,0.7-17.1,1.1c0,0,0.3,0.5,0.3,0.5
	C566.9,190.4,566.4,184.1,565.8,177.8z"/>
<linearGradient id="SVGID_00000109019044709073000360000014932611140916151207_" gradientUnits="userSpaceOnUse" x1="613.2538" y1="99.8916" x2="632.5514" y2="99.8916">
	<stop  offset="7.020930e-02" style="stop-color:#1E9CD7"/>
	<stop  offset="0.3735" style="stop-color:#0075BE"/>
	<stop  offset="0.9944" style="stop-color:#005B97"/>
</linearGradient>
<path style="fill:url(#SVGID_00000109019044709073000360000014932611140916151207_);" d="M613.7,110.4c0-6.5,0-12.9,0-20.3
	c6.5-0.3,11.4-0.5,18.9-0.9c-0.3,7.8-0.6,14.5-1,21.2c0,0,0.6-0.6,0.6-0.6c-6.3,0-12.6,0-18.9,0L613.7,110.4z"/>
<linearGradient id="SVGID_00000100360066398818592840000000231705728300559028_" gradientUnits="userSpaceOnUse" x1="631.6007" y1="118.9705" x2="651.765" y2="118.9705">
	<stop  offset="7.020930e-02" style="stop-color:#1E9CD7"/>
	<stop  offset="0.3735" style="stop-color:#0075BE"/>
	<stop  offset="0.9944" style="stop-color:#005B97"/>
</linearGradient>
<path style="fill:url(#SVGID_00000100360066398818592840000000231705728300559028_);" d="M631.6,110.5c6.4-0.4,12.8-0.9,20.2-1.3
	c0,7,0,12.2,0,19.2c-7.2,0-13.7,0-20.1,0l0.5,0.4c0-6.3,0-12.6,0-18.9L631.6,110.5z"/>
<linearGradient id="SVGID_00000006704900472515882270000006081709192551430027_" gradientUnits="userSpaceOnUse" x1="622.3583" y1="369.3326" x2="641.7012" y2="369.3326">
	<stop  offset="7.020930e-02" style="stop-color:#1E9CD7"/>
	<stop  offset="0.3735" style="stop-color:#0075BE"/>
	<stop  offset="0.9944" style="stop-color:#005B97"/>
</linearGradient>
<path style="fill:url(#SVGID_00000006704900472515882270000006081709192551430027_);" d="M622.4,360.4c6.1,0,12.2,0,19.3,0
	c0,5.7,0,11,0,17.9c-6.5,0-12.9,0-19.3,0l0.6,0.5c0-6.3,0-12.6,0-18.9L622.4,360.4z"/>
<linearGradient id="SVGID_00000044172844759183899010000015025482930589397124_" gradientUnits="userSpaceOnUse" x1="545.2347" y1="205.2935" x2="567.5031" y2="205.2935">
	<stop  offset="7.020930e-02" style="stop-color:#1E9CD7"/>
	<stop  offset="0.3735" style="stop-color:#0075BE"/>
	<stop  offset="0.9944" style="stop-color:#005B97"/>
</linearGradient>
<path style="fill:url(#SVGID_00000044172844759183899010000015025482930589397124_);" d="M567.2,196.2c-0.9,5.8-1.9,11.7-2.9,18.1
	c-5.7,0-11,0-17.5,0c-0.4-6.2-0.8-12.1-1.1-18l-0.5,0.4c7.4,0,14.8,0,22.3,0L567.2,196.2z"/>
<linearGradient id="SVGID_00000019659876600521742220000004445393262227810195_" gradientUnits="userSpaceOnUse" x1="528.14" y1="185.6355" x2="545.7488" y2="185.6355">
	<stop  offset="7.020930e-02" style="stop-color:#1E9CD7"/>
	<stop  offset="0.3735" style="stop-color:#0075BE"/>
	<stop  offset="0.9944" style="stop-color:#005B97"/>
</linearGradient>
<path style="fill:url(#SVGID_00000019659876600521742220000004445393262227810195_);" d="M545.7,196.4c-5.5-0.3-11-0.6-17.6-0.9
	c0-6,0-11.7,0-17.8c5.9-0.9,11.8-1.9,17.6-2.8c0,0-0.5-0.3-0.5-0.3c0,7.4,0,14.8,0,22.2L545.7,196.4z"/>
<linearGradient id="SVGID_00000059293175672791276310000011585096707456255903_" gradientUnits="userSpaceOnUse" x1="408.988" y1="600.8331" x2="429.6231" y2="600.8331">
	<stop  offset="7.020930e-02" style="stop-color:#1E9CD7"/>
	<stop  offset="0.3735" style="stop-color:#0075BE"/>
	<stop  offset="0.9944" style="stop-color:#005B97"/>
</linearGradient>
<path style="fill:url(#SVGID_00000059293175672791276310000011585096707456255903_);" d="M409,591.8c6.5,0,13.1,0,20.6,0
	c0,5.8,0,11.1,0,18c-6.9,0-13.7,0-20.6,0c0,0,0.8,0.5,0.8,0.5c0-6.3,0-12.6,0-19L409,591.8z"/>
<linearGradient id="SVGID_00000132802720033265599060000010067590515301115538_" gradientUnits="userSpaceOnUse" x1="390.8379" y1="582.4684" x2="411.3721" y2="582.4684">
	<stop  offset="7.020930e-02" style="stop-color:#1E9CD7"/>
	<stop  offset="0.3735" style="stop-color:#0075BE"/>
	<stop  offset="0.9944" style="stop-color:#005B97"/>
</linearGradient>
<path style="fill:url(#SVGID_00000132802720033265599060000010067590515301115538_);" d="M391.2,591.8c0.3-5.9,0.7-11.9,1.1-18.7
	c6.1,0,11.4,0,19.1,0c-0.8,6.5-1.6,12.6-2.4,18.7c0,0,0.8-0.5,0.8-0.5c-6.3,0-12.6,0-18.9,0L391.2,591.8z"/>
<linearGradient id="SVGID_00000023996851764724029800000011063012606919830951_" gradientUnits="userSpaceOnUse" x1="390.8379" y1="619.0943" x2="411.871" y2="619.0943">
	<stop  offset="7.020930e-02" style="stop-color:#1E9CD7"/>
	<stop  offset="0.3735" style="stop-color:#0075BE"/>
	<stop  offset="0.9944" style="stop-color:#005B97"/>
</linearGradient>
<path style="fill:url(#SVGID_00000023996851764724029800000011063012606919830951_);" d="M409,609.8c0.9,5.7,1.8,11.4,2.9,18.5
	c-7.5,0-13.1,0-19.6,0c-0.4-6.6-0.7-12.6-1-18.5l-0.4,0.4c6.3,0,12.6,0,18.9,0C409.8,610.3,409,609.8,409,609.8z"/>
<linearGradient id="SVGID_00000133523347163694766400000011242178364040433820_" gradientUnits="userSpaceOnUse" x1="595.9183" y1="119.0193" x2="613.6715" y2="119.0193">
	<stop  offset="7.020930e-02" style="stop-color:#1E9CD7"/>
	<stop  offset="0.3735" style="stop-color:#0075BE"/>
	<stop  offset="0.9944" style="stop-color:#005B97"/>
</linearGradient>
<path style="fill:url(#SVGID_00000133523347163694766400000011242178364040433820_);" d="M613.6,128.4c-5.5,0-11,0-17.7,0
	c0-6.3,0-11.9,0-19.1c6.2,0.4,12,0.8,17.8,1.2c0,0-0.4-0.5-0.4-0.5c0,6.3,0,12.6,0,18.9L613.6,128.4z"/>
<linearGradient id="SVGID_00000140730413564306002810000018437812690167136405_" gradientUnits="userSpaceOnUse" x1="613.2251" y1="137.462" x2="632.8544" y2="137.462">
	<stop  offset="7.020930e-02" style="stop-color:#1E9CD7"/>
	<stop  offset="0.3735" style="stop-color:#0075BE"/>
	<stop  offset="0.9944" style="stop-color:#005B97"/>
</linearGradient>
<path style="fill:url(#SVGID_00000140730413564306002810000018437812690167136405_);" d="M631.6,128.4c0.4,5.8,0.8,11.6,1.2,18.2
	c-6.9,0-12.2,0-19.2,0c0-6.4,0-12.3,0-18.2c0,0-0.4,0.4-0.4,0.4c6.3,0,12.6,0,18.9,0L631.6,128.4z"/>
<linearGradient id="SVGID_00000162339033724427876540000010887657713869479074_" gradientUnits="userSpaceOnUse" x1="603.9877" y1="350.9634" x2="622.928" y2="350.9634">
	<stop  offset="7.020930e-02" style="stop-color:#1E9CD7"/>
	<stop  offset="0.3735" style="stop-color:#0075BE"/>
	<stop  offset="0.9944" style="stop-color:#005B97"/>
</linearGradient>
<path style="fill:url(#SVGID_00000162339033724427876540000010887657713869479074_);" d="M604.5,360.3c0-6,0-12.1,0-18.8
	c6.6,0,11.9,0,17.9,0c0,6.9,0,12.9,0,18.9c0,0,0.6-0.5,0.6-0.5c-6.3,0-12.6,0-18.9,0L604.5,360.3z"/>
<linearGradient id="SVGID_00000139281409317852180560000002012463873560435636_" gradientUnits="userSpaceOnUse" x1="586.4703" y1="369.3326" x2="604.4615" y2="369.3326">
	<stop  offset="7.020930e-02" style="stop-color:#1E9CD7"/>
	<stop  offset="0.3735" style="stop-color:#0075BE"/>
	<stop  offset="0.9944" style="stop-color:#005B97"/>
</linearGradient>
<path style="fill:url(#SVGID_00000139281409317852180560000002012463873560435636_);" d="M604.4,378.3c-5.6,0-11.1,0-18,0
	c0-5.6,0-11.2,0-18c6.1,0,12.1,0,18,0c0,0-0.5-0.5-0.5-0.5c0,6.3,0,12.6,0,18.9L604.4,378.3z"/>
<linearGradient id="SVGID_00000127747752636246064100000012303030533121171863_" gradientUnits="userSpaceOnUse" x1="603.9877" y1="387.7016" x2="622.928" y2="387.7016">
	<stop  offset="7.020930e-02" style="stop-color:#1E9CD7"/>
	<stop  offset="0.3735" style="stop-color:#0075BE"/>
	<stop  offset="0.9944" style="stop-color:#005B97"/>
</linearGradient>
<path style="fill:url(#SVGID_00000127747752636246064100000012303030533121171863_);" d="M622.4,378.3c0,6,0,12,0,18.9
	c-6,0-11.3,0-17.9,0c0-6.7,0-12.8,0-18.8c0,0-0.4,0.5-0.4,0.5c6.3,0,12.6,0,18.9,0C622.9,378.8,622.4,378.3,622.4,378.3z"/>
<linearGradient id="SVGID_00000179604852056259038660000016347963608143387566_" gradientUnits="userSpaceOnUse" x1="372.5865" y1="600.8331" x2="391.2501" y2="600.8331">
	<stop  offset="7.020930e-02" style="stop-color:#1E9CD7"/>
	<stop  offset="0.3735" style="stop-color:#0075BE"/>
	<stop  offset="0.9944" style="stop-color:#005B97"/>
</linearGradient>
<path style="fill:url(#SVGID_00000179604852056259038660000016347963608143387566_);" d="M391.2,609.9c-5.6,0-11.2,0-17.6,0
	c-0.4-3.2-0.9-6.1-1-9c-0.1-2.5,0.2-5,0.4-9c6.4,0,12.3,0,18.2,0c0,0-0.4-0.4-0.4-0.4c0,6.3,0,12.6,0,18.9L391.2,609.9z"/>
<linearGradient id="SVGID_00000065767104982306604170000003922647261227884956_" gradientUnits="userSpaceOnUse" x1="614.5396" y1="621.5987" x2="632.0193" y2="621.5987">
	<stop  offset="7.020930e-02" style="stop-color:#1E9CD7"/>
	<stop  offset="0.3735" style="stop-color:#0075BE"/>
	<stop  offset="0.9944" style="stop-color:#005B97"/>
</linearGradient>
<path style="fill:url(#SVGID_00000065767104982306604170000003922647261227884956_);" d="M624,632.6c-4.6-5.2-9.9-8.9-9.4-11.3
	c0.8-4,5.5-7.1,8.6-10.6c3.1,3.3,7.9,6.2,8.8,10C632.6,623.2,627.8,627.1,624,632.6z"/>
<linearGradient id="SVGID_00000098933399870847664270000003415360260724491455_" gradientUnits="userSpaceOnUse" x1="228.6555" y1="273.3733" x2="245.7037" y2="273.3733">
	<stop  offset="7.020930e-02" style="stop-color:#1E9CD7"/>
	<stop  offset="0.3735" style="stop-color:#0075BE"/>
	<stop  offset="0.9944" style="stop-color:#005B97"/>
</linearGradient>
<path style="fill:url(#SVGID_00000098933399870847664270000003415360260724491455_);" d="M245.7,282.1c-6.1,0-11.1,0-17,0
	c0-5.8,0-11.1,0-17.5c5.3,0,10.6,0,17,0C245.7,269.9,245.7,275.2,245.7,282.1z"/>
<linearGradient id="SVGID_00000127764561935855232480000007506668169256277666_" gradientUnits="userSpaceOnUse" x1="266.4768" y1="273.5235" x2="285.9643" y2="273.5235">
	<stop  offset="7.020930e-02" style="stop-color:#1E9CD7"/>
	<stop  offset="0.3735" style="stop-color:#0075BE"/>
	<stop  offset="0.9944" style="stop-color:#005B97"/>
</linearGradient>
<path style="fill:url(#SVGID_00000127764561935855232480000007506668169256277666_);" d="M266.5,264.2c7,0,11.9,0,18.6,0
	c0.3,5.3,0.5,10.6,0.9,17.6c-6.1,0.3-11.4,0.6-18.4,1C267.2,276.7,266.9,271.4,266.5,264.2z"/>
<linearGradient id="SVGID_00000038403703504437852730000007073237641589800848_" gradientUnits="userSpaceOnUse" x1="304.6781" y1="272.5719" x2="323.1295" y2="272.5719">
	<stop  offset="7.020930e-02" style="stop-color:#1E9CD7"/>
	<stop  offset="0.3735" style="stop-color:#0075BE"/>
	<stop  offset="0.9944" style="stop-color:#005B97"/>
</linearGradient>
<path style="fill:url(#SVGID_00000038403703504437852730000007073237641589800848_);" d="M323.1,263.3c0,7.2,0,12.5,0,18.6
	c-6.2,0-11.5,0-17.6,0c-0.3-5.7-0.5-10.7-0.8-17.4C310.6,264.1,316,263.8,323.1,263.3z"/>
<linearGradient id="SVGID_00000040555196627512890680000005871567483071959713_" gradientUnits="userSpaceOnUse" x1="228.342" y1="118.3015" x2="245.4717" y2="118.3015">
	<stop  offset="7.020930e-02" style="stop-color:#1E9CD7"/>
	<stop  offset="0.3735" style="stop-color:#0075BE"/>
	<stop  offset="0.9944" style="stop-color:#005B97"/>
</linearGradient>
<path style="fill:url(#SVGID_00000040555196627512890680000005871567483071959713_);" d="M228.3,127.6c0-5.9,0-10.8,0-17.5
	c5.1-0.3,10.4-0.7,17.1-1.1c0,6.5,0,12.2,0,18.6C240.1,127.6,235.1,127.6,228.3,127.6z"/>
<linearGradient id="SVGID_00000000194306940348602520000005335443788167331738_" gradientUnits="userSpaceOnUse" x1="267.9814" y1="118.2901" x2="284.9893" y2="118.2901">
	<stop  offset="7.020930e-02" style="stop-color:#1E9CD7"/>
	<stop  offset="0.3735" style="stop-color:#0075BE"/>
	<stop  offset="0.9944" style="stop-color:#005B97"/>
</linearGradient>
<path style="fill:url(#SVGID_00000000194306940348602520000005335443788167331738_);" d="M268,109.1c6.3,0.3,11.3,0.5,17,0.8
	c0,6.2,0,11.5,0,17.6c-6,0-11.3,0-17,0C268,121.1,268,115.5,268,109.1z"/>
<linearGradient id="SVGID_00000003816842222770061290000007580986585543093644_" gradientUnits="userSpaceOnUse" x1="305.5614" y1="118.3015" x2="322.691" y2="118.3015">
	<stop  offset="7.020930e-02" style="stop-color:#1E9CD7"/>
	<stop  offset="0.3735" style="stop-color:#0075BE"/>
	<stop  offset="0.9944" style="stop-color:#005B97"/>
</linearGradient>
<path style="fill:url(#SVGID_00000003816842222770061290000007580986585543093644_);" d="M305.6,127.6c0-5.9,0-10.8,0-17.5
	c5.1-0.3,10.4-0.7,17.1-1.1c0,6.5,0,12.2,0,18.6C317.3,127.6,312.3,127.6,305.6,127.6z"/>
<linearGradient id="SVGID_00000090296956814610441620000013192463861319999627_" gradientUnits="userSpaceOnUse" x1="324.8888" y1="195.9654" x2="342.9785" y2="195.9654">
	<stop  offset="7.020930e-02" style="stop-color:#1E9CD7"/>
	<stop  offset="0.3735" style="stop-color:#0075BE"/>
	<stop  offset="0.9944" style="stop-color:#005B97"/>
</linearGradient>
<path style="fill:url(#SVGID_00000090296956814610441620000013192463861319999627_);" d="M324.9,204.3c0-5.3,0-10.3,0-16.6
	c5.9,0,11.6,0,18.1,0c0,5.4,0,10.4,0,16.6C337.1,204.3,331.4,204.3,324.9,204.3z"/>
<linearGradient id="SVGID_00000014634562723413077660000007293442536574014649_" gradientUnits="userSpaceOnUse" x1="364.0991" y1="196.2085" x2="381.0044" y2="196.2085">
	<stop  offset="7.020930e-02" style="stop-color:#1E9CD7"/>
	<stop  offset="0.3735" style="stop-color:#0075BE"/>
	<stop  offset="0.9944" style="stop-color:#005B97"/>
</linearGradient>
<path style="fill:url(#SVGID_00000014634562723413077660000007293442536574014649_);" d="M381,205c-6,0-10.9,0-16.9,0
	c0-5.8,0-11.2,0-17.6c5.3,0,10.6,0,16.9,0C381,192.7,381,198,381,205z"/>
<linearGradient id="SVGID_00000005964407578241833200000000131563929785865653_" gradientUnits="userSpaceOnUse" x1="286.9193" y1="195.9412" x2="304.261" y2="195.9412">
	<stop  offset="7.020930e-02" style="stop-color:#1E9CD7"/>
	<stop  offset="0.3735" style="stop-color:#0075BE"/>
	<stop  offset="0.9944" style="stop-color:#005B97"/>
</linearGradient>
<path style="fill:url(#SVGID_00000005964407578241833200000000131563929785865653_);" d="M304.3,187.5c0,5.9,0,10.9,0,17
	c-5.6,0-10.9,0-17.3,0c0-5.1,0-10.5,0-17C292.1,187.5,297.4,187.5,304.3,187.5z"/>
<linearGradient id="SVGID_00000049906162936764223290000016088291129462403516_" gradientUnits="userSpaceOnUse" x1="150.3991" y1="523.6539" x2="285.784" y2="523.6539">
	<stop  offset="7.020930e-02" style="stop-color:#1E9CD7"/>
	<stop  offset="0.3735" style="stop-color:#0075BE"/>
	<stop  offset="0.9944" style="stop-color:#005B97"/>
</linearGradient>
<path style="fill:url(#SVGID_00000049906162936764223290000016088291129462403516_);" d="M285.8,523.1c0.4,36.9-30.5,68.1-67.5,68.2
	c-36.4,0.1-67.1-29.9-67.9-66.3c-0.8-37,29.6-68.4,66.7-69C254.1,455.4,285.4,486,285.8,523.1z M248,485.5
	c-17.6,18.6-33.6,35.5-49.5,52.3c-4.9-4-8.8-7.2-13-10.6c-4.2,4.5-8,8.6-10.8,11.5c8.9,8.9,17.1,17,23,23
	c20.6-20.6,41.5-41.5,63.2-63.2C258.7,496.2,255.1,492.6,248,485.5z"/>
</svg>
