<?xml version="1.0" encoding="utf-8"?>
<!-- Generator: Adobe Illustrator 26.0.1, SVG Export Plug-In . SVG Version: 6.00 Build 0)  -->
<svg version="1.1" id="Layer_1" xmlns="http://www.w3.org/2000/svg" xmlns:xlink="http://www.w3.org/1999/xlink" x="0px" y="0px"
	 viewBox="0 0 720 720" style="enable-background:new 0 0 720 720;" xml:space="preserve">
<style type="text/css">
	.st0{fill:url(#SVGID_1_);}
	.st1{fill:url(#SVGID_00000089560010732696989230000000463556286516813234_);}
	.st2{fill:url(#SVGID_00000001633659232341912240000006469071442752871572_);}
	.st3{fill:url(#SVGID_00000106858377345735699950000010094892440929516953_);}
	.st4{fill:url(#SVGID_00000133503796188154481020000011881560698665457087_);}
	.st5{fill:url(#SVGID_00000152261543974501257530000006523560788662684586_);}
</style>
<linearGradient id="SVGID_1_" gradientUnits="userSpaceOnUse" x1="90.1738" y1="452.6114" x2="627.6623" y2="452.6114">
	<stop  offset="8.379889e-03" style="stop-color:#047AC1"/>
	<stop  offset="0.221" style="stop-color:#1E9CD7"/>
	<stop  offset="0.4238" style="stop-color:#0075BE"/>
	<stop  offset="0.6564" style="stop-color:#0064A4"/>
	<stop  offset="0.8128" style="stop-color:#005F9C"/>
	<stop  offset="0.9944" style="stop-color:#005B97"/>
</linearGradient>
<path class="st0" d="M487.7,592.5c0,36.1,0,71.4,0,107c-85.9,0-171.3,0-257.5,0c0-35.3,0-70.7,0-107c-16.5,2-32.2,3.6-47.7,6
	c-50.4,7.6-92.1-28-92.2-79c-0.1-57.3-0.1-114.6,0-171.9c0-21,13.5-34.4,34.3-34.5c6.7,0,13.4-0.1,20.1,0
	c17,0.5,30.6,13.7,31.3,30.7c0.2,4.1,1.4,6.2,5,8.2c18.8,10.6,23.1,34.8,7.3,49.4c-10.2,9.4-12.8,19.3-12.4,32.3
	c0.8,24.4,0.2,48.8,0.2,73.2c0,8.1,2.1,9.9,10.2,8.7c9.9-1.5,19.8-3.2,30.4-4.9c-2.6-3.6-4.6-6.4-6.7-9.3
	c-23.2-32.7-11.8-79.2,16.5-96.5c1.9-1.1,3.1-4.7,3.1-7.1c0.2-22.6,0.1-45.2,0.2-67.8c0.3-70.7,56.6-125.6,127.3-124.3
	c63.7,1.2,117.7,54.7,119.9,118.4c0.1,3.9,1.7,8.3,4,11.5c19.4,27.4,20.6,57.2,13,88.6c-2.7,11.2-4.2,22.8-6.2,34.2
	c-1.2,6.8,1.6,12.2,6.7,16.6c5.1,4.4,10.6,8.4,15,13.4c6.4,7.3,12.5,15,17.6,23.3c2.7,4.3,6,5,9.3,4c2.1-0.7,4.8-4.3,4.8-6.6
	c0.3-30.4,0.3-60.9,0.1-91.3c0-2-1.1-4.3-2.4-5.8c-3.2-3.7-7-6.9-10.3-10.6c-14.1-15.5-10.7-38.4,7.4-48.8c4-2.3,5.5-4.6,5.7-9.2
	c0.7-16.3,14.2-29.4,30.5-30c8-0.3,16.1-0.3,24.2,0c16.9,0.6,30.9,14.1,30.9,31.1c0.2,60.4,0.8,120.9-0.2,181.3
	c-0.7,46.1-43.7,79.9-90.5,73.2C520.7,596.5,504.7,594.7,487.7,592.5z M243,535.5c-5.5,14.4-1.5,26.3,9.5,36.7
	c12.5,11.8,24.7,23.8,37.7,36.4c17.2-11,30.8-26.2,35.2-48.3c3.2-16.1,0.1-30.2-12.6-41.4c-3.5-3.1-7.2-6-9.8-8.2
	c4.5-7.6,8.2-13.3,11.3-19.4c2.2-4.5,0.6-7.7-4-10.9c-24.2-16.9-36.8-40.4-37.3-69.9c-0.4-25.5,0-51-0.2-76.5c0-3.9,1.3-6,4.5-8.1
	c11.1-7.2,22.1-14.4,32.9-22c4-2.8,6.9-3.1,11.2-0.2c15.5,10.7,32.7,17.9,51.6,19c21.2,1.2,42.5,0.9,63.7,1.2c2.6,0,5.2,0,8.1,0
	c0,28.4-0.1,55.9,0,83.4c0.1,26.6-9.5,48.8-29,66.8c-1.5,1.4-3,3.5-3.1,5.4c-0.4,5.8-0.1,11.6-0.1,17.8c29.5,4.5,58.6,9,87.6,13.5
	c0.7-0.8,1.3-1.6,2-2.5c-2.1-1.2-4.4-2.2-6.3-3.7c-5-4.1-9.9-8.4-14.7-12.7c-10.7-9.5-16.9-21-14.7-35.6c2-13.2,4.3-26.5,7.1-39.5
	c4.7-21.3,7-43-6.3-61.5c-9.3-12.9-11.6-26.2-13.3-41.1c-5.7-49-50-86.9-100.3-87c-50.7-0.1-95.2,37.7-100.9,87.1
	c-2.1,18.6-1.2,37.5-1.4,56.3c-0.2,15.6,0,31.2,0,44.9c-7.5,5.1-14.6,8.4-19.8,13.6c-15.5,15.5-17.3,42.8-2.8,61
	c8.5,10.7,19,20.2,30.1,28.2c11.8,8.6,25.4,14.8,38.8,22.4c-2.1,5.6-4.5,12-7,18.5c-1.6-0.4-2.5-0.5-3.2-0.9
	C272.8,550.8,258.1,543.2,243,535.5z M466.3,569.3c24.5,2.7,47.8,4.7,71,8c38.9,5.5,68.7-19.6,68.7-58.7c0-30.2,0-60.4,0-90.6
	c0-2.4,0-4.7,0-7c-14.8,0-28.6,0-43,0c0,2.7,0,5.1,0,7.5c0,26.6,0.1,53.3,0,79.9c-0.1,19.3-13.8,31.5-32.8,28.8
	c-18.4-2.6-36.7-5.7-55-8.5c-15.4-2.4-30.8-4.7-46.6-7.1c-6.9,30.8-13.6,61-20.4,91.2c-0.9,0.6-1.7,1.2-2.6,1.7
	c-4.6-5.8-9.1-11.7-13.7-17.5c-0.5,0.4-1.1,0.9-1.6,1.3c3.4,26.5,6.7,53.1,10.1,79.7c22.1,0,43.7,0,65.8,0
	C466.3,642.3,466.3,607.1,466.3,569.3z M422.1,345.3c-12,0-24.3,0.1-36.6,0c-22.8-0.2-44.2-5.8-64.3-16.4c-2.2-1.2-6-2.1-7.6-1
	c-6.7,4.4-12.8,9.7-19.1,14.7c-0.2,0.2,0,0.9,0,1.3c0,23.3-0.5,46.6,0.3,69.8c1.1,32,28.1,58.6,60.1,60.5
	c32.9,1.9,63.5-20.8,66.9-53C424.2,396.4,422.1,371.2,422.1,345.3z M111.7,420.9c0,32.9,0,65.3,0,97.7c0,2.9-0.1,5.8,0.3,8.7
	c3.2,22.7,15.2,38.8,36.7,47.2c4.9,1.9,10.5,3.5,15.6,3.2c20-1.3,39.8-3.5,61.1-5.5c-7.4-13.5-7-26.4-4.2-40.2
	c-11.4,1.8-22,3.5-32.5,5.1c-19.6,3.1-33.8-9-33.9-28.9c-0.1-26.4,0-52.8,0-79.2c0-2.6,0-5.2,0-8.1
	C140.2,420.9,126.4,420.9,111.7,420.9z M251.9,601.3c0,26.1,0,51.5,0,76.7c21.8,0,43.1,0,64.8,0c1.7-22.1,3.3-43.7,4.9-64.8
	c-14.7,9.3-28.9,18.4-44.2,28.1C273.6,623.8,265.3,611.2,251.9,601.3z M347.2,561c-3,38.9-6,77.9-8.9,117c14.2,0,27.2,0,40.5,0
	c-4.5-35-8.8-69.5-13.3-104.1C364.6,567,354.4,559.8,347.2,561z M111.7,399.1c16.1,0,31.4,0.1,46.8-0.1c1.5,0,3.3-1.1,4.5-2.2
	c3.3-3,6.5-6.1,9.5-9.4c5.5-6,5-13.8-2.5-16.5c-12.4-4.6-17.8-11.8-15.7-25.3c1-6.5-4.1-10.7-10.9-10.9c-6.9-0.2-13.9-0.2-20.8,0
	c-6.7,0.2-10.9,4.3-10.9,11.1C111.6,363.2,111.7,380.6,111.7,399.1z M605.9,399.1c0-18.5,0.1-36.1-0.1-53.7
	c-0.1-6.4-4.3-10.4-10.6-10.7c-7.1-0.3-14.3-0.3-21.5,0c-6.4,0.2-10.3,4.3-10.7,10.6c-0.2,2.9-0.5,5.9,0,8.7c1.3,7-2.2,10.2-8.1,13
	c-17.2,8-17.9,12.6-4.4,25.8c2.6,2.5,5.9,5.9,8.9,6C574.7,399.4,589.8,399.1,605.9,399.1z M336.4,492.7c-1.3,4.1-2.6,7.2-3.3,10.5
	c-0.4,1.9-0.6,4.4,0.3,6c5.1,9.5,10.5,18.8,16.7,29.9c1.6-0.9,5.4-2,8-4.4c9.3-8.7,17.8-18.4,27.3-26.8c6-5.3,6.3-10.9,5.1-18.2
	C372.6,496.3,354.9,497.7,336.4,492.7z M395.9,569.6c3.8-17.1,7.5-33.9,11.1-50.4c-10.6,10.6-21,21-30.8,30.8
	C382.2,555.9,388.8,562.5,395.9,569.6z"/>
<linearGradient id="SVGID_00000106862345377929030490000001156985767044519569_" gradientUnits="userSpaceOnUse" x1="25.8516" y1="162.694" x2="219.1939" y2="162.694">
	<stop  offset="8.379889e-03" style="stop-color:#047AC1"/>
	<stop  offset="0.221" style="stop-color:#1E9CD7"/>
	<stop  offset="0.4238" style="stop-color:#0075BE"/>
	<stop  offset="0.6564" style="stop-color:#0064A4"/>
	<stop  offset="0.8128" style="stop-color:#005F9C"/>
	<stop  offset="0.9944" style="stop-color:#005B97"/>
</linearGradient>
<path style="fill:url(#SVGID_00000106862345377929030490000001156985767044519569_);" d="M122.4,33.8c42.1,0.1,79.3,27.3,92.2,67.4
	c12.8,40.1-1.6,83.8-36.4,108.1c-9.3,6.5-13.4,14.2-12.9,25.4c0.3,7.8,0.3,15.8-1.2,23.4c-4.2,21.1-23.9,35.4-45.3,33.6
	c-21.5-1.8-38.6-19.8-39.2-41.4c-0.2-5.6-0.3-11.2,0-16.8c0.5-10.3-3.7-17.7-12.2-23.7c-27.5-19.4-41.5-46.3-41.5-80
	C25.9,76.9,69.8,33.7,122.4,33.8z M144,226.9c1.5-16.2,9.9-27.1,22.6-35.9c18.9-13.2,29-32,30.8-54.9c2.9-35.4-20.2-68.3-54.1-78
	c-34.7-9.9-71.4,6.1-88,38.3c-16.3,31.7-8.1,71.1,20.8,92.8c13.1,9.9,23.5,20.5,24.7,37.5c3.9,0,7.1,0,10.8,0
	c0-21.2,0.1-42-0.2-62.7c0-1.7-2.2-4.1-3.9-5.1c-10.5-6.1-16.6-14.9-17.3-27c-0.9-16.1,10.3-30,26.4-33.2c14.7-2.9,30,5.6,35.7,20
	c5.8,14.8,0.2,31.6-13.9,39.3c-4.3,2.3-5.4,4.8-5.3,9.3c0.3,11,0.1,21.9,0.1,32.9c0,8.9,0,17.8,0,26.8
	C137.1,226.9,140.2,226.9,144,226.9z M101.2,248.9c1.2,13.6,11.2,22.4,23.4,21.2c11-1.1,19.5-10.7,18.5-21.2
	C129.3,248.9,115.4,248.9,101.2,248.9z M122.8,119.8c-5.8-0.2-10.8,4.6-11,10.4c-0.2,5.8,4.5,10.8,10.4,11c5.8,0.2,10.8-4.6,11-10.4
	C133.3,125,128.6,119.9,122.8,119.8z"/>
<linearGradient id="SVGID_00000117658256433765603100000015904796122670002064_" gradientUnits="userSpaceOnUse" x1="455.5177" y1="151.9604" x2="691.924" y2="151.9604">
	<stop  offset="8.379889e-03" style="stop-color:#047AC1"/>
	<stop  offset="0.221" style="stop-color:#1E9CD7"/>
	<stop  offset="0.4238" style="stop-color:#0075BE"/>
	<stop  offset="0.6564" style="stop-color:#0064A4"/>
	<stop  offset="0.8128" style="stop-color:#005F9C"/>
	<stop  offset="0.9944" style="stop-color:#005B97"/>
</linearGradient>
<path style="fill:url(#SVGID_00000117658256433765603100000015904796122670002064_);" d="M611.8,243.8c-3.2,9.3-6.1,17.7-8.9,26.1
	c-19.6,0-38.8,0-58.3,0c-2.9-8.5-5.8-16.9-8.9-26c-7.1,3.5-13.9,6.7-20.5,10.2c-3.1,1.6-5,1.5-7.6-1.1
	c-11.6-11.8-23.5-23.4-34.9-35.3c-1.3-1.4-1.8-4.9-1-6.7c2.9-7,6.5-13.6,10.2-21.1c-7.7-2.6-14.9-4.7-21.9-7.5
	c-1.8-0.7-4.2-3-4.2-4.6c-0.3-18.3-0.2-36.6-0.2-55.1c8.8-3,17.2-5.9,26.3-9c-3.5-7-6.6-13.6-10.1-20.1c-1.7-3.1-1.9-5.3,1-8.1
	C484.5,74.3,496,62.7,507.4,51c2.7-2.8,4.9-2.8,8.1-1.1c6.5,3.5,13.1,6.6,20.1,10.1c3.1-9,5.9-17.4,8.9-26c19.3,0,38.5,0,58.4,0
	c2.9,8.4,5.9,16.9,9,26.1c7-3.5,13.7-6.7,20.1-10.2c3.2-1.8,5.4-1.7,8.1,1.1c11.4,11.7,23,23.2,34.6,34.7c2.5,2.5,2.9,4.4,1.2,7.5
	c-3.5,6.5-6.6,13.1-10.3,20.5c8.9,3.1,17.4,6,26.2,9.1c0,18.5,0.1,36.8-0.2,55.1c0,1.6-2.5,3.9-4.3,4.6c-6.8,2.7-13.9,4.8-21.9,7.5
	c3.4,6.9,6.5,13.4,10,19.8c1.8,3.3,2.1,5.7-1.1,8.7c-11.6,11.2-23,22.6-34.2,34.2c-3,3.1-5.3,2.9-8.7,1.1
	C625.4,250.4,618.9,247.4,611.8,243.8z M515.5,229.8c6.3-3.1,12.6-6.4,19.1-9.4c1.8-0.8,4.4-1.3,6.2-0.8c7,2,13.2,5.1,14.2,13.7
	c0.4,3.3,2.2,6.3,3,9.6c1,4.4,3.1,6.3,7.9,5.8c7.1-0.6,15.9,1.9,20.8-1.5c4.6-3.2,5.1-12.3,7.4-18.8c2.2-6.3,13.2-10.9,19.2-8
	c6.4,3.1,12.7,6.3,18.4,9.1c7-6.7,13.4-12.9,20-19.3c-3.2-6.4-6.5-12.7-9.4-19.2c-0.8-1.8-1.3-4.3-0.7-6.2c2-7,5.1-13.2,13.7-14.2
	c3.3-0.4,6.3-2.2,9.6-3c4.4-1,6.2-3.2,5.8-8c-0.6-7.1,1.9-15.9-1.5-20.8c-3.2-4.6-12.3-5.2-18.8-7.5c-6.4-2.3-10.9-13.1-8-19.1
	c3.1-6.4,6.3-12.7,9.1-18.3c-6.8-7-13-13.4-19.3-20c-6.2,3.1-12.3,6.3-18.6,9.2c-1.9,0.9-4.4,1.7-6.2,1.2c-7.2-2-13.8-4.9-14.8-13.9
	c-0.4-3.3-2.2-6.3-3-9.6c-1-4.4-3.2-6.2-7.9-5.8c-7.1,0.6-15.9-1.9-20.8,1.5c-4.6,3.2-5.1,12.3-7.4,18.8c-2.3,6.4-13,10.9-19.1,8
	c-6.4-3.1-12.7-6.3-18.4-9.1c-7,6.8-13.3,13-19.9,19.4c2.9,5.8,5.5,11.7,8.7,17.3c2.3,3.9,1.7,7.1,0.5,11.3c-2,6.4-6,9.3-12,10.8
	c-4.3,1.1-8.6,2.5-12.7,4.3c-1.4,0.6-3,2.6-3.1,4.1c-2.6,23.2-2.5,23.2,19.4,30.7c0.2,0.1,0.4,0.1,0.6,0.2c6.3,2.3,10.9,13.1,8,19.2
	c-3.1,6.4-6.3,12.7-9.3,18.7C502.5,216.8,508.7,223,515.5,229.8z"/>
<linearGradient id="SVGID_00000044155042025626211590000016902328709587207586_" gradientUnits="userSpaceOnUse" x1="283.6367" y1="108.9569" x2="434.0156" y2="108.9569">
	<stop  offset="8.379889e-03" style="stop-color:#047AC1"/>
	<stop  offset="0.221" style="stop-color:#1E9CD7"/>
	<stop  offset="0.4238" style="stop-color:#0075BE"/>
	<stop  offset="0.6564" style="stop-color:#0064A4"/>
	<stop  offset="0.8128" style="stop-color:#005F9C"/>
	<stop  offset="0.9944" style="stop-color:#005B97"/>
</linearGradient>
<path style="fill:url(#SVGID_00000044155042025626211590000016902328709587207586_);" d="M358.8,184.1c-41.3,0-75.2-33.9-75.2-75.2
	c0-41.4,33.9-75.2,75.2-75.2c41.4,0,75.2,33.8,75.2,75.2C434,150.3,400.2,184.2,358.8,184.1z M412.5,109.2c0.1-29.7-24-53.9-53.6-54
	c-29.4,0-53.6,23.8-53.8,53.1c-0.3,29.7,23.7,54.1,53.3,54.3C388,162.9,412.4,138.8,412.5,109.2z"/>
<linearGradient id="SVGID_00000115509969746639413400000010246157424212058550_" gradientUnits="userSpaceOnUse" x1="520.0176" y1="151.9347" x2="627.4194" y2="151.9347">
	<stop  offset="8.379889e-03" style="stop-color:#047AC1"/>
	<stop  offset="0.221" style="stop-color:#1E9CD7"/>
	<stop  offset="0.4238" style="stop-color:#0075BE"/>
	<stop  offset="0.6564" style="stop-color:#0064A4"/>
	<stop  offset="0.8128" style="stop-color:#005F9C"/>
	<stop  offset="0.9944" style="stop-color:#005B97"/>
</linearGradient>
<path style="fill:url(#SVGID_00000115509969746639413400000010246157424212058550_);" d="M573.5,205.6
	c-29.6-0.1-53.6-24.5-53.4-54.1c0.2-29.6,24.6-53.5,54.3-53.3c29.3,0.2,53.1,24.4,53.1,53.8C627.4,181.6,603.1,205.8,573.5,205.6z
	 M605.9,152.1c0.1-17.6-14.2-32.1-31.7-32.3c-17.9-0.2-32.6,14.3-32.7,32.1c-0.1,17.8,14.6,32.5,32.4,32.4
	C591.4,184.1,605.9,169.6,605.9,152.1z"/>
<linearGradient id="SVGID_00000166677265370125737550000002716343916133946539_" gradientUnits="userSpaceOnUse" x1="320.464" y1="111.6784" x2="397.3487" y2="111.6784">
	<stop  offset="8.379889e-03" style="stop-color:#047AC1"/>
	<stop  offset="0.221" style="stop-color:#1E9CD7"/>
	<stop  offset="0.4238" style="stop-color:#0075BE"/>
	<stop  offset="0.6564" style="stop-color:#0064A4"/>
	<stop  offset="0.8128" style="stop-color:#005F9C"/>
	<stop  offset="0.9944" style="stop-color:#005B97"/>
</linearGradient>
<path style="fill:url(#SVGID_00000166677265370125737550000002716343916133946539_);" d="M347.1,117.2c13.5-13.6,24.9-25.2,36.6-37
	c4.8,5.1,9.3,9.9,13.6,14.5c-16.4,16.2-33.1,32.6-49.1,48.4c-8.5-8.5-18.1-18-27.8-27.7c3.9-3.8,8.7-8.4,14.6-14.1
	C338.7,106,342.4,111,347.1,117.2z"/>
</svg>
