<?xml version="1.0" encoding="utf-8"?>
<!-- Generator: Adobe Illustrator 26.0.1, SVG Export Plug-In . SVG Version: 6.00 Build 0)  -->
<svg version="1.1" id="Layer_1" xmlns="http://www.w3.org/2000/svg" xmlns:xlink="http://www.w3.org/1999/xlink" x="0px" y="0px"
	 viewBox="0 0 720 720" style="enable-background:new 0 0 720 720;" xml:space="preserve">
<style type="text/css">
	.st0{fill:url(#SVGID_1_);}
	.st1{fill:url(#SVGID_00000063602082950660151050000010479555534496553406_);}
	.st2{fill:url(#SVGID_00000031184394105397348100000001294474883815411847_);}
	.st3{fill:url(#SVGID_00000042003286659130946040000012676188416713305257_);}
	.st4{fill:url(#SVGID_00000090994599622862000130000004944022017950647425_);}
	.st5{fill:url(#SVGID_00000049194806295247421570000000380279154990697856_);}
	.st6{fill:url(#SVGID_00000160176593247795519790000013608147055750445228_);}
	.st7{fill:url(#SVGID_00000072247015592906551870000015170566154670074774_);}
	.st8{fill:url(#SVGID_00000119086656242757383360000005232065941739481732_);}
	.st9{fill:url(#SVGID_00000022540918598659183340000001000029122122998433_);}
	.st10{fill:url(#SVGID_00000007415242538808269170000009060332054730102451_);}
</style>
<linearGradient id="SVGID_1_" gradientUnits="userSpaceOnUse" x1="279.9529" y1="459.0306" x2="647.7639" y2="459.0306">
	<stop  offset="0" style="stop-color:#047AC1"/>
	<stop  offset="0.1704" style="stop-color:#128CCD"/>
	<stop  offset="0.3663" style="stop-color:#1E9CD7"/>
	<stop  offset="0.4909" style="stop-color:#0075BE"/>
	<stop  offset="0.7067" style="stop-color:#0063A3"/>
	<stop  offset="0.9944" style="stop-color:#005B97"/>
	<stop  offset="1" style="stop-color:#CCE0F4"/>
</linearGradient>
<path class="st0" d="M280.3,521.2c72.5,33.1,142.4,28.9,202.6-24.4c69.3-61.3,80.2-137.7,44-221.4c9.4,1.1,19.4,2.2,29.3,3.2
	c1.5,0.2,2.9,0,4.4-0.1c11.2-0.3,11.2-0.3,14.8,10.2c1.4,4.2,2.4,8.6,4.3,12.5c5.4,11.2,14.5,17.3,27,17.7c9.7,0.3,19.4,0,29,0.1
	c8.2,0.1,11.9,3.8,11.9,12c0.1,18.9,0.1,37.9,0,56.8c0,8.2-3.8,11.9-12,11.9c-9.5,0.1-18.9-0.1-28.4,0.1c-13.3,0.2-24,8.3-28.8,20.7
	c-6.1,15.6-12.5,31.2-19.2,46.5c-5.5,12.4-3.9,25.2,5.5,35c6.6,6.8,13.4,13.4,20,20.1c6,6.2,6,11.2-0.1,17.4
	c-13.2,13.3-26.4,26.5-39.7,39.7c-6.1,6.1-11.2,6-17.4-0.1c-6.6-6.5-13-13.2-19.7-19.6c-10.2-9.9-23.1-11.4-36.1-5.6
	c-14.9,6.7-30.1,12.9-45.4,18.8c-12.7,4.8-21,15.5-21.2,29.2c-0.1,9.3,0,18.5,0,27.8c-0.1,8.7-3.6,12.5-12.1,12.5
	c-18.9,0.1-37.9,0.1-56.8,0c-8.2,0-11.8-3.8-11.9-12.1c-0.1-9.3,0.1-18.5,0-27.8c-0.1-13.8-7.9-24.7-20.8-29.4
	c-5.7-2.1-11.6-3.8-17.2-6.1c-1.4-0.5-3.2-2.6-3.1-3.7c1.9-14-0.1-27.7-3.2-41.3C279.9,521.9,280.2,521.5,280.3,521.2z"/>
<linearGradient id="SVGID_00000104668358397438731220000003082017272036768396_" gradientUnits="userSpaceOnUse" x1="81.6448" y1="260.4188" x2="449.061" y2="260.4188">
	<stop  offset="0" style="stop-color:#047AC1"/>
	<stop  offset="0.1704" style="stop-color:#128CCD"/>
	<stop  offset="0.3663" style="stop-color:#1E9CD7"/>
	<stop  offset="0.4909" style="stop-color:#0075BE"/>
	<stop  offset="0.7067" style="stop-color:#0063A3"/>
	<stop  offset="0.9944" style="stop-color:#005B97"/>
	<stop  offset="1" style="stop-color:#CCE0F4"/>
</linearGradient>
<path style="fill:url(#SVGID_00000104668358397438731220000003082017272036768396_);" d="M449.1,197.7
	c-78.2-34.5-151.4-27.3-212.6,34.1C175.4,293,168.4,366,203,444.3c-5.7-1-11.4-2.2-17.2-2.8c-5.8-0.6-11.7-0.9-17.6-0.9
	c-10.6,0.1-11.3,0.5-13.9-9.7c-5.6-21.4-14.7-32.8-43.6-31c-6.1,0.4-12.2,0.2-18.3,0c-6.7-0.2-10.7-4-10.7-10.6
	c-0.1-19.8-0.1-39.6,0-59.4c0.1-7,4.1-10.7,11.2-10.8c9.3-0.1,18.5,0,27.8,0c15-0.1,25.3-8,30.6-21.8c5.6-14.9,11.7-29.7,18.3-44.2
	c6.3-13.8,4.8-26.3-5.8-37.1c-6.5-6.6-13.2-13-19.6-19.7c-5.5-5.7-5.6-10.8,0-16.5c13.5-13.6,27-27.2,40.6-40.6
	c5.7-5.6,10.8-5.6,16.5-0.1c6.7,6.4,13.1,13.1,19.7,19.6c10.7,10.5,23.3,12.1,37.1,5.8c14.3-6.5,28.9-12.6,43.6-18.1
	c14.7-5.6,22.5-15.6,22.5-31.3c0-9.1-0.1-18.1,0-27.2c0.1-7.5,3.9-11.3,11.3-11.3c19.4-0.1,38.7-0.1,58.1,0
	c7.5,0,11.2,3.9,11.3,11.3c0.1,9.5,0,18.9,0.1,28.4c0.1,14.1,8.1,25.1,21.3,29.6c6.3,2.2,14.8,2.8,18.3,7.3c3.1,4,0.4,12.3,0.9,18.7
	C446.5,180.6,448,189.3,449.1,197.7z"/>
<linearGradient id="SVGID_00000050642615667751932450000009960754262020118205_" gradientUnits="userSpaceOnUse" x1="404.9124" y1="271.052" x2="647.7485" y2="271.052">
	<stop  offset="0" style="stop-color:#047AC1"/>
	<stop  offset="0.1704" style="stop-color:#128CCD"/>
	<stop  offset="0.3663" style="stop-color:#1E9CD7"/>
	<stop  offset="0.4909" style="stop-color:#0075BE"/>
	<stop  offset="0.7067" style="stop-color:#0063A3"/>
	<stop  offset="0.9944" style="stop-color:#005B97"/>
	<stop  offset="1" style="stop-color:#CCE0F4"/>
</linearGradient>
<path style="fill:url(#SVGID_00000050642615667751932450000009960754262020118205_);" d="M646.3,153.3c3.1,16.3,1.1,31.3-4.3,45.8
	c-16.9,45.5-66.1,69.6-112.4,54.9c-7.3-2.3-12.2-1.1-17.4,4.2c-17.5,17.9-35.3,35.4-53.3,53.4c5.1,4.6,9.9,8.9,15,13.4
	c11.3-11.3,23.3-23.3,35.4-35.5c28,49.8,22.4,127-23.4,175.9c-0.4-1.9-0.9-3.4-1.2-5c-4.7-22.7-24.2-39.3-47.3-40.2
	c-21.7-0.9-34.8-16.1-32.1-37.7c0.2-1.8,1.7-3.7,3.2-4.9c24.8-21,37.3-47.7,37.1-80.2c-0.1-13.7-0.6-27.3-1.2-41
	c-0.1-2.7-0.5-5.7-1.8-7.9c-4.9-7.8-1.3-12.8,4.6-17.9c6.6-5.8,12.4-12.6,18.9-18.6c5.6-5.1,6.5-10.2,4.2-17.4
	C455,147.1,481.2,96.6,528.7,81c14.5-4.7,31.4-5.8,42.1-2.4c-12.1,12.1-23.8,24.2-36,35.7c-6.2,5.8-8.9,11.9-8.6,20.4
	c0.6,16.8,0.1,33.7,0.2,50.5c0,9.1,3.6,12.6,12.6,12.6c18.5,0,37.1,0.3,55.6-0.2c3.9-0.1,8.7-2.2,11.6-4.9
	c12-11.2,23.4-23.1,35-34.7C642.6,156.7,644.2,155.3,646.3,153.3z"/>
<linearGradient id="SVGID_00000142152178114615168660000011568049591593347456_" gradientUnits="userSpaceOnUse" x1="81.6194" y1="422.9018" x2="325.6345" y2="422.9018">
	<stop  offset="0" style="stop-color:#047AC1"/>
	<stop  offset="0.1704" style="stop-color:#128CCD"/>
	<stop  offset="0.3663" style="stop-color:#1E9CD7"/>
	<stop  offset="0.4909" style="stop-color:#0075BE"/>
	<stop  offset="0.7067" style="stop-color:#0063A3"/>
	<stop  offset="0.9944" style="stop-color:#005B97"/>
	<stop  offset="1" style="stop-color:#CCE0F4"/>
</linearGradient>
<path style="fill:url(#SVGID_00000142152178114615168660000011568049591593347456_);" d="M269.6,502.3c-14.7,7.4-11.2,18.2-8.4,30
	c13.6,58.7-34.4,114.2-94.6,110c-2.4-0.2-4.8-0.7-8.5-1.3c12.7-12.7,24.3-24.8,36.6-36.2c6.2-5.8,8.8-11.9,8.5-20.5
	c-0.6-16.8-0.1-33.7-0.2-50.5c0-9-3.6-12.5-12.7-12.6c-18.5,0-37.1-0.3-55.6,0.2c-3.9,0.1-8.6,2.2-11.5,4.9
	c-12,11.2-23.4,23.1-35,34.7c-1.4,1.4-3,2.8-5,4.6c-2.9-14.5-1.4-27.9,2.6-41.1c14.6-47.8,65.9-74.9,113.5-59.7
	c7.8,2.5,12.9,1,18.5-4.6c22.6-23,45.5-45.6,68.3-68.4c1.5-1.5,2.9-3,4.6-4.8c-5-4.4-9.8-8.7-14.7-13c-17.9,18-36.5,36.8-56.2,56.6
	c-19.8-42.6-22.6-84.7-6.4-127.2c20-52.6,58.4-85.4,112.4-100.3c-6.1,4.3-12.5,8.1-18.1,12.9c-15.3,13.5-23.5,30.8-23.5,51.2
	c0,17.8-0.1,35.9,2.5,53.4c3.4,22.9,16,41.3,33.7,56.1c2.8,2.4,4.2,4.6,4.2,8.4c0,22.3-10.9,33.9-33.1,35
	c-25.5,1.3-46.6,22.3-47.7,47.7c-0.3,7.4-0.2,14.7-0.1,22.1c0.1,7.1,4,10.7,11.1,11c4.4,0.1,8.8,0,13.2,0
	C268.3,501.5,269,501.9,269.6,502.3z"/>
<linearGradient id="SVGID_00000124123030604051160590000008578375102231527052_" gradientUnits="userSpaceOnUse" x1="305.254" y1="328.9344" x2="424.757" y2="328.9344">
	<stop  offset="0" style="stop-color:#047AC1"/>
	<stop  offset="0.1704" style="stop-color:#128CCD"/>
	<stop  offset="0.3663" style="stop-color:#1E9CD7"/>
	<stop  offset="0.4909" style="stop-color:#0075BE"/>
	<stop  offset="0.7067" style="stop-color:#0063A3"/>
	<stop  offset="0.9944" style="stop-color:#005B97"/>
	<stop  offset="1" style="stop-color:#CCE0F4"/>
</linearGradient>
<path style="fill:url(#SVGID_00000124123030604051160590000008578375102231527052_);" d="M385.3,281.8c9.8,14.6,22.7,23.1,39.5,27.2
	c-1.1,5-1.7,9.7-3.1,14.2c-6.8,22.3-20.7,38.6-41.5,49.1c-10,5.1-20,5.3-30.2,0.2c-24.2-12-38.8-31.4-44.4-57.7
	c-0.3-1.2-0.2-2.5-0.3-4.9c6,0,11.8-0.2,17.6,0C348.1,311,369.8,304.3,385.3,281.8z"/>
<linearGradient id="SVGID_00000021106921332189392120000011047319836065785218_" gradientUnits="userSpaceOnUse" x1="303.8" y1="253.6906" x2="425.3761" y2="253.6906">
	<stop  offset="0" style="stop-color:#047AC1"/>
	<stop  offset="0.1704" style="stop-color:#128CCD"/>
	<stop  offset="0.3663" style="stop-color:#1E9CD7"/>
	<stop  offset="0.4909" style="stop-color:#0075BE"/>
	<stop  offset="0.7067" style="stop-color:#0063A3"/>
	<stop  offset="0.9944" style="stop-color:#005B97"/>
	<stop  offset="1" style="stop-color:#CCE0F4"/>
</linearGradient>
<path style="fill:url(#SVGID_00000021106921332189392120000011047319836065785218_);" d="M425.3,288.1
	c-14.7-5.2-23.7-14.4-27.7-28.3c-1.1-3.8-1.7-7.8-2.5-11.7c-1.4-6.4-5.3-9.9-10.6-9.6c-5.5,0.3-9.2,4.7-9.7,11.2
	c-1.5,20.1-14.3,36.3-32.8,38.6c-12.2,1.5-24.7,0.3-37.5,0.3c-1.9-22.7-1.3-45.2,20.3-60.4c6-4.2,13.4-8,20.5-8.8
	c12.8-1.4,26.2-1.9,38.9-0.1c23.7,3.4,40.6,24.2,41.1,48.1C425.5,274.1,425.3,280.6,425.3,288.1z"/>
<linearGradient id="SVGID_00000156554799943519173140000016924624699978525857_" gradientUnits="userSpaceOnUse" x1="263.4238" y1="456.7264" x2="354.6415" y2="456.7264">
	<stop  offset="0" style="stop-color:#047AC1"/>
	<stop  offset="0.1704" style="stop-color:#128CCD"/>
	<stop  offset="0.3663" style="stop-color:#1E9CD7"/>
	<stop  offset="0.4909" style="stop-color:#0075BE"/>
	<stop  offset="0.7067" style="stop-color:#0063A3"/>
	<stop  offset="0.9944" style="stop-color:#005B97"/>
	<stop  offset="1" style="stop-color:#CCE0F4"/>
</linearGradient>
<path style="fill:url(#SVGID_00000156554799943519173140000016924624699978525857_);" d="M354.6,480.7c-30.7,0-60.3,0-89.9,0
	c-5.5-20.7,8.4-39,29.5-40.6c8.5-0.6,16.8-4.6,25.2-6.7c2.5-0.6,5.7-1.2,7.9-0.2c7.9,3.4,15.6,7.4,23.1,11.5
	c1.7,0.9,3.9,3.1,3.9,4.7C354.8,459.7,354.6,470,354.6,480.7z"/>
<linearGradient id="SVGID_00000019656062567195310970000010587423265103638428_" gradientUnits="userSpaceOnUse" x1="375.0123" y1="457.0107" x2="465.7908" y2="457.0107">
	<stop  offset="0" style="stop-color:#047AC1"/>
	<stop  offset="0.1704" style="stop-color:#128CCD"/>
	<stop  offset="0.3663" style="stop-color:#1E9CD7"/>
	<stop  offset="0.4909" style="stop-color:#0075BE"/>
	<stop  offset="0.7067" style="stop-color:#0063A3"/>
	<stop  offset="0.9944" style="stop-color:#005B97"/>
	<stop  offset="1" style="stop-color:#CCE0F4"/>
</linearGradient>
<path style="fill:url(#SVGID_00000019656062567195310970000010587423265103638428_);" d="M375,480.4c0-11.3,0-22.2,0-33.4
	c10.4-4.4,20.8-9,31.3-13.2c1.6-0.6,3.9,0.2,5.7,0.7c7.3,1.9,14.4,5.1,21.7,5.7c20.4,1.5,32,13.1,32.1,33.6c0,2.1,0,4.2,0,6.7
	C435.5,480.4,405.6,480.4,375,480.4z"/>
<linearGradient id="SVGID_00000062880051770311489770000014615100716064150172_" gradientUnits="userSpaceOnUse" x1="295.0048" y1="511.1041" x2="440.8142" y2="511.1041">
	<stop  offset="0" style="stop-color:#047AC1"/>
	<stop  offset="0.1704" style="stop-color:#128CCD"/>
	<stop  offset="0.3663" style="stop-color:#1E9CD7"/>
	<stop  offset="0.4909" style="stop-color:#0075BE"/>
	<stop  offset="0.7067" style="stop-color:#0063A3"/>
	<stop  offset="0.9944" style="stop-color:#005B97"/>
	<stop  offset="1" style="stop-color:#CCE0F4"/>
</linearGradient>
<path style="fill:url(#SVGID_00000062880051770311489770000014615100716064150172_);" d="M440.8,502.4
	c-48.4,24.1-96.6,25.3-145.8,1.4c2-0.9,4-2.6,6-2.6c46.3-0.1,92.5,0,138.8,0.1C439.9,501.3,440,501.5,440.8,502.4z"/>
<linearGradient id="SVGID_00000072271685792076592500000015375417805322491323_" gradientUnits="userSpaceOnUse" x1="338.1978" y1="410.6012" x2="392.0196" y2="410.6012">
	<stop  offset="0" style="stop-color:#047AC1"/>
	<stop  offset="0.1704" style="stop-color:#128CCD"/>
	<stop  offset="0.3663" style="stop-color:#1E9CD7"/>
	<stop  offset="0.4909" style="stop-color:#0075BE"/>
	<stop  offset="0.7067" style="stop-color:#0063A3"/>
	<stop  offset="0.9944" style="stop-color:#005B97"/>
	<stop  offset="1" style="stop-color:#CCE0F4"/>
</linearGradient>
<path style="fill:url(#SVGID_00000072271685792076592500000015375417805322491323_);" d="M392,417.8c-8,3.4-16,6.9-24.2,10.3
	c-1.4,0.6-3.4,0.8-4.7,0.2c-8.5-4-16.8-8.3-25-12.4c2.4-7.9,4.7-15.3,7-23.1c12.7,4.8,25.8,5.1,38.7,0
	C386.6,400.9,389.2,409,392,417.8z"/>
<linearGradient id="SVGID_00000093175995242256026400000008574368254337672087_" gradientUnits="userSpaceOnUse" x1="403.8557" y1="211.4764" x2="435.0459" y2="211.4764">
	<stop  offset="0" style="stop-color:#047AC1"/>
	<stop  offset="0.1704" style="stop-color:#128CCD"/>
	<stop  offset="0.3663" style="stop-color:#1E9CD7"/>
	<stop  offset="0.4909" style="stop-color:#0075BE"/>
	<stop  offset="0.7067" style="stop-color:#0063A3"/>
	<stop  offset="0.9944" style="stop-color:#005B97"/>
	<stop  offset="1" style="stop-color:#CCE0F4"/>
</linearGradient>
<path style="fill:url(#SVGID_00000093175995242256026400000008574368254337672087_);" d="M404.4,202.5c9.9,3.6,19.9,7.3,30.6,11.2
	c-3.1,2.9-5.3,5-7.2,6.8c-7.9-5.7-15.9-11.6-23.9-17.4C404.1,202.8,404.2,202.7,404.4,202.5z"/>
</svg>
