<?xml version="1.0" encoding="utf-8"?>
<!-- Generator: Adobe Illustrator 26.0.1, SVG Export Plug-In . SVG Version: 6.00 Build 0)  -->
<svg version="1.1" id="Layer_1" xmlns="http://www.w3.org/2000/svg" xmlns:xlink="http://www.w3.org/1999/xlink" x="0px" y="0px"
	 viewBox="0 0 720 720" style="enable-background:new 0 0 720 720;" xml:space="preserve">
<style type="text/css">
	.st0{fill:url(#SVGID_1_);}
	.st1{fill:#FFFFFF;}
</style>
<linearGradient id="SVGID_1_" gradientUnits="userSpaceOnUse" x1="115.5303" y1="366.858" x2="604.1974" y2="366.858">
	<stop  offset="7.745851e-02" style="stop-color:#0075BE"/>
	<stop  offset="0.3104" style="stop-color:#1E9CD7"/>
	<stop  offset="0.6117" style="stop-color:#188FCA"/>
	<stop  offset="0.8296" style="stop-color:#1181BC"/>
	<stop  offset="1" style="stop-color:#005B97"/>
</linearGradient>
<path class="st0" d="M351.9,27c7.8,1.3,15.6,2.5,23.4,4c22.5,4.3,42.4,13.6,58.1,30.8c1.6,1.7,4.4,2.8,6.9,3.2
	c38.3,6.9,58.8,30.6,60.2,70c0.8,20.3-2.7,40.1-8,59.6c-1.2,4.3-0.9,6.4,3.3,8.9c20.2,12,28.5,35.8,20.6,57.5
	c-8,21.9-29.9,34.6-53.4,30.6c-3.9-0.7-5.2,0.8-7.2,3.7C446,310,435.9,324.4,426,339c-1.2,1.7-2.3,3.9-2.3,5.8
	c-0.3,8.6-0.1,17.2-0.1,27.8c9.2-10.4,17-3.8,24.9,0.1c9.5,4.7,19,9.4,28.5,14.2c10.2,5.1,11.4,7.5,9.2,18.6
	c10.7,4.3,21.3,9.6,32.5,12.6c5.8,1.6,12.6-0.5,19-1.3c17.5-2.3,35-4.8,52.5-7.2c8.9-1.2,14,3.1,14,12.2c0.1,24.3,0.3,48.7-0.2,73
	c-0.1,3.7-2.9,9-6,10.5c-3,1.5-8.4,0-12-1.8c-4-2-7.2-5.7-10.6-8.4c-6.9,6.9-13.4,13.6-19.9,20.2c2.9,0.7,6.6,1.3,10.1,2.3
	c22.7,6.6,38.3,26.9,38.5,50.7c0.2,28.3,0.2,56.6,0,84.9c-0.2,30.1-23.4,53.3-53.6,53.4c-50,0.2-100,0.1-150,0.1
	c-75.9,0-151.8,0-227.6,0c-34.9,0-57.2-22.3-57.2-57.2c0-26.1,0.1-52.2-0.1-78.3c-0.1-14.1,4-26.5,13-37.4c1.6-1.9,2.5-4.6,2.9-7.1
	c2.1-13.8,3.3-27.7,5.9-41.3c4.8-25.5,19.6-44.4,42.4-56.2c14.5-7.5,29.8-13.3,44.8-19.8c3-1.3,6.1-2.4,9.1-3.6
	c-2-12.2-1.2-13.6,10-19.2c10.3-5.1,20.6-10.1,30.8-15.5c7.2-3.8,14-7.1,21.7,1.7c0-10.5,0.1-19.1-0.1-27.6c0-1.5-1.1-3.3-2.3-4.5
	c-14.1-14.3-25.1-30.8-34-49.2c-6.7,0-13.6,1-20.2-0.2c-29.8-5.4-46.7-36.3-35.3-64.3c2-4.9,1.8-9,0.1-13.8
	c-8.9-24.7-14.7-50-14.4-76.4c0.5-50,25.8-84.6,73.8-98.5c16.2-4.7,33.3-6.8,49.9-10.1c1.7-0.3,3.4-0.8,5.1-1.2
	C329.7,27,340.8,27,351.9,27z M251.1,270.6c-1.3-4.2-2.6-8.4-3.7-12.6c-2.8-10.3-0.7-16.1,6.2-18.2c6.8-2,11.6,2.3,14.4,12.5
	c6.9,25,18.2,47.8,35.2,67.6c11.8,13.8,26.1,23.2,44.5,25.1c23.7,2.4,45.9-0.6,62.2-20.1c9.1-11,17.2-23,24.6-35.2
	c5.3-8.8,8.7-18.8,12.9-28.3c2.3-5.3,6.3-8,12.1-7c5.5,0.9,8.6,5.7,8.3,11.8c-0.1,1.5-0.2,2.9-0.3,4.3c13.9,2.1,25.8-5.9,29.5-19.2
	c3.3-12-2.4-25-13.1-29.3c-1.2,2.6-2.1,5.3-3.6,7.8c-3.9,6.5-13.1,7.3-17.3,1.1c-1.6-2.3-2.2-5.7-2.3-8.7
	c-1.3-26.7-14.7-41.8-41-46.6c-20.3-3.7-40-1.2-59.8,3.4c-28.7,6.7-57.7,11.6-87.3,8.6c-6.7-0.7-13.2-2.4-21.1-3.8
	c2.3,6.6,3.9,12.5,6.3,18c3.1,7.3,0,14-7.7,15.7c-1.9,0.4-4,0.4-5.9,0.6c-13.6,2-23.8,15.5-22.1,29.3
	C223.7,261.9,236.6,272.4,251.1,270.6z M247.3,608.9c2.5,9.3,4.4,16.6,6.4,23.9c0.5,1.8,1.1,3.9,2.3,5.3c3.9,4.2,8,8.2,12.1,12.2
	c2.8,2.8,5.8,2.4,9.6,1.6c7.2-1.5,15-3.3,22-2c16.9,3,32.8,9.5,40.7,26.2c3.4,7.1,7.7,9.4,14.6,9.3c3.5-0.1,7.1,0,10.6-0.1
	c5-0.1,8.1-2.1,10.5-7.1c9.4-20.5,41.2-33.6,62.2-25.6c6,2.3,10,1.5,14-2.7c3.7-3.8,7.5-7.5,11-11.5c1.3-1.6,2-3.8,2.6-5.8
	c2.1-7.3,4-14.6,6-21.8c0.6,0.1,1.1,0.2,1.7,0.3c-1.6-2.3-3.2-4.5-5.2-7.3c-8.1,7.6-15.7,14.9-23.4,22.2c-8.9,8.5-11.7,8.9-21.7,1.5
	c-4.1-3-6.8-3.2-11.5-0.3c-30.6,19.4-62.8,21.7-95.2,5.4c-32.4-16.4-49.9-43.8-52.3-79.8c-3-46.2,28.6-88,72.7-98.1
	c46-10.6,91.3,12.2,110.1,55.2c0.7,1.7,1.6,3.3,2.7,5.5c4.3-4,7.8-7.7,11.7-10.9c3.2-2.6,3.9-5.1,2.4-9.1
	c-3.2-8.4-5.2-17.6-1.3-25.9c4.1-8.8,0.8-14.1-5.2-19.4c-2.3-2.1-4.7-4.1-6.9-6.2c-3.4-3.3-6.6-3.6-11.2-1.8
	c-20.7,8.2-52.9-3.6-62.5-23.5c-3.4-7.1-7.8-9.4-14.8-9c-3.1,0.2-6.2,0-9.3,0.2c-5.7,0.2-9.3,2.2-11.9,8.2
	c-8.4,19.3-39.8,33.4-59.7,26.3c-7.9-2.8-12.9-1.1-17.9,4.5c-2.5,2.8-5.1,5.6-7.6,8.3c-2.8,3-2.7,6-1.7,10.1
	c1.7,7.6,3.3,15.8,2,23.3c-3,17.5-10.5,32.8-25.9,40.5c0.8,10,1.5,19,2.3,29C255.2,572.5,260.1,589.4,247.3,608.9z M542.7,437.5
	c6.2,11.6,6,12.8-3.9,22.2c-33.4,31.9-66.8,63.9-100.2,95.8c-7.7,7.4-10.9,7.7-19.7,2.1c-19.5-12.5-38.9-25.2-58.6-37.6
	c-2-1.3-5.6-1.9-7.6-0.9c-21.4,10.6-42.6,21.5-63.7,32.5c-1.4,0.7-3.2,3.1-3,4.2c1.9,8.6,4.3,17.1,6.7,26.4
	c17.1-9.4,32.4-17.6,47.5-26.4c6.6-3.8,11.9-3.7,18.2,0.8c22.5,16,45.4,31.4,68,47.4c4.6,3.3,7.2,3.3,11.5-0.7
	c16.8-15.1,31.1-33.2,50.7-45.2c-4.8-25,6.3-40,31.6-42.7c2.1-0.2,4.4-1.8,6-3.3c12.1-11.7,24.2-23.4,35.9-35.4
	c6-6.1,11.8-10.3,20.2-3.7c0-14.2,0-27.3,0-40.8C569,434,555.9,435.8,542.7,437.5z M136.8,611c0,13.9,0,27.9,0,41.8
	c0,0.4,0,0.9,0,1.3c0.5,17.3,13.5,30.7,30.8,31.2c10.6,0.3,21.2,0.2,31.9,0.1c7.3-0.1,11.8-4.4,11.6-10.8
	c-0.1-6.1-4.5-10.1-11.4-10.3c-5.5-0.1-11.1-0.1-16.6-0.1c-9.4,0-14.5-3.8-14.4-10.8c0.1-6.8,5-10.4,14.1-10.4
	c12.4,0,24.8,0.1,37.2,0c7.8-0.1,12.4-4.2,12.4-10.7c0-6.5-4.7-10.4-12.6-10.5c-9.3-0.1-18.6,0-27.9,0c-7.8-0.1-12.5-4.2-12.5-10.7
	c0.1-6.4,4.8-10.5,12.7-10.5c9.1-0.1,18.1,0,27.2,0c8.6,0,13.1-3.7,13.2-10.5c0-6.8-4.6-10.6-13.1-10.7c-9.7-0.1-19.5,0.1-29.2-0.1
	c-6.3-0.1-10.6-4.6-10.7-10.4c-0.1-5.8,4.2-10.3,10.4-10.7c3.1-0.2,6.2,0,9.3-0.1c7.5-0.2,11.9-4,12.1-10.3
	c0.2-6.6-4.4-10.8-12.2-10.9c-9.7-0.1-19.5-0.2-29.2,0c-19.6,0.3-32.8,13.6-32.9,33.1C136.8,583.6,136.8,597.3,136.8,611z
	 M582.9,611.3c0-13.9,0-27.9,0-41.8c0-0.4,0-0.9,0-1.3c-0.5-16.1-12.3-30-28-31.1c-12.1-0.9-24.3-0.4-36.5-0.1
	c-6,0.1-9.8,4.7-9.9,10.4c0,5.9,4,10.2,10.4,10.7c3.1,0.2,6.2,0,9.3,0.1c7.7,0.2,12.4,4.5,12.2,11c-0.2,6.2-4.8,10.2-12.2,10.2
	c-9.3,0.1-18.6,0-27.9,0c-7.9,0.1-13.2,4.5-13,10.9c0.1,6.6,4.6,10.3,12.7,10.3c9.5,0.1,19-0.1,28.5,0.1c7.2,0.1,11.9,4.6,11.8,10.8
	c-0.1,6.2-4.8,10.3-12.1,10.4c-9.5,0.1-19,0-28.5,0.1c-7.9,0.1-12.4,4-12.4,10.7c0,6.6,4.5,10.5,12.4,10.6c13,0.1,26.1-0.1,39.1,0
	c7.3,0,12,4.2,12.1,10.4c0.1,6.2-4.6,10.6-11.7,10.8c-6.2,0.2-12.4,0-18.6,0.1c-7.6,0.1-11.9,3.9-12.1,10.2
	c-0.1,6.7,4.4,10.8,12.2,10.9c9.7,0.1,19.5,0.1,29.2,0c19.5-0.2,32.8-13.5,33-33C582.9,638.7,582.9,625,582.9,611.3z M253.7,427.6
	c-3.7-1.3-7.1-3.8-9.2-3c-15.5,5.8-30.8,12.2-46.1,18.5c-32.8,13.6-43.2,40.4-43.1,72.4c7.7,0,15.3,0,23,0c7.7,0,15.6-0.6,23.2,0.3
	c6,0.7,10.9-0.3,16.2-3c14-6.9,21.9-25.5,16.1-40.2c-3.9-9.8-2.7-18.7,3.7-26.8C242,440.1,247.1,434.9,253.7,427.6z M327.4,397.8
	c17.7-14,46.5-13.6,65.4,2.3c3.1-3.6,8.5-7.1,9.1-11.3c1.4-9.9,0.4-20,0.4-31c-14.2,6.8-28.2,9-42.7,9.1
	c-14.4,0.1-28.3-2.6-42.2-8.5c0,7.7,0.6,14.4-0.2,20.9C316.2,388.1,319.2,394.2,327.4,397.8z M231.6,684.9c29.5,0,59.4,0,89.5,0
	c-7.1-10.8-25.2-17.5-36.4-13.1c-11.9,4.7-22,2.5-31.2-5.9c-3.5-3.2-7-6.5-10.2-9.4c-4.6,2.6-8.6,4.9-11.7,6.6
	C231.6,670.8,231.6,677.8,231.6,684.9z M397.2,685c30.6,0,60.9,0,90.9,0c0-7.5,0-14.7,0-22c-3.6-2-7.6-4.2-11.8-6.6
	c-1.3,1.2-2.6,2.4-3.8,3.7c-12,12.9-25.1,20.3-43.4,11.8C420.7,668.1,402.1,676.7,397.2,685z M468.1,428c6.3,9,14.4,16.3,16.9,25.3
	c2.4,8.9-0.9,19.3-1.8,30.4c12.7-12.2,24.6-23.5,37.7-36c-7.7-4.9-14.6-9.9-22.1-13.8c-6.6-3.5-14-5.3-20.8-8.5
	C472.9,422.9,469.7,423.7,468.1,428z M315,415.9c-9.7-8.1-19.3-16.1-29-23.9c-1-0.8-3-1.1-4.1-0.6c-7.5,3.6-14.8,7.4-22.1,11.1
	C272.7,429.1,300.7,428.2,315,415.9z M404.2,416.4c21.2,13.4,46.6,6.7,55.4-14.3c-7-3.5-14-7.2-21.2-10.5c-1.4-0.6-4-0.2-5.2,0.7
	C423.6,400.1,414.2,408,404.2,416.4z"/>
<path class="st1" d="M253.7,427.6c-6.6,7.3-11.7,12.5-16.2,18.2c-6.4,8.1-7.6,16.9-3.7,26.8c5.9,14.7-2.1,33.4-16.1,40.2
	c-5.3,2.6-10.2,3.7-16.2,3c-7.6-0.9-15.5-0.3-23.2-0.3c-7.7,0-15.3,0-23,0c-0.1-32,10.2-58.8,43.1-72.4
	c15.3-6.3,30.6-12.7,46.1-18.5C246.5,423.8,249.9,426.3,253.7,427.6z"/>
<path class="st1" d="M327.4,397.8c-8.1-3.6-11.2-9.6-10.1-18.5c0.8-6.5,0.2-13.2,0.2-20.9c13.9,6,27.7,8.6,42.2,8.5
	c14.5-0.1,28.6-2.3,42.7-9.1c0,11,0.9,21.2-0.4,31c-0.6,4.2-6,7.6-9.1,11.3C373.9,384.2,345.1,383.8,327.4,397.8z"/>
<path class="st1" d="M468.1,428c1.5-4.3,4.8-5.1,9.9-2.7c6.8,3.2,14.2,5.1,20.8,8.5c7.5,3.9,14.4,8.9,22.1,13.8
	c-13.1,12.5-25,23.9-37.7,36c0.9-11.1,4.3-21.5,1.8-30.4C482.5,444.3,474.4,437,468.1,428z"/>
<path class="st1" d="M315,415.9c-14.3,12.3-42.3,13.3-55.2-13.5c7.3-3.7,14.7-7.6,22.1-11.1c1.1-0.5,3.1-0.1,4.1,0.6
	C295.7,399.8,305.3,407.8,315,415.9z"/>
<path class="st1" d="M404.2,416.4c10-8.3,19.4-16.3,29-24c1.2-1,3.8-1.3,5.2-0.7c7.2,3.3,14.2,7,21.2,10.5
	C450.8,423.1,425.4,429.7,404.2,416.4z"/>
</svg>
