<?xml version="1.0" encoding="utf-8"?>
<!-- Generator: Adobe Illustrator 26.0.1, SVG Export Plug-In . SVG Version: 6.00 Build 0)  -->
<svg version="1.1" id="Layer_1" xmlns="http://www.w3.org/2000/svg" xmlns:xlink="http://www.w3.org/1999/xlink" x="0px" y="0px"
	 viewBox="0 0 720 720" style="enable-background:new 0 0 720 720;" xml:space="preserve">
<style type="text/css">
	.st0{fill:url(#SVGID_1_);}
	.st1{fill:url(#SVGID_00000113334539864751024010000008126719258394323593_);}
	.st2{fill:url(#SVGID_00000158728572021248163680000011192812249768385695_);}
</style>
<linearGradient id="SVGID_1_" gradientUnits="userSpaceOnUse" x1="39" y1="361.8413" x2="692.7605" y2="361.8413">
	<stop  offset="0" style="stop-color:#0075BE"/>
	<stop  offset="0.2043" style="stop-color:#1E9CD7"/>
	<stop  offset="0.3883" style="stop-color:#1D9AD5"/>
	<stop  offset="0.5279" style="stop-color:#168CC7"/>
	<stop  offset="0.7961" style="stop-color:#0D78B4"/>
	<stop  offset="1" style="stop-color:#005B97"/>
	<stop  offset="1" style="stop-color:#307BAD"/>
	<stop  offset="1" style="stop-color:#94BCDB"/>
	<stop  offset="1" style="stop-color:#CCE0F4"/>
</linearGradient>
<path class="st0" d="M497.4,35c6.9,3.8,9.4,9.5,9.1,17.4c-0.5,12.3-0.1,24.6-0.1,37.5c3.9,0,7.2,0,10.6,0c10.1,0.1,14.9,4.8,15,14.8
	c0.1,13.1,0,26.3,0,40.1c12,0,23.4,0,34.9,0c11.8,0,16.2,4.4,16.2,16.2c0,11.4,0,22.9,0,34.9c13.3,0,26,0,38.7,0
	c11.7,0,16.1,4.4,16.2,16.2c0,14.7,0,29.4,0,44c0,12.1-4.3,16.3-16.7,16.4c-12.5,0-25,0-37.9,0c0,17,0,33.5,0,51.1
	c5.1,0,10.3,0,15.5,0c8.3,0,16.6-0.1,24.9,0c9.2,0.1,14,5.1,14.2,14.3c0.1,3.4,0,6.8,0,10.7c9.7,0,19.1,0,29.4,0c0-2.2,0-4.4,0-6.7
	c0-34.3,0-68.5,0-102.8c0-2.1-0.1-4.3,0.1-6.4c0.8-6.5,6.2-11.3,12.6-11.3c6.3,0,11.8,4.7,12.7,11.2c0.3,2.7,0.2,5.5,0.2,8.3
	c0,39.1,0,78.3,0,117.4c0,11.8-4.4,16.2-16.2,16.2c-12.7,0-25.4,0-38.7,0c0,4.4,0.1,8.1,0,11.9c-0.3,8.5-5.2,13.4-13.6,13.6
	c-6.8,0.2-13.6,0-20.4,0c-6.6,0-13.2,0-20.3,0c0,16.9,0,33.5,0,51.1c10.4,0,20.9,0,31.5,0c3.2,0,6.4-0.1,9.6,0
	c8.1,0.3,13,5.2,13.3,13.3c0.1,3.8,0,7.6,0,12.2c11.1,0,21.9,0,32.7,0c3,0,6-0.1,8.9,0c7.8,0.3,13.2,5.6,13.3,12.7
	c0,7.1-5.4,12.6-13.1,12.8c-12.1,0.2-24.3,0.1-36.4,0.1c-1.5,0-2.9,0-5.4,0c0,3.6,0,6.9,0,10.2c-0.1,10.6-4.7,15.3-15.1,15.3
	c-13,0.1-25.9,0-39.8,0c0,11.1,0,21.8,0,32.6c0,14.9-3.5,18.5-18.4,18.5c-10.6,0-21.2,0-32.7,0c0,11.1,0,21.9,0,32.6
	c0,3.2,0.1,6.4-0.1,9.6c-0.4,7.3-5.3,12.2-12.6,12.6c-4,0.2-8,0-12.9,0c0,11.4,0,22.4,0,33.3c0,2.8,0.1,5.5,0,8.3
	c-0.3,7.8-5.6,13.2-12.7,13.2c-7.1,0-12.6-5.4-12.7-13.1c-0.2-12.1-0.1-24.3-0.1-36.4c0-1.5,0-2.9,0-5.3c-3.6,0-6.9,0-10.2,0
	c-10.5-0.1-15.3-4.7-15.3-15.1c-0.1-13,0-25.9,0-39.8c-8.7,0-17.2,0-25.6,0c-8.3,0-16.5,0-25.5,0c0,12.8,0,25,0,37.3
	c0,13.6-3.9,17.6-17.3,17.6c-2.5,0-5,0-8.2,0c0,13,0,25.5,0,38c0,2.3,0.1,4.7-0.4,7c-1.3,6.1-7.1,10.3-13.1,9.9
	c-6.6-0.4-11.8-5.6-11.9-12.7c-0.2-11.5-0.1-23-0.1-34.5c0-2.3,0-4.6,0-7.7c-4.2,0-7.9,0.1-11.7,0c-8.8-0.2-13.7-5.2-13.8-14
	c-0.1-13.4,0-26.7,0-40.8c-8.7,0-16.9,0-25.1,0c-8.3,0-16.6,0-25.9,0c0,4.5,0,8.9,0,13.2c0,9.1,0.1,18.3,0,27.4
	c-0.1,9.2-5,14-14.3,14.2c-3.4,0.1-6.8,0-11.2,0c0,4.1,0,8.1,0,12c0,10,0.2,20-0.1,30c-0.2,7.6-5.9,13-13,12.9
	c-6.8-0.2-12.2-5.5-12.3-12.9c-0.2-13.8-0.1-27.5-0.1-42c-4.1,0-7.7,0.1-11.3,0c-9.3-0.2-14.2-5-14.3-14.2c-0.1-11.3,0-22.6,0-33.8
	c0-2.1,0-4.2,0-6.8c-12,0-23.5,0-34.9,0c-11.7,0-16.1-4.5-16.2-16.2c0-11.3,0-22.5,0-34.9c-5,0-9.7,0-14.5,0c-8.7,0-17.4,0.1-26.2,0
	c-9.2-0.1-14-5-14.2-14.3c-0.1-3.4,0-6.8,0-11.2c-6,0-11.9,0-17.8,0c-6.6,0-13.2-0.4-19.8,0.1c-7.9,0.6-13.6-2.1-17.4-9
	c0-2.6,0-5.1,0-7.7c3.7-6.9,9.5-9.7,17.4-9c5.9,0.5,11.9,0.1,17.9,0.1c6.5,0,13,0,19.7,0c0-4.4-0.1-7.8,0-11.2
	c0.2-9.3,5-14.2,14.1-14.3c5.7-0.1,11.5,0,17.2,0c7.8,0,15.5,0,23.2,0c0-17.5,0-34,0-51.1c-13.5,0-26.6,0.1-39.7,0
	c-10-0.1-14.7-4.9-14.8-15c0-3.3,0-6.7,0-10.5c-13,0-25.3-0.4-37.5,0.1c-7.9,0.3-13.6-2.1-17.4-9.1c0-2.6,0-5.1,0-7.7
	c3.7-6.9,9.5-9.7,17.4-9c5.9,0.5,11.9,0.1,17.9,0.1c6.5,0,13,0,19.7,0c0-4.4-0.1-7.8,0-11.2c0.2-9.3,5-14.2,14.1-14.3
	c5.7-0.1,11.5,0,17.2,0c7.8,0,15.5,0,23.2,0c0-17.5,0-34,0-51.1c-13.5,0-26.6,0.1-39.7,0c-10-0.1-14.7-4.9-14.8-15
	c0-3.3,0-6.7,0-10.5c-13,0-25.3-0.4-37.5,0.1c-7.9,0.3-13.6-2.1-17.4-9.1c0-2.6,0-5.1,0-7.7c3.7-6.9,9.5-9.7,17.3-9
	c4.6,0.4,9.3,0.1,14,0.1c7.8,0,15.5,0,23.6,0c0-4.5-0.1-8.1,0-11.7c0.2-8.8,5.2-13.6,14-13.8c4.7-0.1,9.3,0,14,0
	c8.8,0,17.7,0,26.3,0c0.3-1.3,0.5-1.7,0.5-2.1c0-10.8,0-21.7,0.1-32.5c0-12.3,4.2-16.5,16.5-16.5c11.4,0,22.8,0,34.6,0
	c0-13.9-0.1-27.1,0-40.2c0.1-9.7,4.9-14.5,14.4-14.7c3.5-0.1,7.1,0,11.1,0c0-13,0.4-25.3-0.1-37.6c-0.3-7.9,2.2-13.6,9.1-17.3
	c2.6,0,5.1,0,7.7,0c6.9,3.8,9.7,9.5,9,17.4c-0.5,5.9-0.1,11.9-0.1,17.9c0,6.5,0,13,0,19.7c4.4,0,7.8-0.1,11.2,0
	c9.3,0.2,14.2,5,14.3,14.2c0.1,6.2,0,12.3,0,18.5c0,7.3,0,14.7,0,21.9c17.5,0,34,0,51.1,0c0-13.3,0-26.2,0-39.1
	c0-10.9,4.7-15.4,15.6-15.4c3.1,0,6.2,0,9.9,0c0-13,0.4-25.3-0.1-37.6c-0.3-7.9,2.1-13.6,9.1-17.4c2.6,0,5.1,0,7.7,0
	c6.9,3.8,9.7,9.5,9,17.4c-0.5,5.9-0.1,11.9-0.1,17.9c0,6.5,0,13,0,19.7c4.4,0,7.8-0.1,11.2,0c9.3,0.2,14.2,5,14.3,14.2
	c0.1,6.2,0,12.3,0,18.5c0,7.3,0,14.7,0,21.9c17.5,0,34,0,51.1,0c0-13.3,0-26.2,0-39.1c0-10.9,4.7-15.4,15.6-15.4c3.1,0,6.2,0,9.9,0
	c0-13,0.4-25.3-0.1-37.6c-0.3-7.9,2.1-13.6,9.1-17.4C492.3,35,494.8,35,497.4,35z M611.8,349.3c-13.2,0-26.1,0-39.1,0
	c-10.8,0-15.5-4.7-15.5-15.6c0-23.6,0-47.2,0-70.9c0-11.7,4.5-16.1,16.2-16.1c12.7,0,25.4,0,38.3,0c0-8.7,0-16.6,0-25.1
	c-12.7,0-25,0-37.3,0c-13.1,0-17.2-4.1-17.2-17.1c0-11.2,0-22.4,0-34c-13,0-25.1,0.1-37.2,0c-8.7-0.1-13.7-5.2-13.9-14
	c-0.1-4.9,0-9.8,0-14.7c0-8.6,0-17.3,0-25.7c-8.9,0-16.9,0-25.1,0c0,13.3,0,26,0,38.8c0,10.9-4.7,15.6-15.5,15.6
	c-23.6,0-47.2,0-70.9,0c-11.7,0-16.2-4.5-16.2-16.2c0-12.7,0-25.4,0-38.4c-8.6,0-16.6,0-25.1,0c0,13.7,0.1,27.1,0,40.4
	c-0.1,8.8-5.1,14-13.8,14c-25.1,0.1-50.2,0.1-75.3,0c-8,0-13-5.2-13.4-13.2c-0.1-2.5,0-5.1,0-7.7c0-11.2,0-22.4,0-33.6
	c-8.8,0-16.8,0-25.1,0c0,11.1,0,21.7,0,32.3c0,20-2.2,22.1-22.4,22.1c-9.5,0-18.9,0-28.7,0c0,12.3,0,23.5,0,34.8
	c0,11.8-4.5,16.2-16.1,16.3c-12.7,0-25.4,0-38.4,0c0,8.6,0,16.6,0,25.1c12.2,0,24.1,0,35.9,0c15.1,0,18.6,3.5,18.6,18.9
	c0,15.3-0.1,30.6,0,46c0.2,40.3,2.7,38-37.5,37.7c-5.7,0-11.3,0-17,0c0,8.8,0,16.7,0,25.1c13.8,0,27.2-0.1,40.6,0
	c8.5,0.1,13.8,5.1,13.8,13.4c0.1,25.3,0.1,50.6,0,76c0,8-5.3,13-13.4,13.2c-11.7,0.2-23.4,0.1-35.1,0.1c-2,0-4,0-5.8,0
	c0,9,0,16.9,0,25.1c13.3,0,26.1,0,38.8,0c10.8,0,15.5,4.7,15.5,15.5c0,11.6,0,23.3,0,35.5c11.9,0,23.1,0,34.4,0
	c12.5,0,16.7,4.3,16.7,16.9c0,12.5,0,25,0,37.5c8.7,0,16.7,0,25.1,0c0-13.4,0-26.3,0-39.3c0-10.5,4.7-15.2,15.2-15.2
	c21.3,0,42.6,0,63.8,0c21.9,0,23.5,1.7,23.5,23.6c0,10.3,0,20.7,0,30.8c8.9,0,16.9,0,25.1,0c0-13.3,0-26,0-38.8
	c0-10.9,4.6-15.6,15.4-15.6c23.6,0,47.2,0,70.9,0c11.8,0,16.2,4.4,16.3,16.1c0,12.7,0,25.4,0,38.4c8.6,0,16.6,0,25.1,0
	c0-13.1,0-25.8,0-38.5c0-11.7,4.5-16,16.3-16.1c11.4,0,22.8,0,34.8,0c0-12.9-0.1-25,0-37c0.1-8.3,4.8-13.5,12.6-14
	c2.3-0.1,4.7-0.1,7-0.1c11.6,0,23.2,0,34.8,0c0-8.8,0-16.8,0-25.1c-13.6,0-26.8,0.1-40,0c-9.2-0.1-14.4-5-14.4-14.1
	c-0.1-24.9-0.1-49.8,0-74.7c0-8.7,5.2-13.7,14.1-13.8c11.5-0.1,23,0,34.5,0c2,0,4,0,6,0C611.8,365.6,611.8,357.8,611.8,349.3z"/>
<linearGradient id="SVGID_00000000927772065102981870000018088855421485198526_" gradientUnits="userSpaceOnUse" x1="199.6578" y1="361.8571" x2="532.0654" y2="361.8571">
	<stop  offset="0" style="stop-color:#0075BE"/>
	<stop  offset="0.2043" style="stop-color:#1E9CD7"/>
	<stop  offset="0.3883" style="stop-color:#1D9AD5"/>
	<stop  offset="0.5279" style="stop-color:#168CC7"/>
	<stop  offset="0.7961" style="stop-color:#0D78B4"/>
	<stop  offset="1" style="stop-color:#005B97"/>
	<stop  offset="1" style="stop-color:#307BAD"/>
	<stop  offset="1" style="stop-color:#94BCDB"/>
	<stop  offset="1" style="stop-color:#CCE0F4"/>
</linearGradient>
<path style="fill:url(#SVGID_00000000927772065102981870000018088855421485198526_);" d="M351.9,209.2c3.3-9.9,7.1-13.5,13.9-13.5
	c6.8,0,10.6,3.6,13.9,13.4c6.7,0,13.7,0.2,20.7-0.1c1.3-0.1,3.1-1.8,3.6-3.1c3.3-7.7,6.6-10.2,15-10.2c32.5,0,65.1,0,97.6,0
	c10.5,0,15.3,4.7,15.4,15.1c0,100.8,0,201.6,0,302.5c0,10-4.9,14.8-15,14.8c-100.8,0-201.6,0-302.5,0c-10,0-14.9-4.9-14.9-14.8
	c0-100.8,0-201.6,0-302.5c0-10.3,4.8-15,15.4-15.1c32.5,0,65.1,0,97.6,0c8.4,0,11.7,2.5,15,10.2c0.6,1.4,2.7,3,4.3,3.1
	c4.6,0.4,9.3,0.2,14,0.2C347.9,209.2,349.8,209.2,351.9,209.2z M378.6,273c-8.9,0-17.1,0-25.4,0c0,5.6,0,10.7,0,15.8
	c0.1,6.5-3.1,10.5-8.8,13.4c-6.6,3.3-13,7.1-19.2,11.2c-5.4,3.6-10.5,4.2-16.1,1c-4.6-2.6-9.1-5.2-14.2-8.1
	c-4.3,7.5-8.4,14.5-12.6,21.8c5,2.9,9.1,5.5,13.4,7.8c6.2,3.4,8.2,8.5,7.7,15.4c-0.5,6.9-0.5,13.9,0,20.9c0.5,6.9-1.3,12.1-7.5,15.5
	c-4.4,2.5-8.7,5.1-13.5,8c4.3,7.5,8.4,14.5,12.6,21.8c4.8-2.8,9-4.9,12.9-7.4c6.4-4.1,12.1-3.5,18.3,0.9c5.5,3.9,11.4,7.3,17.5,10.2
	c6.6,3.1,9.9,7.6,9.6,14.9c-0.2,5,0,10,0,14.8c9,0,17,0,25.4,0c0-5.2,0.2-10.1,0-15c-0.3-7.3,3.2-11.7,9.7-14.8
	c6.1-2.8,12.1-6.2,17.5-10.2c5.9-4.3,11.5-4.8,17.7-1.1c4.3,2.6,8.7,4.9,13.4,7.6c4.3-7.5,8.3-14.4,12.6-21.8
	c-4.7-2.8-8.8-5.4-13.1-7.6c-6.5-3.5-8.6-8.7-8-15.9c0.6-6.7,0.6-13.5,0-20.2c-0.7-7.5,1.6-12.8,8.3-16.3c4.2-2.2,8.3-4.8,12.7-7.4
	c-4.4-7.6-8.4-14.5-12.6-21.8c-5.1,2.9-9.7,5.5-14.3,8.1c-5.6,3.2-10.7,2.5-16.1-1.1c-6.1-4.1-12.6-7.8-19.2-11.1
	c-5.8-2.9-8.8-7-8.7-13.5C378.6,283.6,378.6,278.6,378.6,273z"/>
<linearGradient id="SVGID_00000057866768974911210390000003490554199070327477_" gradientUnits="userSpaceOnUse" x1="327.5208" y1="361.8614" x2="404.1997" y2="361.8614">
	<stop  offset="0" style="stop-color:#0075BE"/>
	<stop  offset="0.2043" style="stop-color:#1E9CD7"/>
	<stop  offset="0.3883" style="stop-color:#1D9AD5"/>
	<stop  offset="0.5279" style="stop-color:#168CC7"/>
	<stop  offset="0.7961" style="stop-color:#0D78B4"/>
	<stop  offset="1" style="stop-color:#005B97"/>
	<stop  offset="1" style="stop-color:#307BAD"/>
	<stop  offset="1" style="stop-color:#94BCDB"/>
	<stop  offset="1" style="stop-color:#CCE0F4"/>
</linearGradient>
<path style="fill:url(#SVGID_00000057866768974911210390000003490554199070327477_);" d="M404.2,362c0,21.2-17.5,38.4-38.8,38.2
	c-20.9-0.2-37.9-17.5-37.9-38.5c0.1-21.3,17.4-38.4,38.8-38.2C387.2,323.7,404.2,341,404.2,362z"/>
</svg>
