<?xml version="1.0" encoding="utf-8"?>
<!-- Generator: Adobe Illustrator 26.0.1, SVG Export Plug-In . SVG Version: 6.00 Build 0)  -->
<svg version="1.1" id="Layer_1" xmlns="http://www.w3.org/2000/svg" xmlns:xlink="http://www.w3.org/1999/xlink" x="0px" y="0px"
	 viewBox="0 0 720 720" style="enable-background:new 0 0 720 720;" xml:space="preserve">
<style type="text/css">
	.st0{fill:url(#SVGID_1_);}
</style>
<linearGradient id="SVGID_1_" gradientUnits="userSpaceOnUse" x1="120.0399" y1="367.1781" x2="597.1163" y2="367.1781">
	<stop  offset="0.1034" style="stop-color:#1B99D5"/>
	<stop  offset="0.2737" style="stop-color:#005B97"/>
	<stop  offset="0.5674" style="stop-color:#1E9CD7"/>
	<stop  offset="1" style="stop-color:#0075BE"/>
	<stop  offset="1" style="stop-color:#CCE0F4"/>
</linearGradient>
<path class="st0" d="M180.8,295.5c-3.3-18.1-7.6-30.9-7.5-43.6c0.3-29.4,2.8-58.7,4.4-89.1c-14.1-3.7-28.2-6.4-41.6-11.3
	c-6.2-2.3-10.8-8.9-16.2-13.5c4.7-5.2,8.5-13.2,14.3-15.1c62.4-20.4,124.7-41.7,188-58.7c20.6-5.5,45.2-3,66.4,2.2
	c52,12.6,103.1,29.4,154.8,43.5c19.2,5.2,30.2,16,30.9,35.7c0.7,20.7,0.2,41.4,0.2,62.7c13.7,7.3,26.5,16.2,21.3,34.4
	c-4,14.1-16.1,19.8-29.7,19c-14.1-0.8-23.8-9.6-26.5-23.4c-3.2-16.1,7.3-24.2,21.8-29.6c0-27.4,0-54.9,0-84.8c-2.9-1-8-3.4-13.4-4.7
	c-56.1-13.5-112-27.6-168.3-39.7c-15.9-3.4-34.1-4.7-49.4-0.4c-59.8,16.7-118.8,36.1-178.2,54.4c0.1,1.4,0.3,2.9,0.4,4.3
	c42.9,10.3,86.4,18.8,128.6,31.4c51.1,15.3,100.3,14.2,151-2.3c38.7-12.6,79.3-19.6,120.1-26.4c-9.3,4.1-18.5,8.2-26.6,11.7
	c0,34-0.3,67.4,0.1,100.8c0.2,17.8,0.6,35.1-17.9,45.7c22.3,46.3,14,89-13.1,129.8c-9.9,14.9-19.8,29.9-28.7,45.4
	c-16.4,28.7-22.9,60-23.9,92.9c-1.7,54.4-31.6,91.3-83.8,104.7C317.1,682.4,256.4,636,254.3,592c-1-21.9-2.5-43.8-2.5-65.8
	c0-27.5-10.2-50.1-28.3-70.4c-23.7-26.5-43-56-50.1-91.6C168.2,338,168.6,312.3,180.8,295.5z M310.7,546.6
	c0.6-64.5-14.6-117.3-46.8-170.3c-4.7-7.8-8.4-22.4-4.4-27.9c5.6-7.7,18.8-13.3,28.9-13.6c12.7-0.4,25.9,4.7,38.4,9
	c20.6,7.1,40.4,10.1,62.6,5c9.9-2.3,25.9,3.8,32.7,11.7c6.2,7.2,6.5,22.5,4.3,33.2c-2.2,10.7-10.9,20.1-16.5,30.2
	c-21,38.5-26.1,80.3-27.8,123.9c16.1,0,30.1,0,44.5,0c4.2-41.5,21-76.5,44.5-108.7c8.5-11.7,16.8-23.5,24.1-35.9
	c15.9-27.1,19.5-56.1,12.8-86.9c-2.8-12.9-7.9-17-21.7-17.2c-91.8-1.5-183.5-4-275.3-6.9c-22-0.7-25.7,0.6-29.5,22.6
	c-4.5,26.1-0.2,51.3,12.8,73.7c12.1,20.8,26,41.1,41.9,59c20.7,23.3,31.6,49.2,32.3,79.9c0.1,6.2,1.1,12.4,1.8,19.3
	C284.3,546.6,296.8,546.6,310.7,546.6z M185,193.2c1.5,23.4,29,1.3,32.5,23.5c-9.8,2.4-20.1,5-31.6,7.8c0.2,5,0.5,11,0.7,15.9
	c15.7,1.5,29.2,2.7,46.8,4.4c-15.8,18.4-30.9,14.4-46.3,12.5c-2.3,16.4,7.6,18.7,19.5,19c94.6,2.3,189.2,4.3,283.8,7.2
	c16.5,0.5,21.2-7.1,21.6-21.6c0.6-25.4,1.7-50.7,3-76.1c0.5-10.1,1.9-20.1,3-31.9c-38.7,11.7-75.2,22.3-111.4,33.7
	c-33.3,10.5-66.3,12.4-100.5,3.6c-31.8-8.2-64.1-14.5-96.1-21.5c-8.1-1.8-16.3-3-24.4-4.6c-0.6,1.9-1.2,3.8-1.9,5.7
	c3.8,1.6,7.8,2.9,11.3,5c4.1,2.4,7.8,5.4,11.6,8.2c-4.1,3-8,6.5-12.4,8.9C192.1,194.2,188.8,193.2,185,193.2z M374.7,547.3
	c0-11.2-0.2-22,0-32.8c0.7-43.5,10.4-84.3,33.9-121.7c3.4-5.4,3.8-17,0.3-21.4c-3.5-4.4-13.8-4.6-21.1-4.6
	c-10.2,0.1-20.9,4.4-30.6,2.7c-17.5-3-34.3-9.5-51.6-13.6c-9.9-2.3-20.3-2.7-30.5-4c-1.3,1.7-2.5,3.4-3.8,5.1
	c40.6,57.2,51.9,121.1,46,190.3C337.2,547.3,355.9,547.3,374.7,547.3z M399,628.4c-32.2,1.7-66.9,3.5-100.4,5.3
	C330.2,663.6,363.5,661.5,399,628.4z M355,614.7c0-16.2,0-31,0-46.7c-7.7,0-15.3,0-22.4,0c0,16.5,0,31.7,0,47.9
	C340.8,615.5,347.5,615.1,355,614.7z M371.1,613.8c8.9-1.3,15.4-2.3,21.9-3.3c0-16.1,0-30.3,0-45.8c-8.2,0.9-15.3,1.8-21.9,2.5
	C371.1,582.9,371.1,597,371.1,613.8z M297.2,562.9c0,17.9,0,34.2,0,50.9c7.5,0,13.3,0,17.9,0c0-17.1,0-32.7,0-48.8
	C309.1,564.3,303.5,563.6,297.2,562.9z M410.8,609.2c18.6-12.1,11.9-30.7,11.7-48.4c-5.7,2.7-10.8,7-11.3,11.7
	C410,583.7,410.8,595.1,410.8,609.2z M582.1,236c0.2-2.1,0.5-4.2,0.7-6.3c-5.7-3.4-11.1-8.4-17.3-9.5c-3-0.5-10.9,8.3-10.2,9.8
	c2.6,5.3,7.3,11.4,12.4,13C571.5,244.1,577.3,238.6,582.1,236z M278.8,612.8c1.6-0.3,3.2-0.7,4.8-1c-1.7-9.8-4.5-19.5-4.8-29.3
	c-0.6-22,0-22-7.9-23.3C273.9,577.4,266.4,597.2,278.8,612.8z"/>
</svg>
