<?xml version="1.0" encoding="utf-8"?>
<!-- Generator: Adobe Illustrator 26.0.1, SVG Export Plug-In . SVG Version: 6.00 Build 0)  -->
<svg version="1.1" id="Layer_1" xmlns="http://www.w3.org/2000/svg" xmlns:xlink="http://www.w3.org/1999/xlink" x="0px" y="0px"
	 viewBox="0 0 720 720" style="enable-background:new 0 0 720 720;" xml:space="preserve">
<style type="text/css">
	.st0{fill:url(#SVGID_1_);}
	.st1{fill:url(#SVGID_00000134938716462240000130000015032141558781501625_);}
	.st2{fill:#FEFEFE;}
	.st3{fill:url(#SVGID_00000176735105240271431650000000002287662234073987_);}
</style>
<linearGradient id="SVGID_1_" gradientUnits="userSpaceOnUse" x1="26.2577" y1="362.9943" x2="660.8853" y2="362.9943">
	<stop  offset="0.243" style="stop-color:#1E9CD7"/>
	<stop  offset="0.6417" style="stop-color:#0075BE"/>
	<stop  offset="1" style="stop-color:#005B97"/>
	<stop  offset="1" style="stop-color:#CCE0F4"/>
</linearGradient>
<path class="st0" d="M439.2,518.5c0.6-1.6,1.2-3,1.7-4.5c5.5-14.1,18-23,33-23.3c36.1-0.8,72.2-1.6,108.3-2.2
	c4.2-0.1,7.5-1.2,10.9-3.5c11.1-7.7,22.2-15.2,33.5-22.6c10.3-6.8,22.4-5.1,29.5,3.9c7,8.9,6.4,22.1-2.5,29.9
	c-14.8,12.9-30.3,25.2-45.5,37.8c-2.4,2-5.5,2.8-8.6,3.5c-22.9,5-45.7,10.3-68.7,14.8c-5.9,1.2-7,3.5-6.9,8.9
	c0.2,36.1,0.1,72.2,0.1,108.3c0,17.5-9.9,27.5-27.2,27.5c-147.8,0-295.6,0-443.3,0c-16.6,0-26.9-10.2-27-26.6
	c-0.1-31.3-0.4-62.7-0.3-94c0.3-71.3,45.2-136.4,110.8-161c12.9-4.8,26.1-8.2,39.8-9.3c4.1-0.3,5.1-1.8,5.1-5.7
	c-0.2-12-0.2-24.1,0-36.1c0.1-3.5-1.3-5-4.2-6.6c-31.6-17.4-49.2-44.2-52.6-80.1c-0.4-4-1.6-5.5-5.5-6.5
	c-32.6-8.2-47-44.4-29.1-72.9c1.7-2.6,2.1-5.2,2.2-8.2c0.3-26.4-1.4-52.8,0.7-79c3.7-46,42-81.4,88-81.8c50-0.4,100-0.1,150.1-0.1
	c6.8,0,8.5,1.8,8.1,8.6c-0.2,5-1,10-2.8,14.6c-1.1,2.9-0.8,4.3,2.1,5.8c23.3,12.6,33.6,33.2,34.3,58.7c0.7,24.1,0.2,48.1,0.1,72.2
	c0,3.2,0.8,5.9,2.6,8.6c18.7,28.4,3.8,65.7-29.3,73.7c-3,0.7-5.3,1-5.7,5.5c-2.8,35.5-20,62.2-50.8,79.8c-4.1,2.3-5.4,4.7-5.2,9.1
	c0.3,11.6,0.3,23.2,0,34.9c-0.1,3.7,1,4.8,4.8,5.3c68.1,9.3,116.1,46.2,146.1,107.3C436.6,515.1,436.6,517.5,439.2,518.5z
	 M121.2,176.7c5.8,0.6,3.7-3.9,3.8-6.4c0.7-51.3,40.4-90.5,91.9-90.5c22.2,0,44.4,0.3,66.6-0.1c16.5-0.3,30-7,38.2-22.1
	c2.9-3.4,3.9-7.7,5.4-11.7c1.7-4.6,0.2-5.6-4.4-5.6c-46.9,0.1-93.8-0.2-140.7,0.1c-43.1,0.3-77.6,35.2-77.8,78.3
	c-0.1,19.9,0,39.8,0,59.8c0,1.5-0.7,3.3,1.3,4.8C110.3,180.3,115.7,178.4,121.2,176.7z M54.8,685.1c1.8,1.5,4,0.9,6,0.9
	c9.5,0.1,19.1-0.3,28.6,0.2c6.1,0.3,8.2-1.3,8.1-7.8c-0.3-41.7-0.2-83.4-0.2-125.1c0-1.9-0.1-3.7,0.2-5.6c0.4-3,2.7-4.3,5.3-4.4
	c2.8-0.1,4.7,1.5,5.2,4.4c0.2,1.6,0.1,3.3,0.1,5c0,42.3,0,84.6,0,126.9c0,3.5-0.3,6.5,4.9,6.5c36.7-0.2,73.4-0.1,110.1,0
	c3.9,0,5-1.5,5-5.2c-0.2-8.5-0.1-17,0-25.5c0-2.8-1.1-4.6-3.3-6.1c-44.1-30.9-71.4-73.6-87.5-124.2c-6.3-19.9-13.5-39.6-20.3-59.4
	c-2-6.3-4.2-12.5-5.9-18.9c-1.1-4.1-2.5-4.2-5.8-1.8c-38.7,29-61.6,67.3-66.7,115.4c-2.9,26.9-0.6,53.9-0.9,80.9
	c-0.1,9.7-0.2,19.5,0.1,29.3C38,681.4,45.9,687.9,54.8,685.1z M233.3,357.6c1.7,0,3.3-0.1,5,0c51.1,2.4,92.7-39,91.7-88.7
	c-0.1-5.2,2-7.4,7.3-7.7c14.1-0.9,24.9-7.7,31.3-20.3c11.9-23.3-3.6-51-29.7-53.5c-8.5-0.8-8.9-1.3-9-9.9c0-3.1,0-6.2,0-9.3
	c-0.6-38.1-30.2-71.5-68-76.5c-15.5-2.1-31.1-0.9-46.6-0.9c-33.7-0.1-63.8,21.7-74.9,53.5c-3.9,11.2-4.9,22.7-4.4,34.3
	c0.2,5.6-1.7,8.3-7.6,8.9c-20.3,2.1-34.3,17.2-34.5,36.5c-0.1,19.3,13.9,35,34,37c6.6,0.7,8.2,3.5,8.3,9.5c0.4,29,12.3,52.5,35.4,70
	C189.9,354.3,210.8,359.1,233.3,357.6z M358.8,615.7c0-12,0-24.1,0-36.1c0-10,0-19.9,0-29.9c0-3.7,1.6-6.2,5.4-6.2
	c3.7,0,5.5,2.5,5.5,6.2c0,1.5,0,2.9,0,4.4c0,41.9,0,83.8,0,125.8c0,3.6-0.1,6.4,5,6.4c41.1-0.1,82.2,0,123.3-0.1
	c9.7,0,15.3-6.1,15.3-15.8c0.1-24.1-0.1-48.2,0.1-72.2c0-4.8-1.2-6.5-6.2-6.4c-17,0.3-34,0.3-51.1,0c-5.2-0.1-6.7,1.4-6.6,6.6
	c0.3,20.1,0.1,40.3,0.1,60.4c0,5.4-2.8,8.2-6.8,7c-3.8-1.1-3.9-4.3-3.9-7.5c0-24.9-0.1-49.8,0-74.7c0.3-60.4-27.9-105.1-75.8-139.3
	c-3.9-2.8-5.5-2.6-7.1,2.3c-9.3,27.9-19.3,55.6-28.3,83.6c-13.5,42-35.8,78.2-69.4,107.2c-6.4,5.6-16.6,8.2-18.8,16.9
	c-2,8.2-0.2,17.3-0.5,26c-0.2,4.8,1.6,6,6.1,6c35.9-0.1,71.8-0.2,107.7,0c5.1,0,6.3-1.6,6.3-6.4C358.6,658.4,358.8,637,358.8,615.7z
	 M481.2,580.4c8.9,0,17.8-0.1,26.7,0.1c3.7,0.1,5.1-1,5-4.9c-0.3-7.7,0.2-15.4-0.2-23c-0.3-5.8,1.8-8.6,7.7-9.8
	c25.3-5.3,50.6-10.9,75.9-16.4c2.5-0.5,4.7-1.3,6.7-3c13.9-11.5,27.9-22.9,41.6-34.5c5.2-4.4,6.1-11.1,2.6-15.5
	c-3.8-4.8-9.1-5.2-15.4-0.9c-11.7,7.8-23.4,15.6-35,23.6c-3.4,2.3-6.8,3.4-10.9,3.4c-36.7,0.7-73.4,1.4-110.1,2.3
	c-15.1,0.3-25.7,10.3-26,25.2c-0.4,16.4,0,32.8-0.2,49.1c0,3.9,1.6,4.4,4.8,4.3C463.4,580.3,472.3,580.4,481.2,580.4z M273.3,390.4
	c0.2,0,0.4,0,0.6,0c0-7.3-0.1-14.5,0-21.8c0-3-0.2-4.5-4.1-3.6c-24.4,5.8-48.8,5.7-73.2,0.1c-2.8-0.6-3.7-0.2-3.7,2.7
	c0.1,15.3-0.5,30.7,0.4,46c1.2,20.9,18.7,36.6,39.7,37c20.5,0.4,38-14.8,40.2-35.6C274,407,273.3,398.7,273.3,390.4z M267.4,610.9
	c0.5,0.3,1.1,0.6,1.6,0.8c0.7-1,1.3-2.1,2.1-3c18.5-20.9,32.5-44.4,41.6-70.7c9.8-28.2,19.3-56.4,28.8-84.6c2-6,7.4-12.9,4.8-17.8
	c-2.7-5.1-11.3-5.9-17.2-8.9c-5.3-2.7-7.2-0.8-9.1,4.2c-9.9,26.3-20.1,52.5-30.3,78.8c-3.1,7.9-6.6,8.6-12.6,2.4
	c-3-3-5.8-6.1-9.1-9.6c-2.4,14.7-0.3,18.1-14.7,32.2c-2.2,2.2,0,2.8,1.1,3.7c9.6,8.1,13.2,18.6,13,30.9
	C267.2,583.2,267.4,597.1,267.4,610.9z M197,501c-3.8,4.1-6.7,7.3-9.6,10.4c-7,7.3-10.4,6.5-13.8-3.1c-9.3-26.1-18.7-52.2-27.9-78.4
	c-1.4-3.9-2.8-5.5-7-3.2c-4.5,2.4-9.3,4.6-14.1,6.4c-4.7,1.8-5.3,4.2-3.7,8.9c9.8,28.4,19.3,56.8,28.8,85.3
	c9.4,28.2,22.9,54.1,42.1,76.9c1.5,1.7,2.6,4.1,5.6,4.8c0-14.3,0-28.2,0-42.1c0-11.2,3.7-20.8,12.5-27.9c3.2-2.6,2.2-3.7-0.3-5.7
	c-6.1-5-9.9-11.6-11.4-19.4C197.6,510.2,197.5,506.5,197,501z M256.1,592.6c0-8.7,0.1-17.4,0-26.1c-0.2-14.2-10.2-24.5-23.4-24.5
	c-13.9,0-23.7,10.1-23.9,24.7c-0.1,10.8,0,21.6,0,32.3c0,25.5,0,25.5,20.7,40.2c0.5,0.4,1,0.7,1.5,1.1c1.4,1.3,2.7,1.4,4.4,0.3
	c6.8-4.4,12.9-9.7,19.1-14.9c1.9-1.6,1.6-3.7,1.6-5.7C256.1,610.8,256.1,601.7,256.1,592.6z M292.9,90.1c12.2,7,21.4,14.6,28.8,24.1
	c12.8,16.6,19.4,35.4,19.3,56.5c0,2.5-1,5.6,3.1,6.2c5.2,0.8,10,2.5,14.6,5.1c2.7,1.6,3.8,0.8,3.7-2.2c-0.5-24,1.7-48.1-1.2-72
	c-2.1-17.4-11.1-31-26.7-39.6c-2.1-1.1-4.1-2.9-6.4,0.2C319.7,79.6,308.3,86.3,292.9,90.1z M221.7,461.3c-22.1-7.6-35-20.8-39-41.9
	c-0.6-3.1-2.7-2.6-4.7-2.3c-6.1,1-12.2,2.3-18.3,3.1c-4.8,0.6-4.8,2.6-3.3,6.6c4.8,12.7,9.3,25.6,13.9,38.5
	c4.1,11.3,8.1,22.7,11.5,32C194.6,485.7,207.6,474,221.7,461.3z M281.4,500c1.2-2.8,2-4.9,2.8-7c6.8-17.6,13.7-35.1,20.3-52.7
	c2.3-6.3,8.9-14.1,5.7-18.5c-3.3-4.7-13-3.4-19.9-4.6c-3.8-0.7-6.2-0.2-6.7,4.5c-0.4,4.3-2.3,8.4-4.2,12.3
	c-7.2,14.1-18.8,22.7-34.6,27.3C257.2,474.3,269,486.9,281.4,500z M255.9,499.7c2.7-7.5-1.8-13.3-7.8-18.8c-4.4-4-8.5-8.5-12.4-13.1
	c-2.4-2.9-4-2.5-6.3,0.1c-5.8,6.2-11.8,12.2-17.7,18.3c-1.8,1.8-3.1,3.7-3,6.5c0.2,5.4-0.1,10.8,0.2,16.1c1,16.3,18.2,26.6,33,19.8
	C253.8,523.1,257.1,513.1,255.9,499.7z"/>
<linearGradient id="SVGID_00000183240361710213548020000012561014849449373342_" gradientUnits="userSpaceOnUse" x1="401.8179" y1="243.7784" x2="693.6349" y2="243.7784">
	<stop  offset="0.1149" style="stop-color:#1E9CD7"/>
	<stop  offset="0.4218" style="stop-color:#057BC2"/>
	<stop  offset="0.6361" style="stop-color:#0075BE"/>
	<stop  offset="1" style="stop-color:#005B97"/>
	<stop  offset="1" style="stop-color:#CCE0F4"/>
</linearGradient>
<path style="fill:url(#SVGID_00000183240361710213548020000012561014849449373342_);" d="M622.1,376.6c0.1,16.9-0.6,33.5-9.3,48.8
	c-16.3,28.7-50.4,43-84,34.8c-31.7-7.7-54.2-35.6-55.1-68.5c-0.1-5.2,0-10.4,0-17.8c1.4-40.2-13.7-76.7-39.6-109.5
	c-53.7-68-38.6-165.8,32.9-214.5c83.9-57.2,200.5-11.2,222.6,88c10.5,47.3,0.6,90-29.4,128.1 M651.7,259
	c42.3-52,41.1-126.5-2.8-176.8c-1.3-1.4-2.3-3.6-4.8-3.4c0.5-1.3-0.1-1.9-1.4-1.9l0.1,0c0.2-1-0.3-1.5-1.3-1.3l0,0
	c-0.3-2.3-2.4-3.3-3.8-4.6c-28.9-25.6-62.5-37.4-101.1-34.3c-66.2,5.3-120.9,62.5-123.3,128.8c-1.3,34.5,8.6,65.4,30.1,92.4
	c21.9,27.5,36.2,58.2,40.6,93.3c1.7,13.9,1.9,13.8,15.9,13c13,1.1,26.1,0.2,39.1,0.5c3.4,0.1,3.5-2.2,3.5-4.6
	c0-23.4-0.1-46.8,0-70.2c0-3-0.6-4.4-4-4.6c-12.8-0.9-15.4-3.8-15.6-17c-0.1-3.4-0.9-5.2-4.4-6.2c-4.3-1.2-8.9-2.6-12.6-5.1
	c-5.4-3.8-8.7-2.6-12.8,2.1c-5.2,6.1-12.8,6.5-18.2,1.5c-5.6-5.2-11-10.7-16.2-16.3c-4.5-4.8-5.6-11.7-0.8-15.7c8.4-6.9,7-13.4,2-21
	c-1-1.5-1.8-3.4-2-5.2c-0.8-6.5-4.4-8-10.6-7.7c-10.2,0.5-14.3-3.7-15.1-13.8c-0.1-1-0.4-2-0.6-3c0.1-2.7,0.2-5.3,0.4-8
	c0.4-6.6-1.1-13.7,4.5-19.1c4.4-1.9,9-2.9,13.7-2.3c3.6,0.4,5.9-0.5,6.5-4.6c0.3-2.2,1-4.6,2.2-6.4c6.5-9.5,6.5-18-3.1-25.5
	c-0.2-0.1-0.4-0.2-0.5-0.3c-1.4-6.5,0.8-11.7,5.7-16c3.7-3.3,7.3-6.8,10.5-10.5c4.2-4.9,9.2-6.8,15.4-5.8c3,1.9,6,3.7,8,6.6
	c2.4,3.3,4.8,2.9,7.9,1c4.9-3,10.3-5.4,15.9-6.8c3.4-0.8,4.4-2.5,4.1-5.6c-0.8-6.7,1.7-12,7-16.1c1.6-0.4,3.3-0.8,4.9-1.2
	c8.3,1.1,16.6,0.1,24.8,0.5c7.1,0.3,13.6,4.4,12.8,10.1c-1.6,11.1,5.2,13.7,13.2,16.1c2.4,0.7,4.7,1.8,6.7,3.1
	c3.5,2.3,5.9,1.6,8.4-1.6c3.2-4.1,7.3-6.6,12.9-6c6.4,0.8,25.6,19.9,26.3,26.4c0.7,6.1-2.8,10.2-7,13.8c-2.6,2.3-3.2,4.3-1.3,7.4
	c3.2,5.1,5.4,10.8,6.8,16.6c0.9,3.8,2.9,5.1,6.6,4.7c1.6-0.2,3.3-0.1,5,0c8.5,0.2,13.4,5,13.5,13.7c0.1,6,0.1,12,0,18.1
	c-0.1,9.8-4.8,15-14.5,14.4c-6.8-0.4-10.9,1.1-12,8.5c-0.5,3.2-2.1,6.4-3.9,9.1c-3.6,5.4-3.1,9.1,2,13.5c7.1,6.2,6.9,13.2,0.4,20
	c-4.6,4.8-9.2,9.6-14,14.1c-4.9,4.7-12.6,6.2-16.2,1.5c-7-9.1-14-6.4-21.7-2.2c-1.1,0.6-2.3,1.1-3.5,1.3c-5.8,1.1-7.9,4.2-7.6,10.3
	c0.5,10.1-3.9,14.3-14.1,14.5c-4.1,0.1-5.3,1.4-5.3,5.4c0.1,22.8,0.2,45.7,0,68.5c0,4.4,1.4,5.7,5.7,5.6c15.8-0.2,31.5-0.2,47.3,0
	c4.5,0.1,5.4-1.7,5.8-5.8 M547.9,69.2c-13.6,0-13.7,0-14.2,12.9c-0.2,4.2-1.8,6.6-6,7.3c-8.7,1.6-16.8,5-23.9,9.9
	c-5.8,4-9.5,2.8-13.8-2c-6.8-7.6-7.1-7.4-14.5,0c-3.2,3.2-8.3,6.3-8.8,10c-0.6,4,5.3,6.7,8.3,10c3,3.2,3.7,6.1,1.2,9.9
	c-5.4,8.2-9,17.2-10.9,26.9c-0.7,3.8-2.9,5.8-7,5.6c-2.1-0.1-4.1-0.1-6.2,0c-10.4,0.1-9-1.2-9.2,9.4c0,0.2,0,0.4,0,0.6
	c0,14.4,0,14.5,14.1,14.4c5-0.1,7.7,1.4,8.7,6.6c1.7,8.8,5.1,17.1,10.2,24.5c3.2,4.7,2.5,8-1.5,11.9c-9.1,8.8-9,9-0.1,17.7
	c8.7,8.7,8.8,8.7,17.5-0.3c3.1-3.2,6.1-4.8,10.3-2c8,5.3,16.7,9.2,26.2,11.1c3.7,0.7,5.1,3,5.5,6.5c0.6,4.8-2.6,11.3,1.7,13.9
	c3.7,2.2,9.7,0.6,14.7,0.6c0.2,0,0.4,0,0.6,0c11.1,0,11.4,0,11-11.1c-0.3-6.4,2-9.3,8.1-10.9c7.8-2,15.4-5,22.2-9.5
	c4.8-3.2,8.2-2,11.9,1.9c8.3,8.7,8.4,8.6,16.7,0.3c9-9,9.2-9.2,0.1-18.2c-4.2-4.1-4.7-7.6-1.3-12.4c4.5-6.5,7.3-13.9,9.3-21.6
	c2.4-8.9,2.4-8.9,11.6-9c1.2,0,2.5,0,3.7,0c8.6,0,8.6,0,8.6-8.8c0-15.2,0-15.4-15.5-15.6c-4.6-0.1-6.9-1.9-7.7-6.2
	c-1.8-9.3-5.3-17.9-10.4-25.7c-2.8-4.3-2.1-7.4,1.4-10.9c9.1-9.2,9-9.3-0.3-18.7c-8.1-8.1-8.2-8.1-16.1,0.3c-3.1,3.3-6,4.9-10.3,2.2
	c-8.1-5.1-17-8.5-26.2-11.2c-4-1.2-5.6-3.4-5.6-7.6c-0.2-12.6-0.3-12.6-13.2-12.6C548.4,69.2,548.2,69.2,547.9,69.2z M547.8,376
	C547.8,376,547.8,376,547.8,376c-16,0-31.9,0.2-47.9-0.1c-16-0.3-16.1-0.5-15.1,15.4c1.4,24.9,12.9,43.8,35.7,54
	c23.1,10.3,45.9,8,66.4-7.4c18.7-14,24.8-33.8,23.8-56.6c-0.2-4.4-1.3-5.5-5.6-5.5C586,376.1,566.9,376,547.8,376z"/>
<path class="st2" d="M481.2,580.4c-8.9,0-17.8-0.1-26.7,0.1c-3.2,0.1-4.9-0.5-4.8-4.3c0.2-16.4-0.2-32.8,0.2-49.1
	c0.3-14.9,10.9-24.9,26-25.2c36.7-0.8,73.4-1.6,110.1-2.3c4.1-0.1,7.6-1.1,10.9-3.4c11.6-8,23.3-15.8,35-23.6
	c6.3-4.2,11.6-3.9,15.4,0.9c3.5,4.4,2.6,11.2-2.6,15.5c-13.8,11.6-27.8,23-41.6,34.5c-2,1.7-4.3,2.5-6.7,3
	c-25.3,5.5-50.6,11.2-75.9,16.4c-5.9,1.2-7.9,4-7.7,9.8c0.4,7.7-0.1,15.3,0.2,23c0.1,3.9-1.3,5-5,4.9
	C499,580.3,490.1,580.4,481.2,580.4z"/>
<path class="st2" d="M273.3,390.4c0,8.3,0.7,16.6-0.1,24.8c-2.2,20.8-19.7,36-40.2,35.6c-21-0.4-38.5-16.1-39.7-37
	c-0.9-15.3-0.2-30.7-0.4-46c0-3,0.9-3.4,3.7-2.7c24.4,5.7,48.8,5.7,73.2-0.1c3.9-0.9,4.1,0.5,4.1,3.6c-0.1,7.3,0,14.5,0,21.8
	C273.7,390.4,273.5,390.4,273.3,390.4z"/>
<path class="st2" d="M267.4,610.9c0-13.8-0.2-27.7,0.1-41.5c0.2-12.3-3.3-22.8-13-30.9c-1-0.9-3.3-1.5-1.1-3.7
	c14.4-14.1,12.4-17.5,14.7-32.2c3.3,3.4,6.1,6.5,9.1,9.6c6,6.2,9.6,5.5,12.6-2.4c10.1-26.2,20.4-52.4,30.3-78.8
	c1.9-5,3.8-6.9,9.1-4.2c5.9,3,14.5,3.7,17.2,8.9c2.5,4.9-2.8,11.8-4.8,17.8c-9.5,28.2-19.1,56.5-28.8,84.6
	c-9.1,26.3-23.2,49.9-41.6,70.7c-0.8,0.9-1.4,2-2.1,3C268.5,611.5,268,611.2,267.4,610.9z"/>
<path class="st2" d="M197,501c0.6,5.5,0.7,9.2,1.3,12.8c1.5,7.8,5.3,14.4,11.4,19.4c2.5,2.1,3.6,3.1,0.3,5.7
	c-8.8,7.1-12.5,16.7-12.5,27.9c0,13.9,0,27.7,0,42.1c-3.1-0.7-4.2-3.1-5.6-4.8c-19.2-22.8-32.7-48.7-42.1-76.9
	c-9.5-28.5-19-56.9-28.8-85.3c-1.6-4.6-1.1-7.1,3.7-8.9c4.8-1.8,9.6-4,14.1-6.4c4.1-2.2,5.6-0.7,7,3.2c9.2,26.2,18.6,52.3,27.9,78.4
	c3.4,9.6,6.8,10.4,13.8,3.1C190.3,508.4,193.1,505.2,197,501z"/>
<path class="st2" d="M117,465.7c-39.8,32.2-61.3,73.7-62.3,125c-0.6,31.4,0.1,62.9,0.2,94.4c-8.9,2.7-16.8-3.8-17.1-14.5
	c-0.3-9.7-0.2-19.5-0.1-29.3c0.3-27-2-54,0.9-80.9c5.2-48.1,28.1-86.4,66.7-115.4c3.3-2.5,4.7-2.3,5.8,1.8
	C112.8,453.2,115,459.4,117,465.7z"/>
<path class="st2" d="M221.7,461.3c-14.1,12.7-27.1,24.4-40,36c-3.3-9.4-7.4-20.7-11.5-32c-4.6-12.8-9-25.7-13.9-38.5
	c-1.5-4-1.5-6,3.3-6.6c6.1-0.8,12.2-2.1,18.3-3.1c2-0.3,4.1-0.8,4.7,2.3C186.7,440.4,199.6,453.7,221.7,461.3z"/>
<path class="st2" d="M281.4,500c-12.3-13.1-24.2-25.7-36.5-38.8c15.7-4.6,27.4-13.1,34.6-27.3c2-3.9,3.8-7.9,4.2-12.3
	c0.4-4.7,2.9-5.2,6.7-4.5c6.9,1.2,16.6-0.1,19.9,4.6c3.2,4.5-3.4,12.3-5.7,18.5c-6.6,17.6-13.5,35.2-20.3,52.7
	C283.4,495.1,282.5,497.2,281.4,500z"/>
<path class="st2" d="M547.9,69.2c0.2,0,0.4,0,0.6,0c12.9,0,13,0,13.2,12.6c0.1,4.2,1.6,6.5,5.6,7.6c9.2,2.7,18.1,6.1,26.2,11.2
	c4.3,2.7,7.2,1.1,10.3-2.2c8-8.5,8-8.4,16.1-0.3c9.3,9.3,9.4,9.4,0.3,18.7c-3.5,3.5-4.2,6.6-1.4,10.9c5.2,7.9,8.6,16.5,10.4,25.7
	c0.8,4.3,3.1,6.2,7.7,6.2c15.5,0.2,15.5,0.3,15.5,15.6c0,8.8,0,8.8-8.6,8.8c-1.2,0-2.5,0-3.7,0c-9.2,0-9.2,0-11.6,9
	c-2.1,7.6-4.8,15.1-9.3,21.6c-3.3,4.8-2.8,8.3,1.3,12.4c9.1,9,8.9,9.2-0.1,18.2c-8.3,8.3-8.4,8.4-16.7-0.3c-3.7-3.9-7-5.1-11.9-1.9
	c-6.8,4.5-14.4,7.5-22.2,9.5c-6.1,1.6-8.4,4.5-8.1,10.9c0.5,11.1,0.1,11.1-11,11.1c-0.2,0-0.4,0-0.6,0c-5-0.1-11,1.6-14.7-0.6
	c-4.3-2.6-1.1-9.1-1.7-13.9c-0.4-3.5-1.8-5.8-5.5-6.5c-9.5-1.8-18.1-5.8-26.2-11.1c-4.2-2.8-7.2-1.2-10.3,2c-8.7,9-8.8,8.9-17.5,0.3
	c-8.9-8.8-9-8.9,0.1-17.7c4-3.8,4.7-7.1,1.5-11.9c-5-7.4-8.4-15.7-10.2-24.5c-1-5.1-3.7-6.6-8.7-6.6c-14.1,0.2-14.1,0-14.1-14.4
	c0-0.2,0-0.4,0-0.6c0.1-10.6-1.2-9.3,9.2-9.4c2.1,0,4.2-0.1,6.2,0c4.1,0.3,6.2-1.8,7-5.6c1.9-9.7,5.5-18.7,10.9-26.9
	c2.5-3.8,1.8-6.7-1.2-9.9c-3.1-3.2-9-5.9-8.3-10c0.6-3.7,5.6-6.7,8.8-10c7.4-7.5,7.6-7.6,14.5,0c4.3,4.8,8,6,13.8,2
	c7.1-5,15.2-8.4,23.9-9.9c4.2-0.7,5.8-3.1,6-7.3C534.2,69.2,534.3,69.2,547.9,69.2z M528.6,224.7c6.2-0.2,11.6-2.2,16.2-6.7
	c21.2-21.3,42.5-42.5,63.7-63.8c6.9-6.9,8.4-16.4,4-24.5c-4.2-7.8-12.7-11.7-22.1-10.2c-4.7,0.8-8.3,3.4-11.6,6.7
	c-15.5,15.6-31.1,31.1-46.6,46.7c-2.5,2.5-4.3,4.1-7.2,0.4c-2.7-3.4-6-6.3-9.2-9.3c-8.9-8.4-21.6-8.5-29.5-0.3
	c-8,8.2-7.6,20.7,1,29.4c8.2,8.2,16.5,16.4,24.6,24.7C516.5,222.7,522.2,224.6,528.6,224.7z"/>
<path class="st2" d="M641.5,75.7c-2.7,1.7-4.2-0.7-5.9-1.8c-30.5-18.9-63.3-24.5-98.4-17.7c-1,0.2-2.1,0.2-2.6,1.3
	c-1.6,0.4-3.3,0.8-4.9,1.2c-16.1,3.3-30.2,10.5-42.9,20.9c-6.3-1-11.3,1-15.4,5.8c-3.2,3.8-6.8,7.3-10.5,10.5
	c-4.9,4.4-7.1,9.5-5.7,16c-9.3,11.5-15.8,24.5-18.8,39c-5.6,5.4-4.2,12.5-4.5,19.1c-0.2,2.7-0.2,5.3-0.4,8c-1.6,1.2-1.2,3-1.3,4.6
	c-0.5,9.2,0.8,18.1,3,27c5.4,21.8,17.6,40,31.4,57.2c23,28.6,31.5,62.2,35.2,97.7c-14,0.8-14.1,0.8-15.9-13
	c-4.4-35.1-18.7-65.8-40.6-93.3c-21.5-27-31.3-57.9-30.1-92.4c2.4-66.3,57.1-123.5,123.3-128.8c38.7-3.1,72.2,8.7,101.1,34.3
	C639.1,72.4,641.2,73.3,641.5,75.7z"/>
<path class="st2" d="M644.1,78.9c-1-0.3-1.7-0.7-1.4-1.9C644,77,644.6,77.5,644.1,78.9z"/>
<path class="st2" d="M642.8,77c-1.1,0.3-1.8,0-1.3-1.3C642.5,75.5,642.9,76,642.8,77z"/>
<linearGradient id="SVGID_00000061459793478678857360000001970996191302685851_" gradientUnits="userSpaceOnUse" x1="480.5418" y1="171.9228" x2="615.0076" y2="171.9228">
	<stop  offset="0.1149" style="stop-color:#1E9CD7"/>
	<stop  offset="0.4218" style="stop-color:#057BC2"/>
	<stop  offset="0.6361" style="stop-color:#0075BE"/>
	<stop  offset="1" style="stop-color:#005B97"/>
	<stop  offset="1" style="stop-color:#CCE0F4"/>
</linearGradient>
<path style="fill:url(#SVGID_00000061459793478678857360000001970996191302685851_);" d="M528.6,224.7c-6.5-0.1-12.1-2-16.8-6.8
	c-8.1-8.3-16.4-16.5-24.6-24.7c-8.6-8.7-9.1-21.2-1-29.4c8-8.1,20.6-8,29.5,0.3c3.2,3,6.5,5.9,9.2,9.3c2.9,3.6,4.8,2.1,7.2-0.4
	c15.5-15.6,31-31.1,46.6-46.7c3.3-3.3,6.9-5.9,11.6-6.7c9.4-1.6,17.9,2.3,22.1,10.2c4.4,8.1,2.9,17.6-4,24.5
	c-21.2,21.3-42.5,42.5-63.7,63.8C540.3,222.5,534.9,224.5,528.6,224.7z M549.4,197c16.7-16.7,33.5-33.4,50.1-50.2
	c5.6-5.6,4.6-13.3-1.8-15.8c-4.5-1.7-7.9,0.3-11.1,3.5c-16.5,16.6-33.1,33.2-49.7,49.8c-8.4,8.4-8.6,8.4-17.2-0.1
	c-4-3.9-7.9-8-11.9-11.8c-4.4-4.2-9.5-4.4-13.2-0.6c-3.7,3.8-3.6,8.7,0.8,13.2c8.1,8.3,16.4,16.4,24.6,24.7c2.3,2.3,4.9,3.7,8.3,3.3
	"/>
</svg>
