<?xml version="1.0" encoding="utf-8"?>
<!-- Generator: Adobe Illustrator 26.0.1, SVG Export Plug-In . SVG Version: 6.00 Build 0)  -->
<svg version="1.1" id="Layer_1" xmlns="http://www.w3.org/2000/svg" xmlns:xlink="http://www.w3.org/1999/xlink" x="0px" y="0px"
	 viewBox="0 0 720 720" style="enable-background:new 0 0 720 720;" xml:space="preserve">
<style type="text/css">
	.st0{fill:url(#SVGID_1_);}
	.st1{fill:url(#SVGID_00000168114931244132388980000007898257261931364248_);}
	.st2{fill:url(#SVGID_00000113331298636468686540000014966202095554656664_);}
	.st3{fill:url(#SVGID_00000158000718859365247440000008719288666695741570_);}
</style>
<linearGradient id="SVGID_1_" gradientUnits="userSpaceOnUse" x1="215.2097" y1="531.7346" x2="511.0192" y2="531.7346">
	<stop  offset="0.1369" style="stop-color:#1B98D4"/>
	<stop  offset="0.3942" style="stop-color:#1E9CD7"/>
	<stop  offset="0.6082" style="stop-color:#0075BE"/>
	<stop  offset="0.7905" style="stop-color:#0065A7"/>
	<stop  offset="0.9944" style="stop-color:#005B97"/>
</linearGradient>
<path class="st0" d="M408.6,415.2c-29.5,14.8-43.3,35.2-36.9,64.3c5.5,25.2,22.7,41.4,48.2,45.7c28.2,4.7,46.8-10.1,58.8-34.4
	c1.5,0.4,2.7,0.4,3.3,0.9c38.4,35.7,38.5,41.1,1.4,78.2c-5.9,5.9-12.4,11.5-17.3,18.2c-8.3,11.1-4.2,22,9.1,25.8
	c3.2,0.9,6.7,0.9,9.9,1.8c14.7,4.1,23.1,13.8,22.6,29.2c-0.5,15.8-16.2,31.5-31.8,31.6c-15.4,0.2-24.7-8.2-28.8-23.1
	c-7.7-28.4-16.5-30.5-37.7-9.5c-8.7,8.7-17.2,17.7-26.2,26.1c-13,12.1-27.2,12.2-40.2,0.1c-10.6-9.9-20.1-21.2-31.2-30.5
	c-5.4-4.5-14.6-9.1-20.2-7.4c-5.3,1.6-9.7,11-11.5,17.8c-4.7,17.6-16.2,28.5-31.1,27c-17.2-1.7-31.2-17.5-30.1-34.5
	c1-15.9,11-23.3,25.5-26.8c23.4-5.6,26.4-16.9,9.4-34.6c-8.5-8.9-17.5-17.4-26.1-26.2c-17-17.4-16.8-29.6,0.7-47.4
	c9-9.2,18.4-18,27.2-27.4c14.3-15.5,10.6-27-10.1-31.5c-14.3-3.1-25.3-9.7-26.7-25.7c-1.3-15.9,6.6-27,20.6-33.3
	c17.9-8.1,34.9,2.6,40.5,22.9c2,7.2,6.7,17.5,12.1,18.9c6.1,1.6,15.5-3.9,21.4-8.7c10.8-8.8,19.8-19.7,30-29.3
	c13-12.3,27-12.2,40.1-0.5C391.1,399.7,398.6,406.3,408.6,415.2z"/>
<linearGradient id="SVGID_00000139281263535575987140000007561627133189689508_" gradientUnits="userSpaceOnUse" x1="39.1462" y1="355.4456" x2="334.6123" y2="355.4456">
	<stop  offset="0.1369" style="stop-color:#1B98D4"/>
	<stop  offset="0.3942" style="stop-color:#1E9CD7"/>
	<stop  offset="0.6082" style="stop-color:#0075BE"/>
	<stop  offset="0.7905" style="stop-color:#0065A7"/>
	<stop  offset="0.9944" style="stop-color:#005B97"/>
</linearGradient>
<path style="fill:url(#SVGID_00000139281263535575987140000007561627133189689508_);" d="M303.7,402.5
	c-14.3-28.6-32.5-43.5-60.9-39.5c-24.7,3.5-45.1,24.5-49.5,48.8c-4.4,24,7,43.9,39.6,62.7c-9.6,7.5-18.1,13.7-26.2,20.4
	c-13.4,11.2-26.2,11.6-39-0.2c-10.7-9.8-20.5-20.7-31.1-30.7c-16.2-15.4-27.6-12.2-32.9,9.2c-4.6,18.6-15.7,28-31.2,26.3
	c-15.4-1.7-29.3-15.9-30.5-31.3c-1.2-14.9,8.7-25.6,27.7-30c20.6-4.8,24.3-16.4,9.8-32C70,395.9,59.7,386.5,50,376.4
	c-14.6-15.2-14.5-28.4,0.5-43.6c9.4-9.6,19.9-18.2,28.5-28.5c4.6-5.5,10.2-15,8.2-19.9c-2.3-5.9-11.7-10.7-18.9-12.7
	c-12.3-3.5-23.7-9.3-24.3-22c-0.5-9.9,3.2-22.6,9.8-29.8c16.6-18.3,42.4-10.1,49,14.2c7.3,26.8,17.1,29.6,36.9,10.1
	c9.2-9,18-18.4,27.4-27.2c13.5-12.6,26.4-12.5,39.9,0.2c11,10.3,21.1,21.7,32.2,31.9c14.6,13.4,26.5,9.2,30.7-10.4
	c4-19,14.3-28.7,29.8-27.9c15.6,0.8,29.7,14.4,31.2,30.1c1.6,16.8-7,26.7-27.5,31.4c-20.2,4.6-24.1,16.8-9.7,32.1
	c10,10.6,20.7,20.5,30.7,31c13.4,14.1,13.3,27.2,0.6,41.4C318.1,384.5,311.6,392.9,303.7,402.5z"/>
<linearGradient id="SVGID_00000122687391730558760150000003364291507338395012_" gradientUnits="userSpaceOnUse" x1="215.9476" y1="178.413" x2="512.3477" y2="178.413">
	<stop  offset="0.1369" style="stop-color:#1B98D4"/>
	<stop  offset="0.3942" style="stop-color:#1E9CD7"/>
	<stop  offset="0.6082" style="stop-color:#0075BE"/>
	<stop  offset="0.7905" style="stop-color:#0065A7"/>
	<stop  offset="0.9944" style="stop-color:#005B97"/>
</linearGradient>
<path style="fill:url(#SVGID_00000122687391730558760150000003364291507338395012_);" d="M318.7,294.6
	c30.7-17.7,42.2-37.5,37.9-61.4c-4.3-23.8-24.2-44.2-47.6-48.9c-24.5-4.8-43.8,6.2-60.7,34.7c-1-0.4-2.2-0.6-2.9-1.3
	c-34.1-31.5-43.6-40.2-1.1-77.6c6.3-5.5,12.6-11.3,17.6-17.9c8.4-11.1,4.3-22-9-25.8c-2.7-0.8-5.6-0.7-8.3-1.4
	c-15.9-4.1-25.5-15.8-24.5-29.7c1.1-15.7,16.4-31,31.9-31.9c13.8-0.8,24.9,8.7,29.1,25c6.5,25.2,16.7,28.2,35.1,10.1
	c9.6-9.4,18.8-19.3,28.6-28.4c13-12.1,27.2-12.1,40.2,0.1c11,10.3,21.1,21.7,32.3,31.9c14.6,13.4,26.7,9,30.7-10.5
	c3.9-18.8,14.7-29.2,29.5-28.6c15.6,0.7,30,14.4,31.4,29.9c1.5,16.7-7.3,27-27.5,31.9c-20.2,4.9-23.9,16.6-9.5,32
	c9.6,10.2,19.9,19.7,29.6,29.8c14.3,15,14.4,27.6,0.2,42.4c-10.1,10.5-20.9,20.4-30.7,31.1c-13.3,14.5-9.1,26.9,10.1,31
	c19.3,4.1,28.4,13.9,27.6,29.9c-0.8,16-14.1,29.8-30,31.1c-16.8,1.3-26.6-7.5-31.1-28c-4.2-19.2-16.6-23.4-31.1-10
	c-10.7,9.9-20.6,20.6-31.1,30.7c-15.4,14.8-28.1,14.6-43.8-0.1C334.8,308.2,327.4,302.1,318.7,294.6z"/>
<linearGradient id="SVGID_00000150072184297480096550000009410527199959840395_" gradientUnits="userSpaceOnUse" x1="392.9727" y1="354.9906" x2="687.5362" y2="354.9906">
	<stop  offset="0.1369" style="stop-color:#1B98D4"/>
	<stop  offset="0.3942" style="stop-color:#1E9CD7"/>
	<stop  offset="0.6082" style="stop-color:#0075BE"/>
	<stop  offset="0.7905" style="stop-color:#0065A7"/>
	<stop  offset="0.9944" style="stop-color:#005B97"/>
</linearGradient>
<path style="fill:url(#SVGID_00000150072184297480096550000009410527199959840395_);" d="M423.5,309.2c18.6,31,38.4,42.3,61.8,37.7
	c25.8-5.1,45.5-25.5,49.3-51c3.4-22.7-8.9-42.4-35.6-57.1c0.8-1.4,1.3-3.1,2.5-4.3c25.2-25.7,35.9-45,73.6-2.6
	c4.8,5.4,9.6,11.3,15.6,15.2c6.1,4,14.6,9.3,20.1,7.6c5.3-1.6,10-10.9,11.8-17.6c3.5-13.1,9.6-23.1,23.2-25.9
	c14.1-2.8,25.2,3.7,33.1,15.1c12.4,18.1,4.3,39.1-16.9,44.8c-28.4,7.6-30.8,16.6-10,37.7c8.3,8.4,16.8,16.5,24.9,25
	c14.1,14.7,14.2,28,0.4,42.5c-9.7,10.1-20.5,19.2-29.3,30c-4.5,5.5-9.1,14.7-7.4,20.3c1.6,5.3,10.9,10.2,17.6,11.8
	c15.5,3.6,25.6,11.3,26.8,27.7c1,14-10.4,28.6-24.5,32.6c-17.1,4.9-31.4-5.4-37.1-24.8c-2.1-7.2-7-17.4-12.5-18.7
	c-6-1.5-15.2,4.4-21.2,9.3c-10.7,8.9-19.7,19.8-30,29.4c-12.8,11.9-25.8,11.8-38.7-0.2c-10.2-9.5-19.8-19.8-29.8-29.6
	c-17.5-17-28.2-13.7-34,10.1c-3.3,13.8-10.8,23.8-25.6,25.1c-14.9,1.2-25.9-6.4-32.4-19.6c-8.8-18,0.9-35.3,21-41.3
	c7.7-2.3,18.8-7.4,20.1-13.2c1.5-6.4-5.1-16-10.3-22.4c-8.1-10-18.1-18.3-27-27.6c-13.6-14.3-13.3-28,0.3-42.7
	C409.8,325.6,415.8,318.2,423.5,309.2z"/>
</svg>
