<?xml version="1.0" encoding="utf-8"?>
<!-- Generator: Adobe Illustrator 26.0.1, SVG Export Plug-In . SVG Version: 6.00 Build 0)  -->
<svg version="1.1" id="Layer_1" xmlns="http://www.w3.org/2000/svg" xmlns:xlink="http://www.w3.org/1999/xlink" x="0px" y="0px"
	 viewBox="0 0 720 720" style="enable-background:new 0 0 720 720;" xml:space="preserve">
<style type="text/css">
	.st0{fill:url(#SVGID_1_);}
	.st1{fill:url(#SVGID_00000025433627548864784770000006827147151788649656_);}
</style>
<linearGradient id="SVGID_1_" gradientUnits="userSpaceOnUse" x1="47.0262" y1="421.9377" x2="680.2495" y2="421.9377">
	<stop  offset="2.513967e-02" style="stop-color:#1E9CD7"/>
	<stop  offset="0.2877" style="stop-color:#0066A7"/>
	<stop  offset="0.4015" style="stop-color:#0075BE"/>
	<stop  offset="0.6453" style="stop-color:#0074BC"/>
	<stop  offset="1" style="stop-color:#005B97"/>
	<stop  offset="1" style="stop-color:#CCE0F4"/>
</linearGradient>
<path class="st0" d="M284,243.5c-51.8,0-100.6,0-152.7,0c15.8,32.7,30.5,63,45.2,93.3c18.4,37.8,10.2,68.7-23.3,88.2
	c-31.7,18.5-72.9,9.7-93.8-20.7c-12.7-18.5-17.6-37.3-5.3-59.5c16.4-29.6,30.5-60.6,44.7-91.3c2.5-5.5,3.3-14.1,0.8-19.3
	c-11.3-23.7-2.8-38.8,23.9-39.2c34.5-0.5,69.1,0.9,103.5-0.6c15.9-0.7,32-5,47.2-10.1c39.3-13.3,79.7-14.8,120-9.6
	c19.9,2.6,38.9,11.5,58.5,17c6.9,1.9,14.2,3,21.3,3c42.5,0.3,84.9-0.1,127.4,0.2c29.6,0.2,37.3,13.5,25.1,40.5
	c-2.2,4.8-0.8,12.7,1.6,17.9c13.5,28.9,24.5,59.8,42.5,85.6c29.8,42.5-15.3,95.3-58.3,95.9c-28.1,0.4-55.3-15.6-67.4-41.5
	c-7.1-15.2-8.3-29.8,0-45.7c17.4-33.4,33.3-67.6,51.1-104c-56.6,0-109.8,0-165.3,0c0,7.8,0,15.7,0,23.5c0,119.1,0,238.3,0,357.4
	c0,5.3,0.2,10.7-0.1,16c-1.1,19-12.2,30.9-29.2,31.5c-18,0.6-30.6-11.1-30.9-31.4c-0.7-47.9-0.3-95.8-0.4-143.8
	c0-11.8,0-23.6,0-35.9c-9.7,0-16.7,0-26,0c0,11.1,0,20.9,0,30.7c0,47.9,0.1,95.8-0.1,143.8c-0.1,23.6-10.9,36.5-29.9,36.6
	c-19,0.1-30.1-12.9-30.1-36.3c-0.1-122.5-0.1-244.9-0.1-367.4C284,260.4,284,252.5,284,243.5z M551.3,361.6c40.3,0,77.2,0,116.8,0
	c-19.8-40.4-38.2-78.1-58.5-119.8C588.9,284.3,570.6,322.1,551.3,361.6z M59.2,361.4c39.6,0,76.6,0,116.8,0
	c-19.7-40.3-38-77.8-58.3-119.5C97,284.1,78.7,321.4,59.2,361.4z"/>
<linearGradient id="SVGID_00000137842114603644015600000011964251475613410715_" gradientUnits="userSpaceOnUse" x1="303.0427" y1="102.7568" x2="411.5019" y2="102.7568">
	<stop  offset="2.513967e-02" style="stop-color:#1E9CD7"/>
	<stop  offset="0.4015" style="stop-color:#0075BE"/>
	<stop  offset="0.662" style="stop-color:#0066A7"/>
	<stop  offset="1" style="stop-color:#005B97"/>
	<stop  offset="1" style="stop-color:#CCE0F4"/>
</linearGradient>
<path style="fill:url(#SVGID_00000137842114603644015600000011964251475613410715_);" d="M411.5,102.2c0.4,30.5-23.1,54.6-53.6,55
	c-30.7,0.4-54.5-22.9-54.8-53.6c-0.3-30.7,23-54.8,53.5-55.1C386.7,48,411.1,71.9,411.5,102.2z"/>
</svg>
