<?xml version="1.0" encoding="utf-8"?>
<!-- Generator: Adobe Illustrator 26.0.1, SVG Export Plug-In . SVG Version: 6.00 Build 0)  -->
<svg version="1.1" id="Layer_1" xmlns="http://www.w3.org/2000/svg" xmlns:xlink="http://www.w3.org/1999/xlink" x="0px" y="0px"
	 viewBox="0 0 720 720" style="enable-background:new 0 0 720 720;" xml:space="preserve">
<style type="text/css">
	.st0{fill:url(#SVGID_1_);}
	.st1{fill:url(#SVGID_00000065063044392381884140000010138674802676428185_);}
	.st2{fill:url(#SVGID_00000123432980357040564520000006334298604034124692_);}
	.st3{fill:url(#SVGID_00000133501224615778707860000007050182398926642829_);}
</style>
<linearGradient id="SVGID_1_" gradientUnits="userSpaceOnUse" x1="54.5489" y1="357" x2="655.447" y2="357">
	<stop  offset="0" style="stop-color:#047AC1"/>
	<stop  offset="0.1872" style="stop-color:#108ACC"/>
	<stop  offset="0.4054" style="stop-color:#1E9CD7"/>
	<stop  offset="0.6173" style="stop-color:#0A82C7"/>
	<stop  offset="0.8652" style="stop-color:#0075BE"/>
	<stop  offset="0.9944" style="stop-color:#005B97"/>
	<stop  offset="1" style="stop-color:#CCE0F4"/>
</linearGradient>
<path class="st0" d="M152.9,537.7c-19.7,5.9-34.8,13.6-50.2,14.2c-23,0.8-42-18.2-46.6-40.9c-4.6-22.6,5.7-45.5,28-55.3
	c11.9-5.3,14.4-11.8,14.3-23.7c-0.6-55.2-0.3-110.4-0.3-165.1c-42.1-24.3-53.7-52.1-34.7-81.8c17.9-28,49.9-30.5,84.7-5.9
	c48.9-28.4,98.4-56.7,147.3-86c4.6-2.7,8.2-11.1,8.2-16.9c-0.1-34.8,21-59,52.3-58.3c30.5,0.6,51.1,25.2,50.5,58.5
	c-0.1,5.6,3.4,14,7.9,16.7c49,29.2,98.5,57.6,148.5,86.5c19.4-17.8,40.9-24.8,65.1-11.9c18.4,9.8,27.7,26.1,26.8,47
	c-1.2,26.3-17.1,41.5-41.8,49.6c0,61,0,122.1,0,183c41.5,25.4,52.6,52.2,33.9,81.5c-18,28.1-50,30.5-84.7,5.8
	c-49.4,28.7-99.4,57.5-148.9,87c-4,2.4-6.7,10.3-6.6,15.5c0.7,34.2-21.1,59.3-52.1,58.8c-30.5-0.5-51.1-25-50.6-58.3
	c0.1-5.7-3.3-14.1-7.8-16.7C246.8,591.7,197.2,563.3,152.9,537.7z M436.1,437.7c-5.9-13.8-7.9-30.3-15.7-33.8
	c-10.7-4.8-13.2-11.4-17.7-19.7c-5.1-9.6-12.7-17.9-19.8-26.3c-3.9-4.6-9-8.3-17.9-16.4c14.4-1.8,23.1-4.4,31.6-3.7
	c11.2,1,23.6,2.4,25.5-10.7c1.5-10.1-1.5-22.8-7.1-31.5c-5.6-8.9-16.9-14.2-25.4-21.4c-10.4-8.8-26.3-16.2-29.6-27.2
	c-5.8-19.6-16.8-16.1-25.9-9.2c-18.6,14.1-37.5,29-51.6,47.3c-19.7,25.6-15.9,61.6,3.9,88.1c5.6,7.5,9.9,16.1,16.4,26.9
	c-21.3-0.4-25.8,10.2-25.5,25.6c0.1,4.1-3.5,8.7-6.2,12.4c-3.3,4.4-7.5,8.1-11.3,12.1c5.7,2,11.3,5.8,17,5.8
	c50.5,0.5,101.1,0.3,151.7,0.3c3.9,0,8.2,0.8,11.7-0.4c3.7-1.3,6.6-4.7,9.9-7.2c-2.5-3.2-4.4-7.3-7.6-9.4
	C439.8,437.4,435.4,437.5,436.1,437.7z M518.7,441.1c16.4,9.5,30.5,17.7,44,25.6c31.3-21.1,31.3-21.1,31.3-56.3
	c0-36.7-1.8-73.6,0.7-110.1c1.9-27.3-6-44.7-33.9-52c-13,7.6-26.9,15.8-41.9,24.7c13.2,17.8,15.4,32.7-6.1,42.8
	c-0.1,27.6-0.3,55.2-0.4,82.9C533.9,408.3,532.5,423,518.7,441.1z M150,465.3c11.9-7.1,25.9-15.4,40.8-24.3
	c-11.8-17.1-16.2-32.3,6.3-42.2c0.3-27.6,0.6-55.3,0.8-82.9c-22.7-10.1-19.5-25.9-7-43.3c-16.1-9.3-30.6-17.7-40.7-23.5
	c-36.2,6.4-34.6,30.1-34,54.4c0.8,35.4,1.4,70.9-0.5,106.2C114.4,435.6,115.8,457.8,150,465.3z M344.4,171.7c0.7-5.2,1.5-9,1.6-12.8
	c0.2-9.8,0.6-19.7-0.1-29.5c-0.8-11.1-29.2-26.2-38.9-20.6c-47.2,27.1-94.3,54.4-141.3,81.9c-9.5,5.6-12.8,37.1-4.1,42.9
	c12.2,8.2,25.6,14.7,38.1,21.8c15-21.8,15-21.8,41.4-14.9c8.1,2.1,71.2-34.4,70.6-42.3C309.9,173.8,324.2,169.4,344.4,171.7z
	 M509.3,256.4c12.9-7.5,23.8-13.4,34.3-20c12.9-7.9,13.5-38.4,0.5-46c-46.9-27.6-94-54.9-141.3-81.9c-10-5.7-38.1,9.7-38.7,21.1
	c-0.7,13.6-0.2,27.2-0.2,42.9c23.3-4.5,35.8,2.2,34.4,25.9c-0.2,3.5,3.8,8.5,7.2,10.6c16.6,10.4,33.6,20.3,50.7,29.7
	c3.5,1.9,9.8,3.2,12.6,1.3C488.5,227.2,500.5,235,509.3,256.4z M345,544.6c-2,1.1-4,2.2-5.9,3.3c-8.9-7.1-24.4-13.4-25.4-21.5
	c-1.9-16.1-8.8-22.8-22.2-28.1c-9-3.5-17.8-8.7-25.4-14.7c-11.5-9.1-21.7-15.5-36.8-5.6c-3.8,2.5-14-2.2-19.8-5.9
	c-4.4-2.7-6.6-8.9-10.1-14.2c-12.1,7-23,12.9-33.6,19.5c-12.3,7.7-12.2,38.6,0.5,46c46.3,27.2,92.8,54.2,139.6,80.6
	c4.3,2.4,11.8,1.4,16.8-0.5c7.8-2.9,14.9-8,22.2-12.2C345,575.9,345,560.2,345,544.6z M364.8,591.6c7.9,4.6,15.5,9.8,23.8,13.5
	c3.9,1.7,10.1,2.2,13.6,0.3c47.9-27.2,95.6-54.8,143.1-82.7c10.6-6.2,10.7-37.4,0.4-43.9c-11.4-7.3-23.3-13.7-36.6-21.4
	c-8.5,23.3-22.6,17.4-41.1,18.5c-23.8,1.4-54.6,18.7-67,38.7c-10.2,16.4-12.6,31.8-36.2,27.6C364.8,560.3,364.8,576,364.8,591.6z"/>
<linearGradient id="SVGID_00000134955285175950287230000017614000817085149356_" gradientUnits="userSpaceOnUse" x1="288.5483" y1="348.9776" x2="412.3878" y2="348.9776">
	<stop  offset="0" style="stop-color:#047AC1"/>
	<stop  offset="0.1872" style="stop-color:#108ACC"/>
	<stop  offset="0.4054" style="stop-color:#1E9CD7"/>
	<stop  offset="0.6173" style="stop-color:#0A82C7"/>
	<stop  offset="0.8652" style="stop-color:#0075BE"/>
	<stop  offset="0.9944" style="stop-color:#005B97"/>
	<stop  offset="1" style="stop-color:#CCE0F4"/>
</linearGradient>
<path style="fill:url(#SVGID_00000134955285175950287230000017614000817085149356_);" d="M336.8,259.2c-7.4,5.7-14.9,11.8-22.6,17.5
	c-27,20-33.5,55.5-15.5,82c8.7,12.8,16.3,26.5,25.2,41.1c19.2,0,40.6,0,66.9,0c-6.2-10-10-17.9-15.4-24.5
	c-15.8-19.4-32.4-38.1-48.1-57.5c-2-2.4-1.7-9.5,0.3-11.5c2.1-2.1,9.9-2.5,11.4-0.5c19.1,23.3,43.8,11.7,66.5,12.5
	c1.3-1.8,2.5-3.7,3.8-5.5C385.3,294.9,361.2,277.2,336.8,259.2z M298,420.7c-3.6,11.9-2.1,18.3,11.6,18.1c29.5-0.5,59.1-0.5,88.6,0
	c14.7,0.2,16.7-6.2,11.9-18.1C372.3,420.7,335.1,420.7,298,420.7z"/>
<linearGradient id="SVGID_00000112599391676940920830000003839379245147837118_" gradientUnits="userSpaceOnUse" x1="288.5483" y1="329.4441" x2="409.3406" y2="329.4441">
	<stop  offset="0" style="stop-color:#047AC1"/>
	<stop  offset="0.1872" style="stop-color:#108ACC"/>
	<stop  offset="0.4054" style="stop-color:#1E9CD7"/>
	<stop  offset="0.6173" style="stop-color:#0A82C7"/>
	<stop  offset="0.8652" style="stop-color:#0075BE"/>
	<stop  offset="0.9944" style="stop-color:#005B97"/>
	<stop  offset="1" style="stop-color:#CCE0F4"/>
</linearGradient>
<path style="fill:url(#SVGID_00000112599391676940920830000003839379245147837118_);" d="M336.8,259.2c24.4,18,48.5,35.7,72.5,53.4
	c-1.3,1.8-2.5,3.7-3.8,5.5c-22.7-0.8-47.4,10.8-66.5-12.5c-1.6-1.9-9.4-1.6-11.4,0.5c-2.1,2.1-2.3,9.1-0.3,11.5
	c15.7,19.5,32.3,38.1,48.1,57.5c5.4,6.6,9.1,14.5,15.4,24.5c-26.3,0-47.7,0-66.9,0c-8.9-14.6-16.5-28.3-25.2-41.1
	c-18-26.4-11.5-61.9,15.5-82C321.9,270.9,329.4,264.9,336.8,259.2z"/>
<linearGradient id="SVGID_00000148621863799181970680000009371947461283222414_" gradientUnits="userSpaceOnUse" x1="296.2901" y1="429.7382" x2="412.3878" y2="429.7382">
	<stop  offset="0" style="stop-color:#047AC1"/>
	<stop  offset="0.1872" style="stop-color:#108ACC"/>
	<stop  offset="0.4054" style="stop-color:#1E9CD7"/>
	<stop  offset="0.6173" style="stop-color:#0A82C7"/>
	<stop  offset="0.8652" style="stop-color:#0075BE"/>
	<stop  offset="0.9944" style="stop-color:#005B97"/>
	<stop  offset="1" style="stop-color:#CCE0F4"/>
</linearGradient>
<path style="fill:url(#SVGID_00000148621863799181970680000009371947461283222414_);" d="M298,420.7c37.1,0,74.3,0,112.1,0
	c4.8,11.9,2.8,18.3-11.9,18.1c-29.5-0.5-59.1-0.5-88.6,0C295.9,439,294.3,432.5,298,420.7z"/>
</svg>
