<?xml version="1.0" encoding="utf-8"?>
<!-- Generator: Adobe Illustrator 26.0.1, SVG Export Plug-In . SVG Version: 6.00 Build 0)  -->
<svg version="1.1" id="Layer_1" xmlns="http://www.w3.org/2000/svg" xmlns:xlink="http://www.w3.org/1999/xlink" x="0px" y="0px"
	 viewBox="0 0 720 720" style="enable-background:new 0 0 720 720;" xml:space="preserve">
<style type="text/css">
	.st0{fill:url(#SVGID_1_);}
	.st1{fill:url(#SVGID_00000175280135321982797410000001766726867650024351_);}
	.st2{fill:url(#SVGID_00000181056870098387142860000014133196247001596317_);}
	.st3{fill:url(#SVGID_00000131331908010912226620000006157853595690997656_);}
	.st4{fill:url(#SVGID_00000008140030941930989090000010173897056307215278_);}
	.st5{fill:url(#SVGID_00000145027611749712974670000001179521449336060840_);}
	.st6{fill:url(#SVGID_00000002379818860584399350000002323710917361354661_);}
	.st7{fill:url(#SVGID_00000077315859123647078960000016170900298011824050_);}
	.st8{fill:url(#SVGID_00000075134109563560718760000010948219267375233426_);}
	.st9{fill:url(#SVGID_00000039831929957555588940000000225691936945690752_);}
</style>
<linearGradient id="SVGID_1_" gradientUnits="userSpaceOnUse" x1="38.6109" y1="364.1101" x2="679.9216" y2="364.1101">
	<stop  offset="6.462271e-02" style="stop-color:#1E9CD7"/>
	<stop  offset="0.2451" style="stop-color:#0075BE"/>
	<stop  offset="0.5391" style="stop-color:#0065A6"/>
	<stop  offset="0.7402" style="stop-color:#005F9D"/>
	<stop  offset="0.9944" style="stop-color:#005B97"/>
	<stop  offset="1" style="stop-color:#CCE0F4"/>
</linearGradient>
<path class="st0" d="M262.2,522.5c-12.2-4.2-22-7.7-32-10.6c-1.7-0.5-4.8,1.3-6.4,2.9c-19,18.8-37.9,37.6-56.7,56.6
	c-4.4,4.4-9,6.6-15.3,6.4c-12.4-0.4-24.9-0.1-37.9-0.1c0-7,0-13.8,0-21.4c11,0,22,0.1,33.1-0.1c2.2,0,5.1-0.6,6.6-2
	c17.5-17.1,34.7-34.5,52.5-52.2c-10-5-19.4-9.8-29.6-15c-10,10-20.3,20.1-30.3,30.5c-4.6,4.9-9.6,7.5-16.5,6.8
	c-4.2-0.4-8.5,0.2-12.7-0.1c-9.2-0.6-16.4,0.1-22.4,9.8c-7.4,12-23.5,14.5-36.5,8.9c-12.6-5.4-20.4-18.4-19.3-32.1
	c1.1-13.7,11.2-25.3,25.1-28.5c13.2-3.1,27.6,2.8,34.2,15c2.6,4.9,5.8,5.1,10.4,5.8c15.6,2.1,28-2.4,37.4-15.4
	c3.1-4.2,7.8-7.2,12.2-11.2c-9.9-6.9-18.7-12.8-27.2-19c-33.5-24.4-62.7-53.3-88.7-85.5c-5-6.2-4.8-10.2,0.9-17.2
	c33.2-41,71.6-76.1,116.6-103.9c1.3-0.8,2.5-1.7,4.4-2.9c-11-11-21.6-21.7-32.4-32.2c-1.1-1-3.2-1.2-4.9-1.3
	c-3.3-0.2-6.7,0.1-10-0.1c-8.9-0.5-16.1-0.3-21.9,9.6c-7.1,12.1-23.3,14.8-36.4,9.3c-12.9-5.4-20.9-18.6-19.6-32.6
	c1.3-13.8,11.5-25.1,25.4-28.3c13.1-3,27.6,3.2,34.1,15.4c2.3,4.2,4.7,5.6,9.2,5.4c8-0.3,16,0.1,24-0.2c5.6-0.2,9.7,1.8,13.6,5.7
	c11.7,11.9,23.5,23.7,35.5,35.4c1.3,1.3,4.4,2.2,5.9,1.6c18.9-7.7,37.7-15.8,56.5-23.8c0.3-0.1,0.6-0.5,1.7-1.5
	c-4.7-4.5-9.5-8.8-14-13.3c-21.4-21.4-42.8-42.9-64.4-64.1c-2.2-2.2-6-3.8-9.1-3.9c-16.9-0.4-33.8-0.1-50.7-0.3
	c-3.8,0-5.8,1.1-7.7,4.6c-7.3,13.5-21.8,19.6-36.2,15.7c-14.1-3.8-23.8-16.4-23.8-30.9c0-14.5,9.8-27.2,23.9-30.9
	c14.5-3.8,29,2.3,36.2,15.8c1.9,3.6,3.9,4.5,7.7,4.5c18.7-0.2,37.4,0.1,56.1-0.2c6.3-0.1,10.9,2,15.3,6.4
	c27.6,27.8,55.5,55.3,82.9,83.3c5.6,5.7,10.6,8,17.9,5c1.6-0.7,3.4-1,5.8-1.6c0-18.1,0.1-36.3-0.1-54.5c0-1.8-1.8-3.9-3.3-5.4
	c-10.6-10.8-21.5-21.3-32-32.2c-2.9-3-5.2-3.5-9.2-2.4c-13.3,3.8-24.8,0.1-33.5-10.5c-8.5-10.4-9.9-22.3-3.8-34.4
	c6.2-12.3,16.7-18.2,30.4-17.7c19.7,0.7,34.3,20.2,29,39.4c-1.5,5.5-0.2,8.4,3.5,12c11.7,11.3,23,23,34.6,34.3c4.1,4,6,8.3,5.9,14.1
	c-0.3,15.6-0.1,31.2-0.1,46.7c0,2.2,0,4.3,0,6.5c14.5-1.3,28.2-2.5,42.7-3.9c0-6,0-12.2,0-18.4c0-15.1-0.1-30.3,0.1-45.4
	c0.1-4.3-0.7-7.8-4.3-10.5c-1.9-1.5-3.6-3.3-5.2-5.2c-4.9-5.9-9.6-8.9-18.5-6.4c-13.1,3.6-27.4-5.3-33.3-17.9
	c-5.9-12.7-2.9-27.7,7.6-37.2c10.4-9.5,25.7-11,37.8-3.8c12.1,7.1,18.5,21.6,14.5,34.9c-1.6,5.4-0.7,8.9,3.6,11.9
	c16.1,11.3,21.2,26.6,19.4,46.1c-1.6,17-0.3,34.2-0.3,51.8c14.2,1.3,28,2.6,42.7,3.9c0-7.2-0.6-14.5,0.2-21.7
	c0.5-4.5,2.3-9.6,5.3-12.8c10.7-11.6,21.9-22.8,33.5-33.6c4.6-4.3,3.3-9.1,3.8-14c0.5-5.5-0.7-9-6.2-12.1
	c-12.6-6.9-17.8-21.9-13.9-35.7c3.9-13.7,16.5-23.2,30.8-23.2c14.2,0,26.9,9.6,30.7,23.3c3.9,13.9-1.5,28.6-14,35.7
	c-4.7,2.7-7,5.5-6.1,10.8c2.5,14.6-2.9,25.5-14.3,34.8c-8.4,6.8-15.4,15.5-23.3,22.9c-3.9,3.6-5.7,7.4-5.2,12.8
	c0.5,5.5,0.1,11.1,0.1,16.5c16,4.5,31.6,8.8,48.1,13.4c0-7.8-0.6-15.5,0.2-23.1c0.5-4.3,2.2-9.3,5.1-12.3c25.1-25.6,50.4-51,76-76
	c3.1-3,8.5-4.9,12.9-5.1c12-0.7,24-0.4,36-0.2c3.6,0.1,5.4-1,7.2-4.3c7.3-13.6,21.6-19.8,36-16.1c14.2,3.6,24.1,16.2,24.2,30.6
	c0.1,14.8-9.7,27.6-24.2,31.3c-14.4,3.7-28.7-2.4-36-16.1c-1.8-3.2-3.6-4.8-7.2-4.2c-0.4,0.1-0.9,0-1.3,0c-11.1,0.1-23.5-2.9-33,1
	c-9.5,3.9-16.3,14.7-24.1,22.5c-15.6,15.5-31.3,31.1-46.6,46.9c-2,2.1-2.6,5.6-3.7,8.6c-0.4,1-0.1,2.2,0,3.3
	c0.2,7.3-1.9,16.1,1.4,21.4c3.2,5.1,12.2,6.4,18.5,9.7c3.3,1.7,5.4,1.3,8-1.4c13.9-14.1,28-28,41.9-42.1c4-4.1,8.4-6.1,14.2-5.8
	c8,0.3,16-0.1,24,0.2c4,0.1,6.2-0.8,8.3-4.7c7-13.2,21.5-19.4,35.6-15.8c14.5,3.7,24.5,16.4,24.4,31.2c-0.1,14.5-9.8,27.1-24,30.8
	c-14.1,3.7-28.8-2.3-35.8-15.3c-2.2-4-4.7-4.5-8.7-5.1c-16.7-2.6-29.3,3-39.7,16.3c-6.8,8.7-15.6,15.8-24,24.1
	c2.6,1.7,4.5,3,6.5,4.2c47.3,28.3,87.5,64.8,122,107.6c5.2,6.5,5,10.3-0.5,17.2c-23,28.6-48.8,54.2-77.7,76.8
	c-1.6,1.2-3.1,2.5-5.3,4.4c5.3,5.3,10.3,10.5,15.7,15.3c3.8,3.3,8.6,1.6,11.5-3.6c7.9-13.9,24.3-19.9,39.1-14.4
	c14.5,5.4,23.4,20.9,20.4,35.8c-3.2,16-17,27.1-33,26.2c-11.7-0.6-20.8-6.2-26.4-16.6c-1.8-3.3-3.6-5.3-7.5-4.7
	c-8.5,1.4-14.9-2-20.4-8.5c-5.1-6.1-10.9-11.7-15.8-17c-15.1,8.7-29,16.6-42.7,24.8c-1.5,0.9-2.2,3.3-3.1,5.1c-0.2,0.3,0,0.9,0,1.3
	c-2.5,15.3,1.9,27.5,14.8,36.9c5.9,4.3,10.9,9.9,15.6,15.5c4.2,4.9,8.9,6.3,15.1,6.1c12.2-0.4,24.5-0.3,36.7,0
	c3.6,0.1,5.4-1,7.2-4.3c7.3-13.6,21.7-19.8,36-16.1c14.2,3.7,24.1,16.2,24.2,30.6c0.1,14.8-9.7,27.6-24.2,31.3
	c-14.4,3.7-28.7-2.4-36-16.1c-1.7-3.2-3.6-4.3-7.2-4.3c-15.6,0.2-31.2-0.1-46.7,0.2c-5.6,0.1-9.7-1.8-13.6-5.7
	c-12-12.3-24-24.5-36.4-36.3c-5.1-4.9-7.6-10.1-6.9-17.1c0.4-4.8,0.1-9.6,0.1-15.1c-10.3,3.9-19.9,7.4-29.3,11.3
	c-1.3,0.5-2.6,2.9-2.6,4.4c-0.3,6.2-0.3,12.5,0,18.7c0.1,2,1.1,4.3,2.5,5.7c18.3,18.5,36.9,36.8,55.1,55.4c3.2,3.3,5.8,1.9,8.9,1.1
	c13.2-3.3,24.4,0.4,32.9,10.7c8.4,10.1,9.9,21.9,4.2,33.8c-5.8,12.1-15.9,18.4-29.4,18.4c-20.7,0-36-20-30.3-40
	c1.4-4.9,0.3-7.6-3.1-10.8c-18.6-18.3-36.8-36.9-55.4-55.1c-5-4.9-7.6-10-7-17.1c0.5-5.5,0.1-11.1,0.1-17.6c-10.8,2.4-21,4.6-32,7
	c0,14.1-0.1,28,0.1,41.9c0,1.7,1.6,3.5,2.9,4.9c7.2,7.3,14.2,14.8,21.8,21.7c5.4,4.9,8.2,10.3,7.2,17.6c-0.6,4.3,0.7,7,5.1,9.3
	c13,6.9,18.9,21.9,15.1,35.9c-3.8,14.1-16.5,23.8-31,23.8c-14.5-0.1-27.1-9.8-30.8-24c-3.7-14.1,2.4-28.6,15.2-36
	c6.6-3.8,7.2-8.2,1.5-13.9c-7.5-7.6-15-15.3-22.7-22.6c-4.2-4-6-8.3-5.9-14.2c0.3-13.5,0.1-27.1,0.1-41.2c-10.8,0.8-21.1,1.6-32,2.4
	c0,6.3,0,12.2,0,18.2c0,20.9,0.1,41.8-0.1,62.8c0,4.2,0.9,6.6,5,8.7c13,6.9,19,21.7,15.4,35.8c-3.7,14.1-16.3,24-30.8,24
	c-14.8,0.1-27.5-9.8-31.2-24.4c-3.6-14.1,2.7-28.3,15.6-35.8c2-1.1,4.5-3.5,4.5-5.3c0.3-27.8,0.2-55.6,0.2-83.9
	c-7.2-0.5-13.9-1-21.4-1.5c0,6.6-0.3,12.5,0.1,18.5c0.4,6-1.7,10.6-6,14.8c-11.1,10.7-21.5,22-32.8,32.4c-4.8,4.5-3.6,9.5-4.1,14.6
	c-0.5,5.6,1,8.9,6.5,11.9c12.5,7,17.6,22.1,13.6,35.9c-4,13.6-16.8,23-31,22.9c-14.2-0.1-26.7-9.8-30.5-23.6
	c-3.8-13.8,1.7-28.7,14.3-35.6c5.1-2.7,6.7-5.8,5.8-10.9c-2.4-14.3,2.9-25.1,14.1-34.2c8.2-6.7,15-15.2,22.9-22.4
	c4.5-4.1,6.6-8.5,5.9-14.5c-0.5-3.9-0.1-7.9-0.1-11.5c-0.7-0.5-0.9-0.6-1.1-0.7c-18.2-4.4-18.2-4.4-31.6,8.9
	c-31.8,31.8-63.7,63.5-95.3,95.4c-4.4,4.4-9,7-15.3,6.4c-4-0.4-8,0.1-12-0.1c-9.8-0.6-17.8-0.5-24.3,10.2c-7.1,11.8-23.2,14-36,8.5
	c-12.9-5.5-20.8-18.8-19.4-32.7c1.4-13.6,11.4-24.7,25-27.9c13.2-3.1,27.7,2.7,34.2,14.9c2.6,4.8,5.7,5.1,10.3,5.8
	c16,2.4,27.1-3.9,38-15.6c24.7-26.5,51-51.6,76.7-77.2C256.9,526.2,259.1,524.9,262.2,522.5z M359.7,214.6
	C277,214.4,210,281,209.7,363.5c-0.3,82.8,66.6,150,149.5,150.2c82.3,0.1,149.7-67.1,149.7-149.3C508.9,281.8,442,214.7,359.7,214.6
	z M469.2,233c39.9,35.7,60.8,78.9,60.8,130.9c0.1,52.3-21,95.5-60.3,130.8c49.4-8.5,163.6-89.9,184.8-131.1
	C606.6,303.9,536.2,253.3,469.2,233z M63.6,363.6C93.4,410.8,209.7,493,248.1,494.1c-38.8-34.8-59.6-78-59.6-130
	c0-52.2,21-95.4,59.4-130.6C173.3,258.6,113.5,304.1,63.6,363.6z M241.7,75.4c-0.1-5.8-5.1-10.5-10.9-10.4
	c-5.8,0.1-10.5,5-10.4,10.8c0.1,5.8,5.1,10.5,10.8,10.4C237,86.2,241.8,81.2,241.7,75.4z M327.1,76.2c0.3-5.7-4.3-10.8-10.1-11.1
	c-5.8-0.3-10.9,4.3-11.1,10.1c-0.3,5.8,4.3,10.9,10.1,11.2C321.7,86.6,326.8,81.9,327.1,76.2z M476.7,75.8
	c0.1-5.8-4.7-10.7-10.5-10.7c-5.8-0.1-10.7,4.7-10.7,10.5c-0.1,5.8,4.7,10.7,10.5,10.7C471.8,86.4,476.7,81.5,476.7,75.8z
	 M658.4,107.5c-0.1-5.8-5-10.6-10.8-10.5c-5.8,0.1-10.5,5-10.4,10.8c0.1,5.8,5,10.6,10.8,10.5C653.7,118.2,658.5,113.3,658.4,107.5z
	 M70.5,107.8c-5.8,0.2-10.5,5.1-10.3,10.9c0.2,5.8,5.1,10.5,10.9,10.3c5.8-0.2,10.5-5.1,10.4-10.9C81.2,112.3,76.2,107.6,70.5,107.8
	z M648.3,182.5c-5.8-0.3-10.8,4.3-11.1,10.1c-0.3,5.7,4.3,10.9,10.1,11.2c5.7,0.3,10.9-4.3,11.2-10.1
	C658.7,188,654,182.8,648.3,182.5z M81.4,203.8c0-5.8-4.9-10.6-10.7-10.6c-5.8,0-10.6,4.8-10.6,10.6c0,5.8,4.9,10.6,10.6,10.6
	C76.5,214.5,81.4,209.6,81.4,203.8z M658.4,481.8c0.1-5.8-4.7-10.7-10.4-10.8c-5.8-0.1-10.7,4.6-10.8,10.4
	c-0.1,5.8,4.6,10.7,10.4,10.8C653.3,492.4,658.3,487.6,658.4,481.8z M70.7,503.1c-5.8,0-10.6,4.8-10.6,10.7
	c0,5.8,4.9,10.6,10.6,10.6c5.8,0,10.6-4.9,10.6-10.7C81.4,507.9,76.5,503,70.7,503.1z M647.6,577.7c5.8,0.1,10.7-4.7,10.8-10.4
	c0.1-5.8-4.7-10.7-10.4-10.8c-5.8-0.1-10.7,4.6-10.8,10.4C637,572.7,641.8,577.6,647.6,577.7z M113.4,631
	c-0.1-5.8-5.1-10.5-10.9-10.4c-5.8,0.1-10.5,5-10.4,10.8c0.1,5.8,5.1,10.5,10.8,10.4C108.8,641.7,113.6,636.8,113.4,631z
	 M562.2,631.3c0-5.8-4.8-10.7-10.6-10.7c-5.8,0-10.7,4.7-10.7,10.5c0,5.8,4.7,10.7,10.5,10.7C557.3,641.9,562.2,637.1,562.2,631.3z
	 M273.6,663.2c5.8,0.1,10.7-4.7,10.8-10.4c0.1-5.8-4.6-10.7-10.4-10.8c-5.8-0.1-10.7,4.6-10.8,10.4
	C263,658.2,267.8,663.1,273.6,663.2z M369.9,652.3c-0.1-5.8-5.1-10.5-10.9-10.4c-5.8,0.2-10.5,5.1-10.4,10.9
	c0.1,5.8,5.1,10.5,10.9,10.4C365.3,663.1,370,658.1,369.9,652.3z M455.4,652.4c-0.1-5.8-5-10.6-10.8-10.4c-5.8,0.1-10.5,5-10.4,10.8
	c0.1,5.8,5,10.6,10.8,10.4C450.7,663.1,455.5,658.2,455.4,652.4z"/>
<linearGradient id="SVGID_00000148635718477050544510000004862004504094476704_" gradientUnits="userSpaceOnUse" x1="124.6508" y1="161.0657" x2="156.1012" y2="161.0657">
	<stop  offset="6.462271e-02" style="stop-color:#1E9CD7"/>
	<stop  offset="0.2451" style="stop-color:#0075BE"/>
	<stop  offset="0.5391" style="stop-color:#0065A6"/>
	<stop  offset="0.7402" style="stop-color:#005F9D"/>
	<stop  offset="0.9944" style="stop-color:#005B97"/>
	<stop  offset="1" style="stop-color:#CCE0F4"/>
</linearGradient>
<path style="fill:url(#SVGID_00000148635718477050544510000004862004504094476704_);" d="M156.1,150.9c0,7,0,13.5,0,20.4
	c-10.4,0-20.7,0-31.5,0c0-6.5,0-13.3,0-20.4C134.9,150.9,145.2,150.9,156.1,150.9z"/>
<linearGradient id="SVGID_00000160905836144603671760000004108345057008738977_" gradientUnits="userSpaceOnUse" x1="530.6614" y1="75.5604" x2="551.2639" y2="75.5604">
	<stop  offset="6.462271e-02" style="stop-color:#1E9CD7"/>
	<stop  offset="0.2451" style="stop-color:#0075BE"/>
	<stop  offset="0.5391" style="stop-color:#0065A6"/>
	<stop  offset="0.7402" style="stop-color:#005F9D"/>
	<stop  offset="0.9944" style="stop-color:#005B97"/>
	<stop  offset="1" style="stop-color:#CCE0F4"/>
</linearGradient>
<path style="fill:url(#SVGID_00000160905836144603671760000004108345057008738977_);" d="M530.7,65.3c7.1,0,13.7,0,20.6,0
	c0,6.9,0,13.5,0,20.5c-6.7,0-13.4,0-20.6,0C530.7,79.2,530.7,72.5,530.7,65.3z"/>
<linearGradient id="SVGID_00000012474845793441968730000000048529618128322738_" gradientUnits="userSpaceOnUse" x1="637.4445" y1="267.9034" x2="657.9535" y2="267.9034">
	<stop  offset="6.462271e-02" style="stop-color:#1E9CD7"/>
	<stop  offset="0.2451" style="stop-color:#0075BE"/>
	<stop  offset="0.5391" style="stop-color:#0065A6"/>
	<stop  offset="0.7402" style="stop-color:#005F9D"/>
	<stop  offset="0.9944" style="stop-color:#005B97"/>
	<stop  offset="1" style="stop-color:#CCE0F4"/>
</linearGradient>
<path style="fill:url(#SVGID_00000012474845793441968730000000048529618128322738_);" d="M637.4,257.6c6.9,0,13.4,0,20.5,0
	c0,6.7,0,13.4,0,20.6c-6.7,0-13.4,0-20.5,0C637.4,271.5,637.4,265,637.4,257.6z"/>
<linearGradient id="SVGID_00000149341933705610705550000017501181247858950319_" gradientUnits="userSpaceOnUse" x1="60.4896" y1="449.5294" x2="81.1173" y2="449.5294">
	<stop  offset="6.462271e-02" style="stop-color:#1E9CD7"/>
	<stop  offset="0.2451" style="stop-color:#0075BE"/>
	<stop  offset="0.5391" style="stop-color:#0065A6"/>
	<stop  offset="0.7402" style="stop-color:#005F9D"/>
	<stop  offset="0.9944" style="stop-color:#005B97"/>
	<stop  offset="1" style="stop-color:#CCE0F4"/>
</linearGradient>
<path style="fill:url(#SVGID_00000149341933705610705550000017501181247858950319_);" d="M81.1,439.3c0,6.9,0,13.4,0,20.5
	c-6.7,0-13.5,0-20.6,0c0-6.7,0-13.4,0-20.5C67.2,439.3,73.7,439.3,81.1,439.3z"/>
<linearGradient id="SVGID_00000058552578866845263370000002758497059850826376_" gradientUnits="userSpaceOnUse" x1="562.5878" y1="513.6324" x2="583.2135" y2="513.6324">
	<stop  offset="6.462271e-02" style="stop-color:#1E9CD7"/>
	<stop  offset="0.2451" style="stop-color:#0075BE"/>
	<stop  offset="0.5391" style="stop-color:#0065A6"/>
	<stop  offset="0.7402" style="stop-color:#005F9D"/>
	<stop  offset="0.9944" style="stop-color:#005B97"/>
	<stop  offset="1" style="stop-color:#CCE0F4"/>
</linearGradient>
<path style="fill:url(#SVGID_00000058552578866845263370000002758497059850826376_);" d="M562.6,503.3c7,0,13.6,0,20.6,0
	c0,6.9,0,13.6,0,20.7c-6.8,0-13.6,0-20.6,0C562.6,517.1,562.6,510.6,562.6,503.3z"/>
<linearGradient id="SVGID_00000046324217385484182430000014572397424242906772_" gradientUnits="userSpaceOnUse" x1="273.7733" y1="364.118" x2="444.7333" y2="364.118">
	<stop  offset="6.462271e-02" style="stop-color:#1E9CD7"/>
	<stop  offset="0.2451" style="stop-color:#0075BE"/>
	<stop  offset="0.5391" style="stop-color:#0065A6"/>
	<stop  offset="0.7402" style="stop-color:#005F9D"/>
	<stop  offset="0.9944" style="stop-color:#005B97"/>
	<stop  offset="1" style="stop-color:#CCE0F4"/>
</linearGradient>
<path style="fill:url(#SVGID_00000046324217385484182430000014572397424242906772_);" d="M273.8,363.8c0.1-47,38.5-85.2,85.6-85.1
	c47.3,0.1,85.5,38.6,85.3,86.1c-0.2,46.8-38.9,85.1-85.9,84.8C311.8,449.4,273.7,410.8,273.8,363.8z M359.1,300
	c-35.3,0.1-64,28.9-64,64.2c0,35.2,28.9,64,64.2,63.9c35.3-0.1,64-28.9,64-64.2C423.3,328.7,394.4,300,359.1,300z"/>
<linearGradient id="SVGID_00000054261809966302861580000016125073699190233489_" gradientUnits="userSpaceOnUse" x1="231.0735" y1="387.3929" x2="440.8808" y2="387.3929">
	<stop  offset="6.462271e-02" style="stop-color:#1E9CD7"/>
	<stop  offset="0.2451" style="stop-color:#0075BE"/>
	<stop  offset="0.5391" style="stop-color:#0065A6"/>
	<stop  offset="0.7402" style="stop-color:#005F9D"/>
	<stop  offset="0.9944" style="stop-color:#005B97"/>
	<stop  offset="1" style="stop-color:#CCE0F4"/>
</linearGradient>
<path style="fill:url(#SVGID_00000054261809966302861580000016125073699190233489_);" d="M427.9,446.6c4.5,5.4,8.7,10.5,12.9,15.6
	c-42.8,38.7-121.1,44.1-172.7-8c-51.5-52-45.1-129.7-6.9-171.7c5.1,4.2,10.2,8.5,15.7,13.1c-20.3,26.1-28.6,55.2-22.8,87.7
	c4.2,23.5,15.4,43.4,33,59.6C319.9,473.2,377.7,485.1,427.9,446.6z"/>
<linearGradient id="SVGID_00000033362994891503904960000012769831529727497884_" gradientUnits="userSpaceOnUse" x1="277.603" y1="340.825" x2="487.4385" y2="340.825">
	<stop  offset="6.462271e-02" style="stop-color:#1E9CD7"/>
	<stop  offset="0.2451" style="stop-color:#0075BE"/>
	<stop  offset="0.5391" style="stop-color:#0065A6"/>
	<stop  offset="0.7402" style="stop-color:#005F9D"/>
	<stop  offset="0.9944" style="stop-color:#005B97"/>
	<stop  offset="1" style="stop-color:#CCE0F4"/>
</linearGradient>
<path style="fill:url(#SVGID_00000033362994891503904960000012769831529727497884_);" d="M441.7,432.7
	c38.8-50.4,27.1-110.3-6.9-144.2c-34-34-94-45.6-144.2-6.9c-4.3-5.2-8.7-10.4-13-15.5c43-38.8,121.5-44.4,173.2,8.4
	c51.3,52.4,44.3,129.8,6.5,171.2C452.2,441.5,447.1,437.2,441.7,432.7z"/>
<linearGradient id="SVGID_00000124146587283333457440000000674251176595028123_" gradientUnits="userSpaceOnUse" x1="316.5244" y1="364.1125" x2="401.9692" y2="364.1125">
	<stop  offset="6.462271e-02" style="stop-color:#1E9CD7"/>
	<stop  offset="0.2451" style="stop-color:#0075BE"/>
	<stop  offset="0.5391" style="stop-color:#0065A6"/>
	<stop  offset="0.7402" style="stop-color:#005F9D"/>
	<stop  offset="0.9944" style="stop-color:#005B97"/>
	<stop  offset="1" style="stop-color:#CCE0F4"/>
</linearGradient>
<path style="fill:url(#SVGID_00000124146587283333457440000000674251176595028123_);" d="M359.3,321.4c23.6,0,42.8,19.3,42.7,42.9
	c-0.1,23.3-19.1,42.4-42.4,42.5c-23.6,0.1-43-19.1-43-42.6C316.5,340.6,335.7,321.4,359.3,321.4z M380.6,364.3
	c0.1-11.6-9.4-21.3-21-21.6c-11.6-0.2-21.5,9.3-21.7,20.8c-0.3,11.9,9.5,21.9,21.3,21.9C370.8,385.5,380.5,375.9,380.6,364.3z"/>
</svg>
