<?xml version="1.0" encoding="utf-8"?>
<!-- Generator: Adobe Illustrator 26.0.1, SVG Export Plug-In . SVG Version: 6.00 Build 0)  -->
<svg version="1.1" id="Layer_1" xmlns="http://www.w3.org/2000/svg" xmlns:xlink="http://www.w3.org/1999/xlink" x="0px" y="0px"
	 viewBox="0 0 720 720" style="enable-background:new 0 0 720 720;" xml:space="preserve">
<style type="text/css">
	.st0{fill:url(#SVGID_1_);}
	.st1{fill:url(#SVGID_00000041254512525690697510000015434395071466121132_);}
	.st2{fill:url(#SVGID_00000129926084717985843520000015324889054548187031_);}
	.st3{fill:url(#SVGID_00000175318320438823809500000003712443967070607520_);}
	.st4{fill:url(#SVGID_00000005956482337537930350000016968686803318009220_);}
	.st5{fill:url(#SVGID_00000073708306017759005990000002029656005541167760_);}
	.st6{fill:url(#SVGID_00000177469582172155976930000006850705917117997460_);}
	.st7{fill:url(#SVGID_00000008146753259063923410000015192906454679258286_);}
	.st8{fill:url(#SVGID_00000016076593498734441790000018281930812822435209_);}
	.st9{fill:url(#SVGID_00000049943597955576164320000004204894289060319408_);}
	.st10{fill:url(#SVGID_00000033328875781278864980000013058897767101269906_);}
	.st11{fill:url(#SVGID_00000029012828452038256080000013688414829805113748_);}
	.st12{fill:url(#SVGID_00000165951714759063417050000009186586126624004010_);}
</style>
<linearGradient id="SVGID_1_" gradientUnits="userSpaceOnUse" x1="71.3949" y1="389.5891" x2="672.8897" y2="389.5891">
	<stop  offset="8.696908e-02" style="stop-color:#1E9CD7"/>
	<stop  offset="0.3045" style="stop-color:#0A81C6"/>
	<stop  offset="0.4832" style="stop-color:#077EC4"/>
	<stop  offset="0.6564" style="stop-color:#047AC1"/>
	<stop  offset="0.8652" style="stop-color:#0075BE"/>
	<stop  offset="0.9944" style="stop-color:#005B97"/>
</linearGradient>
<path class="st0" d="M339,282.4c-22-20.9-42.6-40.6-63.4-60.2c-9.4-8.8-7.7-16.3,0.1-25.9c103.6-127.6,288.8-127.4,391.7,0.5
	c7.5,9.4,7.3,16-0.5,24.8c-47.6,54.1-105.7,88.1-179.6,95.3c0,6.2,0,11.9,0,17.6c0,70.9,0,141.8,0,212.8c0,28.4-10.1,38.5-38.3,38.6
	c-35.4,0.1-70.9,0-107.3,0c0,11.7,0,22.1,0,34.5c7.5,0,14.8-0.3,22,0.1c24.4,1.3,41.6,30.3,30.4,51.8c-1.6,3.2-7.7,5.8-11.7,5.8
	c-68.4,0.3-136.9,0.2-205.3,0.3c-10.3,0-13.9-4.7-14.4-14.6c-1.5-29,11-43,39.4-43.5c4.7-0.1,9.3-0.5,14.9-0.9c0-10.8,0-20.6,0-32.4
	c-31.5,0-62.2,0-92.8,0c-47.6,0-52.9-5.3-52.9-53.1c0-69.9,0-139.7,0-209.6c0-32.2,9.8-42,41.8-42c69.5,0,139,0,208.5,0
	C327.5,282.4,333.1,282.4,339,282.4z M650.1,209.2c-102.6-125-270.1-112.6-357.8,0.4C387.8,325.5,549.7,329.2,650.1,209.2z
	 M466.6,317.8c-9.7-1.2-18.6-1.8-27.4-3.4c-21.7-4.2-43.3-12.4-65.1-12.8c-87.5-1.5-175-0.6-262.6-0.6c-18.6,0-20.7,2.1-20.7,21.4
	c-0.1,74.1-0.1,148.2,0,222.3c0,20.4,1.6,21.9,21.5,21.9c110.9,0,221.7,0,332.6,0c20.3,0,22.3-2.1,22.4-23.2c0-70.4,0-140.7,0-211.1
	C467.3,327.6,466.9,322.9,466.6,317.8z M183,658.1c64.1,0,127.9,0,192.3,0c0.7-12.8-4.5-18.4-16.7-18.4c-53,0.1-106.1,0.1-159.1,0
	C187.5,639.6,181.8,644.9,183,658.1z M238.7,619.4c27.8,0,54.5,0,81.9,0c0-11.3,0-21.6,0-32.6c-27.7,0-54.4,0-81.9,0
	C238.7,598.1,238.7,608.4,238.7,619.4z"/>
<linearGradient id="SVGID_00000085220672066219720710000014639635750853198509_" gradientUnits="userSpaceOnUse" x1="456.052" y1="75.1345" x2="480.0625" y2="75.1345">
	<stop  offset="8.696908e-02" style="stop-color:#1E9CD7"/>
	<stop  offset="0.3045" style="stop-color:#0A81C6"/>
	<stop  offset="0.4832" style="stop-color:#077EC4"/>
	<stop  offset="0.6564" style="stop-color:#047AC1"/>
	<stop  offset="0.8652" style="stop-color:#0075BE"/>
	<stop  offset="0.9944" style="stop-color:#005B97"/>
</linearGradient>
<path style="fill:url(#SVGID_00000085220672066219720710000014639635750853198509_);" d="M456.1,74c6.8-7.1,11.1-11.6,15.4-16.2
	c3.1,5.8,8.6,11.5,8.6,17.3c0,5.7-5.6,11.5-8.7,17.2C467,87.2,462.7,82,456.1,74z"/>
<linearGradient id="SVGID_00000121245525191503075630000015964054696560129931_" gradientUnits="userSpaceOnUse" x1="412.0258" y1="78.2749" x2="437.8258" y2="78.2749">
	<stop  offset="8.696908e-02" style="stop-color:#1E9CD7"/>
	<stop  offset="0.3045" style="stop-color:#0A81C6"/>
	<stop  offset="0.4832" style="stop-color:#077EC4"/>
	<stop  offset="0.6564" style="stop-color:#047AC1"/>
	<stop  offset="0.8652" style="stop-color:#0075BE"/>
	<stop  offset="0.9944" style="stop-color:#005B97"/>
</linearGradient>
<path style="fill:url(#SVGID_00000121245525191503075630000015964054696560129931_);" d="M437.8,82.8c-6.9,5.7-11.1,9.2-15.3,12.7
	c-3.7-6.8-9.1-13.2-10.4-20.4c-0.7-4,5.4-9.3,8.5-14C425.6,67.5,430.7,73.8,437.8,82.8z"/>
<linearGradient id="SVGID_00000042721761225721147150000000620402388486300033_" gradientUnits="userSpaceOnUse" x1="315.8006" y1="99.2234" x2="339.6169" y2="99.2234">
	<stop  offset="8.696908e-02" style="stop-color:#1E9CD7"/>
	<stop  offset="0.3045" style="stop-color:#0A81C6"/>
	<stop  offset="0.4832" style="stop-color:#077EC4"/>
	<stop  offset="0.6564" style="stop-color:#047AC1"/>
	<stop  offset="0.8652" style="stop-color:#0075BE"/>
	<stop  offset="0.9944" style="stop-color:#005B97"/>
</linearGradient>
<path style="fill:url(#SVGID_00000042721761225721147150000000620402388486300033_);" d="M326.2,80.2c6.1,12.1,11,19.6,13.4,27.8
	c0.7,2.6-5.3,10.3-8.2,10.3c-13.6-0.1-13.2-12.8-15.5-21.7C315.1,93.6,320.4,89,326.2,80.2z"/>
<linearGradient id="SVGID_00000158751295109872898830000002961747771695647646_" gradientUnits="userSpaceOnUse" x1="269.9437" y1="124.408" x2="300.5205" y2="124.408">
	<stop  offset="8.696908e-02" style="stop-color:#1E9CD7"/>
	<stop  offset="0.3045" style="stop-color:#0A81C6"/>
	<stop  offset="0.4832" style="stop-color:#077EC4"/>
	<stop  offset="0.6564" style="stop-color:#047AC1"/>
	<stop  offset="0.8652" style="stop-color:#0075BE"/>
	<stop  offset="0.9944" style="stop-color:#005B97"/>
</linearGradient>
<path style="fill:url(#SVGID_00000158751295109872898830000002961747771695647646_);" d="M300.5,130.9c-6.6,4.7-13.3,10-13.7,9.6
	c-6.3-7-12.2-14.4-16.9-22.5c-0.6-1.1,6-6.3,9.3-9.7C285.7,115.1,292.1,122,300.5,130.9z"/>
<linearGradient id="SVGID_00000033350535296737732950000012016733769527759249_" gradientUnits="userSpaceOnUse" x1="363.8952" y1="87.3463" x2="389.3239" y2="87.3463">
	<stop  offset="8.696908e-02" style="stop-color:#1E9CD7"/>
	<stop  offset="0.3045" style="stop-color:#0A81C6"/>
	<stop  offset="0.4832" style="stop-color:#077EC4"/>
	<stop  offset="0.6564" style="stop-color:#047AC1"/>
	<stop  offset="0.8652" style="stop-color:#0075BE"/>
	<stop  offset="0.9944" style="stop-color:#005B97"/>
</linearGradient>
<path style="fill:url(#SVGID_00000033350535296737732950000012016733769527759249_);" d="M389.3,92.4c-5.8,5.3-9.6,8.6-13.3,11.9
	c-4.3-7.1-10-13.7-12.1-21.4c-0.9-3.1,6.1-8.4,9.5-12.7C378.2,76.9,383,83.6,389.3,92.4z"/>
<linearGradient id="SVGID_00000181806184172651960050000015540778577478586020_" gradientUnits="userSpaceOnUse" x1="556.6639" y1="87.4996" x2="582.0925" y2="87.4996">
	<stop  offset="8.696908e-02" style="stop-color:#1E9CD7"/>
	<stop  offset="0.3045" style="stop-color:#0A81C6"/>
	<stop  offset="0.4832" style="stop-color:#077EC4"/>
	<stop  offset="0.6564" style="stop-color:#047AC1"/>
	<stop  offset="0.8652" style="stop-color:#0075BE"/>
	<stop  offset="0.9944" style="stop-color:#005B97"/>
</linearGradient>
<path style="fill:url(#SVGID_00000181806184172651960050000015540778577478586020_);" d="M582.1,83.8c-7.1,7.7-12.8,14-18.5,20.2
	c-2.5-3.9-7.5-8.4-6.9-11.7c1.7-8.4-0.7-21.3,13.4-21.3C573.3,71,576.4,77.4,582.1,83.8z"/>
<linearGradient id="SVGID_00000034073893737289753170000006756213248118206595_" gradientUnits="userSpaceOnUse" x1="509.5659" y1="78.8731" x2="533.8082" y2="78.8731">
	<stop  offset="8.696908e-02" style="stop-color:#1E9CD7"/>
	<stop  offset="0.3045" style="stop-color:#0A81C6"/>
	<stop  offset="0.4832" style="stop-color:#077EC4"/>
	<stop  offset="0.6564" style="stop-color:#047AC1"/>
	<stop  offset="0.8652" style="stop-color:#0075BE"/>
	<stop  offset="0.9944" style="stop-color:#005B97"/>
</linearGradient>
<path style="fill:url(#SVGID_00000034073893737289753170000006756213248118206595_);" d="M533.8,76.9c-6.7,7.6-11.6,13.1-16.5,18.6
	c-2.7-4.8-7.2-9.6-7.5-14.6c-0.5-8.1-0.9-18.9,11.2-18.7C524.6,62.3,528,70,533.8,76.9z"/>
<linearGradient id="SVGID_00000170280161769294644160000014906903430178224562_" gradientUnits="userSpaceOnUse" x1="602.1118" y1="103.2701" x2="625.0826" y2="103.2701">
	<stop  offset="8.696908e-02" style="stop-color:#1E9CD7"/>
	<stop  offset="0.3045" style="stop-color:#0A81C6"/>
	<stop  offset="0.4832" style="stop-color:#077EC4"/>
	<stop  offset="0.6564" style="stop-color:#047AC1"/>
	<stop  offset="0.8652" style="stop-color:#0075BE"/>
	<stop  offset="0.9944" style="stop-color:#005B97"/>
</linearGradient>
<path style="fill:url(#SVGID_00000170280161769294644160000014906903430178224562_);" d="M607.5,120c-1.9-4.1-6.4-9.3-5.2-12
	c3.4-8,9.1-14.9,13.9-22.3c3.1,3.4,9.5,7.7,8.9,10.1c-2.4,8.7-7.1,16.8-11,25.1C611.9,120.6,609.7,120.3,607.5,120z"/>
<linearGradient id="SVGID_00000018953622498219273740000010327917875709890450_" gradientUnits="userSpaceOnUse" x1="646.1375" y1="127.7045" x2="671.1874" y2="127.7045">
	<stop  offset="8.696908e-02" style="stop-color:#1E9CD7"/>
	<stop  offset="0.3045" style="stop-color:#0A81C6"/>
	<stop  offset="0.4832" style="stop-color:#077EC4"/>
	<stop  offset="0.6564" style="stop-color:#047AC1"/>
	<stop  offset="0.8652" style="stop-color:#0075BE"/>
	<stop  offset="0.9944" style="stop-color:#005B97"/>
</linearGradient>
<path style="fill:url(#SVGID_00000018953622498219273740000010327917875709890450_);" d="M654.9,147c-4.9-8.5-9.7-13.5-8.7-15.4
	c4.4-8.3,10.4-15.6,15.9-23.3c3.2,3.4,9.7,8.2,9,10C667.6,127,662.1,134.8,654.9,147z"/>
<linearGradient id="SVGID_00000037693872415935800020000010543261773736676271_" gradientUnits="userSpaceOnUse" x1="392.7211" y1="207.9349" x2="548.8879" y2="207.9349">
	<stop  offset="8.696908e-02" style="stop-color:#1E9CD7"/>
	<stop  offset="0.3045" style="stop-color:#0A81C6"/>
	<stop  offset="0.4832" style="stop-color:#077EC4"/>
	<stop  offset="0.6564" style="stop-color:#047AC1"/>
	<stop  offset="0.8652" style="stop-color:#0075BE"/>
	<stop  offset="0.9944" style="stop-color:#005B97"/>
</linearGradient>
<path style="fill:url(#SVGID_00000037693872415935800020000010543261773736676271_);" d="M548.9,208c-0.1,43.6-34.5,78.4-77.6,78.4
	c-43.8,0-79.3-35.8-78.6-79.3c0.7-43.3,35.6-77.7,78.7-77.6C514.6,129.6,548.9,164.5,548.9,208z M529.5,209.3
	c0.2-33.2-24.9-59-57.8-59.2c-33.5-0.3-59.9,26-59.6,59.3c0.3,32.6,26.6,58.8,58.9,58.9C503.4,268.3,529.3,242.2,529.5,209.3z"/>
<linearGradient id="SVGID_00000155844485387033609060000010155529735788116887_" gradientUnits="userSpaceOnUse" x1="113.9226" y1="434.0307" x2="443.1363" y2="434.0307">
	<stop  offset="8.696908e-02" style="stop-color:#1E9CD7"/>
	<stop  offset="0.3045" style="stop-color:#0A81C6"/>
	<stop  offset="0.4832" style="stop-color:#077EC4"/>
	<stop  offset="0.6564" style="stop-color:#047AC1"/>
	<stop  offset="0.8652" style="stop-color:#0075BE"/>
	<stop  offset="0.9944" style="stop-color:#005B97"/>
</linearGradient>
<path style="fill:url(#SVGID_00000155844485387033609060000010155529735788116887_);" d="M277,546.7c-47.7,0-95.4-0.5-143.1,0.3
	c-15.3,0.2-20.1-4.9-20-20.3c0.7-62.3,0.7-124.7,0-187c-0.1-14,4.6-18.6,18.3-18.6c97.5,0.4,195.1,0.4,292.6,0
	c13.6-0.1,18.4,4.2,18.3,18.4c-0.7,61.8-0.3,123.6-0.3,185.4c0,21.4-0.3,21.8-21.1,21.8C373.5,546.7,325.2,546.7,277,546.7z
	 M134.4,526c97,0,192.7,0,288.3,0c0-32,0-62.7,0-94.7c-7.7,0-14.6,0.5-21.3-0.1c-27.8-2.5-53.4-0.3-71.1,26.2
	c-6,9-14.2,7.7-19.5-3.1c-6.4-13.1-13.4-25.9-21.4-41.2c-11.6,22-21.2,41.5-32,60.3c-4.2,7.2-11.1,12.9-16.7,19.3
	c-4.7-7.6-10.7-14.6-13.7-22.8c-6.1-17-10.5-34.6-15.6-51.9c-11,21.6-26,29.4-48,26.1c-9.2-1.4-18.8-0.2-29-0.2
	C134.4,472,134.4,498.4,134.4,526z M244.3,457.8c12.9-24.2,23.3-44.5,34.6-64.3c2.5-4.4,8-9.2,12.5-9.7c3.3-0.3,8.4,5.5,10.8,9.7
	c7.7,13.6,14.6,27.8,22.9,44c14.2-19.8,30.6-28.2,53-25.2c14.9,2,30.3,0.4,45,0.4c0-25.6,0-48.8,0-71.9c-97,0-192.8,0-288.8,0
	c0,27.6,0,54,0,80.6c2.2,0.6,3.6,1.2,5.1,1.4c28.1,4.1,52.3,0.4,63.7-31c1.6-4.4,8.3-7,12.6-10.4c3.5,4.8,8.4,9.1,10.2,14.5
	C232.2,414.9,237.4,434.3,244.3,457.8z"/>
<linearGradient id="SVGID_00000079443788584013628120000004800986459038644122_" gradientUnits="userSpaceOnUse" x1="436.3116" y1="208.7602" x2="505.8662" y2="208.7602">
	<stop  offset="8.696908e-02" style="stop-color:#1E9CD7"/>
	<stop  offset="0.3045" style="stop-color:#0A81C6"/>
	<stop  offset="0.4832" style="stop-color:#077EC4"/>
	<stop  offset="0.6564" style="stop-color:#047AC1"/>
	<stop  offset="0.8652" style="stop-color:#0075BE"/>
	<stop  offset="0.9944" style="stop-color:#005B97"/>
</linearGradient>
<path style="fill:url(#SVGID_00000079443788584013628120000004800986459038644122_);" d="M470.7,243.5
	c-19.2-0.1-34.3-15.3-34.4-34.4c-0.1-19,15.3-34.8,34.1-35.1c18.9-0.3,35.9,16.8,35.5,35.7C505.4,228.6,489.8,243.7,470.7,243.5z
	 M492.9,208.2c-9.8-7.3-15.8-15.1-21.2-14.8c-5.6,0.4-10.8,8.6-16.1,13.4c5.1,5.5,9.6,14.3,15.6,15.6
	C476,223.5,482.7,215.3,492.9,208.2z"/>
</svg>
