<?xml version="1.0" encoding="utf-8"?>
<!-- Generator: Adobe Illustrator 26.0.1, SVG Export Plug-In . SVG Version: 6.00 Build 0)  -->
<svg version="1.1" id="Layer_1" xmlns="http://www.w3.org/2000/svg" xmlns:xlink="http://www.w3.org/1999/xlink" x="0px" y="0px"
	 viewBox="0 0 720 720" style="enable-background:new 0 0 720 720;" xml:space="preserve">
<style type="text/css">
	.st0{fill:url(#SVGID_1_);}
	.st1{fill:#FEFEFE;}
	.st2{fill:url(#SVGID_00000172398763522662377340000011117449650743420332_);}
	.st3{fill:#FFFFFF;}
</style>
<linearGradient id="SVGID_1_" gradientUnits="userSpaceOnUse" x1="17.3729" y1="366.7182" x2="709.8083" y2="366.7182">
	<stop  offset="9.255566e-02" style="stop-color:#1E9CD7"/>
	<stop  offset="0.53" style="stop-color:#0075BE"/>
	<stop  offset="1" style="stop-color:#005B97"/>
	<stop  offset="1" style="stop-color:#CCE0F4"/>
</linearGradient>
<path class="st0" d="M658,235.8c-5.7,24.5,2.5,45.3,19.9,63.4c8,8.4,14.5,18,20.4,28.1c15.4,26.3,15.4,52.5,0,78.7
	c-7.6,13-17,24.8-26.8,36.1c-11,12.7-15.9,26.8-14.8,43.8c1,15.1,2,30.3,0.6,45.6c-2.8,29.9-17.6,50.8-44.9,63.1
	c-16.2,7.3-33.6,10.9-50.6,15.9c-11.7,3.5-20.7,9.9-27.4,19.9c-8.1,12.1-16,24.3-24.7,35.9c-13.2,17.7-30.1,30.2-52.9,32.6
	c-15.1,1.6-29.3-2.1-43.4-6.9c-10.1-3.4-20.1-7-30-11c-13.3-5.3-26.3-4.9-39.8,0.1c-15.9,5.8-31.6,12.5-48.3,16.1
	c-28.4,6.1-51.9-2.1-71.3-23.3c-9.6-10.4-17.7-22-24.5-34.3c-10.3-18.4-25.5-28.7-45.9-32.9c-10-2-19.8-5.2-29.4-8.5
	c-36.6-12.8-54-37-54.7-76.6c-0.3-14.3,0.5-28.6,1.1-42.9c0.5-11.4-3-21.4-10-30.3c-8.7-11-17.7-22-25.7-33.5
	c-23.3-33.2-23.3-63.2,0-96.4c8.1-11.5,17-22.4,25.7-33.5c7.1-8.9,10.1-18.9,10.1-30.3c0-17-2-34-0.7-51.1
	c2.7-35.7,22.1-57.5,54.9-68.6c12.7-4.3,25.6-7.8,38.5-11.3c13.1-3.5,23.3-10.6,30.6-22.2c6.7-10.6,13.6-21,21-31
	c26-35,53.9-43.8,95.4-30.3c11.2,3.6,22.3,7.7,33.3,12c13.3,5.3,26.3,5.2,39.8,0.2c13.8-5.1,27.5-10.6,41.7-14.6
	c35.1-9.9,63,0.7,84.6,29.3c7.1,9.4,14,19.1,20,29.2c9.3,16,22.6,25.4,40.6,29.3c10.8,2.3,21.5,5.7,32,9.4
	c37.6,13.1,54.6,36.6,55.7,76.5C658.2,219.3,658,227.3,658,235.8z"/>
<path class="st1" d="M125.1,237.8c-0.5-10.9-1.9-21.7-0.5-32.7c1-7.9,4.7-12.8,11.8-16c11-4.9,22.8-7.4,34.4-10.8
	c16.6-4.8,33-10.2,46.6-21.5c9.6-7.9,16.9-17.7,23.9-27.8c6.8-9.9,13.1-20.2,20.3-29.8c7.2-9.7,16-12.8,27.4-8.5
	c7.6,2.9,15.7,4.8,23.1,8.2c34.8,15.9,69.3,15.5,104-0.2c9.1-4.1,18.5-7.3,28.4-9.4c6.7-1.4,12,0.3,16.7,5
	c4.5,4.5,8.3,9.6,11.8,14.9c4.8,7.2,9.7,14.3,14.3,21.6c15.4,24.6,37.6,39.4,65.5,46.4c11.2,2.8,22.2,6.4,33.3,9.7
	c11.4,3.4,17.4,10.9,17.2,23c-0.1,5.9,0,11.8-0.3,17.7c-0.7,13.6-1.3,27.3-0.2,40.9c1.7,20.2,10.7,37.3,23.1,52.9
	c6.6,8.4,13.5,16.6,19.8,25.2c12.5,17,12.6,23.2,0.2,40c-6.2,8.4-12.7,16.6-19.4,24.6c-17.1,20.6-25.2,44.1-24.4,71.1
	c0.4,15.4,2.6,30.8,0.6,46.3c-1,7.6-4.6,12.4-11.4,15.5c-12.3,5.6-25.3,8.7-38.3,11.9c-28.7,7.2-51.1,22.7-66.8,47.9
	c-6.6,10.6-13.5,21-21.1,30.9c-6.9,8.9-15.1,11.8-25.7,8c-11.5-4.1-23.2-7.8-34.6-12.3c-28.5-11.3-56.6-10.5-84.9,0.9
	c-11.8,4.7-23.6,9.4-36,12.3c-8.2,2-14.2-0.6-19.4-6.5c-5.8-6.4-11.1-13.4-15.1-21c-19-35.3-48.1-56.5-87.5-64
	c-8.9-1.7-17.5-4.6-25.8-8.4c-6.8-3.1-10.6-8-11.4-15.6c-0.8-7.7-0.8-15.4-0.3-23.1c0.9-13.2,1.4-26.4,0.3-39.5
	c-1.5-18.4-8.6-34.7-19.7-49.2c-8-10.5-16.5-20.6-24.2-31.2c-11.3-15.4-11.3-21.8-0.2-37.3c5.8-8.1,12-16,18.5-23.6
	c18.9-22.1,28-47.4,26.1-76.6C124.9,244.6,125.1,241.2,125.1,237.8z"/>
<linearGradient id="SVGID_00000182498275001105228270000005765663543356867510_" gradientUnits="userSpaceOnUse" x1="171.8303" y1="366.6827" x2="555.5276" y2="366.6827">
	<stop  offset="9.255566e-02" style="stop-color:#1E9CD7"/>
	<stop  offset="0.53" style="stop-color:#0075BE"/>
	<stop  offset="1" style="stop-color:#005B97"/>
	<stop  offset="1" style="stop-color:#CCE0F4"/>
</linearGradient>
<path style="fill:url(#SVGID_00000182498275001105228270000005765663543356867510_);" d="M555.5,366.6
	c0.1,105.3-85.8,191.3-191.6,191.9c-105,0.5-191.1-85.3-192.1-191.4c-0.9-104.9,86.6-192.5,192-192.2
	C469.5,175.2,555.4,261.1,555.5,366.6z"/>
<path class="st3" d="M447,326c-0.1,8.9-3,15.4-8.3,20.7c-26.2,26.2-52.2,52.5-78.6,78.5c-11.7,11.5-27.7,11.2-39.5-0.4
	c-10.5-10.3-21-20.8-31.3-31.3c-11.4-11.6-11.7-28.1-1-39.1c10.9-11.2,27.6-11,39.6,0.5c3.1,3,6.4,5.9,9.1,9.2
	c2.9,3.4,4.7,2.7,7.5-0.2c18.4-18.6,36.7-37.1,55.4-55.4c16-15.7,40.8-9.1,46.3,12C446.7,322.7,446.8,325,447,326z"/>
</svg>
