<?xml version="1.0" encoding="utf-8"?>
<!-- Generator: Adobe Illustrator 26.0.1, SVG Export Plug-In . SVG Version: 6.00 Build 0)  -->
<svg version="1.1" id="Layer_1" xmlns="http://www.w3.org/2000/svg" xmlns:xlink="http://www.w3.org/1999/xlink" x="0px" y="0px"
	 viewBox="0 0 720 720" style="enable-background:new 0 0 720 720;" xml:space="preserve">
<style type="text/css">
	.st0{fill:url(#SVGID_1_);}
	.st1{fill:#FFFFFF;}
</style>
<linearGradient id="SVGID_1_" gradientUnits="userSpaceOnUse" x1="59.5578" y1="350.3919" x2="659.861" y2="350.3919">
	<stop  offset="6.628532e-02" style="stop-color:#0075BE"/>
	<stop  offset="0.344" style="stop-color:#1E9CD7"/>
	<stop  offset="0.6229" style="stop-color:#0A70AC"/>
	<stop  offset="0.7849" style="stop-color:#0464A0"/>
	<stop  offset="0.9944" style="stop-color:#005B97"/>
	<stop  offset="1" style="stop-color:#CCE0F4"/>
</linearGradient>
<path class="st0" d="M59.7,500.9c0-14.7,0.4-29.5-0.1-44.2c-0.4-11.1,3.8-17.9,14-22.6c23.5-10.7,46.5-22.5,70.1-33.1
	c9-4,12.9-8.8,12.6-19.3c-0.9-24.8,0.1-49.8-0.5-74.6c-0.3-10.7,3.8-16.8,13.4-21.1c24.4-11.1,48.8-22.5,72.6-34.9
	c4.5-2.3,8.9-9.4,9.1-14.5c0.9-26.4,0.9-52.8,0.2-79.2c-0.3-11.7,3.8-19,14.4-23.9c28.1-12.9,55.7-26.8,84-39.3
	c5.7-2.5,14.2-2.9,19.8-0.5c29.2,12.8,57.8,27.1,86.8,40.4c9.2,4.2,12.4,10.7,12.2,20.4c-0.4,25.4,0.7,50.8-0.5,76.1
	c-0.5,12.3,4,17.9,14.8,22.6c22.7,9.9,44.7,21.7,67.3,31.9c10.8,4.9,15,11.9,14.7,23.6c-0.6,24.4,0.3,48.8-0.4,73.1
	c-0.3,9.7,3.2,14.4,11.7,18.3c24,10.9,47.4,23,71.4,34c9.1,4.2,12.8,10,12.6,20c-0.6,30.5-0.7,60.9-0.4,91.4
	c0.1,10.2-4,15.8-12.8,19.9c-28,13.1-55.5,27.4-83.8,39.7c-6.7,2.9-17,2.5-23.9-0.4c-25.1-10.8-49.3-23.8-74.2-35
	c-5.1-2.3-12.9-2.3-18,0c-25,11.2-49.1,24.2-74.3,34.9c-7.2,3.1-18,3-25.3-0.1c-24.3-10.2-47.9-21.9-71.3-34.1
	c-8.7-4.5-15.4-4.1-23.9,0.3c-23,11.8-46.6,22.3-69.7,34c-9.4,4.8-17.6,5.1-27.3,0.4c-26.8-13.1-54-25.7-81.3-37.9
	c-10.2-4.6-14.7-11.1-14.3-22.3C60.2,530.3,59.7,515.6,59.7,500.9z M468.3,468.1c0,25.2-0.2,46.9,0.2,68.6c0,3,1.9,7.4,4.2,8.6
	c21.4,10.8,43.1,21.1,67,32.6c0-25.2,0.2-47.3-0.2-69.4c-0.1-2.9-2.3-7.1-4.7-8.3C513.6,489.6,492.3,479.6,468.3,468.1z
	 M468.3,429.1c23.9-11.5,45.3-21.6,66.4-32.1c2.2-1.1,4.7-4.5,4.7-6.9c0.4-22.5,0.2-45,0.2-70.3c-24,11.6-45.3,21.6-66.3,32.4
	c-2.7,1.4-4.7,6.4-4.8,9.8C468,383.4,468.3,404.6,468.3,429.1z M348.1,277.8c0-24.9,0.2-47.1-0.2-69.2c-0.1-2.9-2.3-7.2-4.7-8.4
	c-21.1-10.7-42.5-20.8-66.1-32.1c0,24.9-0.2,47.1,0.2,69.4c0.1,2.9,2.4,7.1,4.8,8.3C303.2,256.3,324.6,266.4,348.1,277.8z
	 M443.4,168c-23.4,11.3-44.3,21.2-65,31.6c-2.5,1.3-5.3,5.1-5.3,7.9c-0.4,22.6-0.2,45.2-0.2,70.1c23.2-11.2,44.3-21,64.8-31.6
	c3-1.5,5.4-7.1,5.5-10.8C443.7,213.9,443.4,192.6,443.4,168z M181.1,319.3c0,24.9-0.2,47.1,0.2,69.3c0,2.9,2.2,7.2,4.6,8.4
	c21.1,10.6,42.6,20.6,65.9,31.7c0-24.7,0.2-47-0.2-69.2c-0.1-2.9-2.4-7.1-4.8-8.3C225.8,340.6,204.4,330.5,181.1,319.3z
	 M443.4,428.8c0-25,0.1-47.6-0.2-70.3c0-2.4-2.2-6-4.3-7c-21.2-10.6-42.6-20.8-66-32.1c0,25.2-0.2,47.8,0.3,70.5
	c0.1,2.7,3,6.5,5.5,7.8C399.4,408,420.4,417.8,443.4,428.8z M85.7,468.3c0,24.7-0.2,46.4,0.2,68.2c0,3.1,1.6,7.7,3.9,8.9
	c21.5,10.9,43.3,21.3,66.7,32.6c0-24.6,0.3-46.3-0.3-68.1c-0.1-3.6-3-8.8-6.1-10.4C129.8,489.1,109.2,479.6,85.7,468.3z M181.1,578
	c23.4-11.3,45.1-21.7,66.6-32.4c1.8-0.9,3.8-3.8,3.8-5.9c0.3-23,0.2-46,0.2-71.3c-23.7,11.3-44.7,21.2-65.4,31.6
	c-2.7,1.4-5,6.3-5.1,9.6C180.9,531.4,181.1,553.1,181.1,578z M277,468.2c0,10.2-0.1,17.7,0,25.1c0.4,16.7-4.5,36.6,2.9,49.1
	c7.1,11.7,27.2,15.8,41.7,22.9c8.2,4,16.7,7.4,26.5,11.7c0-24.1,0.2-45.4-0.2-66.6c-0.1-3.4-1.9-8.6-4.5-9.9
	C322.4,489.7,300.9,479.7,277,468.2z M372.9,577.7c23.1-11,44-20.9,64.8-31.2c2.6-1.3,5.4-5.1,5.5-7.8c0.4-22.6,0.2-45.2,0.2-70.3
	c-23.2,11.1-44.2,20.9-64.9,31.3c-2.5,1.3-5.3,5.2-5.3,7.9C372.7,530.1,372.9,552.8,372.9,577.7z M635.1,468.2
	c-23.2,11.1-43.8,20.8-64.1,30.9c-2.7,1.3-6.1,4.8-6.1,7.4c-0.5,22.9-0.3,45.9-0.3,71.1c23.2-11.1,43.9-20.7,64.1-31
	c3.1-1.6,6-6.8,6.1-10.4C635.4,514.5,635.1,492.7,635.1,468.2z M277.2,428.8c23.4-11.2,44.4-21.1,65.1-31.3c2.4-1.2,5.4-4.2,5.4-6.4
	c0.4-22.9,0.2-45.9,0.2-71.2c-23.5,11.3-44,21-64.3,31.2c-2.7,1.4-6.2,4.8-6.3,7.4C277,381.1,277.2,403.8,277.2,428.8z M196.9,299.8
	c22.9,11,43.3,20.7,63.7,30.4c1.3,0.6,3.2,1.3,4.4,0.7c21.5-9.9,42.9-19.9,66.8-31.1c-22.3-10.6-40.9-19.7-59.7-28.3
	c-3.7-1.7-9.2-2.8-12.6-1.3C239.3,279.3,219.5,289,196.9,299.8z M388.4,300.6c22.7,10.8,41.7,20.1,60.9,28.9c3,1.4,7.3,2.3,10,1.1
	c20.4-9.2,40.5-19,63.9-30c-23.4-11.2-43.2-20.8-63.2-30c-2.4-1.1-6.2-1.1-8.7,0C431.4,279.9,411.5,289.5,388.4,300.6z M427.3,148.4
	c-23-11-42.5-20.4-62.1-29.5c-2.5-1.2-6.3-1.8-8.6-0.7c-20.5,9.4-40.8,19.2-63.9,30.3c22.9,10.9,42.7,20.6,62.7,29.7
	c2.8,1.3,7.2,1,10.1-0.3C385.1,168.8,404.6,159.3,427.3,148.4z M619,448.6c-22-10.6-41-20-60.3-28.9c-3.2-1.5-8.1-2.1-11.1-0.7
	c-20.1,9.1-40,18.9-62.2,29.6c21.7,10.5,41.1,20.2,60.8,29.2c3.1,1.4,7.9,1.2,11.1-0.2C577,468.7,596.5,459.3,619,448.6z
	 M234.6,448.6c-22.3-10.7-42.2-20.4-62.2-29.6c-2.7-1.2-7-1.1-9.7,0.2c-19.7,9.2-39.2,18.8-61.1,29.4c22.1,10.6,42,20.3,62.1,29.6
	c2.7,1.2,7,1.1,9.8-0.2C193.2,468.9,212.7,459.3,234.6,448.6z M293.8,448.7c22.1,10.7,41.6,20.3,61.3,29.5c2.4,1.1,6.2,1.7,8.4,0.6
	c20.2-9.5,40.2-19.4,62.3-30.2c-21.3-10.4-39.8-19.8-58.7-28.4c-3.9-1.8-10-1.9-13.9-0.2C334.3,428.5,315.8,437.9,293.8,448.7z"/>
<path class="st1" d="M468.3,429.1c0-24.5-0.2-45.8,0.2-67c0.1-3.4,2.2-8.5,4.8-9.8c21-10.8,42.3-20.8,66.3-32.4
	c0,25.3,0.1,47.8-0.2,70.3c0,2.4-2.5,5.8-4.7,6.9C513.5,407.6,492.2,417.7,468.3,429.1z"/>
</svg>
