<?xml version="1.0" encoding="utf-8"?>
<!-- Generator: Adobe Illustrator 26.0.1, SVG Export Plug-In . SVG Version: 6.00 Build 0)  -->
<svg version="1.1" id="Layer_1" xmlns="http://www.w3.org/2000/svg" xmlns:xlink="http://www.w3.org/1999/xlink" x="0px" y="0px"
	 viewBox="0 0 720 720" style="enable-background:new 0 0 720 720;" xml:space="preserve">
<style type="text/css">
	.st0{fill:url(#SVGID_1_);}
	.st1{fill:url(#SVGID_00000150808789544938058620000017678629215654989444_);}
	.st2{fill:url(#SVGID_00000139984496160519813650000011226204873966744980_);}
	.st3{fill:url(#SVGID_00000014593439900487811610000007237517866408634012_);}
	.st4{fill:url(#SVGID_00000154425363188507890550000005353012369297082263_);}
	.st5{fill:url(#SVGID_00000136389511704621969840000011672192402467592841_);}
	.st6{fill:url(#SVGID_00000106116438743804979340000014159836303397749171_);}
	.st7{fill:url(#SVGID_00000118374898061860331900000003573368802147025310_);}
</style>
<linearGradient id="SVGID_1_" gradientUnits="userSpaceOnUse" x1="113.3796" y1="602.4965" x2="680.5479" y2="602.4965">
	<stop  offset="2.793296e-03" style="stop-color:#1E9CD7"/>
	<stop  offset="0.3384" style="stop-color:#1E9CD7"/>
	<stop  offset="0.5244" style="stop-color:#0075BE"/>
	<stop  offset="1" style="stop-color:#005B97"/>
	<stop  offset="1" style="stop-color:#CCE0F4"/>
</linearGradient>
<path class="st0" d="M680.5,528c0,48,0.2,93.1-0.4,138.2c0,3.5-5.5,7.9-9.5,10c-3.1,1.6-7.7,0.4-11.7,0.4c-174.6,0-349.2,0-523.8,0
	c-6,0-12,0-21.7,0c4.9-6.3,7-10,10-12.8c14.8-13.9,29.9-27.5,44.8-41.5c7.8-7.4,14.3-13,27.6-10.4c20,4,37.1-13.7,38.7-35.6
	c1.7-23.6,28.6-48.4,52.7-48.4c124.9,0,249.8,0,374.6,0C667.3,528,672.8,528,680.5,528z M572.9,633.5c-7.6,0.4-13,0.7-19.2,1
	c0,6.8,0,12.7,0,19.3c6.7,0,12.6,0,19.2,0C572.9,647,572.9,641.2,572.9,633.5z M616,634.6c-6.9,0-12.7,0-19.3,0c0,6.8,0,12.6,0,19.1
	c6.8,0,12.6,0,19.3,0C616,647.4,616,641.9,616,634.6z M657.9,633.5c-8,0.4-13.8,0.8-19.4,1.1c0,7.4,0,12.8,0,18.7
	c7.1,0,13.3,0,20.3,0C658.5,646.4,658.3,641,657.9,633.5z"/>
<linearGradient id="SVGID_00000056394191345507635440000012856572660006821055_" gradientUnits="userSpaceOnUse" x1="64.4175" y1="417.1859" x2="316.5126" y2="417.1859">
	<stop  offset="2.793296e-03" style="stop-color:#1E9CD7"/>
	<stop  offset="0.3384" style="stop-color:#1E9CD7"/>
	<stop  offset="0.5244" style="stop-color:#0075BE"/>
	<stop  offset="1" style="stop-color:#005B97"/>
	<stop  offset="1" style="stop-color:#CCE0F4"/>
</linearGradient>
<path style="fill:url(#SVGID_00000056394191345507635440000012856572660006821055_);" d="M306.5,243.4c3.6,10.6,6.7,19.5,10,29.5
	c-48.8,23-97.4,46.8-146.9,68.5c-16.2,7.1-21.5,16-20.3,33c1.5,22.3,0.4,44.8,0.4,68.8c12.3,0,22.4-0.4,32.4,0.1
	c18.5,0.9,30.7,12.7,31.1,31.2c0.6,32.8,0.1,65.5,0.2,98.3c0,10.8-4.9,18-15.6,18.2c-10.8,0.2-15.9-7-15.8-17.8
	c0.1-20.3,0.3-40.7,0-61c-0.3-19.2-7.6-26.6-26.8-26.9c-18.6-0.4-37.3,0.2-55.9-0.2c-21.8-0.5-33.7-11.8-34.2-33.6
	c-0.6-28.2-1.1-56.5,0.2-84.7c2-40.8,31.9-73.2,71.3-71.4c39.7,1.8,74-10.8,108.6-26.2C265.2,260.1,285.7,252.1,306.5,243.4z"/>
<linearGradient id="SVGID_00000152968861789146679010000000852813171371582640_" gradientUnits="userSpaceOnUse" x1="330.4601" y1="336.4492" x2="606.7577" y2="336.4492">
	<stop  offset="2.793296e-03" style="stop-color:#1E9CD7"/>
	<stop  offset="0.3384" style="stop-color:#1E9CD7"/>
	<stop  offset="0.5244" style="stop-color:#0075BE"/>
	<stop  offset="1" style="stop-color:#005B97"/>
	<stop  offset="1" style="stop-color:#CCE0F4"/>
</linearGradient>
<path style="fill:url(#SVGID_00000152968861789146679010000000852813171371582640_);" d="M567.6,273.4c-19,0-31.3,0-46.1,0
	c0,25.6-0.8,50.3,0.3,74.9c0.7,14.2-3,22.3-18,23.9c-5.5,0.6-11,2.7-16.4,4.1c-13.2,3.6-19.7,11.9-19.5,25.9
	c0.3,27.1-0.1,54.3,0.2,81.4c0.1,12.1-2.3,22.7-16.5,22.4c-13.3-0.3-15.1-10.8-15-22c0.2-39,0.4-78-0.1-117
	c-0.2-16.8,6.5-29.7,22.1-34.3c35.8-10.6,47.5-33.1,42-69.2c-3.1-20.3-0.6-41.5-0.6-66.6c-13.3,3-25.2,3.6-35.1,8.3
	c-35.8,16.8-71,34.8-106.2,52.6c-9.9,5-19.8,8.7-26-3.7c-5.9-11.7,1.2-18.8,11.6-23.9c31.4-15.4,62.6-31.3,94-46.7
	c34.2-16.9,70.8-19.1,107.7-14.4c32.6,4.1,57.7,33.6,60,68.6c1.3,20.8,1,41.9-0.1,62.7c-0.3,5.1-6.4,9.9-9.9,14.8
	c-3.7-5.2-10.1-10.1-10.6-15.6c-1.5-15.7-0.5-31.6-0.6-47.4c-0.2-22.3-6.9-42.1-24.1-60c-4.7,4.5-9.3,8.9-14,13.3
	c1.6-0.1,3.2-0.1,4.8-0.2C556.6,226.8,561.7,248.5,567.6,273.4z"/>
<linearGradient id="SVGID_00000039093513569766214200000007273786473155949470_" gradientUnits="userSpaceOnUse" x1="543.3813" y1="336.7972" x2="668.5831" y2="336.7972">
	<stop  offset="2.793296e-03" style="stop-color:#1E9CD7"/>
	<stop  offset="0.3384" style="stop-color:#1E9CD7"/>
	<stop  offset="0.5244" style="stop-color:#0075BE"/>
	<stop  offset="1" style="stop-color:#005B97"/>
	<stop  offset="1" style="stop-color:#CCE0F4"/>
</linearGradient>
<path style="fill:url(#SVGID_00000039093513569766214200000007273786473155949470_);" d="M628.2,295.1c13.6,0,26.5,0,40.4,0
	c0,28,0,55.4,0,83.4c-42.1,0-83.1,0-125.2,0c0-28.1,0-55.4,0-83.4c6.4,0,11.8,0,14.3,0c6.9,12.9,11.8,25.3,19.7,35.3
	c3.7,4.6,13.3,6.5,20.1,6.3C616,336.3,625.8,322.7,628.2,295.1z"/>
<linearGradient id="SVGID_00000163784956927010050650000014138723883826891693_" gradientUnits="userSpaceOnUse" x1="64.909" y1="586.907" x2="97.2228" y2="586.907">
	<stop  offset="2.793296e-03" style="stop-color:#1E9CD7"/>
	<stop  offset="0.3384" style="stop-color:#1E9CD7"/>
	<stop  offset="0.5244" style="stop-color:#0075BE"/>
	<stop  offset="1" style="stop-color:#005B97"/>
	<stop  offset="1" style="stop-color:#CCE0F4"/>
</linearGradient>
<path style="fill:url(#SVGID_00000163784956927010050650000014138723883826891693_);" d="M64.9,498.2c12.3,4,21.8,7.1,32.2,10.5
	c0,50.3,0.5,100.4-0.7,150.4c-0.1,5.8-9,14.9-15.1,16.2c-10.4,2.2-16.3-6.5-16.3-16.8C64.8,605.6,64.9,552.7,64.9,498.2z"/>
<linearGradient id="SVGID_00000027563490134792999870000012503537991136097418_" gradientUnits="userSpaceOnUse" x1="97.2884" y1="230.9855" x2="181.9519" y2="230.9855">
	<stop  offset="2.793296e-03" style="stop-color:#1E9CD7"/>
	<stop  offset="0.3384" style="stop-color:#1E9CD7"/>
	<stop  offset="0.5244" style="stop-color:#0075BE"/>
	<stop  offset="1" style="stop-color:#005B97"/>
	<stop  offset="1" style="stop-color:#CCE0F4"/>
</linearGradient>
<path style="fill:url(#SVGID_00000027563490134792999870000012503537991136097418_);" d="M97.3,231c-0.1-23.6,18-42.1,41.4-42.4
	c24-0.3,43.7,19.2,43.2,42.8c-0.4,22.7-20.1,42-42.8,41.9C116.2,273.2,97.4,254.3,97.3,231z"/>
<linearGradient id="SVGID_00000041983160380087812620000018303999165245891764_" gradientUnits="userSpaceOnUse" x1="468.0383" y1="103.2318" x2="552.7487" y2="103.2318">
	<stop  offset="2.793296e-03" style="stop-color:#1E9CD7"/>
	<stop  offset="0.3384" style="stop-color:#1E9CD7"/>
	<stop  offset="0.5244" style="stop-color:#0075BE"/>
	<stop  offset="1" style="stop-color:#005B97"/>
	<stop  offset="1" style="stop-color:#CCE0F4"/>
</linearGradient>
<path style="fill:url(#SVGID_00000041983160380087812620000018303999165245891764_);" d="M552.7,103.4c0.1,23.4-18.1,41.7-41.8,42.1
	c-23.2,0.4-42.4-18-42.9-41.1c-0.5-23.4,19.4-43.6,42.8-43.4C534,61.2,552.7,80.1,552.7,103.4z"/>
<linearGradient id="SVGID_00000032644339324993192900000018245497264039140794_" gradientUnits="userSpaceOnUse" x1="552.6449" y1="453.4123" x2="584.1322" y2="453.4123">
	<stop  offset="2.793296e-03" style="stop-color:#1E9CD7"/>
	<stop  offset="0.3384" style="stop-color:#1E9CD7"/>
	<stop  offset="0.5244" style="stop-color:#0075BE"/>
	<stop  offset="1" style="stop-color:#005B97"/>
	<stop  offset="1" style="stop-color:#CCE0F4"/>
</linearGradient>
<path style="fill:url(#SVGID_00000032644339324993192900000018245497264039140794_);" d="M552.9,401.2c11.4,0,20.3,0,31.1,0
	c0,31.2,0.6,62-0.7,92.8c-0.2,4.4-11.9,12.8-14.8,11.6c-6.4-2.8-14.6-10.4-14.9-16.4C552,460.4,552.9,431.7,552.9,401.2z"/>
</svg>
