<?xml version="1.0" encoding="utf-8"?>
<!-- Generator: Adobe Illustrator 26.0.1, SVG Export Plug-In . SVG Version: 6.00 Build 0)  -->
<svg version="1.1" id="Layer_1" xmlns="http://www.w3.org/2000/svg" xmlns:xlink="http://www.w3.org/1999/xlink" x="0px" y="0px"
	 viewBox="0 0 720 720" style="enable-background:new 0 0 720 720;" xml:space="preserve">
<style type="text/css">
	.st0{fill:url(#SVGID_1_);}
	.st1{fill:url(#SVGID_00000111902548621638881520000006212742721766944418_);}
	.st2{fill:url(#SVGID_00000121277547874241165800000001017835516913528708_);}
	.st3{fill:url(#SVGID_00000030469223931348317370000006848229511780798090_);}
	.st4{fill:url(#SVGID_00000158031136467783779560000015067615203255615401_);}
	.st5{fill:url(#SVGID_00000089538254615572501550000006480991407283155888_);}
	.st6{fill:url(#SVGID_00000036214945323964723070000014144794740390269852_);}
	.st7{fill:url(#SVGID_00000000205309644775790620000013067891061647743111_);}
	.st8{fill:url(#SVGID_00000131338248425023456640000004314629338372076219_);}
	.st9{fill:url(#SVGID_00000126305528344283072420000012183291726198421678_);}
	.st10{fill:url(#SVGID_00000155109090724741610820000007832442428952300454_);}
	.st11{fill:url(#SVGID_00000098202018270679619270000003549043955058956217_);}
	.st12{fill:url(#SVGID_00000021821482778507593110000010290903251555250596_);}
	.st13{fill:url(#SVGID_00000038380519194509227780000010981161537939336875_);}
	.st14{fill:url(#SVGID_00000175300826559704467320000014706207155897946262_);}
	.st15{fill:url(#SVGID_00000050646764353614157950000013913122935765774742_);}
	.st16{fill:url(#SVGID_00000003820101232476664320000003330733104109421198_);}
	.st17{fill:url(#SVGID_00000083091301224416300740000009387509686313668268_);}
	.st18{fill:url(#SVGID_00000054979836952364702540000004799779444410203833_);}
	.st19{fill:url(#SVGID_00000169531583932998112230000005622218149381995452_);}
	.st20{fill:url(#SVGID_00000132057977169757722400000006259066699391231132_);}
	.st21{fill:url(#SVGID_00000177450747978702874590000016091563192138146967_);}
	.st22{fill:url(#SVGID_00000098931261495805097190000009860149413245014697_);}
	.st23{fill:url(#SVGID_00000048459096231842040430000013478008159880767114_);}
	.st24{fill:url(#SVGID_00000047044459564075100470000005619087435721676687_);}
	.st25{fill:url(#SVGID_00000142135105409685484840000006970790171550466983_);}
	.st26{fill:url(#SVGID_00000127043296103772435490000009762839119337944503_);}
	.st27{fill:url(#SVGID_00000148622373815007573460000005823109918959813289_);}
	.st28{fill:url(#SVGID_00000047054372168957259470000002358039680007038385_);}
</style>
<linearGradient id="SVGID_1_" gradientUnits="userSpaceOnUse" x1="438.9131" y1="375.1642" x2="672.2589" y2="375.1642">
	<stop  offset="0.1145" style="stop-color:#1E9CD7"/>
	<stop  offset="0.3384" style="stop-color:#1E9CD7"/>
	<stop  offset="0.6305" style="stop-color:#0075BE"/>
	<stop  offset="0.9944" style="stop-color:#005B97"/>
	<stop  offset="1" style="stop-color:#CCE0F4"/>
</linearGradient>
<path class="st0" d="M672.3,326c0,45,0,90,0,134.9c0,5.4-0.1,4.9-5.5,5.7c-9.1,1.4-18.3,1.9-27.5,3.1c-10,1.4-20.1,2.2-30.1,3.3
	c-9.9,1.1-19.8,2.3-29.7,3.3c-3.2,0.3-4,1.8-3.9,4.9c0.6,15.5,1.1,31,1.5,46.4c0.1,2.6,1.2,3,3.4,3c9.9-0.1,19.4,1.5,28.1,6.4
	c9.4,5.3,13.9,13.9,15.2,24.4c0.3,2.5-0.8,3.2-3.2,3.2c-9.4-0.1-18.7-0.2-28.1,0c-3.1,0.1-4.5-0.8-4-4c0.6-3.5-0.8-4.7-4.5-4.6
	c-13.5,0.2-27,0.2-40.5,0c-2.8,0-3.7,0.8-3.6,3.6c0.1,4.9,0,4.9-4.8,4.9c-6.6,0-13.3-0.1-19.9,0.1c-3.2,0.1-4.4-0.8-4.4-4.2
	c-0.4-14.1,8.1-23.1,20.7-27.9c6.1-2.3,12.5-3.5,18.9-4c2-0.2,2.5-1,2.5-2.8c0-13.9-0.1-27.7,0-41.6c0-2.5-1.2-3-3.3-2.7
	c-8.3,1-16.6,2-24.9,3c-9,1.1-18.1,2.4-27.1,3.3c-4.5,0.4-8.9,0.9-13.4,1.8c-2.6,0.5-3.9-0.1-3.9-3.2c0.1-31.2,0.2-62.5,0.3-93.7
	c0-2-0.3-4-1-5.9c-0.7-2-1.6-3.4-4.2-3.3c-2.6,0.1-4.2,0.6-5.1,3.3c-0.8,2.7-2.1,5.3-3.2,8c-0.8,2-1.8,2.5-4,1.4
	c-9-4.4-9.2-4.8-6.2-14.2c0.7-2.1,1.7-4.2,0.6-6.5c-2-4.6-4.1-5.4-8.7-3.3c-6.9,3.1-6.9,3.1-8.8-4.1c-2.3-8.5-2.3-8.5,5.1-13.5
	c4.4-3,4.5-9.7,0.2-12.8c-7.9-5.8-7.9-5.8-4.7-15.1c0.3-0.9,0.7-1.9,0.9-2.8c0.6-1.9,1.7-2.2,3.4-1.3c1.4,0.7,3,1.2,4.5,1.8
	c1.8,0.7,3.5,2.5,5.4,0.4c1.9-2.1,4-4.2,3.1-7.6c-0.8-2.9-1.4-5.8-2.2-8.7c-0.6-2.4,0.1-3.9,2.3-5.2c7.9-4.8,7.8-4.9,11.4,3.5
	c1.2,2.8,1.2,6.7,6,6.3c2.3-0.2,3.7-0.8,4.4-3.1c0.9-2.8,2.2-5.6,3.1-8.4c0.6-1.9,1.5-2.5,3.3-1.4c2.4,1.4,4.7,2.8,7.1,4.2
	c1.5,0.9,1.8,2.3,1.4,3.9c-0.7,2.8-1.1,5.7-2.1,8.3c-1.4,3.8,0.7,6.2,2.8,8.7c0.8,0.9,1.7,1.4,3,0.8c0.7-0.3,1.4-0.4,2.1-0.7
	c9-3.9,7.3-3.4,9.9,4.9c2.2,7,2,7.1-4.2,11.2c-6.3,4.1-6.5,10.2-0.4,14.6c6.8,4.9,6.8,4.9,4,12.7c-2.5,6.7-2.4,6.6-9,4
	c-1.7-0.7-3.5-3.3-5.6-0.8c-2.1,2.4-4.5,4.7-3,8.6c0.8,2,0.8,4.2,1.5,6.2c1,3.1,1.4,5.9-2.5,7.3c-1.5,0.6-1.5,2.2-1.5,3.6
	c0,22,0,44,0,66c0,2.6,1.1,3.2,3.4,2.9c6.4-1,12.8-2,19.2-3c7.1-1.1,14.3-2.2,21.4-3.3c2.5-0.4,3.9,0.5,4.3,3.3c0.8,5,4,7.4,9,7.5
	c3.1,0,6.3-0.2,9.4,0c8.8,0.8,11.5-4.1,12.3-11.9c0.4-4.6,1.6-5.7,5.9-5.3c1.8,0.1,2.6,1.4,3.6,2.4c3.3,3.4,7.5,3.6,10.2-0.2
	c3.2-4.6,7.6-5.7,12.8-6.4c12.2-1.6,24.4-3.8,36.5-5.8c4.5-0.7,9.2-0.8,13.7-2c2.2-0.6,3-1.5,2.7-3.5c-0.1-0.6,0-1.2,0-1.9
	c0-70.2,0-140.4,0-210.7c0-1,0-2,0-3c-0.1-4-0.2-4-4.1-2.5c-13.7,5.4-27.5,10.7-41.3,16c-13.7,5.4-27.5,10.8-41.2,16.2
	c-6.3,2.5-12.7,4.8-19.1,7.2c-2.8,1-4.3,0.4-3.9-3c0.6-5.4-1.5-9.4-6.1-12.3c-1.9-1.2-2-2.9,0.4-3.9c12.5-5.2,25-10.2,37.5-15.5
	c12.6-5.3,25.1-10.7,37.7-16c11-4.6,22-9.1,33-13.6c7.3-3,14.8-5.9,22-9.1c2.3-1,2.6-0.1,2.7,1.7c0.1,1.2,0,2.5,0,3.7
	C672.3,236.3,672.3,281.2,672.3,326z M489.1,348.2c0.3-3.6-0.8-7.2-2.5-10.6c-4.3-8.5-14.1-9.9-20.5-2.9c-5.3,5.8-6.2,15.9-2.6,23.5
	c4.3,9.1,15.8,12.1,22.6,1.6C488.4,356.4,489.3,352.5,489.1,348.2z"/>
<linearGradient id="SVGID_00000119085089883813272400000008213900608974098330_" gradientUnits="userSpaceOnUse" x1="43.6643" y1="406.8744" x2="460.8753" y2="406.8744">
	<stop  offset="0.1145" style="stop-color:#1E9CD7"/>
	<stop  offset="0.3384" style="stop-color:#1E9CD7"/>
	<stop  offset="0.6305" style="stop-color:#0075BE"/>
	<stop  offset="0.9944" style="stop-color:#005B97"/>
	<stop  offset="1" style="stop-color:#CCE0F4"/>
</linearGradient>
<path style="fill:url(#SVGID_00000119085089883813272400000008213900608974098330_);" d="M436,550.8c-2.3-1.2-4.1-2.2-6-3
	c-1-0.4-1.7-1-1.9-2.1c-0.1-1.2,0.8-1.6,1.6-2.2c2.4-1.6,4.5-2.1,7.4-0.3c7,4.1,14.3,7.5,21.5,11.2c2.5,1.3,3.2,2.6,0.5,4.7
	c-6.4,5-12.7,10.1-19,15.1c-1,0.8-1.9,1.3-3,0.3c-1-1-1.1-2.2-0.4-3.4c1.6-2.5,3.3-5,4.9-7.5c1.4-2,0.9-3-1.6-2.9
	c-1.1,0-2.2,0-3.4,0c-124.6,0-249.2,0-373.7,0c-5.2,0-5.2,0-5.2-5.2c0-96.1,0-192.2,0-288.2c0-1.6,1-4.2-0.7-4.8
	c-1.6-0.5-2.5,2-3.5,3.3c-2.1,2.5-3.8,5.3-5.9,7.8c-0.8,1-1.4,3.3-3.3,2.1c-1.5-1-0.6-2.6,0.2-4c3.1-6.1,6-12.3,9-18.5
	c2-4,4-8,6-12.1c0.4-0.9,0.7-2,1.9-2c1.1,0,1.1,1.1,1.5,1.9c4.9,9.5,9.8,19,14.7,28.5c1.2,2.4-0.4,7.4-2.7,8.3
	c-1.6,0.6-1.8-0.7-2.3-1.7c-2.3-5.3-4.7-10.7-7.3-16.5c-1.3,1.9-0.9,3.5-0.9,4.9c0,37.9,0,75.7,0,113.6c0,56.3,0,112.7,0,169
	c0,4.9,0,4.9,4.8,4.9c6.2,0,12.5-0.1,18.7,0.1c2.8,0.1,3.7-0.8,3.7-3.6c-0.1-13.1,0-26.2-0.1-39.4c0-3.3,0.8-4.4,4.2-4.2
	c5.1,0.3,10.2,0.2,15.4,0c2.7-0.1,3.4,0.9,3.4,3.5c-0.1,13.2,0,26.5-0.1,39.7c0,3.1,0.9,4,4,4c10.3-0.1,10.3,0,10.3-10.3
	c0-21.6,0-43.2,0-64.8c0-0.9,0-1.7,0-2.6c-0.2-7.8-0.2-7.8,7.4-7.8c3.7,0,7.5,0.2,11.2-0.1c3.5-0.3,4.1,1.1,4.1,4.3
	c-0.1,25.5-0.1,51-0.1,76.5c0,4.8,0,4.8,4.9,4.8c2.5,0,5-0.2,7.5,0c2.9,0.2,3.6-1,3.6-3.7c-0.1-11.2,0-22.5,0-33.7
	c0-24.6,0.1-49.2-0.1-73.8c0-3.2,0.7-4.5,4.1-4.3c4.9,0.3,9.8,0.3,14.6,0c3.4-0.2,4.1,1.1,4.1,4.3c-0.1,35-0.1,70-0.1,105
	c0,7.2-0.7,6.2,6.1,6.3c2.7,0,5.5,0,8.2,0c4.8,0,4.8,0,4.8-5c0-18.7,0-37.5,0-56.2c0-25.9,0.1-51.7-0.1-77.6c0-3.4,0.7-4.7,4.3-4.5
	c4.7,0.3,9.5,0.3,14.2,0c3.2-0.2,4.4,0.7,4.3,4.1c-0.3,6.4-0.1,12.7-0.1,19.1c0,38.5,0.1,77-0.1,115.4c0,3.7,0.9,5.2,4.8,4.8
	c3.1-0.3,6.2-0.1,9.4,0c2.3,0.1,3.6-0.6,3.5-3.2c-0.1-1.6,0.3-3.2,0.5-4.8c0.1-0.9,0.5-1.8,1.5-1.9c1.1-0.1,1.4,1,1.5,1.8
	c0.2,1.5,0.3,3,0.1,4.5c-0.3,2.6,0.7,3.6,3.4,3.6c9.5-0.1,19-0.1,28.5,0c2.4,0,3.5-0.8,3.3-3.3c-0.1-1,0-2,0.1-3
	c0.2-1.5,0.2-3.6,2-3.4c1.6,0.2,1.6,2.3,1.6,3.8c0,1-0.2,2-0.3,3c-0.2,1.9,0.6,2.8,2.5,2.9c1,0,2,0,3,0c44.2,0,88.5,0,132.7,0
	C431.9,552,433.9,552.6,436,550.8z M214.5,483.4c0,20.2,0,40.5,0,60.7c0,7.9,0,7.9,7.8,7.9c4.9,0,5,0,5-4.9c0-41.1,0-82.2,0-123.3
	c0-8.7,0-8.5-8.6-8.7c-3.3-0.1-4.2,0.8-4.2,4.2C214.6,440.7,214.5,462,214.5,483.4z M172.6,497.1c0,15.5,0,31,0,46.5
	c0,8.5,0,8.3,8.5,8.6c3.5,0.1,4.4-1,4.4-4.4c-0.1-31.8-0.1-63.7-0.1-95.5c0-9.1,0-9-9-9.1c-3,0-3.8,0.9-3.8,3.8
	C172.6,463.6,172.6,480.3,172.6,497.1z M146.6,512.6c0-10.4,0-20.7,0-31.1c0-8.7,0-8.5-8.7-8.7c-3.4-0.1-4.2,1.1-4.2,4.3
	c0.1,22,0.1,43.9,0.1,65.9c0,9.1,0,9,9.1,9c3,0,3.8-1,3.8-3.9C146.6,536.3,146.6,524.5,146.6,512.6z M96.8,531.7c0,3.7,0,7.5,0,11.2
	c0,9.2,0,9.1,9.3,9.1c2.9,0,3.6-1,3.6-3.7c-0.1-9.2,0-18.4,0-27.7c0-9.5,0-9.4-9.5-9.3c-2.7,0-3.4,1-3.3,3.5
	C96.9,520.5,96.8,526.1,96.8,531.7z"/>
<linearGradient id="SVGID_00000005259892671932532320000005937842799480100286_" gradientUnits="userSpaceOnUse" x1="501.4431" y1="393.5594" x2="605.3828" y2="393.5594">
	<stop  offset="0.1145" style="stop-color:#1E9CD7"/>
	<stop  offset="0.3384" style="stop-color:#1E9CD7"/>
	<stop  offset="0.6305" style="stop-color:#0075BE"/>
	<stop  offset="0.9944" style="stop-color:#005B97"/>
	<stop  offset="1" style="stop-color:#CCE0F4"/>
</linearGradient>
<path style="fill:url(#SVGID_00000005259892671932532320000005937842799480100286_);" d="M595.6,353.1c0.3,1.7-0.5,2.4-1,3.3
	c-1.4,2.2-2.7,4.6-4.4,6.5c-4.4,4.7-4.8,9.6-2,15.3c1,1.9,1.8,3,4,3.2c3.3,0.3,6.7,1,10,1.3c2.3,0.2,3.3,1.2,3.3,3.6
	c-0.1,5.2,0,10.5,0,15.7c0,2.1-0.8,3.3-3,3.4c-2.2,0.2-4.5,0.6-6.7,0.6c-4,0-7.3,0.4-8.2,5.4c-0.6,3.5-2.4,6.6,0.6,10.1
	c2.5,2.9,4.2,6.5,6.3,9.7c1.4,2,1.5,3.8-0.2,5.8c-2.7,3.4-5.3,6.9-7.9,10.5c-1.7,2.4-3.2,2.2-4.9,0c-2.6-3.2-5.3-6.3-8-9.4
	c-1.4-1.7-2.7-1.5-4.6-0.7c-4.6,1.9-6.2,5.1-6,9.9c0.2,3.7-0.3,7.5-0.5,11.2c-0.1,2.5-1.3,3.9-4,3.7c-3.4-0.1-6.8-0.2-10.1,0
	c-2.7,0.2-3.6-1.1-3.6-3.5c-0.2-4.9-0.4-9.7-0.6-14.6c-0.1-2.9-5.2-7.6-8-7.5c-1.3,0-1.9,1-2.7,1.8c-2.6,3.1-5.2,6-7.8,9.1
	c-1.6,2-2.9,2.4-4.6,0c-2.6-3.7-5.4-7.2-8.2-10.7c-1.4-1.8-1.6-3.4-0.2-5.4c2.5-3.6,4.6-7.4,7.1-11c1.4-2,1.1-3.8,0.8-6
	c-1-6.4-4.4-8.4-10.9-8.7c-9.2-0.5-7.9,1.1-8-8.3c0-3.6,0.1-7.3-0.1-10.9c-0.1-2.4,0.5-3.7,3.2-3.9c3.4-0.2,6.7-1,10-1.3
	c2.3-0.2,3.7-1.2,4.2-3.5c0.3-1.3,0.7-2.7,1.2-3.9c1.2-2.7,0.9-4.9-0.8-7.3c-2.5-3.3-4.5-6.9-7-10.2c-1.4-1.8-1.3-3.3,0.1-5
	c2.8-3.5,5.5-7.1,8.1-10.8c1.5-2.1,2.9-2.4,4.7-0.3c2.8,3.2,5.8,6.2,8.5,9.5c1.4,1.6,2.3,1.2,4.1,0.6c5.4-2,6.6-6,6.3-11.2
	c-0.2-3.6,0.3-7.2,0.5-10.9c0.1-2.4,1.2-3.3,3.6-3.1c3,0.1,6,0.2,9,0c3.9-0.3,5.1,1.5,5.2,5c0.1,4.5,0.4,9,0.7,13.5
	c0.2,2.9,5.4,7.6,8.2,7.4c1.1-0.1,1.7-0.9,2.4-1.7c2.7-3,5.4-5.9,8-8.9c1.8-2.2,3.3-2.2,5,0.1c2.6,3.6,5.4,7.2,8.1,10.8
	C595.1,351.9,595.4,352.8,595.6,353.1z M572.4,393.9c0.2-6.6-1.6-12.6-5.5-17.9c-6.2-8.6-16.5-9.9-24.1-3.3
	c-11,9.5-11.3,31.4-0.6,41.3c7.1,6.6,15.8,6.5,22.6-0.4C570.3,408.2,572.3,401.4,572.4,393.9z"/>
<linearGradient id="SVGID_00000072966285097694947330000017826715956096338619_" gradientUnits="userSpaceOnUse" x1="460.0189" y1="274.2933" x2="548.3641" y2="274.2933">
	<stop  offset="0.1145" style="stop-color:#1E9CD7"/>
	<stop  offset="0.3384" style="stop-color:#1E9CD7"/>
	<stop  offset="0.6305" style="stop-color:#0075BE"/>
	<stop  offset="0.9944" style="stop-color:#005B97"/>
	<stop  offset="1" style="stop-color:#CCE0F4"/>
</linearGradient>
<path style="fill:url(#SVGID_00000072966285097694947330000017826715956096338619_);" d="M508.4,256.9c-0.2-2.2-0.4-4.5-0.7-6.7
	c-0.3-2.4,0.7-3.8,3.2-4.1c1-0.1,2-0.4,2.9-0.7c2.3-0.9,3.5-0.4,4,2.1c0.3,2,1,3.9,1.4,5.8c0.4,2.1,1.5,3.2,3.6,3.7
	c2.1,0.5,2.9-0.9,3.7-2.3c0.1-0.2,0.3-0.4,0.4-0.6c3.7-6.2,6.2-6.2,10.6-0.3c0.8,1.1,1,2.2,0.4,3.5c-0.9,2-1.9,4.1-2.6,6.2
	c-1.6,4.8,1.3,8.1,6.1,7.2c4.8-0.9,4.8-0.9,5.9,4.1c0.2,0.7,0.4,1.5,0.5,2.2c1.3,5.3,1,5.7-4.2,7.5c-5.6,1.9-6.6,6.4-2.6,10.8
	c0.9,1,1.9,2,2.9,2.9c1.5,1.4,1.6,3,0.6,4.8c-0.2,0.3-0.4,0.6-0.6,1c-3.4,6.7-3.4,6.7-9.4,2.6c-1-0.7-2-1.7-3.3-0.7
	c-1.7,1.3-3.4,2.7-3.1,5.2c0.2,2.4,0.6,4.7,0.7,7.1c0.1,4.9-4.3,3.6-6.8,4.7c-2.7,1.1-3-1.3-3.4-3.1c-0.4-2-0.8-3.9-1.3-5.9
	c-0.4-1.8-1.6-2.7-3.3-3.1c-1.8-0.5-2.8,0.6-3.6,2c-0.2,0.3-0.4,0.6-0.6,1c-4.1,6.9-4.2,6.9-9.9,1.2c-1.5-1.4-1.9-2.8-1-4.7
	c0.9-1.9,1.9-3.8,2.6-5.8c1.5-4.4-1.2-7.7-5.7-7c-5.2,0.9-5.2,0.9-6.3-4.3c-0.3-1.2-0.6-2.4-0.9-3.6c-0.5-2.1-0.6-3.8,2.1-4.7
	c3.6-1.3,3.8-2.2,1.3-5.3c-9.9-12.3-19.8-24.7-29.9-36.9c-2.2-2.7-2.8-4.6,0-7.2c2-1.9,2.9-4.7,3.5-7.3c0.8-3.4,2-2.7,3.9-0.9
	c6.8,6.7,13.7,13.5,20.6,20.2c4.3,4.2,8.6,8.3,12.9,12.5c0.9,0.9,1.7,2.4,3.4,1.6C507.8,260.4,508.6,258.9,508.4,256.9z
	 M528.9,283.4c0.2-3.4-1.1-7-3.6-10.1c-3.4-4-7.9-4.6-12.3-1.6c-7,4.9-7.4,18.1-0.7,23.8c3.9,3.3,8.3,3.3,12.1-0.1
	C527.7,292.3,529,288.4,528.9,283.4z"/>
<linearGradient id="SVGID_00000036241585200785358080000017268270078791636918_" gradientUnits="userSpaceOnUse" x1="321.5659" y1="332.926" x2="362.5414" y2="332.926">
	<stop  offset="0.1145" style="stop-color:#1E9CD7"/>
	<stop  offset="0.3384" style="stop-color:#1E9CD7"/>
	<stop  offset="0.6305" style="stop-color:#0075BE"/>
	<stop  offset="0.9944" style="stop-color:#005B97"/>
	<stop  offset="1" style="stop-color:#CCE0F4"/>
</linearGradient>
<path style="fill:url(#SVGID_00000036241585200785358080000017268270078791636918_);" d="M362.5,322c0,1.9-0.9,3.1-1.8,4.3
	c-5.8,8.3-11.7,16.4-17.4,24.8c-1.8,2.7-4.6,3.1-7.3,4.1c-0.8,0.3-1.8,0.2-2.5,0.6c-3.5,1.8-6.5,2.7-7.5-2.7
	c-0.1-0.5-0.7-1.4-1.1-1.4c-4.8-0.6-3.2-3.4-2.6-6.3c1.5-7.4,4.4-13.7,10.4-18.8c6-5.2,11.5-11,17-16.7c1.3-1.3,2.1-1.5,3.7-0.4
	C358,312.8,360.9,317.1,362.5,322z"/>
<linearGradient id="SVGID_00000067228777515918392690000013783167871024157325_" gradientUnits="userSpaceOnUse" x1="401.2444" y1="280.3024" x2="448.789" y2="280.3024">
	<stop  offset="0.1145" style="stop-color:#1E9CD7"/>
	<stop  offset="0.3384" style="stop-color:#1E9CD7"/>
	<stop  offset="0.6305" style="stop-color:#0075BE"/>
	<stop  offset="0.9944" style="stop-color:#005B97"/>
	<stop  offset="1" style="stop-color:#CCE0F4"/>
</linearGradient>
<path style="fill:url(#SVGID_00000067228777515918392690000013783167871024157325_);" d="M440.8,229.7c2.2,3.5,4,6.4,7,8.5
	c1.9,1.4,0.5,3.5-0.2,5.1c-4.7,10.2-9.6,20.3-14.4,30.4c-8.5,17.8-16.9,35.5-25.4,53.3c-0.6,1.3-1.4,2.7-2,4
	c-5.2-3.4-5.5-4.3-3.2-9.9c12-29,24-57.9,36.1-86.9C439.3,232.8,440,231.4,440.8,229.7z"/>
<linearGradient id="SVGID_00000152972776525113920030000003318326233803300997_" gradientUnits="userSpaceOnUse" x1="352.7659" y1="307.4219" x2="393.2419" y2="307.4219">
	<stop  offset="0.1145" style="stop-color:#1E9CD7"/>
	<stop  offset="0.3384" style="stop-color:#1E9CD7"/>
	<stop  offset="0.6305" style="stop-color:#0075BE"/>
	<stop  offset="0.9944" style="stop-color:#005B97"/>
	<stop  offset="1" style="stop-color:#CCE0F4"/>
</linearGradient>
<path style="fill:url(#SVGID_00000152972776525113920030000003318326233803300997_);" d="M386.6,295.1c0.3,4-1.2,7.3-3.5,10.4
	c-1.7,2.2-1.7,4.1,0.2,6.3c3.1,3.7,5.8,7.8,8.8,11.6c1.4,1.8,1.9,3.5-0.3,5.1c-0.3,0.2-0.4,0.6-0.6,0.9c-3,4.4-3.1,4.4-6.4-0.1
	c-2.6-3.4-5.1-6.7-7.6-10.2c-1.4-2-2.6-2.1-4.5-0.4c-5.8,5.3-5.8,5.2-8.4-2c-1.8-5-4.1-9.6-9.6-11.7c-2.4-0.9-2.5-2-0.6-4
	c4.8-4.9,9.5-9.9,13.8-15.2c4-4.8,14.8-5.4,17,1.3C385.8,289.7,386.8,292.3,386.6,295.1z"/>
<linearGradient id="SVGID_00000052062680698259138260000011941615674701975223_" gradientUnits="userSpaceOnUse" x1="378.2821" y1="275.6939" x2="406.1205" y2="275.6939">
	<stop  offset="0.1145" style="stop-color:#1E9CD7"/>
	<stop  offset="0.3384" style="stop-color:#1E9CD7"/>
	<stop  offset="0.6305" style="stop-color:#0075BE"/>
	<stop  offset="0.9944" style="stop-color:#005B97"/>
	<stop  offset="1" style="stop-color:#CCE0F4"/>
</linearGradient>
<path style="fill:url(#SVGID_00000052062680698259138260000011941615674701975223_);" d="M389.4,294.5c-0.4-1.7-0.7-2.4-0.6-3.1
	c0.5-6.7-2.6-10.9-9-12.7c-1.7-0.5-1.9-1.3-0.8-2.7c4.4-5.8,8.6-11.6,13.1-17.3c1.8-2.3,6.1-2.1,8.4,0c3.4,3.3,4.5,7.6,5.6,12
	c0.2,0.8-0.1,1.8-0.5,2.5c-1,1.7-2.3,3.3-3.5,4.9C398.1,283.2,394.1,288.4,389.4,294.5z"/>
<linearGradient id="SVGID_00000088847327507866328810000011173277348394284980_" gradientUnits="userSpaceOnUse" x1="444.8357" y1="222.9105" x2="461.3093" y2="222.9105">
	<stop  offset="0.1145" style="stop-color:#1E9CD7"/>
	<stop  offset="0.3384" style="stop-color:#1E9CD7"/>
	<stop  offset="0.6305" style="stop-color:#0075BE"/>
	<stop  offset="0.9944" style="stop-color:#005B97"/>
	<stop  offset="1" style="stop-color:#CCE0F4"/>
</linearGradient>
<path style="fill:url(#SVGID_00000088847327507866328810000011173277348394284980_);" d="M444.8,223.4c-0.1-4,0.8-7.3,3.8-9.7
	c3.3-2.8,8.2-2,10.6,1.9c2.6,4.4,2.8,8.9,0.6,13.6c-1.3,2.8-3.2,4.6-6.6,4.7c-3.6,0.1-5.4-2-7-4.7
	C445.1,227.2,444.8,225.2,444.8,223.4z"/>
<linearGradient id="SVGID_00000011031572206280941790000009459473736924828304_" gradientUnits="userSpaceOnUse" x1="391.7061" y1="337.1591" x2="403.0576" y2="337.1591">
	<stop  offset="0.1145" style="stop-color:#1E9CD7"/>
	<stop  offset="0.3384" style="stop-color:#1E9CD7"/>
	<stop  offset="0.6305" style="stop-color:#0075BE"/>
	<stop  offset="0.9944" style="stop-color:#005B97"/>
	<stop  offset="1" style="stop-color:#CCE0F4"/>
</linearGradient>
<path style="fill:url(#SVGID_00000011031572206280941790000009459473736924828304_);" d="M403.1,337.2c0,4.4-2.2,7.4-5.5,7.5
	c-3.5,0.1-5.8-3-5.9-7.6c0-4.4,2.3-7.5,5.5-7.6C400.6,329.5,403,332.6,403.1,337.2z"/>
<linearGradient id="SVGID_00000129900578776657276770000018186515645645203374_" gradientUnits="userSpaceOnUse" x1="257.6724" y1="382.3624" x2="272.6875" y2="382.3624">
	<stop  offset="0.1145" style="stop-color:#1E9CD7"/>
	<stop  offset="0.3384" style="stop-color:#1E9CD7"/>
	<stop  offset="0.6305" style="stop-color:#0075BE"/>
	<stop  offset="0.9944" style="stop-color:#005B97"/>
	<stop  offset="1" style="stop-color:#CCE0F4"/>
</linearGradient>
<path style="fill:url(#SVGID_00000129900578776657276770000018186515645645203374_);" d="M270.6,388.6c-0.5-1.4-1-2-1-2.7
	c0-3-1.8-3.4-4.2-3.3c-1.6,0.1-3.2,0-4.8,0.1c-1.9,0.1-2.7-1.1-2.9-2.7c-0.1-1.5,0.7-2.7,2.2-2.9c3.1-0.4,6.2-0.7,9.2-0.9
	c1.9-0.1,3.1,0.9,3.3,2.8C272.9,382.1,272.9,385.1,270.6,388.6z"/>
<linearGradient id="SVGID_00000070813867592216432690000007669947402228783251_" gradientUnits="userSpaceOnUse" x1="250.915" y1="488.0321" x2="255.8841" y2="488.0321">
	<stop  offset="0.1145" style="stop-color:#1E9CD7"/>
	<stop  offset="0.3384" style="stop-color:#1E9CD7"/>
	<stop  offset="0.6305" style="stop-color:#0075BE"/>
	<stop  offset="0.9944" style="stop-color:#005B97"/>
	<stop  offset="1" style="stop-color:#CCE0F4"/>
</linearGradient>
<path style="fill:url(#SVGID_00000070813867592216432690000007669947402228783251_);" d="M251,487.5c0-2.5-0.1-5,0.1-7.5
	c0.1-1.2,0.3-2.6,2-2.7c1.5-0.1,1.8,1.2,2.1,2.3c1.1,5.4,0.9,10.9,0.4,16.3c-0.1,1.2-0.5,2.8-2,2.8c-1.7,0-2.1-1.7-2.2-3
	c-0.2-2.7-0.1-5.5-0.1-8.2C251.1,487.5,251,487.5,251,487.5z"/>
<linearGradient id="SVGID_00000155120282560845340850000018006241021414770359_" gradientUnits="userSpaceOnUse" x1="247.1008" y1="391.9865" x2="252.8352" y2="391.9865">
	<stop  offset="0.1145" style="stop-color:#1E9CD7"/>
	<stop  offset="0.3384" style="stop-color:#1E9CD7"/>
	<stop  offset="0.6305" style="stop-color:#0075BE"/>
	<stop  offset="0.9944" style="stop-color:#005B97"/>
	<stop  offset="1" style="stop-color:#CCE0F4"/>
</linearGradient>
<path style="fill:url(#SVGID_00000155120282560845340850000018006241021414770359_);" d="M247.2,392.1c0-2.6-0.2-5.3,0.1-7.9
	c0.3-2.7,2.5-3.8,4.5-2.5c0.6,0.4,1.5,0.9,1,1.8c-2.6,4.4-0.8,9.3-1.3,13.9c-0.1,0.9,0.1,1.8-0.1,2.6c-0.2,1.2-0.3,2.7-1.9,2.8
	c-1.9,0.1-2.1-1.6-2.2-2.9C247,397.3,247.2,394.7,247.2,392.1z"/>
<linearGradient id="SVGID_00000031202930990253465200000002366045788854544024_" gradientUnits="userSpaceOnUse" x1="247.3434" y1="423.963" x2="252.2772" y2="423.963">
	<stop  offset="0.1145" style="stop-color:#1E9CD7"/>
	<stop  offset="0.3384" style="stop-color:#1E9CD7"/>
	<stop  offset="0.6305" style="stop-color:#0075BE"/>
	<stop  offset="0.9944" style="stop-color:#005B97"/>
	<stop  offset="1" style="stop-color:#CCE0F4"/>
</linearGradient>
<path style="fill:url(#SVGID_00000031202930990253465200000002366045788854544024_);" d="M252.3,423.8c0,3.4,0,6,0,8.6
	c0,1.2-0.5,2.4-1.7,2.6c-1.3,0.2-1.8-1.1-1.9-2.3c-0.5-5.2-0.9-10.4-1.3-15.6c-0.1-0.7,0.3-1.4,0.5-2.2c0.3-1,0.7-2.1,1.8-2.1
	c1.1,0,1.6,1.1,1.9,2C252.7,418.1,251.9,421.4,252.3,423.8z"/>
<linearGradient id="SVGID_00000029755954040805613880000002815623528874866567_" gradientUnits="userSpaceOnUse" x1="269.6699" y1="403.8051" x2="274.0879" y2="403.8051">
	<stop  offset="0.1145" style="stop-color:#1E9CD7"/>
	<stop  offset="0.3384" style="stop-color:#1E9CD7"/>
	<stop  offset="0.6305" style="stop-color:#0075BE"/>
	<stop  offset="0.9944" style="stop-color:#005B97"/>
	<stop  offset="1" style="stop-color:#CCE0F4"/>
</linearGradient>
<path style="fill:url(#SVGID_00000029755954040805613880000002815623528874866567_);" d="M274.1,404.2c0,2.4,0,4.7,0,7.1
	c0,1.5-0.2,3.5-2,3.4c-1.6,0-2.2-1.9-2.3-3.4c-0.1-3-0.1-6-0.1-9c0-2.2,0-4.5,0-6.7c0-1.4,1-2.7,2.1-2.7c1,0,2.1,1.3,2.1,2.7
	c0,2.9,0,5.7,0,8.6C274,404.2,274,404.2,274.1,404.2z"/>
<linearGradient id="SVGID_00000047763187577981600260000015088401027199425950_" gradientUnits="userSpaceOnUse" x1="286.2496" y1="392.119" x2="291.2886" y2="392.119">
	<stop  offset="0.1145" style="stop-color:#1E9CD7"/>
	<stop  offset="0.3384" style="stop-color:#1E9CD7"/>
	<stop  offset="0.6305" style="stop-color:#0075BE"/>
	<stop  offset="0.9944" style="stop-color:#005B97"/>
	<stop  offset="1" style="stop-color:#CCE0F4"/>
</linearGradient>
<path style="fill:url(#SVGID_00000047763187577981600260000015088401027199425950_);" d="M291.3,394.2c0,2,0,4.2,0,6.5
	c0,1.1-0.7,2-1.8,2.1c-1.1,0.1-1.8-0.9-1.9-2c-0.5-5.3-1.1-10.6-1.4-15.9c-0.1-1.3,0-3.4,2-3.5c2-0.1,1.9,1.9,2.3,3.3
	C291.3,387.8,291,390.9,291.3,394.2z"/>
<linearGradient id="SVGID_00000078014568715805178340000017102793346038235323_" gradientUnits="userSpaceOnUse" x1="288.5335" y1="424.0358" x2="293.5403" y2="424.0358">
	<stop  offset="0.1145" style="stop-color:#1E9CD7"/>
	<stop  offset="0.3384" style="stop-color:#1E9CD7"/>
	<stop  offset="0.6305" style="stop-color:#0075BE"/>
	<stop  offset="0.9944" style="stop-color:#005B97"/>
	<stop  offset="1" style="stop-color:#CCE0F4"/>
</linearGradient>
<path style="fill:url(#SVGID_00000078014568715805178340000017102793346038235323_);" d="M293.5,429.5c0-0.1,0,0.4,0,0.9
	c-0.1,1.8,0.5,4.5-1.9,4.5c-2.1,0-2.2-2.7-2.4-4.5c-0.3-4.5-0.6-8.9-0.7-13.4c0-1.6,0.3-3.9,2-3.8c1.5,0,2.1,2,2.2,3.8
	C292.9,421,293.2,424.9,293.5,429.5z"/>
<linearGradient id="SVGID_00000137823619927206760980000017376336146502192022_" gradientUnits="userSpaceOnUse" x1="305.3919" y1="365.4384" x2="314.3293" y2="365.4384">
	<stop  offset="0.1145" style="stop-color:#1E9CD7"/>
	<stop  offset="0.3384" style="stop-color:#1E9CD7"/>
	<stop  offset="0.6305" style="stop-color:#0075BE"/>
	<stop  offset="0.9944" style="stop-color:#005B97"/>
	<stop  offset="1" style="stop-color:#CCE0F4"/>
</linearGradient>
<path style="fill:url(#SVGID_00000137823619927206760980000017376336146502192022_);" d="M314.3,367.8c-0.1,0.9-0.4,1.8-1.4,2.4
	c-1,0.6-1.7-0.1-2.3-0.6c-1.6-1.5-3.3-3-4.7-4.7c-0.9-1.1-0.8-2.6,0.3-3.8c1.1-1.2,2.1-0.8,3.2,0C312,362.8,314,364.6,314.3,367.8z"
	/>
<linearGradient id="SVGID_00000092417682788764174190000013127962566405556131_" gradientUnits="userSpaceOnUse" x1="285.2448" y1="366.4294" x2="296.9747" y2="366.4294">
	<stop  offset="0.1145" style="stop-color:#1E9CD7"/>
	<stop  offset="0.3384" style="stop-color:#1E9CD7"/>
	<stop  offset="0.6305" style="stop-color:#0075BE"/>
	<stop  offset="0.9944" style="stop-color:#005B97"/>
	<stop  offset="1" style="stop-color:#CCE0F4"/>
</linearGradient>
<path style="fill:url(#SVGID_00000092417682788764174190000013127962566405556131_);" d="M285.2,366.9c0-3.2,1.2-4.9,3.7-5.5
	c1.8-0.4,3.7-0.6,5.5-0.8c1.3-0.1,2.2,0.6,2.5,1.8c0.3,1.3-0.5,2.2-1.8,2.3c-3.8,0.4-6.9,1.5-6.2,6.3c0.1,0.6-0.4,1.2-1.1,1.3
	c-0.7,0-1.3-0.4-1.5-1C285.8,369.7,285.5,368,285.2,366.9z"/>
<linearGradient id="SVGID_00000030445541592828997730000014480975208192185521_" gradientUnits="userSpaceOnUse" x1="251.0506" y1="520.1166" x2="254.5073" y2="520.1166">
	<stop  offset="0.1145" style="stop-color:#1E9CD7"/>
	<stop  offset="0.3384" style="stop-color:#1E9CD7"/>
	<stop  offset="0.6305" style="stop-color:#0075BE"/>
	<stop  offset="0.9944" style="stop-color:#005B97"/>
	<stop  offset="1" style="stop-color:#CCE0F4"/>
</linearGradient>
<path style="fill:url(#SVGID_00000030445541592828997730000014480975208192185521_);" d="M254.5,520c-0.1,2.3-0.2,5-0.5,7.7
	c-0.1,0.8-0.5,2.2-1.8,1.9c-0.9-0.2-1.2-1.3-1.2-2.1c0-5,0.1-9.9,0.3-14.9c0-1,0.3-2.5,1.9-2.2c1.3,0.2,1.2,1.4,1.2,2.4
	C254.5,515.1,254.5,517.4,254.5,520z"/>
<linearGradient id="SVGID_00000165204197821165972980000007938036947017032324_" gradientUnits="userSpaceOnUse" x1="272.1516" y1="531.9625" x2="275.5174" y2="531.9625">
	<stop  offset="0.1145" style="stop-color:#1E9CD7"/>
	<stop  offset="0.3384" style="stop-color:#1E9CD7"/>
	<stop  offset="0.6305" style="stop-color:#0075BE"/>
	<stop  offset="0.9944" style="stop-color:#005B97"/>
	<stop  offset="1" style="stop-color:#CCE0F4"/>
</linearGradient>
<path style="fill:url(#SVGID_00000165204197821165972980000007938036947017032324_);" d="M275.5,532c0,2.4,0,4.7,0,7.1
	c0,1.1,0,2.4-1.6,2.4c-1.3,0-1.7-1.1-1.7-2.1c-0.1-5.1-0.1-10.2,0-15.2c0-0.9,0.5-1.7,1.6-1.7c1,0,1.6,0.8,1.6,1.8
	c0.1,2.6,0,5.2,0,7.8C275.4,532,275.5,532,275.5,532z"/>
<linearGradient id="SVGID_00000026152626874231906040000006758234580162257818_" gradientUnits="userSpaceOnUse" x1="316.2145" y1="359.1714" x2="323.5016" y2="359.1714">
	<stop  offset="0.1145" style="stop-color:#1E9CD7"/>
	<stop  offset="0.3384" style="stop-color:#1E9CD7"/>
	<stop  offset="0.6305" style="stop-color:#0075BE"/>
	<stop  offset="0.9944" style="stop-color:#005B97"/>
	<stop  offset="1" style="stop-color:#CCE0F4"/>
</linearGradient>
<path style="fill:url(#SVGID_00000026152626874231906040000006758234580162257818_);" d="M323.5,360.8c0,1.5-1.2,1.8-2.2,2.1
	c-1.5,0.5-3,1.7-4.6,0.4c-1-0.9-0.1-1.8,0.1-2.8c0.1-0.5,0.3-0.9,0.5-1.4c0.7-1.6,0.1-3.8,2.2-4.8
	C319.9,354.2,323.5,360.1,323.5,360.8z"/>
<linearGradient id="SVGID_00000127737924634584241790000008793608375114929564_" gradientUnits="userSpaceOnUse" x1="271.0921" y1="435.7466" x2="274.1911" y2="435.7466">
	<stop  offset="0.1145" style="stop-color:#1E9CD7"/>
	<stop  offset="0.3384" style="stop-color:#1E9CD7"/>
	<stop  offset="0.6305" style="stop-color:#0075BE"/>
	<stop  offset="0.9944" style="stop-color:#005B97"/>
	<stop  offset="1" style="stop-color:#CCE0F4"/>
</linearGradient>
<path style="fill:url(#SVGID_00000127737924634584241790000008793608375114929564_);" d="M274.2,435.8c0,2.4,0,4.7,0,7.1
	c0,0.9-0.1,1.9-1.2,2c-1,0.1-1.7-0.6-1.7-1.6c-0.1-5.1-0.1-10.2-0.1-15.4c0-0.8,0.5-1.5,1.4-1.5c1.1,0,1.4,0.9,1.5,1.8
	c0.1,2.5,0,5,0,7.5C274,435.8,274.1,435.8,274.2,435.8z"/>
<linearGradient id="SVGID_00000047747171838661757150000016425384540468710812_" gradientUnits="userSpaceOnUse" x1="249.9261" y1="456.0934" x2="253.2636" y2="456.0934">
	<stop  offset="0.1145" style="stop-color:#1E9CD7"/>
	<stop  offset="0.3384" style="stop-color:#1E9CD7"/>
	<stop  offset="0.6305" style="stop-color:#0075BE"/>
	<stop  offset="0.9944" style="stop-color:#005B97"/>
	<stop  offset="1" style="stop-color:#CCE0F4"/>
</linearGradient>
<path style="fill:url(#SVGID_00000047747171838661757150000016425384540468710812_);" d="M253.3,456.9c0,2.1,0,4.2,0,6.3
	c0,0.7,0,1.6-1,1.7c-0.9,0.1-1.3-0.7-1.4-1.4c-0.7-4.8-1-9.6-0.9-14.5c0-0.9,0.2-1.8,1.4-1.8c1.1,0.1,1.5,0.9,1.5,1.8
	c0.1,2.6,0,5.2,0,7.8C253,456.9,253.1,456.9,253.3,456.9z"/>
<linearGradient id="SVGID_00000175320451356188974160000000902482126246797471_" gradientUnits="userSpaceOnUse" x1="291.2124" y1="487.8205" x2="294.4629" y2="487.8205">
	<stop  offset="0.1145" style="stop-color:#1E9CD7"/>
	<stop  offset="0.3384" style="stop-color:#1E9CD7"/>
	<stop  offset="0.6305" style="stop-color:#0075BE"/>
	<stop  offset="0.9944" style="stop-color:#005B97"/>
	<stop  offset="1" style="stop-color:#CCE0F4"/>
</linearGradient>
<path style="fill:url(#SVGID_00000175320451356188974160000000902482126246797471_);" d="M294.5,486.6c-0.2,2.8-0.5,5.7-0.7,8.5
	c-0.1,0.8-0.3,1.6-1.2,1.5c-0.8-0.1-1.2-0.9-1.2-1.6c-0.2-5,0.2-9.9,0.6-14.9c0.1-0.6,0.4-1.3,1.2-1.2c0.8,0.1,1.3,0.8,1.3,1.6
	c0.1,2,0,4,0,6C294.4,486.6,294.4,486.6,294.5,486.6z"/>
<linearGradient id="SVGID_00000097458587010406582530000007734503412068339090_" gradientUnits="userSpaceOnUse" x1="291.3144" y1="455.8807" x2="294.5338" y2="455.8807">
	<stop  offset="0.1145" style="stop-color:#1E9CD7"/>
	<stop  offset="0.3384" style="stop-color:#1E9CD7"/>
	<stop  offset="0.6305" style="stop-color:#0075BE"/>
	<stop  offset="0.9944" style="stop-color:#005B97"/>
	<stop  offset="1" style="stop-color:#CCE0F4"/>
</linearGradient>
<path style="fill:url(#SVGID_00000097458587010406582530000007734503412068339090_);" d="M294.5,456.4c0,2.7,0,4.5,0,6.4
	c0,0.8-0.2,1.5-1.1,1.7c-0.9,0.1-1.4-0.6-1.4-1.3c-0.3-4.7-0.5-9.4-0.6-14.1c0-0.8,0.3-1.7,1.1-1.7c1.1-0.1,1.3,1,1.4,1.8
	C294.1,451.8,294.3,454.5,294.5,456.4z"/>
<linearGradient id="SVGID_00000030451988575688548390000006453643190209365395_" gradientUnits="userSpaceOnUse" x1="272.2769" y1="499.8778" x2="274.9445" y2="499.8778">
	<stop  offset="0.1145" style="stop-color:#1E9CD7"/>
	<stop  offset="0.3384" style="stop-color:#1E9CD7"/>
	<stop  offset="0.6305" style="stop-color:#0075BE"/>
	<stop  offset="0.9944" style="stop-color:#005B97"/>
	<stop  offset="1" style="stop-color:#CCE0F4"/>
</linearGradient>
<path style="fill:url(#SVGID_00000030451988575688548390000006453643190209365395_);" d="M274.9,500.2c0,2.6,0,4.7,0,6.9
	c0,0.9-0.3,1.8-1.5,1.7c-0.9-0.1-1.1-0.9-1.1-1.6c0-4.8-0.1-9.7,0-14.5c0-0.7,0-1.7,1-1.7c0.9,0,1,0.9,1.2,1.6
	C275.2,495.3,274.8,498,274.9,500.2z"/>
<linearGradient id="SVGID_00000080204591854805921950000010584986849187861421_" gradientUnits="userSpaceOnUse" x1="290.1347" y1="520.0817" x2="293.0254" y2="520.0817">
	<stop  offset="0.1145" style="stop-color:#1E9CD7"/>
	<stop  offset="0.3384" style="stop-color:#1E9CD7"/>
	<stop  offset="0.6305" style="stop-color:#0075BE"/>
	<stop  offset="0.9944" style="stop-color:#005B97"/>
	<stop  offset="1" style="stop-color:#CCE0F4"/>
</linearGradient>
<path style="fill:url(#SVGID_00000080204591854805921950000010584986849187861421_);" d="M290.4,520.2c0-2.4,0-4.7,0-7.1
	c0-0.8,0.4-1.5,1.3-1.5c0.9,0,1.3,0.7,1.3,1.5c0,4.7,0.2,9.5-0.7,14.2c-0.1,0.6-0.4,1.3-1.1,1.3c-1.1,0-1-0.9-1-1.6
	c-0.1-2.2,0-4.5,0-6.7C290.2,520.2,290.3,520.2,290.4,520.2z"/>
<linearGradient id="SVGID_00000170269647424694029070000000923646305106791358_" gradientUnits="userSpaceOnUse" x1="272.1202" y1="467.9502" x2="274.3828" y2="467.9502">
	<stop  offset="0.1145" style="stop-color:#1E9CD7"/>
	<stop  offset="0.3384" style="stop-color:#1E9CD7"/>
	<stop  offset="0.6305" style="stop-color:#0075BE"/>
	<stop  offset="0.9944" style="stop-color:#005B97"/>
	<stop  offset="1" style="stop-color:#CCE0F4"/>
</linearGradient>
<path style="fill:url(#SVGID_00000170269647424694029070000000923646305106791358_);" d="M274.4,468.1c0,2.2,0,4.5,0,6.7
	c0,0.7,0,1.6-1,1.7c-1,0.1-1.1-0.8-1.1-1.5c-0.1-4.7-0.1-9.4,0-14.1c0-0.6,0.1-1.3,0.9-1.3c0.8,0,1.1,0.6,1.1,1.2c0.1,2.5,0,5,0,7.4
	C274.3,468.1,274.3,468.1,274.4,468.1z"/>
</svg>
