<?xml version="1.0" encoding="utf-8"?>
<!-- Generator: Adobe Illustrator 26.0.1, SVG Export Plug-In . SVG Version: 6.00 Build 0)  -->
<svg version="1.1" id="Layer_1" xmlns="http://www.w3.org/2000/svg" xmlns:xlink="http://www.w3.org/1999/xlink" x="0px" y="0px"
	 viewBox="0 0 720 720" style="enable-background:new 0 0 720 720;" xml:space="preserve">
<style type="text/css">
	.st0{fill:url(#SVGID_1_);}
	.st1{fill:url(#SVGID_00000127722686169643617990000015610489476026003345_);}
	.st2{fill:url(#SVGID_00000021835766850823426940000012945764774537824441_);}
	.st3{fill:url(#SVGID_00000130635893015102021210000007927082792460307902_);}
</style>
<linearGradient id="SVGID_1_" gradientUnits="userSpaceOnUse" x1="167.5195" y1="261.0609" x2="543.9789" y2="261.0609">
	<stop  offset="0.1093" style="stop-color:#1E9CD7"/>
	<stop  offset="0.3212" style="stop-color:#0075BE"/>
	<stop  offset="0.5168" style="stop-color:#0068AB"/>
	<stop  offset="0.8184" style="stop-color:#0061A0"/>
	<stop  offset="0.9944" style="stop-color:#005B97"/>
	<stop  offset="1" style="stop-color:#CCE0F4"/>
</linearGradient>
<path class="st0" d="M180.7,331c1.3-5.4,2.2-10.8,3.8-16c3.7-11.6,5.6-23.4,4-35.6c-1-7.8-3.4-15.1-7.4-21.9
	c-2.1-3.6-4.3-7.2-6.7-10.7c-6.6-9.9-8.4-20.7-5.6-32.2c1.3-5.3,3.1-10.6,5.2-15.7c2.3-5.7,6.6-9.9,12.1-12.7
	c0.9-0.4,1.7-0.9,2.6-1.3c27.4-12.8,43.4-35,50.4-63.7c4.8-19.7,18-29.2,36.1-34.1c6-1.6,12.2,0,18.2,1.4c8.1,1.9,16.3,4.2,24.5,5.1
	c14.4,1.5,28-1.9,40.6-8.9c2.5-1.4,5-2.7,7.4-4.3c14.3-9.8,29.5-9.9,45.3-4.5c9.3,3.1,16.5,8.7,21.5,17.1c1.7,2.7,3.3,5.5,4.8,8.4
	c9.7,19.6,25.5,31.6,46.4,37.4c4.8,1.3,9.6,2.8,14.3,4.3c17.3,5.6,25.4,18.6,28.6,35.5c1.6,8.7-0.7,17.2-2.4,25.7
	c-2.9,14.3-3.7,28.6-0.3,43c1.9,8.1,6,15.2,10.7,22c3.4,4.8,6.6,9.7,8.1,15.6c2.1,8.3,0.8,16.5-1.4,24.6c-1,3.8-2.4,7.5-3.9,11.1
	c-3.3,7.8-8.7,13.8-16.1,18c-2.8,1.6-5.6,3.1-8.5,4.5c-19.4,9.4-30.6,25-34.9,45.9c-0.5,2.5-1.1,5.1-1.6,7.6
	c-2.1,9.5-6.8,17.4-14.5,23.4c-8.7,6.8-17.9,12.7-29.2,14.4c-5.4,0.8-10.4-0.6-15.5-2.1c-7-2.1-13.9-4.9-21.1-5.6
	c-16.3-1.7-31.6,1.8-44.6,12.6c-0.8,0.7-1.7,1.3-2.5,2.1c-8.6,8.6-18.9,10.4-30.4,8.1c-9.6-1.9-19-4.7-28-8.6
	c-9.1-4-15.6-10.4-19-19.9c-5.1-14.6-14.8-25.4-27.7-33.6c-8-5-17-6.9-26.1-8.2c-10.5-1.6-18.6-6.8-24.6-15.5
	c-5.4-7.9-10-16.3-11.7-25.9c-0.4-2-0.4-4.1-0.6-6.1C181,331.1,180.8,331,180.7,331z M355.6,121.7c-76.8,0.5-138.7,62.1-138.1,139.4
	c0.5,75.2,61.1,137.3,138.8,137.1c75.8-0.2,137.4-61.2,137.6-138C494,184.6,433.5,122.2,355.6,121.7z"/>
<linearGradient id="SVGID_00000075120846177109541640000014022273635255195779_" gradientUnits="userSpaceOnUse" x1="387.2724" y1="543.3789" x2="574.102" y2="543.3789">
	<stop  offset="0.1093" style="stop-color:#1E9CD7"/>
	<stop  offset="0.3212" style="stop-color:#0075BE"/>
	<stop  offset="0.5168" style="stop-color:#0068AB"/>
	<stop  offset="0.8184" style="stop-color:#0061A0"/>
	<stop  offset="0.9944" style="stop-color:#005B97"/>
	<stop  offset="1" style="stop-color:#CCE0F4"/>
</linearGradient>
<path style="fill:url(#SVGID_00000075120846177109541640000014022273635255195779_);" d="M452.1,643.5
	c-21.5-49.5-43-99.1-64.8-149.2c46.5-4.8,87.5-22.1,124.1-51.1c21,48.7,41.7,97,62.7,145.9c-31-14.6-61.5-29-92.2-43.5
	c-9.8,32.7-19.5,65.3-29.2,97.8C452.5,643.5,452.3,643.5,452.1,643.5z"/>
<linearGradient id="SVGID_00000091008107374224625490000009373970315186352527_" gradientUnits="userSpaceOnUse" x1="152.7399" y1="547.0272" x2="338.4261" y2="547.0272">
	<stop  offset="0.1093" style="stop-color:#1E9CD7"/>
	<stop  offset="0.3212" style="stop-color:#0075BE"/>
	<stop  offset="0.5168" style="stop-color:#0068AB"/>
	<stop  offset="0.8184" style="stop-color:#0061A0"/>
	<stop  offset="0.9944" style="stop-color:#005B97"/>
	<stop  offset="1" style="stop-color:#CCE0F4"/>
</linearGradient>
<path style="fill:url(#SVGID_00000091008107374224625490000009373970315186352527_);" d="M215.5,449.7c35.9,29.2,77.4,43.4,123,48
	c-21.4,49-42.6,97.5-64.1,146.7c-9.9-33.2-19.6-65.7-29.4-98.8c-30.6,14.4-61.1,28.8-92.2,43.5C173.8,542.4,194.5,496.3,215.5,449.7
	z"/>
<linearGradient id="SVGID_00000106126575818495075270000018145935551767563144_" gradientUnits="userSpaceOnUse" x1="235.4778" y1="259.9554" x2="475.8759" y2="259.9554">
	<stop  offset="0.1093" style="stop-color:#1E9CD7"/>
	<stop  offset="0.3212" style="stop-color:#0075BE"/>
	<stop  offset="0.5168" style="stop-color:#0068AB"/>
	<stop  offset="0.8184" style="stop-color:#0061A0"/>
	<stop  offset="0.9944" style="stop-color:#005B97"/>
	<stop  offset="1" style="stop-color:#CCE0F4"/>
</linearGradient>
<path style="fill:url(#SVGID_00000106126575818495075270000018145935551767563144_);" d="M475.9,260.2
	c-0.3,66.4-54.3,120.1-120.5,119.9c-66.4-0.2-120.2-54.2-119.9-120.4c0.3-66.4,54.2-120.2,120.4-120
	C422.2,140,476.2,194.2,475.9,260.2z M338.7,322.7c34.4-34.4,68.8-68.8,102.8-102.8c-7.4-7.4-15.2-15.2-23.2-23.2
	c-26.3,26.3-52.8,52.8-79.5,79.6c-10.8-10.8-21.6-21.6-32.2-32.3c-7.9,7.9-15.6,15.6-23.2,23.2C301.8,285.8,320.4,304.4,338.7,322.7
	z"/>
</svg>
