<?xml version="1.0" encoding="utf-8"?>
<!-- Generator: Adobe Illustrator 26.0.1, SVG Export Plug-In . SVG Version: 6.00 Build 0)  -->
<svg version="1.1" id="Layer_1" xmlns="http://www.w3.org/2000/svg" xmlns:xlink="http://www.w3.org/1999/xlink" x="0px" y="0px"
	 viewBox="0 0 720 720" style="enable-background:new 0 0 720 720;" xml:space="preserve">
<style type="text/css">
	.st0{fill:url(#SVGID_1_);}
	.st1{fill:url(#SVGID_00000127732920101551859060000007638626461275930003_);}
	.st2{fill:#FDFDFD;}
	.st3{fill:url(#SVGID_00000070108600410914522130000006747142585656449180_);}
	.st4{fill:url(#SVGID_00000183949383760077143570000008342076205021325968_);}
</style>
<linearGradient id="SVGID_1_" gradientUnits="userSpaceOnUse" x1="13.9215" y1="418.9682" x2="692.2766" y2="418.9682">
	<stop  offset="5.344951e-02" style="stop-color:#1E9CD7"/>
	<stop  offset="0.2263" style="stop-color:#0177BF"/>
	<stop  offset="0.4573" style="stop-color:#0075BE"/>
	<stop  offset="0.6564" style="stop-color:#0065A6"/>
	<stop  offset="0.9944" style="stop-color:#005B97"/>
	<stop  offset="1" style="stop-color:#CCE0F4"/>
</linearGradient>
<path class="st0" d="M379.2,702.8c-1.2-2.2-3.7-2-5.6-2.9c-14.5-6.3-28.7-25.7-23.7-43.5c1.3-4.6,4.3-8,6.6-11.9
	c23.3-40.2,46.5-80.4,70.6-120.1c6.9-11.4,13.9-22.9,21.1-34.2c2.2-3.4,2.2-5.3-2.6-4.9c-1.5,0.1-3.1,0-4.6,0
	c-136.4,0-272.9,0-409.3,0c-2.4,0-4.9,0.1-7.3-0.1c-6.3-0.6-10.5-5-10.4-10.7c0.1-5.6,4.5-10.4,10.6-10.7c8.2-0.3,16.4-0.7,24.6,0.1
	c7.2,0.7,8.1-2.2,8.1-8.5c-0.2-94.6-0.1-189.1-0.2-283.7c0-8.1,0.9-15.9,5.9-22.7c6.3-8.5,14.5-13.6,25.2-13.8
	c14.6-0.2,29.2-0.4,43.8,0c16.7,0.4,30.2,13.9,30.7,30.6c0.4,12.2,0.2,24.4,0.2,36.5c0,84.4,0,168.8,0.1,253.1
	c0,2.6-1.7,6.8,1.5,7.7c4.1,1.1,8.9,0.9,13.1,0.1c2.3-0.4,1.1-3.9,1.1-6c0.1-42.5,0-85,0-127.6c0-31,0-62,0-93
	c0-22.5,13.4-36,35.8-36.2c12-0.1,23.9,0.1,35.9,0c18.4-0.1,36.2,13.7,36,35.7c-0.6,73.5-0.3,147.1-0.2,220.6c0,2.2-1.4,6,1.2,6.5
	c4.4,0.9,9.3,0.6,13.8-0.2c1.7-0.3,0.8-3.6,0.8-5.5c0-38.8,0-77.5,0-116.3c0-14-0.1-27.9,0-41.9c0.1-18.9,13.7-32.7,32.5-33.1
	c13.3-0.3,26.6-0.2,39.9,0c20.2,0.2,33.7,14,33.7,34.8c0.1,51.4,0,102.8,0.1,154.1c0,2.7-1.5,7.1,1.1,7.9c4,1.2,8.8,0.8,13.1,0.1
	c2.8-0.5,1.5-3.8,1.5-5.7c0.1-29.5,0.1-58.9,0.1-88.4c0-23.3,14-37.5,37.4-37.2c14.8,0.2,29.7-1.6,44.4,1.1
	c13.9,2.6,24.2,13.8,25,28c0.7,12.8,0.6,25.7,0.4,38.5c0,4.3,0.8,6.7,5.3,8.3c7.7,2.8,13.4,8.5,17.6,15.5
	c4.5,7.6,8.8,15.4,13.5,22.9c31.2,50.1,60.1,101.5,90.6,151.8c8.9,14.7,17.9,29.3,26.7,44c15.2,25.6,6.3,49.5-21.9,59.5
	c-0.3,0.1-0.5,0.7-0.7,1C567.9,702.8,473.6,702.8,379.2,702.8z M356.7,288.4c-6.6,0-13.3,0-19.9,0c-8.7,0.1-12.7,3.8-12.7,12.5
	c-0.1,52.7,0,105.4-0.1,158.1c0,3.4,1,4.6,4.5,4.6c8.9-0.2,17.7-0.1,26.6-0.1c8.4,0.1,16.8,0,25.2,0.5c5.2,0.3,6.3-1.7,6.2-6.5
	c-0.2-24.6-0.1-49.1-0.1-73.7c0-27.2,0-54.4,0-81.6c0-10.9-3.3-14.1-14.4-14.1C366.9,288.1,361.8,288.3,356.7,288.4z M520.4,681.4
	c18.6,0,37.2,0,55.8,0c24.3,0,48.7,0,73-0.1c7.7,0,15.3-1.2,19.4-8.9c3.7-7.1,1.1-13.5-2.7-19.9c-2.5-4.2-5.9-7.6-8.4-11.7
	c-25.9-43.1-50.1-87.3-77.2-129.8c-15.6-24.6-29.6-50.3-44.5-75.4c-4.3-7.3-10.4-10.3-17.7-8.8c-6.8,1.4-11.1,6.3-14.5,11.8
	c-26.5,43.6-50.9,88.4-78.3,131.5c-17.2,27.1-32.5,55.3-48.8,82.9c-3.8,6.5-6.2,12.9-2.4,19.9c4,7.3,11,8.8,18.7,8.8
	C435.4,681.4,477.9,681.4,520.4,681.4z M78.8,312.8c0,48,0.1,96.1-0.1,144.1c0,5.6,1.6,7.1,7.1,7c16.6-0.4,33.2-0.3,49.8,0
	c4.7,0.1,5.9-1.4,5.9-6c-0.1-95.9-0.1-191.8-0.1-287.6c0-9.3-4.1-13.4-13.3-13.5c-11.5-0.1-23,0-34.5,0c-11.2,0-14.7,3.5-14.7,14.6
	C78.8,218.5,78.8,265.6,78.8,312.8z M233.7,223.5c-6.1,0-11.6,0-17.1,0c-11.2,0-13.6,2.4-13.6,13.6c0,61.3,0,122.7,0,184
	c0,12.4,0.1,24.8-0.1,37.2c-0.1,3.8,1,5.1,4.8,4.9c5.1-0.3,10.2,0,15.3-0.1c9.8-0.1,8.6,1.2,8.6-8.3c0-72.2,0-144.4,0-216.6
	C231.6,233.3,231.1,228.5,233.7,223.5z"/>
<linearGradient id="SVGID_00000096758345391534214450000014808553865878955147_" gradientUnits="userSpaceOnUse" x1="263.3866" y1="165.4437" x2="554.2234" y2="165.4437">
	<stop  offset="5.344951e-02" style="stop-color:#1E9CD7"/>
	<stop  offset="0.2263" style="stop-color:#0177BF"/>
	<stop  offset="0.4573" style="stop-color:#0075BE"/>
	<stop  offset="0.6564" style="stop-color:#0065A6"/>
	<stop  offset="0.9944" style="stop-color:#005B97"/>
	<stop  offset="1" style="stop-color:#CCE0F4"/>
</linearGradient>
<path style="fill:url(#SVGID_00000096758345391534214450000014808553865878955147_);" d="M529.8,266.7c-1.2-14.2-2.3-28.4-3.5-42.7
	c-0.5-5.7-1-11.5-1.6-17.2c-0.7-7.5,3-12.8,9.4-13.6c6.4-0.8,11.4,3.5,12.2,11.1c1.6,16.5,2.9,33.1,4.3,49.6
	c1.1,13.2,2.2,26.5,3.5,39.7c1,10-3.3,15.4-12.7,14.7c-30.9-2.4-61.8-5.2-92.6-7.8c-6-0.5-10.2-3.2-11-9.4
	c-1-7.4,4.4-12.7,12.8-12.1c17.4,1.3,34.8,3,52.3,4.5c3.4,0.3,6.8,0.4,10.5,0.7c-25.7-25.8-50.4-51.7-76.3-76.2
	c-23.3-22-45.1-45.6-68.5-67.5c-29.3-27.6-57.1-56.7-86-84.8c-4.7-4.6-9.8-8.8-14.5-13.4c-5.5-5.5-6.1-11.8-1.8-16.4
	c4.5-4.9,12.3-4.8,17.8,0.5c10.8,10.5,21.3,21.3,32,31.9C328,70.5,339.6,83,352.1,94.6c26.9,24.7,51.3,51.9,78,76.8
	c26.1,24.3,50.3,50.4,76.1,74.9C513.5,253.2,520.9,260.1,529.8,266.7z"/>
<path class="st2" d="M237.7,223.5c-2.6,5-2.1,9.9-2.1,14.7c0,72.2,0,144.4,0,216.6c0,9.6,1.2,8.2-8.6,8.3
	c-5.1,0.1-10.2-0.2-15.3,0.1c-3.8,0.2-4.9-1.1-4.8-4.9c0.2-12.4,0.1-24.8,0.1-37.2c0-61.3,0-122.7,0-184c0-11.2,2.4-13.6,13.6-13.6
	C226.1,223.5,231.6,223.5,237.7,223.5z"/>
<path class="st2" d="M359,463.5c-8.9,0-17.7-0.1-26.6,0.1c-3.5,0.1-4.5-1.1-4.5-4.6c0.1-52.7,0-105.4,0.1-158.1
	c0-8.7,4.1-12.4,12.7-12.5c6.6-0.1,13.3,0,19.9,0c-1.7,5.1-1.7,10.4-1.7,15.7C359,357.2,359,410.3,359,463.5z"/>
<linearGradient id="SVGID_00000078030309762689243620000010478525954164657578_" gradientUnits="userSpaceOnUse" x1="514.6795" y1="524.7286" x2="536.184" y2="524.7286">
	<stop  offset="5.344951e-02" style="stop-color:#1E9CD7"/>
	<stop  offset="0.2263" style="stop-color:#0177BF"/>
	<stop  offset="0.4573" style="stop-color:#0075BE"/>
	<stop  offset="0.6564" style="stop-color:#0065A6"/>
	<stop  offset="0.9944" style="stop-color:#005B97"/>
	<stop  offset="1" style="stop-color:#CCE0F4"/>
</linearGradient>
<path style="fill:url(#SVGID_00000078030309762689243620000010478525954164657578_);" d="M514.7,524.8c0-18.3,0-36.7,0-55
	c0-8.5,3.8-12.8,10.8-12.9c6.9,0,10.7,4.5,10.7,13c0,36.5,0,72.9-0.1,109.4c0,8.6-3.7,13.2-10.4,13.3c-7.1,0.2-11-4.5-11-13.4
	C514.7,561.1,514.7,542.9,514.7,524.8z"/>
<linearGradient id="SVGID_00000124861902460305813200000013111432049160754055_" gradientUnits="userSpaceOnUse" x1="501.7396" y1="641.0299" x2="547.6155" y2="641.0299">
	<stop  offset="5.344951e-02" style="stop-color:#1E9CD7"/>
	<stop  offset="0.2263" style="stop-color:#0177BF"/>
	<stop  offset="0.4573" style="stop-color:#0075BE"/>
	<stop  offset="0.6564" style="stop-color:#0065A6"/>
	<stop  offset="0.9944" style="stop-color:#005B97"/>
	<stop  offset="1" style="stop-color:#CCE0F4"/>
</linearGradient>
<path style="fill:url(#SVGID_00000124861902460305813200000013111432049160754055_);" d="M525.3,619.1c12.1,0,22,9.6,22.3,21.7
	c0.3,11.9-10.2,22.3-22.5,22.3c-12.8,0-23.5-10.2-23.4-22.1C501.8,628.7,512.2,619.1,525.3,619.1z"/>
</svg>
