<?xml version="1.0" encoding="utf-8"?>
<!-- Generator: Adobe Illustrator 26.0.1, SVG Export Plug-In . SVG Version: 6.00 Build 0)  -->
<svg version="1.1" id="Layer_1" xmlns="http://www.w3.org/2000/svg" xmlns:xlink="http://www.w3.org/1999/xlink" x="0px" y="0px"
	 viewBox="0 0 720 720" style="enable-background:new 0 0 720 720;" xml:space="preserve">
<style type="text/css">
	.st0{fill:url(#SVGID_1_);}
	.st1{fill:url(#SVGID_00000047744172370237780090000012605490319461768112_);}
	.st2{fill:url(#SVGID_00000122688918243603824810000012557606381305577371_);}
	.st3{fill:url(#SVGID_00000083783978977684940720000007158128291348022443_);}
	.st4{fill:url(#SVGID_00000039120403249056008310000017044888197533728648_);}
	.st5{fill:url(#SVGID_00000061461795324306982530000011141592122704729512_);}
	.st6{fill:#FFFFFF;}
	.st7{fill:url(#SVGID_00000011749880459431163850000016040029089131676813_);}
	.st8{fill:url(#SVGID_00000156565804497717714720000006388182509790152626_);}
	.st9{fill:url(#SVGID_00000006695610270394352070000016167475248140371130_);}
	.st10{fill:url(#SVGID_00000091708541048981170760000015172632250580864910_);}
	.st11{fill:url(#SVGID_00000026148171625484109120000015900383170199721634_);}
	.st12{fill:url(#SVGID_00000021111643167254507450000005814268844657710746_);}
</style>
<linearGradient id="SVGID_1_" gradientUnits="userSpaceOnUse" x1="21.7717" y1="599.1237" x2="328.3031" y2="599.1237">
	<stop  offset="9.814226e-02" style="stop-color:#1E9CD7"/>
	<stop  offset="0.5132" style="stop-color:#0075BE"/>
	<stop  offset="1" style="stop-color:#005B97"/>
	<stop  offset="1" style="stop-color:#CCE0F4"/>
</linearGradient>
<path class="st0" d="M112.4,513.4c3.7,17.2,12.9,30.9,28.8,40.4c11,6.5,23.2,9.5,36.2,9.1c22.8-0.7,52-13.6,60.5-48.9
	c45.7-5.9,82,21.5,89.1,57.5c0.9,4.7,1.2,9.6,1.2,14.4c0.1,22.1,0,44.2,0.1,66.2c0,19-14.6,32.7-35.3,32.7c-66.3,0-132.5,0-198.8,0
	c-12.2,0-24.3,0.1-36.5,0C36.6,684.8,22,671.6,22,652.1c-0.1-25-0.8-50.1,0.7-75c2.2-35.2,36.5-63.7,74.7-63.7
	C102.3,513.4,107.1,513.4,112.4,513.4z"/>
<linearGradient id="SVGID_00000043455255745297503400000016162069942173839509_" gradientUnits="userSpaceOnUse" x1="103.75" y1="146.0183" x2="611.1815" y2="146.0183">
	<stop  offset="9.814226e-02" style="stop-color:#1E9CD7"/>
	<stop  offset="0.5132" style="stop-color:#0075BE"/>
	<stop  offset="1" style="stop-color:#005B97"/>
	<stop  offset="1" style="stop-color:#CCE0F4"/>
</linearGradient>
<path style="fill:url(#SVGID_00000043455255745297503400000016162069942173839509_);" d="M164.9,222.1c-28.4-4.9-47.9-19-57.3-43.9
	c-1.9-5-3.1-10.4-3.2-15.7c-0.3-25.2-1.3-50.4,0.1-75.5c2-34.5,32-59.6,69.6-59.7c76.2-0.1,152.4,0,228.6,0c45.9,0,91.7-0.1,137.6,0
	c34.6,0.1,62.5,21.1,69.3,52.1c0.7,3.2,1.2,6.5,1.2,9.8c0.1,23.8,0.8,47.6-0.1,71.4c-1.2,30.9-23.6,54.2-56.4,60.7
	c-1.3,0.2-2.5,0.4-3.4,0.6c0,5.8,0.8,11.6-0.1,17c-4,23.3-32,33.8-52.4,19.4c-15.3-10.8-30.1-22.2-45.3-33.1c-2.1-1.5-5.3-2.6-8-2.6
	c-58.4-0.1-116.8-0.2-175.3,0c-2.7,0-5.8,1.2-8,2.7c-14,10.1-27.9,20.4-41.8,30.6c-13.6,10-27.1,11.7-40,4.9
	c-12.6-6.6-18.5-19.6-15.8-34.8C164.4,224.7,164.7,223.5,164.9,222.1z M517.3,232.1c-2.5-10.9-5-20.8-7.1-30.7
	c-1.5-6.8,1.6-10.2,9.2-10.3c6.5-0.1,13.1,0,19.7,0c23.4-0.3,37.7-13.5,37.8-35c0.1-20.9,0.1-41.7,0-62.6c0-3.3-0.2-6.6-1-9.7
	c-4.1-15.5-17.9-24.9-36.5-24.9c-116.8,0-233.6,0-350.4,0c-5.4,0-10.9-0.1-16.3,0c-19.2,0.6-34.2,14.1-34.4,31.7
	c-0.3,22.9-0.3,45.9,0,68.8c0.2,16.8,14.2,30.2,32.3,31.4c8.4,0.5,16.8,0.2,25.3,0.4c7.2,0.2,10.2,3.6,9,10c-0.2,1.4-0.6,2.7-0.9,4
	c-2,8.6-4,17.3-6.3,27.1c16.8-12.3,32.5-23.6,47.9-35.4c5.5-4.3,11.2-6,18.3-5.9c63.8,0.2,127.7,0,191.5,0.3c3.6,0,7.7,1.5,10.6,3.5
	c15.6,11.1,30.8,22.5,46.2,33.8C513.4,229.5,514.9,230.5,517.3,232.1z"/>
<linearGradient id="SVGID_00000148627779427595249980000007205614613477394620_" gradientUnits="userSpaceOnUse" x1="397.7869" y1="598.2001" x2="692.688" y2="598.2001">
	<stop  offset="9.814226e-02" style="stop-color:#1E9CD7"/>
	<stop  offset="0.5132" style="stop-color:#0075BE"/>
	<stop  offset="1" style="stop-color:#005B97"/>
	<stop  offset="1" style="stop-color:#CCE0F4"/>
</linearGradient>
<path style="fill:url(#SVGID_00000148627779427595249980000007205614613477394620_);" d="M587.6,511.4c18.6,0,35.2,4.8,50.2,14.5
	c18.5,12,30.5,28.2,35.5,48.6c6.2,25.2,12.4,50.4,18.4,75.7c4.7,19.6-8.6,34.7-30.4,34.8C584,685,506.7,685,429.4,685
	c-22.2,0-35.4-15-30.6-35c6-25.2,12.1-50.5,18.3-75.7c8.3-33.7,39.6-59.2,76.8-62.6c2.8-0.3,5.6,0,8.9,0c0.9,4.4,1.8,8.9,2.8,13.4
	c0.8,3.5,1.7,7.1,2.8,10.5c7.4,23.7,27.1,29.6,51.2,23.9c10.2-2.4,16.7-9.3,20-18.2c3-7.9,4.7-16.3,6.9-24.5
	C586.9,515.2,587.2,513.5,587.6,511.4z"/>
<linearGradient id="SVGID_00000066487455933373912770000013522263099226272142_" gradientUnits="userSpaceOnUse" x1="398.1057" y1="400.1547" x2="693" y2="400.1547">
	<stop  offset="9.814226e-02" style="stop-color:#1E9CD7"/>
	<stop  offset="0.5132" style="stop-color:#0075BE"/>
	<stop  offset="1" style="stop-color:#005B97"/>
	<stop  offset="1" style="stop-color:#CCE0F4"/>
</linearGradient>
<path style="fill:url(#SVGID_00000066487455933373912770000013522263099226272142_);" d="M629.6,467.5c-0.7-7.4-10.1-10.5-15-4.8
	c-16.5,19.1-39.9,53.5-69.4,53.7c-39.7,0.2-66.7-42.3-84.5-75.2c0,1.7,0.1,3.4,0,5.1c-0.7,15.3-1,30.6-2.2,45.9
	c-0.4,4.8-2.7,9.7-5.1,14.1c-3.3,6-9.1,8.3-15.6,5.5c-16.8-7-30-17.4-36.7-32.7c-5.2-12-3.2-25.9,4.6-36.5
	c7.9-10.8,18.3-19.3,30.3-25.8c5.1-2.8,6.1-5.6,5.2-10.7c-3.9-24-2.3-47.5,9.6-69.7c19.6-36.6,66.3-58,111.4-51.3
	c46.3,6.9,81.3,39.4,87.5,81.1c2.1,14.3,1.8,28.6-0.8,42.7c-0.6,3,0.2,4.6,3.1,6.2c11.5,6.3,21.8,14,30.1,23.8
	c14.7,17.5,14.9,35.4-0.8,52.2c-6.7,7.2-15,13.5-23.7,18.7c-10.2,6.1-19.2,3.2-22.4-7.6c-3.3-11.2-4.5-23-5.6-34.6
	C629.6,467.7,629.6,467.6,629.6,467.5z M552.3,347.9c-3.4-4.9-10.8-4.8-14.2,0c-2.2,3.2-4.5,6.3-7.1,9.3
	c-12.6,14.4-29,24.3-47.4,31.2c-3.8,1.4-5,3.2-4.9,6.8c0.3,6.2,0,12.4,0.1,18.6c0.3,51,37.3,80.9,54.1,83.3
	c34.2,10.6,76.7-27.5,75.8-68c2.4-8.9,2.1-18.4,2.4-27.8c0.2-6.4-3.5-12.4-9.5-14.9c-16.1-6.8-30.6-15.9-41.9-28.8
	C557.1,354.5,554.6,351.2,552.3,347.9z"/>
<linearGradient id="SVGID_00000000216458389782597080000011543304737520081829_" gradientUnits="userSpaceOnUse" x1="75.587" y1="334.5252" x2="275.1736" y2="334.5252">
	<stop  offset="9.814226e-02" style="stop-color:#1E9CD7"/>
	<stop  offset="0.5132" style="stop-color:#0075BE"/>
	<stop  offset="1" style="stop-color:#005B97"/>
	<stop  offset="1" style="stop-color:#CCE0F4"/>
</linearGradient>
<path style="fill:url(#SVGID_00000000216458389782597080000011543304737520081829_);" d="M89.7,339.5c-6.3-15.4-2.7-23.6,14.3-30.1
	c7-2.7,14.5-4.3,23.4-6.8c-3.4-2.8-6.8-5.1-9.6-7.9c-1.3-1.3-2.4-3.9-1.8-5.2c0.6-1.4,3.3-2.5,5.2-2.7c19.1-1.8,39.3,1.1,65.7,9.3
	c0.5-1.2,1.1-2.4,1.6-3.7c3.1-8.9,3.4-9.6,12.9-7.3c9.6,2.4,19.3,5.5,28,9.9C239.7,300,245.5,309,248,321c2.2-3.1,3.8-5.4,5.6-7.6
	c2.8-3.4,6.3-3.9,8.8-0.6c12.1,15.7,17.8,31.5,7.4,50.2c-0.9,1.6-3.7,3.5-5.2,3.3c-11.6-1.7-22.7,1.1-33.9,2.7
	c-17.4,2.5-34.8,2.1-51.7-2.7c-7.1-2-13.7-5.4-20.3-8.5c-19.2-8.8-37.9-7.6-55,3.8c-6,4-9.8,11-14.5,16.7c-0.9,1.1-0.8,3.1-1.8,3.7
	c-2.4,1.5-5.4,3.4-7.9,3.1c-1.6-0.2-4-4.2-3.7-6.2c0.9-5.4,2.8-10.7,4.7-15.9c0.9-2.6,1.8-4.4-0.9-6.8c-3.4-2.9-2.2-6.5,0.7-9.2
	C83,344.3,86.5,342,89.7,339.5z"/>
<linearGradient id="SVGID_00000092458007653178800360000013206551183499914687_" gradientUnits="userSpaceOnUse" x1="82.7783" y1="442.5378" x2="267.2657" y2="442.5378">
	<stop  offset="9.814226e-02" style="stop-color:#1E9CD7"/>
	<stop  offset="0.5132" style="stop-color:#0075BE"/>
	<stop  offset="1" style="stop-color:#005B97"/>
	<stop  offset="1" style="stop-color:#CCE0F4"/>
</linearGradient>
<path style="fill:url(#SVGID_00000092458007653178800360000013206551183499914687_);" d="M244,382.7c8.1,0,15.4,0,22.6,0
	c0.3,0.5,0.7,0.8,0.7,1.1c-0.6,17.5,1.1,35.5-2.4,52.5c-8.6,41.8-50.2,68.8-98.1,66c-43.2-2.6-80.1-36.3-83.7-77
	c-0.7-7.5-0.1-15.1-0.1-23.2c9.8-1.3,17.6-5.8,22.7-14.5c0,9.2,0,18.5,0,27.7c0.1,35.4,25.8,61.9,63.7,65.7
	c36.1,3.7,71.6-22.8,74.4-56.2C244.9,411.2,244,397.5,244,382.7z"/>
<path class="st6" d="M517.3,232.1c-2.4-1.6-3.9-2.6-5.3-3.6c-15.4-11.3-30.6-22.7-46.2-33.8c-2.9-2-7-3.5-10.6-3.5
	c-63.8-0.2-127.7-0.1-191.5-0.3c-7.2,0-12.8,1.7-18.3,5.9c-15.3,11.8-31.1,23.1-47.9,35.4c2.3-9.9,4.3-18.5,6.3-27.1
	c0.3-1.3,0.7-2.7,0.9-4c1.2-6.5-1.8-9.8-9-10c-8.4-0.2-16.9,0.2-25.3-0.4c-18.1-1.1-32.1-14.5-32.3-31.4c-0.3-22.9-0.3-45.9,0-68.8
	c0.3-17.7,15.2-31.1,34.4-31.7c5.4-0.2,10.9,0,16.3,0c116.8,0,233.6,0,350.4,0c18.6,0,32.4,9.4,36.5,24.9c0.8,3.1,1,6.5,1,9.7
	c0.1,20.9,0.1,41.7,0,62.6c-0.1,21.5-14.4,34.7-37.8,35c-6.6,0.1-13.1-0.1-19.7,0c-7.6,0.1-10.6,3.5-9.2,10.3
	C512.3,211.3,514.7,221.2,517.3,232.1z M357.4,112.1c13.7,0,27.3,0,41,0c11.1,0,18.5-6.1,18.6-15.3c0.1-9.4-7.4-15.9-18.6-16
	c-27.3,0-54.7,0-82,0c-11.2,0-18.8,6.5-18.6,15.9c0.1,9.2,7.5,15.3,18.6,15.3C330,112.2,343.7,112.1,357.4,112.1z M357.9,137.4
	C357.9,137.4,357.9,137.4,357.9,137.4c-13.9,0-27.7,0-41.6,0.1c-11.4,0.1-18.7,6.3-18.6,15.8c0.1,9,7.7,15.4,18.7,15.4
	c27.3,0,54.7,0,82,0c10.9,0,18.5-6.3,18.6-15.4c0.1-9.4-7.3-15.8-18.6-15.8C384.9,137.3,371.4,137.4,357.9,137.4z M223.7,112.1
	c8.4,0,16.8,0.1,25.2,0c10.1-0.1,17.3-6.5,17.5-15.2c0.2-8.9-7.2-15.9-17.4-15.9c-16.8-0.1-33.6-0.1-50.5,0
	c-10.2,0.1-17.7,7-17.5,15.9c0.1,8.7,7.4,15.2,17.4,15.3C206.9,112.2,215.3,112.1,223.7,112.1z M490.5,112.1c4.3,0,8.6,0,12.9,0
	c4.3,0,8.6,0.1,12.9,0c10.3-0.2,17.6-6.8,17.5-15.8c-0.1-8.6-7.5-15.3-17.5-15.4c-16.8-0.1-33.6-0.1-50.4,0
	c-10.2,0.1-17.6,7-17.5,15.9c0.1,8.7,7.3,15.2,17.4,15.3C474.1,112.2,482.3,112.1,490.5,112.1z M491.2,137.4
	c-8.4,0-16.9-0.4-25.2,0.2c-4.2,0.3-8.9,1.8-12.1,4.2c-5.6,4.1-6.8,10.1-4.4,16.4c2.4,6.4,8.3,10.3,16.4,10.4
	c16.6,0.2,33.3,0.1,49.9,0c10.7,0,18.2-6.8,18.1-15.9c-0.1-8.9-7.5-15.3-18-15.4C507.6,137.3,499.4,137.4,491.2,137.4z M224.3,137.4
	c-8.6,0-17.2-0.1-25.8,0c-10.1,0.2-17.3,6.6-17.5,15.3c-0.1,8.9,7.3,15.8,17.5,15.9c16.8,0.1,33.6,0.1,50.4,0
	c9.9-0.1,17.3-6.8,17.4-15.4c0.1-9-7.1-15.6-17.5-15.8C240.7,137.3,232.5,137.4,224.3,137.4z"/>
<linearGradient id="SVGID_00000133520593952166172380000015189728230067822996_" gradientUnits="userSpaceOnUse" x1="297.8216" y1="96.5005" x2="417.0784" y2="96.5005">
	<stop  offset="9.814226e-02" style="stop-color:#1E9CD7"/>
	<stop  offset="0.5132" style="stop-color:#0075BE"/>
	<stop  offset="1" style="stop-color:#005B97"/>
	<stop  offset="1" style="stop-color:#CCE0F4"/>
</linearGradient>
<path style="fill:url(#SVGID_00000133520593952166172380000015189728230067822996_);" d="M357.4,112.1c-13.7,0-27.3,0-41,0
	c-11.1,0-18.5-6.2-18.6-15.3c-0.1-9.4,7.4-15.9,18.6-15.9c27.3,0,54.7,0,82,0c11.2,0,18.7,6.6,18.6,16c-0.1,9.1-7.5,15.2-18.6,15.3
	C384.8,112.2,371.1,112.1,357.4,112.1z"/>
<linearGradient id="SVGID_00000130640711688826937340000003562702763562155412_" gradientUnits="userSpaceOnUse" x1="297.814" y1="153.0365" x2="417.0806" y2="153.0365">
	<stop  offset="9.814226e-02" style="stop-color:#1E9CD7"/>
	<stop  offset="0.5132" style="stop-color:#0075BE"/>
	<stop  offset="1" style="stop-color:#005B97"/>
	<stop  offset="1" style="stop-color:#CCE0F4"/>
</linearGradient>
<path style="fill:url(#SVGID_00000130640711688826937340000003562702763562155412_);" d="M358,137.4c13.5,0,27,0,40.4,0
	c11.4,0.1,18.8,6.4,18.6,15.8c-0.1,9.1-7.7,15.4-18.6,15.4c-27.3,0-54.7,0-82,0c-10.9,0-18.6-6.4-18.7-15.4
	c-0.1-9.5,7.2-15.7,18.6-15.8C330.3,137.4,344.1,137.4,358,137.4C358,137.4,358,137.4,358,137.4z"/>
<linearGradient id="SVGID_00000128446500862354350400000000089276800303717788_" gradientUnits="userSpaceOnUse" x1="181.0556" y1="96.4914" x2="266.4587" y2="96.4914">
	<stop  offset="9.814226e-02" style="stop-color:#1E9CD7"/>
	<stop  offset="0.5132" style="stop-color:#0075BE"/>
	<stop  offset="1" style="stop-color:#005B97"/>
	<stop  offset="1" style="stop-color:#CCE0F4"/>
</linearGradient>
<path style="fill:url(#SVGID_00000128446500862354350400000000089276800303717788_);" d="M223.7,112.1c-8.4,0-16.8,0.1-25.2,0
	c-10.1-0.1-17.3-6.6-17.4-15.3c-0.1-8.9,7.3-15.8,17.5-15.9c16.8-0.1,33.6-0.1,50.5,0c10.2,0.1,17.6,7,17.4,15.9
	c-0.2,8.7-7.4,15.1-17.5,15.2C240.6,112.2,232.1,112.1,223.7,112.1z"/>
<linearGradient id="SVGID_00000146492187607706168860000017779121977026750100_" gradientUnits="userSpaceOnUse" x1="448.45" y1="96.4919" x2="533.8435" y2="96.4919">
	<stop  offset="9.814226e-02" style="stop-color:#1E9CD7"/>
	<stop  offset="0.5132" style="stop-color:#0075BE"/>
	<stop  offset="1" style="stop-color:#005B97"/>
	<stop  offset="1" style="stop-color:#CCE0F4"/>
</linearGradient>
<path style="fill:url(#SVGID_00000146492187607706168860000017779121977026750100_);" d="M490.6,112.1c-8.2,0-16.4,0.1-24.7,0
	c-10.1-0.1-17.3-6.6-17.4-15.3c-0.1-8.9,7.3-15.8,17.5-15.9c16.8-0.1,33.6-0.1,50.4,0c10,0.1,17.4,6.8,17.5,15.4
	c0.1,9-7.2,15.6-17.5,15.8c-4.3,0.1-8.6,0-12.9,0S494.8,112.1,490.6,112.1z"/>
<linearGradient id="SVGID_00000142146842476962729310000004700263610940666552_" gradientUnits="userSpaceOnUse" x1="448.3203" y1="152.9825" x2="533.8411" y2="152.9825">
	<stop  offset="9.814226e-02" style="stop-color:#1E9CD7"/>
	<stop  offset="0.5132" style="stop-color:#0075BE"/>
	<stop  offset="1" style="stop-color:#005B97"/>
	<stop  offset="1" style="stop-color:#CCE0F4"/>
</linearGradient>
<path style="fill:url(#SVGID_00000142146842476962729310000004700263610940666552_);" d="M491.2,137.4c8.2,0,16.4-0.1,24.7,0
	c10.5,0.1,17.9,6.5,18,15.4c0.1,9.1-7.5,15.8-18.1,15.9c-16.6,0.1-33.3,0.1-49.9,0c-8.1-0.1-14-4-16.4-10.4
	c-2.3-6.3-1.2-12.3,4.4-16.4c3.2-2.4,7.9-3.9,12.1-4.2C474.3,137,482.8,137.4,491.2,137.4z"/>
<linearGradient id="SVGID_00000143576524693031064030000003576796883956105604_" gradientUnits="userSpaceOnUse" x1="181.0677" y1="153.0508" x2="266.4604" y2="153.0508">
	<stop  offset="9.814226e-02" style="stop-color:#1E9CD7"/>
	<stop  offset="0.5132" style="stop-color:#0075BE"/>
	<stop  offset="1" style="stop-color:#005B97"/>
	<stop  offset="1" style="stop-color:#CCE0F4"/>
</linearGradient>
<path style="fill:url(#SVGID_00000143576524693031064030000003576796883956105604_);" d="M224.3,137.4c8.2,0,16.4-0.1,24.7,0
	c10.4,0.2,17.6,6.8,17.5,15.8c-0.1,8.6-7.5,15.3-17.4,15.4c-16.8,0.1-33.6,0.1-50.4,0c-10.2-0.1-17.6-7-17.5-15.9
	c0.1-8.7,7.3-15.2,17.5-15.3C207.1,137.3,215.7,137.4,224.3,137.4z"/>
</svg>
