<?xml version="1.0" encoding="utf-8"?>
<!-- Generator: Adobe Illustrator 26.0.1, SVG Export Plug-In . SVG Version: 6.00 Build 0)  -->
<svg version="1.1" id="Layer_1" xmlns="http://www.w3.org/2000/svg" xmlns:xlink="http://www.w3.org/1999/xlink" x="0px" y="0px"
	 viewBox="0 0 720 720" style="enable-background:new 0 0 720 720;" xml:space="preserve">
<style type="text/css">
	.st0{fill:url(#SVGID_1_);}
	.st1{fill:#FFFFFF;}
	.st2{fill:url(#SVGID_00000129174135396442485310000003984995900738819254_);}
</style>
<linearGradient id="SVGID_1_" gradientUnits="userSpaceOnUse" x1="53.588" y1="356.0977" x2="644.6074" y2="356.0977">
	<stop  offset="8.696908e-02" style="stop-color:#1E9CD7"/>
	<stop  offset="0.3847" style="stop-color:#0075BE"/>
	<stop  offset="0.9944" style="stop-color:#005B97"/>
	<stop  offset="1" style="stop-color:#CCE0F4"/>
</linearGradient>
<path class="st0" d="M352.6,18c32.9,11.2,65.8,22.7,98.8,33.7c63.7,21.1,127.4,41.9,192.1,63.1c0.3,4,0.9,8.4,0.9,12.8
	c0.1,96.8,0.2,193.6,0,290.4c-0.1,47.3-23.1,84.2-55,116.7c-67.1,68.4-152,110.5-233.4,157.8c-4.5,2.6-13.5,2.3-18-0.6
	c-67-42-135.5-82.1-199.6-128.2C98.7,535,65.4,497,55.9,445.1c-1.4-7.7-2-15.7-2-23.6c-0.1-97.4,0.1-194.7-0.3-292.1
	c-0.1-11.6,3.4-16.1,14.7-19.7C146.7,84.7,224.7,58.7,302.8,33c14.4-4.7,28.7-10,43-15C348.1,18,350.3,18,352.6,18z M624.2,284.3
	c0-48.1,0-96.2,0-144.4c0-7.5,0.5-13.5-9.4-16.8c-81.4-26.4-162.6-53.8-244-80.2c-10.7-3.5-24-6.4-34-3.2
	c-83.7,26.6-167,54.8-250.4,82.2c-8.8,2.9-12.4,6.9-12.3,16.7c0.4,95.1-0.4,190.2,0.9,285.3c0.2,18.1,4.7,37.7,12.9,53.7
	c17.1,33.2,43.1,60.7,73.7,81.4c57.6,38.9,117,75.1,176,111.8c4.6,2.9,13.4,3.6,18.1,1.2c22.9-11.9,45.9-23.9,67.2-38.3
	c47.3-32,95.5-63.1,139.6-99.2c36.9-30.2,63.5-69.1,62-121.2C623.2,370.4,624.2,327.4,624.2,284.3z"/>
<path class="st1" d="M624.2,284.3c0,43-0.9,86.1,0.2,129.1c1.4,52.2-25.1,91-62,121.2c-44.1,36.1-92.3,67.2-139.6,99.2
	c-21.3,14.4-44.3,26.4-67.2,38.3c-4.7,2.4-13.4,1.7-18.1-1.2c-59-36.7-118.5-72.9-176-111.8c-30.6-20.7-56.6-48.2-73.7-81.4
	c-8.2-16-12.7-35.6-12.9-53.7C73.6,329,74.4,233.9,74,138.8c0-9.8,3.6-13.8,12.3-16.7C169.8,94.6,253,66.4,336.7,39.8
	c10.1-3.2,23.3-0.3,34,3.2c81.5,26.4,162.6,53.7,244,80.2c9.9,3.2,9.4,9.3,9.4,16.8C624.1,188.1,624.2,236.2,624.2,284.3z
	 M94.6,288.3c0,43.6-1.9,87.3,0.8,130.7c1.3,21.8,5.5,47.4,18.1,63.7c22.2,28.8,49.4,55.3,79,76.5c45,32.3,93.8,59.3,140.8,88.8
	c9.8,6.1,17.9,9.9,28.4,0.5c6.9-6.3,16.2-10,24.5-14.7c61.8-35.4,123.8-70.4,174.1-122.4c26.7-27.5,44.4-57.8,43.9-98
	c-1-81.5-0.3-163-0.3-244.5c0-29.3,0.2-30.1-26.9-39.1c-73.7-24.7-147.5-48.8-221.5-72.7c-5-1.6-11.4-1.4-16.4,0.2
	c-77.1,25.1-154,50.8-231.2,75.9c-10.2,3.3-13.8,8.2-13.6,19.2C95,197.7,94.6,243,94.6,288.3z"/>
<linearGradient id="SVGID_00000100359613022422462890000008537069489753404863_" gradientUnits="userSpaceOnUse" x1="93.945" y1="355.1301" x2="604.1308" y2="355.1301">
	<stop  offset="8.696908e-02" style="stop-color:#1E9CD7"/>
	<stop  offset="0.3847" style="stop-color:#0075BE"/>
	<stop  offset="0.9944" style="stop-color:#005B97"/>
	<stop  offset="1" style="stop-color:#CCE0F4"/>
</linearGradient>
<path style="fill:url(#SVGID_00000100359613022422462890000008537069489753404863_);" d="M94.6,288.3c0-45.3,0.4-90.5-0.3-135.8
	c-0.2-11,3.4-15.9,13.6-19.2c77.1-25.1,154.1-50.8,231.2-75.9c5-1.6,11.4-1.8,16.4-0.2c73.9,23.9,147.8,48,221.5,72.7
	c27.1,9.1,26.9,9.8,26.9,39.1c0,81.5-0.7,163,0.3,244.5c0.5,40.2-17.3,70.5-43.9,98c-50.3,51.9-112.3,86.9-174.1,122.4
	c-8.3,4.7-17.5,8.4-24.5,14.7c-10.4,9.4-18.6,5.6-28.4-0.5c-47-29.6-95.8-56.5-140.8-88.8c-29.6-21.3-56.8-47.7-79-76.5
	c-12.6-16.4-16.8-41.9-18.1-63.7C92.7,375.5,94.6,331.8,94.6,288.3z M315.8,375.5c-28.3-24.4-55.3-47.6-82.4-70.9
	c-15.6,13.5-29.4,25.4-43,37.1c42.1,36.5,83.4,72.3,125.6,108.9c73.3-63.7,146-127,219.8-191.2c-13.1-11.5-24.2-20.2-33.9-30.2
	c-7-7.3-12.3-5.4-18.4,0c-36.1,31.8-72.2,63.7-108.5,95.4C355.7,341.6,336,358.1,315.8,375.5z"/>
<path class="st1" d="M315.8,375.5c20.2-17.3,39.9-33.9,59.2-50.8c36.2-31.7,72.3-63.6,108.5-95.4c6.1-5.4,11.4-7.3,18.4,0
	c9.7,10,20.8,18.6,33.9,30.2C462,323.6,389.3,386.8,316,450.6c-42.2-36.6-83.6-72.4-125.6-108.9c13.6-11.7,27.4-23.7,43-37.1
	C260.5,327.8,287.5,351.1,315.8,375.5z"/>
</svg>
