<?xml version="1.0" encoding="utf-8"?>
<!-- Generator: Adobe Illustrator 26.0.1, SVG Export Plug-In . SVG Version: 6.00 Build 0)  -->
<svg version="1.1" id="Layer_1" xmlns="http://www.w3.org/2000/svg" xmlns:xlink="http://www.w3.org/1999/xlink" x="0px" y="0px"
	 viewBox="0 0 720 720" style="enable-background:new 0 0 720 720;" xml:space="preserve">
<style type="text/css">
	.st0{fill:url(#SVGID_1_);}
	.st1{fill:url(#SVGID_00000127736381248554514470000018013297275401880750_);}
	.st2{fill:url(#SVGID_00000136412762257249407380000006828124669515166595_);}
	.st3{fill:url(#SVGID_00000122697231789663376290000011028774666672884409_);}
	.st4{fill:url(#SVGID_00000029047801057044610060000005815693178616654230_);}
	.st5{fill:url(#SVGID_00000155121603238456770650000011239582702464443781_);}
	.st6{fill:url(#SVGID_00000091698542675589005080000004638615434730259340_);}
	.st7{fill:url(#SVGID_00000070830862880791833360000009292807958274813591_);}
	.st8{fill:url(#SVGID_00000142150260142379129580000016567431003006862755_);}
	.st9{fill:url(#SVGID_00000037686306852476533380000004513097801957170308_);}
</style>
<linearGradient id="SVGID_1_" gradientUnits="userSpaceOnUse" x1="50.2023" y1="370.0616" x2="698" y2="370.0616">
	<stop  offset="7.745851e-02" style="stop-color:#0075BE"/>
	<stop  offset="0.3659" style="stop-color:#0A83C7"/>
	<stop  offset="0.5674" style="stop-color:#1E9CD7"/>
	<stop  offset="0.8352" style="stop-color:#0880C5"/>
	<stop  offset="0.9944" style="stop-color:#005B97"/>
	<stop  offset="1" style="stop-color:#CCE0F4"/>
	<stop  offset="1" style="stop-color:#C7DEF3"/>
</linearGradient>
<path class="st0" d="M698,518.1c0,23.6,0,47.2,0,70.9c-3.1,5.9-7.8,8.3-14.5,7.8c-4-0.3-8-0.3-12,0.1c-1.5,0.1-3.4,1.4-4.1,2.7
	c-0.5,0.9,0.5,3.1,1.4,4.1c3.2,3.6,6.9,6.8,10.2,10.4c5.3,5.8,5.4,11.2-0.1,16.7c-14.6,14.9-29.3,29.6-44.2,44.2
	c-5.6,5.5-10.9,5.3-16.7,0.1c-3.7-3.4-7.1-7.2-10.8-10.6c-0.9-0.8-2.8-1.4-3.7-1c-1.2,0.6-2.5,2.2-2.6,3.5
	c-0.3,4.2-0.4,8.4-0.1,12.6c0.5,6.6-1.9,11.4-7.8,14.5c-23.6,0-47.2,0-70.8,0c-6.1-3.3-8.3-8.5-7.7-15.2c0.3-3.3,0.3-6.8,0-10.1
	c-0.2-1.8-1-4.4-2.2-5c-1.2-0.6-3.7,0.6-5.1,1.7c-3.3,2.9-6.2,6.3-9.5,9.3c-6,5.6-11.4,5.8-17.2,0.1c-14.7-14.5-29.3-29.1-43.8-43.8
	c-5.7-5.8-5.5-11.2,0-17.2c3.1-3.4,6.7-6.5,9.7-9.9c1-1.2,1.9-3.5,1.4-4.6c-0.5-1.2-2.8-2.1-4.3-2.3c-3.6-0.3-7.2-0.3-10.7-0.1
	c-7.9,0.6-13.7-1.8-15.6-10.6c-2.8,0-5.3,0-7.8,0c-72.5,0-145,0-217.6,0c-3.8,0-7.6-0.3-11.3-0.7c-16.1-1.9-29.2-14.2-32.2-30.3
	c-2.9-15.3,4.8-31.5,18.1-39.4c10.1-5.9,21-5.4,32-5c4.7,0.2,7-1.4,9.2-5.5c11.3-21.4,22.9-42.7,34.4-64c1-1.8,1.8-3.7,3.1-6.3
	c-3.1,0-5.4,0-7.6,0c-43.6,0-87.3,0.1-130.9,0c-32.8-0.1-55.9-23.1-55.9-55.7c-0.2-92.4-0.2-184.7,0-277.1
	c0.1-32.3,23.2-55.7,55.4-55.7c164.4-0.1,328.9-0.1,493.3,0.2c8.4,0,17.4,1.9,25,5.5c21.7,10.3,30.9,28.7,30.9,52.2
	c0,89.6-0.2,179.2,0.2,268.8c0.1,23.4-7.2,42-27.6,54.6c2.6,1.7,5.4,2.9,7.5,4.9c14.7,14.5,29.4,29.1,43.8,43.8
	c5.7,5.8,5.5,11.2-0.1,17.2c-3,3.2-6.4,6.1-9.3,9.5c-1.1,1.3-2.3,3.9-1.7,5.1c0.6,1.3,3.2,2,5,2.2c3.3,0.3,6.8,0.3,10.1,0
	C689.5,509.8,694.7,512,698,518.1z M633.3,326.7c0-2.6,0-4.5,0-6.4c0-72.1,0-144.2,0-216.3c0-23.1-13.3-36.3-36.7-36.3
	c-162.7,0-325.4,0-488.2,0c-23.6,0-36.6,13.1-36.7,36.9c0,71.7,0,143.4,0,215c0,2.2,0,4.5,0,7C259.2,326.7,445.9,326.7,633.3,326.7z
	 M71.8,348.7c0,4.8,0,9,0,13.2c0,5.3,0,10.5,0,15.8c0.1,22.2,13.3,35.5,35.4,35.5c163.6,0,327.2,0,490.7,0c1.7,0,3.4,0,5.1-0.1
	c13.7-1.3,23.5-8.3,28-21.2c4.8-14,1.6-28.6,2.3-43.1C445.8,348.7,259.2,348.7,71.8,348.7z M535.5,434.9c2,13.6,0.6,23.1-14.7,29.8
	c-15.9,7-23.3-0.6-30.9-9.3c-10.5,10.5-20.4,20.4-30.6,30.7c9.5,7.7,15.7,15.1,9.4,30.8c-6.5,16.2-17.2,15.7-29.6,15.2
	c0,14.8,0,28.6,0,43.3c13.2-1.4,22.9-0.3,29.6,15c6.9,16-0.5,23.3-10.7,32.1c5.7,5.5,10.8,10.2,15.7,15.1c5,5,9.8,10.2,15.2,15.9
	c9-10.8,16.3-17.5,32.1-10.9c15.8,6.6,15.9,17,15.1,29.9c8,0,14.9,0,21.9,0c6.9,0,13.8,0,21.7,0c-1.8-13.7-0.5-23.2,14.8-29.9
	c16-7,23.3,0.5,30.9,9.4c10.5-10.5,20.3-20.5,30.8-31c-15.4-8.4-14.1-20.1-7.5-35.2c6.2-14.2,17.5-9.2,27.4-11c0-14.2,0-28.2,0-43
	c-13.2,1.4-22.8,0.4-29.5-14.9c-7-16,0.8-23.3,9.3-30.9c-10.5-10.5-20.5-20.3-30.8-30.6c-7.6,9.6-15.1,15.7-30.7,9.4
	c-16-6.5-15.8-17.1-15.3-29.7C564.4,434.9,550.7,434.9,535.5,434.9z M453.5,460.4c-5.3-7.8-10.1-14.5-14.4-21.4
	c-2-3.3-4.4-4.3-8.2-4.3c-51.8,0.1-103.7,0.1-155.5,0c-4.1,0-6.4,1-8.4,4.8c-11.6,22-23.5,43.8-35.2,65.6c-0.8,1.5-1.4,3.2-2.4,5.4
	c1.9,0,3,0,4,0c69.5,0,139.1,0,208.6,0c0.6,0,1.3,0.2,1.9,0c1.4-0.6,3.5-1.1,3.8-2.1c0.4-1.4-0.2-3.5-1.2-4.7
	c-2.9-3.3-6.2-6.3-9.3-9.5c-6.3-6.7-6.4-12,0.2-18.6C442.5,470.4,448,465.5,453.5,460.4z M417,532c-2.4,0-4.1,0-5.7,0
	c-74.4,0-148.8,0-223.2,0c-1.5,0-3-0.1-4.4,0.1c-8.9,1-15.5,9.5-14.4,18.3c1.1,8.5,8.4,14,18.9,14c74.6,0,149.2,0,223.8,0
	c1.6,0,3.2-0.3,4.9-0.5C417,553.3,417,543,417,532z M618.1,434.2c-0.5-0.5-1-1.1-1.6-1.6c-5.2,0.9-10.4,1.9-15.6,2.8
	c-0.1,1.5-0.4,2.6-0.1,3.5c0.6,1.8,1.2,4.3,2.4,4.8c1.3,0.5,3.6-0.8,5-1.8C611.7,439.4,614.9,436.7,618.1,434.2z M516,435.1
	c-6.3,0-10.3,0-14.3,0c-0.3,0.5-0.5,1-0.8,1.5c3.6,2.5,7.2,5,10.9,7.5C513,441.5,514.2,438.8,516,435.1z M462.5,435.1
	c2.3,3.5,4.1,6,5.6,8.3c3-2.9,5.7-5.3,8.8-8.3C472.1,435.1,467.9,435.1,462.5,435.1z"/>
<linearGradient id="SVGID_00000090285013917343996640000014637142952111179425_" gradientUnits="userSpaceOnUse" x1="50.2835" y1="650.8793" x2="201.2108" y2="650.8793">
	<stop  offset="7.745851e-02" style="stop-color:#0075BE"/>
	<stop  offset="0.3659" style="stop-color:#0A83C7"/>
	<stop  offset="0.5674" style="stop-color:#1E9CD7"/>
	<stop  offset="0.8352" style="stop-color:#0880C5"/>
	<stop  offset="0.9944" style="stop-color:#005B97"/>
	<stop  offset="1" style="stop-color:#CCE0F4"/>
	<stop  offset="1" style="stop-color:#C7DEF3"/>
</linearGradient>
<path style="fill:url(#SVGID_00000090285013917343996640000014637142952111179425_);" d="M57.9,694c-6.4-3.5-7.9-9-7.5-15.9
	c2.6-39.5,36.3-70.8,76.3-70.3c39.9,0.5,72.5,31.9,74.5,71.4c0.3,6.8-1.3,12-7.9,14.9C148.1,694,103,694,57.9,694z M177.8,672.3
	c-1.2-18.6-21.3-38.8-41.4-41.1c0,6.4,0,12.8,0,19.2c-7.5,0-14.3,0-21.6,0c0-6.7,0-13,0-19.3c-20.4,3.1-38.9,21.8-41.1,41.2
	C108.2,672.3,142.7,672.3,177.8,672.3z"/>
<linearGradient id="SVGID_00000064345958248677712630000001342146973964262025_" gradientUnits="userSpaceOnUse" x1="462.5383" y1="435.0955" x2="476.9138" y2="435.0955">
	<stop  offset="7.745851e-02" style="stop-color:#0075BE"/>
	<stop  offset="0.3659" style="stop-color:#0A83C7"/>
	<stop  offset="0.5674" style="stop-color:#1E9CD7"/>
	<stop  offset="0.8352" style="stop-color:#0880C5"/>
	<stop  offset="0.9944" style="stop-color:#005B97"/>
	<stop  offset="1" style="stop-color:#CCE0F4"/>
	<stop  offset="1" style="stop-color:#C7DEF3"/>
</linearGradient>
<path style="fill:url(#SVGID_00000064345958248677712630000001342146973964262025_);" d="M462.5,435.1c5.3,0,9.6,0,14.4,0"/>
<linearGradient id="SVGID_00000171679351839051769280000015459126648477384581_" gradientUnits="userSpaceOnUse" x1="278.1098" y1="186.5442" x2="394.5136" y2="186.5442">
	<stop  offset="7.745851e-02" style="stop-color:#0075BE"/>
	<stop  offset="0.3659" style="stop-color:#0A83C7"/>
	<stop  offset="0.5674" style="stop-color:#1E9CD7"/>
	<stop  offset="0.8352" style="stop-color:#0880C5"/>
	<stop  offset="0.9944" style="stop-color:#005B97"/>
	<stop  offset="1" style="stop-color:#CCE0F4"/>
	<stop  offset="1" style="stop-color:#C7DEF3"/>
</linearGradient>
<path style="fill:url(#SVGID_00000171679351839051769280000015459126648477384581_);" d="M375.2,84.6c6.9,3.4,12.8,6.4,19.3,9.7
	C362.1,159,330,223.3,297.4,288.5c-6.5-3.3-12.8-6.4-19.3-9.6C310.6,213.9,342.8,149.6,375.2,84.6z"/>
<linearGradient id="SVGID_00000005244289290667762560000010313319124691558301_" gradientUnits="userSpaceOnUse" x1="168.9674" y1="197.4271" x2="262.9321" y2="197.4271">
	<stop  offset="7.745851e-02" style="stop-color:#0075BE"/>
	<stop  offset="0.3659" style="stop-color:#0A83C7"/>
	<stop  offset="0.5674" style="stop-color:#1E9CD7"/>
	<stop  offset="0.8352" style="stop-color:#0880C5"/>
	<stop  offset="0.9944" style="stop-color:#005B97"/>
	<stop  offset="1" style="stop-color:#CCE0F4"/>
	<stop  offset="1" style="stop-color:#C7DEF3"/>
</linearGradient>
<path style="fill:url(#SVGID_00000005244289290667762560000010313319124691558301_);" d="M247.8,114.3c5.1,5.1,9.9,9.9,14.8,14.8
	c-22.5,22.5-45,44.9-67.8,67.7c23.1,23,45.6,45.4,68.1,67.9c-5.4,5.4-10.3,10.3-15.7,15.8c-3.4-3.5-6.6-7.1-10-10.5
	c-20.5-20.6-41.1-41.1-61.7-61.7c-8.7-8.7-8.7-13.2-0.2-21.8c22.6-22.7,45.3-45.3,67.9-68C244.7,117.1,246.3,115.8,247.8,114.3z"/>
<linearGradient id="SVGID_00000168114520802133171690000017938225727622219144_" gradientUnits="userSpaceOnUse" x1="410.2794" y1="197.5626" x2="503.6767" y2="197.5626">
	<stop  offset="7.745851e-02" style="stop-color:#0075BE"/>
	<stop  offset="0.3659" style="stop-color:#0A83C7"/>
	<stop  offset="0.5674" style="stop-color:#1E9CD7"/>
	<stop  offset="0.8352" style="stop-color:#0880C5"/>
	<stop  offset="0.9944" style="stop-color:#005B97"/>
	<stop  offset="1" style="stop-color:#CCE0F4"/>
	<stop  offset="1" style="stop-color:#C7DEF3"/>
</linearGradient>
<path style="fill:url(#SVGID_00000168114520802133171690000017938225727622219144_);" d="M478.6,198.3
	c-12.6-12.6-23.7-23.8-34.9-34.9c-11.2-11.2-22.4-22.3-33.5-33.4c5.3-5,10.2-9.7,15.6-14.8c0.5,0.4,1.9,1.6,3.1,2.9
	c22.8,22.8,45.6,45.6,68.4,68.4c8.3,8.3,8.4,13.2,0.3,21.3c-22.9,23-45.9,45.9-68.8,68.8c-1.2,1.2-2.4,2.2-3.4,3.2
	c-4.9-5-9.5-9.8-13.9-14.3C433.3,243.8,455.7,221.3,478.6,198.3z"/>
<linearGradient id="SVGID_00000078744479029011188620000004291165087362357158_" gradientUnits="userSpaceOnUse" x1="471.8146" y1="272.8687" x2="492.5559" y2="272.8687">
	<stop  offset="7.745851e-02" style="stop-color:#0075BE"/>
	<stop  offset="0.3659" style="stop-color:#0A83C7"/>
	<stop  offset="0.5674" style="stop-color:#1E9CD7"/>
	<stop  offset="0.8352" style="stop-color:#0880C5"/>
	<stop  offset="0.9944" style="stop-color:#005B97"/>
	<stop  offset="1" style="stop-color:#CCE0F4"/>
	<stop  offset="1" style="stop-color:#C7DEF3"/>
</linearGradient>
<path style="fill:url(#SVGID_00000078744479029011188620000004291165087362357158_);" d="M471.8,262.5c7,0,13.7,0,20.7,0
	c0,6.9,0,13.6,0,20.8c-6.7,0-13.5,0-20.7,0C471.8,276.5,471.8,269.9,471.8,262.5z"/>
<linearGradient id="SVGID_00000153694669097561980960000015111702727191674781_" gradientUnits="userSpaceOnUse" x1="514.9938" y1="273.0358" x2="535.72" y2="273.0358">
	<stop  offset="7.745851e-02" style="stop-color:#0075BE"/>
	<stop  offset="0.3659" style="stop-color:#0A83C7"/>
	<stop  offset="0.5674" style="stop-color:#1E9CD7"/>
	<stop  offset="0.8352" style="stop-color:#0880C5"/>
	<stop  offset="0.9944" style="stop-color:#005B97"/>
	<stop  offset="1" style="stop-color:#CCE0F4"/>
	<stop  offset="1" style="stop-color:#C7DEF3"/>
</linearGradient>
<path style="fill:url(#SVGID_00000153694669097561980960000015111702727191674781_);" d="M535.7,283.5c-7,0-13.6,0-20.7,0
	c0-6.9,0-13.7,0-20.9c6.8,0,13.6,0,20.7,0C535.7,269.4,535.7,276.1,535.7,283.5z"/>
<linearGradient id="SVGID_00000032606747951881810320000005506930268487620015_" gradientUnits="userSpaceOnUse" x1="558.1643" y1="273.0432" x2="578.8657" y2="273.0432">
	<stop  offset="7.745851e-02" style="stop-color:#0075BE"/>
	<stop  offset="0.3659" style="stop-color:#0A83C7"/>
	<stop  offset="0.5674" style="stop-color:#1E9CD7"/>
	<stop  offset="0.8352" style="stop-color:#0880C5"/>
	<stop  offset="0.9944" style="stop-color:#005B97"/>
	<stop  offset="1" style="stop-color:#CCE0F4"/>
	<stop  offset="1" style="stop-color:#C7DEF3"/>
</linearGradient>
<path style="fill:url(#SVGID_00000032606747951881810320000005506930268487620015_);" d="M578.9,262.7c0,7.1,0,13.7,0,20.7
	c-6.9,0-13.5,0-20.7,0c0-6.7,0-13.5,0-20.7C564.8,262.7,571.6,262.7,578.9,262.7z"/>
<linearGradient id="SVGID_00000005268334258539246790000013196709831977351579_" gradientUnits="userSpaceOnUse" x1="492.9892" y1="553.6168" x2="622.294" y2="553.6168">
	<stop  offset="7.745851e-02" style="stop-color:#0075BE"/>
	<stop  offset="0.3659" style="stop-color:#0A83C7"/>
	<stop  offset="0.5674" style="stop-color:#1E9CD7"/>
	<stop  offset="0.8352" style="stop-color:#0880C5"/>
	<stop  offset="0.9944" style="stop-color:#005B97"/>
	<stop  offset="1" style="stop-color:#CCE0F4"/>
	<stop  offset="1" style="stop-color:#C7DEF3"/>
</linearGradient>
<path style="fill:url(#SVGID_00000005268334258539246790000013196709831977351579_);" d="M622.3,553.6c0,35.7-29.1,64.7-64.8,64.6
	c-35.6-0.1-64.6-29.3-64.5-65c0.1-35.2,29.3-64.3,64.5-64.4C593.1,488.9,622.3,518,622.3,553.6z M600.7,553.9
	c0.2-23.7-19.1-43.2-42.7-43.4c-23.5-0.2-43.2,19.2-43.4,42.8c-0.2,23.6,19.1,43.2,42.8,43.3C581.1,596.8,600.5,577.7,600.7,553.9z"
	/>
</svg>
