<?xml version="1.0" encoding="utf-8"?>
<!-- Generator: Adobe Illustrator 26.0.1, SVG Export Plug-In . SVG Version: 6.00 Build 0)  -->
<svg version="1.1" id="Layer_1" xmlns="http://www.w3.org/2000/svg" xmlns:xlink="http://www.w3.org/1999/xlink" x="0px" y="0px"
	 viewBox="0 0 720 720" style="enable-background:new 0 0 720 720;" xml:space="preserve">
<style type="text/css">
	.st0{fill:url(#SVGID_1_);}
	.st1{fill:url(#SVGID_00000100355139558787809010000005363551551024402561_);}
	.st2{fill:url(#SVGID_00000076581602385674725470000006609762511314529179_);}
	.st3{fill:url(#SVGID_00000041266887168164954340000003642903682989940647_);}
	.st4{fill:url(#SVGID_00000000200778375003061190000013022331939185228479_);}
	.st5{fill:url(#SVGID_00000148660531168489280500000004112429514315361950_);}
</style>
<linearGradient id="SVGID_1_" gradientUnits="userSpaceOnUse" x1="233.2558" y1="339.547" x2="486.4137" y2="339.547">
	<stop  offset="0.1428" style="stop-color:#1E9CD7"/>
	<stop  offset="0.405" style="stop-color:#0E87C9"/>
	<stop  offset="0.6194" style="stop-color:#0075BE"/>
	<stop  offset="1" style="stop-color:#005B97"/>
	<stop  offset="1" style="stop-color:#CCE0F4"/>
</linearGradient>
<path class="st0" d="M469.1,289.4c-0.9,6.8-1.6,14.2-2.8,21.5c-0.6,3.5,0.4,5.4,3.7,6.3c0.3,0.1,0.5,0.2,0.8,0.2
	c13.9,4.2,15.7,6.8,15.6,21.2c-0.1,13.4-3.6,26.1-8.4,38.4c-3,7.7-9,12.1-17.3,12.7c-4.6,0.3-6.7,2.6-7.8,6.8
	c-10.4,40.6-36.6,67.7-73.4,85.5c-12.8,6.2-26.1,6.2-38.7,0.2c-37.2-17.5-63.4-44.8-74-85.5c-1-4-3-6.4-7.1-7.3
	c-9.3-2-15.1-7.9-18.7-16.6c-4.9-11.8-7.8-24-7.7-36.9c0.1-11.6,3.2-15.7,14.3-18.4c3.8-0.9,4.4-3.1,4.4-6.4
	c-0.2-12.1-1.1-24.2,0.1-36.2c1-10.3,3.6-20.8,7.3-30.5c7.8-20.5,24.3-30.4,45.2-34c5.1-0.9,10.3-1.3,15.5-1.7
	c4.4-0.3,7.7-2.1,9-6.3c2.1-7.2,7.7-10.3,14.2-10.4c9.6-0.2,19.4,0.3,28.9,1.6c23.3,3.3,45,11.1,63.2,26.6
	c16.1,13.7,28.2,30.1,32,51.5C468.1,277.5,468.4,283.2,469.1,289.4z"/>
<linearGradient id="SVGID_00000115499859943180931350000008223898968750313359_" gradientUnits="userSpaceOnUse" x1="149.1085" y1="580.4597" x2="570.8017" y2="580.4597">
	<stop  offset="0.1428" style="stop-color:#1E9CD7"/>
	<stop  offset="0.405" style="stop-color:#0E87C9"/>
	<stop  offset="0.6194" style="stop-color:#0075BE"/>
	<stop  offset="1" style="stop-color:#005B97"/>
	<stop  offset="1" style="stop-color:#CCE0F4"/>
</linearGradient>
<path style="fill:url(#SVGID_00000115499859943180931350000008223898968750313359_);" d="M311.3,619.1c1.5-2,2.5-2.9,3.1-4
	c8.4-14.3,16.8-28.6,25.2-42.9c3.2-5.5,3.1-6.6-1.8-10.7c-8.7-7.1-13.6-16.2-14.9-27.4c-1.2-9.6,2.3-16.8,11-21.2
	c16.5-8.5,33.4-9.1,50.3-1.1c10.5,4.9,14.4,12.9,12.3,24.5c-1.9,10.3-7.1,18.5-14.7,25.4c-5.2,4.7-5.2,5.3-1.6,11.3
	c8.3,13.8,16.6,27.7,24.9,41.5c0.8,1.3,1.7,2.4,3.1,4.5c0.9-2.2,1.5-3.6,2-4.9c10.7-29.3,21.3-58.6,32-87.9c0.5-1.3,0.9-2.7,1.4-4
	c2-4.8,4-6,8.8-4.2c24.6,8.8,49.3,17.3,73.6,26.8c18.9,7.4,33.7,19.8,40.4,39.8c2.1,6.3,3.3,13.1,3.8,19.7
	c0.6,8.1,0.4,16.3,0.1,24.4c-0.5,14-10.9,24.9-24.9,25.4c-14.5,0.5-28.9,0.2-43.4,0.2c-106.4,0.1-212.7,0.3-319.1,0.3
	c-4.5,0-9-0.5-13.4-1.2c-11.6-2-21.1-14.5-20.6-25c0.5-10.9-0.4-22,1.1-32.8c3.2-22.2,15.9-38.3,36.1-47.6
	c13.3-6.2,27.4-10.9,41.2-16c12.8-4.7,25.7-9.1,38.5-13.7c6.4-2.2,8.1-1.5,10.4,5c10.7,29.4,21.3,58.9,31.9,88.3
	C309.1,613.8,310,615.9,311.3,619.1z"/>
<linearGradient id="SVGID_00000035508833501940848590000010487591097281292686_" gradientUnits="userSpaceOnUse" x1="418.7093" y1="223.253" x2="633.8335" y2="223.253">
	<stop  offset="0.1428" style="stop-color:#1E9CD7"/>
	<stop  offset="0.405" style="stop-color:#0E87C9"/>
	<stop  offset="0.6194" style="stop-color:#0075BE"/>
	<stop  offset="1" style="stop-color:#005B97"/>
	<stop  offset="1" style="stop-color:#CCE0F4"/>
</linearGradient>
<path style="fill:url(#SVGID_00000035508833501940848590000010487591097281292686_);" d="M617.9,178.5c-0.9,6.8-1.7,13.6-2.7,20.4
	c-0.3,2.4,0.2,3.8,2.7,4.3c0.6,0.1,1.1,0.3,1.6,0.4c11.9,2.8,14.2,5.6,14.3,17.9c0.2,13.6-3.4,26.4-8.3,38.9
	c-2.4,6.2-7.4,9.6-13.9,10c-5,0.3-7.6,2.4-8.8,7.2c-9.7,37.2-33.5,62.5-67.7,78.7c-3.1,1.5-6.5,2.5-9.9,3.5
	c-3.3,0.9-5.3-0.7-5.2-4.1c0.1-3.6,0.5-7.3,0.9-10.9c2-17.8-2-33.8-14.4-47.1c-3.1-3.3-3.5-7.5-3.6-11.8
	c-1.2-32.1-12.1-60-35.3-82.7c-11.5-11.3-24.8-20.2-39.1-27.6c-10.7-5.6-10.7-5.6-9-17.7c1.8-12.5,4.9-24.6,13.1-34.7
	c10.8-13.4,25.6-18.6,42-20.3c1.7-0.2,3.4-0.4,5-0.3c5.1,0.1,8.2-1.7,10-7c2.5-7.2,9.2-8.6,15.8-9c24.1-1.3,46.7,4.5,67.1,17
	c9,5.5,17.2,12.6,24.7,20.2C612.2,138.8,617.9,157.6,617.9,178.5z"/>
<linearGradient id="SVGID_00000098900880670189007010000009090004044025120938_" gradientUnits="userSpaceOnUse" x1="86.0254" y1="223.057" x2="301.3681" y2="223.057">
	<stop  offset="0.1428" style="stop-color:#1E9CD7"/>
	<stop  offset="0.405" style="stop-color:#0E87C9"/>
	<stop  offset="0.6194" style="stop-color:#0075BE"/>
	<stop  offset="1" style="stop-color:#005B97"/>
	<stop  offset="1" style="stop-color:#CCE0F4"/>
</linearGradient>
<path style="fill:url(#SVGID_00000098900880670189007010000009090004044025120938_);" d="M194.7,86c38.7,3.4,72,14.9,94.5,47.7
	c7.4,10.8,10.9,23,12.1,35.9c0.5,5.1-1,6.9-6.5,8c-14.6,3.1-28.3,8.3-40.2,17.5c-21.6,16.6-32,39.4-35.6,65.6
	c-1.3,9-1.6,18.2-2.1,27.3c-0.2,4.1-1.6,7.5-4.4,10.6c-11.9,13.2-15.4,29-13.4,46.2c0.4,3.2,0.9,6.4,1,9.6c0.1,4.9-1.9,6.8-6.5,5
	c-6.8-2.6-13.6-5.4-20-8.9c-28.1-15.4-46.7-38.6-55.8-69.3c-1.9-6.4-4.7-11-12-12.3c-5.1-0.9-8.3-5-10.7-9.5
	c-6.7-12.7-9.6-26.3-9-40.6c0.4-9.1,3.2-12.6,11.9-15c4.5-1.2,5.3-4,5.3-8.1c0.1-14.2-0.6-28.5,1.2-42.4c3.5-27,18.5-42.6,44.5-48.5
	c4.6-1,9.4-1.8,14.2-2c5.7-0.2,9.3-2,11.4-7.8c1-2.8,4.6-5.4,7.6-6.5C186.4,86.8,191.2,86.6,194.7,86z"/>
<linearGradient id="SVGID_00000173144506680075094860000012957366115793263516_" gradientUnits="userSpaceOnUse" x1="22.5215" y1="443.8685" x2="249.1884" y2="443.8685">
	<stop  offset="0.1428" style="stop-color:#1E9CD7"/>
	<stop  offset="0.405" style="stop-color:#0E87C9"/>
	<stop  offset="0.6194" style="stop-color:#0075BE"/>
	<stop  offset="1" style="stop-color:#005B97"/>
	<stop  offset="1" style="stop-color:#CCE0F4"/>
</linearGradient>
<path style="fill:url(#SVGID_00000173144506680075094860000012957366115793263516_);" d="M118,507.4c-23.5,0-46.9,0.1-70.4,0
	c-14.8,0-23.3-8.4-24.5-23.1c-1.1-13.1-0.9-26.1,2.8-38.8c5.9-19.7,19.3-32.8,37.8-40.5c19.8-8.2,40.1-15.4,60.2-22.9
	c4.3-1.6,5.4-0.8,7.2,4.4c8.8,26.1,17.5,52.2,26.2,78.3c0.7,2.1,1.1,4.4,2,6.4c0.4,1,1.4,2.2,2.4,2.5c0.7,0.2,2.1-0.8,2.6-1.6
	c7.7-11.7,15.3-23.6,22.9-35.3c2-3.1,0.9-5.3-1.5-7.7c-3.7-3.7-7.8-7.2-10.3-11.5c-10.4-18.5-5.5-31.4,15.2-36
	c1-0.2,1.9-0.4,2.9-0.5c12.2-1.5,12.2-1,18.4,9.4c4.2,7,9.6,13.4,14.9,19.7c3.4,4,4.1,5.2,1,9.4c-2.4,3.2-5.1,6.3-8.2,9
	c-4.5,4.1-4.9,4.9-1.4,10.1c9.2,13.8,18.4,27.5,27.6,41.3c0.2,0.4,0.5,0.7,0.7,1c3.8,5.9,3.6,6.8-3.1,9.1
	c-15.2,5.4-30.4,10.8-45.7,16c-3.1,1-6.6,1.3-9.9,1.3C164.6,507.4,141.3,507.3,118,507.4C118,507.4,118,507.4,118,507.4z"/>
<linearGradient id="SVGID_00000128464373410331555710000014311492652778713497_" gradientUnits="userSpaceOnUse" x1="471.3512" y1="444.1129" x2="697.2883" y2="444.1129">
	<stop  offset="0.1428" style="stop-color:#1E9CD7"/>
	<stop  offset="0.405" style="stop-color:#0E87C9"/>
	<stop  offset="0.6194" style="stop-color:#0075BE"/>
	<stop  offset="1" style="stop-color:#005B97"/>
	<stop  offset="1" style="stop-color:#CCE0F4"/>
</linearGradient>
<path style="fill:url(#SVGID_00000128464373410331555710000014311492652778713497_);" d="M602.4,507.5c-21.5,0-43,0.3-64.5-0.1
	c-6.9-0.1-14-1.2-20.6-3.2c-13.8-4.2-27.4-9.3-41-14c-5.9-2.1-6.2-3.1-2.8-8.4c9.2-14.3,18.5-28.5,27.8-42.7
	c3.8-5.8,3.6-6.5-1.6-11.1c-2.4-2.1-4.5-4.7-6.6-7.1c-2.3-2.6-2-5.1,0.3-7.4c8.2-8.1,14.9-17.1,18.7-28.2c1.1-3.1,3.8-4.7,7-4.5
	c5.3,0.3,10.8,0.4,15.8,1.8c12.8,3.4,18.8,16.7,12.9,29.2c-2.4,5.2-6.3,9.9-10.1,14.4c-6.6,7.6-6.8,8.1-1.2,16.6
	c6.3,9.6,12.6,19.3,19,28.8c0.6,0.9,1.8,1.5,2.8,2.3c0.8-1,1.9-2,2.3-3.1c8.8-26.4,17.6-52.7,26.3-79.1c0.6-1.7,1.1-3.5,1.8-5.2
	c1.9-4.5,4-5.7,8.6-3.9c19.9,7.6,40,14.8,59.6,23.3c18.1,7.8,31.5,21,37.2,40.6c3.8,13.3,3.7,27,2.3,40.6
	c-1.4,13-10.4,20.3-23.6,20.5c-11.8,0.2-23.6,0.1-35.4,0.1C625.8,507.5,614.1,507.5,602.4,507.5z"/>
</svg>
