<?xml version="1.0" encoding="utf-8"?>
<!-- Generator: Adobe Illustrator 26.0.1, SVG Export Plug-In . SVG Version: 6.00 Build 0)  -->
<svg version="1.1" id="Layer_1" xmlns="http://www.w3.org/2000/svg" xmlns:xlink="http://www.w3.org/1999/xlink" x="0px" y="0px"
	 viewBox="0 0 720 720" style="enable-background:new 0 0 720 720;" xml:space="preserve">
<style type="text/css">
	.st0{fill:url(#SVGID_1_);}
	.st1{fill:url(#SVGID_00000038402050713581316210000003379736257047603859_);}
	.st2{fill:url(#SVGID_00000037672195071626296490000012926513081867653556_);}
	.st3{fill:url(#SVGID_00000034074111083100337450000015195318194782506652_);}
	.st4{fill:url(#SVGID_00000129174176934902583330000001839917461188358830_);}
	.st5{fill:url(#SVGID_00000001621881244385537400000015149676385387692189_);}
	.st6{fill:url(#SVGID_00000091017313179715124030000016137178000889497250_);}
	.st7{fill:url(#SVGID_00000165946712158746677940000018133081481067217817_);}
</style>
<linearGradient id="SVGID_1_" gradientUnits="userSpaceOnUse" x1="113.418" y1="349.8448" x2="596.5143" y2="349.8448">
	<stop  offset="7.020930e-02" style="stop-color:#1E9CD7"/>
	<stop  offset="0.5523" style="stop-color:#0075BE"/>
	<stop  offset="1" style="stop-color:#005B97"/>
	<stop  offset="1" style="stop-color:#CCE0F4"/>
</linearGradient>
<path class="st0" d="M452,507.3c-9,13.6-19.6,23.9-35.3,22.4c-22.3-2.1-44.3-6.8-69.5-10.9c13.7-16.7,17.9-31.2,9.8-47.5
	c-7.6-15.3-20.4-22.7-37-23.9c-4.8-32.7-13.8-43.4-41.3-48.3c0.3-22.5-8-40.3-31.6-46.9c-19.4-5.4-31.9,5.3-42,22.2
	c-7.9-15.9-18.4-28.4-35.8-28.6c-9.9-0.1-19.9,4.8-32.5,8.2c-5.6-6.8-14.1-16.7-22-27c-1.5-1.9-1.9-6.2-0.8-8.3
	c28.3-50.8,56.8-101.4,83.7-149c24.7,7.4,47.7,14.3,71.9,21.6c-2.4,3.6-5.9,8.6-9.2,13.7c-8.3,12.7-17,25.1-24.5,38.2
	c-3.4,6-5.4,13.3-6.2,20.3c-1.9,17.1,6.7,26.1,24.3,26.1c18-0.1,34.9-5,49.2-16c10.7-8.2,21.6-16.9,29.5-27.6
	c8-10.8,18.2-14.9,29.9-17.4c3.8-0.8,8.6,0.3,12.2,2.1c75.4,37.4,143.9,85.2,208.7,138.6c14.3,11.8,16.7,24.2,8.2,36.4
	c-8,11.4-23.6,13.3-38.5,4.4c-32.2-19.2-64.2-38.5-96.4-57.8c-4.7-2.8-10.5-7.5-13.9,0c-1.1,2.5,3.4,9.7,7.1,12
	c28.7,17.9,57.9,35.1,86.9,52.6c14.3,8.6,14.7,27.9-0.2,36c-9.9,5.3-20.8,7.4-31.8,0.8c-25.7-15.2-51.5-30.3-77.7-44.7
	c-3.7-2.1-9.6-0.4-14.4-0.4c2.6,4.2,4.2,9.9,7.9,12.2c23.1,14.1,46.7,27.4,70.1,41c5.2,3,12.4,4.5,10.2,13.6
	c-2.2,9.3-5.1,19.2-15.6,20.3c-9.9,1.1-21,0.7-30-2.9c-19.9-7.9-38.7-18.6-58.4-27.4c-4.1-1.8-12.8-1.8-14.1,0.4
	c-4.6,7.8,3.5,9.6,8.5,12.1C411.2,487.7,431.2,497.3,452,507.3z"/>
<linearGradient id="SVGID_00000082364491673796013000000002214754250967758497_" gradientUnits="userSpaceOnUse" x1="244.1511" y1="254.1158" x2="638.0209" y2="254.1158">
	<stop  offset="7.020930e-02" style="stop-color:#1E9CD7"/>
	<stop  offset="0.5523" style="stop-color:#0075BE"/>
	<stop  offset="1" style="stop-color:#005B97"/>
	<stop  offset="1" style="stop-color:#CCE0F4"/>
</linearGradient>
<path style="fill:url(#SVGID_00000082364491673796013000000002214754250967758497_);" d="M410.4,151.4c26.8,4.8,56.5,9.7,86.1,15.6
	c16.7,3.4,33,5.8,49.4-0.1c6.3-2.3,9.2-0.1,12.2,5.3c26.2,46.9,52.7,93.7,78.8,140.7c1.5,2.6,1.7,8.3,0,10
	c-10.8,10.5-22.2,20.4-33.6,30.3c-6.4,5.6-11.8,4.5-18.6-1.1c-63.4-51.7-130.6-97.9-204-134.4c-14.7-7.3-43.2-0.7-53.3,12.7
	c-16.7,22.2-36.3,40.5-65.3,44.3c-5.6,0.7-15.4,0.4-16.4-2.1c-2.2-5.5-2.1-14.2,1-19c17.9-27.8,36.5-55.1,55.9-81.7
	c3.4-4.7,11.6-7.2,18-8.2C349.1,159.1,377.9,155.7,410.4,151.4z"/>
<linearGradient id="SVGID_00000005268967707305491470000003862246721451764651_" gradientUnits="userSpaceOnUse" x1="554.9691" y1="218.3069" x2="725.896" y2="218.3069">
	<stop  offset="7.020930e-02" style="stop-color:#1E9CD7"/>
	<stop  offset="0.5523" style="stop-color:#0075BE"/>
	<stop  offset="1" style="stop-color:#005B97"/>
	<stop  offset="1" style="stop-color:#CCE0F4"/>
</linearGradient>
<path style="fill:url(#SVGID_00000005268967707305491470000003862246721451764651_);" d="M725.9,303.7c-2.9,1.3-6.1,2.2-8.8,3.8
	c-14.3,8.6-28.7,17.2-42.8,26.1c-5.7,3.6-8.4,1.5-11.2-3.5c-35.3-62.8-70.7-125.6-106.1-188.4c-3.1-5.5-2.9-9.4,3-12.8
	c14.1-8.3,28-16.8,41.8-25.5c5.6-3.5,9-3.1,12.4,3c35.2,62.9,70.7,125.6,106,188.4c1,1.7,1.7,3.5,2.6,5.3
	C723.8,301.3,724.9,302.5,725.9,303.7z"/>
<linearGradient id="SVGID_00000037663025076534918920000004595156770508149130_" gradientUnits="userSpaceOnUse" x1="32.2112" y1="218.957" x2="198.6711" y2="218.957">
	<stop  offset="7.020930e-02" style="stop-color:#1E9CD7"/>
	<stop  offset="0.5523" style="stop-color:#0075BE"/>
	<stop  offset="1" style="stop-color:#005B97"/>
	<stop  offset="1" style="stop-color:#CCE0F4"/>
</linearGradient>
<path style="fill:url(#SVGID_00000037663025076534918920000004595156770508149130_);" d="M85.7,336.5c-2.9-1.5-4.7-2.3-6.4-3.4
	c-13.9-8.5-27.7-17.2-41.9-25.4c-6.5-3.8-6.4-7.7-3-13.6c35.1-62,70.1-124.1,104.8-186.4c4.3-7.8,8.4-7.7,15.1-3.4
	c11.7,7.6,23.5,15.1,35.7,21.6c9.6,5.1,10.8,10,5.3,19.6c-29.2,50.8-57.6,101.9-86.3,152.9c-5.9,10.4-11.7,20.9-17.7,31.2
	C89.9,332.2,87.6,334.2,85.7,336.5z"/>
<linearGradient id="SVGID_00000137836455168152579740000005820670876006216866_" gradientUnits="userSpaceOnUse" x1="174.499" y1="418.6806" x2="263.9478" y2="418.6806">
	<stop  offset="7.020930e-02" style="stop-color:#1E9CD7"/>
	<stop  offset="0.5523" style="stop-color:#0075BE"/>
	<stop  offset="1" style="stop-color:#005B97"/>
	<stop  offset="1" style="stop-color:#CCE0F4"/>
</linearGradient>
<path style="fill:url(#SVGID_00000137836455168152579740000005820670876006216866_);" d="M263.9,394.7c-0.9,2-2.5,7-5.3,11
	c-13.6,19.1-27.5,38-41.5,56.8c-8.3,11.1-19,12.9-30,5.5c-11.4-7.6-16.3-22-9.3-32.1c15.1-21.9,31.1-43.3,47.2-64.4
	c5.4-7.1,13.4-7.8,21.7-4.6C257,370.9,264,380.9,263.9,394.7z"/>
<linearGradient id="SVGID_00000117651037080489704310000005935649545582281602_" gradientUnits="userSpaceOnUse" x1="225.7514" y1="461.589" x2="304.6284" y2="461.589">
	<stop  offset="7.020930e-02" style="stop-color:#1E9CD7"/>
	<stop  offset="0.5523" style="stop-color:#0075BE"/>
	<stop  offset="1" style="stop-color:#005B97"/>
	<stop  offset="1" style="stop-color:#CCE0F4"/>
</linearGradient>
<path style="fill:url(#SVGID_00000117651037080489704310000005935649545582281602_);" d="M304.6,443.2c-0.9,2-2.4,7-5.2,11
	c-10,14.3-20.3,28.4-30.7,42.5c-8.6,11.6-18.5,13.7-29.8,6.7c-11.8-7.3-17.1-22.3-10-32.8c11.8-17.4,23.9-34.8,37.7-50.5
	c3.8-4.3,14.6-5.1,21.3-3.7C298,418.4,304.6,430,304.6,443.2z"/>
<linearGradient id="SVGID_00000173146674769098161070000010424110184999574416_" gradientUnits="userSpaceOnUse" x1="280.2093" y1="499.9596" x2="347.1459" y2="499.9596">
	<stop  offset="7.020930e-02" style="stop-color:#1E9CD7"/>
	<stop  offset="0.5523" style="stop-color:#0075BE"/>
	<stop  offset="1" style="stop-color:#005B97"/>
	<stop  offset="1" style="stop-color:#CCE0F4"/>
</linearGradient>
<path style="fill:url(#SVGID_00000173146674769098161070000010424110184999574416_);" d="M318.2,462.2c13.4,0.3,20.8,5.8,25.7,14.7
	c4.6,8.4,4.4,16.7-1.5,24.6c-6.9,9.2-13.5,18.6-20.6,27.7c-7.4,9.5-18.3,11.2-28.4,4.8c-11-6.9-16.8-21.3-10.9-30.7
	c7.8-12.4,16.7-24.2,25.9-35.6C311.1,464.4,316.3,463.2,318.2,462.2z"/>
<linearGradient id="SVGID_00000088847162723924170470000000918790764800108979_" gradientUnits="userSpaceOnUse" x1="133.2578" y1="391.7032" x2="191.5355" y2="391.7032">
	<stop  offset="7.020930e-02" style="stop-color:#1E9CD7"/>
	<stop  offset="0.5523" style="stop-color:#0075BE"/>
	<stop  offset="1" style="stop-color:#005B97"/>
	<stop  offset="1" style="stop-color:#CCE0F4"/>
</linearGradient>
<path style="fill:url(#SVGID_00000088847162723924170470000000918790764800108979_);" d="M191.5,386c-0.2,8.6-18.1,34-26.3,36.8
	c-10.5,3.5-18.9-1-25.4-8.7c-7.1-8.3-8.9-17.9-3.1-27.6c3.4-5.8,8.1-10.8,11.8-16.5c6-9.2,14.1-12.7,24.6-9.4
	C183.7,363.8,191.8,375.3,191.5,386z"/>
</svg>
