<svg id="Ebene_1" data-name="Ebene 1" xmlns="http://www.w3.org/2000/svg" width="666" height="629" viewBox="0 0 666 629"><defs><style>.cls-1{fill:#f2f2f2;}.cls-2{fill:#1d7cbf;}.cls-3{fill:#218cd9;}.cls-4{fill:#45a3e5;}.cls-5{fill:#a6daff;}.cls-6,.cls-7{fill:#45a3e6;}.cls-7{opacity:0.25;}</style></defs><title>3D-Website-Neue-Illustrationen-web</title><circle class="cls-1" cx="264.086" cy="314.282" r="261.146"/><path class="cls-2" d="M393.4,375.477c4.9,6.446,20.937,30.44,25.849,39.143,18.2,32.259,39.794,72.957,37.307,76.273-5.289,7.052-28.019,27.085-38.965,34.82-62.179,43.94-105.285,46.467-135.965,49.743-85.392,9.12-185.708-43.94-202.968-78.744-25.633-51.687-9.807-149.286,126.634-201.793C278.448,266.766,358.128,329.074,393.4,375.477Z"/><path class="cls-3" d="M247.125,382.06l29.156,15.875s28.959-68.967-27.223-106.871Z"/><path class="cls-4" d="M134.135,334.666s40.4,51.915,74.628,54.6,46.546-11.253,49.247-19.409c7.537-22.759-5.9-87.281-5.9-87.281l-65.17,5.328Z"/><path class="cls-4" d="M156.166,201.827l-9.544,123.115c-.673,8.686,6.436,17.844,16.445,25.084,20.676,14.958,50.581,16.716,74.028,4.476,11.723-6.12,11.936-15.2,12.632-24.175L259.069,209.8Z"/><path class="cls-5" d="M135.811,146.1C142.682,91,196.376,55.31,247.729,65.155s86.005,62.359,74.048,116.6c-14,63.528-45.478,117.41-52.594,124.674s-18.4,12.812-33.494,9.918-37.4-15.474-67.2-40.761C141.339,252.54,128.553,204.308,135.811,146.1Z"/><path class="cls-2" d="M174.232,205.659c-1.444-6.384-4.26-12.914-9.672-16.307s-13.809-2.041-16.28,4c-3.1,7.575.635,30.4,4.49,37.593,9.761,18.207.87,26.481,7.912,45.991l-10.348-21.768,3.248,34.695A444.652,444.652,0,0,0,139.2,237.824l-5.46,9.134-2.322-28.518-8.928,9.128a126.685,126.685,0,0,0-1.7-33.784l-9.381,9.33a151.211,151.211,0,0,1,7.047-35.555,16.97,16.97,0,0,1-9.4,7.745c4.24-26.577,6.162-67.235,24.532-92.649,19.219-26.589,55.691-38.509,68.235-35.688,63.455-1.393,117.47,38.4,142.8,98.006-5.2-3.055-24.269-19.7-29.471-22.754,16.665,20.79,14.54,56.086,11.052,79.209-6.484-16.427-23.157-41.047-35.833-52.975-1.341,13.928-.236,39.883-1.577,53.812-7.12-16.395-20.827-42.859-34.8-53.509a118.514,118.514,0,0,1-6.942,48.3,130.681,130.681,0,0,0-17.651-35.461c-1.646-2.33-4.378-4.866-6.837-3.508-1.355.748-1.94,2.406-2.414,3.92l-7.293,23.319c-1.571-2.658-18.1-22.015-19.668-24.673-14.466,14.118-6.7,52.523-3.657,72.872A118.012,118.012,0,0,0,175.1,195.283C172.729,198.089,173.2,202.086,174.232,205.659Z"/><path class="cls-5" d="M165.2,198.244l.6,8.047a2.167,2.167,0,0,1-1.478,2.384l-5.188,1.636-.576-9.979"/><path class="cls-6" d="M156.944,210.147l-16.12-7.961a2.286,2.286,0,0,1-1.325-1.856l-.774-10.395,21.644,9.911.6,8.047C161.107,209.769,158.8,211.063,156.944,210.147Z"/><path class="cls-3" d="M211.064,193.348c-45.259-8.444-88.2-28.767-99.8-51.243l1.861,25.011a5.4,5.4,0,0,0,.749,2.212c13.6,21.621,54.72,41.685,99.12,49.969,60.118,11.216,114.833-3.763,122.208-33.456,1.823-7.339.937-14.635-3.246-22.27C321.1,190.777,268.619,204.086,211.064,193.348Z"/><path class="cls-2" d="M197.624,196.483s-13.3,49.53,20.387,57.365c18.685,4.345,35.937,5.756,50.958,4.639,11.428-.85,18.154-13.847,25.1-15.113,5.923-1.08,5.5,9.028,11.371,6.5,9.386-4.041,16.52-9.179,20.711-15.712,12.167-18.968,12.585-56.1,8.777-63.477C324.078,197.89,263.4,213.559,197.624,196.483Z"/><path class="cls-6" d="M199.685,183.428c-36.573-8.192-71.794-24.591-84.431-45.166,0,0-4.157,1.6-3.99,3.843a12.444,12.444,0,0,0,1.411,2.481c13.36,21.481,54.8,40.63,98.388,48.763,57.555,10.738,110.041-2.571,120.893-29.778l-5.532-2.483S227.76,189.716,199.685,183.428Z"/><path class="cls-6" d="M199.685,183.428c-36.573-8.192-71.794-24.591-84.431-45.166,0,0-4.157,1.6-3.99,3.843a12.444,12.444,0,0,0,1.411,2.481c13.36,21.481,54.8,40.63,98.388,48.763,57.555,10.738,110.041-2.571,120.893-29.778l-5.532-2.483S227.76,189.716,199.685,183.428Z"/><path class="cls-3" d="M234,207.222l-11.658-1.261a5.547,5.547,0,0,0-1.193,11.03l11.658,1.261A5.547,5.547,0,0,0,234,207.222ZM221.98,215.5a4.052,4.052,0,1,1,3.693-4.382A4.052,4.052,0,0,1,221.98,215.5Zm11.53,1.247a4.052,4.052,0,1,1,3.693-4.382A4.052,4.052,0,0,1,233.51,216.749Z"/><path class="cls-2" d="M136.3,190.413s.561.365,1.3.845l-1.9-25.478-1.3-.83,1.9,25.463Z"/><path class="cls-3" d="M134.4,164.95c.407.264.889.568,1.3.83l6.395-3.794c-.432-.251-.864-.5-1.289-.754Z"/><path class="cls-3" d="M250.807,382.06,237.021,420S61.888,362.377,146.9,325.039C146.9,325.039,120.138,349.978,250.807,382.06Z"/><path class="cls-2" d="M272.228,457.936a114.549,114.549,0,0,1,11.514,11.85c6.928,8.239,14.592,19.138,19.107,23.544,5.447,5.316,15.19,9.011,15.19,9.011l-9.484,9.717s-11.324-4.626-17.707-12.691C281.657,487.752,262.9,467.5,262.9,467.5Z"/><polygon class="cls-4" points="467.527 375.775 518.109 346.571 568.615 375.731 518.109 404.891 467.527 375.775"/><polygon class="cls-2" points="518.109 463.342 568.755 434.051 568.755 375.775 518.109 404.891 518.109 463.342"/><polygon class="cls-3" points="467.527 375.775 518.261 404.891 518.178 463.25 467.527 434.007 467.527 375.775"/><circle class="cls-7" cx="519.459" cy="403.103" r="142.416"/><path class="cls-3" d="M281.626,511.619l-.829-1.658c-39.795,2.487-74.615,39.795-74.615,39.795s-31.5-64.666-41.453-87.88c16.581,52.23,33.991,97.828,33.991,97.828s31.723-29.726,54.717-38.136c16.339-5.976,24.23-8.654,27.359-9.12C281.658,512.319,282.016,512.4,281.626,511.619Z"/><path class="cls-3" d="M301.08,491.894l-25,17.139s17.812,45.2,49.772,59.359c3.579-.9,25.073-23.565,25.073-23.565S326.325,529.84,301.08,491.894Z"/><path class="cls-5" d="M317.462,480.633s29.122-87.957,35.116-95.458,10.645-2.554,6.828,12.217-3.669,9.973-3.669,9.973-1.868,13.871-2.916,16.72S352,435.108,352,435.108l8.91-24.221,14.461-17.326s7.19-15.148,10.564-15.524,9.449,5.094,7.353,10.793a158.119,158.119,0,0,1-7.19,15.148s-7.042,10.35-8.991,11.25c.325,1.265-7.338,19.946-7.338,19.946h0s8.762-19.422,11.235-21.748,19.932-23.4,21.88-24.3,9.368-7.877,12.594-3.455-1.868,13.871-6.814,18.522-5.47,6.075-5.47,6.075l-10.94,12.151s-2.768,11.922-6.814,18.522-7.008,8.553-7.008,8.553l21.4-8.11,11.4,4.193,7.353,10.793,2.554,10.645s-6.371,4.127-10.121,1.129-7.95-6.969-7.95-6.969L391,463.2s-8.068,5.42-7.042,10.35a33.662,33.662,0,0,0,2.178,7.271s.9,1.949,5.7,2.1S409,471.443,409,471.443s11.693-5.4,15.967-3.831-2.244,10.5-2.244,10.5l-5.618,10.874a126.305,126.305,0,0,1-11.841,10.2c-7.879,6.132-13.3,7.943-22.486,12.756s-9.076,5.271-20.013,10.431-48.293-22.619-48.146-27.417S317.462,480.633,317.462,480.633Z"/><path class="cls-5" d="M314.435,494.493l-6.667,5s18.333,30,35,40c5.333-12,1.667-11,7.667-13s13.667-3.333,22.333-8.667S314.435,494.493,314.435,494.493Z"/><path class="cls-6" d="M163.018,77.674a11.238,11.238,0,0,0-6.325,3.247l6.03-1.686a9.838,9.838,0,0,0-3.28,8.24,13.057,13.057,0,0,1,4.516-4.952,29.176,29.176,0,0,0,7.051,14.624,26.221,26.221,0,0,1-.574-13.9l8.274,9.047a36.773,36.773,0,0,1-4.273-11.717c3.514,3.553,10.431,3.007,12.594,7.511a32.621,32.621,0,0,0-12.844-11.133c4.457-.548,9.061-1.085,13.373.17a24.121,24.121,0,0,0-10-3.048,84.788,84.788,0,0,1,14.808-4.816A27.146,27.146,0,0,0,168.4,76.536a28.258,28.258,0,0,1,3.187-7.8,17.5,17.5,0,0,0-6.845,8.821,4.662,4.662,0,0,0-4.936,1.538"/></svg>