<svg xmlns="http://www.w3.org/2000/svg" xmlns:xlink="http://www.w3.org/1999/xlink" width="545" height="363" viewBox="0 0 545 363">
  <defs>
    <clipPath id="clip-path">
      <rect id="Rectangle_22527" data-name="Rectangle 22527" width="545" height="363" transform="translate(0.197 -0.319)" fill="none"/>
    </clipPath>
  </defs>
  <g id="IoT_device-integration-graphics" data-name="IoT &amp; device-integration-graphics" transform="translate(-0.197 0.319)">
    <g id="Group_10786" data-name="Group 10786" clip-path="url(#clip-path)">
      <g id="_2" data-name="2" transform="translate(46.197 20.681)">
        <g id="Group_10686" data-name="Group 10686" transform="translate(2.339)">
          <path id="Path_118430" data-name="Path 118430" d="M535.855,249.508c22.348-51.039-35.974-72.054-65.952-48.58s-45.24,25.191-39.244,1.144c14.611-58.6-1.635-120.23-81.213-155.155S204.108,64.275,191.845,108.5s-17.577,56.677-26.57,49.807C131.449,132.469,87.2,130.4,106.82,214.986s65.4,135.683,65.4,135.683,324.937-1.457,336.384-3.748,26.163-9.16,41.969-49.237S513.508,300.548,535.855,249.508Z" transform="translate(-101.986 -35.5)" fill="#e5f8ff"/>
        </g>
        <g id="Group_10690" data-name="Group 10690" transform="translate(181.61 92.116)">
          <g id="Group_10688" data-name="Group 10688" transform="translate(3.813)">
            <path id="Path_118434" data-name="Path 118434" d="M613.719,372.2h-7.145l-.351,2.994a11.087,11.087,0,0,0-.047,16.068l.578,3.033h7.195v-.006a11.047,11.047,0,0,0-.231-22.09Z" transform="translate(-550.276 -305.934)" fill="#0eb435"/>
            <path id="Path_118435" data-name="Path 118435" d="M592.475,325.279a32.8,32.8,0,0,0-25.215,11.84,5.494,5.494,0,0,0-.6.887l-4.016-.3,1.911,8.477h6.821v0c.031,0,.061,0,.09,0a5.5,5.5,0,0,0,4.218-1.961,21.777,21.777,0,0,1,30.231-3.272l1.18,5.232h6.4a5.344,5.344,0,0,0,3.525-1.295,5.533,5.533,0,0,0,.677-7.77A32.794,32.794,0,0,0,592.475,325.279Z" transform="translate(-529.032 -281.082)" fill="#0eb435"/>
            <path id="Path_118436" data-name="Path 118436" d="M613.478,258.977a76.415,76.415,0,0,0-117.669,0,5.573,5.573,0,0,0-.611.9l-4-.3,1.909,8.477h6.822v0c.025,0,.052,0,.079,0a5.391,5.391,0,0,0,4.2-1.983,65.441,65.441,0,0,1,96.835-4.387l1.212,6.371h7.195v-.008a5.4,5.4,0,0,0,3.346-1.293A5.535,5.535,0,0,0,613.478,258.977Z" transform="translate(-491.195 -231.324)" fill="#0eb435"/>
            <path id="Path_118437" data-name="Path 118437" d="M573.557,278.3a54.687,54.687,0,0,0-42.011,19.741,5.473,5.473,0,0,0-.618.9l-4.009-.3,1.909,8.477h6.821v0c.033,0,.065,0,.1,0a5.487,5.487,0,0,0,4.2-1.961,43.589,43.589,0,0,1,63.178-4.254l1.183,6.215H611.5v0a5.521,5.521,0,0,0,4.086-9.076A54.721,54.721,0,0,0,573.557,278.3Z" transform="translate(-510.114 -256.2)" fill="#0eb435"/>
          </g>
          <g id="Group_10689" data-name="Group 10689">
            <path id="Path_118438" data-name="Path 118438" d="M598.529,372.2a11.048,11.048,0,1,0,10.982,11.053A11.016,11.016,0,0,0,598.529,372.2Z" transform="translate(-538.418 -305.934)" fill="#31d156"/>
            <path id="Path_118439" data-name="Path 118439" d="M581.043,325.279a32.811,32.811,0,0,0-25.217,11.84,5.535,5.535,0,0,0,.684,7.77,5.357,5.357,0,0,0,3.519,1.295,5.5,5.5,0,0,0,4.218-1.961,21.793,21.793,0,0,1,33.6,0,5.49,5.49,0,0,0,4.213,1.961,5.344,5.344,0,0,0,3.525-1.295,5.533,5.533,0,0,0,.678-7.77A32.8,32.8,0,0,0,581.043,325.279Z" transform="translate(-520.932 -281.082)" fill="#31d156"/>
            <path id="Path_118440" data-name="Path 118440" d="M602.04,258.977a76.416,76.416,0,0,0-117.669,0,5.545,5.545,0,0,0,.683,7.78,5.423,5.423,0,0,0,7.715-.683,65.478,65.478,0,0,1,100.868.022,5.449,5.449,0,0,0,7.72.661A5.534,5.534,0,0,0,602.04,258.977Z" transform="translate(-483.089 -231.324)" fill="#31d156"/>
            <path id="Path_118441" data-name="Path 118441" d="M562.113,278.3A54.692,54.692,0,0,0,520.1,298.036a5.53,5.53,0,0,0,.662,7.786,5.432,5.432,0,0,0,3.54,1.3,5.487,5.487,0,0,0,4.2-1.961,43.625,43.625,0,0,1,67.237,0,5.472,5.472,0,0,0,7.732.666,5.555,5.555,0,0,0,.673-7.786A54.724,54.724,0,0,0,562.113,278.3Z" transform="translate(-502.002 -256.2)" fill="#31d156"/>
          </g>
        </g>
        <g id="Group_10743" data-name="Group 10743" transform="translate(323.856 186.201)">
          <g id="Group_10710" data-name="Group 10710" transform="translate(17.572)">
            <path id="Path_118442" data-name="Path 118442" d="M910.888,445.8l-5.974,37.688L901.359,505.9l-7.445,46.956c-.669,4.228-5.188,7.68-10.038,7.67l-38.826-.087-8.325-.02a9.411,9.411,0,0,1-2.083-.233,7.954,7.954,0,0,1-2.935-1.309,6.883,6.883,0,0,1-.856-.735l-1.657-1.679-1.109-1.122-.761-.769.009-.014.812-.963.66-.783.01,0,.277.151c.009-.088.012-.175.029-.26l6.786-42.913,5.324-33.652.682-4.308.037-.238.294-1.853v0l3.8-24.044a7.824,7.824,0,0,1,1.293-3.171s0,0,0,0a9.861,9.861,0,0,1,1.9-2.055c.206-.169.419-.329.638-.479v0c.039-.027.08-.053.119-.085h0c.044-.026.08-.053.121-.077a11,11,0,0,1,1.339-.752c.158-.075.318-.146.478-.214a10.957,10.957,0,0,1,2.692-.74h0a10.713,10.713,0,0,1,1.449-.1l4.116.008h0l3.182.005h.641l2.486,0h.587l2.108,0h0l2.338.005,9.3.013,3.948.007,4.553.007h.085l11.175.017,1.931,0,.747-.366,0,0,2.187-1.077c.022.019.039.041.058.06l0,0c.005.008.012.013.017.02l3.5,3.539v0A6.2,6.2,0,0,1,910.888,445.8Z" transform="translate(-825.212 -434.147)" fill="#eb8e14"/>
            <g id="Group_10699" data-name="Group 10699" transform="translate(8.457 123.227)">
              <g id="Group_10694" data-name="Group 10694" transform="translate(31.193 0.134)">
                <g id="Group_10691" data-name="Group 10691" transform="translate(3.243 0.01)">
                  <path id="Path_118443" data-name="Path 118443" d="M935.84,693.67c-.3,0-.345.2-.105.439a1.608,1.608,0,0,0,.973.442c.3,0,.345-.2.1-.439A1.6,1.6,0,0,0,935.84,693.67Z" transform="translate(-925.438 -693.638)" fill="#002ca7"/>
                  <path id="Path_118444" data-name="Path 118444" d="M932.245,693.658c-.3,0-.345.2-.1.439a1.606,1.606,0,0,0,.973.442c.3,0,.344-.2.1-.438A1.6,1.6,0,0,0,932.245,693.658Z" transform="translate(-923.534 -693.632)" fill="#002ca7"/>
                  <path id="Path_118445" data-name="Path 118445" d="M928.652,693.648c-.3,0-.344.2-.1.438a1.6,1.6,0,0,0,.974.443c.3,0,.343-.2.1-.439A1.6,1.6,0,0,0,928.652,693.648Z" transform="translate(-921.632 -693.626)" fill="#002ca7"/>
                  <path id="Path_118446" data-name="Path 118446" d="M925.057,693.636c-.3,0-.343.2-.1.438a1.6,1.6,0,0,0,.973.442c.3,0,.344-.2.1-.439A1.6,1.6,0,0,0,925.057,693.636Z" transform="translate(-919.728 -693.62)" fill="#002ca7"/>
                  <path id="Path_118447" data-name="Path 118447" d="M921.463,693.625c-.3,0-.345.2-.1.438a1.6,1.6,0,0,0,.974.442c.3,0,.344-.2.1-.438A1.6,1.6,0,0,0,921.463,693.625Z" transform="translate(-917.825 -693.614)" fill="#002ca7"/>
                  <path id="Path_118448" data-name="Path 118448" d="M917.87,693.614c-.3,0-.345.2-.105.438a1.607,1.607,0,0,0,.974.442c.3,0,.344-.2.1-.438A1.6,1.6,0,0,0,917.87,693.614Z" transform="translate(-915.922 -693.608)" fill="#002ca7"/>
                  <path id="Path_118449" data-name="Path 118449" d="M914.276,693.6c-.3,0-.344.2-.1.439a1.6,1.6,0,0,0,.973.442c.3,0,.345-.2.1-.439A1.6,1.6,0,0,0,914.276,693.6Z" transform="translate(-914.018 -693.602)" fill="#002ca7"/>
                </g>
                <g id="Group_10692" data-name="Group 10692" transform="translate(4.566 1.35)">
                  <path id="Path_118450" data-name="Path 118450" d="M938.65,696.519c-.3,0-.344.2-.1.438a1.6,1.6,0,0,0,.973.442c.3,0,.344-.2.1-.438A1.6,1.6,0,0,0,938.65,696.519Z" transform="translate(-928.249 -696.487)" fill="#002ca7"/>
                  <path id="Path_118451" data-name="Path 118451" d="M935.056,696.507c-.3,0-.343.2-.1.439a1.6,1.6,0,0,0,.973.442c.3,0,.345-.2.1-.439A1.608,1.608,0,0,0,935.056,696.507Z" transform="translate(-926.346 -696.48)" fill="#002ca7"/>
                  <path id="Path_118452" data-name="Path 118452" d="M931.462,696.5c-.3,0-.345.2-.1.439a1.607,1.607,0,0,0,.973.442c.3,0,.345-.2.1-.438A1.6,1.6,0,0,0,931.462,696.5Z" transform="translate(-924.442 -696.474)" fill="#002ca7"/>
                  <path id="Path_118453" data-name="Path 118453" d="M927.869,696.484c-.3,0-.345.2-.1.439a1.6,1.6,0,0,0,.973.441c.3,0,.344-.2.1-.438A1.6,1.6,0,0,0,927.869,696.484Z" transform="translate(-922.539 -696.468)" fill="#002ca7"/>
                  <path id="Path_118454" data-name="Path 118454" d="M924.276,696.473c-.3,0-.344.2-.105.438a1.607,1.607,0,0,0,.974.443c.3,0,.344-.2.1-.439A1.606,1.606,0,0,0,924.276,696.473Z" transform="translate(-920.636 -696.462)" fill="#002ca7"/>
                  <path id="Path_118455" data-name="Path 118455" d="M920.681,696.463c-.3,0-.345.2-.1.438a1.6,1.6,0,0,0,.973.442c.3,0,.345-.2.1-.438A1.6,1.6,0,0,0,920.681,696.463Z" transform="translate(-918.732 -696.457)" fill="#002ca7"/>
                  <path id="Path_118456" data-name="Path 118456" d="M917.088,696.45c-.3,0-.345.2-.1.439a1.6,1.6,0,0,0,.972.442c.3,0,.345-.2.1-.438A1.605,1.605,0,0,0,917.088,696.45Z" transform="translate(-916.83 -696.45)" fill="#002ca7"/>
                </g>
                <g id="Group_10693" data-name="Group 10693">
                  <path id="Path_118457" data-name="Path 118457" d="M910.828,693.592c-.3,0-.345.2-.1.438a1.6,1.6,0,0,0,.974.442c.3,0,.344-.2.1-.438A1.6,1.6,0,0,0,910.828,693.592Z" transform="translate(-908.949 -693.586)" fill="#002ca7"/>
                  <path id="Path_118458" data-name="Path 118458" d="M913.639,696.44c-.3,0-.344.2-.1.439a1.6,1.6,0,0,0,.973.442c.3,0,.344-.2.1-.439A1.607,1.607,0,0,0,913.639,696.44Z" transform="translate(-910.438 -695.095)" fill="#002ca7"/>
                  <path id="Path_118459" data-name="Path 118459" d="M907.381,693.58c-.3,0-.344.2-.1.439a1.6,1.6,0,0,0,.974.442c.3,0,.344-.2.1-.438A1.6,1.6,0,0,0,907.381,693.58Z" transform="translate(-907.124 -693.58)" fill="#002ca7"/>
                  <path id="Path_118460" data-name="Path 118460" d="M910.192,696.43c-.3,0-.345.2-.105.438a1.6,1.6,0,0,0,.974.442c.3,0,.344-.2.1-.438A1.6,1.6,0,0,0,910.192,696.43Z" transform="translate(-908.612 -695.089)" fill="#002ca7"/>
                </g>
              </g>
              <g id="Group_10698" data-name="Group 10698">
                <g id="Group_10695" data-name="Group 10695" transform="translate(3.243 0.01)">
                  <path id="Path_118461" data-name="Path 118461" d="M869.528,693.385c-.3,0-.344.2-.1.438a1.6,1.6,0,0,0,.973.442c.3,0,.344-.2.1-.439A1.6,1.6,0,0,0,869.528,693.385Z" transform="translate(-859.127 -693.353)" fill="#002ca7"/>
                  <path id="Path_118462" data-name="Path 118462" d="M865.935,693.373c-.3,0-.344.2-.1.439a1.6,1.6,0,0,0,.973.442c.3,0,.344-.2.1-.438A1.6,1.6,0,0,0,865.935,693.373Z" transform="translate(-857.224 -693.346)" fill="#002ca7"/>
                  <path id="Path_118463" data-name="Path 118463" d="M862.34,693.361c-.3,0-.345.2-.1.439a1.6,1.6,0,0,0,.973.441c.3,0,.345-.2.105-.438A1.6,1.6,0,0,0,862.34,693.361Z" transform="translate(-855.32 -693.34)" fill="#002ca7"/>
                  <path id="Path_118464" data-name="Path 118464" d="M858.746,693.351c-.3,0-.345.2-.1.438a1.6,1.6,0,0,0,.974.443c.3,0,.345-.2.1-.439A1.6,1.6,0,0,0,858.746,693.351Z" transform="translate(-853.417 -693.335)" fill="#002ca7"/>
                  <path id="Path_118465" data-name="Path 118465" d="M855.153,693.34c-.3,0-.344.2-.105.438a1.61,1.61,0,0,0,.973.442c.3,0,.345-.2.1-.439A1.6,1.6,0,0,0,855.153,693.34Z" transform="translate(-851.514 -693.329)" fill="#002ca7"/>
                  <path id="Path_118466" data-name="Path 118466" d="M851.559,693.328c-.3,0-.345.2-.1.439a1.6,1.6,0,0,0,.973.441c.3,0,.344-.2.1-.438A1.6,1.6,0,0,0,851.559,693.328Z" transform="translate(-849.61 -693.322)" fill="#002ca7"/>
                  <path id="Path_118467" data-name="Path 118467" d="M847.965,693.316c-.3,0-.345.2-.105.439a1.606,1.606,0,0,0,.974.442c.3,0,.345-.2.1-.439A1.6,1.6,0,0,0,847.965,693.316Z" transform="translate(-847.707 -693.316)" fill="#002ca7"/>
                </g>
                <g id="Group_10696" data-name="Group 10696" transform="translate(4.565 1.35)">
                  <path id="Path_118468" data-name="Path 118468" d="M872.339,696.233c-.3,0-.344.2-.1.438a1.6,1.6,0,0,0,.974.442c.3,0,.345-.2.1-.438A1.6,1.6,0,0,0,872.339,696.233Z" transform="translate(-861.938 -696.201)" fill="#002ca7"/>
                  <path id="Path_118469" data-name="Path 118469" d="M868.745,696.222c-.3,0-.345.2-.1.438a1.6,1.6,0,0,0,.973.442c.3,0,.344-.2.1-.438A1.6,1.6,0,0,0,868.745,696.222Z" transform="translate(-860.034 -696.195)" fill="#002ca7"/>
                  <path id="Path_118470" data-name="Path 118470" d="M865.151,696.211c-.3,0-.344.2-.105.438a1.609,1.609,0,0,0,.974.442c.3,0,.344-.2.1-.439A1.6,1.6,0,0,0,865.151,696.211Z" transform="translate(-858.131 -696.189)" fill="#002ca7"/>
                  <path id="Path_118471" data-name="Path 118471" d="M861.557,696.2c-.3,0-.344.2-.1.439a1.607,1.607,0,0,0,.973.442c.3,0,.344-.2.105-.439A1.607,1.607,0,0,0,861.557,696.2Z" transform="translate(-856.228 -696.183)" fill="#002ca7"/>
                  <path id="Path_118472" data-name="Path 118472" d="M857.964,696.189c-.3,0-.345.2-.1.438a1.6,1.6,0,0,0,.973.443c.3,0,.345-.2.1-.439A1.6,1.6,0,0,0,857.964,696.189Z" transform="translate(-854.324 -696.178)" fill="#002ca7"/>
                  <path id="Path_118473" data-name="Path 118473" d="M854.37,696.177c-.3,0-.345.2-.105.438a1.6,1.6,0,0,0,.974.442c.3,0,.344-.2.1-.438A1.6,1.6,0,0,0,854.37,696.177Z" transform="translate(-852.421 -696.171)" fill="#002ca7"/>
                  <path id="Path_118474" data-name="Path 118474" d="M850.775,696.165c-.3,0-.345.2-.1.439a1.6,1.6,0,0,0,.973.442c.3,0,.344-.2.1-.438A1.6,1.6,0,0,0,850.775,696.165Z" transform="translate(-850.517 -696.165)" fill="#002ca7"/>
                </g>
                <g id="Group_10697" data-name="Group 10697">
                  <path id="Path_118475" data-name="Path 118475" d="M844.517,693.306c-.3,0-.343.2-.1.438a1.6,1.6,0,0,0,.973.443c.3,0,.345-.2.105-.439A1.609,1.609,0,0,0,844.517,693.306Z" transform="translate(-842.638 -693.301)" fill="#002ca7"/>
                  <path id="Path_118476" data-name="Path 118476" d="M847.329,696.154c-.3,0-.345.2-.1.439a1.6,1.6,0,0,0,.974.442c.3,0,.343-.2.1-.438A1.606,1.606,0,0,0,847.329,696.154Z" transform="translate(-844.127 -694.809)" fill="#002ca7"/>
                  <path id="Path_118477" data-name="Path 118477" d="M841.07,693.295c-.3,0-.345.2-.1.439a1.606,1.606,0,0,0,.973.442c.3,0,.343-.2.1-.439A1.6,1.6,0,0,0,841.07,693.295Z" transform="translate(-840.812 -693.295)" fill="#002ca7"/>
                  <path id="Path_118478" data-name="Path 118478" d="M843.881,696.144c-.3,0-.344.2-.1.438a1.6,1.6,0,0,0,.973.442c.3,0,.345-.2.105-.438A1.606,1.606,0,0,0,843.881,696.144Z" transform="translate(-842.301 -694.804)" fill="#002ca7"/>
                </g>
              </g>
            </g>
            <path id="Path_118479" data-name="Path 118479" d="M904.688,439.11,887.717,546.172c-.674,4.228-5.19,7.679-10.041,7.667l-47.073-.1h-.075c-.216,0-.429-.007-.64-.024a8.953,8.953,0,0,1-2.506-.524,7.557,7.557,0,0,1-1.667-.851,6.646,6.646,0,0,1-.757-.587s0,0,0,0a6.414,6.414,0,0,1-.689-.716c-.068-.083-.138-.169-.2-.26-.122-.162-.236-.33-.34-.5a.134.134,0,0,0-.023-.041c-.054-.092-.107-.187-.159-.284s-.1-.194-.145-.291-.078-.179-.114-.274a.319.319,0,0,1-.015-.029c-.036-.093-.072-.187-.1-.282a.149.149,0,0,0-.008-.024c-.033-.1-.064-.208-.1-.316a6.36,6.36,0,0,1-.141-2.709l16.928-107.01c.669-4.231,5.185-7.687,10.039-7.677l47.2.072c.1,0,.194,0,.288,0,.044,0,.082,0,.124.005.068,0,.138,0,.2.01s.133.008.2.015c.132.012.264.024.4.041.083.01.165.022.247.037.046.007.1.015.141.024.022,0,.046.008.066.012a1.817,1.817,0,0,1,.206.037c.037.008.073.016.11.022.089.019.175.039.257.061l.114.029c.08.02.163.044.243.066l.015,0c.111.031.221.068.333.1s.2.071.3.112a.206.206,0,0,1,.053.019c.1.036.192.078.286.116l.016.007c.1.048.211.1.31.146a7.03,7.03,0,0,1,2.105,1.555c.022.019.04.041.058.06l0,0c.005.008.012.013.017.02A6.179,6.179,0,0,1,904.688,439.11Z" transform="translate(-822.835 -431.334)" fill="#f7981c"/>
            <path id="Path_118480" data-name="Path 118480" d="M905.048,441.086l-.238,1.48L888.072,548.145a6.668,6.668,0,0,1-2.491,3.983,8.845,8.845,0,0,1-5.489,2.033l-22.613-.056h-.242l-1.007,0h-.03l-.849,0-2.532-.005h-.3l-2.651,0-1.206,0-4.475-.012-4.807-.012-6.447-.015a6.281,6.281,0,0,1-.684-.034,4.734,4.734,0,0,1-3.085-1.358,3.458,3.458,0,0,1-.752-2.906l11.48-72.555,4.468-28.243s1-6.328,1.016-6.386a7.1,7.1,0,0,1,3.263-4.393,8.746,8.746,0,0,1,4.705-1.45l2.406,0,1.592,0,3.623,0,29.15.044h.4l4.931.007,5.1.008a6.8,6.8,0,0,1,1.111.09,5,5,0,0,1,2.03.769,3.533,3.533,0,0,1,.619.529A3.429,3.429,0,0,1,905.048,441.086Z" transform="translate(-825.757 -434.188)" fill="#ffeedb"/>
            <g id="Group_10709" data-name="Group 10709" transform="translate(23.97 2.836)">
              <g id="Group_10707" data-name="Group 10707" transform="translate(0 1.354)">
                <g id="Group_10701" data-name="Group 10701" transform="translate(0 0.523)">
                  <g id="Group_10700" data-name="Group 10700" transform="translate(0.471)">
                    <path id="Path_118481" data-name="Path 118481" d="M875.241,441.353l-.07.375-.148.752v0l-.158.808-.073.376h5.468l.334-1.7.117-.611Zm.025.965.148-.752h5.046l-.287,1.467-.082.422h-5.048Z" transform="translate(-874.792 -441.353)" fill="#fff"/>
                  </g>
                  <path id="Path_118482" data-name="Path 118482" d="M878.542,443.68h3.62l.41-2.1h-3.62Z" transform="translate(-876.307 -441.471)" fill="#fff"/>
                  <path id="Path_118483" data-name="Path 118483" d="M873.792,443.714h.648l.3-1.56h-.649Z" transform="translate(-873.792 -441.777)" fill="#fff"/>
                </g>
                <g id="Group_10702" data-name="Group 10702" transform="translate(49.598 0.256)">
                  <path id="Path_118484" data-name="Path 118484" d="M985.67,444.54h.728l.22-1.127h-.729Z" transform="translate(-982.64 -442.177)" fill="#fff"/>
                  <path id="Path_118485" data-name="Path 118485" d="M982.412,443.922h.728l.327-1.676h-.729Z" transform="translate(-980.914 -441.559)" fill="#fff"/>
                  <path id="Path_118486" data-name="Path 118486" d="M979.228,443.149h.729l.458-2.363h-.728Z" transform="translate(-979.228 -440.785)" fill="#fff"/>
                </g>
                <g id="Group_10706" data-name="Group 10706" transform="translate(42.654)">
                  <g id="Group_10703" data-name="Group 10703" transform="translate(0.896 1.672)">
                    <path id="Path_118487" data-name="Path 118487" d="M966.49,444.461a.17.17,0,0,0,.11-.043,1.177,1.177,0,0,1,.769-.339.834.834,0,0,1,.611.333.137.137,0,0,0,.2.014.153.153,0,0,0,.053-.2,1.052,1.052,0,0,0-.8-.43,1.5,1.5,0,0,0-1,.424.148.148,0,0,0-.038.2A.118.118,0,0,0,966.49,444.461Z" transform="translate(-966.373 -443.795)" fill="#fff"/>
                  </g>
                  <g id="Group_10704" data-name="Group 10704" transform="translate(0.591 0.883)">
                    <path id="Path_118488" data-name="Path 118488" d="M965.843,442.976a.174.174,0,0,0,.109-.042,1.9,1.9,0,0,1,1.212-.531h0a1.5,1.5,0,0,1,1.089.531.141.141,0,0,0,.2,0,.149.149,0,0,0,.042-.2,1.708,1.708,0,0,0-1.272-.617h-.005a2.233,2.233,0,0,0-1.431.616.147.147,0,0,0-.037.2A.119.119,0,0,0,965.843,442.976Z" transform="translate(-965.725 -442.119)" fill="#fff"/>
                  </g>
                  <g id="Group_10705" data-name="Group 10705">
                    <path id="Path_118489" data-name="Path 118489" d="M968.343,441.406a.173.173,0,0,0,.1-.037.151.151,0,0,0,.048-.2,2.414,2.414,0,0,0-1.812-.927h-.035a3.317,3.317,0,0,0-2.117.924.147.147,0,0,0-.036.2.141.141,0,0,0,.2,0,2.918,2.918,0,0,1,1.929-.838,2.212,2.212,0,0,1,1.625.835A.114.114,0,0,0,968.343,441.406Z" transform="translate(-964.468 -440.241)" fill="#fff"/>
                  </g>
                  <path id="Path_118490" data-name="Path 118490" d="M967.376,445.628a.272.272,0,0,0,.273.339.433.433,0,0,0,.405-.339.271.271,0,0,0-.273-.339A.432.432,0,0,0,967.376,445.628Z" transform="translate(-966.005 -442.914)" fill="#fff"/>
                </g>
              </g>
              <g id="Group_10708" data-name="Group 10708" transform="translate(13.663)">
                <path id="Path_118491" data-name="Path 118491" d="M903.82,438c-.993.759-1.28,1.9-.644,2.543a2.356,2.356,0,0,0,2.951-.206c.993-.761,1.28-1.9.644-2.545A2.356,2.356,0,0,0,903.82,438Z" transform="translate(-902.838 -437.362)" fill="#eb8e14"/>
                <path id="Path_118492" data-name="Path 118492" d="M904.72,438.82c-.755.577-1,1.415-.551,1.871a1.769,1.769,0,0,0,2.182-.218c.757-.578,1-1.417.552-1.874A1.771,1.771,0,0,0,904.72,438.82Z" transform="translate(-903.424 -437.865)" fill="#eb8e14"/>
                <path id="Path_118493" data-name="Path 118493" d="M930.725,438.516c-.028-.007-.052-.007-.086-.013H930.6c-.006,0-.013-.006-.02-.006l-13.482-.019c-.019,0-.043.006-.063.006a1.94,1.94,0,0,0-1.1.413c-.623.476-.827,1.173-.448,1.56a.891.891,0,0,0,.426.216.807.807,0,0,0,.139.025h.362l13.14.057c.012,0,.037-.006.055-.006a1.9,1.9,0,0,0,1.174-.419,1.479,1.479,0,0,0,.641-1.059.7.7,0,0,0-.212-.526A.881.881,0,0,0,930.725,438.516Z" transform="translate(-909.437 -437.953)" fill="#eb8e14"/>
                <path id="Path_118494" data-name="Path 118494" d="M919.409,440.129a1.887,1.887,0,0,0-1.1.412,1.484,1.484,0,0,0-.634,1.027l13.14.057c.012,0,.037-.006.056-.006a1.9,1.9,0,0,0,1.174-.419,1.48,1.48,0,0,0,.641-1.059l-13.215-.019A.191.191,0,0,0,919.409,440.129Z" transform="translate(-910.696 -438.824)" fill="#eb8e14"/>
                <path id="Path_118495" data-name="Path 118495" d="M905.037,440.434c-.308.236-.408.578-.225.763a.721.721,0,0,0,.89-.089c.308-.236.409-.577.225-.763A.721.721,0,0,0,905.037,440.434Z" transform="translate(-903.835 -438.879)" fill="#eb8e14"/>
                <path id="Path_118496" data-name="Path 118496" d="M907.868,439.748c-.172.132-.228.323-.126.427a.4.4,0,0,0,.5-.049c.172-.133.229-.323.126-.428A.4.4,0,0,0,907.868,439.748Z" transform="translate(-905.408 -438.565)" fill="#eb8e14"/>
              </g>
            </g>
            <path id="Path_118497" data-name="Path 118497" d="M889.889,693.94a.412.412,0,0,0-.3-.15h-7.693c-.254,0-.349.28-.169.494l1.029,1.224a.407.407,0,0,0,.3.15h7.693c.254,0,.35-.279.169-.493Z" transform="translate(-853.973 -570.33)" fill="#002ca7"/>
          </g>
          <g id="Group_10711" data-name="Group 10711" transform="translate(24.949 24.77)">
            <path id="Path_118498" data-name="Path 118498" d="M839.7,662.742h48.011a1.184,1.184,0,0,0,1.172-1.014l1.353-9.291a1.184,1.184,0,0,0-1.172-1.355H841.054a1.184,1.184,0,0,0-1.172,1.014l-1.352,9.291A1.185,1.185,0,0,0,839.7,662.742Z" transform="translate(-838.517 -572.482)" fill="#f2a22f"/>
            <path id="Path_118499" data-name="Path 118499" d="M843.78,620.584h21.076a1.185,1.185,0,0,0,1.171-1l2.964-19.348a1.186,1.186,0,0,0-1.172-1.365H846.745a1.186,1.186,0,0,0-1.171,1.005l-2.964,19.349A1.184,1.184,0,0,0,843.78,620.584Z" transform="translate(-840.677 -544.829)" fill="#ff550d"/>
            <path id="Path_118500" data-name="Path 118500" d="M852.338,581.421h8.37a1.185,1.185,0,0,0,1.171-1.005l1.163-7.592a1.185,1.185,0,0,0-1.171-1.364H853.5a1.185,1.185,0,0,0-1.171,1.005l-1.164,7.592A1.185,1.185,0,0,0,852.338,581.421Z" transform="translate(-845.209 -530.314)" fill="#31d156"/>
            <path id="Path_118501" data-name="Path 118501" d="M879.338,581.421h8.37a1.185,1.185,0,0,0,1.171-1.005l1.163-7.592a1.185,1.185,0,0,0-1.171-1.364H880.5a1.185,1.185,0,0,0-1.171,1.005l-1.164,7.592A1.185,1.185,0,0,0,879.338,581.421Z" transform="translate(-859.508 -530.314)" fill="#bfd8f6"/>
            <path id="Path_118502" data-name="Path 118502" d="M856.338,555.421h8.37a1.185,1.185,0,0,0,1.171-1.005l1.163-7.592a1.185,1.185,0,0,0-1.171-1.364H857.5a1.185,1.185,0,0,0-1.171,1.005l-1.164,7.592A1.185,1.185,0,0,0,856.338,555.421Z" transform="translate(-847.327 -516.545)" fill="#1991eb"/>
            <path id="Path_118503" data-name="Path 118503" d="M883.338,555.421h8.37a1.185,1.185,0,0,0,1.171-1.005l1.163-7.592a1.185,1.185,0,0,0-1.171-1.364H884.5a1.185,1.185,0,0,0-1.171,1.005l-1.164,7.592A1.185,1.185,0,0,0,883.338,555.421Z" transform="translate(-861.626 -516.545)" fill="#31d156"/>
            <path id="Path_118504" data-name="Path 118504" d="M919.619,519.954h8.37a1.184,1.184,0,0,0,1.171-1.006l1.164-7.592a1.185,1.185,0,0,0-1.171-1.365h-8.37A1.185,1.185,0,0,0,919.611,511l-1.163,7.592A1.185,1.185,0,0,0,919.619,519.954Z" transform="translate(-880.841 -497.762)" fill="#c5273c"/>
            <path id="Path_118505" data-name="Path 118505" d="M946.619,519.954h8.37a1.184,1.184,0,0,0,1.171-1.006l1.164-7.592a1.185,1.185,0,0,0-1.171-1.365h-8.37A1.185,1.185,0,0,0,946.611,511l-1.163,7.592A1.185,1.185,0,0,0,946.619,519.954Z" transform="translate(-895.14 -497.762)" fill="#ff550d"/>
            <path id="Path_118506" data-name="Path 118506" d="M923.619,493.954h8.37a1.184,1.184,0,0,0,1.171-1.006l1.164-7.592a1.185,1.185,0,0,0-1.171-1.365h-8.37A1.185,1.185,0,0,0,923.611,485l-1.163,7.592A1.185,1.185,0,0,0,923.619,493.954Z" transform="translate(-882.959 -483.992)" fill="#1991eb"/>
            <path id="Path_118507" data-name="Path 118507" d="M950.619,493.954h8.37a1.184,1.184,0,0,0,1.171-1.006l1.164-7.592a1.185,1.185,0,0,0-1.171-1.365h-8.37A1.185,1.185,0,0,0,950.611,485l-1.163,7.592A1.185,1.185,0,0,0,950.619,493.954Z" transform="translate(-897.258 -483.992)" fill="#bfd8f6"/>
          </g>
        </g>
        <g id="Group_10753" data-name="Group 10753" transform="translate(182.738 176.166)">
          <g id="Group_10747" data-name="Group 10747">
            <g id="Group_10744" data-name="Group 10744" transform="translate(15.994)">
              <path id="Path_118538" data-name="Path 118538" d="M534.483,410h-4.7l-3.293,98.784h11.29Z" transform="translate(-523.193 -410)" fill="#0266e7"/>
              <path id="Path_118539" data-name="Path 118539" d="M527.483,410h-4.7l-3.293,98.784h11.29Z" transform="translate(-519.486 -410)" fill="#007fe0"/>
            </g>
            <g id="Group_10745" data-name="Group 10745" transform="translate(100.666)">
              <path id="Path_118540" data-name="Path 118540" d="M714.483,410h-4.7l-3.293,98.784h11.29Z" transform="translate(-703.193 -410)" fill="#0266e7"/>
              <path id="Path_118541" data-name="Path 118541" d="M707.483,410h-4.7l-3.293,98.784h11.29Z" transform="translate(-699.486 -410)" fill="#007fe0"/>
            </g>
            <g id="Group_10746" data-name="Group 10746" transform="translate(0 98.784)">
              <rect id="Rectangle_22519" data-name="Rectangle 22519" width="131.713" height="28.224" rx="10" transform="translate(13.642)" fill="#0266e7"/>
              <rect id="Rectangle_22520" data-name="Rectangle 22520" width="131.713" height="28.224" rx="10" fill="#007fe0"/>
              <path id="Path_118542" data-name="Path 118542" d="M612.619,638H509.131a5.645,5.645,0,0,0-5.645,5.645h0a5.645,5.645,0,0,0,5.645,5.645H612.619a5.645,5.645,0,0,0,5.645-5.645h0A5.645,5.645,0,0,0,612.619,638Z" transform="translate(-495.019 -629.533)" fill="#e9f5fb"/>
              <path id="Rectangle_22521" data-name="Rectangle 22521" d="M0,0H112.9a0,0,0,0,1,0,0V6.408a3,3,0,0,1-3,3H3a3,3,0,0,1-3-3V0A0,0,0,0,1,0,0Z" transform="translate(23.05 28.224)" fill="#0266e7"/>
              <rect id="Rectangle_22522" data-name="Rectangle 22522" width="112.897" height="2.822" transform="translate(23.05 28.224)" fill="#1c0600" opacity="0.2"/>
              <path id="Rectangle_22523" data-name="Rectangle 22523" d="M0,0H112.9a0,0,0,0,1,0,0V6.408a3,3,0,0,1-3,3H3a3,3,0,0,1-3-3V0A0,0,0,0,1,0,0Z" transform="translate(9.408 28.224)" fill="#007fe0"/>
              <rect id="Rectangle_22524" data-name="Rectangle 22524" width="112.897" height="2.822" transform="translate(9.408 28.224)" fill="#1c0600" opacity="0.2"/>
              <circle id="Ellipse_3181" data-name="Ellipse 3181" cx="2.352" cy="2.352" r="2.352" transform="translate(11.76 11.76)" fill="#ff550d"/>
              <circle id="Ellipse_3182" data-name="Ellipse 3182" cx="2.352" cy="2.352" r="2.352" transform="translate(21.168 11.76)" fill="#ff550d"/>
              <circle id="Ellipse_3183" data-name="Ellipse 3183" cx="2.352" cy="2.352" r="2.352" transform="translate(30.576 11.76)" fill="#ff550d"/>
              <circle id="Ellipse_3184" data-name="Ellipse 3184" cx="2.352" cy="2.352" r="2.352" transform="translate(39.984 11.76)" fill="#ff550d"/>
              <circle id="Ellipse_3185" data-name="Ellipse 3185" cx="2.352" cy="2.352" r="2.352" transform="translate(49.392 11.76)" fill="#ff550d"/>
              <circle id="Ellipse_3186" data-name="Ellipse 3186" cx="2.352" cy="2.352" r="2.352" transform="translate(58.8 11.76)" fill="#ff550d"/>
            </g>
          </g>
          <g id="Group_10752" data-name="Group 10752" transform="translate(50.54 21.504)">
            <path id="Path_118543" data-name="Path 118543" d="M671.773,588.876c-4.872-1.721-34.992-.869-47.566,1.689-5.35,1.088-4.907,7.816-.094,9.667,12.859,4.945,29.3,5.168,40.614,4.2C674.669,603.586,677.031,590.735,671.773,588.876Z" transform="translate(-607.448 -525.761)"/>
            <path id="Path_118544" data-name="Path 118544" d="M701.4,678.79l-1.961,2.593a11.562,11.562,0,0,1,1.318,1.318c.762,1.016-1.086,6.061.286,6.6.647.253,1.733-1.233,2.209-2.448.44-1.127,1.28-3.242,1.539-3.936.329-.885,1.177-2.287.977-2.742-.525-1.182-2.039-.536-2.878-.865C702.167,679.025,701.4,678.79,701.4,678.79Z" transform="translate(-649.335 -573.855)" fill="#002caa"/>
            <path id="Path_118545" data-name="Path 118545" d="M699.1,681.059a6,6,0,0,1,1.478,1.273s.194.436.78.011c.48-.348,1.353-3.4,1.353-3.4-.719-.295-2.158-.845-2.158-.845Z" transform="translate(-649.156 -573.487)" fill="#fff"/>
            <path id="Path_118546" data-name="Path 118546" d="M684.42,579.235c-5.124-.667-36.986,7.354-48.75,12.482-5,2.181-3.167,8.668,1.928,9.473,13.608,2.15,31.928,1.979,42.794-1.329C689.938,596.956,689.951,579.956,684.42,579.235Z" transform="translate(-614 -521.11)"/>
            <path id="Path_118547" data-name="Path 118547" d="M635.02,616.679c16.575,15.217,28.915,26.542,28.915,26.542,1.26-.278,2.56-1.6,3.439-2.87,0,0-10.115-14.255-22.094-30.013C637.38,599.949,628.26,610.472,635.02,616.679Z" transform="translate(-613.969 -535.281)"/>
            <path id="Path_118548" data-name="Path 118548" d="M602.311,687.916l-3.217-.469a11.56,11.56,0,0,1-.521,1.79c-.522,1.157-5.833,1.97-5.642,3.429.091.689,1.915.926,3.209.757,1.2-.157,3.458-.439,4.19-.548.935-.138,2.572-.07,2.874-.467.783-1.027-.512-2.045-.628-2.937C602.474,688.7,602.311,687.916,602.311,687.916Z" transform="translate(-592.926 -578.44)" fill="#002caa"/>
            <path id="Path_118549" data-name="Path 118549" d="M605.267,687.021a5.975,5.975,0,0,1-.405,1.908s-.286.381.368.689c.536.253,3.634-.454,3.634-.454-.088-.773-.3-2.3-.3-2.3Z" transform="translate(-599.214 -578.132)" fill="#fff"/>
            <path id="Path_118550" data-name="Path 118550" d="M610.661,598.712c-3.286,22.259-5.729,38.829-5.729,38.829a4.781,4.781,0,0,0,4.536.619s6.006-16.126,12.318-34.887C625.947,590.9,612,589.632,610.661,598.712Z" transform="translate(-599.284 -528.315)"/>
            <path id="Path_118551" data-name="Path 118551" d="M724.873,464.62c1.535,4.9,2.827,5.063,4.628,6.286,8.892,6.041-1.842,20.367-4.02,15.444-.85-1.918,4.368-4.905-3.458-7.646-8.651-3.028-6-7.269-5.815-10.118.7-10.8-4.19-7.855-5.213-5.606-.606,1.332-1.339.843-1.668-.207C707.989,458.5,719.779,448.37,724.873,464.62Z" transform="translate(-654.516 -455.715)"/>
            <g id="Group_10748" data-name="Group 10748" transform="translate(20.464 25.18)">
              <path id="Path_118552" data-name="Path 118552" d="M643.782,577.547a6.1,6.1,0,0,0,1.786.462.837.837,0,0,1-.876.869,3.731,3.731,0,0,1-1.641-1.3C642.992,577.073,643.482,577.4,643.782,577.547Z" transform="translate(-639.934 -545.29)" fill="#fff"/>
              <path id="Path_118553" data-name="Path 118553" d="M638.109,580.493c.115-.073,1.739-1.107,2.511-1.484.649-.325,1.381-.52,2.1-.92a18.636,18.636,0,0,1,1.669,2.605c-1.076.558-6.632,3.687-6.39,2.264.017-.1-.98.407-1.032-.245a.62.62,0,0,1-.443-.325.737.737,0,0,1,.2-.951C636.96,581.23,637.79,580.722,638.109,580.493Z" transform="translate(-636.43 -545.704)" fill="#fff"/>
              <path id="Path_118554" data-name="Path 118554" d="M664.251,529.975c.085-.4,1.671-12.319,4.816-18.252,1.666-3.142,7.448-4.086,7.448,1.933,0,3.87-4.462,14.5-7.066,18.1-2.461,3.507-13.649,10.351-18.69,12.736l-1.483-2.747c2.038-.915,6.68-4.838,10.411-7.989C661.4,532.315,663.014,530.948,664.251,529.975Z" transform="translate(-643.234 -509.244)" fill="#ffcfb5"/>
            </g>
            <path id="Path_118555" data-name="Path 118555" d="M683.089,521.691a26.778,26.778,0,0,1,2.568-8.576c2.838-5.309,7.491-1.749,7.477,1.8a37.12,37.12,0,0,1-.729,8.781Z" transform="translate(-640.676 -484.684)" fill="#e2410f"/>
            <path id="Path_118556" data-name="Path 118556" d="M709.114,486.533c-.174,1.6.445,6.028,1.025,6.844-1.215,2.981-6.013,3.145-6.405,1.425.7-1.889-.226-5.322-.247-5.649C704.674,489.289,708.726,486.842,709.114,486.533Z" transform="translate(-651.479 -472.036)" fill="#fcc09f"/>
            <path id="Path_118557" data-name="Path 118557" d="M686.466,543.742c2.622,3.544,14.26,5.23,24.91.685l.49-6.682,2.1,15.442a2.922,2.922,0,0,0,2.682-.163c2.848-31.363.264-46.972-10.339-50.828-1.185-.427-4.914-1.115-4.914-1.115s-2.486,2.519-4.2,2.519c-2.347,0-2.206-1.093-2.206-1.093a28.381,28.381,0,0,0-3.906,1.367c-2.169,1.367-2.567,4.153-2.632,6.842-.02.914,0,1.818,0,2.648,0,.911-.055,2.017-.146,3.282-.31,4.3-1.04,10.441-1.482,17.158-.091,1.4-.174,2.822-.231,4.261C686.511,539.94,686.466,541.843,686.466,543.742Z" transform="translate(-642.465 -479.741)" fill="#ff550d"/>
            <path id="Path_118558" data-name="Path 118558" d="M702.289,503.414c1.711,0,4.415-2.332,4.415-2.332s1.917.313,2.513.413a10.962,10.962,0,0,1,2.4.7c-4.685,2.482-11.729,9.071-11.729,9.071s-3.033-4.01-3.407-7.444a28.558,28.558,0,0,1,3.816-1.319S700.6,503.414,702.289,503.414Z" transform="translate(-647.769 -479.741)" fill="#e2410f"/>
            <path id="Path_118559" data-name="Path 118559" d="M695.124,474.613c2.637-.567,4.841,1.237,5.4,3.848.007.027.584,2.713.584,2.713.422,1.969-1.95,5.721-3.743,5.727-4.243.013-6.7-7.237-6.747-8.106C690.5,476.368,692.67,475.14,695.124,474.613Z" transform="translate(-644.662 -465.668)" fill="#ffcfb5"/>
            <path id="Path_118560" data-name="Path 118560" d="M689.773,471s4.478-4.94,8.909-2.763c6.673,3.278,2,10.658,2,10.658-1.319-1.621-4-7.982-9.6-6.286,0,0-2.613,2.314-.431,6.519C688.5,478.789,685.853,472.979,689.773,471Z" transform="translate(-643.151 -462.052)"/>
            <path id="Path_118561" data-name="Path 118561" d="M686.737,544.7c5.824-2.464,13.849-6.535,16.109-9.1a49.911,49.911,0,0,0,5.737-8.913l.547.225a26.756,26.756,0,0,0,2.731-8.525c.659-5.984-5.191-5.677-7.188-2.737a37.111,37.111,0,0,0-4.365,7.654l.59.242s0,.01,0,.013c-1.779,4.805-2.936,9.457-3.018,9.7-1.338.832-3.1,2.016-4.95,3.259-1.905,1.279-4.026,2.7-5.96,3.925C686.877,541.835,686.794,543.258,686.737,544.7Z" transform="translate(-642.608 -486.372)" fill="#e2410f"/>
            <path id="Path_118562" data-name="Path 118562" d="M711.108,482.387a2.4,2.4,0,0,1-.8,2.2,32.708,32.708,0,0,1-1.972-2.631,2.282,2.282,0,0,1,.969-.681A1.71,1.71,0,0,1,711.108,482.387Z" transform="translate(-654.049 -469.228)" fill="#ffcfb5"/>
            <path id="Path_118563" data-name="Path 118563" d="M706.773,465.59a1.653,1.653,0,0,1,1.027-.031c1.509.41,1.8,1.295,1.654,2.229a8.8,8.8,0,0,0-3.739-1.244A2.141,2.141,0,0,1,706.773,465.59Z" transform="translate(-652.659 -460.893)" fill="#f7981c"/>
            <g id="Group_10750" data-name="Group 10750" transform="translate(5.664 34.918)">
              <g id="Group_10749" data-name="Group 10749" transform="translate(32.938 24.09)">
                <path id="Path_118564" data-name="Path 118564" d="M702.817,581.156v.007a1.093,1.093,0,0,1-1.089,1.09H676.077a1.092,1.092,0,0,1-1.09-1.09v-.007Z" transform="translate(-674.987 -581.156)" fill="#0066e9"/>
              </g>
              <path id="Path_118565" data-name="Path 118565" d="M649.165,531.423l5.347,22.329c.089.356.01,1.384-1.321,1.384l-21.733-.273V529.955l15.739.006A1.989,1.989,0,0,1,649.165,531.423Z" transform="translate(-618.997 -529.95)" fill="#0066e9"/>
              <path id="Path_118566" data-name="Path 118566" d="M605.606,529.945h27.781a.639.639,0,0,1,.616.468l5.722,23.908a.639.639,0,0,1-.616.81H613.24a3.155,3.155,0,0,1-3.04-2.312l-5.211-22.064A.64.64,0,0,1,605.606,529.945Z" transform="translate(-604.966 -529.945)" fill="#007fe2"/>
              <path id="Path_118567" data-name="Path 118567" d="M660.283,573.268h7.075l-1.429-6.479Z" transform="translate(-634.262 -549.457)" fill="#0066e9"/>
              <path id="Path_118568" data-name="Path 118568" d="M641.321,538.361l-1.414-6.412H637.9l-19.925,22.868h9.009Z" transform="translate(-611.855 -531.006)" fill="#0066e9"/>
            </g>
            <g id="Group_10751" data-name="Group 10751" transform="translate(32.01 25.07)">
              <path id="Path_118569" data-name="Path 118569" d="M669.845,570.792a6.147,6.147,0,0,0,1.725.655.837.837,0,0,1-.967.767,3.736,3.736,0,0,1-1.488-1.47C669.111,570.233,669.562,570.612,669.845,570.792Z" transform="translate(-665.286 -541.569)" fill="#ffcfb5"/>
              <path id="Path_118570" data-name="Path 118570" d="M676.414,541.616c5.274-1.823,17.145-7.4,19.976-10.611a50.465,50.465,0,0,0,5.8-9.036c1.677-3.2,3.016-6.376,3.215-8.179.659-5.983-5.192-5.678-7.189-2.738a38.965,38.965,0,0,0-3.778,7.908c-1.776,4.807-2.937,9.459-3.018,9.7-1.338.831-3.1,2.015-4.949,3.258-3.9,2.622-8.716,5.85-10.97,6.7a.177.177,0,0,1-.049.019c-.072.027-.143.054-.209.075v.006l1.163,2.865Z" transform="translate(-668.531 -509.011)" fill="#ffcfb5"/>
              <path id="Path_118571" data-name="Path 118571" d="M667.817,572.065a22.169,22.169,0,0,0-2.441.9c-.809.33-2.532,1.27-2.652,1.336a10.818,10.818,0,0,0-1.466.865,1.663,1.663,0,0,0-.274.953.5.5,0,0,0,.428.36c0,.428,1.055.216,1.032.32-.091.427.464.683,1.8-.085.08-.046,3.722-1.286,4.854-1.778A29.442,29.442,0,0,0,667.817,572.065Z" transform="translate(-660.975 -542.404)" fill="#ffcfb5"/>
            </g>
            <path id="Path_118572" data-name="Path 118572" d="M723.626,522.316a26.8,26.8,0,0,0,2.73-8.527c.659-5.983-5.192-5.678-7.189-2.738a37.16,37.16,0,0,0-4.363,7.655Z" transform="translate(-657.473 -483.94)" fill="#ff550d"/>
          </g>
        </g>
        <g id="Group_10767" data-name="Group 10767" transform="translate(0 172.212)">
          <g id="Group_10764" data-name="Group 10764">
            <g id="Group_10758" data-name="Group 10758">
              <g id="Group_10757" data-name="Group 10757">
                <g id="Group_10754" data-name="Group 10754" transform="translate(58.318 109.806)">
                  <path id="Path_118573" data-name="Path 118573" d="M320.529,690.965a2.778,2.778,0,0,1-2.778,2.779H286.3v-5.557h31.449A2.778,2.778,0,0,1,320.529,690.965Z" transform="translate(-255.578 -663.18)" fill="#157ecc"/>
                  <path id="Path_118574" data-name="Path 118574" d="M241.984,635.026H273.72l1.022,10.58a5.385,5.385,0,0,1-1.553,4.33l-10.076,10.1H232.349l10.04-12.1Z" transform="translate(-227.005 -635.026)" fill="#00a6e0"/>
                  <path id="Path_118575" data-name="Path 118575" d="M285.016,639.664H252.978l-.146-4.637h31.736Z" transform="translate(-237.853 -635.026)" fill="#157ecc"/>
                  <path id="Path_118576" data-name="Path 118576" d="M232.952,646.007l-1.121-10.981h5.581l1.023,10.58a5.386,5.386,0,0,1-1.553,4.33l-10.1,10.1h26.086a2.778,2.778,0,1,1,0,5.557H226.377A5.386,5.386,0,0,1,221.1,661.3a5.6,5.6,0,0,1,1.63-5.064Z" transform="translate(-220.988 -635.026)" fill="#157ecc"/>
                </g>
                <g id="Group_10755" data-name="Group 10755">
                  <path id="Path_118577" data-name="Path 118577" d="M97.05,411.736l7.965,91.251a9.327,9.327,0,0,0,9.29,8.516H253.588c.08,0,.163,0,.243,0a9.327,9.327,0,0,0,9.048-10.135l-7.964-91.252a9.325,9.325,0,0,0-9.29-8.514H106.342A9.325,9.325,0,0,0,97.05,411.736Z" transform="translate(-97.014 -401.598)" fill="#1991eb"/>
                  <path id="Path_118578" data-name="Path 118578" d="M105.062,411.7l7.968,91.324a9.3,9.3,0,0,0,9.258,8.479H261.644a9.3,9.3,0,0,0,9.107-7.408,9.082,9.082,0,0,0,.147-2.686l-7.969-91.324a9.3,9.3,0,0,0-9.257-8.487H114.316c-.079,0-.16,0-.24,0A9.3,9.3,0,0,0,105.062,411.7Z" transform="translate(-101.258 -401.596)" fill="#00a6e0"/>
                  <path id="Path_118579" data-name="Path 118579" d="M272.054,517.489l-7.543-86.443H117.653l.009.108,7.593,86.975a3.716,3.716,0,0,0,3.729,3.408H268.338a3.732,3.732,0,0,0,3.716-4.049Z" transform="translate(-107.944 -417.193)" fill="#bdd6f4"/>
                  <path id="Path_118580" data-name="Path 118580" d="M264.073,421.615l-.418-4.79a3.718,3.718,0,0,0-3.729-3.409H120.583a3.741,3.741,0,0,0-3.729,4.06l.369,4.234H264.081Z" transform="translate(-107.514 -407.856)" fill="#e7f3f9"/>
                </g>
                <g id="Group_10756" data-name="Group 10756" transform="translate(13.701 7.775)">
                  <ellipse id="Ellipse_3187" data-name="Ellipse 3187" cx="1.882" cy="2.117" rx="1.882" ry="2.117" fill="#bdd6f4"/>
                  <ellipse id="Ellipse_3188" data-name="Ellipse 3188" cx="1.882" cy="2.117" rx="1.882" ry="2.117" transform="translate(6.115)" fill="#bdd6f4"/>
                  <ellipse id="Ellipse_3189" data-name="Ellipse 3189" cx="1.882" cy="2.117" rx="1.882" ry="2.117" transform="translate(12.23)" fill="#bdd6f4"/>
                </g>
              </g>
            </g>
            <g id="Group_10763" data-name="Group 10763" transform="translate(20.357 20.955)">
              <g id="Group_10759" data-name="Group 10759" transform="translate(45.886 42.051)">
                <path id="Path_118581" data-name="Path 118581" d="M272.962,570.817h-29.19a3.284,3.284,0,0,1-3.192-2.94l-2.73-29.4a2.634,2.634,0,0,1,2.667-2.94h29.4a3.266,3.266,0,0,1,3.192,2.94l2.52,29.4A2.647,2.647,0,0,1,272.962,570.817Z" transform="translate(-237.837 -535.537)" fill="#e9f5fb"/>
                <path id="Path_118582" data-name="Path 118582" d="M277.962,570.817h-29.19a3.284,3.284,0,0,1-3.192-2.94l-2.73-29.4a2.634,2.634,0,0,1,2.667-2.94h29.4a3.266,3.266,0,0,1,3.192,2.94l2.52,29.4A2.647,2.647,0,0,1,277.962,570.817Z" transform="translate(-240.485 -535.537)" fill="#fff"/>
                <path id="Path_118583" data-name="Path 118583" d="M275.978,553.02a5.11,5.11,0,0,0-4.987-4.586,4.117,4.117,0,0,0-4.165,4.585,5.118,5.118,0,0,0,4.987,4.585A4.122,4.122,0,0,0,275.978,553.02Z" transform="translate(-253.18 -542.367)" fill="#ff550d"/>
                <path id="Path_118584" data-name="Path 118584" d="M277.4,560.537l-11.555,14.112-8.968-7.388-3.9,4.154.893,9.7,29.206,0-1.469-17.052Z" transform="translate(-245.855 -548.777)" fill="#ff550d"/>
              </g>
              <g id="Group_10760" data-name="Group 10760" transform="translate(42.123 0)">
                <path id="Path_118585" data-name="Path 118585" d="M265.193,481.424h-29.4a3.3,3.3,0,0,1-3.213-2.94l-2.73-29.4a2.634,2.634,0,0,1,2.667-2.94h29.4a3.3,3.3,0,0,1,3.213,2.94l2.73,29.4A2.635,2.635,0,0,1,265.193,481.424Z" transform="translate(-229.837 -446.144)" fill="#0066e9"/>
                <path id="Path_118586" data-name="Path 118586" d="M270.193,481.424h-29.4a3.3,3.3,0,0,1-3.213-2.94l-2.73-29.4a2.634,2.634,0,0,1,2.667-2.94h29.4a3.3,3.3,0,0,1,3.213,2.94l2.73,29.4A2.635,2.635,0,0,1,270.193,481.424Z" transform="translate(-232.485 -446.144)" fill="#007fe2"/>
                <path id="Path_118587" data-name="Path 118587" d="M273.568,469.018a14.5,14.5,0,0,0-14.194-12.874,11.593,11.593,0,0,0-11.666,13A14.5,14.5,0,0,0,261.9,482.016,11.592,11.592,0,0,0,273.568,469.018Z" transform="translate(-239.268 -451.44)" fill="#fff"/>
                <path id="Path_118588" data-name="Path 118588" d="M276.533,474.738l-10.051-6.629a.644.644,0,0,0-1.036.57l1.3,13.348a.744.744,0,0,0,1.146.559l8.748-6.719A.7.7,0,0,0,276.533,474.738Z" transform="translate(-248.693 -457.71)" fill="#007fe2"/>
              </g>
              <g id="Group_10761" data-name="Group 10761">
                <path id="Path_118589" data-name="Path 118589" d="M140.906,457.857a15.748,15.748,0,0,1,8.357-10.066c7.1-3.466,16.251-1.32,21.71,5.1,7.157,8.443,5.678,20.455-2.726,25.912a16.59,16.59,0,0,1-11.163,2.482,19.287,19.287,0,0,1-13.407-8.243A18.209,18.209,0,0,1,140.906,457.857Z" transform="translate(-140.29 -446.143)" fill="#e2410f"/>
                <path id="Path_118590" data-name="Path 118590" d="M145.093,457.857a15.747,15.747,0,0,1,8.357-10.066c7.1-3.466,16.251-1.32,21.71,5.1,7.157,8.443,5.678,20.455-2.726,25.912a16.589,16.589,0,0,1-11.163,2.482,19.287,19.287,0,0,1-13.406-8.243A18.209,18.209,0,0,1,145.093,457.857Z" transform="translate(-142.508 -446.143)" fill="#ff550d"/>
                <path id="Path_118591" data-name="Path 118591" d="M180.27,470.538a.469.469,0,0,1,.447-.214l1.684.154a9.019,9.019,0,0,0-1.537-4.008,9.413,9.413,0,0,0-5.611-3.852,8.231,8.231,0,0,0-6.408,1.043A1.375,1.375,0,0,1,167,463.23a1.279,1.279,0,0,1,.293-1.82c5.026-3.255,12.085-1.607,15.72,3.672a11.956,11.956,0,0,1,2.074,5.642l1.877.172a.554.554,0,0,1,.437.3.5.5,0,0,1-.01.509l-3.222,5.1a.461.461,0,0,1-.4.216l-.048,0a.555.555,0,0,1-.437-.295l-3.021-5.675A.5.5,0,0,1,180.27,470.538Z" transform="translate(-154.3 -453.344)" fill="#fff"/>
                <path id="Path_118592" data-name="Path 118592" d="M153.193,476.135l3.2-5.1a.464.464,0,0,1,.446-.214.557.557,0,0,1,.439.295l3.042,5.675a.5.5,0,0,1-.008.509.465.465,0,0,1-.446.214l-1.684-.154a9.072,9.072,0,0,0,1.548,4.008,9.426,9.426,0,0,0,5.6,3.852,8.179,8.179,0,0,0,6.388-1.044,1.368,1.368,0,0,1,1.843.432,1.283,1.283,0,0,1-.3,1.82,10.454,10.454,0,0,1-5.727,1.67,12.215,12.215,0,0,1-9.949-5.343,12.036,12.036,0,0,1-2.1-5.643l-1.878-.172a.558.558,0,0,1-.439-.295A.5.5,0,0,1,153.193,476.135Z" transform="translate(-147.085 -459.21)" fill="#fff"/>
              </g>
              <g id="Group_10762" data-name="Group 10762" transform="translate(3.053 42.051)">
                <path id="Path_118593" data-name="Path 118593" d="M178.716,553.177c-.019-.342-.051-.694-.1-1.047l3.336-1.918-.042-.178a18.544,18.544,0,0,0-.943-2.939l-.071-.171-3.934.065a15.455,15.455,0,0,0-1.148-1.816l1.838-3.382.025-2.408h-2.564l-3.266,2.028a15.233,15.233,0,0,0-1.872-1.049l-.158-3.947-.772-.879h-2.566l-1.718,3.451-1.645-3.451h-2.566l-.177.031a17.089,17.089,0,0,0-2.892.786l-.167.062.3,3.947a13.231,13.231,0,0,0-1.751,1.049l-.936-2.028h-2.564l-.132.117a16.458,16.458,0,0,0-2.02,2.152l-.109.139,2.229,3.382a13.2,13.2,0,0,0-.938,1.816l-1.381-.065h-2.56l-.051.171a17.1,17.1,0,0,0-.6,2.939l-.021.178,3.557,1.918c0,.353,0,.7.025,1.047s.055.694.1,1.048l-3.321,1.917.043.179a18.809,18.809,0,0,0,.961,2.938l.072.171h2.553l1.37-.066a15.391,15.391,0,0,0,1.154,1.815l-1.813,3.382.125.139a19.687,19.687,0,0,0,2.268,2.152l.146.117h2.55l.69-2.027a15.386,15.386,0,0,0,1.867,1.049l.168,3.946.173.062a18.41,18.41,0,0,0,2.964.786l.179.031h2.547l1.238-3.451,2.1,3.451h2.548l.667-.88-.288-3.946a13.208,13.208,0,0,0,1.745-1.049l3.474,2.027h2.55l-.289-2.407-2.2-3.382a13.461,13.461,0,0,0,.944-1.815l3.931.066.051-.171a17.152,17.152,0,0,0,.623-2.938l.022-.179-3.542-1.917C178.742,553.871,178.735,553.52,178.716,553.177ZM165.049,562a9.46,9.46,0,0,1-9.3-8.82,8.209,8.209,0,0,1,8.28-8.82,9.434,9.434,0,0,1,9.3,8.82A8.229,8.229,0,0,1,165.049,562Z" transform="translate(-146.781 -535.537)" fill="#0066e9"/>
                <path id="Path_118594" data-name="Path 118594" d="M184.153,553.177c-.019-.342-.05-.694-.1-1.047l3.337-1.918-.042-.178a18.445,18.445,0,0,0-.942-2.939l-.07-.171-3.934.065a15.386,15.386,0,0,0-1.147-1.816l1.84-3.382-.125-.139a19.422,19.422,0,0,0-2.268-2.152l-.145-.117-3.266,2.028a15.233,15.233,0,0,0-1.872-1.049l-.155-3.947-.175-.062a18.64,18.64,0,0,0-2.982-.786l-.181-.031-1.72,3.451a14.148,14.148,0,0,0-2.095,0L166,535.537l-.177.031a17.111,17.111,0,0,0-2.893.786l-.167.062.3,3.947a13.208,13.208,0,0,0-1.752,1.049l-3.5-2.028-.133.117a16.5,16.5,0,0,0-2.02,2.152l-.109.139,2.227,3.382a13.264,13.264,0,0,0-.939,1.816l-3.941-.065-.051.171a17.059,17.059,0,0,0-.6,2.939l-.022.178,3.556,1.918c0,.353,0,.7.025,1.047s.054.694.1,1.048l-3.322,1.917.043.179a18.757,18.757,0,0,0,.96,2.938l.072.171,3.924-.066a15.382,15.382,0,0,0,1.152,1.815l-1.814,3.382.125.139a19.608,19.608,0,0,0,2.267,2.152l.145.117,3.241-2.027a15.378,15.378,0,0,0,1.866,1.049l.166,3.946.174.062a18.412,18.412,0,0,0,2.963.786l.179.031,1.7-3.451a13.87,13.87,0,0,0,2.082,0l2.1,3.451.175-.031a16.889,16.889,0,0,0,2.874-.786l.166-.062-.286-3.946a13.184,13.184,0,0,0,1.746-1.049l3.473,2.027.131-.117a16.421,16.421,0,0,0,2.022-2.152l.109-.139-2.2-3.382a13.412,13.412,0,0,0,.945-1.815l3.931.066.052-.171a17.2,17.2,0,0,0,.624-2.938l.023-.179-3.541-1.917C184.178,553.871,184.171,553.52,184.153,553.177ZM170.481,562a9.453,9.453,0,0,1-9.293-8.82,8.215,8.215,0,0,1,8.284-8.82,9.429,9.429,0,0,1,9.293,8.82A8.234,8.234,0,0,1,170.481,562Z" transform="translate(-149.661 -535.537)" fill="#007fe2"/>
              </g>
            </g>
          </g>
          <g id="Group_10766" data-name="Group 10766" transform="translate(91.563 7.725)">
            <path id="Path_118595" data-name="Path 118595" d="M431.907,609.533c-.018.918.413,45.239.413,45.239a3.768,3.768,0,0,1-2.888.844s-7.16-44.806-7.151-46.919C423.547,609.543,431.2,610.327,431.907,609.533Z" transform="translate(-360.838 -519.001)" fill="#ffcfb5"/>
            <path id="Path_118596" data-name="Path 118596" d="M428.919,561.93c-.13,22.223-1.046,67.155-1.046,67.155a3.406,3.406,0,0,0-3.848.525s-2.094-16.327-5.626-32.963c-3.05-14.36-3.671-28.133-4.879-28.96l-.188-2.772c4.1-.529,8.135-1.38,12.2-2.233C426.718,562.434,427.844,562.2,428.919,561.93Z" transform="translate(-356.098 -494.233)"/>
            <path id="Path_118597" data-name="Path 118597" d="M440.106,704.593a1.846,1.846,0,0,0,.626.777c.967.84,5,2.929,5.091,4.315.047.7-1.384,1.427-2.581,1.557a5.729,5.729,0,0,1-2.923-.2,13.209,13.209,0,0,1-2.777-2.714,4.117,4.117,0,0,1-.5-2.712C437.458,703.869,440.106,704.593,440.106,704.593Z" transform="translate(-368.624 -569.708)" fill="#00a6e0"/>
            <path id="Path_118598" data-name="Path 118598" d="M441.056,708.3c1.17.882,4.991,2.381,5.07,3.548.04.59-1.164,1.2-2.172,1.312a4.82,4.82,0,0,1-2.462-.172,10.935,10.935,0,0,1-2.34-2.286C437.865,708.777,439.919,707.447,441.056,708.3Z" transform="translate(-369.556 -571.612)" fill="#157ecc"/>
            <g id="Group_10765" data-name="Group 10765" transform="translate(54.27 19.238)">
              <path id="Path_118599" data-name="Path 118599" d="M461.8,545.031c.262.146,1.126-.843,1.18-1.135-.08-.741-.513-.691-.489-1.4a6.278,6.278,0,0,1-.651,1.782C461.654,544.573,461.372,544.841,461.8,545.031Z" transform="translate(-435.917 -503.18)" fill="#fff"/>
              <path id="Path_118600" data-name="Path 118600" d="M463.614,542.617c.087.878.5,2.815.533,2.951a10.958,10.958,0,0,0,.418,1.668,1.666,1.666,0,0,0,.845.538.5.5,0,0,0,.471-.311c.414.12.51-.959.606-.907.387.212.793-.254.43-1.763-.022-.09-.178-3.972-.332-5.208a15.666,15.666,0,0,0-3.067.834A15.728,15.728,0,0,0,463.614,542.617Z" transform="translate(-436.944 -501.637)" fill="#ffcfb5"/>
              <path id="Path_118601" data-name="Path 118601" d="M449.488,493.856a2.283,2.283,0,0,0,.034.713c.837,3.661,6.292,16.672,6.558,20.627a12.46,12.46,0,0,1,3.117-.571c-.569-6.493-3.8-22.5-6.358-23.016A2.534,2.534,0,0,0,449.488,493.856Z" transform="translate(-429.51 -476.183)" fill="#ff5b8a"/>
              <path id="Path_118602" data-name="Path 118602" d="M412.165,468.711c2.556,2.352,12.49,7.549,16.768,10.946,5.247,4.167,6.28-.983,5.1-2.758-3.113-4.674-13.875-16.017-16.465-14.655C416.446,462.835,411.7,468.285,412.165,468.711Z" transform="translate(-409.734 -460.618)" fill="#ff5b8a"/>
              <path id="Path_118603" data-name="Path 118603" d="M407.036,467.4c4.193,2.1,6.4,3.326,9.75,5.353a99.262,99.262,0,0,1,8.957,5.814,11.911,11.911,0,0,0,1.071.764c.5,1.542,1.237,3.591,2.018,5.754,1.707,4.723,3.832,10.6,3.986,12.894l4.683-.691c-.5-5.714-3.051-18.954-5.554-22.58-2.544-3.8-9.9-12.465-12.771-15.718C418.3,457.99,406.784,467.275,407.036,467.4Z" transform="translate(-407.032 -458.914)" fill="#31d156"/>
            </g>
            <path id="Path_118604" data-name="Path 118604" d="M398.379,607.43c.076,2.11-5.684,47.119-5.684,47.119a3.767,3.767,0,0,1-2.913-.755s-.952-44.313-1-45.23C389.512,609.336,397.141,608.313,398.379,607.43Z" transform="translate(-343.098 -518.33)" fill="#ffcfb5"/>
            <path id="Path_118605" data-name="Path 118605" d="M399.357,537.744s-.032,11.578-.558,15.393c-1.059,7.676-.914,15.552-3.514,30-3.012,16.737-5.311,32.05-5.311,32.05a2.978,2.978,0,0,0-3.608-.236s-3.925-76.024-3.373-79.147C384.916,536.733,393.446,537.916,399.357,537.744Z" transform="translate(-340.002 -480.397)"/>
            <path id="Path_118606" data-name="Path 118606" d="M383.348,540.563a170.092,170.092,0,0,0,17.689-.9,35.833,35.833,0,0,0,10.117-2.723,93.7,93.7,0,0,1,1.153,15.393,13.341,13.341,0,0,1-3.359,1.612c-4.92,1.6-17.623.822-29.25-1.106-.612-4.319-.21-7.336-.362-12.27C380.645,540.617,381.982,540.591,383.348,540.563Z" transform="translate(-338.094 -480.999)" fill="#0eb435"/>
            <path id="Path_118607" data-name="Path 118607" d="M404.406,438.739c-.242,1.643.487,6.936,1.051,7.8-1.362,3.018-6.405,1.523-6.743-.26.787-1.914-.183-4.724-.193-5.06C399.736,441.4,404,439.041,404.406,438.739Z" transform="translate(-348.254 -428.992)" fill="#ffcfb5"/>
            <path id="Path_118608" data-name="Path 118608" d="M395.985,426.14a4.088,4.088,0,0,1,3.684,4.638c0,.024-.17,2.471-.17,2.471-.124,1.8-3.086,4.429-4.627,3.99-3.644-1.037-3.965-7.867-3.787-8.623C391.582,426.5,393.747,425.986,395.985,426.14Z" transform="translate(-344.296 -422.306)" fill="#ffcfb5"/>
            <path id="Path_118609" data-name="Path 118609" d="M378.634,464.471c-.313-3.288.5-6.336,4.115-7.778,1.205-.482,4.765-2.037,4.765-2.037a5.008,5.008,0,0,0,3.206,1.057,4.616,4.616,0,0,0,3.374-1.151s2.092.107,6.251.627c3.337.417,5.531,4.876,5.857,6.905.311,1.931,5.531,27.885,5.085,43.388-.116.3-1.467.869-1.846,1.1l-1.548-9.255-.206,9.91c-5.022,1.242-16.276.725-23.736.687L381.624,497l-.528,10.938c-.718.016-2.181.038-2.745.079C375.96,491.167,378.71,465.268,378.634,464.471Z" transform="translate(-337.054 -437.372)" fill="#31d156"/>
            <path id="Path_118610" data-name="Path 118610" d="M383.992,704.788a6.946,6.946,0,0,0,.611-.741s2.556-.693,3.121.8a3.916,3.916,0,0,1-.451,2.791,13.2,13.2,0,0,1-2.691,2.8,5.717,5.717,0,0,1-2.916.294c-1.2-.092-2.654-.775-2.627-1.475C379.089,707.871,383.131,705.736,383.992,704.788Z" transform="translate(-337.937 -569.413)" fill="#00a6e0"/>
            <path id="Path_118611" data-name="Path 118611" d="M385.347,707.622c1.109-.89,3.2.375,1.976,2.342a10.9,10.9,0,0,1-2.266,2.358,4.8,4.8,0,0,1-2.454.248c-1.011-.078-2.234-.653-2.213-1.243C380.432,710.158,384.2,708.539,385.347,707.622Z" transform="translate(-338.652 -571.238)" fill="#157ecc"/>
            <path id="Path_118612" data-name="Path 118612" d="M385.751,422.628c1.56-3.584,7.469-6.22,10.96-3.465,3.081,2.432,2.657,6.79.767,9.691-.974,1.494.864,1.194.864,1.194a8.7,8.7,0,0,1-3.159,2.191c-5.677,1.846-9.322-5.779-9.322-5.779s2.321-.709,1.6-.657c-3.438.246-4.183-1.3-3.83-3.074C383.517,423.437,384.588,425.3,385.751,422.628Z" transform="translate(-340.326 -418.017)"/>
            <path id="Path_118613" data-name="Path 118613" d="M302.369,453c-.3.048-.374,1.4-.232,1.669.538.548.856.231,1.285.818a6.5,6.5,0,0,1-.608-1.855C302.775,453.275,302.833,452.88,302.369,453Z" transform="translate(-297.172 -436.531)" fill="#ffcfb5"/>
            <path id="Path_118614" data-name="Path 118614" d="M296.773,452.024c-.629-.654-2.2-1.954-2.31-2.044a11.188,11.188,0,0,0-1.4-1.082,1.729,1.729,0,0,0-1.026.1.519.519,0,0,0-.183.551c-.411.167.2,1.1.089,1.119-.448.075-.481.711.773,1.7.076.06,2.673,3.1,3.583,4a16.1,16.1,0,0,0,1.947-2.627A16.137,16.137,0,0,0,296.773,452.024Z" transform="translate(-291.662 -434.352)" fill="#ffcfb5"/>
            <path id="Path_118615" data-name="Path 118615" d="M321.388,470.086a2.3,2.3,0,0,0-.6-.416c-3.523-1.588-14.545-9.062-17.952-11.3a12.816,12.816,0,0,1-1.469,2.909c5.677,3.568,17.782,14.723,19.789,12.946A2.6,2.6,0,0,0,321.388,470.086Z" transform="translate(-296.8 -439.389)" fill="#fff"/>
            <path id="Path_118616" data-name="Path 118616" d="M340.557,459.494c-3.321,1.521-21.38,8.37-21.779,8.521-1.573-.55-13.449-8.732-15.425-10.029l-2.9,3.775c4.42,3.685,14.409,13.139,18.921,13.335,4.706.273,21.71-.7,23.4-4.43C344.456,466.958,340.82,459.374,340.557,459.494Z" transform="translate(-296.316 -439.185)" fill="#31d156"/>
          </g>
        </g>
        <g id="Group_10769" data-name="Group 10769" transform="translate(332.928 16.508)">
          <circle id="Ellipse_3190" data-name="Ellipse 3190" cx="45.33" cy="45.33" r="45.33" transform="translate(0 33.419) rotate(-21.63)" fill="#007fe2"/>
          <g id="Group_10768" data-name="Group 10768" transform="translate(23.476 13.725)">
            <path id="Path_118617" data-name="Path 118617" d="M911.657,151.634c-.318-.278-.493.151-.813-.075s-.837-.385-1.055-.106-.492.263-.356-.22-.554-.422-.79-.751-.463-.345-1.2-.5-.927-.345-1.253-.386-.446.722-.825.911.379-.921.212-1.118-1.236-.118-1.6-.442-.647.381-1.236,1.093-.382.067.207-.583a12.408,12.408,0,0,0,1.178-1.322c.256-.405-.2-.5-.673-.86s-.356-1.077-.683-1.511-.484-.031-.72-.533-1.21-.783-1.927-1.216-.967-.147-1.381.139-1.621.029-1.694-.245-.117-.167-.706-.278-.475.01-.495-.543-.6-.711-1.126-.879-.554-.168-.682-.662-.236-.523-1.3-.74-.74-.949-1.877-1.077-.574.347-1.081.739-1.122-.146-1.557-.59-.443.06-1.294.207-.63.118-.493-.445-.469-.5-1.038-.622a2.941,2.941,0,0,0-1.857.356c-.334.258.12,1.393.039,1.835s-1.213-.2-.77-.768.306-.682.131-1.224.61-.583.7-1.007-.685-.041-1.075.335-.86.306-1.108.434a2.386,2.386,0,0,1-1.1.071.894.894,0,0,0-.938.9c.037.564-.03.881-.406.889a.82.82,0,0,0-.789.742c-.079.474-.77-.731-1.472-1.048s-1.224.04-1.787.287a1.694,1.694,0,0,1-1.5-.053,2.365,2.365,0,0,1-1.242-1.7c-.134-.682.455-1.155.426-1.718s.286-.879.315-1.4-.1-.356.2-.7-.878-.425-1.472-.661a9.369,9.369,0,0,0-2.522.051c-.822-.006-.8.027-.373-.349A9.271,9.271,0,0,0,870,132.011c.376-.78.612-1.371,1.079-2.281s-.484-.256-.831-.128-1.088-.256-1.708-.138-.84,1.669-1.857,2.374-.859-.063-1.828,0-1.263-.78-1.53-1.363a4.672,4.672,0,0,1-.227-1.659,13.252,13.252,0,0,1,1.848-4.553,14.436,14.436,0,0,1,1.944-.722c1.137-.424,1.175-.188,2.047.01s.62.008,1.221-.445.388-.217,1.423-.475.731.227,1.513.494.86.07,1.332.426.012,1.638.21,1.975a2.534,2.534,0,0,0,1.245,1.294c.77.316.848-1.087.9-1.5a4.308,4.308,0,0,0-.306-1.778,2.437,2.437,0,0,1-.3-1.64c.143-.686,2.067-1.877,3.487-2.233s1.76-.958,1.55-1.412.03-1.175.03-1.4.052-.366.28-.257.571-.356,1.154-.515.414-.759.909-.986a4.562,4.562,0,0,1,1.679-.178c.7-.041-.793-1.226.8-1.639s2.212-.07,2.282-.524.207-.356.682-.386,0,.178-.5.6.169.75.93.583a6.674,6.674,0,0,0,1.844-.81c.4-.228.939.039.91-.405s-.787-.39-1.166-.424-.227-.11-.583-.248-.265-.356-.542-.533-.008-.286-.05-.563.348-.149.653-.465-.752-.464-1.478-.378a6.883,6.883,0,0,0-1.974.5c-.446.224-.7.3-.665.149a1.827,1.827,0,0,1,1.2-.58.86.86,0,0,0,.79-.177c.239-.2.061-.424,1.235-.4s2.429.356,3.19-.178a2.986,2.986,0,0,1,1.652-.565c.776-.171.651-.708.581-.9s-.475-.356-.612-.494-.289-.089-.534-.079.1-.068-.286-.435-1.227-.227-1.434-.374a.674.674,0,0,0-.63-.1c-.26.059-.131-.227.047-.459s-1.006-.717-1.65-1.191-.563.01-.618.324-.714.309-.941.437-.513-.079-.732-.287a.658.658,0,0,1-.116-.771c.107-.338-.251-.159-.484,0s-.682-.4-1-.6a7.051,7.051,0,0,0-1.967-.071c-.286-.015-.533.131-.554.673s-.356.327-.531.821.493.523.542.82-.775.761-1.58.829-.624,1.611-.644,2.016a.766.766,0,0,1-.819.711c-.406-.06-.644-1.216-.583-1.848s.012-.889-.484-.829a1.758,1.758,0,0,1-1.117-.246c-.384-.18-.5,0-.848-.476s-1.018-.286-1.44-.081-.475.134-.341-.326-.233-.283-.008-.659a4.19,4.19,0,0,1,2.017-.908,4.2,4.2,0,0,0,1.352-.472c.484-.255,1.1,0,1.367-.167s.825-.535,1.058-.65.516.059.831-.085,1.154-.115,1.373-.308-.266-.407-.073-.637.763.111,1.085.222.271-.211.446-.447.192.249.618.511-.942-.024-.656.338,1.37-.487,1.623-.242-2.16.67-2.553.818-.1.326.761.3a3.242,3.242,0,0,1,1.778.4c.4.222,1.982.411,2.25.114s-1.227-.3-1.2-.462,1.151.129,1.42-.067-.452-.19-.793-.488.738-.2,1.358-.031.382-.067.5-.281-.507-.226-1.315-.385-.26-.2-.163-.382-.744-.211-1.318-.262-.629-.253-.437-.512-.755-.074-1.108.067-.382.166-.977,0-1.433.675-1.58.405-.522-.117-.918.032.076.344.359.6-.735.393-.892.567-.507-.017-.233-.174.181-.427-.254-.463-.895.47-1.113.511.049-.156-.009-.519-.76.5-1.058.745-.942.048-1.454.2a3.076,3.076,0,0,1-1.551.122c-.271-.126-.005-.24.726-.411s-.056-.3-.793-.017-.706.333-.688.647-.463.223-.921.008-.773.477-.887.223-.279-.132-.279-.132a51,51,0,0,0-12.261,7.388c-1.23.974-1.232,2.013-2.259,2.669s-1.778,2.51-2.629,3.5a5.824,5.824,0,0,0-1.026,4.227c.335.85-.4,2.984-.2,3.556s-.513,1.065-.312,1.619a3.255,3.255,0,0,1,.175,1.917c-.14,1.007,1.282,1.3,1.6.868s-.647-4.643-.417-5.057.376.219.318.811a17.984,17.984,0,0,0,.909,3.5c.294,1.007-.14,2.153,0,3.734s4.932,3.2,5.6,3.437.712-.9,1.347-.74,1.793,1.838,2.594,2.016.77.546,1.379.577.977,1.318,1.568,1.481.327.119.221.43a1.054,1.054,0,0,0,.712,1.2c.667.267.326.977.951,1.541s1.1.31,1.806.666.948,1.038,1.717.238.592-.8,1.393-.29.268,2.335.12,3.431-1.837,1.422-2.163,2.312-.533,3.3-1.009,3.773.157,1.58.239,3.358,2.647,3.95,4.029,5.885,5.492,3.091,6.124,4.782-.213,6.766-.154,7.374a13.952,13.952,0,0,0,.12,2.519,5.1,5.1,0,0,1-.67,2.755c-.146.074-.108.115-.146.267s-.149.124-.315.2.282,1.032.35,1.234.041.271-.227.524a.706.706,0,0,0-.122.746.806.806,0,0,1-.172.819c-.3.283-.339.568.116.624s.426-.429.644-.924.3.06.16.5a7.021,7.021,0,0,0-.111,1.4c-.041.4-.367-.108-.519-.264s-.274.334-.516.511-.808.051-.808.229.615.208.845.149.3-.078.466,0-.111.162-.1.306.032.211-.259.2-.271.262-.091.378.149.04.349.284.184.39.108.549.35.4.583.4.16.215.1.373-.283.334,1.122.942a6.885,6.885,0,0,0,4.031.2c.385-.219-1.32-1.129-1.778-1.648s1.615-1.067,2.072-1.586-.693-.874.058-1.216,1.426-.947,1.455-1.541.712-.43,1.26-.978-.37-.711.682-.711,3.1-1.2,3.5-1.363-.029-.608-.444-1.348-.21-.43.977-.163,1.143-.183,2.285-1.226.767-1.278,1.554-1.781.265.118-.178.8,2.548.7,3.419-2.386,4.283-3.555,5.232-6,7.23-6.03,8-11.1S911.972,151.914,911.657,151.634Z" transform="translate(-854.672 -100.25)" fill="#bfd8f6"/>
            <path id="Path_118618" data-name="Path 118618" d="M910.445,106.9s-.51-.078-.446.079.37.176.525.113.343-.061.274-.157S910.474,106.9,910.445,106.9Z" transform="translate(-883.97 -103.534)" fill="#bfd8f6"/>
            <path id="Path_118619" data-name="Path 118619" d="M912.865,106.425c-.149-.081-.437-.424-.866-.115-.1.07-.343.277-.1.254s.4-.031.618-.035S913.013,106.505,912.865,106.425Z" transform="translate(-884.924 -103.167)" fill="#bfd8f6"/>
            <path id="Path_118620" data-name="Path 118620" d="M914.551,106.266c-.123-.026-.12.029-.187.114s.015.19.146.17S914.688,106.295,914.551,106.266Z" transform="translate(-886.271 -103.207)" fill="#bfd8f6"/>
            <path id="Path_118621" data-name="Path 118621" d="M914.278,107.223a.315.315,0,0,0-.209.277c.009.094.12.114.271.089s.349-.044.291-.178S914.553,107.146,914.278,107.223Z" transform="translate(-886.128 -103.705)" fill="#bfd8f6"/>
            <path id="Path_118622" data-name="Path 118622" d="M911.873,107.17c-.058.019-.39.095-.408.2s.108.179.309.2.3.041.4-.1.184-.144.1-.24A.406.406,0,0,0,911.873,107.17Z" transform="translate(-884.748 -103.676)" fill="#bfd8f6"/>
            <path id="Path_118623" data-name="Path 118623" d="M934.812,122.754c-.12-.358.047-.647-.169-.722s-.1.01-.312.17a2.494,2.494,0,0,0-.533.563c-.044.1.381.415.445.5s.137-.137.2-.055.055.251.338.174.461-.089.333-.283S934.931,123.112,934.812,122.754Z" transform="translate(-896.575 -111.546)" fill="#bfd8f6"/>
            <path id="Path_118624" data-name="Path 118624" d="M940.218,118.274a3.25,3.25,0,0,0-1.32-.2c-.3.04-.956.035-.7-.226s.749-.9.423-.947-.653.333-.985.339-.12.456-.286.609c-.192.176-.175.634-.344.707s-.653.1-.606.267.592-.067.5.115-.621.274-.484.381a1.984,1.984,0,0,0,1.108-.019c.5-.1.65.035.755.142s.271.1.476.056.525-.17.356-.022-.5.289-.437.422.178.3.44.055.8-.3.889-.478.478-.258.262-.511-.17-.281,0-.363S940.641,118.437,940.218,118.274Z" transform="translate(-897.951 -108.84)" fill="#bfd8f6"/>
            <path id="Path_118625" data-name="Path 118625" d="M944.72,121.819c-.327-.115-.563.287-.7.458s.143.163.181.363.524.111.735.031.251-.72.309-.942S944.859,121.871,944.72,121.819Z" transform="translate(-901.97 -111.361)" fill="#bfd8f6"/>
            <path id="Path_118626" data-name="Path 118626" d="M900.4,161.846c-.216-.118-.81-.869-1.382-.889s-.831-.493-1.5-.751a6.667,6.667,0,0,0-4.661-.908c-1.148.138-.848.222-1.5.592-.828.468-.338.928,0,1.048s1.874-.534,2.685-.337a18.029,18.029,0,0,0,1.976.434c.435.04.414.613.81.87s-.02.73.216.672,2.154.139,3.258,0S900.618,161.966,900.4,161.846Z" transform="translate(-873.858 -131.27)" fill="#bfd8f6"/>
            <path id="Path_118627" data-name="Path 118627" d="M913.992,166.179a6.393,6.393,0,0,0-1.9-.49,1.132,1.132,0,0,0-1.266.826c0,.376-1.125.4-1.536.455s-.143.612.629.762,1.7.106,2.015.522.827-.336,1.343-.522a1.629,1.629,0,0,1,1.42,0c.569.249.446-.108.642-.565S914.526,166.474,913.992,166.179Z" transform="translate(-883.498 -134.674)" fill="#bfd8f6"/>
            <path id="Path_118628" data-name="Path 118628" d="M924.747,169.124a1.537,1.537,0,0,0-.947.217c-.207.169.385.481.755.545s.37.209.691.061a2.906,2.906,0,0,0,.708-.392C926.111,169.414,925.383,169.172,924.747,169.124Z" transform="translate(-891.259 -136.498)" fill="#bfd8f6"/>
            <path id="Path_118629" data-name="Path 118629" d="M903.61,155.2c-.869-.218-.671.532-.478,1.007s.42.612,1.011.633.277-.89.187-1.186S903.881,155.262,903.61,155.2Z" transform="translate(-880.248 -129.103)" fill="#bfd8f6"/>
            <path id="Path_118630" data-name="Path 118630" d="M936,100.815c-1.288-.222-2.229-.441-4.371-.8a14.437,14.437,0,0,0-4.128-.167c-.741.07-1.47.068-1.717.079a10.708,10.708,0,0,0-1.65.108c-.554.108.376.286,1.175.444a20.046,20.046,0,0,0,2.746-.06c1.017.031,1.1.484,1.761.653s-.1.3.286.4.108.178.405.335a7.642,7.642,0,0,0,2.044,1.422,5.224,5.224,0,0,0,2.332.681c.8.188,1.521.514,2.2.663s-.011-1.4-.081-1.887,1.224-.1,1.116-.542.583-.011,1.216-.348S937.292,101.037,936,100.815Z" transform="translate(-891.372 -99.77)" fill="#bfd8f6"/>
            <path id="Path_118631" data-name="Path 118631" d="M961.833,105.645c-.487-.207-1.761-.591-1.717-.207s.14.731.458.784c1.23.209,1.926.347,1.9.095S962.323,105.852,961.833,105.645Z" transform="translate(-910.515 -102.685)" fill="#bfd8f6"/>
            <path id="Path_118632" data-name="Path 118632" d="M981.816,116.875c-1.084.014-2.591-.378-1.636.7a4.647,4.647,0,0,0,1.738,1.5c.632.238,1.469.363,1.2-.553S982.9,116.862,981.816,116.875Z" transform="translate(-920.98 -108.798)" fill="#bfd8f6"/>
            <path id="Path_118633" data-name="Path 118633" d="M996.059,128.423c-.691-1.106-.644-2.043-1.422-2.607s-6.623-7.029-4.722-3.238c.276.554,2.727,2.31,2.014,2.409s-.947.414-.257,1.224,1.641,1.06,1.889,2.14a2.429,2.429,0,0,0,1.431,1.868c.687.34.475-.22.927.079s.653.536.633-.254S996.749,129.53,996.059,128.423Z" transform="translate(-926.096 -111.221)" fill="#bfd8f6"/>
            <path id="Path_118634" data-name="Path 118634" d="M1005.458,139.617c-3.227-3.822-1.034.126-1.941.074s-.945-.079-.965.286c-.067,1.019.531,2.609.373,3.457a6.56,6.56,0,0,0-.186,1.8c.07.118-.05.137,1.038.453s1.224.652.572.574-1.047-.337-.81.315-.242.949-.16,1.443,1.1,1.481.256,1.462-1.545-.277-1.108,1.4a17.512,17.512,0,0,1,.717,4.215c-.02,1.04.848,3,2.113,5.129s2.291,4.442,3.536,3.811,1.461-1.619,2.134-.69,1.792,1.52,1.895-.14a20.13,20.13,0,0,0-.426-7.392C1011.594,151.72,1008.684,143.438,1005.458,139.617Z" transform="translate(-932.904 -119.989)" fill="#bfd8f6"/>
            <path id="Path_118635" data-name="Path 118635" d="M934.078,282.421c-.452.109-.5-.022-.88.067a1.255,1.255,0,0,1-.8-.3c-.222-.2-.154.163-.2.385s-.192.281-.423.307.216.478.385.448.61-.14.586-.04.26.128.408.063a5.641,5.641,0,0,1,1.6-.216c.464.045,0-.385.344-.563S934.53,282.31,934.078,282.421Z" transform="translate(-895.471 -196.346)" fill="#bfd8f6"/>
            <path id="Path_118636" data-name="Path 118636" d="M959.717,283.7a1.533,1.533,0,0,0-.706.045.39.39,0,0,0-.356.54,1.269,1.269,0,0,0,.764.437c.236.029.889-.2.677-.5S960.116,283.772,959.717,283.7Z" transform="translate(-909.73 -197.17)" fill="#bfd8f6"/>
            <path id="Path_118637" data-name="Path 118637" d="M995.773,170.459c-.222.067-.484.3-.338.512s.429.307.542.061S995.872,170.429,995.773,170.459Z" transform="translate(-929.197 -137.206)" fill="#bfd8f6"/>
            <path id="Path_118638" data-name="Path 118638" d="M996.043,173.439c.1.3.317.4.388.329s.294-.335.143-.429S996,173.3,996.043,173.439Z" transform="translate(-929.54 -138.708)" fill="#bfd8f6"/>
            <path id="Path_118639" data-name="Path 118639" d="M997.828,173.5c-.041.115-.262.415-.1.5.32.17.35-.05.382-.266S997.868,173.388,997.828,173.5Z" transform="translate(-930.404 -138.797)" fill="#bfd8f6"/>
            <path id="Path_118640" data-name="Path 118640" d="M998.935,173.222c-.049.127.093.308.206.358s.2-.1.112-.279C999.194,173.181,998.987,173.1,998.935,173.222Z" transform="translate(-931.068 -138.637)" fill="#bfd8f6"/>
            <path id="Path_118641" data-name="Path 118641" d="M998.812,171.844c-.131.042-.111.111-.079.215s.175.26.294.1S998.876,171.822,998.812,171.844Z" transform="translate(-930.954 -137.939)" fill="#bfd8f6"/>
            <path id="Path_118642" data-name="Path 118642" d="M998.285,170.8c-.087.029-.315.124-.184.258a.3.3,0,0,0,.376.073.235.235,0,0,0,.064-.245A.293.293,0,0,0,998.285,170.8Z" transform="translate(-930.611 -137.382)" fill="#bfd8f6"/>
            <path id="Path_118643" data-name="Path 118643" d="M997,171.517c-.146.08-.286.034-.111.261s.257.375.385.207.172-.269.143-.327S997.164,171.428,997,171.517Z" transform="translate(-929.947 -137.754)" fill="#bfd8f6"/>
          </g>
        </g>
        <g id="Group_10772" data-name="Group 10772" transform="translate(105.775 77.663)">
          <g id="Group_10770" data-name="Group 10770">
            <circle id="Ellipse_3191" data-name="Ellipse 3191" cx="2.5" cy="2.5" r="2.5" transform="translate(0 75.264)" fill="#002caa"/>
            <circle id="Ellipse_3192" data-name="Ellipse 3192" cx="2.5" cy="2.5" r="2.5" transform="translate(0 56.448)" fill="#002caa"/>
            <circle id="Ellipse_3193" data-name="Ellipse 3193" cx="2.5" cy="2.5" r="2.5" transform="translate(0 37.632)" fill="#002caa"/>
            <circle id="Ellipse_3194" data-name="Ellipse 3194" cx="2.5" cy="2.5" r="2.5" transform="translate(0 18.816)" fill="#002caa"/>
            <circle id="Ellipse_3195" data-name="Ellipse 3195" cx="2.5" cy="2.5" r="2.5" fill="#002caa"/>
            <circle id="Ellipse_3196" data-name="Ellipse 3196" cx="2.5" cy="2.5" r="2.5" transform="translate(18.967 37.632)" fill="#002caa"/>
            <circle id="Ellipse_3197" data-name="Ellipse 3197" cx="2.5" cy="2.5" r="2.5" transform="translate(37.783 37.632)" fill="#002caa"/>
            <circle id="Ellipse_3198" data-name="Ellipse 3198" cx="2.5" cy="2.5" r="2.5" transform="translate(56.599 37.632)" fill="#002caa"/>
          </g>
          <g id="Group_10771" data-name="Group 10771" transform="translate(187.255 51.744)">
            <circle id="Ellipse_3199" data-name="Ellipse 3199" cx="2.5" cy="2.5" r="2.5" transform="translate(94.155)" fill="#002caa"/>
            <circle id="Ellipse_3200" data-name="Ellipse 3200" cx="2.5" cy="2.5" r="2.5" transform="translate(94.155 18.816)" fill="#002caa"/>
            <circle id="Ellipse_3201" data-name="Ellipse 3201" cx="2.5" cy="2.5" r="2.5" transform="translate(94.155 37.632)" fill="#002caa"/>
            <circle id="Ellipse_3202" data-name="Ellipse 3202" cx="2.5" cy="2.5" r="2.5" transform="translate(75.189 18.816)" fill="#002caa"/>
            <circle id="Ellipse_3203" data-name="Ellipse 3203" cx="2.5" cy="2.5" r="2.5" transform="translate(56.373 18.816)" fill="#002caa"/>
            <circle id="Ellipse_3204" data-name="Ellipse 3204" cx="2.5" cy="2.5" r="2.5" transform="translate(37.556 18.816)" fill="#002caa"/>
            <circle id="Ellipse_3205" data-name="Ellipse 3205" cx="2.5" cy="2.5" r="2.5" transform="translate(18.74 18.816)" fill="#002caa"/>
            <circle id="Ellipse_3206" data-name="Ellipse 3206" cx="2.5" cy="2.5" r="2.5" transform="translate(0 18.816)" fill="#002caa"/>
          </g>
        </g>
        <g id="Group_10777" data-name="Group 10777" transform="translate(72.307 2.269)">
          <g id="Group_10773" data-name="Group 10773">
            <path id="Path_118644" data-name="Path 118644" d="M384.885,73.643a16.748,16.748,0,0,0-4.609.488,18.093,18.093,0,0,0-29.385-17.062,26.478,26.478,0,0,0-51.086,8.792,26.762,26.762,0,0,0,.04,2.7,18.832,18.832,0,1,0-9.818,35.278l95.319,3.39,0-.084a16.774,16.774,0,0,0-.464-33.5Z" transform="translate(-261.918 -40.324)" fill="#0066e9"/>
            <path id="Path_118645" data-name="Path 118645" d="M363.29,75.126a16.781,16.781,0,0,0-4.59.651,18.092,18.092,0,0,0-29.972-16.006,26.479,26.479,0,0,0-50.742,10.6,26.768,26.768,0,0,0,.136,2.7,18.832,18.832,0,1,0-8.558,35.605h95.379v-.083a16.774,16.774,0,0,0-1.654-33.467Z" transform="translate(-250.727 -42.216)" fill="#007fe2"/>
          </g>
          <g id="Group_10776" data-name="Group 10776" transform="translate(39.869 14.316)">
            <g id="Group_10774" data-name="Group 10774" transform="translate(19.387)">
              <path id="Path_118646" data-name="Path 118646" d="M394.083,92.23h7.173L381.87,70.758H376.7v32.077h17.388Z" transform="translate(-376.695 -70.758)" fill="#e2410f"/>
              <rect id="Rectangle_22525" data-name="Rectangle 22525" width="17.388" height="9.654" transform="translate(0 37.292)" fill="#e2410f"/>
            </g>
            <g id="Group_10775" data-name="Group 10775">
              <path id="Path_118647" data-name="Path 118647" d="M342.658,102.835h24.425V92.23h7.173L354.87,70.758,335.482,92.23h7.176Z" transform="translate(-335.482 -70.758)" fill="#ff550d"/>
              <rect id="Rectangle_22526" data-name="Rectangle 22526" width="24.425" height="9.654" transform="translate(7.175 37.292)" fill="#ff550d"/>
            </g>
          </g>
        </g>
      </g>
    </g>
  </g>
</svg>
